M48
;Layer_Color=9474304
;FILE_FORMAT=4:4
METRIC,LZ
;TYPE=PLATED
T1F00S00C0.2000
T4F00S00C0.6000
T5F00S00C0.7500
T6F00S00C0.9000
%
T01
X0119406Y00565575
X01245764Y00584994
X01252804Y00585081
X0125Y00614308
X01275965Y00627
X0127121Y00654846
X01276Y00681935
X012685Y007035
X012645Y007165
X01302Y00722
X0130442Y0069606
X0131654
X01325Y0068794
X01335059Y00688825
X013345Y006665
X013455
Y006555
X013345
X01316547Y00648672
X01311622Y00665572
X01307Y0068
X01358253Y00686987
X0137Y00678886
X01379575Y00669899
X01372142Y006543
X01371567Y00646309
X01367Y00617788
X01393Y00616
X01406Y0062
X0140329Y00627508
X01439Y00625
X0146Y00628
X01456Y0061102
X01448Y006
X01453943Y00556942
X01393Y00547
X01377453Y00548424
X01357463Y00548791
X013507Y0055791
X01338214Y00555541
X01357Y00569841
X01356Y00594
X01348Y00631
X01324498Y00618503
X01294Y00612149
X01314415Y00586585
X0121742Y00620925
X0121979Y0064536
X0122Y00675
X01198Y00724
X01343Y00725
X01363218Y0070606
X01370258
X01386163Y0068767
X01456Y00645
X01176729Y00605174
X011751Y00590039
X01175Y00583
X01165458Y00577221
X01166708Y00570293
X01164914Y00563485
X01180425Y00569409
X01176287Y005525
X0116425Y00590045
X01146Y0060245
X01143776Y006133
X01131708Y00609292
X01125768Y00569
X01113195Y00570585
X01113648Y0056356
X01114Y0054906
X0111171Y00581
X01084293Y00583293
X01074698Y00602343
X01081842Y00615793
X01075353Y00624647
X01051Y00606
X01052Y0059606
X00993751Y00600001
X00986251
X00978751
X00971251
X00963751
X00956251
X00948751
X00941251
X00933751
X00926251
X00918751
X00911251
X00903751
X00896251
X00888751
X00881251
X00873751
X00866251
X00858751
X00851251
X00843751
X00836251
X00828751
X00821251
X00813751
X00806251
X00810001Y00607501
X00817501
X00825001
X00832501
X00840001
X00847501
X00855001
X00862501
X00870001
X00877501
X00885001
X00892501
X00900001
X00907501
X00915001
X00922501
X00930001
X00937501
X00945001
X00952501
X00960001
X00967501
X00975001
X00982501
X00990001
X00993751Y00615001
X00986251
X00978751
X00971251
X00963751
X00956251
X00948751
X00941251
X00933751
X00926251
X00918751
X00911251
X00903751
X00896251
X00888751
X00881251
X00873751
X00866251
X00858751
X00851251
X00843751
X00836251
X00828751
X00821251
X00813751
X00806251
X00810001Y00622501
X00817501
X00825001
X00832501
X00840001
X00847501
X00855001
X00862501
X00870001
X00877501
X00885001
X00892501
X00900001
X00896251Y00630001
X00888751
X00881251
X00873751
X00866251
X00858751
X00851251
X00843751
X00836251
X00828751
X00821251
X00813751
X00806251
X00798751
X00802501Y00637501
X00810001
X00817501
X00825001
X00832501
X00840001
X00847501
X00855001
X00862501
X00870001
X00877501
X00885001
X00892501
X00900001
X00896251Y00645001
X00888751
X00881251
X00873751
X00866251
X00858751
X00851251
X00843751
X00836251
X00828751
X00821251
X00813751
X00806251
X00798751
X00802501Y00652501
X00810001
X00817501
X00825001
X00832501
X00840001
X00847501
X00855001
X00862501
X00870001
X00877501
X00885001
X00892501
X00900001
X00896251Y00660001
X00888751
X00881251
X00873751
X00866251
X00858751
X00851251
X00843751
X00836251
X00828751
X00821251
X00813751
X00806251
X00798751
X00802501Y00667501
X00810001
X00817501
X00825001
X00832501
X00840001
X00847501
X00855001
X00862501
X00870001
X00877501
X00885001
X00892501
X00900001
Y00682501
Y00697501
X00877501
X00870001
X00862501
X00866251Y00690001
X00873751
X00877501Y00682501
X00870001
X00862501
X00866251Y00675001
X00873751
X00843751
X00836251
X00828751
X00821251
X00813751
X00810001Y00697501
X00813751Y00705001
X00821251
X00828751
X00836251
X00843751
X00847501Y00712501
X00840001
X00832501
X00825001
X00817501
X00810001
X00802501
X00806251Y00720001
X00813751
X00821251
X00828751
X00836251
X00843751
X00851251
X00858751
X00866251
X00873751
X00881251
X00888751
X00896251
X00900001Y00727501
X00892501
X00885001
X00877501
X00870001
X00862501
X00855001
X00847501
X00840001
X00851251Y00735001
X00858751
X00866251
X00873751
X00881251
X00888751
X00896251
X00900001Y00742501
X00892501
X00885001
X00877501
X00870001
X00862501
X00855001
X00847501
Y00682501
X00840001
X00806251Y00705001
X00798751Y00720001
X00795001Y00667501
Y00652501
Y00637501
Y00592501
X00802501
X00810001
X00817501
X00825001
X00832501
X00840001
X00847501
X00855001
X00862501
X00870001
X00877501
X00885001
X00892501
X00900001
X00907501
X00915001
X00922501
X00930001
X00937501
X00945001
X00952501
X00960001
X00967501
X00975001
X00982501
X00990001
X00993751Y00585001
X00986251
X00978751
X00971251
X00963751
X00956251
X00948751
X00941251
X00933751
X00926251
X00918751
X00911251
X00903751
X00896251
X00888751
X00881251
X00873751
X00866251
X00858751
X00851251
X00843751
X00836251
X00828751
X00821251
X00813751
X00806251
X00798751
X00795001Y00577501
Y00562501
X00798751Y00555001
X00806251
X00813751
X00821251
X00828751
X00836251
X00843751
X00851251
X00858751
X00866251
X00873751
X00881251
X00888751
X00896251
X00903751
X00911251
X00918751
X00926251
X00933751
X00941251
X00948751
X00956251
X00963751
X00971251
X00978751
X00986251
X00993751
X00990001Y00562501
X00982501
X00975001
X00967501
X00960001
X00952501
X00945001
X00937501
X00930001
X00922501
X00915001
X00907501
X00900001
X00892501
X00885001
X00877501
X00870001
X00862501
X00855001
X00847501
X00840001
X00832501
X00825001
X00817501
X00821251Y00570001
X00828751
X00836251
X00843751
X00851251
X00858751
X00866251
X00873751
X00881251
X00888751
X00896251
X00903751
X00911251
X00918751
X00926251
X00933751
X00941251
X00948751
X00956251
X00963751
X00971251
X00978751
X00986251
X00993751
X00990001Y00577501
X00982501
X00975001
X00967501
X00960001
X00952501
X00945001
X00937501
X00930001
X00922501
X00915001
X00907501
X00900001
X00892501
X00885001
X00877501
X00870001
X00862501
X00855001
X00847501
X00840001
X00832501
X00825001
X00817501
X00813751Y00570001
X00817501Y00547501
X00825001
X00832501
X00840001
X00847501
X00855001
X00862501
X00870001
X00877501
X00885001
X00892501
X00900001
X00907501
X00915001
X00922501
X00930001
X00937501
X00945001
X00952501
X00960001
X00967501
X00975001
X00982501
X00990001
X00993751Y00540001
X00986251
X00978751
X00971251
X00963751
X00956251
X00948751
X00941251
X00933751
X00926251
X00918751
X00911251
X00903751
X00896251
X00888751
X00881251
X00873751
X00866251
X00858751
X00851251
X00843751
X00836251
X00828751
X00821251
X00813751
X00817501Y00532501
X00825001
X00832501
X00840001
X00847501
X00855001
X00862501
X00870001
X00877501
X00885001
X00892501
X00900001
X00907501
X00915001
X00922501
X00930001
X00937501
X00945001
X00952501
X00960001
X00967501
X00975001
X00982501
X00990001
X00993751Y00525001
X00986251
X00978751
X00971251
X00975001Y00517501
X00982501
X00990001
X00993751Y00510001
X00986251
X00978751
X00971251
X00963751
X00956251
X00948751
X00941251
X00933751
X00926251
X00918751
X00911251
X00903751
X00896251
X00888751
X00881251
X00873751
X00866251
X00858751
X00851251
X00843751
X00836251
X00798751
X00795001Y00517501
Y00547501
X00802501
X00810001
X01129995Y00687995
X01123Y00703
X01131038Y00712962
X01122Y00735
X00791251Y00720001
X00783751
X00776251
X00768751
X00765001Y00712501
X00753751Y00705001
X00750001Y00697501
X00742501
X00735001
X00727501
X00720001
X00723751Y00690001
X00731251
X00738751
X00757501Y00682501
X00753751Y00675001
X00757501Y00667501
X00765001
X00772501
X00780001
X00787501
X00791251Y00675001
X00783751
X00776251
X00780001Y00682501
X00787501
X00783751Y00690001
X00776251
X00780001Y00697501
X00787501
X00772501Y00682501
X00776251Y00660001
X00783751
X00791251
X00787501Y00652501
X00780001
X00772501
X00765001
X00768751Y00660001
X00761251
X00754Y00655
X00745565Y00655398
X00738751Y00660001
X00735001Y00652501
X00727501
X00731251Y00645001
X00723751
X00727501Y00637501
X00720001
X00712501
X00716251Y00630001
X00723751
X00720001Y00622501
X00712501
X00703099Y00625526
X00684192Y00620006
X00663Y00622
X00652
X00641
X0063
X00619
X00619Y00611
X0063
Y006
X00619Y006
X00641
Y00611
X00652Y00611
Y006
X00663Y006
X00663Y00611
Y00633
X00652
Y00644
X00641Y00644
X0063Y00644
Y00633
X00619
X00619Y00644
X0059856Y00652072
X0058644Y0065213
X00581285Y00647335
X00585343Y00636193
X00585261Y00628269
X0058644Y00621328
X00581251Y00615001
X00573751
X00566251
X00558751
X00562501Y00622501
X00570001
X00566251Y00630001
X00558751
X00551251
X00543751
X00536251
X00528751
X00521251
X00513751
X00506251
X00510001Y00637501
X00517501
X00525001
X00528751Y00645001
X00521251
X00513751
X00506251
X00510001Y00652501
X00517501
X00525001
X00528751Y00660001
X00536251
X00540001Y00667501
X00532501
X00525001
X00517501
X00510001
X00513751Y00675001
X00521251
X00528751
X00536251
X00540001Y00682501
X00532501
X00525001
X00517501
X00510001
X00513751Y00690001
X00521251
X00528751
X00536251
X00540001Y00697501
X00547501
X00551251Y00705001
X00543751
X00536251
X00528751
X00521251
X00513751
X00506251
X00510001Y00712501
X00517501
X00525001
X00532501
X00540001
X00547501
X00555001
X00558751Y00720001
X00551251
X00543751
X00536251
X00528751
X00521251
X00513751
X00506251
X00510001Y00697501
X00517501
X00525001
X00532501
X00506251Y00690001
Y00675001
Y00660001
X00513751
X00521251
X00558751
X00562501Y00667501
X00555001
X00558751Y00675001
X00562501Y00682501
X00570001
X00566251Y00690001
X00574665Y00694335
X00577Y00703
X00588751Y00705001
X00596251
X00600001Y00682501
X00601285Y00673285
X00603751Y00660001
X00639043Y00665368
X00659Y00671
X00664Y00682
X00663751Y00690001
X00671251
X00675001Y00682501
X00667501Y00697501
X00660001
X00667501Y00727501
X00675001
X00682501
X00690001
X00697501
X00705001
X00712501
X00720001
X00727501
X00735001
X00738751Y00735001
X00746251
X00750001Y00742501
X00757501
X00765001
X00742501
X00735001
X00727501
X00720001
X00712501
X00705001
X00697501
X00690001
X00682501
X00675001
X00667501
X00660001
X00652501
X00645001
X00637501
X00630001
X00633751Y00735001
X00652501Y00727501
X00671251Y00735001
X00678751
X00686251
X00693751
X00701251
X00708751
X00716251
X00723751
X00731251
X00753Y0073
X00720001Y00667501
X00712501
X00705001
X00708751Y00660001
X00698Y00661
X00663Y00644
X00641Y00633
X00645537Y00575625
X006545Y00575132
X0062956Y00576
X00637501Y00562501
X00645001Y00547501
X00620422Y00535591
X00611251Y00540001
X00596251Y00555001
X00600001Y00562501
X00592501
X00588751Y00570001
X00581251
X00573751
X00566251
X00558751
X00551251
X00543751
X00536251
X00528751
X00521251
X00513751
X00506251
X00510001Y00577501
X00517501
X00525001
X00532501
X00540001
X00547501
X00555001
X00562501
X00570001
X00577501
X00585001
X005925Y005795
X00599Y00573
X00581251Y00585001
X00573751
X00566251
X00558751
X00551251
X00543751
X00536251
X00528751
X00521251
X00513751
X00506251
X00510001Y00592501
X00517501
X00525001
X00532501
X00540001
X00547501
X00555001
X00562501
X00570001
X00566251Y00600001
X00558751
X00551251
X00543751
X00536251
X00528751
X00521251
X00513751
X00506251
X00510001Y00607501
X00517501
X00525001
X00532501
X00528751Y00615001
X00521251
X00513751
X00506251
X00510001Y00622501
X00517501
X00525001
X00532501
X00562501Y00637501
Y00652501
X00555001Y00682501
Y00727501
Y00742501
X00577501
X00532501
X00525001
X00528751Y00735001
X00624107Y00682602
X00585001Y00607501
X00577501
X00570001
X00562501
Y00562501
X00570001
X00577501
X00573751Y00555001
X00566251
X00558751
X00551251
X00543751
X00536251
X00528751
X00521251
X00513751
X00506251
X00510001Y00562501
X00517501
X00525001
X00532501
X00540001
X00547501
X00555001
Y00547501
X00562501
X00570001
X00573751Y00540001
X00566251
X00558751
X00551251
X00543751
X00536251
X00528751
X00521251
X00513751
X00506251
X00510001Y00547501
X00517501
X00525001
X00532501
X00540001
X00547501
Y00532501
X00555001
X00562501
X00570001
X00577501
X00585001
X00581251Y00525001
X00573751
X00566251
X00558751
X00551251
X00543751
X00536251
X00528751
X00521251
X00513751
X00506251
X00510001Y00532501
X00517501
X00525001
X00532501
X00540001
Y00517501
X00547501
X00555001
X00562501
X00570001
X00577501
X00585001
X00581251Y00510001
X00573751
X00566251
X00558751
X00551251
X00543751
X00536251
X00528751
X00521251
X00513751
X00506251
X00510001Y00517501
X00517501
X00525001
X00532501
X00692Y00529
X00708751Y00525001
X00716251
X00723751
X00731251
X00738751
X00746251
X00750001Y00517501
X00757501
X00761251Y00510001
X00768751
X00776251
X00783751
X00791251
X00787501Y00517501
X00780001
X00753751Y00510001
X00746251
X00738751
X00731251
X00723751
X00716251
X00708751
X00712501Y00517501
X00720001
X00727501
X00735001
X00742501
X00735001Y00532501
X00727501
X00720001
X00712501
X00716251Y00540001
X00723751
X00731251
X00738751
X00735001Y00547501
X00727501
X00720001
X00723751Y00555001
X00731251
X00738751
X00735001Y00562501
X00731251Y00570001
X00717Y00565
X00706Y0056875
X0069896Y00568056
X00692Y00567
X00684Y00565
X00711006Y00575067
X00708751Y00600001
X00716251
X00724208Y00595207
X00757501Y00592501
X00761251Y00600001
Y00615001
X00753751Y00630001
X00746251
X00734043Y00624264
X00772501Y00637501
X00780001
X00787501
X00791251Y00645001
X00783751
X00776251
X00768751
X00780001Y00592501
X00787501
X00791251Y00585001
X00783751
X00780001Y00577501
Y00562501
X00783751Y00555001
X00791251
X00776251
X00768751
X00761251
X00757501Y00562501
X0075406Y00570252
X00761251Y00585001
Y00540001
X00753751
X00747Y00536
X00708751Y00540001
T04
X011966Y00516
X01244Y00641
X012567
X01317Y00737
X013297
X013424
X0145Y0052
X014627
X011839Y00516
X011712
X011585
X011458
X011331
X011204
X011077
X01095
X009627Y0052
X0095
X008364Y00737
X008237
X00811
X007567Y00641
X00744
X006966Y00516
X006839
X006712
X006585
X006458
X006331
X006204
X006077
X00595
T05
X00788Y0053
Y0057
T06
X01432Y00694
Y007194
X010664Y00524
X01041
X00617257Y00734
X00591857
X00566457
X00541058
X00515658
M30
