G04*
G04 #@! TF.GenerationSoftware,Altium Limited,Altium Designer,21.3.2 (30)*
G04*
G04 Layer_Color=8421504*
%FSLAX44Y44*%
%MOMM*%
G71*
G04*
G04 #@! TF.SameCoordinates,BB622590-8895-4630-97EF-0A5410F07859*
G04*
G04*
G04 #@! TF.FilePolarity,Positive*
G04*
G01*
G75*
G04:AMPARAMS|DCode=16|XSize=0.4mm|YSize=1.2mm|CornerRadius=0.05mm|HoleSize=0mm|Usage=FLASHONLY|Rotation=90.000|XOffset=0mm|YOffset=0mm|HoleType=Round|Shape=RoundedRectangle|*
%AMROUNDEDRECTD16*
21,1,0.4000,1.1000,0,0,90.0*
21,1,0.3000,1.2000,0,0,90.0*
1,1,0.1000,0.5500,0.1500*
1,1,0.1000,0.5500,-0.1500*
1,1,0.1000,-0.5500,-0.1500*
1,1,0.1000,-0.5500,0.1500*
%
%ADD16ROUNDEDRECTD16*%
%ADD17R,3.5000X1.0000*%
%ADD18R,3.4000X1.5000*%
%ADD19R,0.4800X0.4800*%
%ADD20R,1.8000X1.4000*%
%ADD21R,1.3000X1.5000*%
%ADD22R,1.5000X1.5500*%
%ADD23R,0.4000X1.3500*%
%ADD24R,2.1000X0.9000*%
%ADD25R,2.6000X2.6000*%
%ADD26R,0.8500X0.2000*%
%ADD27R,0.2000X0.8500*%
G04:AMPARAMS|DCode=28|XSize=0.2mm|YSize=0.85mm|CornerRadius=0.05mm|HoleSize=0mm|Usage=FLASHONLY|Rotation=180.000|XOffset=0mm|YOffset=0mm|HoleType=Round|Shape=RoundedRectangle|*
%AMROUNDEDRECTD28*
21,1,0.2000,0.7500,0,0,180.0*
21,1,0.1000,0.8500,0,0,180.0*
1,1,0.1000,-0.0500,0.3750*
1,1,0.1000,0.0500,0.3750*
1,1,0.1000,0.0500,-0.3750*
1,1,0.1000,-0.0500,-0.3750*
%
%ADD28ROUNDEDRECTD28*%
%ADD29P,0.6788X4X360.0*%
%ADD30R,0.2500X0.2200*%
%ADD31R,0.2500X0.2200*%
%ADD32R,0.6000X1.3000*%
%ADD33R,1.4000X1.2000*%
G04:AMPARAMS|DCode=34|XSize=1.2mm|YSize=1.4mm|CornerRadius=0.3mm|HoleSize=0mm|Usage=FLASHONLY|Rotation=90.000|XOffset=0mm|YOffset=0mm|HoleType=Round|Shape=RoundedRectangle|*
%AMROUNDEDRECTD34*
21,1,1.2000,0.8000,0,0,90.0*
21,1,0.6000,1.4000,0,0,90.0*
1,1,0.6000,0.4000,0.3000*
1,1,0.6000,0.4000,-0.3000*
1,1,0.6000,-0.4000,-0.3000*
1,1,0.6000,-0.4000,0.3000*
%
%ADD34ROUNDEDRECTD34*%
%ADD35O,0.2500X0.8500*%
%ADD36R,0.2500X0.8500*%
%ADD37R,0.8500X0.2500*%
%ADD38R,5.6000X5.6000*%
%ADD39R,0.2000X0.3000*%
G04:AMPARAMS|DCode=40|XSize=0.3mm|YSize=0.2mm|CornerRadius=0.05mm|HoleSize=0mm|Usage=FLASHONLY|Rotation=270.000|XOffset=0mm|YOffset=0mm|HoleType=Round|Shape=RoundedRectangle|*
%AMROUNDEDRECTD40*
21,1,0.3000,0.1000,0,0,270.0*
21,1,0.2000,0.2000,0,0,270.0*
1,1,0.1000,-0.0500,-0.1000*
1,1,0.1000,-0.0500,0.1000*
1,1,0.1000,0.0500,0.1000*
1,1,0.1000,0.0500,-0.1000*
%
%ADD40ROUNDEDRECTD40*%
%ADD41R,0.8000X1.7000*%
%ADD42R,1.4000X1.8000*%
%ADD43R,0.9000X0.6000*%
G04:AMPARAMS|DCode=44|XSize=0.6mm|YSize=0.9mm|CornerRadius=0.15mm|HoleSize=0mm|Usage=FLASHONLY|Rotation=270.000|XOffset=0mm|YOffset=0mm|HoleType=Round|Shape=RoundedRectangle|*
%AMROUNDEDRECTD44*
21,1,0.6000,0.6000,0,0,270.0*
21,1,0.3000,0.9000,0,0,270.0*
1,1,0.3000,-0.3000,-0.1500*
1,1,0.3000,-0.3000,0.1500*
1,1,0.3000,0.3000,0.1500*
1,1,0.3000,0.3000,-0.1500*
%
%ADD44ROUNDEDRECTD44*%
%ADD45R,0.6000X0.9000*%
G04:AMPARAMS|DCode=46|XSize=0.6mm|YSize=0.9mm|CornerRadius=0.15mm|HoleSize=0mm|Usage=FLASHONLY|Rotation=0.000|XOffset=0mm|YOffset=0mm|HoleType=Round|Shape=RoundedRectangle|*
%AMROUNDEDRECTD46*
21,1,0.6000,0.6000,0,0,0.0*
21,1,0.3000,0.9000,0,0,0.0*
1,1,0.3000,0.1500,-0.3000*
1,1,0.3000,-0.1500,-0.3000*
1,1,0.3000,-0.1500,0.3000*
1,1,0.3000,0.1500,0.3000*
%
%ADD46ROUNDEDRECTD46*%
%ADD47R,0.8900X0.9400*%
%ADD48R,1.2000X1.5500*%
%ADD49R,1.2000X1.5500*%
G36*
X1339460Y563155D02*
Y560955D01*
X1336960D01*
Y565655D01*
X1339460Y563155D01*
D02*
G37*
G36*
X1345958Y560960D02*
X1343458D01*
Y563160D01*
X1345258Y564960D01*
X1345958D01*
Y560960D01*
D02*
G37*
G36*
X1339458Y571758D02*
X1337657Y569958D01*
X1336958D01*
Y573957D01*
X1339458D01*
Y571758D01*
D02*
G37*
G36*
X1345957Y569958D02*
X1345258D01*
X1343457Y571758D01*
Y573957D01*
X1345957D01*
Y569958D01*
D02*
G37*
G36*
X1390585Y528115D02*
Y525915D01*
X1388085D01*
Y529915D01*
X1388785D01*
X1390585Y528115D01*
D02*
G37*
G36*
X1397085Y525915D02*
X1394585D01*
X1394585Y528115D01*
X1396385Y529915D01*
X1397085Y529915D01*
X1397085Y525915D01*
D02*
G37*
G36*
X1390585Y536713D02*
X1388785Y534913D01*
X1388085Y534913D01*
Y538913D01*
X1390585D01*
Y536713D01*
D02*
G37*
G36*
X1397083Y534217D02*
X1394583Y536717D01*
Y538917D01*
X1397083D01*
Y534217D01*
D02*
G37*
D16*
X1098500Y615793D02*
D03*
X1098500Y609292D02*
D03*
X1098500Y602793D02*
D03*
X1098500Y596292D02*
D03*
Y589793D02*
D03*
Y583293D02*
D03*
Y576792D02*
D03*
X1098500Y570293D02*
D03*
X1098500Y563792D02*
D03*
X1098500Y557293D02*
D03*
X1155500Y615793D02*
D03*
X1155500Y609292D02*
D03*
X1155500Y602793D02*
D03*
X1155500Y596292D02*
D03*
Y589793D02*
D03*
Y583293D02*
D03*
Y576792D02*
D03*
X1155500Y570293D02*
D03*
X1155500Y563792D02*
D03*
X1155500Y557293D02*
D03*
D17*
X1094500Y713000D02*
D03*
Y693000D02*
D03*
D18*
X1037000Y736500D02*
D03*
Y669500D02*
D03*
D19*
X912000Y708000D02*
D03*
D20*
X546000Y618000D02*
D03*
Y646000D02*
D03*
D21*
X1425500Y601000D02*
D03*
X1406500D02*
D03*
D22*
X1263000Y514500D02*
D03*
X1243000D02*
D03*
D23*
X1266000Y541500D02*
D03*
X1259500D02*
D03*
X1253000D02*
D03*
X1246500D02*
D03*
X1240000D02*
D03*
D24*
X1211000Y659000D02*
D03*
Y633000D02*
D03*
D25*
X1340000Y661000D02*
D03*
D26*
X1320750Y649000D02*
D03*
Y653000D02*
D03*
Y657000D02*
D03*
Y661000D02*
D03*
Y665000D02*
D03*
Y669000D02*
D03*
Y673000D02*
D03*
X1359250D02*
D03*
Y669000D02*
D03*
Y665000D02*
D03*
Y661000D02*
D03*
Y657000D02*
D03*
Y653000D02*
D03*
Y649000D02*
D03*
D27*
X1328000Y680250D02*
D03*
X1332000D02*
D03*
X1336000D02*
D03*
X1340000D02*
D03*
X1344000D02*
D03*
X1348000D02*
D03*
X1352000D02*
D03*
Y641750D02*
D03*
X1348000D02*
D03*
X1344000D02*
D03*
X1340000D02*
D03*
X1336000D02*
D03*
X1332000D02*
D03*
D28*
X1328000D02*
D03*
D29*
X1392585Y532413D02*
D03*
X1341458Y567460D02*
D03*
D30*
X1395835Y527013D02*
D03*
X1389335Y527013D02*
D03*
Y537813D02*
D03*
X1344707Y562060D02*
D03*
Y572860D02*
D03*
X1338208D02*
D03*
D31*
X1395833Y537817D02*
D03*
X1338210Y562055D02*
D03*
D32*
X632270Y551646D02*
D03*
X608270D02*
D03*
D33*
X707000Y712000D02*
D03*
Y696000D02*
D03*
X685000Y712000D02*
D03*
D34*
Y696000D02*
D03*
D35*
X613500Y587750D02*
D03*
D36*
X618500D02*
D03*
X623500D02*
D03*
X628500D02*
D03*
X633500D02*
D03*
X638500Y587750D02*
D03*
X643500D02*
D03*
X648500Y587750D02*
D03*
X653500D02*
D03*
X658500D02*
D03*
X663500D02*
D03*
X668500D02*
D03*
Y656250D02*
D03*
X663500D02*
D03*
X658500D02*
D03*
X653500D02*
D03*
X648500D02*
D03*
X643500Y656250D02*
D03*
X638500D02*
D03*
X633500Y656250D02*
D03*
X628500D02*
D03*
X623500D02*
D03*
X618500D02*
D03*
X613500D02*
D03*
D37*
X675250Y594500D02*
D03*
Y599500D02*
D03*
Y604500D02*
D03*
Y609500D02*
D03*
Y614500D02*
D03*
X675250Y619500D02*
D03*
Y624500D02*
D03*
X675250Y629500D02*
D03*
Y634500D02*
D03*
Y639500D02*
D03*
Y644500D02*
D03*
Y649500D02*
D03*
X606750D02*
D03*
Y644500D02*
D03*
Y639500D02*
D03*
Y634500D02*
D03*
Y629500D02*
D03*
X606750Y624500D02*
D03*
Y619500D02*
D03*
X606750Y614500D02*
D03*
Y609500D02*
D03*
Y604500D02*
D03*
Y599500D02*
D03*
Y594500D02*
D03*
D38*
X641000Y622000D02*
D03*
D39*
X827000Y693000D02*
D03*
Y685000D02*
D03*
X832000D02*
D03*
X822000Y693000D02*
D03*
X832000D02*
D03*
D40*
X822000Y685000D02*
D03*
D41*
X771000Y530000D02*
D03*
X805000D02*
D03*
X771000Y570000D02*
D03*
X805000D02*
D03*
D42*
X748000Y610000D02*
D03*
X776000D02*
D03*
X1219000Y706000D02*
D03*
X1191000D02*
D03*
D43*
X1352000Y605500D02*
D03*
X1378000Y720000D02*
D03*
X1456000Y667043D02*
D03*
X1353000Y720498D02*
D03*
X1326333Y700000D02*
D03*
X1419628Y541915D02*
D03*
X1419585Y572957D02*
D03*
X1394043D02*
D03*
X1365543Y541915D02*
D03*
X1314458Y526915D02*
D03*
X1340000D02*
D03*
X1368500Y557957D02*
D03*
X1300457Y715000D02*
D03*
X800000Y691708D02*
D03*
X765000D02*
D03*
X854000D02*
D03*
X889000D02*
D03*
X1314415Y557957D02*
D03*
X1449000Y572500D02*
D03*
X1474543D02*
D03*
X585000Y543500D02*
D03*
X656793Y558500D02*
D03*
D44*
X1352000Y620500D02*
D03*
X1378000Y705000D02*
D03*
X1456000Y652043D02*
D03*
X1353000Y705498D02*
D03*
X1326333Y715000D02*
D03*
X1419628Y526915D02*
D03*
X1419585Y557957D02*
D03*
X1394043D02*
D03*
X1365542Y526915D02*
D03*
X1314458Y541915D02*
D03*
X1340000D02*
D03*
X1368500Y572957D02*
D03*
X1300457Y700000D02*
D03*
X800000Y676708D02*
D03*
X765000D02*
D03*
X854000Y676708D02*
D03*
X889000Y676708D02*
D03*
X1314415Y572957D02*
D03*
X1449000Y587500D02*
D03*
X1474543D02*
D03*
X585000Y558500D02*
D03*
X656793Y543500D02*
D03*
D45*
X1275500Y581000D02*
D03*
X1461042Y620000D02*
D03*
X1299500Y673000D02*
D03*
X1380499Y679189D02*
D03*
X1380500Y653542D02*
D03*
X1395500Y628000D02*
D03*
X1198500Y552293D02*
D03*
Y578750D02*
D03*
Y604293D02*
D03*
X659500Y733000D02*
D03*
D46*
X1260500Y581000D02*
D03*
X1446042Y620000D02*
D03*
X1284500Y673000D02*
D03*
X1395499Y679189D02*
D03*
X1395500Y653542D02*
D03*
X1380500Y628000D02*
D03*
X1183500Y552293D02*
D03*
Y578750D02*
D03*
Y604293D02*
D03*
X644500Y733000D02*
D03*
D47*
X775000Y708000D02*
D03*
X790700D02*
D03*
X863150D02*
D03*
X878850D02*
D03*
D48*
X1282005Y514505D02*
D03*
D49*
X1224005Y514505D02*
D03*
M02*
