G04*
G04 #@! TF.GenerationSoftware,Altium Limited,Altium Designer,21.3.2 (30)*
G04*
G04 Layer_Physical_Order=3*
G04 Layer_Color=65280*
%FSLAX44Y44*%
%MOMM*%
G71*
G04*
G04 #@! TF.SameCoordinates,BB622590-8895-4630-97EF-0A5410F07859*
G04*
G04*
G04 #@! TF.FilePolarity,Positive*
G04*
G01*
G75*
%ADD13C,0.2540*%
%ADD15C,0.1270*%
%ADD94R,1.5000X1.5000*%
%ADD97C,1.0000*%
%ADD98R,1.0000X1.0000*%
%ADD100C,0.4500*%
G36*
X820903Y511137D02*
X821061Y511107D01*
X821196Y511060D01*
X821313Y511013D01*
X821366Y510984D01*
X821407Y510961D01*
X821449Y510937D01*
X821478Y510914D01*
X821501Y510896D01*
X821519Y510884D01*
X821531Y510878D01*
X821536Y510872D01*
X821648Y510761D01*
X821736Y510638D01*
X821806Y510509D01*
X821865Y510380D01*
X821900Y510268D01*
X821918Y510221D01*
X821930Y510180D01*
X821936Y510145D01*
X821941Y510121D01*
X821947Y510104D01*
Y510098D01*
X821449Y510010D01*
X821425Y510139D01*
X821390Y510251D01*
X821349Y510344D01*
X821308Y510421D01*
X821267Y510479D01*
X821231Y510520D01*
X821208Y510550D01*
X821202Y510556D01*
X821126Y510614D01*
X821044Y510661D01*
X820967Y510691D01*
X820891Y510714D01*
X820821Y510726D01*
X820768Y510737D01*
X820721D01*
X820615Y510732D01*
X820521Y510708D01*
X820439Y510679D01*
X820369Y510649D01*
X820316Y510614D01*
X820275Y510585D01*
X820246Y510561D01*
X820240Y510556D01*
X820175Y510485D01*
X820128Y510409D01*
X820099Y510333D01*
X820076Y510262D01*
X820064Y510198D01*
X820052Y510151D01*
Y510116D01*
Y510110D01*
Y510104D01*
Y510039D01*
X820064Y509981D01*
X820093Y509881D01*
X820134Y509793D01*
X820181Y509717D01*
X820228Y509664D01*
X820269Y509623D01*
X820298Y509599D01*
X820304Y509593D01*
X820310D01*
X820410Y509541D01*
X820504Y509500D01*
X820604Y509470D01*
X820692Y509453D01*
X820768Y509441D01*
X820832Y509429D01*
X820909D01*
X820932Y509435D01*
X820962D01*
X821020Y508995D01*
X820944Y509012D01*
X820873Y509024D01*
X820815Y509036D01*
X820762Y509042D01*
X820721Y509048D01*
X820668D01*
X820545Y509036D01*
X820433Y509012D01*
X820334Y508977D01*
X820251Y508936D01*
X820187Y508895D01*
X820140Y508860D01*
X820111Y508837D01*
X820099Y508825D01*
X820023Y508737D01*
X819964Y508643D01*
X819923Y508549D01*
X819900Y508455D01*
X819882Y508379D01*
X819876Y508314D01*
X819870Y508291D01*
Y508273D01*
Y508261D01*
Y508256D01*
X819882Y508126D01*
X819911Y508009D01*
X819946Y507909D01*
X819993Y507821D01*
X820040Y507751D01*
X820076Y507698D01*
X820105Y507663D01*
X820117Y507651D01*
X820210Y507569D01*
X820310Y507510D01*
X820410Y507469D01*
X820504Y507440D01*
X820586Y507422D01*
X820650Y507417D01*
X820674Y507411D01*
X820709D01*
X820815Y507417D01*
X820915Y507440D01*
X821003Y507469D01*
X821073Y507505D01*
X821132Y507534D01*
X821179Y507563D01*
X821202Y507587D01*
X821214Y507593D01*
X821284Y507675D01*
X821343Y507769D01*
X821396Y507868D01*
X821437Y507974D01*
X821466Y508062D01*
X821478Y508103D01*
X821484Y508138D01*
X821489Y508168D01*
X821495Y508191D01*
X821501Y508203D01*
Y508209D01*
X822000Y508144D01*
X821988Y508050D01*
X821971Y507962D01*
X821918Y507798D01*
X821853Y507657D01*
X821818Y507598D01*
X821783Y507540D01*
X821748Y507487D01*
X821712Y507446D01*
X821683Y507405D01*
X821654Y507375D01*
X821636Y507352D01*
X821619Y507334D01*
X821607Y507323D01*
X821601Y507317D01*
X821531Y507264D01*
X821460Y507211D01*
X821390Y507170D01*
X821313Y507135D01*
X821167Y507076D01*
X821026Y507041D01*
X820962Y507029D01*
X820903Y507018D01*
X820850Y507012D01*
X820803Y507006D01*
X820768Y507000D01*
X820715D01*
X820604Y507006D01*
X820504Y507018D01*
X820404Y507035D01*
X820310Y507059D01*
X820222Y507088D01*
X820146Y507117D01*
X820070Y507153D01*
X820005Y507188D01*
X819940Y507217D01*
X819888Y507252D01*
X819841Y507282D01*
X819806Y507311D01*
X819776Y507334D01*
X819753Y507352D01*
X819741Y507364D01*
X819735Y507370D01*
X819665Y507440D01*
X819606Y507516D01*
X819553Y507593D01*
X819506Y507669D01*
X819471Y507739D01*
X819436Y507816D01*
X819389Y507956D01*
X819377Y508021D01*
X819365Y508080D01*
X819354Y508132D01*
X819348Y508179D01*
X819342Y508215D01*
Y508244D01*
Y508261D01*
Y508267D01*
X819348Y508408D01*
X819371Y508537D01*
X819407Y508649D01*
X819442Y508743D01*
X819477Y508819D01*
X819512Y508878D01*
X819536Y508913D01*
X819542Y508924D01*
X819624Y509012D01*
X819712Y509089D01*
X819806Y509147D01*
X819900Y509194D01*
X819982Y509230D01*
X820046Y509253D01*
X820070Y509259D01*
X820087Y509265D01*
X820099Y509271D01*
X820105D01*
X820005Y509324D01*
X819923Y509376D01*
X819853Y509435D01*
X819794Y509488D01*
X819747Y509535D01*
X819712Y509576D01*
X819694Y509599D01*
X819688Y509611D01*
X819641Y509693D01*
X819606Y509775D01*
X819577Y509857D01*
X819559Y509934D01*
X819547Y509998D01*
X819542Y510045D01*
Y510080D01*
Y510092D01*
X819547Y510192D01*
X819565Y510292D01*
X819588Y510380D01*
X819618Y510456D01*
X819647Y510520D01*
X819671Y510573D01*
X819688Y510603D01*
X819694Y510614D01*
X819753Y510702D01*
X819823Y510779D01*
X819894Y510843D01*
X819964Y510902D01*
X820023Y510943D01*
X820076Y510978D01*
X820111Y510996D01*
X820117Y511002D01*
X820122D01*
X820228Y511049D01*
X820334Y511084D01*
X820439Y511113D01*
X820533Y511131D01*
X820609Y511142D01*
X820674Y511148D01*
X820821D01*
X820903Y511137D01*
D02*
G37*
G36*
X1488903Y743137D02*
X1489061Y743107D01*
X1489196Y743060D01*
X1489314Y743013D01*
X1489366Y742984D01*
X1489407Y742961D01*
X1489449Y742937D01*
X1489478Y742914D01*
X1489501Y742896D01*
X1489519Y742884D01*
X1489531Y742878D01*
X1489536Y742872D01*
X1489648Y742761D01*
X1489736Y742638D01*
X1489806Y742509D01*
X1489865Y742380D01*
X1489900Y742268D01*
X1489918Y742221D01*
X1489930Y742180D01*
X1489935Y742145D01*
X1489941Y742122D01*
X1489947Y742104D01*
Y742098D01*
X1489449Y742010D01*
X1489425Y742139D01*
X1489390Y742251D01*
X1489349Y742344D01*
X1489308Y742421D01*
X1489267Y742479D01*
X1489231Y742520D01*
X1489208Y742550D01*
X1489202Y742556D01*
X1489126Y742614D01*
X1489044Y742661D01*
X1488967Y742691D01*
X1488891Y742714D01*
X1488821Y742726D01*
X1488768Y742738D01*
X1488721D01*
X1488615Y742732D01*
X1488521Y742708D01*
X1488439Y742679D01*
X1488369Y742650D01*
X1488316Y742614D01*
X1488275Y742585D01*
X1488246Y742561D01*
X1488240Y742556D01*
X1488175Y742485D01*
X1488128Y742409D01*
X1488099Y742333D01*
X1488076Y742262D01*
X1488064Y742198D01*
X1488052Y742151D01*
Y742116D01*
Y742110D01*
Y742104D01*
Y742039D01*
X1488064Y741981D01*
X1488093Y741881D01*
X1488134Y741793D01*
X1488181Y741717D01*
X1488228Y741664D01*
X1488269Y741623D01*
X1488298Y741599D01*
X1488304Y741593D01*
X1488310D01*
X1488410Y741541D01*
X1488504Y741499D01*
X1488604Y741470D01*
X1488692Y741453D01*
X1488768Y741441D01*
X1488832Y741429D01*
X1488909D01*
X1488932Y741435D01*
X1488961D01*
X1489020Y740995D01*
X1488944Y741012D01*
X1488873Y741024D01*
X1488815Y741036D01*
X1488762Y741042D01*
X1488721Y741048D01*
X1488668D01*
X1488545Y741036D01*
X1488433Y741012D01*
X1488334Y740977D01*
X1488251Y740936D01*
X1488187Y740895D01*
X1488140Y740860D01*
X1488111Y740836D01*
X1488099Y740825D01*
X1488023Y740737D01*
X1487964Y740643D01*
X1487923Y740549D01*
X1487899Y740455D01*
X1487882Y740379D01*
X1487876Y740314D01*
X1487870Y740291D01*
Y740273D01*
Y740262D01*
Y740256D01*
X1487882Y740126D01*
X1487911Y740009D01*
X1487946Y739909D01*
X1487993Y739821D01*
X1488040Y739751D01*
X1488076Y739698D01*
X1488105Y739663D01*
X1488117Y739651D01*
X1488210Y739569D01*
X1488310Y739510D01*
X1488410Y739469D01*
X1488504Y739440D01*
X1488586Y739422D01*
X1488651Y739417D01*
X1488674Y739411D01*
X1488709D01*
X1488815Y739417D01*
X1488914Y739440D01*
X1489003Y739469D01*
X1489073Y739505D01*
X1489132Y739534D01*
X1489179Y739563D01*
X1489202Y739587D01*
X1489214Y739593D01*
X1489284Y739675D01*
X1489343Y739769D01*
X1489396Y739868D01*
X1489437Y739974D01*
X1489466Y740062D01*
X1489478Y740103D01*
X1489484Y740138D01*
X1489489Y740168D01*
X1489495Y740191D01*
X1489501Y740203D01*
Y740209D01*
X1490000Y740144D01*
X1489988Y740050D01*
X1489971Y739962D01*
X1489918Y739798D01*
X1489853Y739657D01*
X1489818Y739598D01*
X1489783Y739540D01*
X1489748Y739487D01*
X1489713Y739446D01*
X1489683Y739405D01*
X1489654Y739376D01*
X1489636Y739352D01*
X1489619Y739334D01*
X1489607Y739323D01*
X1489601Y739317D01*
X1489531Y739264D01*
X1489460Y739211D01*
X1489390Y739170D01*
X1489314Y739135D01*
X1489167Y739076D01*
X1489026Y739041D01*
X1488961Y739029D01*
X1488903Y739018D01*
X1488850Y739012D01*
X1488803Y739006D01*
X1488768Y739000D01*
X1488715D01*
X1488604Y739006D01*
X1488504Y739018D01*
X1488404Y739035D01*
X1488310Y739059D01*
X1488222Y739088D01*
X1488146Y739117D01*
X1488070Y739153D01*
X1488005Y739188D01*
X1487941Y739217D01*
X1487888Y739252D01*
X1487841Y739282D01*
X1487806Y739311D01*
X1487776Y739334D01*
X1487753Y739352D01*
X1487741Y739364D01*
X1487735Y739370D01*
X1487665Y739440D01*
X1487606Y739516D01*
X1487553Y739593D01*
X1487506Y739669D01*
X1487471Y739739D01*
X1487436Y739816D01*
X1487389Y739956D01*
X1487377Y740021D01*
X1487366Y740080D01*
X1487354Y740132D01*
X1487348Y740179D01*
X1487342Y740214D01*
Y740244D01*
Y740262D01*
Y740267D01*
X1487348Y740408D01*
X1487371Y740537D01*
X1487407Y740649D01*
X1487442Y740743D01*
X1487477Y740819D01*
X1487512Y740878D01*
X1487536Y740913D01*
X1487542Y740925D01*
X1487624Y741012D01*
X1487712Y741089D01*
X1487806Y741148D01*
X1487899Y741194D01*
X1487982Y741230D01*
X1488046Y741253D01*
X1488070Y741259D01*
X1488087Y741265D01*
X1488099Y741271D01*
X1488105D01*
X1488005Y741323D01*
X1487923Y741376D01*
X1487852Y741435D01*
X1487794Y741488D01*
X1487747Y741535D01*
X1487712Y741576D01*
X1487694Y741599D01*
X1487688Y741611D01*
X1487641Y741693D01*
X1487606Y741775D01*
X1487577Y741857D01*
X1487559Y741934D01*
X1487547Y741998D01*
X1487542Y742045D01*
Y742080D01*
Y742092D01*
X1487547Y742192D01*
X1487565Y742292D01*
X1487589Y742380D01*
X1487618Y742456D01*
X1487647Y742520D01*
X1487671Y742573D01*
X1487688Y742603D01*
X1487694Y742614D01*
X1487753Y742702D01*
X1487823Y742779D01*
X1487894Y742843D01*
X1487964Y742902D01*
X1488023Y742943D01*
X1488076Y742978D01*
X1488111Y742996D01*
X1488117Y743002D01*
X1488122D01*
X1488228Y743048D01*
X1488334Y743084D01*
X1488439Y743113D01*
X1488533Y743131D01*
X1488609Y743142D01*
X1488674Y743148D01*
X1488821D01*
X1488903Y743137D01*
D02*
G37*
D13*
X1075353Y617747D02*
X1075782Y617317D01*
X1075353Y617747D02*
Y624647D01*
X1075782Y611217D02*
Y617317D01*
Y611217D02*
X1084000Y603000D01*
Y583585D02*
Y603000D01*
Y583585D02*
X1084293Y583293D01*
X1227713Y620925D02*
X1228270Y620368D01*
X1217420Y620925D02*
X1227713D01*
X1228270Y620368D02*
X1269333D01*
X1327740Y727728D02*
X1333127D01*
X1342400Y737000D01*
X1302133Y702120D02*
X1327740Y727728D01*
X1331810Y681610D02*
X1334684Y684484D01*
Y688450D01*
X1335059Y688825D01*
X1324498Y678327D02*
X1327780Y681610D01*
X1331810D01*
X1324498Y618503D02*
Y678327D01*
X1287785Y687995D02*
X1301910Y702120D01*
X1129995Y687995D02*
X1287785D01*
X1301910Y702120D02*
X1302133D01*
X1310145Y715520D02*
X1329700Y735076D01*
X1291842Y697440D02*
X1309922Y715520D01*
X1128560Y697440D02*
X1291842D01*
X1309922Y715520D02*
X1310145D01*
X1123000Y703000D02*
X1128560Y697440D01*
X1329700Y735076D02*
Y737000D01*
X644591Y535591D02*
X690127Y581127D01*
X731873D02*
X747000Y566000D01*
X690127Y581127D02*
X731873D01*
X629560Y560560D02*
Y576000D01*
X620422Y551422D02*
X629560Y560560D01*
X620422Y535591D02*
Y551422D01*
X1220000Y675000D02*
X1256044D01*
X753748Y570252D02*
X754060D01*
X735000Y589000D02*
X753748Y570252D01*
X1269333Y620368D02*
X1275965Y627000D01*
X1271210Y654846D02*
Y659834D01*
X1256044Y675000D02*
X1271210Y659834D01*
X747000Y536000D02*
Y566000D01*
X620422Y535591D02*
X644591D01*
X651990Y569072D02*
X663072D01*
X683000Y589000D02*
X735000D01*
X663072Y569072D02*
X683000Y589000D01*
X1371306Y659090D02*
Y661630D01*
Y659090D02*
X1371767Y658629D01*
X1371306Y661630D02*
X1379575Y669899D01*
X1371767Y654675D02*
Y658629D01*
Y654675D02*
X1372142Y654300D01*
X645537Y575463D02*
X645600D01*
X651990Y569072D01*
X645537Y575463D02*
Y575625D01*
X753530Y730000D02*
X754800Y728730D01*
X753000Y730000D02*
X753530D01*
X754800Y728730D02*
X828130D01*
X836400Y737000D01*
D15*
X1169675Y598120D02*
X1176729Y605174D01*
X1169675Y584686D02*
Y598120D01*
X1166076Y581086D02*
X1169675Y584686D01*
X1113663Y563575D02*
X1142425D01*
X1113648Y563560D02*
X1113663Y563575D01*
X1142425D02*
X1165000Y541000D01*
X1190226Y569409D02*
X1194060Y565575D01*
X1180911Y569409D02*
X1190226D01*
X1180425Y568923D02*
X1180911Y569409D01*
X1179939Y568923D02*
X1180425D01*
X1179011Y569851D02*
X1179939Y568923D01*
X1167149Y569851D02*
X1179011D01*
X1179939Y568923D02*
X1180425Y569409D01*
X1106285Y578753D02*
Y583247D01*
Y578753D02*
X1106376Y578662D01*
Y583338D02*
Y585632D01*
X1113957Y586425D02*
X1114007Y586376D01*
X1106376Y559368D02*
Y578662D01*
X1109463Y586425D02*
X1113957D01*
X1114007Y586376D02*
X1128375D01*
X1109413D02*
X1109463Y586425D01*
X1107120Y586376D02*
X1109413D01*
X1106285Y583247D02*
X1106376Y583338D01*
X1128375Y586376D02*
X1137132Y595132D01*
X1106376Y585632D02*
X1107120Y586376D01*
X1106376Y559368D02*
X1111259Y554485D01*
X1113585Y570585D02*
Y570975D01*
X1397180Y627508D02*
X1403290D01*
X1391097Y621425D02*
X1397180Y627508D01*
X1390753Y621425D02*
X1391097D01*
X1387575Y618247D02*
X1390753Y621425D01*
X1387575Y617903D02*
Y618247D01*
X1331672Y562000D02*
X1387575Y617903D01*
X1221408Y562000D02*
X1331672D01*
X1222000Y559000D02*
X1334000D01*
X1204000Y541000D02*
X1222000Y559000D01*
X1334000D02*
X1380000Y605000D01*
X1113585Y570975D02*
X1120084Y577474D01*
X1134526D01*
X1168460Y543540D02*
X1202948D01*
X1134526Y577474D02*
X1168460Y543540D01*
X1113195Y570585D02*
X1113585D01*
X1202948Y543540D02*
X1221408Y562000D01*
X1165000Y541000D02*
X1204000D01*
X1410000Y605000D02*
X1450000Y645000D01*
X1456000D01*
X1380000Y605000D02*
X1410000D01*
X1338214Y555541D02*
X1353755Y540000D01*
X1111259Y554485D02*
X1120515D01*
X1437000Y540000D02*
X1453943Y556942D01*
X1353755Y540000D02*
X1437000D01*
X1137132Y607132D02*
X1143300Y613300D01*
X1143776D01*
X1315000Y735000D02*
X1317000Y737000D01*
X1122000Y735000D02*
X1315000D01*
X610052Y644460D02*
X617052Y651460D01*
X586440Y652130D02*
X586643Y651927D01*
X597942Y651454D02*
X598560Y652072D01*
X597942Y648172D02*
X599114Y647000D01*
X597942Y648172D02*
Y651454D01*
X590595Y651927D02*
X595149Y647373D01*
X586643Y651927D02*
X590595D01*
X598062Y644460D02*
X610052D01*
X595149Y647373D02*
X595149D01*
X609000Y647000D02*
X616000Y654000D01*
X599114Y647000D02*
X609000D01*
X595149Y647373D02*
X598062Y644460D01*
X823000Y504000D02*
Y514000D01*
X827256Y504000D02*
X828000Y504744D01*
Y513256D01*
X823000Y504000D02*
X827256D01*
X813000D02*
Y514000D01*
X818000Y504500D02*
Y507000D01*
Y513500D01*
X809744Y504000D02*
X813000D01*
X809000Y504744D02*
X809744Y504000D01*
X813000Y514000D02*
X818000D01*
X823000D01*
X809000Y513256D02*
X809744Y514000D01*
X813000Y504000D02*
X818000D01*
X809744Y514000D02*
X813000D01*
X809000Y504744D02*
Y513256D01*
X818000Y504000D02*
X823000D01*
X827256Y514000D02*
X828000Y513256D01*
X823000Y514000D02*
X827256D01*
X1491000Y746000D02*
X1495256D01*
X1496000Y745256D01*
X1486000Y736000D02*
X1491000D01*
X1477000Y736744D02*
Y745256D01*
X1477744Y746000D02*
X1481000D01*
Y736000D02*
X1486000D01*
X1477000Y745256D02*
X1477744Y746000D01*
X1486000D02*
X1491000D01*
X1481000D02*
X1486000D01*
X1477000Y736744D02*
X1477744Y736000D01*
X1481000D01*
X1486000Y739000D02*
Y745500D01*
Y736500D02*
Y739000D01*
X1481000Y736000D02*
Y746000D01*
X1491000Y736000D02*
X1495256D01*
X1496000Y736744D02*
Y745256D01*
X1495256Y736000D02*
X1496000Y736744D01*
X1491000Y736000D02*
Y746000D01*
X658663Y531255D02*
X684000Y556592D01*
X691460Y566460D02*
X692000Y567000D01*
X691460Y560460D02*
Y566460D01*
X684000Y556592D02*
Y565000D01*
X650291Y695709D02*
X664000Y682000D01*
X602231Y695709D02*
X650291D01*
X574665Y694335D02*
X600858D01*
X602231Y695709D01*
X683000Y531000D02*
X717000Y565000D01*
X659715Y528715D02*
X691460Y560460D01*
X673500Y531000D02*
X683000D01*
X698342Y563342D02*
Y566643D01*
X699358Y567659D01*
X704385Y566261D02*
X706000Y567876D01*
X640065Y528715D02*
X659715D01*
X662543Y523635D02*
X704385Y565477D01*
Y566261D01*
X661175Y526175D02*
X698342Y563342D01*
X641585Y526175D02*
X661175D01*
X706000Y567876D02*
Y568750D01*
X698960Y568056D02*
X699358Y567659D01*
X628793Y531255D02*
X658663D01*
X642637Y523635D02*
X662543D01*
X658500Y516000D02*
X673500Y531000D01*
X607700Y516000D02*
X619326Y527626D01*
X633100Y516000D02*
X635003D01*
X640496Y525086D02*
X641585Y526175D01*
X627704Y530166D02*
X628793Y531255D01*
X620400Y516000D02*
X629486Y525086D01*
X597834Y530166D02*
X627704D01*
X629486Y525086D02*
X640496D01*
X619326Y527626D02*
X638976D01*
X635003Y516000D02*
X642637Y523635D01*
X638976Y527626D02*
X640065Y528715D01*
X595000Y516000D02*
Y527331D01*
X597834Y530166D01*
X682000Y675000D02*
X737000D01*
X657408Y654000D02*
X680948Y677540D01*
X616000Y654000D02*
X657408D01*
X658460Y651460D02*
X682000Y675000D01*
X680948Y677540D02*
X738052D01*
X617052Y651460D02*
X658460D01*
X738052Y677540D02*
X751052Y664540D01*
X1047865Y511135D02*
X1051269Y507731D01*
X1148254D01*
X1047865Y511135D02*
Y517135D01*
X1169987Y509987D02*
Y514787D01*
X1167731Y507731D02*
X1169987Y509987D01*
X1148254Y507731D02*
X1167731D01*
X1169987Y514787D02*
X1171200Y516000D01*
X1148254Y507731D02*
X1148254Y507731D01*
X1041000Y524000D02*
X1047865Y517135D01*
X1137132Y595132D02*
Y607132D01*
X1120515Y554485D02*
X1133100Y541900D01*
Y516000D02*
Y541900D01*
X1114000Y544000D02*
X1120400Y537600D01*
X1114000Y544000D02*
Y549060D01*
X1120400Y516000D02*
Y537600D01*
X1166708Y570293D02*
X1167149Y569851D01*
X1165458Y577221D02*
X1166076Y577839D01*
Y581086D01*
X1165303Y563485D02*
X1176287Y552500D01*
X1164914Y563485D02*
X1165303D01*
X748512Y658147D02*
Y663487D01*
X737000Y675000D02*
X748512Y663487D01*
X745764Y655398D02*
X748512Y658147D01*
X745565Y655398D02*
X745764D01*
X737000Y675000D02*
X737000Y675000D01*
X751052Y658147D02*
X754000Y655199D01*
Y655000D02*
Y655199D01*
X751052Y658147D02*
Y664540D01*
D94*
X1041000Y524000D02*
D03*
D97*
X658500Y516000D02*
D03*
X633100D02*
D03*
X620400D02*
D03*
X607700D02*
D03*
X836400Y737000D02*
D03*
X1120400Y516000D02*
D03*
X1133100D02*
D03*
X1171200D02*
D03*
X1342400Y737000D02*
D03*
X1329700D02*
D03*
D98*
X595000Y516000D02*
D03*
X1317000Y737000D02*
D03*
D100*
X1113648Y563560D02*
D03*
X1194060Y565575D02*
D03*
X1180425Y569409D02*
D03*
X1075353Y624647D02*
D03*
X1403290Y627508D02*
D03*
X1113195Y570585D02*
D03*
X1338214Y555541D02*
D03*
X1456000Y645000D02*
D03*
X1453943Y556942D02*
D03*
X1084293Y583293D02*
D03*
X1217420Y620925D02*
D03*
X1143776Y613300D02*
D03*
X1335059Y688825D02*
D03*
X1324498Y618503D02*
D03*
X1129995Y687995D02*
D03*
X1123000Y703000D02*
D03*
X1122000Y735000D02*
D03*
X598560Y652072D02*
D03*
X645537Y575625D02*
D03*
X586440Y652130D02*
D03*
X717000Y565000D02*
D03*
X698960Y568056D02*
D03*
X706000Y568750D02*
D03*
X692000Y567000D02*
D03*
X684000Y565000D02*
D03*
X629560Y576000D02*
D03*
X1220000Y675000D02*
D03*
X754060Y570252D02*
D03*
X1275965Y627000D02*
D03*
X1176729Y605174D02*
D03*
X1271210Y654846D02*
D03*
X747000Y536000D02*
D03*
X1372142Y654300D02*
D03*
X664000Y682000D02*
D03*
X574665Y694335D02*
D03*
X620422Y535591D02*
D03*
X753000Y730000D02*
D03*
X1379575Y669899D02*
D03*
X1114000Y549060D02*
D03*
X1165458Y577221D02*
D03*
X1166708Y570293D02*
D03*
X1164914Y563485D02*
D03*
X1176287Y552500D02*
D03*
X745565Y655398D02*
D03*
X754000Y655000D02*
D03*
M02*
