G04*
G04 #@! TF.GenerationSoftware,Altium Limited,Altium Designer,21.3.2 (30)*
G04*
G04 Layer_Color=65535*
%FSLAX44Y44*%
%MOMM*%
G71*
G04*
G04 #@! TF.SameCoordinates,BB622590-8895-4630-97EF-0A5410F07859*
G04*
G04*
G04 #@! TF.FilePolarity,Positive*
G04*
G01*
G75*
%ADD10C,0.2500*%
%ADD11C,0.6000*%
%ADD12C,0.1000*%
%ADD13C,0.2540*%
%ADD14C,0.2000*%
%ADD15C,0.1270*%
G36*
X515612Y713794D02*
X517818D01*
Y712855D01*
X515612D01*
Y710649D01*
X514685D01*
Y712855D01*
X512455D01*
Y713794D01*
X514685D01*
Y716000D01*
X515612D01*
Y713794D01*
D02*
G37*
G36*
X513347Y708478D02*
X513335D01*
X513312D01*
X513276Y708466D01*
X513218Y708455D01*
X513089Y708419D01*
X512913Y708372D01*
X512737Y708302D01*
X512537Y708208D01*
X512361Y708091D01*
X512197Y707950D01*
X512185Y707926D01*
X512138Y707879D01*
X512080Y707786D01*
X512009Y707656D01*
X511939Y707516D01*
X511880Y707340D01*
X511833Y707140D01*
X511821Y706917D01*
Y706847D01*
X511833Y706800D01*
X511845Y706659D01*
X511892Y706495D01*
X511950Y706295D01*
X512044Y706096D01*
X512185Y705885D01*
X512267Y705791D01*
X512361Y705697D01*
X512373Y705685D01*
X512385Y705673D01*
X512420Y705650D01*
X512455Y705615D01*
X512584Y705533D01*
X512748Y705439D01*
X512948Y705357D01*
X513194Y705274D01*
X513488Y705216D01*
X513640Y705192D01*
X513805D01*
X513816D01*
X513840D01*
X513887D01*
X513945Y705204D01*
X514016D01*
X514098Y705216D01*
X514286Y705251D01*
X514509Y705310D01*
X514732Y705392D01*
X514943Y705509D01*
X515142Y705673D01*
X515154D01*
X515166Y705697D01*
X515224Y705755D01*
X515307Y705861D01*
X515401Y706002D01*
X515483Y706190D01*
X515565Y706401D01*
X515624Y706647D01*
X515647Y706788D01*
Y707011D01*
X515635Y707105D01*
X515624Y707222D01*
X515588Y707363D01*
X515553Y707504D01*
X515494Y707656D01*
X515424Y707809D01*
X515412Y707821D01*
X515389Y707868D01*
X515330Y707938D01*
X515271Y708032D01*
X515189Y708126D01*
X515084Y708220D01*
X514978Y708325D01*
X514849Y708408D01*
X514978Y709346D01*
X519156Y708560D01*
Y704523D01*
X518205D01*
Y707774D01*
X516011Y708208D01*
X516022Y708196D01*
X516034Y708173D01*
X516058Y708138D01*
X516093Y708079D01*
X516128Y708009D01*
X516175Y707926D01*
X516269Y707739D01*
X516363Y707504D01*
X516445Y707246D01*
X516504Y706964D01*
X516527Y706823D01*
Y706565D01*
X516515Y706495D01*
X516504Y706401D01*
X516492Y706295D01*
X516468Y706178D01*
X516433Y706049D01*
X516351Y705767D01*
X516292Y705615D01*
X516210Y705462D01*
X516128Y705310D01*
X516034Y705157D01*
X515917Y705016D01*
X515788Y704875D01*
X515776Y704864D01*
X515753Y704840D01*
X515717Y704805D01*
X515659Y704758D01*
X515577Y704699D01*
X515494Y704641D01*
X515389Y704570D01*
X515271Y704500D01*
X515142Y704441D01*
X515002Y704371D01*
X514837Y704312D01*
X514673Y704253D01*
X514497Y704206D01*
X514297Y704171D01*
X514098Y704148D01*
X513887Y704136D01*
X513875D01*
X513840D01*
X513781D01*
X513699Y704148D01*
X513605Y704160D01*
X513499Y704171D01*
X513370Y704195D01*
X513241Y704218D01*
X512936Y704289D01*
X512619Y704406D01*
X512455Y704476D01*
X512303Y704570D01*
X512138Y704664D01*
X511986Y704781D01*
X511974Y704793D01*
X511939Y704817D01*
X511892Y704864D01*
X511833Y704922D01*
X511763Y705005D01*
X511669Y705098D01*
X511587Y705216D01*
X511493Y705345D01*
X511399Y705486D01*
X511317Y705650D01*
X511235Y705826D01*
X511152Y706014D01*
X511094Y706213D01*
X511047Y706436D01*
X511012Y706671D01*
X511000Y706917D01*
Y707023D01*
X511012Y707105D01*
X511023Y707199D01*
X511035Y707305D01*
X511047Y707434D01*
X511082Y707563D01*
X511152Y707856D01*
X511258Y708149D01*
X511329Y708302D01*
X511411Y708455D01*
X511505Y708595D01*
X511610Y708736D01*
X511622Y708748D01*
X511634Y708771D01*
X511681Y708795D01*
X511728Y708842D01*
X511786Y708900D01*
X511857Y708959D01*
X511950Y709029D01*
X512056Y709088D01*
X512162Y709159D01*
X512291Y709229D01*
X512573Y709358D01*
X512901Y709464D01*
X513077Y709499D01*
X513265Y709522D01*
X513347Y708478D01*
D02*
G37*
G36*
X519261Y702470D02*
X513359Y700358D01*
X513347D01*
X513324Y700346D01*
X513288Y700334D01*
X513241Y700311D01*
X513171Y700299D01*
X513101Y700275D01*
X512924Y700217D01*
X512725Y700146D01*
X512502Y700076D01*
X512033Y699935D01*
X512044D01*
X512068Y699923D01*
X512103Y699912D01*
X512150Y699900D01*
X512279Y699865D01*
X512455Y699806D01*
X512655Y699747D01*
X512878Y699677D01*
X513112Y699595D01*
X513359Y699501D01*
X519261Y697295D01*
Y696203D01*
X511141Y699372D01*
Y700498D01*
X519261Y703643D01*
Y702470D01*
D02*
G37*
G36*
Y690981D02*
X512878Y686722D01*
X519261D01*
Y685689D01*
X511141D01*
Y686804D01*
X517513Y691052D01*
X511141D01*
Y692085D01*
X519261D01*
Y690981D01*
D02*
G37*
G36*
X512279Y682591D02*
X511141D01*
Y683729D01*
X512279D01*
Y682591D01*
D02*
G37*
G36*
X515471Y681030D02*
X515588D01*
X515706Y681019D01*
X515858Y681007D01*
X516011Y680983D01*
X516351Y680925D01*
X516727Y680843D01*
X517102Y680725D01*
X517466Y680561D01*
X517478Y680549D01*
X517513Y680537D01*
X517560Y680514D01*
X517618Y680467D01*
X517701Y680420D01*
X517794Y680361D01*
X518006Y680209D01*
X518240Y680009D01*
X518475Y679775D01*
X518710Y679505D01*
X518909Y679188D01*
X518921Y679176D01*
X518933Y679141D01*
X518956Y679094D01*
X518991Y679035D01*
X519027Y678941D01*
X519062Y678848D01*
X519109Y678730D01*
X519156Y678601D01*
X519203Y678460D01*
X519250Y678308D01*
X519320Y677979D01*
X519379Y677604D01*
X519402Y677216D01*
Y677099D01*
X519390Y677017D01*
X519379Y676911D01*
X519367Y676782D01*
X519355Y676653D01*
X519320Y676501D01*
X519250Y676184D01*
X519144Y675832D01*
X519073Y675656D01*
X518991Y675491D01*
X518886Y675327D01*
X518780Y675163D01*
X518768Y675151D01*
X518757Y675128D01*
X518722Y675081D01*
X518663Y675022D01*
X518604Y674963D01*
X518522Y674881D01*
X518428Y674799D01*
X518334Y674705D01*
X518217Y674611D01*
X518076Y674518D01*
X517935Y674412D01*
X517783Y674318D01*
X517607Y674236D01*
X517431Y674142D01*
X517243Y674072D01*
X517032Y674001D01*
X516785Y675057D01*
X516797D01*
X516820Y675069D01*
X516867Y675092D01*
X516926Y675116D01*
X516996Y675139D01*
X517090Y675175D01*
X517278Y675268D01*
X517489Y675386D01*
X517701Y675527D01*
X517900Y675703D01*
X518076Y675890D01*
X518100Y675914D01*
X518147Y675984D01*
X518205Y676102D01*
X518287Y676254D01*
X518358Y676454D01*
X518428Y676677D01*
X518475Y676947D01*
X518487Y677240D01*
Y677334D01*
X518475Y677393D01*
Y677475D01*
X518463Y677569D01*
X518428Y677792D01*
X518381Y678038D01*
X518299Y678296D01*
X518182Y678566D01*
X518029Y678812D01*
Y678824D01*
X518006Y678836D01*
X517947Y678918D01*
X517853Y679024D01*
X517712Y679153D01*
X517536Y679305D01*
X517337Y679446D01*
X517090Y679575D01*
X516820Y679693D01*
X516809D01*
X516785Y679704D01*
X516750Y679716D01*
X516691Y679728D01*
X516621Y679751D01*
X516539Y679775D01*
X516339Y679810D01*
X516105Y679857D01*
X515846Y679904D01*
X515565Y679927D01*
X515260Y679939D01*
X515248D01*
X515213D01*
X515154D01*
X515084D01*
X515002Y679927D01*
X514896D01*
X514779Y679915D01*
X514650Y679904D01*
X514368Y679868D01*
X514063Y679810D01*
X513758Y679740D01*
X513453Y679646D01*
X513441D01*
X513417Y679634D01*
X513382Y679610D01*
X513324Y679587D01*
X513183Y679517D01*
X513018Y679411D01*
X512831Y679282D01*
X512631Y679118D01*
X512455Y678930D01*
X512291Y678707D01*
Y678695D01*
X512279Y678672D01*
X512256Y678636D01*
X512232Y678589D01*
X512209Y678531D01*
X512174Y678460D01*
X512103Y678296D01*
X512033Y678085D01*
X511974Y677850D01*
X511927Y677592D01*
X511915Y677322D01*
Y677240D01*
X511927Y677169D01*
Y677087D01*
X511939Y677005D01*
X511986Y676794D01*
X512044Y676548D01*
X512138Y676301D01*
X512267Y676043D01*
X512338Y675914D01*
X512432Y675797D01*
X512443Y675785D01*
X512455Y675773D01*
X512490Y675738D01*
X512525Y675691D01*
X512584Y675644D01*
X512655Y675585D01*
X512725Y675515D01*
X512819Y675456D01*
X512924Y675386D01*
X513042Y675304D01*
X513159Y675233D01*
X513300Y675163D01*
X513453Y675104D01*
X513617Y675045D01*
X513793Y674987D01*
X513981Y674940D01*
X513711Y673860D01*
X513699D01*
X513652Y673872D01*
X513582Y673895D01*
X513488Y673931D01*
X513382Y673966D01*
X513253Y674013D01*
X513112Y674072D01*
X512960Y674142D01*
X512631Y674306D01*
X512303Y674518D01*
X512138Y674647D01*
X511974Y674776D01*
X511833Y674917D01*
X511692Y675081D01*
X511681Y675092D01*
X511657Y675116D01*
X511634Y675175D01*
X511587Y675233D01*
X511528Y675327D01*
X511469Y675421D01*
X511411Y675550D01*
X511352Y675679D01*
X511282Y675832D01*
X511223Y675996D01*
X511164Y676172D01*
X511106Y676360D01*
X511059Y676559D01*
X511035Y676771D01*
X511012Y676993D01*
X511000Y677228D01*
Y677357D01*
X511012Y677451D01*
Y677557D01*
X511023Y677686D01*
X511047Y677827D01*
X511070Y677991D01*
X511129Y678331D01*
X511223Y678683D01*
X511352Y679035D01*
X511434Y679200D01*
X511528Y679364D01*
X511540Y679376D01*
X511552Y679399D01*
X511587Y679446D01*
X511634Y679493D01*
X511681Y679563D01*
X511751Y679646D01*
X511833Y679740D01*
X511927Y679833D01*
X512033Y679927D01*
X512138Y680033D01*
X512408Y680244D01*
X512725Y680443D01*
X513077Y680620D01*
X513089D01*
X513124Y680643D01*
X513183Y680655D01*
X513253Y680690D01*
X513347Y680713D01*
X513464Y680749D01*
X513593Y680796D01*
X513734Y680831D01*
X513887Y680866D01*
X514063Y680913D01*
X514427Y680972D01*
X514837Y681019D01*
X515260Y681042D01*
X515271D01*
X515318D01*
X515389D01*
X515471Y681030D01*
D02*
G37*
G36*
X512279Y671244D02*
X511141D01*
Y672382D01*
X512279D01*
Y671244D01*
D02*
G37*
G36*
X541354Y715988D02*
X541459D01*
X541588Y715976D01*
X541717Y715953D01*
X541870Y715941D01*
X542034Y715906D01*
X542210Y715883D01*
X542586Y715789D01*
X542973Y715671D01*
X543360Y715507D01*
X543372Y715495D01*
X543407Y715484D01*
X543454Y715460D01*
X543525Y715413D01*
X543618Y715366D01*
X543712Y715308D01*
X543935Y715143D01*
X544193Y714944D01*
X544440Y714697D01*
X544686Y714416D01*
X544792Y714251D01*
X544897Y714087D01*
X544909Y714075D01*
X544921Y714040D01*
X544944Y713993D01*
X544980Y713923D01*
X545015Y713829D01*
X545062Y713723D01*
X545109Y713606D01*
X545156Y713465D01*
X545203Y713313D01*
X545238Y713148D01*
X545285Y712972D01*
X545320Y712785D01*
X545379Y712374D01*
X545402Y712163D01*
Y711787D01*
X545390Y711717D01*
Y711623D01*
X545367Y711400D01*
X545332Y711153D01*
X545273Y710895D01*
X545203Y710614D01*
X545109Y710344D01*
Y710332D01*
X545097Y710309D01*
X545085Y710273D01*
X545062Y710227D01*
X544991Y710097D01*
X544909Y709933D01*
X544792Y709757D01*
X544651Y709569D01*
X544498Y709393D01*
X544311Y709229D01*
X544287Y709205D01*
X544217Y709159D01*
X544111Y709088D01*
X543959Y708994D01*
X543771Y708900D01*
X543536Y708795D01*
X543278Y708689D01*
X542985Y708607D01*
X542727Y709581D01*
X542738D01*
X542750Y709593D01*
X542785Y709604D01*
X542832Y709616D01*
X542938Y709651D01*
X543079Y709698D01*
X543243Y709769D01*
X543396Y709851D01*
X543560Y709933D01*
X543701Y710039D01*
X543712Y710050D01*
X543759Y710086D01*
X543818Y710156D01*
X543900Y710238D01*
X543994Y710344D01*
X544088Y710485D01*
X544182Y710637D01*
X544264Y710813D01*
X544276Y710837D01*
X544299Y710895D01*
X544334Y711001D01*
X544381Y711142D01*
X544416Y711306D01*
X544452Y711494D01*
X544475Y711705D01*
X544487Y711928D01*
Y712057D01*
X544475Y712116D01*
Y712186D01*
X544463Y712362D01*
X544428Y712562D01*
X544393Y712785D01*
X544334Y712996D01*
X544252Y713207D01*
X544240Y713231D01*
X544217Y713301D01*
X544158Y713395D01*
X544100Y713512D01*
X544006Y713653D01*
X543912Y713806D01*
X543794Y713946D01*
X543665Y714075D01*
X543654Y714087D01*
X543607Y714134D01*
X543525Y714193D01*
X543431Y714263D01*
X543313Y714345D01*
X543172Y714427D01*
X543020Y714510D01*
X542856Y714592D01*
X542844D01*
X542821Y714604D01*
X542785Y714615D01*
X542727Y714639D01*
X542656Y714662D01*
X542574Y714686D01*
X542480Y714721D01*
X542374Y714744D01*
X542128Y714803D01*
X541847Y714850D01*
X541553Y714885D01*
X541225Y714897D01*
X541213D01*
X541178D01*
X541119D01*
X541049Y714885D01*
X540955D01*
X540837Y714873D01*
X540720Y714862D01*
X540591Y714850D01*
X540298Y714803D01*
X539992Y714744D01*
X539687Y714650D01*
X539394Y714533D01*
X539382D01*
X539359Y714510D01*
X539324Y714498D01*
X539277Y714463D01*
X539147Y714381D01*
X538983Y714251D01*
X538807Y714099D01*
X538631Y713911D01*
X538467Y713688D01*
X538314Y713442D01*
Y713430D01*
X538303Y713407D01*
X538279Y713371D01*
X538256Y713313D01*
X538232Y713254D01*
X538209Y713172D01*
X538138Y712984D01*
X538080Y712749D01*
X538021Y712491D01*
X537974Y712210D01*
X537962Y711916D01*
Y711799D01*
X537974Y711729D01*
Y711658D01*
X537998Y711482D01*
X538021Y711271D01*
X538068Y711048D01*
X538138Y710801D01*
X538220Y710555D01*
Y710543D01*
X538232Y710520D01*
X538244Y710496D01*
X538267Y710449D01*
X538326Y710320D01*
X538396Y710180D01*
X538479Y710015D01*
X538573Y709839D01*
X538678Y709675D01*
X538795Y709534D01*
X540321D01*
Y711928D01*
X541283D01*
Y708478D01*
X538267D01*
X538256Y708490D01*
X538244Y708513D01*
X538209Y708560D01*
X538162Y708619D01*
X538115Y708689D01*
X538056Y708771D01*
X537986Y708877D01*
X537915Y708983D01*
X537763Y709229D01*
X537598Y709511D01*
X537446Y709804D01*
X537317Y710121D01*
Y710133D01*
X537305Y710156D01*
X537293Y710203D01*
X537270Y710262D01*
X537246Y710344D01*
X537211Y710438D01*
X537188Y710543D01*
X537164Y710649D01*
X537106Y710907D01*
X537047Y711200D01*
X537012Y711517D01*
X537000Y711846D01*
Y711963D01*
X537012Y712045D01*
Y712151D01*
X537024Y712280D01*
X537047Y712421D01*
X537059Y712573D01*
X537129Y712914D01*
X537211Y713278D01*
X537340Y713653D01*
X537411Y713841D01*
X537505Y714028D01*
X537516Y714040D01*
X537528Y714075D01*
X537563Y714122D01*
X537598Y714193D01*
X537657Y714275D01*
X537716Y714357D01*
X537880Y714580D01*
X538091Y714815D01*
X538349Y715061D01*
X538643Y715296D01*
X538983Y715507D01*
X538995D01*
X539030Y715531D01*
X539077Y715554D01*
X539159Y715589D01*
X539241Y715624D01*
X539359Y715660D01*
X539476Y715707D01*
X539617Y715754D01*
X539769Y715800D01*
X539945Y715847D01*
X540121Y715883D01*
X540309Y715918D01*
X540720Y715976D01*
X541154Y716000D01*
X541166D01*
X541213D01*
X541272D01*
X541354Y715988D01*
D02*
G37*
G36*
X545261Y705802D02*
X538878Y701543D01*
X545261D01*
Y700510D01*
X537141D01*
Y701625D01*
X543513Y705873D01*
X537141D01*
Y706906D01*
X545261D01*
Y705802D01*
D02*
G37*
G36*
Y695581D02*
X545250Y695370D01*
X545238Y695135D01*
X545214Y694901D01*
X545179Y694666D01*
X545144Y694467D01*
Y694455D01*
X545132Y694431D01*
Y694396D01*
X545109Y694349D01*
X545074Y694220D01*
X545015Y694056D01*
X544933Y693868D01*
X544827Y693669D01*
X544710Y693469D01*
X544557Y693281D01*
X544546Y693270D01*
X544534Y693258D01*
X544498Y693223D01*
X544463Y693176D01*
X544346Y693058D01*
X544182Y692918D01*
X543982Y692765D01*
X543747Y692601D01*
X543478Y692448D01*
X543172Y692319D01*
X543161D01*
X543137Y692307D01*
X543090Y692284D01*
X543020Y692272D01*
X542938Y692237D01*
X542844Y692214D01*
X542738Y692190D01*
X542609Y692155D01*
X542480Y692120D01*
X542328Y692096D01*
X541999Y692038D01*
X541635Y692002D01*
X541236Y691991D01*
X541225D01*
X541201D01*
X541142D01*
X541084D01*
X541002Y692002D01*
X540908D01*
X540685Y692014D01*
X540427Y692049D01*
X540157Y692085D01*
X539875Y692143D01*
X539593Y692214D01*
X539582D01*
X539558Y692225D01*
X539523Y692237D01*
X539476Y692249D01*
X539347Y692296D01*
X539183Y692366D01*
X538995Y692437D01*
X538807Y692530D01*
X538608Y692648D01*
X538420Y692765D01*
X538396Y692777D01*
X538338Y692824D01*
X538256Y692894D01*
X538150Y692988D01*
X538033Y693094D01*
X537915Y693223D01*
X537786Y693352D01*
X537681Y693504D01*
X537669Y693528D01*
X537634Y693575D01*
X537587Y693657D01*
X537528Y693774D01*
X537458Y693915D01*
X537399Y694079D01*
X537329Y694267D01*
X537270Y694478D01*
Y694502D01*
X537258Y694537D01*
X537246Y694572D01*
X537235Y694690D01*
X537211Y694854D01*
X537188Y695042D01*
X537164Y695265D01*
X537152Y695511D01*
X537141Y695781D01*
Y698703D01*
X545261D01*
Y695581D01*
D02*
G37*
G36*
X571120Y709569D02*
X570158D01*
Y712245D01*
X563000D01*
Y713325D01*
X570158D01*
Y716000D01*
X571120D01*
Y709569D01*
D02*
G37*
G36*
X567201Y706154D02*
X571120Y708924D01*
Y707645D01*
X569032Y706166D01*
X569020D01*
X569008Y706143D01*
X568973Y706119D01*
X568926Y706084D01*
X568809Y706014D01*
X568668Y705908D01*
X568504Y705802D01*
X568339Y705697D01*
X568187Y705603D01*
X568046Y705521D01*
X568069Y705509D01*
X568116Y705474D01*
X568210Y705415D01*
X568328Y705333D01*
X568457Y705239D01*
X568621Y705122D01*
X568785Y705005D01*
X568961Y704864D01*
X571120Y703244D01*
Y702071D01*
X567260Y704887D01*
X563000Y701848D01*
Y703174D01*
X565887Y705227D01*
X565899Y705239D01*
X565934Y705263D01*
X565981Y705286D01*
X566039Y705333D01*
X566204Y705439D01*
X566380Y705556D01*
X566368Y705568D01*
X566321Y705603D01*
X566250Y705650D01*
X566157Y705709D01*
X565969Y705838D01*
X565887Y705896D01*
X565816Y705943D01*
X563000Y707997D01*
Y709288D01*
X567201Y706154D01*
D02*
G37*
G36*
X596120Y712233D02*
X596109Y712139D01*
Y712034D01*
X596097Y711787D01*
X596062Y711529D01*
X596027Y711247D01*
X595968Y710989D01*
X595933Y710860D01*
X595897Y710754D01*
Y710743D01*
X595886Y710731D01*
X595851Y710661D01*
X595804Y710555D01*
X595722Y710426D01*
X595616Y710285D01*
X595475Y710133D01*
X595311Y709992D01*
X595123Y709851D01*
X595111D01*
X595099Y709839D01*
X595029Y709792D01*
X594912Y709745D01*
X594759Y709675D01*
X594583Y709616D01*
X594372Y709558D01*
X594149Y709522D01*
X593903Y709511D01*
X593891D01*
X593867D01*
X593820D01*
X593762Y709522D01*
X593680D01*
X593597Y709534D01*
X593398Y709581D01*
X593163Y709651D01*
X592917Y709745D01*
X592670Y709886D01*
X592553Y709980D01*
X592436Y710074D01*
X592424Y710086D01*
X592412Y710097D01*
X592377Y710133D01*
X592342Y710180D01*
X592295Y710238D01*
X592248Y710309D01*
X592189Y710403D01*
X592119Y710496D01*
X592060Y710614D01*
X592002Y710743D01*
X591931Y710884D01*
X591872Y711036D01*
X591825Y711212D01*
X591767Y711388D01*
X591732Y711588D01*
X591697Y711799D01*
X591685Y711776D01*
X591661Y711729D01*
X591614Y711658D01*
X591567Y711564D01*
X591438Y711353D01*
X591356Y711247D01*
X591286Y711153D01*
X591262Y711130D01*
X591204Y711071D01*
X591110Y710977D01*
X590992Y710860D01*
X590828Y710731D01*
X590652Y710579D01*
X590441Y710426D01*
X590206Y710262D01*
X588000Y708865D01*
Y710203D01*
X589690Y711271D01*
X589701D01*
X589725Y711294D01*
X589760Y711318D01*
X589807Y711353D01*
X589936Y711435D01*
X590101Y711541D01*
X590276Y711670D01*
X590464Y711799D01*
X590640Y711928D01*
X590805Y712045D01*
X590816Y712057D01*
X590863Y712092D01*
X590934Y712151D01*
X591016Y712233D01*
X591192Y712409D01*
X591274Y712503D01*
X591344Y712597D01*
X591356Y712609D01*
X591368Y712632D01*
X591391Y712679D01*
X591427Y712749D01*
X591462Y712820D01*
X591497Y712902D01*
X591556Y713090D01*
Y713102D01*
X591567Y713125D01*
Y713172D01*
X591579Y713231D01*
X591591Y713313D01*
Y713407D01*
X591603Y713536D01*
Y714920D01*
X588000D01*
Y716000D01*
X596120D01*
Y712233D01*
D02*
G37*
G36*
X592201Y705521D02*
X596120Y708290D01*
Y707011D01*
X594032Y705533D01*
X594020D01*
X594008Y705509D01*
X593973Y705486D01*
X593926Y705450D01*
X593809Y705380D01*
X593668Y705274D01*
X593504Y705169D01*
X593339Y705063D01*
X593187Y704969D01*
X593046Y704887D01*
X593069Y704875D01*
X593116Y704840D01*
X593210Y704781D01*
X593328Y704699D01*
X593457Y704605D01*
X593621Y704488D01*
X593785Y704371D01*
X593961Y704230D01*
X596120Y702611D01*
Y701437D01*
X592260Y704253D01*
X588000Y701214D01*
Y702540D01*
X590887Y704594D01*
X590899Y704605D01*
X590934Y704629D01*
X590981Y704652D01*
X591039Y704699D01*
X591204Y704805D01*
X591380Y704922D01*
X591368Y704934D01*
X591321Y704969D01*
X591250Y705016D01*
X591157Y705075D01*
X590969Y705204D01*
X590887Y705263D01*
X590816Y705310D01*
X588000Y707363D01*
Y708654D01*
X592201Y705521D01*
D02*
G37*
G36*
X618612Y713794D02*
X620818D01*
Y712855D01*
X618612D01*
Y710649D01*
X617685D01*
Y712855D01*
X615455D01*
Y713794D01*
X617685D01*
Y716000D01*
X618612D01*
Y713794D01*
D02*
G37*
G36*
X616417Y708513D02*
X616406D01*
X616382Y708502D01*
X616335Y708490D01*
X616277Y708478D01*
X616206Y708466D01*
X616124Y708443D01*
X615948Y708384D01*
X615737Y708302D01*
X615537Y708196D01*
X615350Y708079D01*
X615185Y707938D01*
X615173Y707915D01*
X615126Y707868D01*
X615068Y707774D01*
X615009Y707656D01*
X614939Y707516D01*
X614880Y707340D01*
X614833Y707140D01*
X614821Y706929D01*
Y706859D01*
X614833Y706812D01*
X614845Y706683D01*
X614880Y706518D01*
X614939Y706330D01*
X615021Y706131D01*
X615138Y705931D01*
X615303Y705744D01*
X615326Y705720D01*
X615396Y705662D01*
X615502Y705591D01*
X615643Y705497D01*
X615819Y705404D01*
X616018Y705333D01*
X616253Y705274D01*
X616511Y705251D01*
X616523D01*
X616546D01*
X616582D01*
X616629Y705263D01*
X616758Y705274D01*
X616910Y705310D01*
X617098Y705357D01*
X617286Y705439D01*
X617473Y705556D01*
X617649Y705709D01*
X617673Y705732D01*
X617720Y705791D01*
X617790Y705885D01*
X617873Y706014D01*
X617955Y706178D01*
X618025Y706377D01*
X618072Y706600D01*
X618095Y706847D01*
Y706953D01*
X618084Y707035D01*
X618072Y707140D01*
X618049Y707258D01*
X618025Y707398D01*
X617990Y707551D01*
X618870Y707434D01*
Y707375D01*
X618858Y707328D01*
Y707175D01*
X618882Y707046D01*
X618905Y706894D01*
X618940Y706718D01*
X618999Y706518D01*
X619081Y706330D01*
X619187Y706131D01*
Y706119D01*
X619198Y706108D01*
X619245Y706049D01*
X619328Y705967D01*
X619433Y705873D01*
X619586Y705779D01*
X619762Y705697D01*
X619961Y705638D01*
X620079Y705615D01*
X620208D01*
X620219D01*
X620231D01*
X620302D01*
X620396Y705638D01*
X620524Y705662D01*
X620665Y705709D01*
X620818Y705767D01*
X620970Y705861D01*
X621111Y705990D01*
X621123Y706002D01*
X621170Y706061D01*
X621229Y706143D01*
X621299Y706248D01*
X621358Y706389D01*
X621416Y706553D01*
X621463Y706741D01*
X621475Y706953D01*
Y707046D01*
X621452Y707152D01*
X621428Y707293D01*
X621381Y707445D01*
X621323Y707598D01*
X621229Y707762D01*
X621111Y707915D01*
X621100Y707926D01*
X621041Y707973D01*
X620959Y708044D01*
X620841Y708126D01*
X620689Y708208D01*
X620501Y708290D01*
X620278Y708361D01*
X620020Y708408D01*
X620196Y709405D01*
X620208D01*
X620243Y709393D01*
X620290Y709382D01*
X620360Y709370D01*
X620442Y709346D01*
X620536Y709311D01*
X620759Y709241D01*
X621017Y709123D01*
X621276Y708983D01*
X621522Y708807D01*
X621745Y708584D01*
X621757Y708572D01*
X621768Y708548D01*
X621792Y708513D01*
X621827Y708466D01*
X621874Y708408D01*
X621921Y708325D01*
X621968Y708243D01*
X622027Y708138D01*
X622121Y707903D01*
X622214Y707633D01*
X622273Y707316D01*
X622296Y707152D01*
Y706859D01*
X622285Y706730D01*
X622261Y706577D01*
X622226Y706389D01*
X622167Y706178D01*
X622097Y705967D01*
X622003Y705755D01*
Y705744D01*
X621991Y705732D01*
X621956Y705662D01*
X621886Y705556D01*
X621804Y705439D01*
X621686Y705298D01*
X621557Y705157D01*
X621405Y705016D01*
X621229Y704899D01*
X621205Y704887D01*
X621147Y704852D01*
X621041Y704805D01*
X620912Y704746D01*
X620759Y704688D01*
X620583Y704641D01*
X620384Y704605D01*
X620184Y704594D01*
X620161D01*
X620090D01*
X619996Y704605D01*
X619867Y704629D01*
X619715Y704664D01*
X619551Y704723D01*
X619386Y704793D01*
X619222Y704887D01*
X619198Y704899D01*
X619152Y704934D01*
X619069Y705005D01*
X618975Y705098D01*
X618870Y705216D01*
X618753Y705357D01*
X618647Y705521D01*
X618541Y705720D01*
Y705709D01*
X618530Y705685D01*
X618518Y705650D01*
X618506Y705603D01*
X618459Y705474D01*
X618389Y705310D01*
X618295Y705122D01*
X618178Y704934D01*
X618025Y704758D01*
X617849Y704594D01*
X617826Y704582D01*
X617755Y704535D01*
X617638Y704465D01*
X617485Y704394D01*
X617298Y704324D01*
X617075Y704253D01*
X616816Y704206D01*
X616535Y704195D01*
X616523D01*
X616488D01*
X616429D01*
X616359Y704206D01*
X616265Y704218D01*
X616159Y704242D01*
X616042Y704265D01*
X615913Y704289D01*
X615631Y704382D01*
X615479Y704453D01*
X615338Y704523D01*
X615185Y704617D01*
X615033Y704723D01*
X614880Y704840D01*
X614739Y704981D01*
X614728Y704993D01*
X614704Y705016D01*
X614669Y705063D01*
X614622Y705122D01*
X614563Y705192D01*
X614505Y705286D01*
X614434Y705392D01*
X614375Y705521D01*
X614305Y705650D01*
X614235Y705802D01*
X614176Y705955D01*
X614117Y706131D01*
X614070Y706319D01*
X614035Y706518D01*
X614012Y706718D01*
X614000Y706941D01*
Y707046D01*
X614012Y707117D01*
X614024Y707211D01*
X614035Y707316D01*
X614059Y707434D01*
X614082Y707563D01*
X614152Y707844D01*
X614270Y708138D01*
X614340Y708290D01*
X614422Y708431D01*
X614528Y708572D01*
X614634Y708713D01*
X614645Y708724D01*
X614669Y708748D01*
X614704Y708783D01*
X614751Y708818D01*
X614810Y708877D01*
X614892Y708936D01*
X614974Y709006D01*
X615080Y709077D01*
X615197Y709147D01*
X615314Y709217D01*
X615596Y709346D01*
X615924Y709452D01*
X616101Y709487D01*
X616288Y709511D01*
X616417Y708513D01*
D02*
G37*
G36*
X622261Y702470D02*
X616359Y700358D01*
X616347D01*
X616324Y700346D01*
X616288Y700334D01*
X616241Y700311D01*
X616171Y700299D01*
X616101Y700275D01*
X615924Y700217D01*
X615725Y700146D01*
X615502Y700076D01*
X615033Y699935D01*
X615044D01*
X615068Y699923D01*
X615103Y699912D01*
X615150Y699900D01*
X615279Y699865D01*
X615455Y699806D01*
X615655Y699747D01*
X615878Y699677D01*
X616112Y699595D01*
X616359Y699501D01*
X622261Y697295D01*
Y696203D01*
X614141Y699372D01*
Y700498D01*
X622261Y703643D01*
Y702470D01*
D02*
G37*
G36*
X616417Y694631D02*
X616406D01*
X616382Y694619D01*
X616335Y694607D01*
X616277Y694596D01*
X616206Y694584D01*
X616124Y694560D01*
X615948Y694502D01*
X615737Y694420D01*
X615537Y694314D01*
X615350Y694197D01*
X615185Y694056D01*
X615173Y694032D01*
X615126Y693986D01*
X615068Y693892D01*
X615009Y693774D01*
X614939Y693633D01*
X614880Y693457D01*
X614833Y693258D01*
X614821Y693047D01*
Y692976D01*
X614833Y692929D01*
X614845Y692800D01*
X614880Y692636D01*
X614939Y692448D01*
X615021Y692249D01*
X615138Y692049D01*
X615303Y691861D01*
X615326Y691838D01*
X615396Y691779D01*
X615502Y691709D01*
X615643Y691615D01*
X615819Y691521D01*
X616018Y691451D01*
X616253Y691392D01*
X616511Y691369D01*
X616523D01*
X616546D01*
X616582D01*
X616629Y691380D01*
X616758Y691392D01*
X616910Y691427D01*
X617098Y691474D01*
X617286Y691556D01*
X617473Y691674D01*
X617649Y691826D01*
X617673Y691850D01*
X617720Y691908D01*
X617790Y692002D01*
X617873Y692131D01*
X617955Y692296D01*
X618025Y692495D01*
X618072Y692718D01*
X618095Y692965D01*
Y693070D01*
X618084Y693152D01*
X618072Y693258D01*
X618049Y693375D01*
X618025Y693516D01*
X617990Y693669D01*
X618870Y693551D01*
Y693493D01*
X618858Y693446D01*
Y693293D01*
X618882Y693164D01*
X618905Y693011D01*
X618940Y692835D01*
X618999Y692636D01*
X619081Y692448D01*
X619187Y692249D01*
Y692237D01*
X619198Y692225D01*
X619245Y692167D01*
X619328Y692085D01*
X619433Y691991D01*
X619586Y691897D01*
X619762Y691815D01*
X619961Y691756D01*
X620079Y691732D01*
X620208D01*
X620219D01*
X620231D01*
X620302D01*
X620396Y691756D01*
X620524Y691779D01*
X620665Y691826D01*
X620818Y691885D01*
X620970Y691979D01*
X621111Y692108D01*
X621123Y692120D01*
X621170Y692178D01*
X621229Y692261D01*
X621299Y692366D01*
X621358Y692507D01*
X621416Y692671D01*
X621463Y692859D01*
X621475Y693070D01*
Y693164D01*
X621452Y693270D01*
X621428Y693410D01*
X621381Y693563D01*
X621323Y693716D01*
X621229Y693880D01*
X621111Y694032D01*
X621100Y694044D01*
X621041Y694091D01*
X620959Y694162D01*
X620841Y694244D01*
X620689Y694326D01*
X620501Y694408D01*
X620278Y694478D01*
X620020Y694525D01*
X620196Y695523D01*
X620208D01*
X620243Y695511D01*
X620290Y695499D01*
X620360Y695488D01*
X620442Y695464D01*
X620536Y695429D01*
X620759Y695359D01*
X621017Y695241D01*
X621276Y695100D01*
X621522Y694924D01*
X621745Y694701D01*
X621757Y694690D01*
X621768Y694666D01*
X621792Y694631D01*
X621827Y694584D01*
X621874Y694525D01*
X621921Y694443D01*
X621968Y694361D01*
X622027Y694255D01*
X622121Y694021D01*
X622214Y693751D01*
X622273Y693434D01*
X622296Y693270D01*
Y692976D01*
X622285Y692847D01*
X622261Y692695D01*
X622226Y692507D01*
X622167Y692296D01*
X622097Y692085D01*
X622003Y691873D01*
Y691861D01*
X621991Y691850D01*
X621956Y691779D01*
X621886Y691674D01*
X621804Y691556D01*
X621686Y691416D01*
X621557Y691275D01*
X621405Y691134D01*
X621229Y691017D01*
X621205Y691005D01*
X621147Y690970D01*
X621041Y690923D01*
X620912Y690864D01*
X620759Y690805D01*
X620583Y690758D01*
X620384Y690723D01*
X620184Y690712D01*
X620161D01*
X620090D01*
X619996Y690723D01*
X619867Y690747D01*
X619715Y690782D01*
X619551Y690841D01*
X619386Y690911D01*
X619222Y691005D01*
X619198Y691017D01*
X619152Y691052D01*
X619069Y691122D01*
X618975Y691216D01*
X618870Y691333D01*
X618753Y691474D01*
X618647Y691638D01*
X618541Y691838D01*
Y691826D01*
X618530Y691803D01*
X618518Y691768D01*
X618506Y691721D01*
X618459Y691592D01*
X618389Y691427D01*
X618295Y691240D01*
X618178Y691052D01*
X618025Y690876D01*
X617849Y690712D01*
X617826Y690700D01*
X617755Y690653D01*
X617638Y690582D01*
X617485Y690512D01*
X617298Y690442D01*
X617075Y690371D01*
X616816Y690324D01*
X616535Y690312D01*
X616523D01*
X616488D01*
X616429D01*
X616359Y690324D01*
X616265Y690336D01*
X616159Y690359D01*
X616042Y690383D01*
X615913Y690406D01*
X615631Y690500D01*
X615479Y690571D01*
X615338Y690641D01*
X615185Y690735D01*
X615033Y690841D01*
X614880Y690958D01*
X614739Y691099D01*
X614728Y691111D01*
X614704Y691134D01*
X614669Y691181D01*
X614622Y691240D01*
X614563Y691310D01*
X614505Y691404D01*
X614434Y691509D01*
X614375Y691638D01*
X614305Y691768D01*
X614235Y691920D01*
X614176Y692073D01*
X614117Y692249D01*
X614070Y692437D01*
X614035Y692636D01*
X614012Y692835D01*
X614000Y693058D01*
Y693164D01*
X614012Y693234D01*
X614024Y693328D01*
X614035Y693434D01*
X614059Y693551D01*
X614082Y693680D01*
X614152Y693962D01*
X614270Y694255D01*
X614340Y694408D01*
X614422Y694549D01*
X614528Y694690D01*
X614634Y694830D01*
X614645Y694842D01*
X614669Y694866D01*
X614704Y694901D01*
X614751Y694936D01*
X614810Y694995D01*
X614892Y695053D01*
X614974Y695124D01*
X615080Y695194D01*
X615197Y695265D01*
X615314Y695335D01*
X615596Y695464D01*
X615924Y695570D01*
X616101Y695605D01*
X616288Y695628D01*
X616417Y694631D01*
D02*
G37*
G36*
X845086Y535299D02*
X842410D01*
Y528141D01*
X841330D01*
Y535299D01*
X838655D01*
Y536261D01*
X845086D01*
Y535299D01*
D02*
G37*
G36*
X817274Y536250D02*
X817368D01*
X817579Y536226D01*
X817814Y536203D01*
X818060Y536156D01*
X818307Y536097D01*
X818530Y536015D01*
X818541D01*
X818553Y536003D01*
X818624Y535968D01*
X818729Y535909D01*
X818847Y535827D01*
X818987Y535722D01*
X819140Y535592D01*
X819281Y535428D01*
X819410Y535252D01*
X819421Y535229D01*
X819457Y535158D01*
X819515Y535064D01*
X819574Y534924D01*
X819633Y534759D01*
X819691Y534583D01*
X819727Y534384D01*
X819738Y534184D01*
Y534161D01*
Y534102D01*
X819727Y533997D01*
X819703Y533867D01*
X819668Y533715D01*
X819609Y533551D01*
X819539Y533386D01*
X819445Y533210D01*
X819433Y533187D01*
X819398Y533140D01*
X819328Y533046D01*
X819234Y532952D01*
X819116Y532835D01*
X818976Y532706D01*
X818800Y532588D01*
X818600Y532471D01*
X818612D01*
X818635Y532459D01*
X818670Y532448D01*
X818717Y532424D01*
X818858Y532377D01*
X819023Y532295D01*
X819199Y532189D01*
X819398Y532060D01*
X819574Y531908D01*
X819738Y531720D01*
X819750Y531697D01*
X819797Y531626D01*
X819867Y531521D01*
X819938Y531380D01*
X820008Y531192D01*
X820079Y530992D01*
X820126Y530758D01*
X820137Y530499D01*
Y530488D01*
Y530476D01*
Y530406D01*
X820126Y530288D01*
X820102Y530148D01*
X820079Y529983D01*
X820032Y529807D01*
X819973Y529619D01*
X819891Y529432D01*
X819879Y529408D01*
X819844Y529350D01*
X819797Y529267D01*
X819727Y529150D01*
X819633Y529033D01*
X819539Y528904D01*
X819421Y528774D01*
X819292Y528669D01*
X819281Y528657D01*
X819234Y528622D01*
X819152Y528575D01*
X819046Y528528D01*
X818917Y528458D01*
X818764Y528387D01*
X818600Y528329D01*
X818400Y528270D01*
X818377D01*
X818307Y528246D01*
X818189Y528235D01*
X818037Y528211D01*
X817849Y528188D01*
X817626Y528164D01*
X817380Y528153D01*
X817098Y528141D01*
X814000D01*
Y536261D01*
X817192D01*
X817274Y536250D01*
D02*
G37*
G36*
X834184Y536390D02*
X834289D01*
X834395Y536379D01*
X834536Y536355D01*
X834677Y536332D01*
X834982Y536273D01*
X835334Y536179D01*
X835674Y536038D01*
X835850Y535956D01*
X836026Y535862D01*
X836038Y535851D01*
X836061Y535839D01*
X836108Y535804D01*
X836179Y535768D01*
X836249Y535710D01*
X836343Y535639D01*
X836543Y535475D01*
X836754Y535264D01*
X836989Y535006D01*
X837211Y534701D01*
X837399Y534360D01*
Y534348D01*
X837423Y534313D01*
X837446Y534266D01*
X837470Y534196D01*
X837516Y534102D01*
X837552Y533997D01*
X837599Y533867D01*
X837646Y533727D01*
X837681Y533574D01*
X837728Y533410D01*
X837775Y533222D01*
X837810Y533034D01*
X837857Y532623D01*
X837880Y532178D01*
Y532166D01*
Y532119D01*
Y532060D01*
X837869Y531966D01*
Y531861D01*
X837857Y531732D01*
X837833Y531591D01*
X837822Y531438D01*
X837763Y531098D01*
X837669Y530723D01*
X837540Y530347D01*
X837470Y530159D01*
X837376Y529972D01*
Y529960D01*
X837352Y529925D01*
X837329Y529878D01*
X837282Y529807D01*
X837235Y529725D01*
X837176Y529643D01*
X837012Y529420D01*
X836812Y529185D01*
X836578Y528939D01*
X836296Y528704D01*
X835967Y528493D01*
X835956D01*
X835932Y528469D01*
X835874Y528446D01*
X835803Y528411D01*
X835721Y528376D01*
X835627Y528340D01*
X835510Y528293D01*
X835381Y528246D01*
X835240Y528200D01*
X835087Y528153D01*
X834747Y528082D01*
X834383Y528023D01*
X833996Y528000D01*
X833879D01*
X833808Y528012D01*
X833703D01*
X833585Y528035D01*
X833456Y528047D01*
X833304Y528070D01*
X832987Y528141D01*
X832647Y528235D01*
X832295Y528376D01*
X832119Y528458D01*
X831943Y528551D01*
X831931Y528563D01*
X831907Y528575D01*
X831860Y528610D01*
X831790Y528657D01*
X831720Y528704D01*
X831637Y528774D01*
X831438Y528951D01*
X831215Y529162D01*
X830980Y529420D01*
X830769Y529713D01*
X830570Y530054D01*
Y530065D01*
X830546Y530101D01*
X830523Y530148D01*
X830499Y530218D01*
X830464Y530312D01*
X830429Y530417D01*
X830382Y530535D01*
X830347Y530664D01*
X830300Y530816D01*
X830253Y530969D01*
X830182Y531321D01*
X830135Y531685D01*
X830112Y532084D01*
Y532095D01*
Y532107D01*
Y532178D01*
X830124Y532283D01*
Y532424D01*
X830147Y532588D01*
X830171Y532788D01*
X830206Y533011D01*
X830253Y533246D01*
X830300Y533492D01*
X830370Y533750D01*
X830464Y534008D01*
X830570Y534278D01*
X830687Y534536D01*
X830839Y534795D01*
X831004Y535029D01*
X831191Y535252D01*
X831203Y535264D01*
X831238Y535299D01*
X831309Y535358D01*
X831391Y535428D01*
X831497Y535522D01*
X831626Y535616D01*
X831778Y535722D01*
X831954Y535827D01*
X832142Y535933D01*
X832353Y536038D01*
X832588Y536132D01*
X832834Y536226D01*
X833104Y536297D01*
X833386Y536355D01*
X833679Y536390D01*
X833996Y536402D01*
X834102D01*
X834184Y536390D01*
D02*
G37*
G36*
X825359D02*
X825465D01*
X825571Y536379D01*
X825711Y536355D01*
X825852Y536332D01*
X826157Y536273D01*
X826509Y536179D01*
X826850Y536038D01*
X827026Y535956D01*
X827202Y535862D01*
X827213Y535851D01*
X827237Y535839D01*
X827284Y535804D01*
X827354Y535768D01*
X827425Y535710D01*
X827518Y535639D01*
X827718Y535475D01*
X827929Y535264D01*
X828164Y535006D01*
X828387Y534701D01*
X828575Y534360D01*
Y534348D01*
X828598Y534313D01*
X828622Y534266D01*
X828645Y534196D01*
X828692Y534102D01*
X828727Y533997D01*
X828774Y533867D01*
X828821Y533727D01*
X828856Y533574D01*
X828903Y533410D01*
X828950Y533222D01*
X828985Y533034D01*
X829032Y532623D01*
X829056Y532178D01*
Y532166D01*
Y532119D01*
Y532060D01*
X829044Y531966D01*
Y531861D01*
X829032Y531732D01*
X829009Y531591D01*
X828997Y531438D01*
X828938Y531098D01*
X828845Y530723D01*
X828715Y530347D01*
X828645Y530159D01*
X828551Y529972D01*
Y529960D01*
X828528Y529925D01*
X828504Y529878D01*
X828457Y529807D01*
X828410Y529725D01*
X828352Y529643D01*
X828187Y529420D01*
X827988Y529185D01*
X827753Y528939D01*
X827471Y528704D01*
X827143Y528493D01*
X827131D01*
X827108Y528469D01*
X827049Y528446D01*
X826979Y528411D01*
X826897Y528376D01*
X826803Y528340D01*
X826685Y528293D01*
X826556Y528246D01*
X826415Y528200D01*
X826263Y528153D01*
X825923Y528082D01*
X825559Y528023D01*
X825172Y528000D01*
X825054D01*
X824984Y528012D01*
X824878D01*
X824761Y528035D01*
X824632Y528047D01*
X824479Y528070D01*
X824162Y528141D01*
X823822Y528235D01*
X823470Y528376D01*
X823294Y528458D01*
X823118Y528551D01*
X823106Y528563D01*
X823083Y528575D01*
X823036Y528610D01*
X822965Y528657D01*
X822895Y528704D01*
X822813Y528774D01*
X822613Y528951D01*
X822390Y529162D01*
X822156Y529420D01*
X821945Y529713D01*
X821745Y530054D01*
Y530065D01*
X821721Y530101D01*
X821698Y530148D01*
X821675Y530218D01*
X821639Y530312D01*
X821604Y530417D01*
X821557Y530535D01*
X821522Y530664D01*
X821475Y530816D01*
X821428Y530969D01*
X821358Y531321D01*
X821311Y531685D01*
X821287Y532084D01*
Y532095D01*
Y532107D01*
Y532178D01*
X821299Y532283D01*
Y532424D01*
X821322Y532588D01*
X821346Y532788D01*
X821381Y533011D01*
X821428Y533246D01*
X821475Y533492D01*
X821545Y533750D01*
X821639Y534008D01*
X821745Y534278D01*
X821862Y534536D01*
X822015Y534795D01*
X822179Y535029D01*
X822367Y535252D01*
X822379Y535264D01*
X822414Y535299D01*
X822484Y535358D01*
X822566Y535428D01*
X822672Y535522D01*
X822801Y535616D01*
X822954Y535722D01*
X823130Y535827D01*
X823317Y535933D01*
X823529Y536038D01*
X823763Y536132D01*
X824010Y536226D01*
X824280Y536297D01*
X824561Y536355D01*
X824855Y536390D01*
X825172Y536402D01*
X825277D01*
X825359Y536390D01*
D02*
G37*
G36*
X832776Y574390D02*
X832858D01*
X833081Y574367D01*
X833327Y574332D01*
X833585Y574273D01*
X833867Y574203D01*
X834125Y574109D01*
X834137D01*
X834160Y574097D01*
X834196Y574074D01*
X834242Y574050D01*
X834360Y573991D01*
X834512Y573886D01*
X834688Y573768D01*
X834865Y573616D01*
X835029Y573440D01*
X835181Y573240D01*
Y573229D01*
X835193Y573217D01*
X835217Y573182D01*
X835240Y573147D01*
X835299Y573029D01*
X835369Y572877D01*
X835451Y572689D01*
X835510Y572466D01*
X835569Y572231D01*
X835592Y571973D01*
X834559Y571891D01*
Y571903D01*
Y571926D01*
X834548Y571961D01*
X834536Y572020D01*
X834501Y572149D01*
X834454Y572325D01*
X834383Y572513D01*
X834278Y572701D01*
X834149Y572877D01*
X833984Y573041D01*
X833961Y573053D01*
X833902Y573100D01*
X833785Y573170D01*
X833632Y573240D01*
X833433Y573311D01*
X833198Y573381D01*
X832905Y573428D01*
X832576Y573440D01*
X832412D01*
X832342Y573428D01*
X832248Y573416D01*
X832036Y573393D01*
X831802Y573346D01*
X831567Y573287D01*
X831344Y573193D01*
X831250Y573135D01*
X831156Y573076D01*
X831133Y573064D01*
X831086Y573017D01*
X831015Y572935D01*
X830945Y572841D01*
X830863Y572712D01*
X830792Y572571D01*
X830746Y572407D01*
X830722Y572220D01*
Y572196D01*
Y572149D01*
X830734Y572067D01*
X830757Y571973D01*
X830792Y571856D01*
X830851Y571738D01*
X830922Y571621D01*
X831027Y571504D01*
X831039Y571492D01*
X831098Y571457D01*
X831144Y571422D01*
X831191Y571398D01*
X831262Y571363D01*
X831344Y571316D01*
X831450Y571281D01*
X831567Y571234D01*
X831696Y571187D01*
X831849Y571128D01*
X832013Y571081D01*
X832201Y571022D01*
X832412Y570976D01*
X832647Y570917D01*
X832658D01*
X832705Y570905D01*
X832776Y570893D01*
X832858Y570870D01*
X832963Y570846D01*
X833092Y570811D01*
X833222Y570776D01*
X833362Y570741D01*
X833668Y570659D01*
X833961Y570577D01*
X834102Y570530D01*
X834231Y570483D01*
X834348Y570448D01*
X834442Y570401D01*
X834454D01*
X834477Y570389D01*
X834512Y570365D01*
X834559Y570342D01*
X834688Y570271D01*
X834841Y570178D01*
X835017Y570048D01*
X835193Y569908D01*
X835357Y569743D01*
X835498Y569567D01*
X835510Y569544D01*
X835557Y569485D01*
X835604Y569380D01*
X835674Y569239D01*
X835733Y569075D01*
X835791Y568875D01*
X835827Y568652D01*
X835838Y568417D01*
Y568406D01*
Y568394D01*
Y568359D01*
Y568312D01*
X835815Y568183D01*
X835791Y568018D01*
X835745Y567831D01*
X835686Y567631D01*
X835592Y567420D01*
X835463Y567197D01*
Y567185D01*
X835451Y567174D01*
X835393Y567103D01*
X835310Y566997D01*
X835193Y566880D01*
X835041Y566739D01*
X834853Y566587D01*
X834641Y566446D01*
X834395Y566317D01*
X834383D01*
X834360Y566305D01*
X834325Y566293D01*
X834278Y566270D01*
X834207Y566246D01*
X834125Y566211D01*
X833937Y566164D01*
X833715Y566106D01*
X833445Y566047D01*
X833151Y566012D01*
X832834Y566000D01*
X832647D01*
X832553Y566012D01*
X832447D01*
X832330Y566023D01*
X832189Y566035D01*
X831896Y566082D01*
X831590Y566129D01*
X831285Y566211D01*
X830992Y566317D01*
X830980D01*
X830957Y566329D01*
X830922Y566352D01*
X830875Y566376D01*
X830734Y566446D01*
X830570Y566552D01*
X830382Y566692D01*
X830182Y566857D01*
X829995Y567056D01*
X829818Y567279D01*
Y567291D01*
X829795Y567314D01*
X829783Y567350D01*
X829748Y567397D01*
X829725Y567455D01*
X829689Y567525D01*
X829607Y567702D01*
X829525Y567924D01*
X829455Y568171D01*
X829408Y568453D01*
X829384Y568746D01*
X830394Y568840D01*
Y568828D01*
Y568816D01*
X830405Y568781D01*
Y568734D01*
X830429Y568629D01*
X830464Y568476D01*
X830511Y568324D01*
X830558Y568148D01*
X830640Y567983D01*
X830722Y567831D01*
X830734Y567819D01*
X830769Y567772D01*
X830828Y567690D01*
X830922Y567608D01*
X831039Y567502D01*
X831168Y567397D01*
X831344Y567291D01*
X831532Y567197D01*
X831544D01*
X831555Y567185D01*
X831590Y567174D01*
X831626Y567162D01*
X831743Y567127D01*
X831896Y567080D01*
X832083Y567033D01*
X832295Y566997D01*
X832529Y566974D01*
X832787Y566962D01*
X832893D01*
X833010Y566974D01*
X833151Y566986D01*
X833316Y567009D01*
X833503Y567033D01*
X833691Y567080D01*
X833867Y567138D01*
X833891Y567150D01*
X833949Y567174D01*
X834031Y567220D01*
X834137Y567267D01*
X834242Y567350D01*
X834360Y567432D01*
X834477Y567525D01*
X834571Y567643D01*
X834583Y567655D01*
X834606Y567702D01*
X834641Y567760D01*
X834688Y567854D01*
X834735Y567948D01*
X834771Y568065D01*
X834794Y568194D01*
X834806Y568335D01*
Y568347D01*
Y568406D01*
X834794Y568476D01*
X834782Y568570D01*
X834747Y568664D01*
X834712Y568781D01*
X834653Y568899D01*
X834571Y569004D01*
X834559Y569016D01*
X834524Y569051D01*
X834477Y569098D01*
X834395Y569168D01*
X834301Y569239D01*
X834172Y569321D01*
X834020Y569403D01*
X833844Y569473D01*
X833832Y569485D01*
X833773Y569497D01*
X833679Y569532D01*
X833621Y569544D01*
X833538Y569567D01*
X833456Y569603D01*
X833351Y569626D01*
X833233Y569661D01*
X833092Y569697D01*
X832952Y569732D01*
X832787Y569779D01*
X832600Y569826D01*
X832400Y569873D01*
X832388D01*
X832353Y569884D01*
X832295Y569896D01*
X832224Y569919D01*
X832130Y569943D01*
X832025Y569966D01*
X831790Y570037D01*
X831532Y570119D01*
X831262Y570201D01*
X831027Y570283D01*
X830922Y570330D01*
X830828Y570377D01*
X830816D01*
X830804Y570389D01*
X830734Y570436D01*
X830628Y570494D01*
X830511Y570588D01*
X830370Y570694D01*
X830229Y570823D01*
X830088Y570976D01*
X829971Y571140D01*
X829959Y571163D01*
X829924Y571222D01*
X829877Y571316D01*
X829830Y571433D01*
X829783Y571586D01*
X829736Y571762D01*
X829701Y571950D01*
X829689Y572149D01*
Y572161D01*
Y572173D01*
Y572208D01*
Y572255D01*
X829713Y572372D01*
X829736Y572525D01*
X829772Y572701D01*
X829830Y572900D01*
X829912Y573100D01*
X830030Y573299D01*
Y573311D01*
X830042Y573322D01*
X830100Y573393D01*
X830182Y573487D01*
X830288Y573604D01*
X830429Y573733D01*
X830605Y573874D01*
X830816Y574003D01*
X831051Y574120D01*
X831062D01*
X831086Y574132D01*
X831121Y574144D01*
X831168Y574167D01*
X831227Y574191D01*
X831309Y574214D01*
X831485Y574261D01*
X831708Y574308D01*
X831966Y574355D01*
X832236Y574390D01*
X832541Y574402D01*
X832693D01*
X832776Y574390D01*
D02*
G37*
G36*
X850706Y573299D02*
X848031D01*
Y566141D01*
X846951D01*
Y573299D01*
X844276D01*
Y574261D01*
X850706D01*
Y573299D01*
D02*
G37*
G36*
X843208D02*
X838408D01*
Y570823D01*
X842903D01*
Y569861D01*
X838408D01*
Y567103D01*
X843396D01*
Y566141D01*
X837329D01*
Y574261D01*
X843208D01*
Y573299D01*
D02*
G37*
G36*
X828070D02*
X823270D01*
Y570823D01*
X827765D01*
Y569861D01*
X823270D01*
Y567103D01*
X828258D01*
Y566141D01*
X822191D01*
Y574261D01*
X828070D01*
Y573299D01*
D02*
G37*
G36*
X817861Y574250D02*
X817966D01*
X818213Y574238D01*
X818471Y574203D01*
X818753Y574167D01*
X819011Y574109D01*
X819140Y574074D01*
X819246Y574038D01*
X819257D01*
X819269Y574027D01*
X819339Y573991D01*
X819445Y573945D01*
X819574Y573862D01*
X819715Y573757D01*
X819867Y573616D01*
X820008Y573452D01*
X820149Y573264D01*
Y573252D01*
X820161Y573240D01*
X820208Y573170D01*
X820255Y573053D01*
X820325Y572900D01*
X820384Y572724D01*
X820442Y572513D01*
X820478Y572290D01*
X820489Y572043D01*
Y572032D01*
Y572008D01*
Y571961D01*
X820478Y571903D01*
Y571820D01*
X820466Y571738D01*
X820419Y571539D01*
X820349Y571304D01*
X820255Y571058D01*
X820114Y570811D01*
X820020Y570694D01*
X819926Y570577D01*
X819914Y570565D01*
X819903Y570553D01*
X819867Y570518D01*
X819820Y570483D01*
X819762Y570436D01*
X819691Y570389D01*
X819597Y570330D01*
X819504Y570260D01*
X819386Y570201D01*
X819257Y570142D01*
X819116Y570072D01*
X818964Y570013D01*
X818788Y569966D01*
X818612Y569908D01*
X818412Y569873D01*
X818201Y569837D01*
X818224Y569826D01*
X818271Y569802D01*
X818342Y569755D01*
X818436Y569708D01*
X818647Y569579D01*
X818753Y569497D01*
X818847Y569427D01*
X818870Y569403D01*
X818929Y569344D01*
X819023Y569251D01*
X819140Y569133D01*
X819269Y568969D01*
X819421Y568793D01*
X819574Y568582D01*
X819738Y568347D01*
X821135Y566141D01*
X819797D01*
X818729Y567831D01*
Y567842D01*
X818706Y567866D01*
X818682Y567901D01*
X818647Y567948D01*
X818565Y568077D01*
X818459Y568241D01*
X818330Y568417D01*
X818201Y568605D01*
X818072Y568781D01*
X817955Y568945D01*
X817943Y568957D01*
X817908Y569004D01*
X817849Y569075D01*
X817767Y569157D01*
X817591Y569333D01*
X817497Y569415D01*
X817403Y569485D01*
X817391Y569497D01*
X817368Y569509D01*
X817321Y569532D01*
X817251Y569567D01*
X817180Y569603D01*
X817098Y569638D01*
X816910Y569697D01*
X816898D01*
X816875Y569708D01*
X816828D01*
X816769Y569720D01*
X816687Y569732D01*
X816593D01*
X816464Y569743D01*
X815080D01*
Y566141D01*
X814000D01*
Y574261D01*
X817767D01*
X817861Y574250D01*
D02*
G37*
%LPC*%
G36*
X544299Y697623D02*
X538103D01*
Y695699D01*
X538115Y695617D01*
X538126Y695441D01*
X538138Y695241D01*
X538162Y695030D01*
X538197Y694819D01*
X538244Y694643D01*
X538256Y694619D01*
X538267Y694560D01*
X538303Y694478D01*
X538349Y694373D01*
X538420Y694255D01*
X538490Y694138D01*
X538573Y694021D01*
X538666Y693903D01*
X538690Y693892D01*
X538737Y693845D01*
X538819Y693774D01*
X538936Y693692D01*
X539089Y693598D01*
X539265Y693493D01*
X539464Y693399D01*
X539687Y693317D01*
X539699D01*
X539723Y693305D01*
X539758Y693293D01*
X539805Y693281D01*
X539863Y693270D01*
X539945Y693246D01*
X540028Y693223D01*
X540121Y693199D01*
X540356Y693164D01*
X540626Y693129D01*
X540931Y693105D01*
X541260Y693094D01*
X541272D01*
X541318D01*
X541377D01*
X541471Y693105D01*
X541577D01*
X541694Y693117D01*
X541835Y693129D01*
X541976Y693141D01*
X542292Y693199D01*
X542621Y693270D01*
X542926Y693375D01*
X543079Y693446D01*
X543208Y693516D01*
X543219D01*
X543243Y693540D01*
X543278Y693563D01*
X543325Y693587D01*
X543442Y693680D01*
X543583Y693798D01*
X543736Y693950D01*
X543888Y694126D01*
X544017Y694326D01*
X544123Y694537D01*
X544135Y694560D01*
X544146Y694619D01*
X544182Y694725D01*
X544217Y694877D01*
X544240Y695065D01*
X544276Y695300D01*
X544287Y695441D01*
Y695593D01*
X544299Y695746D01*
Y697623D01*
D02*
G37*
G36*
X595217Y714920D02*
X592530D01*
Y712503D01*
X592541Y712362D01*
X592553Y712198D01*
X592565Y712010D01*
X592588Y711822D01*
X592623Y711635D01*
X592670Y711470D01*
X592682Y711447D01*
X592706Y711400D01*
X592741Y711329D01*
X592788Y711236D01*
X592858Y711130D01*
X592940Y711024D01*
X593046Y710919D01*
X593163Y710837D01*
X593175Y710825D01*
X593222Y710801D01*
X593292Y710766D01*
X593386Y710719D01*
X593492Y710684D01*
X593609Y710649D01*
X593750Y710626D01*
X593891Y710614D01*
X593903D01*
X593914D01*
X593985Y710626D01*
X594090Y710637D01*
X594231Y710661D01*
X594372Y710719D01*
X594536Y710790D01*
X594689Y710895D01*
X594841Y711036D01*
X594853Y711060D01*
X594900Y711118D01*
X594959Y711212D01*
X595029Y711365D01*
X595099Y711541D01*
X595158Y711776D01*
X595205Y712045D01*
X595217Y712362D01*
Y714920D01*
D02*
G37*
G36*
X817004Y535299D02*
X815080D01*
Y532858D01*
X817075D01*
X817227Y532870D01*
X817391Y532882D01*
X817556Y532893D01*
X817720Y532917D01*
X817849Y532940D01*
X817872Y532952D01*
X817919Y532964D01*
X817990Y532999D01*
X818084Y533046D01*
X818178Y533093D01*
X818283Y533163D01*
X818389Y533257D01*
X818471Y533351D01*
X818483Y533363D01*
X818506Y533398D01*
X818541Y533468D01*
X818577Y533551D01*
X818612Y533644D01*
X818647Y533762D01*
X818670Y533903D01*
X818682Y534055D01*
Y534079D01*
Y534126D01*
X818670Y534196D01*
X818659Y534290D01*
X818635Y534407D01*
X818600Y534525D01*
X818553Y534642D01*
X818483Y534759D01*
X818471Y534771D01*
X818447Y534806D01*
X818400Y534865D01*
X818342Y534924D01*
X818260Y534994D01*
X818166Y535064D01*
X818048Y535135D01*
X817919Y535182D01*
X817908D01*
X817849Y535205D01*
X817767Y535217D01*
X817638Y535240D01*
X817462Y535264D01*
X817262Y535276D01*
X817004Y535299D01*
D02*
G37*
G36*
X817215Y531896D02*
X815080D01*
Y529103D01*
X817391D01*
X817638Y529115D01*
X817743Y529127D01*
X817837Y529138D01*
X817849D01*
X817896Y529150D01*
X817966Y529162D01*
X818048Y529185D01*
X818248Y529256D01*
X818447Y529350D01*
X818459Y529361D01*
X818494Y529385D01*
X818541Y529420D01*
X818600Y529467D01*
X818659Y529537D01*
X818741Y529608D01*
X818800Y529702D01*
X818870Y529807D01*
X818882Y529819D01*
X818893Y529854D01*
X818917Y529925D01*
X818952Y530007D01*
X818987Y530101D01*
X819011Y530218D01*
X819023Y530359D01*
X819034Y530499D01*
Y530523D01*
Y530570D01*
X819023Y530664D01*
X818999Y530769D01*
X818976Y530887D01*
X818929Y531016D01*
X818870Y531145D01*
X818788Y531274D01*
X818776Y531286D01*
X818741Y531333D01*
X818694Y531391D01*
X818624Y531462D01*
X818530Y531544D01*
X818412Y531626D01*
X818283Y531697D01*
X818131Y531755D01*
X818107Y531767D01*
X818060Y531779D01*
X817955Y531802D01*
X817825Y531826D01*
X817661Y531849D01*
X817462Y531872D01*
X817215Y531896D01*
D02*
G37*
G36*
X833996Y535475D02*
X833891D01*
X833808Y535463D01*
X833703Y535452D01*
X833597Y535428D01*
X833468Y535405D01*
X833327Y535381D01*
X833022Y535287D01*
X832858Y535217D01*
X832693Y535146D01*
X832517Y535053D01*
X832353Y534947D01*
X832189Y534830D01*
X832036Y534689D01*
X832025Y534677D01*
X832001Y534654D01*
X831966Y534607D01*
X831907Y534536D01*
X831849Y534454D01*
X831778Y534348D01*
X831708Y534220D01*
X831626Y534067D01*
X831555Y533903D01*
X831473Y533703D01*
X831403Y533492D01*
X831344Y533257D01*
X831285Y532999D01*
X831250Y532706D01*
X831227Y532401D01*
X831215Y532072D01*
Y532060D01*
Y532013D01*
Y531931D01*
X831227Y531826D01*
X831238Y531708D01*
X831262Y531567D01*
X831285Y531403D01*
X831309Y531239D01*
X831403Y530863D01*
X831473Y530676D01*
X831544Y530476D01*
X831637Y530288D01*
X831743Y530101D01*
X831860Y529925D01*
X832001Y529760D01*
X832013Y529748D01*
X832036Y529725D01*
X832083Y529678D01*
X832142Y529631D01*
X832224Y529561D01*
X832318Y529490D01*
X832424Y529420D01*
X832541Y529338D01*
X832682Y529256D01*
X832834Y529185D01*
X832999Y529115D01*
X833175Y529044D01*
X833362Y528997D01*
X833550Y528951D01*
X833761Y528927D01*
X833984Y528915D01*
X834043D01*
X834102Y528927D01*
X834184D01*
X834289Y528939D01*
X834407Y528962D01*
X834548Y528986D01*
X834688Y529021D01*
X834853Y529068D01*
X835005Y529127D01*
X835181Y529185D01*
X835346Y529267D01*
X835510Y529373D01*
X835674Y529479D01*
X835838Y529608D01*
X835991Y529760D01*
X836003Y529772D01*
X836026Y529795D01*
X836061Y529854D01*
X836120Y529925D01*
X836179Y530007D01*
X836237Y530112D01*
X836308Y530241D01*
X836390Y530382D01*
X836460Y530546D01*
X836531Y530734D01*
X836590Y530934D01*
X836660Y531145D01*
X836707Y531380D01*
X836742Y531638D01*
X836766Y531908D01*
X836777Y532189D01*
Y532201D01*
Y532236D01*
Y532283D01*
Y532354D01*
X836766Y532436D01*
Y532541D01*
X836754Y532647D01*
X836730Y532776D01*
X836695Y533046D01*
X836636Y533328D01*
X836554Y533633D01*
X836437Y533914D01*
Y533926D01*
X836425Y533950D01*
X836402Y533985D01*
X836378Y534032D01*
X836296Y534173D01*
X836190Y534337D01*
X836050Y534525D01*
X835874Y534712D01*
X835674Y534900D01*
X835451Y535064D01*
X835440D01*
X835428Y535088D01*
X835393Y535100D01*
X835334Y535135D01*
X835275Y535158D01*
X835205Y535193D01*
X835029Y535276D01*
X834818Y535346D01*
X834571Y535416D01*
X834289Y535463D01*
X833996Y535475D01*
D02*
G37*
G36*
X825172D02*
X825066D01*
X824984Y535463D01*
X824878Y535452D01*
X824772Y535428D01*
X824643Y535405D01*
X824503Y535381D01*
X824197Y535287D01*
X824033Y535217D01*
X823869Y535146D01*
X823693Y535053D01*
X823529Y534947D01*
X823364Y534830D01*
X823212Y534689D01*
X823200Y534677D01*
X823177Y534654D01*
X823141Y534607D01*
X823083Y534536D01*
X823024Y534454D01*
X822954Y534348D01*
X822883Y534220D01*
X822801Y534067D01*
X822731Y533903D01*
X822648Y533703D01*
X822578Y533492D01*
X822520Y533257D01*
X822461Y532999D01*
X822426Y532706D01*
X822402Y532401D01*
X822390Y532072D01*
Y532060D01*
Y532013D01*
Y531931D01*
X822402Y531826D01*
X822414Y531708D01*
X822437Y531567D01*
X822461Y531403D01*
X822484Y531239D01*
X822578Y530863D01*
X822648Y530676D01*
X822719Y530476D01*
X822813Y530288D01*
X822918Y530101D01*
X823036Y529925D01*
X823177Y529760D01*
X823188Y529748D01*
X823212Y529725D01*
X823259Y529678D01*
X823317Y529631D01*
X823400Y529561D01*
X823493Y529490D01*
X823599Y529420D01*
X823716Y529338D01*
X823857Y529256D01*
X824010Y529185D01*
X824174Y529115D01*
X824350Y529044D01*
X824538Y528997D01*
X824726Y528951D01*
X824937Y528927D01*
X825160Y528915D01*
X825219D01*
X825277Y528927D01*
X825359D01*
X825465Y528939D01*
X825582Y528962D01*
X825723Y528986D01*
X825864Y529021D01*
X826028Y529068D01*
X826181Y529127D01*
X826357Y529185D01*
X826521Y529267D01*
X826685Y529373D01*
X826850Y529479D01*
X827014Y529608D01*
X827166Y529760D01*
X827178Y529772D01*
X827202Y529795D01*
X827237Y529854D01*
X827296Y529925D01*
X827354Y530007D01*
X827413Y530112D01*
X827483Y530241D01*
X827565Y530382D01*
X827636Y530546D01*
X827706Y530734D01*
X827765Y530934D01*
X827835Y531145D01*
X827882Y531380D01*
X827917Y531638D01*
X827941Y531908D01*
X827953Y532189D01*
Y532201D01*
Y532236D01*
Y532283D01*
Y532354D01*
X827941Y532436D01*
Y532541D01*
X827929Y532647D01*
X827906Y532776D01*
X827870Y533046D01*
X827812Y533328D01*
X827730Y533633D01*
X827612Y533914D01*
Y533926D01*
X827601Y533950D01*
X827577Y533985D01*
X827554Y534032D01*
X827471Y534173D01*
X827366Y534337D01*
X827225Y534525D01*
X827049Y534712D01*
X826850Y534900D01*
X826627Y535064D01*
X826615D01*
X826603Y535088D01*
X826568Y535100D01*
X826509Y535135D01*
X826451Y535158D01*
X826380Y535193D01*
X826204Y535276D01*
X825993Y535346D01*
X825747Y535416D01*
X825465Y535463D01*
X825172Y535475D01*
D02*
G37*
G36*
X817638Y573358D02*
X815080D01*
Y570671D01*
X817497D01*
X817638Y570682D01*
X817802Y570694D01*
X817990Y570706D01*
X818178Y570729D01*
X818365Y570764D01*
X818530Y570811D01*
X818553Y570823D01*
X818600Y570846D01*
X818670Y570882D01*
X818764Y570929D01*
X818870Y570999D01*
X818976Y571081D01*
X819081Y571187D01*
X819163Y571304D01*
X819175Y571316D01*
X819199Y571363D01*
X819234Y571433D01*
X819281Y571527D01*
X819316Y571633D01*
X819351Y571750D01*
X819374Y571891D01*
X819386Y572032D01*
Y572043D01*
Y572055D01*
X819374Y572126D01*
X819363Y572231D01*
X819339Y572372D01*
X819281Y572513D01*
X819210Y572677D01*
X819105Y572830D01*
X818964Y572982D01*
X818940Y572994D01*
X818882Y573041D01*
X818788Y573100D01*
X818635Y573170D01*
X818459Y573240D01*
X818224Y573299D01*
X817955Y573346D01*
X817638Y573358D01*
D02*
G37*
%LPD*%
D10*
X1099750Y623293D02*
G03*
X1099750Y623293I-1250J0D01*
G01*
X1118750Y713000D02*
G03*
X1118750Y713000I-1250J0D01*
G01*
X1241250Y553750D02*
G03*
X1241250Y553750I-1250J0D01*
G01*
X1320750Y632500D02*
G03*
X1320750Y632500I-1250J0D01*
G01*
X606750Y578500D02*
G03*
X606750Y578500I-1250J0D01*
G01*
D11*
X1121500Y609543D02*
G03*
X1121500Y609543I-3000J0D01*
G01*
D12*
X535379Y655120D02*
G03*
X535379Y655120I-500J0D01*
G01*
X1398379Y610621D02*
G03*
X1398379Y610621I-500J0D01*
G01*
X739380Y598879D02*
G03*
X739380Y598879I-500J0D01*
G01*
X1228620Y717121D02*
G03*
X1228620Y717121I-500J0D01*
G01*
X603020Y560396D02*
X605020D01*
X603020Y558396D02*
Y560396D01*
Y542896D02*
Y544896D01*
Y542896D02*
X605020D01*
X635520D02*
X637520D01*
Y544896D01*
Y558396D02*
Y560396D01*
X635520D02*
X637520D01*
X821000Y689000D02*
X824000D01*
X818000Y685000D02*
Y693000D01*
D13*
X1399840Y543797D02*
G03*
X1399840Y543797I-500J0D01*
G01*
X1335202Y556076D02*
G03*
X1335202Y556076I-500J0D01*
G01*
X1344000Y609000D02*
Y617000D01*
X1360000Y609000D02*
Y617000D01*
X1386000Y716500D02*
X1386000Y708500D01*
X1370000Y716500D02*
X1370000Y708500D01*
X1464000Y655543D02*
Y663542D01*
X1448000Y655543D02*
Y663542D01*
X1264000Y573000D02*
X1272000D01*
X1264000Y589000D02*
X1272000D01*
X1361000Y708997D02*
Y716997D01*
X1345000D02*
X1345000Y708997D01*
X1318333Y703500D02*
Y711500D01*
X1334332Y703500D02*
Y711500D01*
X1427628Y538415D02*
X1427628Y530415D01*
X1411628D02*
Y538415D01*
X1427585Y561457D02*
Y569458D01*
X1411585Y561457D02*
Y569458D01*
X1402043Y561457D02*
X1402043Y569457D01*
X1386042D02*
X1386042Y561457D01*
X1373542Y538415D02*
X1373543Y530415D01*
X1357543D02*
Y538415D01*
X1306458Y530415D02*
Y538415D01*
X1322458Y530415D02*
Y538415D01*
X1332000Y530415D02*
Y538415D01*
X1348000Y530415D02*
Y538415D01*
X1360500Y561457D02*
Y569458D01*
X1376500Y561457D02*
Y569458D01*
X1449543Y612000D02*
X1457543D01*
X1449543Y628000D02*
X1457543D01*
X1288000Y665000D02*
X1296000D01*
X1288000Y681000D02*
X1296000D01*
X1308457Y703500D02*
Y711500D01*
X1292457Y703500D02*
Y711500D01*
X1383999Y687189D02*
X1391999D01*
X1383999Y671189D02*
X1391999D01*
X1384000Y661543D02*
X1392000D01*
X1384000Y645543D02*
X1392000D01*
X1384000Y620000D02*
X1392000D01*
X1384000Y636000D02*
X1392000D01*
X808000Y680208D02*
Y688207D01*
X792000Y680208D02*
Y688207D01*
X773000Y680208D02*
Y688207D01*
X757000Y680208D02*
Y688207D01*
X862000Y680208D02*
X862000Y688207D01*
X846000D02*
X846000Y680208D01*
X897000D02*
Y688207D01*
X881000Y680208D02*
Y688207D01*
X1306415Y561457D02*
Y569458D01*
X1322415Y561457D02*
Y569458D01*
X1187000Y560293D02*
X1195000Y560293D01*
X1187000Y544293D02*
X1195000Y544293D01*
X1187000Y586750D02*
X1195000Y586750D01*
X1187000Y570750D02*
X1195000D01*
X1187000Y612293D02*
X1195000Y612293D01*
X1187000Y596292D02*
X1195000Y596293D01*
X666250Y727600D02*
Y738400D01*
X1457000Y576000D02*
Y584000D01*
X1441000Y576000D02*
Y584000D01*
X1482543Y576000D02*
Y584000D01*
X1466543Y576000D02*
Y584000D01*
X593000Y547000D02*
Y555000D01*
X577000Y547000D02*
Y555000D01*
X648793Y547000D02*
Y555000D01*
X664793Y547000D02*
Y555000D01*
D14*
X677500Y688000D02*
G03*
X677500Y688000I-500J0D01*
G01*
X1108500Y553543D02*
Y619543D01*
X1145500Y553543D02*
Y619543D01*
X1108500D02*
X1145500D01*
X1108500Y553543D02*
X1145500Y553543D01*
X1058000Y742500D02*
X1098000D01*
Y734500D02*
Y742500D01*
X1082000Y734500D02*
X1098000D01*
X1082000D02*
X1082000Y722000D01*
X1082000Y671500D02*
X1082000Y684000D01*
X1082000Y671500D02*
X1098000D01*
Y663500D02*
Y671500D01*
X1058000Y663500D02*
X1098000D01*
X1022000Y681000D02*
Y725000D01*
X538000Y629000D02*
Y635000D01*
X554000Y629000D02*
Y635000D01*
X1288000Y526750D02*
Y539300D01*
Y493000D02*
Y502250D01*
X1218000Y493000D02*
X1288000D01*
X1218000Y526750D02*
Y539300D01*
X1218000Y502250D02*
X1218000Y493000D01*
X502957Y721300D02*
Y746700D01*
X629958D01*
X502957Y721300D02*
X629958D01*
Y746700D01*
X1362000Y639000D02*
Y644000D01*
X1357000Y639000D02*
X1362000D01*
Y678000D02*
Y683000D01*
X1357000D02*
X1362000D01*
X1318000D02*
X1323000D01*
X1318000Y678000D02*
Y683000D01*
Y639000D02*
Y644000D01*
Y639000D02*
X1323000D01*
X1384585Y540415D02*
X1400585Y540415D01*
X1384585Y524415D02*
Y540415D01*
Y524415D02*
X1400585D01*
X1400585Y528915D01*
Y540415D01*
X681000Y721000D02*
X711000D01*
X681000Y687000D02*
X711000D01*
X1444700Y681300D02*
Y732100D01*
X1419300D02*
X1444700D01*
X1419300Y681300D02*
Y732100D01*
Y681300D02*
X1444700D01*
X586000Y507000D02*
X705600D01*
Y525000D01*
X586000D02*
X705600D01*
X586000Y507000D02*
Y525000D01*
X765700Y632000D02*
Y650000D01*
X735000D02*
X765700D01*
X735000Y632000D02*
Y650000D01*
Y632000D02*
X765700D01*
X802000Y728000D02*
X845400D01*
X802000D02*
Y746000D01*
X845400D01*
Y728000D02*
Y746000D01*
X971700Y511000D02*
Y529000D01*
X941000D02*
X971700D01*
X941000Y511000D02*
Y529000D01*
Y511000D02*
X971700D01*
X604000Y585000D02*
X608250D01*
X604000D02*
Y589250D01*
Y654750D02*
Y659000D01*
X608250D01*
X673750D02*
X678000D01*
Y654750D02*
Y659000D01*
X673750Y585000D02*
X678000D01*
Y589250D01*
X805000Y541000D02*
Y543000D01*
X771000D02*
X805000D01*
X771000Y541000D02*
Y543000D01*
Y517000D02*
Y519000D01*
Y517000D02*
X805000D01*
Y519000D01*
Y581000D02*
Y583000D01*
X771000D02*
X805000D01*
X771000Y581000D02*
Y583000D01*
Y557000D02*
Y559000D01*
Y557000D02*
X805000D01*
Y559000D01*
X759000Y618000D02*
X765000D01*
X759000Y602000D02*
X765000D01*
X1202000Y698000D02*
X1208000Y698000D01*
X1202000Y714000D02*
X1208000D01*
X1079100Y511300D02*
Y536700D01*
X1028300Y511300D02*
X1079100D01*
X1028300D02*
Y536700D01*
X1079100D01*
X1086000Y507000D02*
Y525000D01*
X1205600D01*
Y507000D02*
Y525000D01*
X1086000Y507000D02*
X1205600D01*
X1351400Y728000D02*
Y746000D01*
X1308000D02*
X1351400D01*
X1308000Y728000D02*
Y746000D01*
Y728000D02*
X1351400D01*
X1441000Y511000D02*
X1471700D01*
X1441000D02*
Y529000D01*
X1471700D01*
Y511000D02*
Y529000D01*
X1235000Y632000D02*
X1265700D01*
X1235000D02*
Y650000D01*
X1265700D01*
Y632000D02*
Y650000D01*
X1333457Y559458D02*
Y570957D01*
Y575457D01*
X1349458D01*
Y559458D02*
Y575457D01*
X1333457Y559458D02*
X1349458D01*
X650500Y732379D02*
Y734500D01*
Y731500D02*
Y733621D01*
Y731500D02*
X652000Y733000D01*
X650500Y734500D02*
X652000Y733000D01*
D15*
X1121710Y630174D02*
Y624884D01*
X1122768Y623826D01*
X1124884D01*
X1125942Y624884D01*
Y630174D01*
X1128058D02*
X1132290D01*
Y629116D01*
X1128058Y624884D01*
Y623826D01*
X758942Y549116D02*
X757884Y550174D01*
X755768D01*
X754710Y549116D01*
Y548058D01*
X755768Y547000D01*
X757884D01*
X758942Y545942D01*
Y544884D01*
X757884Y543826D01*
X755768D01*
X754710Y544884D01*
X765290Y543826D02*
X761058D01*
X765290Y548058D01*
Y549116D01*
X764232Y550174D01*
X762116D01*
X761058Y549116D01*
X822112Y710182D02*
X817880D01*
Y707008D01*
X819996D01*
X817880D01*
Y703834D01*
X824228Y710182D02*
Y703834D01*
X828460D01*
X830576Y710182D02*
X834808D01*
X832692D01*
Y703834D01*
X836924D02*
X839040D01*
X837982D01*
Y710182D01*
X836924Y709124D01*
X601132Y676052D02*
Y670762D01*
X602190Y669704D01*
X604306D01*
X605364Y670762D01*
Y676052D01*
X611712D02*
X609596Y674994D01*
X607480Y672878D01*
Y670762D01*
X608538Y669704D01*
X610654D01*
X611712Y670762D01*
Y671820D01*
X610654Y672878D01*
X607480D01*
X941324Y536448D02*
Y542796D01*
X944498D01*
X945556Y541738D01*
Y539622D01*
X944498Y538564D01*
X941324D01*
X947672Y537506D02*
X948730Y536448D01*
X950846D01*
X951904Y537506D01*
Y541738D01*
X950846Y542796D01*
X948730D01*
X947672Y541738D01*
Y540680D01*
X948730Y539622D01*
X951904D01*
X849710Y739826D02*
Y746174D01*
X852884D01*
X853942Y745116D01*
Y743000D01*
X852884Y741942D01*
X849710D01*
X856058Y746174D02*
X860290D01*
Y745116D01*
X856058Y740884D01*
Y739826D01*
X735330Y657352D02*
Y663700D01*
X738504D01*
X739562Y662642D01*
Y660526D01*
X738504Y659468D01*
X735330D01*
X745910Y663700D02*
X743794Y662642D01*
X741678Y660526D01*
Y658410D01*
X742736Y657352D01*
X744852D01*
X745910Y658410D01*
Y659468D01*
X744852Y660526D01*
X741678D01*
X567710Y519826D02*
Y526174D01*
X570884D01*
X571942Y525116D01*
Y523000D01*
X570884Y521942D01*
X567710D01*
X574058Y525116D02*
X575116Y526174D01*
X577232D01*
X578290Y525116D01*
Y524058D01*
X577232Y523000D01*
X578290Y521942D01*
Y520884D01*
X577232Y519826D01*
X575116D01*
X574058Y520884D01*
Y521942D01*
X575116Y523000D01*
X574058Y524058D01*
Y525116D01*
X575116Y523000D02*
X577232D01*
X1355710Y739826D02*
Y746174D01*
X1358884D01*
X1359942Y745116D01*
Y743000D01*
X1358884Y741942D01*
X1355710D01*
X1365232Y739826D02*
Y746174D01*
X1362058Y743000D01*
X1366290D01*
X1441196Y536448D02*
Y542796D01*
X1444370D01*
X1445428Y541738D01*
Y539622D01*
X1444370Y538564D01*
X1441196D01*
X1451776Y536448D02*
X1447544D01*
X1451776Y540680D01*
Y541738D01*
X1450718Y542796D01*
X1448602D01*
X1447544Y541738D01*
X1235202Y657352D02*
Y663700D01*
X1238376D01*
X1239434Y662642D01*
Y660526D01*
X1238376Y659468D01*
X1235202D01*
X1241550Y662642D02*
X1242608Y663700D01*
X1244724D01*
X1245782Y662642D01*
Y661584D01*
X1244724Y660526D01*
X1243666D01*
X1244724D01*
X1245782Y659468D01*
Y658410D01*
X1244724Y657352D01*
X1242608D01*
X1241550Y658410D01*
X1095465Y529826D02*
Y536174D01*
X1098639D01*
X1099697Y535116D01*
Y533000D01*
X1098639Y531942D01*
X1095465D01*
X1101813Y529826D02*
X1103929D01*
X1102871D01*
Y536174D01*
X1101813Y535116D01*
X1107103D02*
X1108161Y536174D01*
X1110277D01*
X1111335Y535116D01*
Y530884D01*
X1110277Y529826D01*
X1108161D01*
X1107103Y530884D01*
Y535116D01*
X1419606Y739394D02*
Y745742D01*
X1422780D01*
X1423838Y744684D01*
Y742568D01*
X1422780Y741510D01*
X1419606D01*
X1421722D02*
X1423838Y739394D01*
X1425954Y745742D02*
X1430186D01*
X1428070D01*
Y739394D01*
X1432302D02*
X1434418D01*
X1433360D01*
Y745742D01*
X1432302Y744684D01*
X1207065Y549661D02*
Y556009D01*
X1210239D01*
X1211297Y554951D01*
Y552835D01*
X1210239Y551777D01*
X1207065D01*
X1209181D02*
X1211297Y549661D01*
X1213413D02*
X1215529D01*
X1214471D01*
Y556009D01*
X1213413Y554951D01*
X1218703D02*
X1219761Y556009D01*
X1221877D01*
X1222935Y554951D01*
Y553893D01*
X1221877Y552835D01*
X1222935Y551777D01*
Y550719D01*
X1221877Y549661D01*
X1219761D01*
X1218703Y550719D01*
Y551777D01*
X1219761Y552835D01*
X1218703Y553893D01*
Y554951D01*
X1219761Y552835D02*
X1221877D01*
X1207065Y576034D02*
Y582382D01*
X1210239D01*
X1211297Y581324D01*
Y579207D01*
X1210239Y578149D01*
X1207065D01*
X1209181D02*
X1211297Y576034D01*
X1213413D02*
X1215529D01*
X1214471D01*
Y582382D01*
X1213413Y581324D01*
X1218703Y582382D02*
X1222935D01*
Y581324D01*
X1218703Y577091D01*
Y576034D01*
X1207065Y601119D02*
Y607467D01*
X1210239D01*
X1211297Y606409D01*
Y604293D01*
X1210239Y603235D01*
X1207065D01*
X1209181D02*
X1211297Y601119D01*
X1213413D02*
X1215529D01*
X1214471D01*
Y607467D01*
X1213413Y606409D01*
X1222935Y607467D02*
X1220819Y606409D01*
X1218703Y604293D01*
Y602177D01*
X1219761Y601119D01*
X1221877D01*
X1222935Y602177D01*
Y603235D01*
X1221877Y604293D01*
X1218703D01*
X659710Y708174D02*
Y707116D01*
X661826Y705000D01*
X663942Y707116D01*
Y708174D01*
X661826Y705000D02*
Y701826D01*
X670290D02*
X666058D01*
X670290Y706058D01*
Y707116D01*
X669232Y708174D01*
X667116D01*
X666058Y707116D01*
X616038Y579819D02*
Y578761D01*
X618154Y576646D01*
X620270Y578761D01*
Y579819D01*
X618154Y576646D02*
Y573472D01*
X622386D02*
X624502D01*
X623444D01*
Y579819D01*
X622386Y578761D01*
X1386710Y519631D02*
Y514342D01*
X1387768Y513284D01*
X1389884D01*
X1390942Y514342D01*
Y519631D01*
X1397290D02*
X1393058D01*
Y516457D01*
X1395174Y517515D01*
X1396232D01*
X1397290Y516457D01*
Y514342D01*
X1396232Y513284D01*
X1394116D01*
X1393058Y514342D01*
X1336710Y586174D02*
Y580884D01*
X1337768Y579826D01*
X1339884D01*
X1340942Y580884D01*
Y586174D01*
X1346232Y579826D02*
Y586174D01*
X1343058Y583000D01*
X1347290D01*
X1305768Y693174D02*
Y687884D01*
X1306826Y686826D01*
X1308942D01*
X1310000Y687884D01*
Y693174D01*
X1312116Y686826D02*
X1314232D01*
X1313174D01*
Y693174D01*
X1312116Y692116D01*
X1015942Y527116D02*
X1014884Y528174D01*
X1012768D01*
X1011710Y527116D01*
Y526058D01*
X1012768Y525000D01*
X1014884D01*
X1015942Y523942D01*
Y522884D01*
X1014884Y521826D01*
X1012768D01*
X1011710Y522884D01*
X1018058Y527116D02*
X1019116Y528174D01*
X1021232D01*
X1022290Y527116D01*
Y526058D01*
X1021232Y525000D01*
X1020174D01*
X1021232D01*
X1022290Y523942D01*
Y522884D01*
X1021232Y521826D01*
X1019116D01*
X1018058Y522884D01*
X759000Y589116D02*
X757942Y590174D01*
X755826D01*
X754768Y589116D01*
Y588058D01*
X755826Y587000D01*
X757942D01*
X759000Y585942D01*
Y584884D01*
X757942Y583826D01*
X755826D01*
X754768Y584884D01*
X761116Y583826D02*
X763232D01*
X762174D01*
Y590174D01*
X761116Y589116D01*
X1469536Y655826D02*
Y662174D01*
X1472710D01*
X1473768Y661116D01*
Y659000D01*
X1472710Y657942D01*
X1469536D01*
X1471652D02*
X1473768Y655826D01*
X1480116D02*
X1475884D01*
X1480116Y660058D01*
Y661116D01*
X1479058Y662174D01*
X1476942D01*
X1475884Y661116D01*
X1486464Y655826D02*
X1482232D01*
X1486464Y660058D01*
Y661116D01*
X1485406Y662174D01*
X1483290D01*
X1482232Y661116D01*
X1441594Y558369D02*
Y564716D01*
X1444768D01*
X1445826Y563658D01*
Y561543D01*
X1444768Y560485D01*
X1441594D01*
X1443710D02*
X1445826Y558369D01*
X1452174D02*
X1447942D01*
X1452174Y562601D01*
Y563658D01*
X1451116Y564716D01*
X1449000D01*
X1447942Y563658D01*
X1454290Y558369D02*
X1456406D01*
X1455348D01*
Y564716D01*
X1454290Y563658D01*
X1466079Y558369D02*
Y564716D01*
X1469253D01*
X1470311Y563658D01*
Y561543D01*
X1469253Y560485D01*
X1466079D01*
X1468194D02*
X1470311Y558369D01*
X1476658D02*
X1472426D01*
X1476658Y562601D01*
Y563658D01*
X1475600Y564716D01*
X1473484D01*
X1472426Y563658D01*
X1478775D02*
X1479832Y564716D01*
X1481948D01*
X1483006Y563658D01*
Y559427D01*
X1481948Y558369D01*
X1479832D01*
X1478775Y559427D01*
Y563658D01*
X1356448Y728324D02*
Y734671D01*
X1359622D01*
X1360680Y733614D01*
Y731497D01*
X1359622Y730440D01*
X1356448D01*
X1358564D02*
X1360680Y728324D01*
X1362796D02*
X1364912D01*
X1363854D01*
Y734671D01*
X1362796Y733614D01*
X1368086D02*
X1369144Y734671D01*
X1371260D01*
X1372318Y733614D01*
Y732555D01*
X1371260Y731497D01*
X1370202D01*
X1371260D01*
X1372318Y730440D01*
Y729381D01*
X1371260Y728324D01*
X1369144D01*
X1368086Y729381D01*
X1344065Y593826D02*
Y600174D01*
X1347239D01*
X1348297Y599116D01*
Y597000D01*
X1347239Y595942D01*
X1344065D01*
X1346181D02*
X1348297Y593826D01*
X1350413D02*
X1352529D01*
X1351471D01*
Y600174D01*
X1350413Y599116D01*
X1359935Y593826D02*
X1355703D01*
X1359935Y598058D01*
Y599116D01*
X1358877Y600174D01*
X1356761D01*
X1355703Y599116D01*
X1320123Y688826D02*
Y695174D01*
X1323297D01*
X1324355Y694116D01*
Y692000D01*
X1323297Y690942D01*
X1320123D01*
X1322239D02*
X1324355Y688826D01*
X1326471D02*
X1328587D01*
X1327529D01*
Y695174D01*
X1326471Y694116D01*
X1331761Y688826D02*
X1333877D01*
X1332819D01*
Y695174D01*
X1331761Y694116D01*
X1391065Y709826D02*
Y716174D01*
X1394239D01*
X1395297Y715116D01*
Y713000D01*
X1394239Y711942D01*
X1391065D01*
X1393181D02*
X1395297Y709826D01*
X1397413D02*
X1399529D01*
X1398471D01*
Y716174D01*
X1397413Y715116D01*
X1402703D02*
X1403761Y716174D01*
X1405877D01*
X1406935Y715116D01*
Y710884D01*
X1405877Y709826D01*
X1403761D01*
X1402703Y710884D01*
Y715116D01*
X1262710Y593826D02*
Y600174D01*
X1265884D01*
X1266942Y599116D01*
Y597000D01*
X1265884Y595942D01*
X1262710D01*
X1264826D02*
X1266942Y593826D01*
X1269058Y599116D02*
X1270116Y600174D01*
X1272232D01*
X1273290Y599116D01*
Y598058D01*
X1272232Y597000D01*
X1273290Y595942D01*
Y594884D01*
X1272232Y593826D01*
X1270116D01*
X1269058Y594884D01*
Y595942D01*
X1270116Y597000D01*
X1269058Y598058D01*
Y599116D01*
X1270116Y597000D02*
X1272232D01*
X1403710Y651369D02*
Y657717D01*
X1406884D01*
X1407942Y656658D01*
Y654543D01*
X1406884Y653484D01*
X1403710D01*
X1405826D02*
X1407942Y651369D01*
X1410058Y657717D02*
X1414290D01*
Y656658D01*
X1410058Y652427D01*
Y651369D01*
X1403709Y677015D02*
Y683363D01*
X1406883D01*
X1407941Y682305D01*
Y680189D01*
X1406883Y679131D01*
X1403709D01*
X1405825D02*
X1407941Y677015D01*
X1414289Y683363D02*
X1412173Y682305D01*
X1410057Y680189D01*
Y678073D01*
X1411115Y677015D01*
X1413231D01*
X1414289Y678073D01*
Y679131D01*
X1413231Y680189D01*
X1410057D01*
X1286710Y686826D02*
Y693174D01*
X1289884D01*
X1290942Y692116D01*
Y690000D01*
X1289884Y688942D01*
X1286710D01*
X1288826D02*
X1290942Y686826D01*
X1296232D02*
Y693174D01*
X1293058Y690000D01*
X1297290D01*
X1282710Y716826D02*
Y723174D01*
X1285884D01*
X1286942Y722116D01*
Y720000D01*
X1285884Y718942D01*
X1282710D01*
X1284826D02*
X1286942Y716826D01*
X1289058Y722116D02*
X1290116Y723174D01*
X1292232D01*
X1293290Y722116D01*
Y721058D01*
X1292232Y720000D01*
X1291174D01*
X1292232D01*
X1293290Y718942D01*
Y717884D01*
X1292232Y716826D01*
X1290116D01*
X1289058Y717884D01*
X1400710Y628826D02*
Y635174D01*
X1403884D01*
X1404942Y634116D01*
Y632000D01*
X1403884Y630942D01*
X1400710D01*
X1402826D02*
X1404942Y628826D01*
X1411290D02*
X1407058D01*
X1411290Y633058D01*
Y634116D01*
X1410232Y635174D01*
X1408116D01*
X1407058Y634116D01*
X634710Y712826D02*
Y719174D01*
X637884D01*
X638942Y718116D01*
Y716000D01*
X637884Y714942D01*
X634710D01*
X645290Y719174D02*
X641058D01*
Y716000D01*
X643174Y717058D01*
X644232D01*
X645290Y716000D01*
Y713884D01*
X644232Y712826D01*
X642116D01*
X641058Y713884D01*
X1005768Y699826D02*
Y706174D01*
X1008942D01*
X1010000Y705116D01*
Y703000D01*
X1008942Y701942D01*
X1005768D01*
X1012116Y699826D02*
X1014232D01*
X1013174D01*
Y706174D01*
X1012116Y705116D01*
X865710Y722174D02*
Y715826D01*
X869942D01*
X872058Y721116D02*
X873116Y722174D01*
X875232D01*
X876290Y721116D01*
Y720058D01*
X875232Y719000D01*
X874174D01*
X875232D01*
X876290Y717942D01*
Y716884D01*
X875232Y715826D01*
X873116D01*
X872058Y716884D01*
X778560Y721174D02*
Y714826D01*
X782792D01*
X789140D02*
X784908D01*
X789140Y719058D01*
Y720116D01*
X788082Y721174D01*
X785966D01*
X784908Y720116D01*
X1224174Y650232D02*
X1217826D01*
Y646000D01*
Y643884D02*
Y641768D01*
Y642826D01*
X1224174D01*
X1223116Y643884D01*
X1295000Y552174D02*
X1292884D01*
X1293942D01*
Y546884D01*
X1292884Y545826D01*
X1291826D01*
X1290768Y546884D01*
X1297116Y545826D02*
X1299232D01*
X1298174D01*
Y552174D01*
X1297116Y551116D01*
X677674Y744290D02*
X671326D01*
Y741116D01*
X672384Y740058D01*
X676616D01*
X677674Y741116D01*
Y744290D01*
X671326Y734768D02*
X677674D01*
X674500Y737942D01*
Y733710D01*
X1448768Y638116D02*
X1447710Y639174D01*
X1445594D01*
X1444536Y638116D01*
Y633884D01*
X1445594Y632826D01*
X1447710D01*
X1448768Y633884D01*
X1454058Y632826D02*
Y639174D01*
X1450884Y636000D01*
X1455116D01*
X1457232Y638116D02*
X1458290Y639174D01*
X1460406D01*
X1461464Y638116D01*
Y633884D01*
X1460406Y632826D01*
X1458290D01*
X1457232Y633884D01*
Y638116D01*
X1411768Y619116D02*
X1410710Y620174D01*
X1408594D01*
X1407536Y619116D01*
Y614884D01*
X1408594Y613826D01*
X1410710D01*
X1411768Y614884D01*
X1413884Y619116D02*
X1414942Y620174D01*
X1417058D01*
X1418116Y619116D01*
Y618058D01*
X1417058Y617000D01*
X1416000D01*
X1417058D01*
X1418116Y615942D01*
Y614884D01*
X1417058Y613826D01*
X1414942D01*
X1413884Y614884D01*
X1420232D02*
X1421290Y613826D01*
X1423406D01*
X1424464Y614884D01*
Y619116D01*
X1423406Y620174D01*
X1421290D01*
X1420232Y619116D01*
Y618058D01*
X1421290Y617000D01*
X1424464D01*
X513768Y635116D02*
X512710Y636174D01*
X510594D01*
X509536Y635116D01*
Y630884D01*
X510594Y629826D01*
X512710D01*
X513768Y630884D01*
X515884Y635116D02*
X516942Y636174D01*
X519058D01*
X520116Y635116D01*
Y634058D01*
X519058Y633000D01*
X518000D01*
X519058D01*
X520116Y631942D01*
Y630884D01*
X519058Y629826D01*
X516942D01*
X515884Y630884D01*
X526464Y636174D02*
X524348Y635116D01*
X522232Y633000D01*
Y630884D01*
X523290Y629826D01*
X525406D01*
X526464Y630884D01*
Y631942D01*
X525406Y633000D01*
X522232D01*
X725768Y612116D02*
X724710Y613174D01*
X722594D01*
X721536Y612116D01*
Y607884D01*
X722594Y606826D01*
X724710D01*
X725768Y607884D01*
X727884Y612116D02*
X728942Y613174D01*
X731058D01*
X732116Y612116D01*
Y611058D01*
X731058Y610000D01*
X730000D01*
X731058D01*
X732116Y608942D01*
Y607884D01*
X731058Y606826D01*
X728942D01*
X727884Y607884D01*
X734232Y612116D02*
X735290Y613174D01*
X737406D01*
X738464Y612116D01*
Y611058D01*
X737406Y610000D01*
X736348D01*
X737406D01*
X738464Y608942D01*
Y607884D01*
X737406Y606826D01*
X735290D01*
X734232Y607884D01*
X652768Y577116D02*
X651710Y578174D01*
X649594D01*
X648536Y577116D01*
Y572884D01*
X649594Y571826D01*
X651710D01*
X652768Y572884D01*
X659116Y571826D02*
X654884D01*
X659116Y576058D01*
Y577116D01*
X658058Y578174D01*
X655942D01*
X654884Y577116D01*
X664406Y571826D02*
Y578174D01*
X661232Y575000D01*
X665464D01*
X578768Y577116D02*
X577710Y578174D01*
X575594D01*
X574536Y577116D01*
Y572884D01*
X575594Y571826D01*
X577710D01*
X578768Y572884D01*
X585116Y571826D02*
X580884D01*
X585116Y576058D01*
Y577116D01*
X584058Y578174D01*
X581942D01*
X580884Y577116D01*
X587232D02*
X588290Y578174D01*
X590406D01*
X591464Y577116D01*
Y576058D01*
X590406Y575000D01*
X589348D01*
X590406D01*
X591464Y573942D01*
Y572884D01*
X590406Y571826D01*
X588290D01*
X587232Y572884D01*
X884768Y668324D02*
X883710Y669381D01*
X881594D01*
X880536Y668324D01*
Y664091D01*
X881594Y663034D01*
X883710D01*
X884768Y664091D01*
X891116Y663034D02*
X886884D01*
X891116Y667265D01*
Y668324D01*
X890058Y669381D01*
X887942D01*
X886884Y668324D01*
X897464Y663034D02*
X893232D01*
X897464Y667265D01*
Y668324D01*
X896406Y669381D01*
X894290D01*
X893232Y668324D01*
X851826Y668116D02*
X850768Y669174D01*
X848652D01*
X847594Y668116D01*
Y663884D01*
X848652Y662826D01*
X850768D01*
X851826Y663884D01*
X858174Y662826D02*
X853942D01*
X858174Y667058D01*
Y668116D01*
X857116Y669174D01*
X855000D01*
X853942Y668116D01*
X860290Y662826D02*
X862406D01*
X861348D01*
Y669174D01*
X860290Y668116D01*
X795768Y668324D02*
X794710Y669381D01*
X792594D01*
X791536Y668324D01*
Y664091D01*
X792594Y663034D01*
X794710D01*
X795768Y664091D01*
X802116Y663034D02*
X797884D01*
X802116Y667265D01*
Y668324D01*
X801058Y669381D01*
X798942D01*
X797884Y668324D01*
X804232D02*
X805290Y669381D01*
X807406D01*
X808464Y668324D01*
Y664091D01*
X807406Y663034D01*
X805290D01*
X804232Y664091D01*
Y668324D01*
X761297D02*
X760239Y669381D01*
X758123D01*
X757065Y668324D01*
Y664091D01*
X758123Y663034D01*
X760239D01*
X761297Y664091D01*
X763413Y663034D02*
X765529D01*
X764471D01*
Y669381D01*
X763413Y668324D01*
X768703Y664091D02*
X769761Y663034D01*
X771877D01*
X772935Y664091D01*
Y668324D01*
X771877Y669381D01*
X769761D01*
X768703Y668324D01*
Y667265D01*
X769761Y666208D01*
X772935D01*
X1415755Y586073D02*
X1414697Y587132D01*
X1412581D01*
X1411523Y586073D01*
Y581842D01*
X1412581Y580784D01*
X1414697D01*
X1415755Y581842D01*
X1417870Y580784D02*
X1419987D01*
X1418929D01*
Y587132D01*
X1417870Y586073D01*
X1423161D02*
X1424218Y587132D01*
X1426334D01*
X1427392Y586073D01*
Y585015D01*
X1426334Y583957D01*
X1427392Y582900D01*
Y581842D01*
X1426334Y580784D01*
X1424218D01*
X1423161Y581842D01*
Y582900D01*
X1424218Y583957D01*
X1423161Y585015D01*
Y586073D01*
X1424218Y583957D02*
X1426334D01*
X1390755Y586073D02*
X1389697Y587132D01*
X1387581D01*
X1386523Y586073D01*
Y581842D01*
X1387581Y580784D01*
X1389697D01*
X1390755Y581842D01*
X1392870Y580784D02*
X1394987D01*
X1393929D01*
Y587132D01*
X1392870Y586073D01*
X1398160Y587132D02*
X1402392D01*
Y586073D01*
X1398160Y581842D01*
Y580784D01*
X1362297Y518531D02*
X1361239Y519589D01*
X1359123D01*
X1358065Y518531D01*
Y514299D01*
X1359123Y513241D01*
X1361239D01*
X1362297Y514299D01*
X1364413Y513241D02*
X1366529D01*
X1365471D01*
Y519589D01*
X1364413Y518531D01*
X1373935Y519589D02*
X1371819Y518531D01*
X1369703Y516415D01*
Y514299D01*
X1370761Y513241D01*
X1372877D01*
X1373935Y514299D01*
Y515357D01*
X1372877Y516415D01*
X1369703D01*
X1416297Y518531D02*
X1415239Y519589D01*
X1413123D01*
X1412065Y518531D01*
Y514299D01*
X1413123Y513241D01*
X1415239D01*
X1416297Y514299D01*
X1418413Y513241D02*
X1420529D01*
X1419471D01*
Y519589D01*
X1418413Y518531D01*
X1427935Y519589D02*
X1423703D01*
Y516415D01*
X1425819Y517473D01*
X1426877D01*
X1427935Y516415D01*
Y514299D01*
X1426877Y513241D01*
X1424761D01*
X1423703Y514299D01*
X1312297Y518531D02*
X1311239Y519589D01*
X1309123D01*
X1308065Y518531D01*
Y514299D01*
X1309123Y513241D01*
X1311239D01*
X1312297Y514299D01*
X1314413Y513241D02*
X1316529D01*
X1315471D01*
Y519589D01*
X1314413Y518531D01*
X1322877Y513241D02*
Y519589D01*
X1319703Y516415D01*
X1323935D01*
X1336297Y518531D02*
X1335239Y519589D01*
X1333123D01*
X1332065Y518531D01*
Y514299D01*
X1333123Y513241D01*
X1335239D01*
X1336297Y514299D01*
X1338413Y513241D02*
X1340529D01*
X1339471D01*
Y519589D01*
X1338413Y518531D01*
X1343703D02*
X1344761Y519589D01*
X1346877D01*
X1347935Y518531D01*
Y517473D01*
X1346877Y516415D01*
X1345819D01*
X1346877D01*
X1347935Y515357D01*
Y514299D01*
X1346877Y513241D01*
X1344761D01*
X1343703Y514299D01*
X1289297Y568116D02*
X1288239Y569174D01*
X1286123D01*
X1285065Y568116D01*
Y563884D01*
X1286123Y562826D01*
X1288239D01*
X1289297Y563884D01*
X1291413Y562826D02*
X1293529D01*
X1292471D01*
Y569174D01*
X1291413Y568116D01*
X1300935Y562826D02*
X1296703D01*
X1300935Y567058D01*
Y568116D01*
X1299877Y569174D01*
X1297761D01*
X1296703Y568116D01*
X1365813Y585574D02*
X1364755Y586631D01*
X1362639D01*
X1361581Y585574D01*
Y581342D01*
X1362639Y580284D01*
X1364755D01*
X1365813Y581342D01*
X1367929Y580284D02*
X1370045D01*
X1368987D01*
Y586631D01*
X1367929Y585574D01*
X1373219Y580284D02*
X1375334D01*
X1374276D01*
Y586631D01*
X1373219Y585574D01*
X1209000Y728116D02*
X1207942Y729174D01*
X1205826D01*
X1204768Y728116D01*
Y723884D01*
X1205826Y722826D01*
X1207942D01*
X1209000Y723884D01*
X1211116Y722826D02*
X1213232D01*
X1212174D01*
Y729174D01*
X1211116Y728116D01*
M02*
