G04*
G04 #@! TF.GenerationSoftware,Altium Limited,Altium Designer,21.3.2 (30)*
G04*
G04 Layer_Physical_Order=1*
G04 Layer_Color=255*
%FSLAX44Y44*%
%MOMM*%
G71*
G04*
G04 #@! TF.SameCoordinates,BB622590-8895-4630-97EF-0A5410F07859*
G04*
G04*
G04 #@! TF.FilePolarity,Positive*
G04*
G01*
G75*
%ADD13C,0.2540*%
%ADD14C,0.2000*%
%ADD15C,0.1270*%
G04:AMPARAMS|DCode=16|XSize=0.4mm|YSize=1.2mm|CornerRadius=0.05mm|HoleSize=0mm|Usage=FLASHONLY|Rotation=90.000|XOffset=0mm|YOffset=0mm|HoleType=Round|Shape=RoundedRectangle|*
%AMROUNDEDRECTD16*
21,1,0.4000,1.1000,0,0,90.0*
21,1,0.3000,1.2000,0,0,90.0*
1,1,0.1000,0.5500,0.1500*
1,1,0.1000,0.5500,-0.1500*
1,1,0.1000,-0.5500,-0.1500*
1,1,0.1000,-0.5500,0.1500*
%
%ADD16ROUNDEDRECTD16*%
%ADD17R,3.5000X1.0000*%
%ADD18R,3.4000X1.5000*%
%ADD19R,0.4800X0.4800*%
%ADD20R,1.8000X1.4000*%
%ADD21R,1.3000X1.5000*%
%ADD22R,1.5000X1.5500*%
%ADD23R,0.4000X1.3500*%
%ADD24R,2.1000X0.9000*%
%ADD25R,2.6000X2.6000*%
%ADD26R,0.8500X0.2000*%
%ADD27R,0.2000X0.8500*%
G04:AMPARAMS|DCode=28|XSize=0.2mm|YSize=0.85mm|CornerRadius=0.05mm|HoleSize=0mm|Usage=FLASHONLY|Rotation=180.000|XOffset=0mm|YOffset=0mm|HoleType=Round|Shape=RoundedRectangle|*
%AMROUNDEDRECTD28*
21,1,0.2000,0.7500,0,0,180.0*
21,1,0.1000,0.8500,0,0,180.0*
1,1,0.1000,-0.0500,0.3750*
1,1,0.1000,0.0500,0.3750*
1,1,0.1000,0.0500,-0.3750*
1,1,0.1000,-0.0500,-0.3750*
%
%ADD28ROUNDEDRECTD28*%
%ADD29P,0.6788X4X360.0*%
%ADD30R,0.2500X0.2200*%
%ADD31R,0.2500X0.2200*%
%ADD32R,0.6000X1.3000*%
%ADD33R,1.4000X1.2000*%
G04:AMPARAMS|DCode=34|XSize=1.2mm|YSize=1.4mm|CornerRadius=0.3mm|HoleSize=0mm|Usage=FLASHONLY|Rotation=90.000|XOffset=0mm|YOffset=0mm|HoleType=Round|Shape=RoundedRectangle|*
%AMROUNDEDRECTD34*
21,1,1.2000,0.8000,0,0,90.0*
21,1,0.6000,1.4000,0,0,90.0*
1,1,0.6000,0.4000,0.3000*
1,1,0.6000,0.4000,-0.3000*
1,1,0.6000,-0.4000,-0.3000*
1,1,0.6000,-0.4000,0.3000*
%
%ADD34ROUNDEDRECTD34*%
%ADD35O,0.2500X0.8500*%
%ADD36R,0.2500X0.8500*%
%ADD37R,0.8500X0.2500*%
%ADD38R,5.6000X5.6000*%
%ADD39R,0.2000X0.3000*%
G04:AMPARAMS|DCode=40|XSize=0.3mm|YSize=0.2mm|CornerRadius=0.05mm|HoleSize=0mm|Usage=FLASHONLY|Rotation=270.000|XOffset=0mm|YOffset=0mm|HoleType=Round|Shape=RoundedRectangle|*
%AMROUNDEDRECTD40*
21,1,0.3000,0.1000,0,0,270.0*
21,1,0.2000,0.2000,0,0,270.0*
1,1,0.1000,-0.0500,-0.1000*
1,1,0.1000,-0.0500,0.1000*
1,1,0.1000,0.0500,0.1000*
1,1,0.1000,0.0500,-0.1000*
%
%ADD40ROUNDEDRECTD40*%
%ADD41R,0.8000X1.7000*%
%ADD42R,1.4000X1.8000*%
%ADD43R,0.9000X0.6000*%
G04:AMPARAMS|DCode=44|XSize=0.6mm|YSize=0.9mm|CornerRadius=0.15mm|HoleSize=0mm|Usage=FLASHONLY|Rotation=270.000|XOffset=0mm|YOffset=0mm|HoleType=Round|Shape=RoundedRectangle|*
%AMROUNDEDRECTD44*
21,1,0.6000,0.6000,0,0,270.0*
21,1,0.3000,0.9000,0,0,270.0*
1,1,0.3000,-0.3000,-0.1500*
1,1,0.3000,-0.3000,0.1500*
1,1,0.3000,0.3000,0.1500*
1,1,0.3000,0.3000,-0.1500*
%
%ADD44ROUNDEDRECTD44*%
%ADD45R,0.6000X0.9000*%
G04:AMPARAMS|DCode=46|XSize=0.6mm|YSize=0.9mm|CornerRadius=0.15mm|HoleSize=0mm|Usage=FLASHONLY|Rotation=0.000|XOffset=0mm|YOffset=0mm|HoleType=Round|Shape=RoundedRectangle|*
%AMROUNDEDRECTD46*
21,1,0.6000,0.6000,0,0,0.0*
21,1,0.3000,0.9000,0,0,0.0*
1,1,0.3000,0.1500,-0.3000*
1,1,0.3000,-0.1500,-0.3000*
1,1,0.3000,-0.1500,0.3000*
1,1,0.3000,0.1500,0.3000*
%
%ADD46ROUNDEDRECTD46*%
%ADD47R,0.8900X0.9400*%
%ADD48R,1.2000X1.5500*%
%ADD49R,1.2000X1.5500*%
%ADD90C,0.4000*%
%ADD91C,0.3000*%
%ADD92O,0.9000X1.5500*%
%ADD93O,1.2500X0.9500*%
%ADD94R,1.5000X1.5000*%
%ADD95C,1.5000*%
%ADD96R,1.5000X1.5000*%
%ADD97C,1.0000*%
%ADD98R,1.0000X1.0000*%
%ADD99C,0.7500*%
%ADD100C,0.4500*%
%ADD101C,0.5000*%
G36*
X905410Y747000D02*
Y711885D01*
X884570D01*
Y713970D01*
X873130D01*
Y702030D01*
X883529D01*
X884703Y700274D01*
X885150Y698024D01*
X885115Y697850D01*
Y695977D01*
X883230D01*
Y687438D01*
X894770D01*
Y695977D01*
X892885D01*
Y697850D01*
X892931D01*
X892451Y701494D01*
X891802Y703059D01*
X892508Y704115D01*
X905410D01*
Y625000D01*
X905607Y624009D01*
X906169Y623169D01*
X907009Y622607D01*
X908000Y622410D01*
X997000D01*
Y503000D01*
X832064D01*
X831143Y504270D01*
X831237Y504744D01*
Y513256D01*
X830991Y514495D01*
X830757Y514845D01*
X831435Y516115D01*
X942460D01*
Y512460D01*
X957540D01*
Y514634D01*
X958713Y515120D01*
X959148Y514685D01*
X961453Y513730D01*
X963947D01*
X966229Y514675D01*
X961802Y519102D01*
X962700Y520000D01*
X961802Y520898D01*
X966229Y525325D01*
X963947Y526270D01*
X961453D01*
X959148Y525315D01*
X958713Y524880D01*
X957540Y525366D01*
Y527540D01*
X942460D01*
Y523885D01*
X812109D01*
X810270Y525724D01*
Y539770D01*
X802846D01*
X802270Y539885D01*
X794609D01*
X783747Y550747D01*
X782487Y551589D01*
X781000Y551885D01*
X753609D01*
X751885Y553609D01*
Y565712D01*
X753155Y566548D01*
X754060Y566367D01*
X765730D01*
Y560230D01*
X776270D01*
Y579770D01*
X765730D01*
Y574137D01*
X754060D01*
X753155Y573957D01*
X751885Y574792D01*
Y599730D01*
X756270D01*
Y620270D01*
X739730D01*
Y605224D01*
X733598Y599092D01*
X724208D01*
X722721Y598796D01*
X721461Y597954D01*
X720619Y596694D01*
X720323Y595207D01*
X720619Y593721D01*
X721461Y592461D01*
X722721Y591619D01*
X724208Y591323D01*
X735208D01*
X736694Y591619D01*
X737954Y592461D01*
X742942Y597448D01*
X744115Y596962D01*
Y552000D01*
X744411Y550513D01*
X745253Y549253D01*
X749253Y545253D01*
X750513Y544411D01*
X752000Y544115D01*
X779391D01*
X786107Y537399D01*
X785809Y535901D01*
X784437Y535332D01*
X782668Y533563D01*
X781710Y531251D01*
Y528749D01*
X782668Y526437D01*
X784437Y524668D01*
X786749Y523710D01*
X789251D01*
X791563Y524668D01*
X793332Y526437D01*
X794290Y528749D01*
Y531251D01*
X794867Y532115D01*
X799730D01*
Y520230D01*
X804776D01*
X807296Y517710D01*
X807430Y516513D01*
X807237Y516071D01*
X806711Y515545D01*
X806009Y514495D01*
X805763Y513256D01*
Y504744D01*
X805857Y504270D01*
X804936Y503000D01*
X503000D01*
X503000Y747000D01*
X905410Y747000D01*
D02*
G37*
G36*
X1472935Y747000D02*
X1473857Y745730D01*
X1473763Y745256D01*
Y736744D01*
X1474009Y735505D01*
X1474711Y734455D01*
X1475455Y733711D01*
X1476505Y733009D01*
X1477744Y732763D01*
X1495256D01*
X1495730Y732857D01*
X1497000Y731936D01*
X1497000Y503000D01*
X1288656D01*
X1288531Y504270D01*
X1288996Y504363D01*
X1289836Y504924D01*
X1290398Y505764D01*
X1290432Y505936D01*
X1291083Y506371D01*
X1287102Y510352D01*
X1288898Y512148D01*
X1292879Y508167D01*
X1293435Y508999D01*
X1293883Y511250D01*
Y517750D01*
X1293435Y520001D01*
X1292879Y520833D01*
X1288898Y516852D01*
X1287102Y518648D01*
X1291083Y522629D01*
X1290434Y523063D01*
X1290398Y523246D01*
X1289836Y524086D01*
X1288996Y524648D01*
X1288005Y524845D01*
X1276005D01*
X1275014Y524648D01*
X1274174Y524086D01*
X1273613Y523246D01*
X1273416Y522255D01*
Y506755D01*
X1273613Y505764D01*
X1274174Y504924D01*
X1275014Y504363D01*
X1275480Y504270D01*
X1275355Y503000D01*
X1230656D01*
X1230531Y504270D01*
X1230996Y504362D01*
X1231836Y504924D01*
X1232398Y505764D01*
X1232595Y506755D01*
Y522255D01*
X1232398Y523246D01*
X1231836Y524086D01*
X1230996Y524648D01*
X1230005Y524845D01*
X1218005D01*
X1217014Y524648D01*
X1216174Y524086D01*
X1215612Y523246D01*
X1215577Y523071D01*
X1214917Y522629D01*
X1218898Y518648D01*
X1217102Y516852D01*
X1213121Y520833D01*
X1212565Y520001D01*
X1212117Y517750D01*
Y511250D01*
X1212565Y508999D01*
X1213121Y508167D01*
X1217102Y512148D01*
X1218898Y510352D01*
X1214917Y506371D01*
X1215580Y505928D01*
X1215612Y505764D01*
X1216174Y504924D01*
X1217014Y504362D01*
X1217479Y504270D01*
X1217354Y503000D01*
X1003000D01*
X1003000Y747000D01*
X1472935Y747000D01*
D02*
G37*
G36*
X811496Y507000D02*
X810997D01*
Y510174D01*
X810992Y510168D01*
X810962Y510145D01*
X810927Y510110D01*
X810868Y510069D01*
X810804Y510016D01*
X810722Y509957D01*
X810628Y509893D01*
X810522Y509828D01*
X810516D01*
X810510Y509822D01*
X810475Y509799D01*
X810417Y509769D01*
X810346Y509734D01*
X810264Y509693D01*
X810176Y509652D01*
X810088Y509611D01*
X810000Y509576D01*
Y510057D01*
X810006D01*
X810018Y510069D01*
X810041Y510075D01*
X810070Y510092D01*
X810106Y510110D01*
X810147Y510133D01*
X810246Y510192D01*
X810364Y510256D01*
X810481Y510339D01*
X810604Y510432D01*
X810728Y510532D01*
X810733Y510538D01*
X810739Y510544D01*
X810757Y510561D01*
X810780Y510579D01*
X810833Y510638D01*
X810904Y510708D01*
X810974Y510790D01*
X811050Y510884D01*
X811115Y510978D01*
X811173Y511078D01*
X811496D01*
Y507000D01*
D02*
G37*
G36*
X1479496Y739000D02*
X1478997D01*
Y742174D01*
X1478992Y742168D01*
X1478962Y742145D01*
X1478927Y742110D01*
X1478868Y742069D01*
X1478804Y742016D01*
X1478722Y741957D01*
X1478628Y741893D01*
X1478522Y741828D01*
X1478516D01*
X1478510Y741822D01*
X1478475Y741799D01*
X1478417Y741769D01*
X1478346Y741734D01*
X1478264Y741693D01*
X1478176Y741652D01*
X1478088Y741611D01*
X1478000Y741576D01*
Y742057D01*
X1478006D01*
X1478018Y742069D01*
X1478041Y742075D01*
X1478070Y742092D01*
X1478106Y742110D01*
X1478147Y742133D01*
X1478246Y742192D01*
X1478364Y742256D01*
X1478481Y742338D01*
X1478604Y742432D01*
X1478728Y742532D01*
X1478733Y742538D01*
X1478739Y742544D01*
X1478757Y742561D01*
X1478780Y742579D01*
X1478833Y742638D01*
X1478904Y742708D01*
X1478974Y742790D01*
X1479050Y742884D01*
X1479115Y742978D01*
X1479173Y743078D01*
X1479496D01*
Y739000D01*
D02*
G37*
%LPC*%
G36*
X837393Y744540D02*
X835407D01*
X833490Y744026D01*
X831770Y743034D01*
X830895Y742158D01*
X830050Y741774D01*
X829205Y742158D01*
X828330Y743034D01*
X826610Y744026D01*
X824693Y744540D01*
X822707D01*
X820790Y744026D01*
X819810Y743461D01*
X818540Y744194D01*
Y744540D01*
X803460D01*
Y729460D01*
X818540D01*
Y729806D01*
X819810Y730539D01*
X820790Y729974D01*
X822707Y729460D01*
X824693D01*
X826610Y729974D01*
X828330Y730966D01*
X829205Y731842D01*
X830050Y732226D01*
X830895Y731842D01*
X831770Y730966D01*
X833490Y729974D01*
X835407Y729460D01*
X837393D01*
X839310Y729974D01*
X841030Y730966D01*
X842433Y732370D01*
X843426Y734090D01*
X843940Y736007D01*
Y737993D01*
X843426Y739910D01*
X842433Y741630D01*
X841030Y743034D01*
X839310Y744026D01*
X837393Y744540D01*
D02*
G37*
G36*
X661974Y738770D02*
X657026D01*
X659500Y736296D01*
X661974Y738770D01*
D02*
G37*
G36*
X542212Y742770D02*
X539903D01*
X537672Y742172D01*
X535776Y741077D01*
X541058Y735796D01*
X546339Y741077D01*
X544442Y742172D01*
X542212Y742770D01*
D02*
G37*
G36*
X655230Y736974D02*
Y729026D01*
X658602Y732398D01*
X659500Y731500D01*
X660398Y732398D01*
X663770Y729026D01*
Y736974D01*
X660398Y733602D01*
X659500Y734500D01*
X658602Y733602D01*
X655230Y736974D01*
D02*
G37*
G36*
X548135Y739281D02*
X542854Y734000D01*
X548135Y728719D01*
X549230Y730615D01*
X549827Y732845D01*
Y735155D01*
X549230Y737385D01*
X548135Y739281D01*
D02*
G37*
G36*
X533980Y739281D02*
X532885Y737385D01*
X532287Y735155D01*
Y732845D01*
X532885Y730615D01*
X533980Y728719D01*
X539262Y734000D01*
X533980Y739281D01*
D02*
G37*
G36*
X659500Y729704D02*
X657026Y727230D01*
X661974D01*
X659500Y729704D01*
D02*
G37*
G36*
X753700Y733520D02*
X752300D01*
X751006Y732984D01*
X750016Y731994D01*
X749480Y730700D01*
Y729300D01*
X750016Y728006D01*
X751006Y727016D01*
X752300Y726480D01*
X753700D01*
X754994Y727016D01*
X755984Y728006D01*
X756520Y729300D01*
Y730700D01*
X755984Y731994D01*
X754994Y732984D01*
X753700Y733520D01*
D02*
G37*
G36*
X541058Y732204D02*
X535776Y726923D01*
X537672Y725828D01*
X539903Y725230D01*
X542212D01*
X544442Y725828D01*
X546339Y726923D01*
X541058Y732204D01*
D02*
G37*
G36*
X593179Y744040D02*
X590536D01*
X587982Y743356D01*
X585693Y742034D01*
X583824Y740165D01*
X582502Y737875D01*
X581818Y735322D01*
Y732678D01*
X582502Y730125D01*
X583824Y727835D01*
X585693Y725966D01*
X587982Y724644D01*
X590536Y723960D01*
X593179D01*
X595733Y724644D01*
X598022Y725966D01*
X599892Y727835D01*
X601213Y730125D01*
X601897Y732678D01*
Y735322D01*
X601213Y737875D01*
X599892Y740165D01*
X598022Y742034D01*
X595733Y743356D01*
X593179Y744040D01*
D02*
G37*
G36*
X567779D02*
X565136D01*
X562582Y743356D01*
X560293Y742034D01*
X558424Y740165D01*
X557102Y737875D01*
X556418Y735322D01*
Y732678D01*
X557102Y730125D01*
X558424Y727835D01*
X560293Y725966D01*
X562582Y724644D01*
X565136Y723960D01*
X567779D01*
X570333Y724644D01*
X572622Y725966D01*
X574492Y727835D01*
X575813Y730125D01*
X576497Y732678D01*
Y735322D01*
X575813Y737875D01*
X574492Y740165D01*
X572622Y742034D01*
X570333Y743356D01*
X567779Y744040D01*
D02*
G37*
G36*
X516979D02*
X514336D01*
X511782Y743356D01*
X509493Y742034D01*
X507623Y740165D01*
X506302Y737875D01*
X505617Y735322D01*
Y732678D01*
X506302Y730125D01*
X507623Y727835D01*
X509493Y725966D01*
X511782Y724644D01*
X514336Y723960D01*
X516979D01*
X519533Y724644D01*
X521822Y725966D01*
X523691Y727835D01*
X525013Y730125D01*
X525697Y732678D01*
Y735322D01*
X525013Y737875D01*
X523691Y740165D01*
X521822Y742034D01*
X519533Y743356D01*
X516979Y744040D01*
D02*
G37*
G36*
X676730Y717474D02*
Y706526D01*
X682204Y712000D01*
X676730Y717474D01*
D02*
G37*
G36*
X868870Y713970D02*
X857430D01*
Y710508D01*
X856614Y710171D01*
X853907Y708093D01*
X851830Y705386D01*
X850524Y702233D01*
X850078Y698850D01*
X850115D01*
Y695977D01*
X848230D01*
X848193Y695600D01*
X848092Y695592D01*
X836386D01*
X835120Y695605D01*
X834756Y695756D01*
X834747Y695747D01*
X833487Y696589D01*
X832000Y696885D01*
X830513Y696589D01*
X830251Y696414D01*
X829270Y695770D01*
Y695770D01*
X829270Y695770D01*
X824730Y695770D01*
X823460Y695770D01*
X819730D01*
Y690230D01*
X824270Y690230D01*
X825540Y690230D01*
X829270D01*
X830005Y689281D01*
X830020Y688729D01*
X829033Y687770D01*
X824730D01*
X824730Y687770D01*
Y687770D01*
X823748Y688414D01*
X823487Y688589D01*
X822000Y688885D01*
X816193D01*
X816061Y688858D01*
X812476Y689211D01*
X808901Y690296D01*
X805770Y691969D01*
Y695977D01*
X803885D01*
Y698700D01*
X803923D01*
X803473Y702122D01*
X802152Y705312D01*
X800050Y708050D01*
X797312Y710152D01*
X796420Y710521D01*
Y713970D01*
X784980D01*
Y702030D01*
X794925D01*
X795752Y700793D01*
X796142Y698832D01*
X796115Y698700D01*
Y695977D01*
X794230D01*
Y687438D01*
X799024D01*
X800445Y686225D01*
X804029Y684028D01*
X807914Y682419D01*
X812002Y681437D01*
X816193Y681107D01*
Y681115D01*
X822000D01*
X823487Y681411D01*
X823749Y681586D01*
X824730Y682230D01*
Y682230D01*
X824730Y682230D01*
X829270D01*
X829270Y682230D01*
Y682230D01*
X830252Y681586D01*
X830513Y681411D01*
X832000Y681115D01*
X833487Y681411D01*
X834747Y682253D01*
Y682253D01*
X834750Y682306D01*
X837607Y684651D01*
X840901Y686412D01*
X844476Y687496D01*
X846960Y687741D01*
X848230Y687438D01*
Y687438D01*
X859770D01*
Y695977D01*
X857885D01*
Y698850D01*
X857860Y698975D01*
X858240Y700884D01*
X859005Y702030D01*
X868870D01*
Y713970D01*
D02*
G37*
G36*
X715270Y701474D02*
X709796Y696000D01*
X715270Y690526D01*
Y701474D01*
D02*
G37*
G36*
X664700Y685520D02*
X663300D01*
X662006Y684984D01*
X661016Y683994D01*
X660480Y682700D01*
Y681300D01*
X661016Y680006D01*
X662006Y679016D01*
X663300Y678480D01*
X664700D01*
X665994Y679016D01*
X666984Y680006D01*
X667520Y681300D01*
Y682700D01*
X666984Y683994D01*
X665994Y684984D01*
X664700Y685520D01*
D02*
G37*
G36*
X770654Y679065D02*
X768296Y676708D01*
X770654Y674350D01*
X770824Y675208D01*
Y678207D01*
X770654Y679065D01*
D02*
G37*
G36*
X894654D02*
X892296Y676708D01*
X894654Y674350D01*
X894824Y675208D01*
Y678207D01*
X894654Y679065D01*
D02*
G37*
G36*
X805654Y679065D02*
X803296Y676708D01*
X805654Y674350D01*
X805824Y675208D01*
Y678207D01*
X805654Y679065D01*
D02*
G37*
G36*
X883346Y679065D02*
X883176Y678207D01*
Y675208D01*
X883346Y674350D01*
X885704Y676708D01*
X883346Y679065D01*
D02*
G37*
G36*
X759346D02*
X759176Y678207D01*
Y675208D01*
X759346Y674350D01*
X761704Y676708D01*
X759346Y679065D01*
D02*
G37*
G36*
X859654Y679065D02*
X857296Y676707D01*
X859654Y674350D01*
X859824Y675208D01*
Y678207D01*
X859654Y679065D01*
D02*
G37*
G36*
X794346Y679065D02*
X794176Y678207D01*
Y675208D01*
X794346Y674350D01*
X796704Y676708D01*
X794346Y679065D01*
D02*
G37*
G36*
X848346Y679065D02*
X848176Y678207D01*
Y675208D01*
X848346Y674350D01*
X850704Y676707D01*
X848346Y679065D01*
D02*
G37*
G36*
X892000Y681032D02*
X886000D01*
X885142Y680861D01*
X888398Y677606D01*
X887500Y676708D01*
X888398Y675809D01*
X885142Y672554D01*
X886000Y672383D01*
X892000D01*
X892858Y672554D01*
X889602Y675809D01*
X890500Y676708D01*
X889602Y677606D01*
X892858Y680861D01*
X892000Y681032D01*
D02*
G37*
G36*
X803000D02*
X797000D01*
X796142Y680861D01*
X799398Y677606D01*
X798500Y676708D01*
X799398Y675809D01*
X796142Y672554D01*
X797000Y672383D01*
X803000D01*
X803858Y672554D01*
X800602Y675809D01*
X801500Y676708D01*
X800602Y677606D01*
X803858Y680861D01*
X803000Y681032D01*
D02*
G37*
G36*
X768000D02*
X762000D01*
X761142Y680861D01*
X764398Y677606D01*
X763500Y676708D01*
X764398Y675809D01*
X761142Y672554D01*
X762000Y672383D01*
X768000D01*
X768858Y672554D01*
X765602Y675809D01*
X766500Y676708D01*
X765602Y677606D01*
X768858Y680861D01*
X768000Y681032D01*
D02*
G37*
G36*
X857000Y681032D02*
X851000D01*
X850142Y680861D01*
X853398Y677606D01*
X852500Y676707D01*
X853398Y675809D01*
X850142Y672554D01*
X851000Y672383D01*
X857000D01*
X857858Y672554D01*
X854602Y675809D01*
X855500Y676707D01*
X854602Y677606D01*
X857858Y680861D01*
X857000Y681032D01*
D02*
G37*
G36*
X646000Y738824D02*
X643000D01*
X641919Y738609D01*
X641003Y737997D01*
X640391Y737081D01*
X640176Y736000D01*
Y733873D01*
X639931Y733507D01*
X639635Y732020D01*
Y670430D01*
X639043Y669253D01*
X637556Y668957D01*
X636296Y668115D01*
X635454Y666855D01*
X635317Y666165D01*
X634646Y665161D01*
X634350Y663675D01*
X634477Y663040D01*
X633633Y661770D01*
X632385D01*
Y679500D01*
X632089Y680987D01*
X631247Y682247D01*
X627747Y685747D01*
X626487Y686589D01*
X625000Y686885D01*
X623513Y686589D01*
X623045Y686276D01*
X622621Y686191D01*
X621361Y685349D01*
X620518Y684089D01*
X620223Y682602D01*
X620518Y681116D01*
X621361Y679856D01*
X622621Y679014D01*
X623709Y678797D01*
X624615Y677891D01*
Y672528D01*
X623345Y671849D01*
X622987Y672089D01*
X621500Y672385D01*
X620109D01*
X616462Y676032D01*
X615201Y676874D01*
X613715Y677170D01*
X601285D01*
X599799Y676874D01*
X598538Y676032D01*
X598155Y675458D01*
X596885Y675843D01*
Y687000D01*
X596589Y688487D01*
X595747Y689747D01*
X579747Y705747D01*
X578487Y706589D01*
X577000Y706885D01*
X575513Y706589D01*
X574253Y705747D01*
X573411Y704487D01*
X573115Y703000D01*
X573411Y701513D01*
X574253Y700253D01*
X575393Y699113D01*
X574855Y697855D01*
X573965D01*
X572671Y697319D01*
X571681Y696329D01*
X571145Y695035D01*
Y693635D01*
X571681Y692341D01*
X572671Y691351D01*
X573965Y690815D01*
X575365D01*
X576659Y691351D01*
X577649Y692341D01*
X578185Y693635D01*
Y694525D01*
X579444Y695062D01*
X589115Y685391D01*
Y673000D01*
X589411Y671513D01*
X590253Y670253D01*
X596253Y664253D01*
X597513Y663411D01*
X599000Y663115D01*
X609615D01*
Y656250D01*
X609911Y654763D01*
X610548Y653810D01*
X610460Y652540D01*
X609405Y652020D01*
X608693D01*
X607989Y652491D01*
X606750Y652737D01*
X605511Y652491D01*
X604959Y652122D01*
X602080D01*
Y652772D01*
X601544Y654066D01*
X600554Y655056D01*
X599260Y655592D01*
X597860D01*
X596566Y655056D01*
X595576Y654066D01*
X595358Y653539D01*
X593867Y653233D01*
X592884Y654216D01*
X591834Y654918D01*
X590595Y655164D01*
X588313D01*
X587140Y655650D01*
X585740D01*
X584446Y655114D01*
X583456Y654124D01*
X582920Y652830D01*
Y652261D01*
X581745Y651200D01*
X581645Y651220D01*
X581285D01*
X579799Y650924D01*
X578539Y650082D01*
X577696Y648822D01*
X577401Y647335D01*
X577696Y645849D01*
X578539Y644588D01*
X579623Y643864D01*
X582850Y640637D01*
X582928Y639935D01*
X582812Y639084D01*
X582596Y638940D01*
X581754Y637680D01*
X581459Y636193D01*
X581754Y634706D01*
X582596Y633446D01*
X582971Y633071D01*
X583175Y632935D01*
X583138Y631432D01*
X582515Y631016D01*
X581673Y629755D01*
X581377Y628269D01*
X581673Y626782D01*
X582515Y625522D01*
X583044Y625168D01*
X583602Y624228D01*
X583346Y623555D01*
X582851Y622815D01*
X582555Y621328D01*
X582851Y619841D01*
X583693Y618581D01*
X584953Y617739D01*
X586440Y617443D01*
X586970D01*
X588457Y617739D01*
X589717Y618581D01*
X591751Y620615D01*
X601230D01*
Y617020D01*
X601230D01*
Y606980D01*
Y598385D01*
X599500D01*
X598013Y598089D01*
X596753Y597247D01*
X595253Y595747D01*
X594411Y594487D01*
X594115Y593000D01*
Y586609D01*
X589753Y582247D01*
X588911Y580987D01*
X588615Y579500D01*
X588911Y578013D01*
X589753Y576753D01*
X591013Y575911D01*
X592500Y575615D01*
X593987Y575911D01*
X595247Y576753D01*
X600747Y582253D01*
X601589Y583513D01*
X601885Y585000D01*
Y590615D01*
X606750D01*
X608237Y590911D01*
X609190Y591548D01*
X610460Y591460D01*
X610548Y590190D01*
X609911Y589237D01*
X609615Y587750D01*
Y582885D01*
X605000D01*
X603513Y582589D01*
X602253Y581747D01*
X596253Y575747D01*
X595411Y574487D01*
X595115Y573000D01*
X595411Y571513D01*
X596253Y570253D01*
X597513Y569411D01*
X599000Y569115D01*
X600487Y569411D01*
X601747Y570253D01*
X606609Y575115D01*
X612012D01*
X613345Y575381D01*
X613808Y575246D01*
X614615Y574814D01*
Y561846D01*
X612185Y559416D01*
X604000D01*
Y550165D01*
X603192Y550005D01*
X601932Y549162D01*
X599904Y547135D01*
X590770D01*
Y547770D01*
X579230D01*
Y539230D01*
X590770D01*
Y539365D01*
X601513D01*
X603000Y539661D01*
X604260Y540503D01*
X606288Y542531D01*
X606540D01*
X608027Y542827D01*
X609287Y543669D01*
X609494Y543876D01*
X612540D01*
Y551444D01*
X613592D01*
X615079Y551740D01*
X616339Y552582D01*
X621247Y557490D01*
X621803Y558323D01*
X623074Y558612D01*
X623349Y558573D01*
X628000Y553922D01*
Y543876D01*
X636540D01*
Y550731D01*
X652075D01*
X653561Y551026D01*
X654821Y551869D01*
X656309Y553356D01*
X656893Y554230D01*
X662563D01*
Y562770D01*
X663615Y563295D01*
X665127D01*
X680663Y547759D01*
Y522837D01*
X679270Y522034D01*
X678395Y521158D01*
X677550Y520774D01*
X676705Y521158D01*
X675830Y522034D01*
X674110Y523026D01*
X672193Y523540D01*
X670207D01*
X668290Y523026D01*
X666570Y522034D01*
X665695Y521158D01*
X664850Y520774D01*
X664005Y521158D01*
X663130Y522034D01*
X661410Y523026D01*
X659493Y523540D01*
X657507D01*
X655590Y523026D01*
X653870Y522034D01*
X652995Y521158D01*
X652150Y520774D01*
X651305Y521158D01*
X650430Y522034D01*
X648710Y523026D01*
X646793Y523540D01*
X644807D01*
X642890Y523026D01*
X641170Y522034D01*
X640295Y521158D01*
X639450Y520774D01*
X638605Y521158D01*
X637730Y522034D01*
X636010Y523026D01*
X634093Y523540D01*
X632107D01*
X630190Y523026D01*
X628470Y522034D01*
X627595Y521158D01*
X626750Y520774D01*
X625905Y521158D01*
X625030Y522034D01*
X623310Y523026D01*
X621393Y523540D01*
X619407D01*
X617490Y523026D01*
X615770Y522034D01*
X614895Y521158D01*
X614050Y520774D01*
X613205Y521158D01*
X612330Y522034D01*
X610610Y523026D01*
X608693Y523540D01*
X606707D01*
X604790Y523026D01*
X603810Y522461D01*
X602540Y523194D01*
Y523540D01*
X587460D01*
Y508460D01*
X602540D01*
Y508806D01*
X603810Y509539D01*
X604790Y508974D01*
X606707Y508460D01*
X608693D01*
X610610Y508974D01*
X612330Y509967D01*
X613205Y510842D01*
X614050Y511226D01*
X614895Y510842D01*
X615770Y509967D01*
X617490Y508974D01*
X619407Y508460D01*
X621393D01*
X623310Y508974D01*
X625030Y509967D01*
X625905Y510842D01*
X626750Y511226D01*
X627595Y510842D01*
X628470Y509967D01*
X630190Y508974D01*
X632107Y508460D01*
X634093D01*
X636010Y508974D01*
X637730Y509967D01*
X638605Y510842D01*
X639450Y511226D01*
X640295Y510842D01*
X641170Y509967D01*
X642890Y508974D01*
X644807Y508460D01*
X646793D01*
X648710Y508974D01*
X650430Y509967D01*
X651305Y510842D01*
X652150Y511226D01*
X652995Y510842D01*
X653870Y509967D01*
X655590Y508974D01*
X657507Y508460D01*
X659493D01*
X661410Y508974D01*
X663130Y509967D01*
X664005Y510842D01*
X664850Y511226D01*
X665695Y510842D01*
X666570Y509967D01*
X668290Y508974D01*
X670207Y508460D01*
X672193D01*
X674110Y508974D01*
X675830Y509967D01*
X676705Y510842D01*
X677550Y511226D01*
X678395Y510842D01*
X679270Y509967D01*
X680990Y508974D01*
X682907Y508460D01*
X684893D01*
X686810Y508974D01*
X688530Y509967D01*
X689405Y510842D01*
X690250Y511226D01*
X691095Y510842D01*
X691970Y509967D01*
X693690Y508974D01*
X695607Y508460D01*
X697593D01*
X699510Y508974D01*
X701230Y509967D01*
X702634Y511370D01*
X703626Y513090D01*
X704140Y515007D01*
Y516993D01*
X703724Y518546D01*
X705289Y520111D01*
X705991Y521161D01*
X706237Y522400D01*
Y538000D01*
X705991Y539239D01*
X705289Y540289D01*
X685247Y560332D01*
X685545Y561830D01*
X685994Y562016D01*
X686984Y563006D01*
X687520Y564300D01*
X688790Y565092D01*
X689016Y565006D01*
X690006Y564016D01*
X691300Y563480D01*
X692700D01*
X693994Y564016D01*
X694984Y565006D01*
X695872Y565275D01*
X696186Y565065D01*
X697425Y564819D01*
X697577D01*
X698260Y564536D01*
X699660D01*
X700954Y565072D01*
X701944Y566062D01*
X701975Y566137D01*
X702040Y566176D01*
X703433Y566339D01*
X704006Y565766D01*
X705300Y565230D01*
X706700D01*
X707994Y565766D01*
X708984Y566756D01*
X709520Y568050D01*
Y569450D01*
X709237Y570133D01*
Y570847D01*
X710293Y571553D01*
X710306Y571547D01*
X711706D01*
X712493Y571873D01*
X713763Y571187D01*
Y566383D01*
X713480Y565700D01*
Y564300D01*
X714016Y563006D01*
X715006Y562016D01*
X716300Y561480D01*
X717700D01*
X718994Y562016D01*
X719984Y563006D01*
X720520Y564300D01*
Y565700D01*
X720237Y566383D01*
Y577000D01*
X719991Y578239D01*
X719289Y579289D01*
X686789Y611789D01*
X685739Y612491D01*
X684500Y612737D01*
X680770D01*
Y616516D01*
X683420D01*
X683492Y616486D01*
X684892D01*
X686186Y617022D01*
X687176Y618012D01*
X687712Y619306D01*
Y620706D01*
X688337Y621642D01*
X703099D01*
X704585Y621937D01*
X705846Y622780D01*
X706688Y624040D01*
X706983Y625526D01*
X706688Y627013D01*
X705846Y628273D01*
X704585Y629115D01*
X703099Y629411D01*
X689483D01*
X689409Y629517D01*
X690035Y630840D01*
X691562Y630960D01*
X696033Y632034D01*
X700281Y633793D01*
X704201Y636196D01*
X707697Y639182D01*
X707686Y639193D01*
X749295Y680801D01*
X750176Y681683D01*
X751105Y682507D01*
X753326Y684330D01*
X756959Y686272D01*
X760800Y687438D01*
X770770D01*
Y695977D01*
X768885D01*
Y698000D01*
X768851Y698167D01*
X769289Y700366D01*
X770401Y702030D01*
X780720D01*
Y713970D01*
X769280D01*
Y710579D01*
X768035Y710063D01*
X765151Y707849D01*
X762937Y704965D01*
X761545Y701605D01*
X761071Y698000D01*
X761115D01*
Y695977D01*
X759230D01*
Y694947D01*
X756117Y694199D01*
X751949Y692473D01*
X748103Y690116D01*
X744673Y687186D01*
X744683Y687177D01*
X744683Y687176D01*
X702193Y644686D01*
X702094Y644539D01*
X698961Y641968D01*
X695232Y639975D01*
X691187Y638747D01*
X687152Y638350D01*
X686979Y638385D01*
X680770D01*
Y640615D01*
X686500D01*
X687987Y640911D01*
X689247Y641753D01*
X700747Y653253D01*
X701589Y654513D01*
X701885Y656000D01*
Y661000D01*
X701589Y662487D01*
X700747Y663747D01*
X699487Y664589D01*
X698000Y664885D01*
X696513Y664589D01*
X695253Y663747D01*
X694411Y662487D01*
X694115Y661000D01*
Y657609D01*
X691058Y654552D01*
X689885Y655038D01*
Y666934D01*
X699477Y676526D01*
X700319Y677786D01*
X700615Y679273D01*
Y688730D01*
X713474D01*
X707102Y695102D01*
X708000Y696000D01*
X707102Y696898D01*
X713474Y703270D01*
X706796D01*
X706148Y704540D01*
X706285Y704730D01*
X715270D01*
Y719270D01*
X698730D01*
Y710874D01*
X698655Y710859D01*
X697395Y710017D01*
X694540Y707162D01*
X693270Y707688D01*
Y717474D01*
X686898Y711102D01*
X685102Y712898D01*
X691474Y719270D01*
X678526D01*
X684898Y712898D01*
X684000Y712000D01*
X684898Y711102D01*
X678526Y704730D01*
X691514D01*
X692471Y703601D01*
X692418Y703265D01*
X691163Y702690D01*
X690666Y703022D01*
X689000Y703354D01*
X681000D01*
X679334Y703022D01*
X677922Y702078D01*
X676978Y700666D01*
X676646Y699000D01*
Y693000D01*
X676978Y691334D01*
X677922Y689921D01*
X678115Y689792D01*
Y677609D01*
X665753Y665247D01*
X664911Y663987D01*
X664615Y662500D01*
Y661770D01*
X656008D01*
X655521Y662943D01*
X660311Y667733D01*
X660994Y668016D01*
X661984Y669006D01*
X662520Y670300D01*
Y671700D01*
X661984Y672994D01*
X660994Y673984D01*
X659700Y674520D01*
X658300D01*
X657006Y673984D01*
X656016Y672994D01*
X655733Y672311D01*
X650644Y667222D01*
X649444Y667818D01*
X649209Y668997D01*
X648367Y670257D01*
X647405Y671219D01*
Y727607D01*
X647997Y728003D01*
X648609Y728919D01*
X648824Y730000D01*
Y736000D01*
X648609Y737081D01*
X647997Y737997D01*
X647081Y738609D01*
X646000Y738824D01*
D02*
G37*
G36*
X627297Y744040D02*
X607217D01*
Y725326D01*
X604585D01*
X603098Y725030D01*
X601838Y724188D01*
X598737Y721087D01*
X578202D01*
X576716Y720791D01*
X575455Y719949D01*
X544253Y688747D01*
X543411Y687487D01*
X543115Y686000D01*
Y654270D01*
X535730D01*
Y637730D01*
X556270D01*
Y654270D01*
X550885D01*
Y684391D01*
X579811Y713317D01*
X600346D01*
X601833Y713613D01*
X603093Y714455D01*
X606194Y717556D01*
X610011D01*
X611498Y717852D01*
X612758Y718694D01*
X616308Y722244D01*
X617150Y723504D01*
X617240Y723960D01*
X627297D01*
Y744040D01*
D02*
G37*
G36*
X746265Y658918D02*
X744865D01*
X743571Y658382D01*
X742581Y657392D01*
X742045Y656098D01*
Y654698D01*
X742581Y653404D01*
X743571Y652414D01*
X744734Y651932D01*
X744926Y651727D01*
X745377Y650608D01*
X745374Y650604D01*
X745128Y649365D01*
Y648540D01*
X736460D01*
Y633460D01*
X751540D01*
Y633806D01*
X752810Y634539D01*
X753790Y633974D01*
X755707Y633460D01*
X757693D01*
X759610Y633974D01*
X761330Y634967D01*
X762734Y636370D01*
X763726Y638090D01*
X764240Y640007D01*
Y641993D01*
X763726Y643910D01*
X762734Y645630D01*
X761330Y647033D01*
X759610Y648026D01*
X757693Y648540D01*
X755707D01*
X753790Y648026D01*
X752872Y647496D01*
X752864Y647500D01*
X752089Y648511D01*
X755289Y651711D01*
X755301Y651729D01*
X755994Y652016D01*
X756984Y653006D01*
X757520Y654300D01*
Y655700D01*
X756984Y656994D01*
X755994Y657984D01*
X754700Y658520D01*
X753300D01*
X752006Y657984D01*
X751016Y656994D01*
X750729Y656301D01*
X750711Y656289D01*
X750355Y655933D01*
X749860Y655997D01*
X748979Y656354D01*
X748549Y657392D01*
X747559Y658382D01*
X746265Y658918D01*
D02*
G37*
G36*
X782474Y620270D02*
X769526D01*
X776000Y613796D01*
X782474Y620270D01*
D02*
G37*
G36*
X535730Y624474D02*
Y611526D01*
X542204Y618000D01*
X535730Y624474D01*
D02*
G37*
G36*
X556270Y624474D02*
X549796Y618000D01*
X556270Y611526D01*
Y624474D01*
D02*
G37*
G36*
X784270Y618474D02*
X776898Y611102D01*
X776000Y612000D01*
X775102Y611102D01*
X767730Y618474D01*
Y601526D01*
X775102Y608898D01*
X776000Y608000D01*
X776898Y608898D01*
X784270Y601526D01*
Y618474D01*
D02*
G37*
G36*
X554474Y626270D02*
X537526D01*
X544898Y618898D01*
X544000Y618000D01*
X544898Y617102D01*
X537526Y609730D01*
X554474D01*
X547102Y617102D01*
X548000Y618000D01*
X547102Y618898D01*
X554474Y626270D01*
D02*
G37*
G36*
X776000Y606204D02*
X769526Y599730D01*
X782474D01*
X776000Y606204D01*
D02*
G37*
G36*
X808474Y579770D02*
X801526D01*
X805000Y576296D01*
X808474Y579770D01*
D02*
G37*
G36*
X789251Y576290D02*
X786749D01*
X784437Y575332D01*
X782668Y573563D01*
X781710Y571251D01*
Y568749D01*
X782668Y566437D01*
X784437Y564668D01*
X786749Y563710D01*
X789251D01*
X791563Y564668D01*
X793332Y566437D01*
X794290Y568749D01*
Y571251D01*
X793332Y573563D01*
X791563Y575332D01*
X789251Y576290D01*
D02*
G37*
G36*
X799730Y577974D02*
Y562026D01*
X804102Y566398D01*
X805000Y565500D01*
X805898Y566398D01*
X810270Y562026D01*
Y577974D01*
X805898Y573602D01*
X805000Y574500D01*
X804102Y573602D01*
X799730Y577974D01*
D02*
G37*
G36*
X805000Y563704D02*
X801526Y560230D01*
X808474D01*
X805000Y563704D01*
D02*
G37*
G36*
X579346Y560858D02*
X579176Y560000D01*
Y557000D01*
X579346Y556142D01*
X581704Y558500D01*
X579346Y560858D01*
D02*
G37*
G36*
X590654Y560858D02*
X588296Y558500D01*
X590654Y556142D01*
X590824Y557000D01*
Y560000D01*
X590654Y560858D01*
D02*
G37*
G36*
X588000Y562824D02*
X582000D01*
X581142Y562654D01*
X584398Y559398D01*
X583500Y558500D01*
X584398Y557602D01*
X581142Y554346D01*
X582000Y554176D01*
X588000D01*
X588858Y554346D01*
X585602Y557602D01*
X586500Y558500D01*
X585602Y559398D01*
X588858Y562654D01*
X588000Y562824D01*
D02*
G37*
G36*
X662446Y545858D02*
X660089Y543500D01*
X662446Y541142D01*
X662617Y542000D01*
Y545000D01*
X662446Y545858D01*
D02*
G37*
G36*
X651139Y545858D02*
X650968Y545000D01*
Y542000D01*
X651139Y541142D01*
X653497Y543500D01*
X651139Y545858D01*
D02*
G37*
G36*
X659793Y547824D02*
X653793D01*
X652935Y547654D01*
X656191Y544398D01*
X655293Y543500D01*
X656191Y542602D01*
X652935Y539346D01*
X653793Y539176D01*
X659793D01*
X660650Y539346D01*
X657395Y542602D01*
X658293Y543500D01*
X657395Y544398D01*
X660650Y547654D01*
X659793Y547824D01*
D02*
G37*
G36*
X621122Y539111D02*
X619722D01*
X618428Y538575D01*
X617438Y537584D01*
X616902Y536291D01*
Y534891D01*
X617438Y533597D01*
X618428Y532607D01*
X619722Y532071D01*
X621122D01*
X622416Y532607D01*
X623406Y533597D01*
X623942Y534891D01*
Y536291D01*
X623406Y537584D01*
X622416Y538575D01*
X621122Y539111D01*
D02*
G37*
G36*
X747000Y539885D02*
X745513Y539589D01*
X744253Y538747D01*
X743411Y537487D01*
X743115Y536000D01*
X743411Y534513D01*
X744253Y533253D01*
X750253Y527253D01*
X751513Y526411D01*
X753000Y526115D01*
X765730D01*
Y520230D01*
X776270D01*
Y539770D01*
X765730D01*
Y533885D01*
X754609D01*
X749747Y538747D01*
X748487Y539589D01*
X747000Y539885D01*
D02*
G37*
G36*
X968025Y523529D02*
X964496Y520000D01*
X968025Y516471D01*
X968970Y518753D01*
Y521247D01*
X968025Y523529D01*
D02*
G37*
%LPD*%
G36*
X632711Y571711D02*
X640179Y564243D01*
X641229Y563541D01*
X642468Y563295D01*
X649970D01*
X651023Y562770D01*
Y559724D01*
X650816Y559517D01*
X650136Y558500D01*
X636540D01*
Y559416D01*
X633494D01*
X627385Y565525D01*
Y571460D01*
X628655Y572295D01*
X629560Y572115D01*
X631047Y572411D01*
X631125Y572464D01*
X632009Y572761D01*
X632711Y571711D01*
D02*
G37*
G36*
X699763Y536659D02*
Y524129D01*
X698699Y523244D01*
X697593Y523540D01*
X695607D01*
X693690Y523026D01*
X691970Y522034D01*
X691095Y521158D01*
X690250Y520774D01*
X689405Y521158D01*
X688530Y522034D01*
X687137Y522837D01*
Y547489D01*
X688407Y548015D01*
X699763Y536659D01*
D02*
G37*
%LPC*%
G36*
X1343393Y744540D02*
X1341407D01*
X1339490Y744026D01*
X1337770Y743034D01*
X1336895Y742158D01*
X1336050Y741774D01*
X1335205Y742158D01*
X1334330Y743034D01*
X1332610Y744026D01*
X1330693Y744540D01*
X1328707D01*
X1326790Y744026D01*
X1325810Y743461D01*
X1324540Y744194D01*
Y744540D01*
X1309460D01*
Y729460D01*
X1317005D01*
X1317491Y728287D01*
X1311727Y722522D01*
X1310884Y721261D01*
X1310589Y719775D01*
Y718500D01*
X1307401Y715313D01*
X1306228Y715799D01*
Y719270D01*
X1305885D01*
Y722000D01*
X1305589Y723487D01*
X1304747Y724747D01*
X1303487Y725589D01*
X1302000Y725885D01*
X1300513Y725589D01*
X1299253Y724747D01*
X1298411Y723487D01*
X1298115Y722000D01*
Y719270D01*
X1294688D01*
Y710730D01*
X1301159D01*
X1301645Y709557D01*
X1299738Y707649D01*
X1298896Y706389D01*
X1298600Y704902D01*
Y704324D01*
X1297457D01*
X1296377Y704109D01*
X1295461Y703497D01*
X1294848Y702581D01*
X1294633Y701500D01*
Y698500D01*
X1294848Y697419D01*
X1295461Y696503D01*
X1296377Y695891D01*
X1297457Y695676D01*
X1300159D01*
X1300799Y694718D01*
X1300803Y694714D01*
X1300831Y694573D01*
X1301673Y693313D01*
X1301910Y693155D01*
X1301525Y691885D01*
X1293000D01*
X1291513Y691589D01*
X1290253Y690747D01*
X1286933Y687427D01*
X1286091Y686167D01*
X1285795Y684680D01*
Y681414D01*
X1283206Y678824D01*
X1283000D01*
X1281919Y678609D01*
X1281003Y677997D01*
X1280391Y677081D01*
X1280176Y676000D01*
Y670000D01*
X1280391Y668919D01*
X1281003Y668003D01*
X1281919Y667391D01*
X1283000Y667176D01*
X1283720D01*
X1288448Y662448D01*
X1289619Y661665D01*
X1291000Y661391D01*
X1304598D01*
X1305980Y661665D01*
X1306611Y662087D01*
X1307380Y661804D01*
X1307468Y660961D01*
X1305391Y658885D01*
X1271364D01*
X1269877Y658589D01*
X1268617Y657747D01*
X1268463Y657593D01*
X1267621Y656332D01*
X1267325Y654846D01*
X1267621Y653359D01*
X1268463Y652099D01*
X1269723Y651257D01*
X1271210Y650961D01*
X1271984Y651115D01*
X1296812D01*
X1297298Y649942D01*
X1278241Y630885D01*
X1275965D01*
X1274479Y630589D01*
X1273219Y629747D01*
X1272376Y628487D01*
X1272081Y627000D01*
X1272376Y625513D01*
X1273219Y624253D01*
X1274479Y623411D01*
X1275965Y623115D01*
X1279850D01*
X1281337Y623411D01*
X1282597Y624253D01*
X1288611Y630267D01*
X1289881Y629741D01*
Y612149D01*
X1290194Y610572D01*
X1291087Y609236D01*
X1292424Y608343D01*
X1294000Y608029D01*
X1295576Y608343D01*
X1296913Y609236D01*
X1297806Y610572D01*
X1298119Y612149D01*
Y629294D01*
X1299587Y630762D01*
X1301609D01*
X1302095Y629588D01*
X1301253Y628747D01*
X1300411Y627487D01*
X1300115Y626000D01*
Y600592D01*
X1292902D01*
X1275747Y617747D01*
X1274487Y618589D01*
X1273000Y618885D01*
X1250000D01*
X1248513Y618589D01*
X1247253Y617747D01*
X1235253Y605747D01*
X1234411Y604487D01*
X1234115Y603000D01*
Y558750D01*
X1234411Y557263D01*
X1235253Y556003D01*
X1236115Y555141D01*
Y544721D01*
X1234845Y544336D01*
X1234560Y544764D01*
X1231296Y541500D01*
X1234559Y538236D01*
X1234818Y538623D01*
X1236211Y538903D01*
X1236388Y538861D01*
X1236730Y538525D01*
Y533480D01*
X1267474D01*
X1265102Y535852D01*
X1266898Y537648D01*
X1269270Y535276D01*
Y540480D01*
X1270540Y540606D01*
X1270829Y539151D01*
X1271441Y538237D01*
X1274704Y541500D01*
X1271440Y544763D01*
X1270829Y543849D01*
X1270540Y542394D01*
X1269270Y542519D01*
Y547724D01*
X1266898Y545352D01*
X1265102Y547148D01*
X1267474Y549520D01*
X1263737D01*
Y575829D01*
X1263997Y576003D01*
X1264609Y576919D01*
X1264824Y578000D01*
Y584000D01*
X1264609Y585081D01*
X1263997Y585997D01*
X1263081Y586609D01*
X1262000Y586824D01*
X1259000D01*
X1257919Y586609D01*
X1257533Y586352D01*
X1256599Y586269D01*
X1255950Y586704D01*
X1255928Y586737D01*
X1255788Y587075D01*
X1254798Y588065D01*
X1253504Y588601D01*
X1252104D01*
X1250810Y588065D01*
X1250095Y587351D01*
X1249321Y587154D01*
X1248529Y587279D01*
X1248519Y587289D01*
X1248303Y587434D01*
X1247758Y587978D01*
X1246464Y588514D01*
X1245064D01*
X1243770Y587978D01*
X1243155Y587363D01*
X1241885Y587889D01*
Y601391D01*
X1251144Y610651D01*
X1251487Y610719D01*
X1252080Y611115D01*
X1271391D01*
X1288546Y593961D01*
X1289806Y593119D01*
X1291293Y592823D01*
X1304000D01*
X1305487Y593119D01*
X1306747Y593961D01*
X1307589Y595221D01*
X1307885Y596707D01*
Y624391D01*
X1310103Y626609D01*
X1331494D01*
X1332980Y626904D01*
X1334240Y627747D01*
X1336889Y630395D01*
X1336889Y630395D01*
X1337884Y631391D01*
X1338828D01*
X1339338Y630973D01*
Y614575D01*
X1339584Y613336D01*
X1340286Y612286D01*
X1341861Y610711D01*
X1342911Y610009D01*
X1344150Y609763D01*
X1346230D01*
Y603026D01*
X1349602Y606398D01*
X1351398Y604602D01*
X1348026Y601230D01*
X1351552D01*
X1351641Y600783D01*
X1352115Y600074D01*
Y594000D01*
X1352411Y592513D01*
X1353253Y591253D01*
X1354513Y590411D01*
X1356000Y590115D01*
X1357487Y590411D01*
X1358747Y591253D01*
X1359589Y592513D01*
X1359885Y594000D01*
Y601500D01*
X1359589Y602987D01*
X1359115Y603696D01*
Y603770D01*
X1358819Y605257D01*
X1357977Y606517D01*
X1357770Y606724D01*
Y609763D01*
X1363000D01*
X1364239Y610009D01*
X1365289Y610711D01*
X1369288Y614711D01*
X1369990Y615761D01*
X1370009Y615855D01*
X1370520Y617087D01*
Y618488D01*
X1369984Y619781D01*
X1368993Y620772D01*
X1367700Y621307D01*
X1366299D01*
X1365006Y620772D01*
X1364015Y619781D01*
X1363479Y618488D01*
Y618058D01*
X1361659Y616237D01*
X1357963D01*
X1357334Y617507D01*
X1357609Y617919D01*
X1357824Y619000D01*
Y622000D01*
X1357609Y623081D01*
X1356997Y623997D01*
X1356416Y625186D01*
X1356662Y626425D01*
Y634247D01*
X1356416Y635486D01*
X1355714Y636536D01*
X1355237Y637013D01*
Y641750D01*
X1354991Y642989D01*
X1354289Y644039D01*
X1354270Y644052D01*
Y646730D01*
X1356017D01*
X1356259Y645511D01*
X1356961Y644461D01*
X1362467Y638955D01*
X1363517Y638253D01*
X1364756Y638007D01*
X1365415D01*
X1376176Y627246D01*
Y625000D01*
X1376391Y623919D01*
X1377003Y623003D01*
X1377919Y622391D01*
X1379000Y622176D01*
X1382000D01*
X1383081Y622391D01*
X1383997Y623003D01*
X1384609Y623919D01*
X1384824Y625000D01*
Y631000D01*
X1384783Y631205D01*
X1388452Y634874D01*
X1389154Y635924D01*
X1389400Y637163D01*
Y686287D01*
X1389683Y686970D01*
Y688370D01*
X1389598Y688575D01*
X1390446Y689845D01*
X1422805D01*
X1423966Y687835D01*
X1425835Y685966D01*
X1428125Y684644D01*
X1430678Y683960D01*
X1433322D01*
X1435875Y684644D01*
X1438165Y685966D01*
X1440034Y687835D01*
X1441356Y690125D01*
X1442040Y692678D01*
Y695322D01*
X1441356Y697875D01*
X1440034Y700165D01*
X1438165Y702034D01*
X1435875Y703356D01*
X1433322Y704040D01*
X1430678D01*
X1428125Y703356D01*
X1425835Y702034D01*
X1423966Y700165D01*
X1422644Y697875D01*
X1422574Y697615D01*
X1382879D01*
X1381018Y699476D01*
X1381512Y700778D01*
X1382081Y700891D01*
X1382997Y701503D01*
X1383609Y702419D01*
X1383824Y703500D01*
Y706500D01*
X1383609Y707581D01*
X1382997Y708497D01*
X1382081Y709109D01*
X1381000Y709324D01*
X1378548D01*
X1377315Y709570D01*
X1371864D01*
X1371745Y709649D01*
X1370258Y709945D01*
X1368772Y709649D01*
X1367512Y708807D01*
X1367373Y708600D01*
X1366103D01*
X1365965Y708807D01*
X1364705Y709649D01*
X1363218Y709945D01*
X1361804Y709663D01*
X1356796D01*
X1356000Y709822D01*
X1350000D01*
X1348919Y709607D01*
X1348003Y708995D01*
X1347391Y708078D01*
X1347176Y706998D01*
Y703997D01*
X1346449Y703112D01*
X1345583D01*
X1344870Y703589D01*
X1343383Y703885D01*
X1332103D01*
Y704270D01*
X1320562D01*
Y699803D01*
X1319292Y699157D01*
X1318557Y699649D01*
X1317070Y699945D01*
X1316540D01*
X1315635Y699765D01*
X1314365Y700600D01*
Y705901D01*
X1320090Y711626D01*
X1321335Y711503D01*
X1322252Y710891D01*
X1323333Y710676D01*
X1329332D01*
X1330413Y710891D01*
X1331329Y711503D01*
X1331492Y711746D01*
X1332631D01*
X1334117Y712042D01*
X1335378Y712884D01*
X1343385Y720891D01*
X1344112Y721036D01*
X1345372Y721878D01*
X1345747Y722253D01*
X1345960Y722572D01*
X1347230Y722187D01*
Y718024D01*
X1350602Y721395D01*
X1352398Y719600D01*
X1349026Y716227D01*
X1356974D01*
X1353602Y719600D01*
X1354500Y720498D01*
X1353602Y721395D01*
X1356974Y724768D01*
X1348127D01*
X1347141Y724952D01*
X1346720Y725826D01*
X1346589Y726487D01*
X1345747Y727747D01*
X1344648Y728481D01*
X1344601Y729127D01*
X1344750Y729824D01*
X1345310Y729974D01*
X1347030Y730966D01*
X1348434Y732370D01*
X1349426Y734090D01*
X1349940Y736007D01*
Y737993D01*
X1349426Y739910D01*
X1348434Y741630D01*
X1347030Y743034D01*
X1345310Y744026D01*
X1343393Y744540D01*
D02*
G37*
G36*
X1122700Y738520D02*
X1121300D01*
X1120006Y737984D01*
X1119016Y736994D01*
X1118480Y735700D01*
Y734300D01*
X1119016Y733006D01*
X1120006Y732016D01*
X1121300Y731480D01*
X1122700D01*
X1123994Y732016D01*
X1124984Y733006D01*
X1125520Y734300D01*
Y735700D01*
X1124984Y736994D01*
X1123994Y737984D01*
X1122700Y738520D01*
D02*
G37*
G36*
X1055270Y743474D02*
X1048296Y736500D01*
X1055270Y729526D01*
Y743474D01*
D02*
G37*
G36*
X1018730Y743474D02*
Y729526D01*
X1025704Y736500D01*
X1018730Y743474D01*
D02*
G37*
G36*
X1053474Y745270D02*
X1020526D01*
X1028398Y737398D01*
X1027500Y736500D01*
X1028398Y735602D01*
X1020526Y727730D01*
X1053474D01*
X1045602Y735602D01*
X1046500Y736500D01*
X1045602Y737398D01*
X1053474Y745270D01*
D02*
G37*
G36*
X1438974Y728170D02*
X1425026D01*
X1432000Y721196D01*
X1438974Y728170D01*
D02*
G37*
G36*
X1358770Y722971D02*
X1356296Y720498D01*
X1358770Y718024D01*
Y722971D01*
D02*
G37*
G36*
X1372230Y722474D02*
Y717526D01*
X1374704Y720000D01*
X1372230Y722474D01*
D02*
G37*
G36*
X1383770Y722474D02*
X1381296Y720000D01*
X1383770Y717526D01*
Y722474D01*
D02*
G37*
G36*
X1381974Y724270D02*
X1374026D01*
X1377398Y720898D01*
X1376500Y720000D01*
X1377398Y719102D01*
X1374026Y715730D01*
X1381974D01*
X1378602Y719102D01*
X1379500Y720000D01*
X1378602Y720898D01*
X1381974Y724270D01*
D02*
G37*
G36*
X1423230Y726374D02*
Y712426D01*
X1430204Y719400D01*
X1423230Y726374D01*
D02*
G37*
G36*
X1440770Y726374D02*
X1433796Y719400D01*
X1440770Y712426D01*
Y726374D01*
D02*
G37*
G36*
X1432000Y717604D02*
X1425026Y710630D01*
X1438974D01*
X1432000Y717604D01*
D02*
G37*
G36*
X1197474Y716270D02*
X1184526D01*
X1191000Y709796D01*
X1197474Y716270D01*
D02*
G37*
G36*
X1199270Y714474D02*
X1191898Y707102D01*
X1191000Y708000D01*
X1190102Y707102D01*
X1182730Y714474D01*
Y697526D01*
X1190102Y704898D01*
X1191000Y704000D01*
X1191898Y704898D01*
X1199270Y697526D01*
Y714474D01*
D02*
G37*
G36*
X1113270Y719270D02*
X1075730D01*
Y706730D01*
X1113270D01*
Y709077D01*
X1131038D01*
X1132525Y709373D01*
X1133785Y710215D01*
X1134627Y711475D01*
X1134923Y712962D01*
X1134627Y714448D01*
X1133785Y715708D01*
X1132525Y716551D01*
X1131038Y716846D01*
X1113270D01*
Y719270D01*
D02*
G37*
G36*
X1123700Y706520D02*
X1122300D01*
X1121006Y705984D01*
X1120016Y704994D01*
X1119480Y703700D01*
Y702300D01*
X1120016Y701006D01*
X1121006Y700016D01*
X1122300Y699480D01*
X1123700D01*
X1124994Y700016D01*
X1125984Y701006D01*
X1126520Y702300D01*
Y703700D01*
X1125984Y704994D01*
X1124994Y705984D01*
X1123700Y706520D01*
D02*
G37*
G36*
X1191000Y702204D02*
X1184526Y695730D01*
X1197474D01*
X1191000Y702204D01*
D02*
G37*
G36*
X1113270Y697474D02*
X1108796Y693000D01*
X1113270Y688526D01*
Y697474D01*
D02*
G37*
G36*
X1075730Y697474D02*
Y688526D01*
X1080204Y693000D01*
X1075730Y697474D01*
D02*
G37*
G36*
X1111474Y699270D02*
X1077526D01*
X1082898Y693898D01*
X1082000Y693000D01*
X1082898Y692102D01*
X1077526Y686730D01*
X1111474D01*
X1106102Y692102D01*
X1107000Y693000D01*
X1106102Y693898D01*
X1111474Y699270D01*
D02*
G37*
G36*
X1130695Y691515D02*
X1129295D01*
X1128001Y690979D01*
X1127011Y689989D01*
X1126475Y688695D01*
Y687295D01*
X1127011Y686001D01*
X1128001Y685011D01*
X1129295Y684475D01*
X1130695D01*
X1131989Y685011D01*
X1132979Y686001D01*
X1133515Y687295D01*
Y688695D01*
X1132979Y689989D01*
X1131989Y690979D01*
X1130695Y691515D01*
D02*
G37*
G36*
X1396999Y685013D02*
X1393999D01*
X1393141Y684843D01*
X1395499Y682485D01*
X1397857Y684843D01*
X1396999Y685013D01*
D02*
G37*
G36*
X1227270Y716270D02*
X1210730D01*
Y695730D01*
X1221776D01*
X1221983Y695523D01*
X1223115Y694767D01*
Y679028D01*
X1221845Y678349D01*
X1221487Y678589D01*
X1220000Y678885D01*
X1218513Y678589D01*
X1217253Y677747D01*
X1216411Y676487D01*
X1216115Y675000D01*
Y664770D01*
X1199230D01*
Y653230D01*
X1220507D01*
X1220993Y652057D01*
X1217043Y648107D01*
X1216201Y646847D01*
X1215905Y645360D01*
X1216201Y643874D01*
X1217043Y642613D01*
X1218303Y641771D01*
X1219790Y641476D01*
X1221277Y641771D01*
X1221845Y642151D01*
X1223115Y641472D01*
Y639897D01*
X1222770Y638770D01*
X1199230D01*
Y627230D01*
X1213535D01*
Y620925D01*
X1213716Y620020D01*
X1212880Y618750D01*
X1186158D01*
X1181098Y623809D01*
X1179837Y624651D01*
X1178351Y624947D01*
X1142969D01*
X1141482Y624651D01*
X1140222Y623809D01*
X1129590Y613177D01*
X1106795D01*
X1105805Y614292D01*
Y617293D01*
X1105667Y617983D01*
X1105276Y618569D01*
X1104691Y618960D01*
X1104000Y619097D01*
X1100412D01*
X1099986Y619381D01*
X1098500Y619677D01*
X1081842D01*
X1080356Y619381D01*
X1079096Y618539D01*
X1078254Y617279D01*
X1077958Y615793D01*
X1078254Y614306D01*
X1079096Y613046D01*
X1080356Y612204D01*
X1081842Y611908D01*
X1090205D01*
X1091195Y610793D01*
Y607793D01*
X1090205Y606677D01*
X1082029D01*
X1080542Y606381D01*
X1080312Y606228D01*
X1074698D01*
X1073212Y605932D01*
X1071952Y605090D01*
X1071109Y603830D01*
X1070814Y602343D01*
X1071050Y601155D01*
X1070348Y599885D01*
X1052302D01*
X1052000Y599945D01*
X1050513Y599649D01*
X1049253Y598807D01*
X1049155Y598660D01*
X1047885Y599045D01*
Y601391D01*
X1048609Y602115D01*
X1051000D01*
X1052487Y602411D01*
X1053747Y603253D01*
X1054589Y604513D01*
X1054885Y606000D01*
X1054589Y607487D01*
X1053747Y608747D01*
X1052487Y609589D01*
X1051000Y609885D01*
X1047000D01*
X1045513Y609589D01*
X1044253Y608747D01*
X1041253Y605747D01*
X1040411Y604487D01*
X1040115Y603000D01*
Y595490D01*
X1040411Y594003D01*
X1041253Y592743D01*
X1046951Y587046D01*
X1048211Y586203D01*
X1049697Y585908D01*
X1080111D01*
X1080579Y585032D01*
X1080676Y584638D01*
X1080408Y583293D01*
X1080704Y581806D01*
X1081546Y580546D01*
X1082806Y579704D01*
X1084293Y579408D01*
X1090205D01*
X1091195Y578292D01*
Y575293D01*
X1091333Y574602D01*
X1091724Y574016D01*
X1091724Y573069D01*
X1091333Y572483D01*
X1091195Y571792D01*
Y568792D01*
X1091333Y568102D01*
X1091724Y567516D01*
X1091724Y566568D01*
X1091333Y565983D01*
X1091195Y565293D01*
Y562293D01*
X1091333Y561602D01*
X1091724Y561016D01*
X1091724Y560069D01*
X1091333Y559483D01*
X1091195Y558792D01*
Y555793D01*
X1091333Y555102D01*
X1091724Y554516D01*
X1092309Y554125D01*
X1093000Y553988D01*
X1096588D01*
X1097013Y553703D01*
X1098500Y553408D01*
X1111980D01*
X1112232Y552138D01*
X1112006Y552044D01*
X1111016Y551054D01*
X1110480Y549760D01*
Y548360D01*
X1111016Y547066D01*
X1112006Y546076D01*
X1113300Y545540D01*
X1114700D01*
X1115994Y546076D01*
X1116984Y547066D01*
X1117520Y548360D01*
Y549760D01*
X1116984Y551054D01*
X1115994Y552044D01*
X1115768Y552138D01*
X1116020Y553408D01*
X1118220D01*
X1119706Y553703D01*
X1120966Y554546D01*
X1122454Y556034D01*
X1123297Y557294D01*
X1123592Y558780D01*
Y564716D01*
X1124862Y565565D01*
X1125067Y565480D01*
X1126468D01*
X1127761Y566016D01*
X1128752Y567006D01*
X1129287Y568300D01*
Y569700D01*
X1128752Y570994D01*
X1127761Y571984D01*
X1127661Y572026D01*
X1126237Y573449D01*
Y588659D01*
X1141372Y603794D01*
X1142355Y603223D01*
X1142480Y603106D01*
Y601750D01*
X1143016Y600456D01*
X1144006Y599466D01*
X1145300Y598930D01*
X1146700D01*
X1147272Y599167D01*
X1147706Y598887D01*
X1148184Y598320D01*
X1148259Y598114D01*
X1148195Y597793D01*
Y594793D01*
X1148333Y594102D01*
X1148724Y593516D01*
Y592569D01*
X1148333Y591983D01*
X1148195Y591292D01*
Y588293D01*
X1148333Y587602D01*
X1148724Y587016D01*
Y586069D01*
X1148333Y585483D01*
X1148195Y584793D01*
Y581792D01*
X1148333Y581102D01*
X1148724Y580516D01*
Y579568D01*
X1148333Y578983D01*
X1148195Y578293D01*
Y575293D01*
X1148333Y574602D01*
X1148724Y574016D01*
X1148724Y573069D01*
X1148333Y572483D01*
X1148195Y571792D01*
Y568792D01*
X1148333Y568102D01*
X1148724Y567516D01*
X1148724Y566568D01*
X1148333Y565983D01*
X1148195Y565293D01*
Y562293D01*
X1148333Y561602D01*
X1148724Y561016D01*
X1148724Y560069D01*
X1148333Y559483D01*
X1148195Y558792D01*
Y555793D01*
X1148197Y555785D01*
X1150602Y558190D01*
X1152398Y556395D01*
X1149993Y553989D01*
X1150000Y553988D01*
X1161000D01*
X1161007Y553989D01*
X1158602Y556395D01*
X1160398Y558190D01*
X1162803Y555785D01*
X1162805Y555793D01*
Y558792D01*
X1162737Y559131D01*
X1162789Y559288D01*
X1163296Y559888D01*
X1163728Y560166D01*
X1164214Y559965D01*
X1165614D01*
X1166908Y560501D01*
X1167898Y561491D01*
X1168434Y562785D01*
Y564185D01*
X1167898Y565479D01*
X1167778Y565599D01*
X1168110Y567063D01*
X1168701Y567308D01*
X1169692Y568299D01*
X1170228Y569592D01*
Y570993D01*
X1169692Y572286D01*
X1168701Y573277D01*
X1168409Y573398D01*
X1168111Y574896D01*
X1168442Y575227D01*
X1168978Y576520D01*
Y577921D01*
X1168680Y578639D01*
X1169406Y579909D01*
X1173264D01*
X1174300Y579480D01*
X1175700D01*
X1176994Y580016D01*
X1177906Y580928D01*
X1178285Y580895D01*
X1179176Y580564D01*
Y575750D01*
X1179249Y575379D01*
Y573686D01*
X1178136Y572572D01*
X1177434Y571522D01*
X1177383Y571262D01*
X1176905Y570109D01*
Y568709D01*
X1177441Y567415D01*
X1178431Y566425D01*
X1179725Y565889D01*
X1181125D01*
X1182419Y566425D01*
X1183409Y567415D01*
X1183945Y568709D01*
Y569225D01*
X1184776Y570056D01*
X1185478Y571106D01*
X1185724Y572345D01*
Y573070D01*
X1186081Y573141D01*
X1186997Y573753D01*
X1187609Y574669D01*
X1187824Y575750D01*
Y581750D01*
X1187609Y582831D01*
X1186997Y583747D01*
X1186081Y584359D01*
X1185000Y584574D01*
X1182000D01*
X1180919Y584359D01*
X1180003Y583747D01*
X1179790Y583428D01*
X1178826Y583635D01*
X1178491Y583770D01*
X1177984Y584994D01*
X1177238Y585740D01*
X1177141Y586630D01*
X1177279Y587240D01*
X1178084Y588045D01*
X1178620Y589339D01*
Y590739D01*
X1178084Y592033D01*
X1177094Y593023D01*
X1176411Y593306D01*
X1171136Y598582D01*
X1170086Y599283D01*
X1168847Y599530D01*
X1163478D01*
X1163001Y600161D01*
X1162707Y600800D01*
X1162805Y601292D01*
Y604292D01*
X1162667Y604983D01*
X1162276Y605569D01*
X1162276Y606516D01*
X1162667Y607102D01*
X1162805Y607793D01*
Y610793D01*
X1162667Y611483D01*
X1162276Y612069D01*
X1162276Y613016D01*
X1162667Y613602D01*
X1162805Y614292D01*
Y617178D01*
X1176742D01*
X1181802Y612118D01*
X1182896Y611387D01*
X1182885Y610733D01*
X1182685Y610117D01*
X1182000D01*
X1180919Y609902D01*
X1180003Y609290D01*
X1179416Y608411D01*
X1178112D01*
X1177429Y608694D01*
X1176029D01*
X1174735Y608158D01*
X1173745Y607168D01*
X1173209Y605874D01*
Y604474D01*
X1173745Y603180D01*
X1174735Y602190D01*
X1176029Y601654D01*
X1177429D01*
X1177906Y601852D01*
X1179176Y601342D01*
Y601293D01*
X1179391Y600212D01*
X1180003Y599296D01*
X1180919Y598683D01*
X1182000Y598468D01*
X1185000D01*
X1186081Y598683D01*
X1186997Y599296D01*
X1187609Y600212D01*
X1187824Y601293D01*
Y607293D01*
X1187609Y608373D01*
X1186997Y609290D01*
X1186367Y609710D01*
X1186674Y610980D01*
X1193380D01*
X1194230Y610062D01*
Y598523D01*
X1194615D01*
Y584520D01*
X1194230D01*
Y572980D01*
X1196235D01*
Y569859D01*
X1194965Y569010D01*
X1194760Y569095D01*
X1193360D01*
X1192066Y568559D01*
X1191076Y567569D01*
X1190540Y566275D01*
Y564875D01*
X1191076Y563581D01*
X1192066Y562591D01*
X1193360Y562055D01*
X1194760D01*
X1194965Y562140D01*
X1196235Y561291D01*
Y558063D01*
X1194230D01*
Y546523D01*
X1202770D01*
Y551069D01*
X1202867Y551166D01*
X1203709Y552426D01*
X1204005Y553913D01*
Y577130D01*
X1203709Y578617D01*
X1202867Y579877D01*
X1202770Y579974D01*
Y584520D01*
X1202385D01*
Y598523D01*
X1202770D01*
Y610062D01*
X1203621Y610980D01*
X1219930D01*
X1221417Y611276D01*
X1222677Y612118D01*
X1229747Y619188D01*
X1230589Y620448D01*
X1230885Y621935D01*
Y642391D01*
X1235287Y646793D01*
X1236460Y646307D01*
Y633460D01*
X1251540D01*
Y633806D01*
X1252810Y634539D01*
X1253790Y633974D01*
X1255707Y633460D01*
X1257693D01*
X1259610Y633974D01*
X1261330Y634967D01*
X1262734Y636370D01*
X1263726Y638090D01*
X1264240Y640007D01*
Y641993D01*
X1263726Y643910D01*
X1262734Y645630D01*
X1261330Y647033D01*
X1259610Y648026D01*
X1257693Y648540D01*
X1255707D01*
X1253790Y648026D01*
X1252810Y647461D01*
X1251540Y648194D01*
Y648540D01*
X1238693D01*
X1238207Y649713D01*
X1271247Y682753D01*
X1272089Y684013D01*
X1272385Y685500D01*
Y703500D01*
X1272089Y704987D01*
X1271247Y706247D01*
X1269987Y707089D01*
X1268500Y707385D01*
X1267013Y707089D01*
X1265753Y706247D01*
X1264911Y704987D01*
X1264615Y703500D01*
Y687109D01*
X1232058Y654552D01*
X1230885Y655038D01*
Y696782D01*
X1230589Y698269D01*
X1229747Y699529D01*
X1228259Y701017D01*
X1227270Y701678D01*
Y716270D01*
D02*
G37*
G36*
X1391346Y683047D02*
X1391175Y682189D01*
Y676189D01*
X1391346Y675331D01*
X1394601Y678587D01*
X1395499Y677689D01*
X1396397Y678587D01*
X1399653Y675331D01*
X1399823Y676189D01*
Y682189D01*
X1399653Y683047D01*
X1396397Y679791D01*
X1395499Y680689D01*
X1394601Y679791D01*
X1391346Y683047D01*
D02*
G37*
G36*
X1395499Y675893D02*
X1393141Y673535D01*
X1393999Y673365D01*
X1396999D01*
X1397857Y673535D01*
X1395499Y675893D01*
D02*
G37*
G36*
X1055270Y676474D02*
X1048296Y669500D01*
X1055270Y662526D01*
Y676474D01*
D02*
G37*
G36*
X1018730Y676474D02*
Y662526D01*
X1025704Y669500D01*
X1018730Y676474D01*
D02*
G37*
G36*
X1053474Y678270D02*
X1020526D01*
X1028398Y670398D01*
X1027500Y669500D01*
X1028398Y668602D01*
X1020526Y660730D01*
X1053474D01*
X1045602Y668602D01*
X1046500Y669500D01*
X1045602Y670398D01*
X1053474Y678270D01*
D02*
G37*
G36*
X1397000Y659367D02*
X1394000D01*
X1393142Y659196D01*
X1395500Y656839D01*
X1397858Y659196D01*
X1397000Y659367D01*
D02*
G37*
G36*
X1391346Y657400D02*
X1391176Y656543D01*
Y650543D01*
X1391346Y649685D01*
X1394602Y652941D01*
X1395500Y652042D01*
X1396398Y652941D01*
X1399654Y649685D01*
X1399824Y650543D01*
Y656543D01*
X1399654Y657400D01*
X1396398Y654145D01*
X1395500Y655042D01*
X1394602Y654145D01*
X1391346Y657400D01*
D02*
G37*
G36*
X1395500Y650247D02*
X1393142Y647889D01*
X1394000Y647718D01*
X1397000D01*
X1397858Y647889D01*
X1395500Y650247D01*
D02*
G37*
G36*
X1459000Y656367D02*
X1453000D01*
X1451919Y656152D01*
X1451003Y655540D01*
X1450391Y654623D01*
X1450176Y653543D01*
Y650543D01*
X1450391Y649462D01*
X1451003Y648546D01*
X1451919Y647933D01*
X1452763Y647766D01*
Y646383D01*
X1452480Y645700D01*
Y644300D01*
X1453016Y643006D01*
X1454006Y642016D01*
X1455300Y641480D01*
X1456700D01*
X1457994Y642016D01*
X1458984Y643006D01*
X1459520Y644300D01*
Y645700D01*
X1459237Y646383D01*
Y647766D01*
X1460081Y647933D01*
X1460997Y648546D01*
X1461609Y649462D01*
X1461824Y650543D01*
Y653543D01*
X1461609Y654623D01*
X1460997Y655540D01*
X1460081Y656152D01*
X1459000Y656367D01*
D02*
G37*
G36*
X1447543Y625824D02*
X1444543D01*
X1443685Y625654D01*
X1446042Y623296D01*
X1448400Y625654D01*
X1447543Y625824D01*
D02*
G37*
G36*
X1076053Y628167D02*
X1074653D01*
X1073359Y627631D01*
X1072369Y626641D01*
X1071833Y625347D01*
Y623947D01*
X1072369Y622653D01*
X1073359Y621663D01*
X1074653Y621127D01*
X1076053D01*
X1077347Y621663D01*
X1078337Y622653D01*
X1078873Y623947D01*
Y625347D01*
X1078337Y626641D01*
X1077347Y627631D01*
X1076053Y628167D01*
D02*
G37*
G36*
X1441889Y623858D02*
X1441718Y623000D01*
Y617000D01*
X1441889Y616142D01*
X1445145Y619398D01*
X1446042Y618500D01*
X1446941Y619398D01*
X1450196Y616142D01*
X1450367Y617000D01*
Y623000D01*
X1450196Y623858D01*
X1446941Y620602D01*
X1446042Y621500D01*
X1445145Y620602D01*
X1441889Y623858D01*
D02*
G37*
G36*
X1325198Y622023D02*
X1323797D01*
X1322504Y621487D01*
X1321513Y620496D01*
X1320977Y619203D01*
Y617802D01*
X1321513Y616509D01*
X1322504Y615518D01*
X1323797Y614982D01*
X1325198D01*
X1326491Y615518D01*
X1327482Y616509D01*
X1328017Y617802D01*
Y619203D01*
X1327482Y620496D01*
X1326491Y621487D01*
X1325198Y622023D01*
D02*
G37*
G36*
X1446042Y616704D02*
X1443685Y614346D01*
X1444543Y614176D01*
X1447543D01*
X1448400Y614346D01*
X1446042Y616704D01*
D02*
G37*
G36*
X1425500Y598204D02*
X1419526Y592230D01*
X1431474D01*
X1425500Y598204D01*
D02*
G37*
G36*
X1277974Y586770D02*
X1273026D01*
X1275500Y584296D01*
X1277974Y586770D01*
D02*
G37*
G36*
X1399770Y633770D02*
X1391230D01*
Y631065D01*
X1390753Y630747D01*
X1390253Y630247D01*
X1389411Y628987D01*
X1389115Y627500D01*
Y616000D01*
X1389411Y614513D01*
X1390253Y613253D01*
X1391513Y612411D01*
X1393000Y612115D01*
X1394487Y612411D01*
X1395747Y613253D01*
X1396589Y614513D01*
X1396885Y616000D01*
Y622230D01*
X1399770D01*
Y624254D01*
X1401040Y624780D01*
X1401296Y624524D01*
X1402590Y623988D01*
X1402825D01*
X1403200Y622900D01*
X1403234Y622718D01*
X1402411Y621487D01*
X1402115Y620000D01*
Y609770D01*
X1398730D01*
Y592230D01*
X1414270D01*
Y609770D01*
X1409885D01*
Y620000D01*
X1409589Y621487D01*
X1408747Y622747D01*
X1408367Y623001D01*
X1408752Y624271D01*
X1419151D01*
X1432382Y611040D01*
X1431856Y609770D01*
X1419526D01*
X1426398Y602898D01*
X1424602Y601102D01*
X1417730Y607974D01*
Y594026D01*
X1424602Y600898D01*
X1425500Y600000D01*
X1426398Y600898D01*
X1433270Y594026D01*
Y608356D01*
X1434540Y608882D01*
X1444288Y599134D01*
X1444411Y598513D01*
X1444490Y598395D01*
Y591323D01*
X1444003Y590997D01*
X1443391Y590081D01*
X1443176Y589000D01*
Y586000D01*
X1443391Y584919D01*
X1444003Y584003D01*
X1444919Y583391D01*
X1446000Y583176D01*
X1452000D01*
X1453081Y583391D01*
X1453997Y584003D01*
X1454609Y584919D01*
X1454824Y586000D01*
Y589000D01*
X1454609Y590081D01*
X1453997Y590997D01*
X1453081Y591609D01*
X1452260Y591773D01*
Y599625D01*
X1451964Y601111D01*
X1451122Y602372D01*
X1450747Y602747D01*
X1449487Y603589D01*
X1448866Y603713D01*
X1422781Y629797D01*
X1421731Y630499D01*
X1420492Y630745D01*
X1404673D01*
X1403990Y631028D01*
X1402590D01*
X1401296Y630492D01*
X1401040Y630236D01*
X1399770Y630762D01*
Y633770D01*
D02*
G37*
G36*
X1271230Y584974D02*
Y577026D01*
X1274602Y580398D01*
X1275500Y579500D01*
X1276398Y580398D01*
X1279770Y577026D01*
Y584974D01*
X1276398Y581602D01*
X1275500Y582500D01*
X1274602Y581602D01*
X1271230Y584974D01*
D02*
G37*
G36*
X1461770Y671313D02*
X1450230D01*
Y662773D01*
X1461770D01*
X1461770Y662773D01*
Y662773D01*
X1462958Y662464D01*
X1463763Y661659D01*
Y636341D01*
X1458689Y631267D01*
X1458006Y630984D01*
X1457016Y629994D01*
X1456480Y628700D01*
Y627300D01*
X1456763Y626617D01*
Y621043D01*
X1456773Y620993D01*
Y615539D01*
X1456000Y614905D01*
X1454513Y614609D01*
X1453253Y613767D01*
X1452411Y612506D01*
X1452115Y611020D01*
X1452411Y609533D01*
X1453253Y608273D01*
X1468295Y593231D01*
Y589212D01*
X1468591Y587726D01*
X1468718Y587535D01*
Y586000D01*
X1468933Y584919D01*
X1469545Y584003D01*
X1470462Y583391D01*
X1471543Y583176D01*
X1477543D01*
X1478623Y583391D01*
X1479540Y584003D01*
X1480152Y584919D01*
X1480367Y586000D01*
Y589000D01*
X1480152Y590081D01*
X1479540Y590997D01*
X1478623Y591609D01*
X1477543Y591824D01*
X1476064D01*
Y594840D01*
X1475768Y596327D01*
X1474926Y597587D01*
X1459554Y612960D01*
X1460080Y614230D01*
X1465312D01*
Y616763D01*
X1466659D01*
X1486763Y596659D01*
Y581341D01*
X1481582Y576161D01*
X1480312Y576687D01*
Y576770D01*
X1468772D01*
Y575737D01*
X1454770D01*
Y576770D01*
X1443230D01*
Y568230D01*
X1449628D01*
Y558894D01*
X1449874Y557655D01*
X1450423Y556835D01*
Y556242D01*
X1450958Y554949D01*
X1451949Y553958D01*
X1453242Y553423D01*
X1454643D01*
X1455936Y553958D01*
X1456927Y554949D01*
X1457462Y556242D01*
Y557643D01*
X1456985Y558795D01*
X1456933Y559055D01*
X1456232Y560106D01*
X1456102Y560235D01*
Y569263D01*
X1468772D01*
Y568230D01*
X1480312D01*
Y569263D01*
X1482500D01*
X1483739Y569509D01*
X1484789Y570211D01*
X1492289Y577711D01*
X1492991Y578761D01*
X1493237Y580000D01*
Y598000D01*
X1492991Y599239D01*
X1492289Y600289D01*
X1470289Y622289D01*
X1469239Y622991D01*
X1468000Y623237D01*
X1465312D01*
Y625770D01*
X1464115D01*
X1463618Y627040D01*
X1469289Y632711D01*
X1469991Y633761D01*
X1470237Y635000D01*
Y663000D01*
X1469991Y664239D01*
X1469289Y665289D01*
X1465246Y669332D01*
X1464196Y670033D01*
X1462957Y670280D01*
X1461770D01*
Y671313D01*
D02*
G37*
G36*
X1275500Y577704D02*
X1273026Y575230D01*
X1277974D01*
X1275500Y577704D01*
D02*
G37*
G36*
X1388273Y575431D02*
Y570484D01*
X1390746Y572957D01*
X1388273Y575431D01*
D02*
G37*
G36*
X1413815D02*
Y570484D01*
X1416289Y572957D01*
X1413815Y575431D01*
D02*
G37*
G36*
X1399812Y575432D02*
X1397339Y572957D01*
X1399812Y570484D01*
Y575432D01*
D02*
G37*
G36*
X1425355Y575431D02*
X1422881Y572957D01*
X1425355Y570484D01*
Y575431D01*
D02*
G37*
G36*
X1423559Y577228D02*
X1415611D01*
X1418983Y573855D01*
X1418085Y572957D01*
X1418983Y572059D01*
X1415611Y568688D01*
X1423559D01*
X1420187Y572059D01*
X1421085Y572957D01*
X1420187Y573855D01*
X1423559Y577228D01*
D02*
G37*
G36*
X1398016D02*
X1390069D01*
X1393441Y573856D01*
X1392543Y572957D01*
X1393441Y572060D01*
X1390069Y568688D01*
X1398017D01*
X1394644Y572060D01*
X1395542Y572957D01*
X1394644Y573856D01*
X1398016Y577228D01*
D02*
G37*
G36*
X1314415Y590470D02*
X1312928Y590174D01*
X1311668Y589332D01*
X1310826Y588072D01*
X1310530Y586585D01*
Y577106D01*
X1310334Y577067D01*
X1309418Y576455D01*
X1308806Y575538D01*
X1308591Y574457D01*
Y571457D01*
X1308806Y570377D01*
X1309418Y569460D01*
X1310334Y568848D01*
X1311415Y568633D01*
X1317415D01*
X1318496Y568848D01*
X1319412Y569460D01*
X1320024Y570377D01*
X1320239Y571457D01*
Y571788D01*
X1323567Y575115D01*
X1334323D01*
Y572860D01*
X1334368Y572634D01*
Y569958D01*
X1334565Y568966D01*
X1335126Y568126D01*
X1335127Y568116D01*
X1334471Y567460D01*
X1334854Y567076D01*
X1334567Y566646D01*
X1334370Y565655D01*
Y560955D01*
X1334567Y559964D01*
X1334973Y559358D01*
Y556916D01*
X1334952Y556865D01*
X1334204Y556118D01*
X1332880D01*
X1331642Y555871D01*
X1330591Y555169D01*
X1320783Y545361D01*
X1319455Y545412D01*
X1318538Y546024D01*
X1317457Y546239D01*
X1311458D01*
X1310377Y546024D01*
X1309460Y545412D01*
X1308848Y544496D01*
X1308633Y543415D01*
Y540415D01*
X1308848Y539334D01*
X1309460Y538418D01*
X1310377Y537806D01*
X1311458Y537591D01*
X1317457D01*
X1318538Y537806D01*
X1319455Y538418D01*
X1319628Y538678D01*
X1321915D01*
X1323154Y538924D01*
X1324204Y539626D01*
X1333703Y549125D01*
X1334973Y548599D01*
Y545367D01*
X1334391Y544496D01*
X1334176Y543415D01*
Y540415D01*
X1334391Y539334D01*
X1335003Y538418D01*
X1335919Y537806D01*
X1337000Y537591D01*
X1343000D01*
X1344081Y537806D01*
X1344997Y538418D01*
X1345609Y539334D01*
X1345824Y540415D01*
Y543415D01*
X1345609Y544496D01*
X1344997Y545412D01*
X1344081Y546024D01*
X1343000Y546239D01*
X1341447D01*
Y554150D01*
X1341734Y554841D01*
Y556242D01*
X1341447Y556933D01*
Y558420D01*
X1343207D01*
X1343458Y558370D01*
X1344225D01*
X1348139Y554966D01*
X1348682Y554656D01*
X1349202Y554308D01*
X1349336Y554282D01*
X1349455Y554214D01*
X1350075Y554135D01*
X1350688Y554012D01*
X1350823Y554039D01*
X1350958Y554022D01*
X1351561Y554186D01*
X1352175Y554308D01*
X1352289Y554384D01*
X1352421Y554420D01*
X1352915Y554803D01*
X1353435Y555150D01*
X1353439Y555155D01*
X1353446Y555163D01*
X1353517Y555268D01*
X1353620Y555348D01*
X1353914Y555863D01*
X1354288Y556423D01*
X1354317Y556568D01*
X1354372Y556664D01*
X1354436Y557163D01*
X1354584Y557910D01*
X1354552Y558074D01*
X1354564Y558167D01*
X1354450Y558583D01*
X1354288Y559397D01*
X1354188Y559548D01*
X1354165Y559630D01*
X1353927Y559937D01*
X1353446Y560657D01*
X1353289Y560762D01*
X1353238Y560828D01*
X1348847Y564647D01*
X1348547Y564947D01*
Y564960D01*
X1348497Y565210D01*
Y565700D01*
X1348400D01*
X1348350Y565951D01*
X1347789Y566791D01*
X1347788Y566803D01*
X1348444Y567460D01*
X1347788Y568116D01*
X1347789Y568126D01*
X1348350Y568966D01*
X1348547Y569958D01*
Y572634D01*
X1348592Y572860D01*
Y575115D01*
X1353115D01*
Y569841D01*
X1353411Y568354D01*
X1354253Y567094D01*
X1355513Y566252D01*
X1357000Y565956D01*
X1357530D01*
X1359017Y566252D01*
X1360277Y567094D01*
X1361799Y568616D01*
X1368043D01*
X1368130Y568633D01*
X1371500D01*
X1372581Y568848D01*
X1373497Y569460D01*
X1374109Y570377D01*
X1374324Y571457D01*
Y574457D01*
X1374109Y575538D01*
X1373497Y576455D01*
X1372581Y577067D01*
X1371500Y577282D01*
X1365500D01*
X1364419Y577067D01*
X1363503Y576455D01*
X1363457Y576385D01*
X1360885D01*
Y577000D01*
X1360589Y578487D01*
X1359747Y579747D01*
X1357747Y581747D01*
X1356487Y582589D01*
X1355000Y582885D01*
X1321958D01*
X1320471Y582589D01*
X1319570Y581987D01*
X1318300Y582495D01*
Y586585D01*
X1318004Y588072D01*
X1317162Y589332D01*
X1315902Y590174D01*
X1314415Y590470D01*
D02*
G37*
G36*
X1422585Y562282D02*
X1416585D01*
X1415504Y562067D01*
X1414588Y561455D01*
X1414414Y561195D01*
X1399213D01*
X1399040Y561455D01*
X1398123Y562067D01*
X1397043Y562282D01*
X1391043D01*
X1389962Y562067D01*
X1389046Y561455D01*
X1388433Y560538D01*
X1388218Y559458D01*
Y556457D01*
X1388433Y555377D01*
X1389046Y554460D01*
X1389763Y553981D01*
Y548383D01*
X1389480Y547700D01*
Y546300D01*
X1390016Y545006D01*
X1391006Y544016D01*
X1391329Y543882D01*
X1392488Y542723D01*
X1392337Y541453D01*
X1390835D01*
X1390585Y541503D01*
X1389366D01*
X1381062Y549807D01*
X1381042Y549911D01*
X1380962Y550029D01*
Y550880D01*
X1380667Y552366D01*
X1379825Y553627D01*
X1374270Y559181D01*
Y560431D01*
X1370898Y557059D01*
X1369102Y558856D01*
X1372474Y562228D01*
X1364526D01*
X1367898Y558856D01*
X1366102Y557059D01*
X1362730Y560432D01*
Y558876D01*
X1361954Y557714D01*
X1361658Y556227D01*
Y551657D01*
X1360388Y551272D01*
X1360210Y551538D01*
X1358950Y552380D01*
X1357463Y552676D01*
X1355977Y552380D01*
X1354716Y551538D01*
X1353874Y550278D01*
X1353579Y548791D01*
Y542615D01*
X1353411Y542364D01*
X1353115Y540877D01*
Y533957D01*
X1353411Y532471D01*
X1354253Y531211D01*
X1359718Y525746D01*
Y525415D01*
X1359933Y524334D01*
X1360546Y523418D01*
X1361462Y522806D01*
X1362543Y522591D01*
X1365873D01*
X1370211Y518253D01*
X1371471Y517411D01*
X1372957Y517115D01*
X1412213D01*
X1413699Y517411D01*
X1414960Y518253D01*
X1419297Y522591D01*
X1422628D01*
X1423708Y522806D01*
X1424625Y523418D01*
X1425237Y524334D01*
X1425452Y525415D01*
Y528415D01*
X1425237Y529496D01*
X1424625Y530412D01*
X1423708Y531024D01*
X1422628Y531239D01*
X1416628D01*
X1415547Y531024D01*
X1414630Y530412D01*
X1414018Y529496D01*
X1413803Y528415D01*
Y528084D01*
X1410603Y524885D01*
X1399720D01*
Y527013D01*
X1399675Y527239D01*
X1399675Y529915D01*
X1399478Y530906D01*
X1399126Y531433D01*
X1398916Y531746D01*
X1399571Y532413D01*
X1399213Y532771D01*
X1399245Y532881D01*
X1399475Y533226D01*
X1399673Y534217D01*
Y538917D01*
X1399475Y539908D01*
X1399070Y540515D01*
Y543957D01*
X1398824Y545196D01*
X1398122Y546246D01*
X1396416Y547952D01*
X1396237Y548383D01*
Y553633D01*
X1397043D01*
X1398123Y553848D01*
X1399040Y554460D01*
X1399213Y554720D01*
X1414414D01*
X1414588Y554460D01*
X1415504Y553848D01*
X1416585Y553633D01*
X1422585D01*
X1423666Y553848D01*
X1424582Y554460D01*
X1425194Y555377D01*
X1425409Y556457D01*
Y559458D01*
X1425194Y560538D01*
X1424582Y561455D01*
X1423666Y562067D01*
X1422585Y562282D01*
D02*
G37*
G36*
X1185000Y558117D02*
X1182000D01*
X1180919Y557902D01*
X1180003Y557290D01*
X1179391Y556373D01*
X1179264Y555738D01*
X1177670D01*
X1176987Y556020D01*
X1175587D01*
X1174293Y555485D01*
X1173303Y554494D01*
X1172767Y553201D01*
Y551800D01*
X1173303Y550507D01*
X1174293Y549516D01*
X1175587Y548980D01*
X1176987D01*
X1177670Y549263D01*
X1179182D01*
X1179391Y548212D01*
X1180003Y547295D01*
X1180919Y546683D01*
X1182000Y546468D01*
X1185000D01*
X1186081Y546683D01*
X1186997Y547295D01*
X1187609Y548212D01*
X1187824Y549293D01*
Y555293D01*
X1187609Y556373D01*
X1186997Y557290D01*
X1186081Y557902D01*
X1185000Y558117D01*
D02*
G37*
G36*
X1320185Y560431D02*
X1317711Y557957D01*
X1320185Y555484D01*
Y560431D01*
D02*
G37*
G36*
X1308645Y560432D02*
Y555483D01*
X1311119Y557957D01*
X1308645Y560432D01*
D02*
G37*
G36*
X1318389Y562228D02*
X1310441D01*
X1313813Y558856D01*
X1312915Y557957D01*
X1313813Y557059D01*
X1310441Y553688D01*
X1318389D01*
X1315017Y557059D01*
X1315915Y557957D01*
X1315017Y558856D01*
X1318389Y562228D01*
D02*
G37*
G36*
X1413858Y544389D02*
Y539441D01*
X1416331Y541915D01*
X1413858Y544389D01*
D02*
G37*
G36*
X1425398Y544389D02*
X1422924Y541915D01*
X1425398Y539441D01*
Y544389D01*
D02*
G37*
G36*
X1221440Y544763D02*
X1220829Y543849D01*
X1220362Y541500D01*
X1220829Y539151D01*
X1221440Y538237D01*
X1224704Y541500D01*
X1221440Y544763D01*
D02*
G37*
G36*
X1284560Y544764D02*
X1281296Y541500D01*
X1284559Y538236D01*
X1285171Y539151D01*
X1285638Y541500D01*
X1285171Y543849D01*
X1284560Y544764D01*
D02*
G37*
G36*
X1423601Y546185D02*
X1415654D01*
X1419026Y542813D01*
X1418127Y541915D01*
X1419026Y541017D01*
X1415654Y537645D01*
X1423602D01*
X1420229Y541017D01*
X1421127Y541915D01*
X1420229Y542813D01*
X1423601Y546185D01*
D02*
G37*
G36*
X1229500Y547638D02*
X1226500D01*
X1224151Y547171D01*
X1223236Y546559D01*
X1227398Y542398D01*
X1226500Y541500D01*
X1227398Y540602D01*
X1223236Y536441D01*
X1224151Y535829D01*
X1226500Y535362D01*
X1229500D01*
X1231849Y535829D01*
X1232764Y536440D01*
X1228602Y540602D01*
X1229500Y541500D01*
X1228602Y542398D01*
X1232764Y546560D01*
X1231849Y547171D01*
X1229500Y547638D01*
D02*
G37*
G36*
X1279500Y547638D02*
X1276500D01*
X1274151Y547171D01*
X1273236Y546559D01*
X1277398Y542398D01*
X1276500Y541500D01*
X1277398Y540602D01*
X1273236Y536440D01*
X1274151Y535829D01*
X1276500Y535362D01*
X1279500D01*
X1281849Y535829D01*
X1282763Y536440D01*
X1278602Y540602D01*
X1279500Y541500D01*
X1278602Y542398D01*
X1282764Y546560D01*
X1281849Y547171D01*
X1279500Y547638D01*
D02*
G37*
G36*
X1067555Y532770D02*
X1065245D01*
X1063015Y532172D01*
X1061119Y531077D01*
X1066400Y525796D01*
X1071681Y531077D01*
X1069785Y532172D01*
X1067555Y532770D01*
D02*
G37*
G36*
X1345770Y529389D02*
X1343296Y526915D01*
X1345770Y524441D01*
Y529389D01*
D02*
G37*
G36*
X1308688Y529389D02*
Y524441D01*
X1311161Y526915D01*
X1308688Y529389D01*
D02*
G37*
G36*
X1334230Y529389D02*
Y524441D01*
X1336704Y526915D01*
X1334230Y529389D01*
D02*
G37*
G36*
X1320228Y529389D02*
X1317753Y526915D01*
X1320228Y524441D01*
Y529389D01*
D02*
G37*
G36*
X1343974Y531185D02*
X1336026D01*
X1339398Y527813D01*
X1338500Y526915D01*
X1339398Y526017D01*
X1336026Y522645D01*
X1343974D01*
X1340602Y526017D01*
X1341500Y526915D01*
X1340602Y527813D01*
X1343974Y531185D01*
D02*
G37*
G36*
X1318432D02*
X1310484D01*
X1313855Y527813D01*
X1312957Y526915D01*
X1313855Y526017D01*
X1310484Y522645D01*
X1318431D01*
X1315060Y526017D01*
X1315957Y526915D01*
X1315060Y527813D01*
X1318432Y531185D01*
D02*
G37*
G36*
X1197593Y523540D02*
X1195607D01*
X1193690Y523026D01*
X1191970Y522034D01*
X1191095Y521158D01*
X1190250Y520774D01*
X1189405Y521158D01*
X1188530Y522034D01*
X1186810Y523026D01*
X1184893Y523540D01*
X1182907D01*
X1180990Y523026D01*
X1179270Y522034D01*
X1178395Y521158D01*
X1177550Y520774D01*
X1176705Y521158D01*
X1175830Y522034D01*
X1174110Y523026D01*
X1172193Y523540D01*
X1170207D01*
X1168290Y523026D01*
X1166570Y522034D01*
X1165695Y521158D01*
X1164850Y520774D01*
X1164005Y521158D01*
X1163130Y522034D01*
X1161410Y523026D01*
X1159493Y523540D01*
X1157507D01*
X1155590Y523026D01*
X1153870Y522034D01*
X1152995Y521158D01*
X1152150Y520774D01*
X1151305Y521158D01*
X1150430Y522034D01*
X1148710Y523026D01*
X1146793Y523540D01*
X1144807D01*
X1142890Y523026D01*
X1141170Y522034D01*
X1140295Y521158D01*
X1139450Y520774D01*
X1138605Y521158D01*
X1137730Y522034D01*
X1136010Y523026D01*
X1134093Y523540D01*
X1132107D01*
X1130190Y523026D01*
X1128470Y522034D01*
X1127595Y521158D01*
X1126750Y520774D01*
X1125905Y521158D01*
X1125030Y522034D01*
X1123310Y523026D01*
X1121393Y523540D01*
X1119407D01*
X1117490Y523026D01*
X1115770Y522034D01*
X1114895Y521158D01*
X1114050Y520774D01*
X1113205Y521158D01*
X1112330Y522034D01*
X1110610Y523026D01*
X1108693Y523540D01*
X1106707D01*
X1104790Y523026D01*
X1103810Y522461D01*
X1102540Y523194D01*
Y523540D01*
X1087460D01*
Y508460D01*
X1102540D01*
Y508806D01*
X1103810Y509539D01*
X1104790Y508974D01*
X1106707Y508460D01*
X1108693D01*
X1110610Y508974D01*
X1112330Y509967D01*
X1113205Y510842D01*
X1114050Y511226D01*
X1114895Y510842D01*
X1115770Y509967D01*
X1117490Y508974D01*
X1119407Y508460D01*
X1121393D01*
X1123310Y508974D01*
X1125030Y509967D01*
X1125905Y510842D01*
X1126750Y511226D01*
X1127595Y510842D01*
X1128470Y509967D01*
X1130190Y508974D01*
X1132107Y508460D01*
X1134093D01*
X1136010Y508974D01*
X1137730Y509967D01*
X1138605Y510842D01*
X1139450Y511226D01*
X1140295Y510842D01*
X1141170Y509967D01*
X1142890Y508974D01*
X1144807Y508460D01*
X1146793D01*
X1148710Y508974D01*
X1150430Y509967D01*
X1151305Y510842D01*
X1152150Y511226D01*
X1152995Y510842D01*
X1153870Y509967D01*
X1155590Y508974D01*
X1157507Y508460D01*
X1159493D01*
X1161410Y508974D01*
X1163130Y509967D01*
X1164005Y510842D01*
X1164850Y511226D01*
X1165695Y510842D01*
X1166570Y509967D01*
X1168290Y508974D01*
X1170207Y508460D01*
X1172193D01*
X1174110Y508974D01*
X1175830Y509967D01*
X1176705Y510842D01*
X1177550Y511226D01*
X1178395Y510842D01*
X1179270Y509967D01*
X1180990Y508974D01*
X1182907Y508460D01*
X1184893D01*
X1186810Y508974D01*
X1188530Y509967D01*
X1189405Y510842D01*
X1190250Y511226D01*
X1191095Y510842D01*
X1191970Y509967D01*
X1193690Y508974D01*
X1195607Y508460D01*
X1197593D01*
X1199510Y508974D01*
X1201230Y509967D01*
X1202634Y511370D01*
X1203626Y513090D01*
X1204140Y515007D01*
Y516993D01*
X1203626Y518910D01*
X1202634Y520630D01*
X1201230Y522034D01*
X1199510Y523026D01*
X1197593Y523540D01*
D02*
G37*
G36*
X1073477Y529281D02*
X1068196Y524000D01*
X1073477Y518719D01*
X1074572Y520615D01*
X1075170Y522845D01*
Y525155D01*
X1074572Y527385D01*
X1073477Y529281D01*
D02*
G37*
G36*
X1059323Y529281D02*
X1058228Y527385D01*
X1057630Y525155D01*
Y522845D01*
X1058228Y520615D01*
X1059323Y518719D01*
X1064604Y524000D01*
X1059323Y529281D01*
D02*
G37*
G36*
X1249974Y523520D02*
X1236026D01*
X1243000Y516546D01*
X1249974Y523520D01*
D02*
G37*
G36*
X1269974D02*
X1256026D01*
X1263000Y516546D01*
X1269974Y523520D01*
D02*
G37*
G36*
X1468025Y523529D02*
X1464496Y520000D01*
X1468025Y516471D01*
X1468970Y518753D01*
Y521247D01*
X1468025Y523529D01*
D02*
G37*
G36*
X1066400Y522204D02*
X1061119Y516922D01*
X1063015Y515828D01*
X1065245Y515230D01*
X1067555D01*
X1069785Y515828D01*
X1071681Y516922D01*
X1066400Y522204D01*
D02*
G37*
G36*
X1243000Y514750D02*
X1242750Y514500D01*
X1243000Y514250D01*
X1243250Y514500D01*
X1243000Y514750D01*
D02*
G37*
G36*
X1263000D02*
X1262750Y514500D01*
X1263000Y514250D01*
X1263250Y514500D01*
X1263000Y514750D01*
D02*
G37*
G36*
X1051040Y534040D02*
X1030960D01*
Y513960D01*
X1051040D01*
Y534040D01*
D02*
G37*
G36*
X1457540Y527540D02*
X1442460D01*
Y512460D01*
X1457540D01*
Y514634D01*
X1458713Y515120D01*
X1459148Y514685D01*
X1461453Y513730D01*
X1463947D01*
X1466229Y514675D01*
X1461802Y519102D01*
X1462700Y520000D01*
X1461802Y520898D01*
X1466229Y525325D01*
X1463947Y526270D01*
X1461453D01*
X1459148Y525315D01*
X1458713Y524880D01*
X1457540Y525366D01*
Y527540D01*
D02*
G37*
G36*
X1251770Y521724D02*
X1244546Y514500D01*
X1251770Y507276D01*
Y510891D01*
X1254230D01*
Y507276D01*
X1261454Y514500D01*
X1254230Y521724D01*
Y518109D01*
X1251770D01*
Y521724D01*
D02*
G37*
G36*
X1234230Y521724D02*
Y507276D01*
X1241454Y514500D01*
X1234230Y521724D01*
D02*
G37*
G36*
X1271770Y521724D02*
X1264546Y514500D01*
X1271770Y507276D01*
Y521724D01*
D02*
G37*
G36*
X1263000Y512454D02*
X1256026Y505480D01*
X1269974D01*
X1263000Y512454D01*
D02*
G37*
G36*
X1243000D02*
X1236026Y505480D01*
X1249974D01*
X1243000Y512454D01*
D02*
G37*
%LPD*%
G36*
X1345957Y569958D02*
X1345258D01*
X1343457Y571758D01*
Y573957D01*
X1345957D01*
Y569958D01*
D02*
G37*
G36*
X1339458Y571758D02*
X1337657Y569958D01*
X1336958D01*
Y573957D01*
X1339458D01*
Y571758D01*
D02*
G37*
G36*
X1345958Y560960D02*
X1343458D01*
Y563160D01*
X1345258Y564960D01*
X1345958D01*
Y560960D01*
D02*
G37*
G36*
X1339460Y563155D02*
Y560955D01*
X1336960D01*
Y565655D01*
X1339460Y563155D01*
D02*
G37*
G36*
X1390585Y536713D02*
X1388785Y534913D01*
X1388085Y534913D01*
Y538913D01*
X1390585D01*
Y536713D01*
D02*
G37*
G36*
X1397083Y534217D02*
X1394583Y536717D01*
Y538917D01*
X1397083D01*
Y534217D01*
D02*
G37*
G36*
X1397085Y525915D02*
X1394585D01*
X1394585Y528115D01*
X1396385Y529915D01*
X1397085Y529915D01*
X1397085Y525915D01*
D02*
G37*
G36*
X1390585Y528115D02*
Y525915D01*
X1388085D01*
Y529915D01*
X1388785D01*
X1390585Y528115D01*
D02*
G37*
G36*
X1373193Y549271D02*
Y548799D01*
X1373489Y547313D01*
X1373775Y546885D01*
X1373864Y546436D01*
X1374706Y545176D01*
X1385545Y534337D01*
Y534173D01*
X1385643D01*
X1385692Y533922D01*
X1386254Y533082D01*
X1385599Y532413D01*
X1386255Y531757D01*
X1386254Y531746D01*
X1385692Y530906D01*
X1385495Y529915D01*
Y527239D01*
X1385450Y527013D01*
Y524885D01*
X1374567D01*
X1371367Y528084D01*
Y528415D01*
X1371152Y529496D01*
X1370540Y530412D01*
X1369623Y531024D01*
X1368542Y531239D01*
X1365212D01*
X1360885Y535566D01*
Y537645D01*
X1369516D01*
X1366145Y541017D01*
X1367043Y541915D01*
X1366145Y542813D01*
X1369517Y546185D01*
X1369427D01*
Y551377D01*
X1370600Y551863D01*
X1373193Y549271D01*
D02*
G37*
%LPC*%
G36*
X1371313Y544389D02*
X1368839Y541915D01*
X1371313Y539441D01*
Y544389D01*
D02*
G37*
%LPD*%
D13*
X765000Y691708D02*
G03*
X747430Y684430I0J-24848D01*
G01*
X686979Y634500D02*
G03*
X704939Y641939I0J25400D01*
G01*
X832000Y693000D02*
G03*
X835120Y691708I3120J3120D01*
G01*
X848193D02*
G03*
X832000Y685000I0J-22901D01*
G01*
X800000Y691708D02*
G03*
X816193Y685000I16193J16193D01*
G01*
X775000Y708000D02*
G03*
X765000Y698000I0J-10000D01*
G01*
X800000Y698700D02*
G03*
X790700Y708000I-9300J0D01*
G01*
X863150D02*
G03*
X854000Y698850I0J-9150D01*
G01*
X889000Y697850D02*
G03*
X878850Y708000I-10150J0D01*
G01*
X1118220Y557293D02*
X1119707Y558780D01*
Y597293D01*
X1131708Y609292D01*
X1098500Y557293D02*
X1118220D01*
X1098500Y609292D02*
X1131708D01*
X1198500Y578750D02*
X1200120Y577130D01*
Y553913D02*
Y577130D01*
X1198500Y552293D02*
X1200120Y553913D01*
X1198500Y578750D02*
Y604293D01*
X1199000Y614865D02*
X1219930D01*
X1184548D02*
X1199000D01*
X1198500Y614365D02*
X1199000Y614865D01*
X1198500Y604293D02*
Y614365D01*
X1081842Y615793D02*
X1098500D01*
X1406000Y601500D02*
Y620000D01*
X1393000Y616000D02*
Y627500D01*
X1393500Y628000D01*
X1356000Y594000D02*
Y601500D01*
X1355230Y602270D02*
X1356000Y601500D01*
X1355230Y602270D02*
Y603770D01*
X1472180Y589212D02*
X1473892Y587500D01*
X1472180Y589212D02*
Y594840D01*
X1473892Y587500D02*
X1474543D01*
X1456000Y611020D02*
X1472180Y594840D01*
X1448000Y600000D02*
X1448375Y599625D01*
Y588125D02*
X1449000Y587500D01*
X1448375Y588125D02*
Y599625D01*
X1357463Y541341D02*
Y548791D01*
X1081580Y602343D02*
X1082029Y602793D01*
X1098500D01*
X1074698Y602343D02*
X1081580D01*
X1052060Y596000D02*
X1098207D01*
X1052000Y596060D02*
X1052060Y596000D01*
X1098207D02*
X1098500Y596292D01*
X1084293Y583293D02*
X1098500D01*
X1098085Y589793D02*
X1098292Y590000D01*
X1047000Y606000D02*
X1051000D01*
X1044000Y603000D02*
X1047000Y606000D01*
X1044000Y595490D02*
Y603000D01*
Y595490D02*
X1049697Y589793D01*
X1098085D01*
X1098292Y590000D02*
X1098500Y589793D01*
X1227000Y621935D02*
Y644000D01*
X1219930Y614865D02*
X1227000Y621935D01*
X1178351Y621063D02*
X1184548Y614865D01*
X1214190Y633000D02*
X1217420Y629770D01*
X1131708Y609801D02*
X1142969Y621063D01*
X1211000Y633000D02*
X1214190D01*
X1131708Y609292D02*
Y609801D01*
X1142969Y621063D02*
X1178351D01*
X1217420Y620925D02*
Y629770D01*
X1368043Y572501D02*
X1368500Y572957D01*
X1357530Y569841D02*
X1360190Y572501D01*
X1368043D01*
X1357000Y569841D02*
X1357530D01*
X1355000Y579000D02*
X1357000Y577000D01*
Y569841D02*
Y577000D01*
X1343220Y579000D02*
X1355000D01*
X1377078Y548799D02*
Y550880D01*
Y548799D02*
X1377453Y548424D01*
Y547923D02*
X1392585Y532790D01*
X1357000Y540877D02*
X1357463Y541341D01*
X1357000Y533957D02*
Y540877D01*
X1350688Y557899D02*
X1350700Y557910D01*
X1346196Y561805D02*
X1350688Y557897D01*
Y557899D01*
X1345000Y563000D02*
X1346196Y561805D01*
X690153Y642765D02*
X692805D01*
X698000Y656000D02*
Y661000D01*
X696397Y646357D02*
X696927D01*
X688078Y640690D02*
X690153Y642765D01*
X686500Y644500D02*
X698000Y656000D01*
X692805Y642765D02*
X696397Y646357D01*
X685985Y640690D02*
X688078D01*
X675250Y644500D02*
X686500D01*
X684795Y639500D02*
X685985Y640690D01*
X675250Y639500D02*
X684795D01*
X684512Y649500D02*
X686000Y650988D01*
Y668543D02*
X696730Y679273D01*
X675250Y649500D02*
X684512D01*
X686000Y650988D02*
Y668543D01*
X682000Y676000D02*
Y693000D01*
X668500Y662500D02*
X682000Y676000D01*
X668500Y656250D02*
Y662500D01*
X1094538Y712962D02*
X1131038D01*
X1094500Y713000D02*
X1094538Y712962D01*
X805000Y530000D02*
Y533270D01*
Y525500D02*
Y530000D01*
Y525500D02*
X810500Y520000D01*
X1353500Y605500D02*
X1355230Y603770D01*
X1352000Y605500D02*
X1353500D01*
X1216770Y659000D02*
X1220000Y662230D01*
Y675000D01*
X1211000Y659000D02*
X1216770D01*
X1341625Y724625D02*
X1342625D01*
X1332631Y715631D02*
X1341625Y724625D01*
X1326964Y715631D02*
X1332631D01*
X1326333Y715000D02*
X1326964Y715631D01*
X1342625Y724625D02*
X1343000Y725000D01*
X1317759Y648719D02*
X1317770Y648730D01*
Y649000D02*
X1320750D01*
X1316219D02*
X1316500Y648719D01*
X1301850Y649000D02*
X1316219D01*
X1316500Y648719D02*
X1317759D01*
X1343383Y700000D02*
X1344155Y699228D01*
X1357976D01*
X1326333Y700000D02*
X1343383D01*
X1348000Y688000D02*
X1354000Y694000D01*
X1381000D01*
X1358044Y686779D02*
X1358253Y686987D01*
X1356000Y686779D02*
X1358044D01*
X1376270Y698730D02*
X1381270Y693730D01*
X1373024Y698730D02*
X1376270D01*
X1371754Y700000D02*
X1373024Y698730D01*
X1358748Y700000D02*
X1371754D01*
X1377315Y705685D02*
X1378000Y705000D01*
X1357976Y699228D02*
X1358748Y700000D01*
X1370258Y706060D02*
X1370634Y705685D01*
X1381270Y693730D02*
X1431730D01*
X1362937Y705779D02*
X1363218Y706060D01*
X1353281Y705779D02*
X1362937D01*
X1370634Y705685D02*
X1377315D01*
X1353000Y705498D02*
X1353281Y705779D01*
X1326333Y700000D02*
X1326333Y700000D01*
X1307000Y655000D02*
X1311024Y659024D01*
X1304420Y696060D02*
Y696590D01*
X1284500Y671500D02*
Y673000D01*
X1310480Y691220D02*
Y707510D01*
X1316540Y696060D02*
X1317070D01*
X1311024Y659024D02*
X1314512D01*
X1300772Y700000D02*
X1301833D01*
X1310480Y707510D02*
X1318283Y715313D01*
X1307260Y688000D02*
X1310480Y691220D01*
X1301833Y700000D02*
X1303546Y698288D01*
X1300457Y700000D02*
X1300772D01*
X1303546Y697465D02*
Y698288D01*
Y697465D02*
X1304420Y696590D01*
X1302484Y704902D02*
X1314473Y716891D01*
X1268500Y685500D02*
Y703500D01*
X1302484Y701712D02*
Y704902D01*
X1300772Y700000D02*
X1302484Y701712D01*
X586876Y643230D02*
X590606Y639500D01*
X612012Y667000D02*
X613500Y665512D01*
X592500Y579500D02*
X598000Y585000D01*
X606730Y634520D02*
X606750Y634500D01*
X585261Y628269D02*
X586369D01*
X639043Y665368D02*
X639486Y664925D01*
X682719Y629500D02*
X686692Y625526D01*
X581645Y647335D02*
X585750Y643230D01*
X577000Y703000D02*
X593000Y687000D01*
X586970Y621328D02*
X590142Y624500D01*
X623500Y656250D02*
Y666500D01*
X585750Y643230D02*
X586876D01*
X585718Y635818D02*
X588794D01*
X598000Y585000D02*
Y593000D01*
X593000Y673000D02*
X599000Y667000D01*
X618500Y668500D02*
X621500D01*
X586440Y621328D02*
X586970D01*
X588794Y635818D02*
X590092Y634520D01*
X648500Y587750D02*
X648520Y587730D01*
Y581212D02*
Y587730D01*
X590092Y634520D02*
X606730D01*
X621500Y668500D02*
X623500Y666500D01*
X585343Y636193D02*
X585718Y635818D01*
X593000Y673000D02*
Y687000D01*
X613715Y673285D02*
X618500Y668500D01*
X581285Y647335D02*
X581645D01*
X598000Y593000D02*
X599500Y594500D01*
X654500Y575132D02*
Y575232D01*
X628500Y656250D02*
Y679500D01*
X590142Y624500D02*
X606750D01*
X686692Y625526D02*
X703099D01*
X586369Y628269D02*
X587600Y629500D01*
X675250D02*
X682719D01*
X599500Y594500D02*
X606750D01*
X587600Y629500D02*
X606750D01*
X643500Y576460D02*
X643960Y576000D01*
X590606Y639500D02*
X606750D01*
X645162Y576000D02*
X645537Y575625D01*
X629560Y576000D02*
Y576530D01*
X628500Y577590D02*
X629560Y576530D01*
X628500Y577590D02*
Y587750D01*
X599000Y667000D02*
X612012D01*
X613500Y656250D02*
Y665512D01*
X601285Y673285D02*
X613715D01*
X618500Y656250D02*
Y668500D01*
X624107Y682602D02*
X624603D01*
X625000Y683000D01*
X628500Y679500D01*
X625303Y690284D02*
X628086Y687500D01*
X633500D01*
Y668396D02*
Y687500D01*
X632983Y667878D02*
X633500Y668396D01*
X632983Y662858D02*
Y667878D01*
Y662858D02*
X633500Y662341D01*
Y656250D02*
Y662341D01*
X638235Y663675D02*
X639486Y664925D01*
X638235Y663675D02*
X638480Y663430D01*
Y656270D02*
Y663430D01*
Y656270D02*
X638500Y656250D01*
X643960Y576000D02*
X645162D01*
X599000Y573000D02*
X605000Y579000D01*
X648520Y581212D02*
X654500Y575232D01*
X613500Y580488D02*
Y587750D01*
X643500Y576460D02*
Y587750D01*
X605000Y579000D02*
X612012D01*
X613500Y580488D01*
X1311622Y665572D02*
X1311997Y665947D01*
X1271364Y655000D02*
X1307000D01*
X1271210Y654846D02*
X1271364Y655000D01*
X618500Y560237D02*
Y587750D01*
X613592Y555329D02*
X618500Y560237D01*
X623500Y563916D02*
X632270Y555146D01*
X623500Y563916D02*
Y587750D01*
X608270Y548145D02*
Y553599D01*
X610000Y555329D02*
X613592D01*
X608270Y553599D02*
X610000Y555329D01*
X1227000Y652570D02*
Y696782D01*
X1225512Y698270D02*
X1227000Y696782D01*
X1220250Y702750D02*
Y705493D01*
Y702750D02*
X1224730Y698270D01*
X1225512D01*
X1219790Y645360D02*
X1227000Y652570D01*
X1304000Y596707D02*
Y626000D01*
X1308493Y630494D02*
X1331494D01*
X1304000Y626000D02*
X1308493Y630494D01*
X810500Y520000D02*
X950000D01*
X802270Y536000D02*
X805000Y533270D01*
X781000Y548000D02*
X793000Y536000D01*
X802270D01*
X748000Y552000D02*
X752000Y548000D01*
X748000Y610000D02*
X748000Y610000D01*
X754060Y570252D02*
X770748D01*
X748000Y552000D02*
Y610000D01*
X735208Y595207D02*
X744000Y604000D01*
X724208Y595207D02*
X735208D01*
X752000Y548000D02*
X781000D01*
X702270Y707270D02*
X707000Y712000D01*
X696730Y703858D02*
X700142Y707270D01*
X702270D01*
X696730Y679273D02*
Y703858D01*
X682000Y693000D02*
X685000Y696000D01*
X765000Y691708D02*
Y698000D01*
X704939Y641939D02*
X747430Y684430D01*
X675250Y634500D02*
X686979D01*
X613561Y730303D02*
X617257Y734000D01*
X613561Y724991D02*
Y730303D01*
X604585Y721441D02*
X610011D01*
X578202Y717202D02*
X600346D01*
X610011Y721441D02*
X613561Y724991D01*
X600346Y717202D02*
X604585Y721441D01*
X547000Y686000D02*
X578202Y717202D01*
X632270Y554615D02*
Y555146D01*
Y554615D02*
X652075D01*
X653562Y556103D01*
Y556770D02*
X655293Y558500D01*
X653562Y556103D02*
Y556770D01*
X655293Y558500D02*
X656793D01*
X585250Y543250D02*
X601513D01*
X604679Y546415D02*
X606540D01*
X608270Y548145D01*
X601513Y543250D02*
X604679Y546415D01*
X1227000Y644000D02*
X1268500Y685500D01*
X1249654Y614654D02*
X1250000Y614308D01*
X1249654Y614654D02*
X1249654D01*
X1250000Y615000D02*
X1273000D01*
X1238000Y603000D02*
X1250000Y615000D01*
X1275965Y627000D02*
X1279850D01*
X1273000Y615000D02*
X1291293Y596707D01*
X1406000Y601500D02*
X1406500Y601000D01*
X747000Y536000D02*
X753000Y530000D01*
X771000D01*
X854000Y691708D02*
Y698850D01*
X848193Y691708D02*
X854000D01*
X835120D02*
X848193D01*
X816193Y685000D02*
X822000D01*
X800000Y691708D02*
Y698700D01*
X1331494Y630494D02*
X1334142Y633142D01*
X1334142D01*
X1334500Y655500D02*
X1340000Y661000D01*
X1332000Y653000D02*
X1334500Y655500D01*
X1328270Y649270D02*
X1332000Y653000D01*
X1345500Y666500D02*
X1347000Y665000D01*
X1344000Y668000D02*
X1345500Y666500D01*
X1365543Y541915D02*
Y556227D01*
X1367273Y557957D01*
X1368500D01*
X1370000D02*
X1377078Y550880D01*
X1368500Y557957D02*
X1370000D01*
X1392585Y532413D02*
Y532790D01*
X1377453Y547923D02*
Y548300D01*
X1341458Y566960D02*
X1344707Y563710D01*
X1341458Y566960D02*
Y567460D01*
X1240000Y541500D02*
Y556750D01*
X1238000Y558750D02*
Y603000D01*
Y558750D02*
X1240000Y556750D01*
X1371812Y653970D02*
X1372142Y654300D01*
X1378500Y655543D02*
X1380500Y653542D01*
X1378769Y675959D02*
X1380499Y677689D01*
Y679189D01*
X1334142Y633142D02*
X1336000Y635000D01*
X770748Y570252D02*
X771000Y570000D01*
X547000Y646000D02*
Y686000D01*
X585000Y543500D02*
X585250Y543250D01*
X643520Y660390D02*
X643980Y660850D01*
Y661854D02*
X645620Y663494D01*
X643980Y660850D02*
Y661854D01*
X643520Y669610D02*
Y732020D01*
Y669610D02*
X645620Y667510D01*
Y663494D02*
Y667510D01*
X643520Y656270D02*
Y660390D01*
Y732020D02*
X644500Y733000D01*
X643500Y656250D02*
X643520Y656270D01*
X878850Y708000D02*
X912000D01*
X889000Y691708D02*
Y697850D01*
X1284500Y674624D02*
X1289680Y679805D01*
X1284500Y673000D02*
Y674624D01*
X1289680Y679805D02*
Y684680D01*
X1293000Y688000D01*
X1307260D01*
X1306625Y679625D02*
X1307000Y680000D01*
X1304625Y679625D02*
X1306625D01*
X1298958Y715000D02*
X1300457D01*
X1302000Y716543D01*
Y722000D01*
X1334130Y728730D02*
X1342400Y737000D01*
X1328817Y728730D02*
X1334130D01*
X1318283Y718197D02*
X1328817Y728730D01*
X1299500Y673000D02*
Y674500D01*
X1304625Y679625D01*
X1378500Y655043D02*
Y655543D01*
X1369617Y678886D02*
X1370000D01*
X1369617D02*
X1369625Y678878D01*
X1431730Y693730D02*
X1432000Y694000D01*
X1314473Y716891D02*
Y719775D01*
X1329700Y735002D01*
Y737000D01*
X1318283Y715313D02*
Y718197D01*
X1279850Y627000D02*
X1301850Y649000D01*
X1291293Y596707D02*
X1304000D01*
X1314415Y572957D02*
Y586585D01*
X1339695Y579000D02*
X1343220D01*
X1321958D02*
X1339695D01*
X1314415Y572957D02*
X1315915D01*
X1321958Y579000D01*
X1364043Y526915D02*
X1365542D01*
X1357000Y533957D02*
X1364043Y526915D01*
X1365542D02*
X1367043D01*
X1372957Y521000D01*
X1391000D01*
X1418127Y526915D02*
X1419628D01*
X1412213Y521000D02*
X1418127Y526915D01*
X1394000Y521000D02*
X1412213D01*
X1389335Y522665D02*
Y527013D01*
Y522665D02*
X1391000Y521000D01*
X1394000D01*
X1395835Y522835D01*
Y527013D01*
X1338208Y577512D02*
X1339695Y579000D01*
X1338208Y572860D02*
Y577512D01*
X1344707Y572860D02*
Y577512D01*
X1343220Y579000D02*
X1344707Y577512D01*
D14*
X827000Y679229D02*
G03*
X828751Y675001I5979J0D01*
G01*
Y705001D02*
G03*
X827000Y700773I4228J-4228D01*
G01*
X1316875Y649000D02*
X1317770D01*
Y650000D02*
Y653000D01*
X1316547Y648672D02*
X1316875Y649000D01*
X1317770Y650000D02*
X1318770Y649000D01*
X1328000Y685000D02*
X1330696D01*
X1332000Y683696D01*
Y680250D02*
Y683696D01*
X1328000Y680250D02*
Y685518D01*
X1325000Y687940D02*
X1325578D01*
X1328000Y685518D01*
X1317216Y696060D02*
X1319276Y694000D01*
X1332046D02*
X1332661Y694615D01*
X1340849Y686592D02*
Y691223D01*
X1340000Y685743D02*
X1340849Y686592D01*
X1335059Y688148D02*
Y688825D01*
X1337458Y694615D02*
X1340849Y691223D01*
X1317070Y696060D02*
X1317216D01*
X1340000Y680250D02*
Y685743D01*
X1332661Y694615D02*
X1337458D01*
X1335059Y688148D02*
X1336000Y687207D01*
X1319276Y694000D02*
X1332046D01*
X1336000Y680250D02*
Y687207D01*
X1348000Y680250D02*
Y688000D01*
X1354000Y693755D02*
Y694000D01*
X1355279Y686779D02*
X1356000D01*
X1358044D02*
X1358253Y686987D01*
X1356000Y686779D02*
X1358044D01*
X1352000Y680250D02*
Y683500D01*
X1355279Y686779D01*
X1305770Y666172D02*
Y668290D01*
X1314488Y659000D02*
X1316488Y657000D01*
X1314488Y659000D02*
X1314512Y659024D01*
X1304598Y665000D02*
X1305770Y666172D01*
X1291000Y665000D02*
X1304598D01*
X1314512Y659024D02*
X1316488Y661000D01*
X726757Y620000D02*
X729779D01*
X734043Y624264D01*
X711000Y635757D02*
X726757Y620000D01*
X1316488Y661000D02*
X1320750D01*
X1305770Y668290D02*
X1310480Y673000D01*
X1311622Y665572D02*
X1312194Y665000D01*
X1310480Y673000D02*
X1320750D01*
X827000Y679229D02*
Y685000D01*
Y693000D02*
Y700773D01*
X1243000Y514500D02*
X1263000D01*
X711000Y635757D02*
Y636000D01*
X1328000Y641750D02*
Y649000D01*
X1344000Y668000D02*
Y680250D01*
X1347000Y665000D02*
X1359250D01*
X1362230Y657000D02*
X1368782D01*
X1371812Y653970D01*
X1362230Y653000D02*
X1364875D01*
X1371567Y646309D01*
X1374543Y661000D02*
X1378500Y657043D01*
Y655043D02*
Y657043D01*
X1359250Y661000D02*
X1374543D01*
X1359250Y673000D02*
X1368453D01*
X1369625Y674172D01*
Y678878D01*
X1376769Y675959D02*
X1378769D01*
X1373177Y672367D02*
X1376769Y675959D01*
X1338828Y635000D02*
X1340000Y636172D01*
Y641750D01*
X1336000Y635000D02*
X1338828D01*
X1312194Y665000D02*
X1320750D01*
X1332000Y641750D02*
Y653000D01*
X1371000Y669000D02*
X1373177Y671177D01*
Y672367D01*
X1359250Y669000D02*
X1371000D01*
X1284500Y671500D02*
X1291000Y665000D01*
X1314016Y669000D02*
X1317770D01*
X1311997Y666982D02*
X1314016Y669000D01*
X1311997Y665947D02*
Y666982D01*
X1316488Y657000D02*
X1320750D01*
X1336000Y636000D02*
Y641750D01*
D15*
X1155500Y589793D02*
X1155626Y589919D01*
X1164124D02*
X1164250Y590045D01*
X1155626Y589919D02*
X1164124D01*
X1113531Y563676D02*
X1113648Y563560D01*
X1098616Y563676D02*
X1113531D01*
X1123000Y572108D02*
X1125768Y569341D01*
X1098500Y563792D02*
X1098616Y563676D01*
X1123000Y572108D02*
Y590000D01*
X1125768Y569000D02*
Y569341D01*
X1123000Y590000D02*
X1140875Y607875D01*
X1180425Y570283D02*
X1182487Y572345D01*
X1180425Y569409D02*
Y570283D01*
X1109792Y576792D02*
X1114000Y581000D01*
X1111710D02*
X1114000D01*
X1098500Y576792D02*
X1109792D01*
X1393000Y546789D02*
Y547000D01*
X1395833Y537817D02*
Y543957D01*
X1393000Y546789D02*
X1395833Y543957D01*
X1394043Y557957D02*
X1419585D01*
X1393000Y547000D02*
Y556915D01*
X1394043Y557957D01*
X1420492Y627508D02*
X1448000Y600000D01*
X1403290Y627508D02*
X1420492D01*
X1113048Y570439D02*
X1113195Y570585D01*
X1098646Y570439D02*
X1113048D01*
X1098500Y570293D02*
X1098646Y570439D01*
X1335545Y552880D02*
X1338206Y555541D01*
X1338214D01*
X1456000Y645000D02*
Y652043D01*
X1467000Y635000D02*
Y663000D01*
X1460000Y628000D02*
X1467000Y635000D01*
X1462957Y667043D02*
X1467000Y663000D01*
X1456000Y667043D02*
X1462957D01*
X1460000Y621043D02*
Y628000D01*
Y621043D02*
X1461042Y620000D01*
X1474543Y572500D02*
X1482500D01*
X1490000Y580000D01*
Y598000D01*
X1468000Y620000D02*
X1490000Y598000D01*
X1461042Y620000D02*
X1468000D01*
X1450500Y572500D02*
X1474543D01*
X1449000D02*
X1450500D01*
X1452865Y570135D01*
Y558894D02*
Y570135D01*
Y558894D02*
X1453943Y557817D01*
Y556942D02*
Y557817D01*
X1338210Y555545D02*
Y562055D01*
Y543705D02*
Y555545D01*
X1332880Y552880D02*
X1335545D01*
X1321915Y541915D02*
X1332880Y552880D01*
X1314458Y541915D02*
X1321915D01*
X1338210Y543705D02*
X1340000Y541915D01*
X1155329Y602621D02*
X1155500Y602793D01*
X1146000Y602450D02*
X1146171Y602621D01*
X1147441Y609292D02*
X1155500D01*
X1146024Y607875D02*
X1147441Y609292D01*
X1140875Y607875D02*
X1146024D01*
X1146171Y602621D02*
X1155329D01*
X1144651Y613300D02*
X1147143Y615793D01*
X1155500D01*
X1143776Y613300D02*
X1144651D01*
X1155500Y596292D02*
X1168847D01*
X1175100Y590039D01*
X1174854Y583146D02*
X1175000Y583000D01*
X1155500Y583293D02*
X1155646Y583146D01*
X1174854D01*
X1155500Y576792D02*
X1155714Y577006D01*
X1165244D01*
X1165458Y577221D01*
X1155500Y570293D02*
X1166708D01*
X1155654Y563639D02*
X1164760D01*
X1155500Y563792D02*
X1155654Y563639D01*
X1164760D02*
X1164914Y563485D01*
X1352000Y620500D02*
Y625000D01*
X1353425Y626425D02*
Y634247D01*
X1352000Y625000D02*
X1353425Y626425D01*
X1352000Y620500D02*
X1352000Y620500D01*
X1343635Y641385D02*
X1344000Y641020D01*
X1363000Y613000D02*
X1367000Y617000D01*
Y617788D01*
X1344150Y613000D02*
X1363000D01*
X1342575Y614575D02*
X1344150Y613000D01*
X1344000Y634672D02*
Y641020D01*
X1342575Y633247D02*
X1344000Y634672D01*
X1342575Y614575D02*
Y633247D01*
X1352000Y635672D02*
X1353425Y634247D01*
X1352000Y635672D02*
Y641750D01*
X595149Y647373D02*
X595149D01*
X586440Y652130D02*
X586643Y651927D01*
X601294Y648270D02*
X601908Y648885D01*
X596792Y645730D02*
X601294D01*
X586643Y651927D02*
X590595D01*
X598838Y649014D02*
X599582Y648270D01*
X601294D01*
X598838Y649014D02*
Y651794D01*
X601294Y645730D02*
X601908Y645115D01*
X590595Y651927D02*
X595149Y647373D01*
X595149D02*
X596792Y645730D01*
X598560Y652072D02*
X598838Y651794D01*
X654538Y580557D02*
X656747D01*
X665057Y572247D01*
X675250Y604500D02*
X675865Y603885D01*
X675503Y619753D02*
X683939D01*
X659115Y582909D02*
X667024Y575000D01*
X653500Y581595D02*
Y587750D01*
X659115Y582909D02*
Y587135D01*
X682188Y603885D02*
X711006Y575067D01*
X665057Y572247D02*
X676753D01*
X653500Y581595D02*
X654538Y580557D01*
X667024Y575000D02*
X684000D01*
X680091Y598885D02*
X706000Y572976D01*
X675250Y591422D02*
Y594500D01*
X601908Y645115D02*
X606135D01*
X697425Y568056D02*
Y569247D01*
X606135Y645115D02*
X606750Y644500D01*
X697425Y568056D02*
X698960D01*
X706000Y568750D02*
Y572976D01*
X675865Y598885D02*
X680091D01*
X601908Y648885D02*
X606135D01*
X675250Y591422D02*
X697425Y569247D01*
X606135Y648885D02*
X606750Y649500D01*
X658500Y587750D02*
X659115Y587135D01*
X676753Y572247D02*
X684000Y565000D01*
X675250Y619500D02*
X675503Y619753D01*
X683939D02*
X684192Y620006D01*
X648500Y656250D02*
X649115Y656865D01*
Y661115D01*
X659000Y671000D01*
X675250Y599500D02*
X675865Y598885D01*
X675250Y609500D02*
X684500D01*
X717000Y577000D01*
Y565000D02*
Y577000D01*
X675865Y603885D02*
X682188D01*
X684000Y575000D02*
X692000Y567000D01*
X1176729Y605174D02*
X1182618D01*
X813000Y504000D02*
Y514000D01*
X818000Y504500D02*
Y507000D01*
Y513500D01*
X809744Y504000D02*
X813000D01*
X809000Y504744D02*
X809744Y504000D01*
X813000Y514000D02*
X818000D01*
X823000D01*
X809000Y513256D02*
X809744Y514000D01*
X813000Y504000D02*
X818000D01*
X809744Y514000D02*
X813000D01*
X809000Y504744D02*
Y513256D01*
X818000Y504000D02*
X823000D01*
Y514000D01*
X828000Y504744D02*
Y513256D01*
X827256Y514000D02*
X828000Y513256D01*
X827256Y504000D02*
X828000Y504744D01*
X823000Y504000D02*
X827256D01*
X823000Y514000D02*
X827256D01*
X1491000Y746000D02*
X1495256D01*
X1491000Y736000D02*
X1495256D01*
X1496000Y736744D01*
X1495256Y746000D02*
X1496000Y745256D01*
Y736744D02*
Y745256D01*
X1491000Y736000D02*
Y746000D01*
X1486000Y736000D02*
X1491000D01*
X1477000Y736744D02*
Y745256D01*
X1477744Y746000D02*
X1481000D01*
Y736000D02*
X1486000D01*
X1477000Y745256D02*
X1477744Y746000D01*
X1486000D02*
X1491000D01*
X1481000D02*
X1486000D01*
X1477000Y736744D02*
X1477744Y736000D01*
X1481000D01*
X1486000Y739000D02*
Y745500D01*
Y736500D02*
Y739000D01*
X1481000Y736000D02*
Y746000D01*
X1386163Y637163D02*
Y687670D01*
X1378500Y629500D02*
X1386163Y637163D01*
X671293Y569707D02*
X703000Y538000D01*
Y522400D02*
Y538000D01*
X696600Y516000D02*
X703000Y522400D01*
X635000Y574000D02*
X642468Y566532D01*
X633500Y582070D02*
X635000Y580570D01*
Y574000D02*
Y580570D01*
X633500Y582070D02*
Y587750D01*
X666468Y566532D02*
X683900Y549100D01*
X642468Y566532D02*
X666468D01*
X683900Y516000D02*
Y549100D01*
X643783Y569707D02*
X671293D01*
X639246Y574244D02*
X643783Y569707D01*
X639246Y574244D02*
X639246D01*
X638500Y574990D02*
Y587750D01*
Y574990D02*
X639246Y574244D01*
X1359250Y646750D02*
Y649000D01*
Y646750D02*
X1364756Y641244D01*
X1366756D01*
X1378500Y629500D01*
X1348000Y641750D02*
X1348000Y641750D01*
X1348000Y632000D02*
Y641750D01*
X1343635Y641385D02*
X1344000Y641750D01*
X1182487Y572345D02*
Y577737D01*
X1183500Y578750D01*
X1183292Y552500D02*
X1183500Y552293D01*
X1176287Y552500D02*
X1183292D01*
X1246230Y585000D02*
X1246500Y584730D01*
Y541500D02*
Y584730D01*
X1246224Y584994D02*
X1246230Y585000D01*
X1245764Y584994D02*
X1246224D01*
X1253000Y584730D02*
X1253270Y585000D01*
X1252885D02*
X1253270D01*
X1252804Y585081D02*
X1252885Y585000D01*
X1253000Y541500D02*
Y584730D01*
X1260500Y542500D02*
Y581000D01*
X1259500Y541500D02*
X1260500Y542500D01*
X1182618Y605174D02*
X1183500Y604293D01*
X748365Y649365D02*
X753000Y654000D01*
X744000Y641000D02*
X748365Y645365D01*
Y649365D01*
D16*
X1098500Y615793D02*
D03*
X1098500Y609292D02*
D03*
X1098500Y602793D02*
D03*
X1098500Y596292D02*
D03*
Y589793D02*
D03*
Y583293D02*
D03*
Y576792D02*
D03*
X1098500Y570293D02*
D03*
X1098500Y563792D02*
D03*
X1098500Y557293D02*
D03*
X1155500Y615793D02*
D03*
X1155500Y609292D02*
D03*
X1155500Y602793D02*
D03*
X1155500Y596292D02*
D03*
Y589793D02*
D03*
Y583293D02*
D03*
Y576792D02*
D03*
X1155500Y570293D02*
D03*
X1155500Y563792D02*
D03*
X1155500Y557293D02*
D03*
D17*
X1094500Y713000D02*
D03*
Y693000D02*
D03*
D18*
X1037000Y736500D02*
D03*
Y669500D02*
D03*
D19*
X912000Y708000D02*
D03*
D20*
X546000Y618000D02*
D03*
Y646000D02*
D03*
D21*
X1425500Y601000D02*
D03*
X1406500D02*
D03*
D22*
X1263000Y514500D02*
D03*
X1243000D02*
D03*
D23*
X1266000Y541500D02*
D03*
X1259500D02*
D03*
X1253000D02*
D03*
X1246500D02*
D03*
X1240000D02*
D03*
D24*
X1211000Y659000D02*
D03*
Y633000D02*
D03*
D25*
X1340000Y661000D02*
D03*
D26*
X1320750Y649000D02*
D03*
Y653000D02*
D03*
Y657000D02*
D03*
Y661000D02*
D03*
Y665000D02*
D03*
Y669000D02*
D03*
Y673000D02*
D03*
X1359250D02*
D03*
Y669000D02*
D03*
Y665000D02*
D03*
Y661000D02*
D03*
Y657000D02*
D03*
Y653000D02*
D03*
Y649000D02*
D03*
D27*
X1328000Y680250D02*
D03*
X1332000D02*
D03*
X1336000D02*
D03*
X1340000D02*
D03*
X1344000D02*
D03*
X1348000D02*
D03*
X1352000D02*
D03*
Y641750D02*
D03*
X1348000D02*
D03*
X1344000D02*
D03*
X1340000D02*
D03*
X1336000D02*
D03*
X1332000D02*
D03*
D28*
X1328000D02*
D03*
D29*
X1392585Y532413D02*
D03*
X1341458Y567460D02*
D03*
D30*
X1395835Y527013D02*
D03*
X1389335Y527013D02*
D03*
Y537813D02*
D03*
X1344707Y562060D02*
D03*
Y572860D02*
D03*
X1338208D02*
D03*
D31*
X1395833Y537817D02*
D03*
X1338210Y562055D02*
D03*
D32*
X632270Y551646D02*
D03*
X608270D02*
D03*
D33*
X707000Y712000D02*
D03*
Y696000D02*
D03*
X685000Y712000D02*
D03*
D34*
Y696000D02*
D03*
D35*
X613500Y587750D02*
D03*
D36*
X618500D02*
D03*
X623500D02*
D03*
X628500D02*
D03*
X633500D02*
D03*
X638500Y587750D02*
D03*
X643500D02*
D03*
X648500Y587750D02*
D03*
X653500D02*
D03*
X658500D02*
D03*
X663500D02*
D03*
X668500D02*
D03*
Y656250D02*
D03*
X663500D02*
D03*
X658500D02*
D03*
X653500D02*
D03*
X648500D02*
D03*
X643500Y656250D02*
D03*
X638500D02*
D03*
X633500Y656250D02*
D03*
X628500D02*
D03*
X623500D02*
D03*
X618500D02*
D03*
X613500D02*
D03*
D37*
X675250Y594500D02*
D03*
Y599500D02*
D03*
Y604500D02*
D03*
Y609500D02*
D03*
Y614500D02*
D03*
X675250Y619500D02*
D03*
Y624500D02*
D03*
X675250Y629500D02*
D03*
Y634500D02*
D03*
Y639500D02*
D03*
Y644500D02*
D03*
Y649500D02*
D03*
X606750D02*
D03*
Y644500D02*
D03*
Y639500D02*
D03*
Y634500D02*
D03*
Y629500D02*
D03*
X606750Y624500D02*
D03*
Y619500D02*
D03*
X606750Y614500D02*
D03*
Y609500D02*
D03*
Y604500D02*
D03*
Y599500D02*
D03*
Y594500D02*
D03*
D38*
X641000Y622000D02*
D03*
D39*
X827000Y693000D02*
D03*
Y685000D02*
D03*
X832000D02*
D03*
X822000Y693000D02*
D03*
X832000D02*
D03*
D40*
X822000Y685000D02*
D03*
D41*
X771000Y530000D02*
D03*
X805000D02*
D03*
X771000Y570000D02*
D03*
X805000D02*
D03*
D42*
X748000Y610000D02*
D03*
X776000D02*
D03*
X1219000Y706000D02*
D03*
X1191000D02*
D03*
D43*
X1352000Y605500D02*
D03*
X1378000Y720000D02*
D03*
X1456000Y667043D02*
D03*
X1353000Y720498D02*
D03*
X1326333Y700000D02*
D03*
X1419628Y541915D02*
D03*
X1419585Y572957D02*
D03*
X1394043D02*
D03*
X1365543Y541915D02*
D03*
X1314458Y526915D02*
D03*
X1340000D02*
D03*
X1368500Y557957D02*
D03*
X1300457Y715000D02*
D03*
X800000Y691708D02*
D03*
X765000D02*
D03*
X854000D02*
D03*
X889000D02*
D03*
X1314415Y557957D02*
D03*
X1449000Y572500D02*
D03*
X1474543D02*
D03*
X585000Y543500D02*
D03*
X656793Y558500D02*
D03*
D44*
X1352000Y620500D02*
D03*
X1378000Y705000D02*
D03*
X1456000Y652043D02*
D03*
X1353000Y705498D02*
D03*
X1326333Y715000D02*
D03*
X1419628Y526915D02*
D03*
X1419585Y557957D02*
D03*
X1394043D02*
D03*
X1365542Y526915D02*
D03*
X1314458Y541915D02*
D03*
X1340000D02*
D03*
X1368500Y572957D02*
D03*
X1300457Y700000D02*
D03*
X800000Y676708D02*
D03*
X765000D02*
D03*
X854000Y676708D02*
D03*
X889000Y676708D02*
D03*
X1314415Y572957D02*
D03*
X1449000Y587500D02*
D03*
X1474543D02*
D03*
X585000Y558500D02*
D03*
X656793Y543500D02*
D03*
D45*
X1275500Y581000D02*
D03*
X1461042Y620000D02*
D03*
X1299500Y673000D02*
D03*
X1380499Y679189D02*
D03*
X1380500Y653542D02*
D03*
X1395500Y628000D02*
D03*
X1198500Y552293D02*
D03*
Y578750D02*
D03*
Y604293D02*
D03*
X659500Y733000D02*
D03*
D46*
X1260500Y581000D02*
D03*
X1446042Y620000D02*
D03*
X1284500Y673000D02*
D03*
X1395499Y679189D02*
D03*
X1395500Y653542D02*
D03*
X1380500Y628000D02*
D03*
X1183500Y552293D02*
D03*
Y578750D02*
D03*
Y604293D02*
D03*
X644500Y733000D02*
D03*
D47*
X775000Y708000D02*
D03*
X790700D02*
D03*
X863150D02*
D03*
X878850D02*
D03*
D48*
X1282005Y514505D02*
D03*
D49*
X1224005Y514505D02*
D03*
D90*
X949000Y644000D02*
Y733000D01*
X937000Y644000D02*
X949000D01*
X937000D02*
Y733000D01*
X973000Y644000D02*
Y705750D01*
X961000Y644000D02*
X973000D01*
X961000D02*
Y733000D01*
X949000D02*
X961000D01*
X925000D02*
X937000D01*
X925000Y708000D02*
Y733000D01*
X912000Y708000D02*
X925000D01*
D91*
X1297881Y634881D02*
X1323881D01*
X1328000Y639000D01*
Y641750D01*
X1294000Y631000D02*
X1297881Y634881D01*
X1294000Y612149D02*
Y631000D01*
D92*
X1218000Y514500D02*
D03*
X1288000D02*
D03*
D93*
X1228000Y541500D02*
D03*
X1278000Y541500D02*
D03*
D94*
X617257Y734000D02*
D03*
X1041000Y524000D02*
D03*
D95*
X591857Y734000D02*
D03*
X566457D02*
D03*
X541058D02*
D03*
X515658D02*
D03*
X1432000Y694000D02*
D03*
X1066400Y524000D02*
D03*
D96*
X1432000Y719400D02*
D03*
D97*
X696600Y516000D02*
D03*
X683900D02*
D03*
X671200D02*
D03*
X658500D02*
D03*
X645800D02*
D03*
X633100D02*
D03*
X620400D02*
D03*
X607700D02*
D03*
X756700Y641000D02*
D03*
X823700Y737000D02*
D03*
X836400D02*
D03*
X962700Y520000D02*
D03*
X1107700Y516000D02*
D03*
X1120400D02*
D03*
X1133100D02*
D03*
X1145800D02*
D03*
X1158500D02*
D03*
X1171200D02*
D03*
X1183900D02*
D03*
X1196600D02*
D03*
X1342400Y737000D02*
D03*
X1329700D02*
D03*
X1462700Y520000D02*
D03*
X1256700Y641000D02*
D03*
D98*
X595000Y516000D02*
D03*
X744000Y641000D02*
D03*
X811000Y737000D02*
D03*
X950000Y520000D02*
D03*
X1095000Y516000D02*
D03*
X1317000Y737000D02*
D03*
X1450000Y520000D02*
D03*
X1244000Y641000D02*
D03*
D99*
X788000Y530000D02*
D03*
Y570000D02*
D03*
D100*
X1164250Y590045D02*
D03*
X1113648Y563560D02*
D03*
X1125768Y569000D02*
D03*
X1194060Y565575D02*
D03*
X1180425Y569409D02*
D03*
X1111710Y581000D02*
D03*
X1393000Y547000D02*
D03*
X1075353Y624647D02*
D03*
X1081842Y615793D02*
D03*
X1403290Y627508D02*
D03*
X1406000Y620000D02*
D03*
X1393000Y616000D02*
D03*
X1113195Y570585D02*
D03*
X1338214Y555541D02*
D03*
X1356000Y594000D02*
D03*
X1456000Y645000D02*
D03*
X1460000Y628000D02*
D03*
X1456000Y611020D02*
D03*
X1448000Y600000D02*
D03*
X1453943Y556942D02*
D03*
X1357463Y548791D02*
D03*
X1146000Y602450D02*
D03*
X1074698Y602343D02*
D03*
X1084293Y583293D02*
D03*
X1051000Y606000D02*
D03*
X1052000Y596060D02*
D03*
X1217420Y620925D02*
D03*
X1143776Y613300D02*
D03*
X1357000Y569841D02*
D03*
X1377453Y548424D02*
D03*
X1350700Y557910D02*
D03*
X1131038Y712962D02*
D03*
X1367000Y617788D02*
D03*
X1343000Y725000D02*
D03*
X1316547Y648672D02*
D03*
X993751Y615001D02*
D03*
X990001Y607501D02*
D03*
X993751Y600001D02*
D03*
X990001Y592501D02*
D03*
X993751Y585001D02*
D03*
X990001Y577501D02*
D03*
X993751Y570001D02*
D03*
X990001Y562501D02*
D03*
X993751Y555001D02*
D03*
X990001Y547501D02*
D03*
X993751Y540001D02*
D03*
X990001Y532501D02*
D03*
X993751Y525001D02*
D03*
X990001Y517501D02*
D03*
X993751Y510001D02*
D03*
X986251Y615001D02*
D03*
X982501Y607501D02*
D03*
X986251Y600001D02*
D03*
X982501Y592501D02*
D03*
X986251Y585001D02*
D03*
X982501Y577501D02*
D03*
X986251Y570001D02*
D03*
X982501Y562501D02*
D03*
X986251Y555001D02*
D03*
X982501Y547501D02*
D03*
X986251Y540001D02*
D03*
X982501Y532501D02*
D03*
X986251Y525001D02*
D03*
X982501Y517501D02*
D03*
X986251Y510001D02*
D03*
X978751Y615001D02*
D03*
X975001Y607501D02*
D03*
X978751Y600001D02*
D03*
X975001Y592501D02*
D03*
X978751Y585001D02*
D03*
X975001Y577501D02*
D03*
X978751Y570001D02*
D03*
X975001Y562501D02*
D03*
X978751Y555001D02*
D03*
X975001Y547501D02*
D03*
X978751Y540001D02*
D03*
X975001Y532501D02*
D03*
X978751Y525001D02*
D03*
X975001Y517501D02*
D03*
X978751Y510001D02*
D03*
X971251Y615001D02*
D03*
X967501Y607501D02*
D03*
X971251Y600001D02*
D03*
X967501Y592501D02*
D03*
X971251Y585001D02*
D03*
X967501Y577501D02*
D03*
X971251Y570001D02*
D03*
X967501Y562501D02*
D03*
X971251Y555001D02*
D03*
X967501Y547501D02*
D03*
X971251Y540001D02*
D03*
X967501Y532501D02*
D03*
X971251Y525001D02*
D03*
Y510001D02*
D03*
X963751Y615001D02*
D03*
X960001Y607501D02*
D03*
X963751Y600001D02*
D03*
X960001Y592501D02*
D03*
X963751Y585001D02*
D03*
X960001Y577501D02*
D03*
X963751Y570001D02*
D03*
X960001Y562501D02*
D03*
X963751Y555001D02*
D03*
X960001Y547501D02*
D03*
X963751Y540001D02*
D03*
X960001Y532501D02*
D03*
X963751Y510001D02*
D03*
X956251Y615001D02*
D03*
X952501Y607501D02*
D03*
X956251Y600001D02*
D03*
X952501Y592501D02*
D03*
X956251Y585001D02*
D03*
X952501Y577501D02*
D03*
X956251Y570001D02*
D03*
X952501Y562501D02*
D03*
X956251Y555001D02*
D03*
X952501Y547501D02*
D03*
X956251Y540001D02*
D03*
X952501Y532501D02*
D03*
X956251Y510001D02*
D03*
X948751Y615001D02*
D03*
X945001Y607501D02*
D03*
X948751Y600001D02*
D03*
X945001Y592501D02*
D03*
X948751Y585001D02*
D03*
X945001Y577501D02*
D03*
X948751Y570001D02*
D03*
X945001Y562501D02*
D03*
X948751Y555001D02*
D03*
X945001Y547501D02*
D03*
X948751Y540001D02*
D03*
X945001Y532501D02*
D03*
X948751Y510001D02*
D03*
X941251Y615001D02*
D03*
X937501Y607501D02*
D03*
X941251Y600001D02*
D03*
X937501Y592501D02*
D03*
X941251Y585001D02*
D03*
X937501Y577501D02*
D03*
X941251Y570001D02*
D03*
X937501Y562501D02*
D03*
X941251Y555001D02*
D03*
X937501Y547501D02*
D03*
X941251Y540001D02*
D03*
X937501Y532501D02*
D03*
X941251Y510001D02*
D03*
X933751Y615001D02*
D03*
X930001Y607501D02*
D03*
X933751Y600001D02*
D03*
X930001Y592501D02*
D03*
X933751Y585001D02*
D03*
X930001Y577501D02*
D03*
X933751Y570001D02*
D03*
X930001Y562501D02*
D03*
X933751Y555001D02*
D03*
X930001Y547501D02*
D03*
X933751Y540001D02*
D03*
X930001Y532501D02*
D03*
X933751Y510001D02*
D03*
X926251Y615001D02*
D03*
X922501Y607501D02*
D03*
X926251Y600001D02*
D03*
X922501Y592501D02*
D03*
X926251Y585001D02*
D03*
X922501Y577501D02*
D03*
X926251Y570001D02*
D03*
X922501Y562501D02*
D03*
X926251Y555001D02*
D03*
X922501Y547501D02*
D03*
X926251Y540001D02*
D03*
X922501Y532501D02*
D03*
X926251Y510001D02*
D03*
X918751Y615001D02*
D03*
X915001Y607501D02*
D03*
X918751Y600001D02*
D03*
X915001Y592501D02*
D03*
X918751Y585001D02*
D03*
X915001Y577501D02*
D03*
X918751Y570001D02*
D03*
X915001Y562501D02*
D03*
X918751Y555001D02*
D03*
X915001Y547501D02*
D03*
X918751Y540001D02*
D03*
X915001Y532501D02*
D03*
X918751Y510001D02*
D03*
X911251Y615001D02*
D03*
X907501Y607501D02*
D03*
X911251Y600001D02*
D03*
X907501Y592501D02*
D03*
X911251Y585001D02*
D03*
X907501Y577501D02*
D03*
X911251Y570001D02*
D03*
X907501Y562501D02*
D03*
X911251Y555001D02*
D03*
X907501Y547501D02*
D03*
X911251Y540001D02*
D03*
X907501Y532501D02*
D03*
X911251Y510001D02*
D03*
X900001Y742501D02*
D03*
Y727501D02*
D03*
Y697501D02*
D03*
Y682501D02*
D03*
Y667501D02*
D03*
Y652501D02*
D03*
Y637501D02*
D03*
Y622501D02*
D03*
X903751Y615001D02*
D03*
X900001Y607501D02*
D03*
X903751Y600001D02*
D03*
X900001Y592501D02*
D03*
X903751Y585001D02*
D03*
X900001Y577501D02*
D03*
X903751Y570001D02*
D03*
X900001Y562501D02*
D03*
X903751Y555001D02*
D03*
X900001Y547501D02*
D03*
X903751Y540001D02*
D03*
X900001Y532501D02*
D03*
X903751Y510001D02*
D03*
X892501Y742501D02*
D03*
X896251Y735001D02*
D03*
X892501Y727501D02*
D03*
X896251Y720001D02*
D03*
X892501Y667501D02*
D03*
X896251Y660001D02*
D03*
X892501Y652501D02*
D03*
X896251Y645001D02*
D03*
X892501Y637501D02*
D03*
X896251Y630001D02*
D03*
X892501Y622501D02*
D03*
X896251Y615001D02*
D03*
X892501Y607501D02*
D03*
X896251Y600001D02*
D03*
X892501Y592501D02*
D03*
X896251Y585001D02*
D03*
X892501Y577501D02*
D03*
X896251Y570001D02*
D03*
X892501Y562501D02*
D03*
X896251Y555001D02*
D03*
X892501Y547501D02*
D03*
X896251Y540001D02*
D03*
X892501Y532501D02*
D03*
X896251Y510001D02*
D03*
X885001Y742501D02*
D03*
X888751Y735001D02*
D03*
X885001Y727501D02*
D03*
X888751Y720001D02*
D03*
X885001Y667501D02*
D03*
X888751Y660001D02*
D03*
X885001Y652501D02*
D03*
X888751Y645001D02*
D03*
X885001Y637501D02*
D03*
X888751Y630001D02*
D03*
X885001Y622501D02*
D03*
X888751Y615001D02*
D03*
X885001Y607501D02*
D03*
X888751Y600001D02*
D03*
X885001Y592501D02*
D03*
X888751Y585001D02*
D03*
X885001Y577501D02*
D03*
X888751Y570001D02*
D03*
X885001Y562501D02*
D03*
X888751Y555001D02*
D03*
X885001Y547501D02*
D03*
X888751Y540001D02*
D03*
X885001Y532501D02*
D03*
X888751Y510001D02*
D03*
X877501Y742501D02*
D03*
X881251Y735001D02*
D03*
X877501Y727501D02*
D03*
X881251Y720001D02*
D03*
X877501Y697501D02*
D03*
Y682501D02*
D03*
Y667501D02*
D03*
X881251Y660001D02*
D03*
X877501Y652501D02*
D03*
X881251Y645001D02*
D03*
X877501Y637501D02*
D03*
X881251Y630001D02*
D03*
X877501Y622501D02*
D03*
X881251Y615001D02*
D03*
X877501Y607501D02*
D03*
X881251Y600001D02*
D03*
X877501Y592501D02*
D03*
X881251Y585001D02*
D03*
X877501Y577501D02*
D03*
X881251Y570001D02*
D03*
X877501Y562501D02*
D03*
X881251Y555001D02*
D03*
X877501Y547501D02*
D03*
X881251Y540001D02*
D03*
X877501Y532501D02*
D03*
X881251Y510001D02*
D03*
X870001Y742501D02*
D03*
X873751Y735001D02*
D03*
X870001Y727501D02*
D03*
X873751Y720001D02*
D03*
X870001Y697501D02*
D03*
X873751Y690001D02*
D03*
X870001Y682501D02*
D03*
X873751Y675001D02*
D03*
X870001Y667501D02*
D03*
X873751Y660001D02*
D03*
X870001Y652501D02*
D03*
X873751Y645001D02*
D03*
X870001Y637501D02*
D03*
X873751Y630001D02*
D03*
X870001Y622501D02*
D03*
X873751Y615001D02*
D03*
X870001Y607501D02*
D03*
X873751Y600001D02*
D03*
X870001Y592501D02*
D03*
X873751Y585001D02*
D03*
X870001Y577501D02*
D03*
X873751Y570001D02*
D03*
X870001Y562501D02*
D03*
X873751Y555001D02*
D03*
X870001Y547501D02*
D03*
X873751Y540001D02*
D03*
X870001Y532501D02*
D03*
X873751Y510001D02*
D03*
X862501Y742501D02*
D03*
X866251Y735001D02*
D03*
X862501Y727501D02*
D03*
X866251Y720001D02*
D03*
X862501Y697501D02*
D03*
X866251Y690001D02*
D03*
X862501Y682501D02*
D03*
X866251Y675001D02*
D03*
X862501Y667501D02*
D03*
X866251Y660001D02*
D03*
X862501Y652501D02*
D03*
X866251Y645001D02*
D03*
X862501Y637501D02*
D03*
X866251Y630001D02*
D03*
X862501Y622501D02*
D03*
X866251Y615001D02*
D03*
X862501Y607501D02*
D03*
X866251Y600001D02*
D03*
X862501Y592501D02*
D03*
X866251Y585001D02*
D03*
X862501Y577501D02*
D03*
X866251Y570001D02*
D03*
X862501Y562501D02*
D03*
X866251Y555001D02*
D03*
X862501Y547501D02*
D03*
X866251Y540001D02*
D03*
X862501Y532501D02*
D03*
X866251Y510001D02*
D03*
X855001Y742501D02*
D03*
X858751Y735001D02*
D03*
X855001Y727501D02*
D03*
X858751Y720001D02*
D03*
X855001Y667501D02*
D03*
X858751Y660001D02*
D03*
X855001Y652501D02*
D03*
X858751Y645001D02*
D03*
X855001Y637501D02*
D03*
X858751Y630001D02*
D03*
X855001Y622501D02*
D03*
X858751Y615001D02*
D03*
X855001Y607501D02*
D03*
X858751Y600001D02*
D03*
X855001Y592501D02*
D03*
X858751Y585001D02*
D03*
X855001Y577501D02*
D03*
X858751Y570001D02*
D03*
X855001Y562501D02*
D03*
X858751Y555001D02*
D03*
X855001Y547501D02*
D03*
X858751Y540001D02*
D03*
X855001Y532501D02*
D03*
X858751Y510001D02*
D03*
X847501Y742501D02*
D03*
X851251Y735001D02*
D03*
X847501Y727501D02*
D03*
X851251Y720001D02*
D03*
X847501Y712501D02*
D03*
Y682501D02*
D03*
Y667501D02*
D03*
X851251Y660001D02*
D03*
X847501Y652501D02*
D03*
X851251Y645001D02*
D03*
X847501Y637501D02*
D03*
X851251Y630001D02*
D03*
X847501Y622501D02*
D03*
X851251Y615001D02*
D03*
X847501Y607501D02*
D03*
X851251Y600001D02*
D03*
X847501Y592501D02*
D03*
X851251Y585001D02*
D03*
X847501Y577501D02*
D03*
X851251Y570001D02*
D03*
X847501Y562501D02*
D03*
X851251Y555001D02*
D03*
X847501Y547501D02*
D03*
X851251Y540001D02*
D03*
X847501Y532501D02*
D03*
X851251Y510001D02*
D03*
X840001Y727501D02*
D03*
X843751Y720001D02*
D03*
X840001Y712501D02*
D03*
X843751Y705001D02*
D03*
X840001Y682501D02*
D03*
X843751Y675001D02*
D03*
X840001Y667501D02*
D03*
X843751Y660001D02*
D03*
X840001Y652501D02*
D03*
X843751Y645001D02*
D03*
X840001Y637501D02*
D03*
X843751Y630001D02*
D03*
X840001Y622501D02*
D03*
X843751Y615001D02*
D03*
X840001Y607501D02*
D03*
X843751Y600001D02*
D03*
X840001Y592501D02*
D03*
X843751Y585001D02*
D03*
X840001Y577501D02*
D03*
X843751Y570001D02*
D03*
X840001Y562501D02*
D03*
X843751Y555001D02*
D03*
X840001Y547501D02*
D03*
X843751Y540001D02*
D03*
X840001Y532501D02*
D03*
X843751Y510001D02*
D03*
X836251Y720001D02*
D03*
X832501Y712501D02*
D03*
X836251Y705001D02*
D03*
Y675001D02*
D03*
X832501Y667501D02*
D03*
X836251Y660001D02*
D03*
X832501Y652501D02*
D03*
X836251Y645001D02*
D03*
X832501Y637501D02*
D03*
X836251Y630001D02*
D03*
X832501Y622501D02*
D03*
X836251Y615001D02*
D03*
X832501Y607501D02*
D03*
X836251Y600001D02*
D03*
X832501Y592501D02*
D03*
X836251Y585001D02*
D03*
X832501Y577501D02*
D03*
X836251Y570001D02*
D03*
X832501Y562501D02*
D03*
X836251Y555001D02*
D03*
X832501Y547501D02*
D03*
X836251Y540001D02*
D03*
X832501Y532501D02*
D03*
X836251Y510001D02*
D03*
X828751Y720001D02*
D03*
X825001Y712501D02*
D03*
X828751Y705001D02*
D03*
Y675001D02*
D03*
X825001Y667501D02*
D03*
X828751Y660001D02*
D03*
X825001Y652501D02*
D03*
X828751Y645001D02*
D03*
X825001Y637501D02*
D03*
X828751Y630001D02*
D03*
X825001Y622501D02*
D03*
X828751Y615001D02*
D03*
X825001Y607501D02*
D03*
X828751Y600001D02*
D03*
X825001Y592501D02*
D03*
X828751Y585001D02*
D03*
X825001Y577501D02*
D03*
X828751Y570001D02*
D03*
X825001Y562501D02*
D03*
X828751Y555001D02*
D03*
X825001Y547501D02*
D03*
X828751Y540001D02*
D03*
X825001Y532501D02*
D03*
X821251Y720001D02*
D03*
X817501Y712501D02*
D03*
X821251Y705001D02*
D03*
Y675001D02*
D03*
X817501Y667501D02*
D03*
X821251Y660001D02*
D03*
X817501Y652501D02*
D03*
X821251Y645001D02*
D03*
X817501Y637501D02*
D03*
X821251Y630001D02*
D03*
X817501Y622501D02*
D03*
X821251Y615001D02*
D03*
X817501Y607501D02*
D03*
X821251Y600001D02*
D03*
X817501Y592501D02*
D03*
X821251Y585001D02*
D03*
X817501Y577501D02*
D03*
X821251Y570001D02*
D03*
X817501Y562501D02*
D03*
X821251Y555001D02*
D03*
X817501Y547501D02*
D03*
X821251Y540001D02*
D03*
X817501Y532501D02*
D03*
X813751Y720001D02*
D03*
X810001Y712501D02*
D03*
X813751Y705001D02*
D03*
X810001Y697501D02*
D03*
X813751Y675001D02*
D03*
X810001Y667501D02*
D03*
X813751Y660001D02*
D03*
X810001Y652501D02*
D03*
X813751Y645001D02*
D03*
X810001Y637501D02*
D03*
X813751Y630001D02*
D03*
X810001Y622501D02*
D03*
X813751Y615001D02*
D03*
X810001Y607501D02*
D03*
X813751Y600001D02*
D03*
X810001Y592501D02*
D03*
X813751Y585001D02*
D03*
Y570001D02*
D03*
Y555001D02*
D03*
X810001Y547501D02*
D03*
X813751Y540001D02*
D03*
X806251Y720001D02*
D03*
X802501Y712501D02*
D03*
X806251Y705001D02*
D03*
X802501Y667501D02*
D03*
X806251Y660001D02*
D03*
X802501Y652501D02*
D03*
X806251Y645001D02*
D03*
X802501Y637501D02*
D03*
X806251Y630001D02*
D03*
Y615001D02*
D03*
Y600001D02*
D03*
X802501Y592501D02*
D03*
X806251Y585001D02*
D03*
Y555001D02*
D03*
X802501Y547501D02*
D03*
X798751Y720001D02*
D03*
X795001Y667501D02*
D03*
X798751Y660001D02*
D03*
X795001Y652501D02*
D03*
X798751Y645001D02*
D03*
X795001Y637501D02*
D03*
X798751Y630001D02*
D03*
X795001Y592501D02*
D03*
X798751Y585001D02*
D03*
X795001Y577501D02*
D03*
Y562501D02*
D03*
X798751Y555001D02*
D03*
X795001Y547501D02*
D03*
Y517501D02*
D03*
X798751Y510001D02*
D03*
X791251Y720001D02*
D03*
X787501Y697501D02*
D03*
Y682501D02*
D03*
X791251Y675001D02*
D03*
X787501Y667501D02*
D03*
X791251Y660001D02*
D03*
X787501Y652501D02*
D03*
X791251Y645001D02*
D03*
X787501Y637501D02*
D03*
Y592501D02*
D03*
X791251Y585001D02*
D03*
Y555001D02*
D03*
X787501Y517501D02*
D03*
X791251Y510001D02*
D03*
X783751Y720001D02*
D03*
X780001Y697501D02*
D03*
X783751Y690001D02*
D03*
X780001Y682501D02*
D03*
X783751Y675001D02*
D03*
X780001Y667501D02*
D03*
X783751Y660001D02*
D03*
X780001Y652501D02*
D03*
X783751Y645001D02*
D03*
X780001Y637501D02*
D03*
Y592501D02*
D03*
X783751Y585001D02*
D03*
X780001Y577501D02*
D03*
Y562501D02*
D03*
X783751Y555001D02*
D03*
X780001Y517501D02*
D03*
X783751Y510001D02*
D03*
X776251Y720001D02*
D03*
Y690001D02*
D03*
X772501Y682501D02*
D03*
X776251Y675001D02*
D03*
X772501Y667501D02*
D03*
X776251Y660001D02*
D03*
X772501Y652501D02*
D03*
X776251Y645001D02*
D03*
X772501Y637501D02*
D03*
X776251Y555001D02*
D03*
Y510001D02*
D03*
X765001Y742501D02*
D03*
X768751Y720001D02*
D03*
X765001Y712501D02*
D03*
Y667501D02*
D03*
X768751Y660001D02*
D03*
X765001Y652501D02*
D03*
X768751Y645001D02*
D03*
Y555001D02*
D03*
Y510001D02*
D03*
X757501Y742501D02*
D03*
Y682501D02*
D03*
Y667501D02*
D03*
X761251Y660001D02*
D03*
Y615001D02*
D03*
Y600001D02*
D03*
X757501Y592501D02*
D03*
X761251Y585001D02*
D03*
X757501Y562501D02*
D03*
X761251Y555001D02*
D03*
Y540001D02*
D03*
X757501Y517501D02*
D03*
X761251Y510001D02*
D03*
X750001Y742501D02*
D03*
X753751Y705001D02*
D03*
X750001Y697501D02*
D03*
X753751Y675001D02*
D03*
Y630001D02*
D03*
Y540001D02*
D03*
X750001Y517501D02*
D03*
X753751Y510001D02*
D03*
X742501Y742501D02*
D03*
X746251Y735001D02*
D03*
X742501Y697501D02*
D03*
X746251Y630001D02*
D03*
Y525001D02*
D03*
X742501Y517501D02*
D03*
X746251Y510001D02*
D03*
X735001Y742501D02*
D03*
X738751Y735001D02*
D03*
X735001Y727501D02*
D03*
Y697501D02*
D03*
X738751Y690001D02*
D03*
Y660001D02*
D03*
X735001Y652501D02*
D03*
Y562501D02*
D03*
X738751Y555001D02*
D03*
X735001Y547501D02*
D03*
X738751Y540001D02*
D03*
X735001Y532501D02*
D03*
X738751Y525001D02*
D03*
X735001Y517501D02*
D03*
X738751Y510001D02*
D03*
X727501Y742501D02*
D03*
X731251Y735001D02*
D03*
X727501Y727501D02*
D03*
Y697501D02*
D03*
X731251Y690001D02*
D03*
X727501Y652501D02*
D03*
X731251Y645001D02*
D03*
X727501Y637501D02*
D03*
X731251Y570001D02*
D03*
Y555001D02*
D03*
X727501Y547501D02*
D03*
X731251Y540001D02*
D03*
X727501Y532501D02*
D03*
X731251Y525001D02*
D03*
X727501Y517501D02*
D03*
X731251Y510001D02*
D03*
X720001Y742501D02*
D03*
X723751Y735001D02*
D03*
X720001Y727501D02*
D03*
Y697501D02*
D03*
X723751Y690001D02*
D03*
X720001Y667501D02*
D03*
X723751Y645001D02*
D03*
X720001Y637501D02*
D03*
X723751Y630001D02*
D03*
X720001Y622501D02*
D03*
X723751Y555001D02*
D03*
X720001Y547501D02*
D03*
X723751Y540001D02*
D03*
X720001Y532501D02*
D03*
X723751Y525001D02*
D03*
X720001Y517501D02*
D03*
X723751Y510001D02*
D03*
X712501Y742501D02*
D03*
X716251Y735001D02*
D03*
X712501Y727501D02*
D03*
Y667501D02*
D03*
Y637501D02*
D03*
X716251Y630001D02*
D03*
X712501Y622501D02*
D03*
X716251Y600001D02*
D03*
Y540001D02*
D03*
X712501Y532501D02*
D03*
X716251Y525001D02*
D03*
X712501Y517501D02*
D03*
X716251Y510001D02*
D03*
X705001Y742501D02*
D03*
X708751Y735001D02*
D03*
X705001Y727501D02*
D03*
Y667501D02*
D03*
X708751Y660001D02*
D03*
Y600001D02*
D03*
Y540001D02*
D03*
Y525001D02*
D03*
Y510001D02*
D03*
X697501Y742501D02*
D03*
X701251Y735001D02*
D03*
X697501Y727501D02*
D03*
X690001Y742501D02*
D03*
X693751Y735001D02*
D03*
X690001Y727501D02*
D03*
X682501Y742501D02*
D03*
X686251Y735001D02*
D03*
X682501Y727501D02*
D03*
X675001Y742501D02*
D03*
X678751Y735001D02*
D03*
X675001Y727501D02*
D03*
Y682501D02*
D03*
X667501Y742501D02*
D03*
X671251Y735001D02*
D03*
X667501Y727501D02*
D03*
Y697501D02*
D03*
X671251Y690001D02*
D03*
X660001Y742501D02*
D03*
Y697501D02*
D03*
X663751Y690001D02*
D03*
X652501Y742501D02*
D03*
Y727501D02*
D03*
X645001Y742501D02*
D03*
Y547501D02*
D03*
X637501Y742501D02*
D03*
Y562501D02*
D03*
X630001Y742501D02*
D03*
X633751Y735001D02*
D03*
X611251Y540001D02*
D03*
X600001Y682501D02*
D03*
X603751Y660001D02*
D03*
X600001Y562501D02*
D03*
X596251Y705001D02*
D03*
X592501Y562501D02*
D03*
X596251Y555001D02*
D03*
X588751Y705001D02*
D03*
X585001Y607501D02*
D03*
Y577501D02*
D03*
X588751Y570001D02*
D03*
X585001Y532501D02*
D03*
Y517501D02*
D03*
X577501Y742501D02*
D03*
X581251Y615001D02*
D03*
X577501Y607501D02*
D03*
X581251Y585001D02*
D03*
X577501Y577501D02*
D03*
X581251Y570001D02*
D03*
X577501Y562501D02*
D03*
Y532501D02*
D03*
X581251Y525001D02*
D03*
X577501Y517501D02*
D03*
X581251Y510001D02*
D03*
X570001Y682501D02*
D03*
Y622501D02*
D03*
X573751Y615001D02*
D03*
X570001Y607501D02*
D03*
Y592501D02*
D03*
X573751Y585001D02*
D03*
X570001Y577501D02*
D03*
X573751Y570001D02*
D03*
X570001Y562501D02*
D03*
X573751Y555001D02*
D03*
X570001Y547501D02*
D03*
X573751Y540001D02*
D03*
X570001Y532501D02*
D03*
X573751Y525001D02*
D03*
X570001Y517501D02*
D03*
X573751Y510001D02*
D03*
X566251Y690001D02*
D03*
X562501Y682501D02*
D03*
Y667501D02*
D03*
Y652501D02*
D03*
Y637501D02*
D03*
X566251Y630001D02*
D03*
X562501Y622501D02*
D03*
X566251Y615001D02*
D03*
X562501Y607501D02*
D03*
X566251Y600001D02*
D03*
X562501Y592501D02*
D03*
X566251Y585001D02*
D03*
X562501Y577501D02*
D03*
X566251Y570001D02*
D03*
X562501Y562501D02*
D03*
X566251Y555001D02*
D03*
X562501Y547501D02*
D03*
X566251Y540001D02*
D03*
X562501Y532501D02*
D03*
X566251Y525001D02*
D03*
X562501Y517501D02*
D03*
X566251Y510001D02*
D03*
X555001Y742501D02*
D03*
Y727501D02*
D03*
X558751Y720001D02*
D03*
X555001Y712501D02*
D03*
Y682501D02*
D03*
X558751Y675001D02*
D03*
X555001Y667501D02*
D03*
X558751Y660001D02*
D03*
Y630001D02*
D03*
Y615001D02*
D03*
Y600001D02*
D03*
X555001Y592501D02*
D03*
X558751Y585001D02*
D03*
X555001Y577501D02*
D03*
X558751Y570001D02*
D03*
X555001Y562501D02*
D03*
X558751Y555001D02*
D03*
X555001Y547501D02*
D03*
X558751Y540001D02*
D03*
X555001Y532501D02*
D03*
X558751Y525001D02*
D03*
X555001Y517501D02*
D03*
X558751Y510001D02*
D03*
X551251Y720001D02*
D03*
X547501Y712501D02*
D03*
X551251Y705001D02*
D03*
X547501Y697501D02*
D03*
X551251Y630001D02*
D03*
Y600001D02*
D03*
X547501Y592501D02*
D03*
X551251Y585001D02*
D03*
X547501Y577501D02*
D03*
X551251Y570001D02*
D03*
X547501Y562501D02*
D03*
X551251Y555001D02*
D03*
X547501Y547501D02*
D03*
X551251Y540001D02*
D03*
X547501Y532501D02*
D03*
X551251Y525001D02*
D03*
X547501Y517501D02*
D03*
X551251Y510001D02*
D03*
X543751Y720001D02*
D03*
X540001Y712501D02*
D03*
X543751Y705001D02*
D03*
X540001Y697501D02*
D03*
Y682501D02*
D03*
Y667501D02*
D03*
X543751Y630001D02*
D03*
Y600001D02*
D03*
X540001Y592501D02*
D03*
X543751Y585001D02*
D03*
X540001Y577501D02*
D03*
X543751Y570001D02*
D03*
X540001Y562501D02*
D03*
X543751Y555001D02*
D03*
X540001Y547501D02*
D03*
X543751Y540001D02*
D03*
X540001Y532501D02*
D03*
X543751Y525001D02*
D03*
X540001Y517501D02*
D03*
X543751Y510001D02*
D03*
X532501Y742501D02*
D03*
X536251Y720001D02*
D03*
X532501Y712501D02*
D03*
X536251Y705001D02*
D03*
X532501Y697501D02*
D03*
X536251Y690001D02*
D03*
X532501Y682501D02*
D03*
X536251Y675001D02*
D03*
X532501Y667501D02*
D03*
X536251Y660001D02*
D03*
Y630001D02*
D03*
X532501Y622501D02*
D03*
Y607501D02*
D03*
X536251Y600001D02*
D03*
X532501Y592501D02*
D03*
X536251Y585001D02*
D03*
X532501Y577501D02*
D03*
X536251Y570001D02*
D03*
X532501Y562501D02*
D03*
X536251Y555001D02*
D03*
X532501Y547501D02*
D03*
X536251Y540001D02*
D03*
X532501Y532501D02*
D03*
X536251Y525001D02*
D03*
X532501Y517501D02*
D03*
X536251Y510001D02*
D03*
X525001Y742501D02*
D03*
X528751Y735001D02*
D03*
Y720001D02*
D03*
X525001Y712501D02*
D03*
X528751Y705001D02*
D03*
X525001Y697501D02*
D03*
X528751Y690001D02*
D03*
X525001Y682501D02*
D03*
X528751Y675001D02*
D03*
X525001Y667501D02*
D03*
X528751Y660001D02*
D03*
X525001Y652501D02*
D03*
X528751Y645001D02*
D03*
X525001Y637501D02*
D03*
X528751Y630001D02*
D03*
X525001Y622501D02*
D03*
X528751Y615001D02*
D03*
X525001Y607501D02*
D03*
X528751Y600001D02*
D03*
X525001Y592501D02*
D03*
X528751Y585001D02*
D03*
X525001Y577501D02*
D03*
X528751Y570001D02*
D03*
X525001Y562501D02*
D03*
X528751Y555001D02*
D03*
X525001Y547501D02*
D03*
X528751Y540001D02*
D03*
X525001Y532501D02*
D03*
X528751Y525001D02*
D03*
X525001Y517501D02*
D03*
X528751Y510001D02*
D03*
X521251Y720001D02*
D03*
X517501Y712501D02*
D03*
X521251Y705001D02*
D03*
X517501Y697501D02*
D03*
X521251Y690001D02*
D03*
X517501Y682501D02*
D03*
X521251Y675001D02*
D03*
X517501Y667501D02*
D03*
X521251Y660001D02*
D03*
X517501Y652501D02*
D03*
X521251Y645001D02*
D03*
X517501Y637501D02*
D03*
X521251Y630001D02*
D03*
X517501Y622501D02*
D03*
X521251Y615001D02*
D03*
X517501Y607501D02*
D03*
X521251Y600001D02*
D03*
X517501Y592501D02*
D03*
X521251Y585001D02*
D03*
X517501Y577501D02*
D03*
X521251Y570001D02*
D03*
X517501Y562501D02*
D03*
X521251Y555001D02*
D03*
X517501Y547501D02*
D03*
X521251Y540001D02*
D03*
X517501Y532501D02*
D03*
X521251Y525001D02*
D03*
X517501Y517501D02*
D03*
X521251Y510001D02*
D03*
X513751Y720001D02*
D03*
X510001Y712501D02*
D03*
X513751Y705001D02*
D03*
X510001Y697501D02*
D03*
X513751Y690001D02*
D03*
X510001Y682501D02*
D03*
X513751Y675001D02*
D03*
X510001Y667501D02*
D03*
X513751Y660001D02*
D03*
X510001Y652501D02*
D03*
X513751Y645001D02*
D03*
X510001Y637501D02*
D03*
X513751Y630001D02*
D03*
X510001Y622501D02*
D03*
X513751Y615001D02*
D03*
X510001Y607501D02*
D03*
X513751Y600001D02*
D03*
X510001Y592501D02*
D03*
X513751Y585001D02*
D03*
X510001Y577501D02*
D03*
X513751Y570001D02*
D03*
X510001Y562501D02*
D03*
X513751Y555001D02*
D03*
X510001Y547501D02*
D03*
X513751Y540001D02*
D03*
X510001Y532501D02*
D03*
X513751Y525001D02*
D03*
X510001Y517501D02*
D03*
X513751Y510001D02*
D03*
X506251Y720001D02*
D03*
Y705001D02*
D03*
Y690001D02*
D03*
Y675001D02*
D03*
Y660001D02*
D03*
Y645001D02*
D03*
Y630001D02*
D03*
Y615001D02*
D03*
Y600001D02*
D03*
Y585001D02*
D03*
Y570001D02*
D03*
Y555001D02*
D03*
Y540001D02*
D03*
Y525001D02*
D03*
Y510001D02*
D03*
X1335059Y688825D02*
D03*
X1325000Y687940D02*
D03*
X1358253Y686987D02*
D03*
X1370258Y706060D02*
D03*
X1363218D02*
D03*
X1348000Y631000D02*
D03*
X1311622Y665572D02*
D03*
X1316540Y696060D02*
D03*
X1304420D02*
D03*
X1324498Y618503D02*
D03*
X1276000Y681935D02*
D03*
X1268500Y703500D02*
D03*
X1129995Y687995D02*
D03*
X1123000Y703000D02*
D03*
X1122000Y735000D02*
D03*
X734043Y624264D02*
D03*
X598560Y652072D02*
D03*
X601285Y673285D02*
D03*
X645537Y575625D02*
D03*
X592500Y579500D02*
D03*
X586440Y652130D02*
D03*
X703099Y625526D02*
D03*
X581285Y647335D02*
D03*
X717000Y565000D02*
D03*
X639043Y665368D02*
D03*
X585343Y636193D02*
D03*
X659000Y671000D02*
D03*
X585261Y628269D02*
D03*
X586440Y621328D02*
D03*
X654500Y575132D02*
D03*
X698960Y568056D02*
D03*
X624107Y682602D02*
D03*
X706000Y568750D02*
D03*
X711006Y575067D02*
D03*
X577000Y703000D02*
D03*
X692000Y567000D02*
D03*
X698000Y661000D02*
D03*
X684192Y620006D02*
D03*
X684000Y565000D02*
D03*
X629560Y576000D02*
D03*
X599000Y573000D02*
D03*
X1220000Y675000D02*
D03*
X754060Y570252D02*
D03*
X1250000Y614308D02*
D03*
X1275965Y627000D02*
D03*
X1176729Y605174D02*
D03*
X1219790Y645360D02*
D03*
X1271210Y654846D02*
D03*
X747000Y536000D02*
D03*
X1198000Y724000D02*
D03*
X1439000Y625000D02*
D03*
X1264500Y716500D02*
D03*
X1294000Y612149D02*
D03*
X1386163Y687670D02*
D03*
X1372142Y654300D02*
D03*
X1371567Y646309D02*
D03*
X692000Y529000D02*
D03*
X664000Y682000D02*
D03*
X574665Y694335D02*
D03*
X620422Y535591D02*
D03*
X753000Y730000D02*
D03*
X1307000Y680000D02*
D03*
X1302000Y722000D02*
D03*
X1379575Y669899D02*
D03*
X1370000Y678886D02*
D03*
X1114000Y549060D02*
D03*
X1175000Y583000D02*
D03*
X1175100Y590039D02*
D03*
X1165458Y577221D02*
D03*
X1166708Y570293D02*
D03*
X1164914Y563485D02*
D03*
X1176287Y552500D02*
D03*
X1314415Y586585D02*
D03*
X1245764Y584994D02*
D03*
X1252804Y585081D02*
D03*
X745565Y655398D02*
D03*
X754000Y655000D02*
D03*
X1131708Y609292D02*
D03*
X724208Y595207D02*
D03*
D101*
X1345500Y666500D02*
D03*
Y655500D02*
D03*
X1334500Y666500D02*
D03*
Y655500D02*
D03*
X619000Y600000D02*
D03*
X619000Y611000D02*
D03*
X619000Y622000D02*
D03*
X619000Y633000D02*
D03*
X619000Y644000D02*
D03*
X630000Y600000D02*
D03*
Y611000D02*
D03*
X630000Y622000D02*
D03*
X630000Y633000D02*
D03*
Y644000D02*
D03*
X641000Y600000D02*
D03*
Y611000D02*
D03*
Y622000D02*
D03*
Y633000D02*
D03*
Y644000D02*
D03*
X652000Y600000D02*
D03*
Y611000D02*
D03*
X652000Y622000D02*
D03*
X652000Y633000D02*
D03*
Y644000D02*
D03*
X663000Y600000D02*
D03*
X663000Y611000D02*
D03*
X663000Y622000D02*
D03*
X663000Y633000D02*
D03*
X663000Y644000D02*
D03*
M02*
