G04*
G04 #@! TF.GenerationSoftware,Altium Limited,Altium Designer,21.3.2 (30)*
G04*
G04 Layer_Color=32896*
%FSLAX44Y44*%
%MOMM*%
G71*
G04*
G04 #@! TF.SameCoordinates,BB622590-8895-4630-97EF-0A5410F07859*
G04*
G04*
G04 #@! TF.FilePolarity,Positive*
G04*
G01*
G75*
%ADD10C,0.2500*%
%ADD12C,0.1000*%
%ADD13C,0.2540*%
%ADD14C,0.2000*%
%ADD15C,0.1270*%
%ADD122C,0.1524*%
G36*
X1152457Y684141D02*
X1151377D01*
Y687966D01*
X1147176D01*
Y684141D01*
X1146097D01*
Y692261D01*
X1147176D01*
Y688929D01*
X1151377D01*
Y692261D01*
X1152457D01*
Y684141D01*
D02*
G37*
G36*
X1116572D02*
X1115539D01*
Y690513D01*
X1111291Y684141D01*
X1110177D01*
Y692261D01*
X1111209D01*
Y685878D01*
X1115469Y692261D01*
X1116572D01*
Y684141D01*
D02*
G37*
G36*
X1125197Y692379D02*
X1125608Y692320D01*
X1125796Y692285D01*
X1125972Y692238D01*
X1126136Y692203D01*
X1126289Y692156D01*
X1126429Y692109D01*
X1126547Y692062D01*
X1126652Y692015D01*
X1126746Y691980D01*
X1126816Y691945D01*
X1126863Y691921D01*
X1126899Y691909D01*
X1126910Y691898D01*
X1127075Y691792D01*
X1127239Y691686D01*
X1127521Y691440D01*
X1127767Y691193D01*
X1127967Y690935D01*
X1128131Y690712D01*
X1128189Y690618D01*
X1128236Y690525D01*
X1128283Y690454D01*
X1128307Y690407D01*
X1128319Y690372D01*
X1128330Y690360D01*
X1128495Y689973D01*
X1128612Y689586D01*
X1128706Y689210D01*
X1128729Y689034D01*
X1128764Y688870D01*
X1128776Y688717D01*
X1128800Y688588D01*
X1128811Y688459D01*
Y688354D01*
X1128823Y688271D01*
Y688213D01*
Y688166D01*
Y688154D01*
X1128800Y687720D01*
X1128741Y687309D01*
X1128706Y687122D01*
X1128671Y686945D01*
X1128624Y686769D01*
X1128577Y686617D01*
X1128530Y686476D01*
X1128483Y686359D01*
X1128448Y686241D01*
X1128412Y686159D01*
X1128377Y686077D01*
X1128354Y686030D01*
X1128330Y685995D01*
Y685983D01*
X1128119Y685643D01*
X1127884Y685350D01*
X1127638Y685091D01*
X1127403Y684880D01*
X1127180Y684716D01*
X1127098Y684657D01*
X1127016Y684598D01*
X1126946Y684563D01*
X1126899Y684528D01*
X1126863Y684516D01*
X1126852Y684505D01*
X1126664Y684411D01*
X1126476Y684340D01*
X1126101Y684211D01*
X1125737Y684129D01*
X1125397Y684059D01*
X1125244Y684047D01*
X1125103Y684024D01*
X1124974Y684012D01*
X1124868D01*
X1124786Y684000D01*
X1124669D01*
X1124341Y684012D01*
X1124024Y684047D01*
X1123730Y684106D01*
X1123472Y684164D01*
X1123366Y684188D01*
X1123261Y684211D01*
X1123167Y684246D01*
X1123085Y684270D01*
X1123026Y684293D01*
X1122979Y684305D01*
X1122956Y684317D01*
X1122944D01*
X1122627Y684446D01*
X1122334Y684598D01*
X1122052Y684763D01*
X1121806Y684915D01*
X1121700Y684986D01*
X1121594Y685056D01*
X1121512Y685115D01*
X1121442Y685162D01*
X1121383Y685209D01*
X1121336Y685244D01*
X1121313Y685256D01*
X1121301Y685267D01*
Y688283D01*
X1124751D01*
Y687321D01*
X1122357D01*
Y685795D01*
X1122498Y685678D01*
X1122662Y685573D01*
X1122838Y685479D01*
X1123003Y685396D01*
X1123143Y685326D01*
X1123273Y685267D01*
X1123319Y685244D01*
X1123343Y685232D01*
X1123366Y685220D01*
X1123378D01*
X1123625Y685138D01*
X1123871Y685068D01*
X1124094Y685021D01*
X1124305Y684997D01*
X1124481Y684974D01*
X1124552D01*
X1124622Y684962D01*
X1124740D01*
X1125033Y684974D01*
X1125314Y685021D01*
X1125573Y685080D01*
X1125807Y685138D01*
X1125995Y685209D01*
X1126077Y685232D01*
X1126136Y685256D01*
X1126195Y685279D01*
X1126230Y685303D01*
X1126253Y685314D01*
X1126265D01*
X1126511Y685467D01*
X1126734Y685631D01*
X1126922Y685807D01*
X1127075Y685983D01*
X1127204Y686148D01*
X1127286Y686277D01*
X1127321Y686323D01*
X1127333Y686359D01*
X1127356Y686382D01*
Y686394D01*
X1127474Y686687D01*
X1127568Y686992D01*
X1127626Y687298D01*
X1127673Y687591D01*
X1127685Y687720D01*
X1127697Y687837D01*
X1127708Y687955D01*
Y688048D01*
X1127720Y688119D01*
Y688178D01*
Y688213D01*
Y688224D01*
X1127708Y688553D01*
X1127673Y688847D01*
X1127626Y689128D01*
X1127568Y689374D01*
X1127544Y689480D01*
X1127509Y689574D01*
X1127485Y689656D01*
X1127462Y689727D01*
X1127439Y689785D01*
X1127427Y689820D01*
X1127415Y689844D01*
Y689856D01*
X1127333Y690020D01*
X1127251Y690173D01*
X1127169Y690313D01*
X1127086Y690431D01*
X1127016Y690525D01*
X1126957Y690607D01*
X1126910Y690654D01*
X1126899Y690665D01*
X1126770Y690795D01*
X1126629Y690912D01*
X1126476Y691006D01*
X1126335Y691100D01*
X1126218Y691158D01*
X1126124Y691217D01*
X1126054Y691240D01*
X1126030Y691252D01*
X1125819Y691334D01*
X1125608Y691393D01*
X1125385Y691428D01*
X1125185Y691463D01*
X1125009Y691475D01*
X1124939D01*
X1124880Y691487D01*
X1124751D01*
X1124528Y691475D01*
X1124317Y691452D01*
X1124129Y691416D01*
X1123965Y691381D01*
X1123824Y691334D01*
X1123718Y691299D01*
X1123660Y691276D01*
X1123636Y691264D01*
X1123460Y691182D01*
X1123308Y691088D01*
X1123167Y690994D01*
X1123061Y690900D01*
X1122979Y690818D01*
X1122909Y690759D01*
X1122874Y690712D01*
X1122862Y690701D01*
X1122756Y690560D01*
X1122674Y690396D01*
X1122592Y690243D01*
X1122522Y690079D01*
X1122475Y689938D01*
X1122439Y689832D01*
X1122428Y689785D01*
X1122416Y689750D01*
X1122404Y689738D01*
Y689727D01*
X1121430Y689985D01*
X1121512Y690278D01*
X1121618Y690536D01*
X1121724Y690771D01*
X1121817Y690959D01*
X1121911Y691111D01*
X1121982Y691217D01*
X1122029Y691287D01*
X1122052Y691311D01*
X1122216Y691498D01*
X1122393Y691651D01*
X1122580Y691792D01*
X1122756Y691909D01*
X1122921Y691991D01*
X1123050Y692062D01*
X1123097Y692085D01*
X1123132Y692097D01*
X1123155Y692109D01*
X1123167D01*
X1123437Y692203D01*
X1123718Y692273D01*
X1123977Y692332D01*
X1124223Y692367D01*
X1124446Y692390D01*
X1124540D01*
X1124610Y692402D01*
X1124986D01*
X1125197Y692379D01*
D02*
G37*
G36*
X1105025D02*
X1105436Y692320D01*
X1105623Y692285D01*
X1105799Y692238D01*
X1105964Y692203D01*
X1106116Y692156D01*
X1106257Y692109D01*
X1106375Y692062D01*
X1106480Y692015D01*
X1106574Y691980D01*
X1106644Y691945D01*
X1106691Y691921D01*
X1106727Y691909D01*
X1106738Y691898D01*
X1106903Y691792D01*
X1107067Y691686D01*
X1107348Y691440D01*
X1107595Y691193D01*
X1107794Y690935D01*
X1107959Y690712D01*
X1108017Y690618D01*
X1108064Y690525D01*
X1108111Y690454D01*
X1108135Y690407D01*
X1108147Y690372D01*
X1108158Y690360D01*
X1108323Y689973D01*
X1108440Y689586D01*
X1108534Y689210D01*
X1108557Y689034D01*
X1108592Y688870D01*
X1108604Y688717D01*
X1108628Y688588D01*
X1108639Y688459D01*
Y688354D01*
X1108651Y688271D01*
Y688213D01*
Y688166D01*
Y688154D01*
X1108628Y687720D01*
X1108569Y687309D01*
X1108534Y687122D01*
X1108499Y686945D01*
X1108452Y686769D01*
X1108405Y686617D01*
X1108358Y686476D01*
X1108311Y686359D01*
X1108276Y686241D01*
X1108240Y686159D01*
X1108205Y686077D01*
X1108182Y686030D01*
X1108158Y685995D01*
Y685983D01*
X1107947Y685643D01*
X1107712Y685350D01*
X1107466Y685091D01*
X1107231Y684880D01*
X1107008Y684716D01*
X1106926Y684657D01*
X1106844Y684598D01*
X1106774Y684563D01*
X1106727Y684528D01*
X1106691Y684516D01*
X1106680Y684505D01*
X1106492Y684411D01*
X1106304Y684340D01*
X1105929Y684211D01*
X1105565Y684129D01*
X1105225Y684059D01*
X1105072Y684047D01*
X1104931Y684024D01*
X1104802Y684012D01*
X1104696D01*
X1104614Y684000D01*
X1104497D01*
X1104168Y684012D01*
X1103851Y684047D01*
X1103558Y684106D01*
X1103300Y684164D01*
X1103194Y684188D01*
X1103089Y684211D01*
X1102995Y684246D01*
X1102913Y684270D01*
X1102854Y684293D01*
X1102807Y684305D01*
X1102784Y684317D01*
X1102772D01*
X1102455Y684446D01*
X1102162Y684598D01*
X1101880Y684763D01*
X1101634Y684915D01*
X1101528Y684986D01*
X1101422Y685056D01*
X1101340Y685115D01*
X1101270Y685162D01*
X1101211Y685209D01*
X1101164Y685244D01*
X1101141Y685256D01*
X1101129Y685267D01*
Y688283D01*
X1104579D01*
Y687321D01*
X1102185D01*
Y685795D01*
X1102326Y685678D01*
X1102490Y685573D01*
X1102666Y685479D01*
X1102831Y685396D01*
X1102971Y685326D01*
X1103101Y685267D01*
X1103147Y685244D01*
X1103171Y685232D01*
X1103194Y685220D01*
X1103206D01*
X1103453Y685138D01*
X1103699Y685068D01*
X1103922Y685021D01*
X1104133Y684997D01*
X1104309Y684974D01*
X1104380D01*
X1104450Y684962D01*
X1104567D01*
X1104861Y684974D01*
X1105142Y685021D01*
X1105400Y685080D01*
X1105635Y685138D01*
X1105823Y685209D01*
X1105905Y685232D01*
X1105964Y685256D01*
X1106022Y685279D01*
X1106058Y685303D01*
X1106081Y685314D01*
X1106093D01*
X1106339Y685467D01*
X1106562Y685631D01*
X1106750Y685807D01*
X1106903Y685983D01*
X1107032Y686148D01*
X1107114Y686277D01*
X1107149Y686323D01*
X1107161Y686359D01*
X1107184Y686382D01*
Y686394D01*
X1107301Y686687D01*
X1107395Y686992D01*
X1107454Y687298D01*
X1107501Y687591D01*
X1107513Y687720D01*
X1107524Y687837D01*
X1107536Y687955D01*
Y688048D01*
X1107548Y688119D01*
Y688178D01*
Y688213D01*
Y688224D01*
X1107536Y688553D01*
X1107501Y688847D01*
X1107454Y689128D01*
X1107395Y689374D01*
X1107372Y689480D01*
X1107337Y689574D01*
X1107313Y689656D01*
X1107290Y689727D01*
X1107266Y689785D01*
X1107255Y689820D01*
X1107243Y689844D01*
Y689856D01*
X1107161Y690020D01*
X1107079Y690173D01*
X1106996Y690313D01*
X1106914Y690431D01*
X1106844Y690525D01*
X1106785Y690607D01*
X1106738Y690654D01*
X1106727Y690665D01*
X1106598Y690795D01*
X1106457Y690912D01*
X1106304Y691006D01*
X1106163Y691100D01*
X1106046Y691158D01*
X1105952Y691217D01*
X1105882Y691240D01*
X1105858Y691252D01*
X1105647Y691334D01*
X1105436Y691393D01*
X1105213Y691428D01*
X1105013Y691463D01*
X1104837Y691475D01*
X1104767D01*
X1104708Y691487D01*
X1104579D01*
X1104356Y691475D01*
X1104145Y691452D01*
X1103957Y691416D01*
X1103793Y691381D01*
X1103652Y691334D01*
X1103546Y691299D01*
X1103488Y691276D01*
X1103464Y691264D01*
X1103288Y691182D01*
X1103136Y691088D01*
X1102995Y690994D01*
X1102889Y690900D01*
X1102807Y690818D01*
X1102737Y690759D01*
X1102701Y690712D01*
X1102690Y690701D01*
X1102584Y690560D01*
X1102502Y690396D01*
X1102420Y690243D01*
X1102349Y690079D01*
X1102302Y689938D01*
X1102267Y689832D01*
X1102256Y689785D01*
X1102244Y689750D01*
X1102232Y689738D01*
Y689727D01*
X1101258Y689985D01*
X1101340Y690278D01*
X1101446Y690536D01*
X1101552Y690771D01*
X1101645Y690959D01*
X1101739Y691111D01*
X1101810Y691217D01*
X1101857Y691287D01*
X1101880Y691311D01*
X1102044Y691498D01*
X1102220Y691651D01*
X1102408Y691792D01*
X1102584Y691909D01*
X1102748Y691991D01*
X1102878Y692062D01*
X1102924Y692085D01*
X1102960Y692097D01*
X1102983Y692109D01*
X1102995D01*
X1103265Y692203D01*
X1103546Y692273D01*
X1103805Y692332D01*
X1104051Y692367D01*
X1104274Y692390D01*
X1104368D01*
X1104438Y692402D01*
X1104814D01*
X1105025Y692379D01*
D02*
G37*
G36*
X1157562D02*
X1157937Y692320D01*
X1158266Y692250D01*
X1158418Y692203D01*
X1158559Y692156D01*
X1158688Y692109D01*
X1158806Y692062D01*
X1158900Y692027D01*
X1158993Y691991D01*
X1159052Y691956D01*
X1159099Y691933D01*
X1159134Y691921D01*
X1159146Y691909D01*
X1159463Y691710D01*
X1159733Y691475D01*
X1159967Y691240D01*
X1160167Y691006D01*
X1160319Y690795D01*
X1160378Y690701D01*
X1160425Y690618D01*
X1160472Y690560D01*
X1160495Y690513D01*
X1160507Y690478D01*
X1160519Y690466D01*
X1160683Y690102D01*
X1160800Y689727D01*
X1160883Y689351D01*
X1160941Y689011D01*
X1160965Y688858D01*
X1160976Y688706D01*
X1160988Y688588D01*
Y688471D01*
X1161000Y688389D01*
Y688318D01*
Y688271D01*
Y688260D01*
X1160976Y687837D01*
X1160930Y687427D01*
X1160871Y687063D01*
X1160824Y686887D01*
X1160789Y686734D01*
X1160754Y686593D01*
X1160707Y686464D01*
X1160671Y686347D01*
X1160648Y686253D01*
X1160613Y686183D01*
X1160601Y686124D01*
X1160577Y686089D01*
Y686077D01*
X1160402Y685725D01*
X1160202Y685408D01*
X1159991Y685138D01*
X1159885Y685033D01*
X1159791Y684927D01*
X1159697Y684833D01*
X1159604Y684751D01*
X1159521Y684681D01*
X1159451Y684634D01*
X1159404Y684587D01*
X1159357Y684551D01*
X1159334Y684540D01*
X1159322Y684528D01*
X1159158Y684434D01*
X1158993Y684352D01*
X1158641Y684223D01*
X1158289Y684129D01*
X1157949Y684070D01*
X1157785Y684047D01*
X1157644Y684024D01*
X1157515Y684012D01*
X1157409D01*
X1157315Y684000D01*
X1157186D01*
X1156952Y684012D01*
X1156729Y684035D01*
X1156517Y684059D01*
X1156318Y684106D01*
X1156130Y684164D01*
X1155954Y684223D01*
X1155790Y684282D01*
X1155637Y684352D01*
X1155508Y684411D01*
X1155379Y684469D01*
X1155285Y684528D01*
X1155191Y684587D01*
X1155133Y684634D01*
X1155074Y684657D01*
X1155050Y684681D01*
X1155039Y684692D01*
X1154874Y684833D01*
X1154734Y684974D01*
X1154604Y685138D01*
X1154475Y685303D01*
X1154264Y685631D01*
X1154100Y685960D01*
X1154029Y686112D01*
X1153971Y686253D01*
X1153924Y686382D01*
X1153889Y686488D01*
X1153854Y686582D01*
X1153830Y686652D01*
X1153818Y686699D01*
Y686711D01*
X1154898Y686981D01*
X1154945Y686793D01*
X1155004Y686617D01*
X1155062Y686453D01*
X1155121Y686300D01*
X1155191Y686159D01*
X1155262Y686042D01*
X1155344Y685925D01*
X1155414Y685819D01*
X1155473Y685725D01*
X1155543Y685655D01*
X1155602Y685584D01*
X1155649Y685526D01*
X1155696Y685490D01*
X1155731Y685455D01*
X1155743Y685443D01*
X1155754Y685432D01*
X1155872Y685338D01*
X1156001Y685267D01*
X1156259Y685138D01*
X1156506Y685044D01*
X1156752Y684986D01*
X1156963Y684939D01*
X1157045Y684927D01*
X1157128D01*
X1157198Y684915D01*
X1157280D01*
X1157550Y684927D01*
X1157808Y684974D01*
X1158043Y685033D01*
X1158254Y685103D01*
X1158418Y685173D01*
X1158489Y685209D01*
X1158547Y685232D01*
X1158594Y685256D01*
X1158630Y685279D01*
X1158653Y685291D01*
X1158665D01*
X1158888Y685455D01*
X1159075Y685631D01*
X1159240Y685831D01*
X1159369Y686018D01*
X1159474Y686183D01*
X1159545Y686323D01*
X1159568Y686382D01*
X1159592Y686417D01*
X1159604Y686441D01*
Y686453D01*
X1159697Y686758D01*
X1159768Y687063D01*
X1159827Y687368D01*
X1159862Y687650D01*
X1159873Y687779D01*
X1159885Y687896D01*
Y688002D01*
X1159897Y688084D01*
Y688154D01*
Y688213D01*
Y688248D01*
Y688260D01*
X1159885Y688565D01*
X1159862Y688847D01*
X1159815Y689105D01*
X1159768Y689339D01*
X1159733Y689539D01*
X1159709Y689621D01*
X1159686Y689691D01*
X1159674Y689750D01*
X1159662Y689785D01*
X1159650Y689809D01*
Y689820D01*
X1159533Y690090D01*
X1159404Y690337D01*
X1159263Y690536D01*
X1159111Y690712D01*
X1158982Y690853D01*
X1158876Y690947D01*
X1158794Y691006D01*
X1158782Y691029D01*
X1158770D01*
X1158524Y691182D01*
X1158254Y691299D01*
X1157996Y691381D01*
X1157749Y691428D01*
X1157526Y691463D01*
X1157433Y691475D01*
X1157350D01*
X1157292Y691487D01*
X1157198D01*
X1156905Y691475D01*
X1156635Y691428D01*
X1156412Y691358D01*
X1156212Y691287D01*
X1156060Y691205D01*
X1155942Y691146D01*
X1155872Y691100D01*
X1155848Y691076D01*
X1155661Y690900D01*
X1155485Y690701D01*
X1155344Y690489D01*
X1155227Y690278D01*
X1155133Y690090D01*
X1155097Y689996D01*
X1155074Y689926D01*
X1155050Y689867D01*
X1155027Y689820D01*
X1155015Y689797D01*
Y689785D01*
X1153959Y690032D01*
X1154029Y690243D01*
X1154100Y690431D01*
X1154194Y690607D01*
X1154276Y690783D01*
X1154370Y690935D01*
X1154475Y691076D01*
X1154569Y691217D01*
X1154663Y691334D01*
X1154757Y691428D01*
X1154839Y691522D01*
X1154921Y691604D01*
X1154980Y691663D01*
X1155039Y691721D01*
X1155086Y691757D01*
X1155109Y691768D01*
X1155121Y691780D01*
X1155285Y691886D01*
X1155449Y691991D01*
X1155614Y692074D01*
X1155790Y692144D01*
X1156142Y692250D01*
X1156459Y692320D01*
X1156611Y692355D01*
X1156740Y692367D01*
X1156869Y692379D01*
X1156975Y692390D01*
X1157057Y692402D01*
X1157174D01*
X1157562Y692379D01*
D02*
G37*
G36*
X1145193Y684141D02*
X1144055D01*
X1143175Y686605D01*
X1139772D01*
X1138821Y684141D01*
X1137601D01*
X1140922Y692261D01*
X1142095D01*
X1145193Y684141D01*
D02*
G37*
G36*
X1136721D02*
X1135641D01*
Y687743D01*
X1134256D01*
X1134127Y687732D01*
X1134033D01*
X1133951Y687720D01*
X1133893Y687708D01*
X1133846D01*
X1133822Y687697D01*
X1133811D01*
X1133623Y687638D01*
X1133541Y687603D01*
X1133470Y687567D01*
X1133400Y687532D01*
X1133353Y687509D01*
X1133329Y687497D01*
X1133318Y687485D01*
X1133224Y687415D01*
X1133130Y687333D01*
X1132954Y687157D01*
X1132872Y687075D01*
X1132813Y687004D01*
X1132778Y686957D01*
X1132766Y686945D01*
X1132649Y686781D01*
X1132520Y686605D01*
X1132391Y686417D01*
X1132262Y686241D01*
X1132156Y686077D01*
X1132074Y685948D01*
X1132038Y685901D01*
X1132015Y685866D01*
X1131992Y685842D01*
Y685831D01*
X1130924Y684141D01*
X1129586D01*
X1130982Y686347D01*
X1131147Y686582D01*
X1131299Y686793D01*
X1131452Y686969D01*
X1131581Y687133D01*
X1131698Y687251D01*
X1131792Y687344D01*
X1131851Y687403D01*
X1131874Y687427D01*
X1131968Y687497D01*
X1132074Y687579D01*
X1132285Y687708D01*
X1132379Y687755D01*
X1132449Y687802D01*
X1132496Y687825D01*
X1132520Y687837D01*
X1132308Y687872D01*
X1132109Y687908D01*
X1131933Y687966D01*
X1131757Y688013D01*
X1131604Y688072D01*
X1131463Y688142D01*
X1131334Y688201D01*
X1131217Y688260D01*
X1131123Y688330D01*
X1131029Y688389D01*
X1130959Y688436D01*
X1130900Y688483D01*
X1130853Y688518D01*
X1130818Y688553D01*
X1130806Y688565D01*
X1130795Y688577D01*
X1130701Y688694D01*
X1130607Y688811D01*
X1130466Y689058D01*
X1130372Y689304D01*
X1130302Y689539D01*
X1130255Y689738D01*
X1130243Y689820D01*
Y689903D01*
X1130231Y689961D01*
Y690008D01*
Y690032D01*
Y690043D01*
X1130243Y690290D01*
X1130278Y690513D01*
X1130337Y690724D01*
X1130396Y690900D01*
X1130466Y691053D01*
X1130513Y691170D01*
X1130560Y691240D01*
X1130572Y691252D01*
Y691264D01*
X1130713Y691452D01*
X1130853Y691616D01*
X1131006Y691757D01*
X1131147Y691862D01*
X1131276Y691945D01*
X1131381Y691991D01*
X1131452Y692027D01*
X1131463Y692038D01*
X1131475D01*
X1131581Y692074D01*
X1131710Y692109D01*
X1131968Y692167D01*
X1132250Y692203D01*
X1132508Y692238D01*
X1132754Y692250D01*
X1132860D01*
X1132954Y692261D01*
X1136721D01*
Y684141D01*
D02*
G37*
G36*
X1119541D02*
X1118461D01*
Y692261D01*
X1119541D01*
Y684141D01*
D02*
G37*
G36*
X1120531Y711567D02*
Y711333D01*
X1120519Y711110D01*
X1120508Y710899D01*
X1120484Y710699D01*
X1120461Y710523D01*
X1120437Y710359D01*
X1120402Y710206D01*
X1120378Y710065D01*
X1120355Y709936D01*
X1120320Y709831D01*
X1120296Y709737D01*
X1120273Y709666D01*
X1120249Y709608D01*
X1120238Y709561D01*
X1120226Y709537D01*
Y709526D01*
X1120097Y709267D01*
X1119932Y709033D01*
X1119768Y708845D01*
X1119592Y708681D01*
X1119440Y708551D01*
X1119311Y708458D01*
X1119264Y708434D01*
X1119228Y708411D01*
X1119205Y708387D01*
X1119193D01*
X1118900Y708258D01*
X1118595Y708164D01*
X1118278Y708094D01*
X1117984Y708047D01*
X1117855Y708035D01*
X1117726Y708024D01*
X1117609Y708012D01*
X1117515D01*
X1117433Y708000D01*
X1117327D01*
X1116905Y708024D01*
X1116717Y708047D01*
X1116541Y708070D01*
X1116365Y708106D01*
X1116213Y708141D01*
X1116072Y708176D01*
X1115943Y708223D01*
X1115825Y708270D01*
X1115731Y708305D01*
X1115638Y708340D01*
X1115567Y708375D01*
X1115508Y708411D01*
X1115473Y708422D01*
X1115450Y708446D01*
X1115438D01*
X1115180Y708622D01*
X1114969Y708821D01*
X1114804Y709009D01*
X1114664Y709197D01*
X1114558Y709361D01*
X1114488Y709490D01*
X1114464Y709537D01*
X1114441Y709573D01*
X1114429Y709596D01*
Y709608D01*
X1114382Y709749D01*
X1114335Y709901D01*
X1114265Y710218D01*
X1114218Y710546D01*
X1114183Y710863D01*
X1114171Y711004D01*
X1114159Y711145D01*
Y711262D01*
X1114147Y711368D01*
Y711450D01*
Y711509D01*
Y711556D01*
Y711567D01*
Y716261D01*
X1115227D01*
Y711567D01*
Y711298D01*
X1115250Y711039D01*
X1115274Y710816D01*
X1115309Y710605D01*
X1115344Y710417D01*
X1115391Y710241D01*
X1115426Y710089D01*
X1115473Y709960D01*
X1115520Y709854D01*
X1115567Y709749D01*
X1115614Y709678D01*
X1115649Y709608D01*
X1115685Y709561D01*
X1115708Y709526D01*
X1115720Y709514D01*
X1115731Y709502D01*
X1115837Y709408D01*
X1115954Y709326D01*
X1116213Y709197D01*
X1116482Y709103D01*
X1116764Y709044D01*
X1117022Y708997D01*
X1117128Y708986D01*
X1117234D01*
X1117304Y708974D01*
X1117421D01*
X1117668Y708986D01*
X1117891Y709021D01*
X1118102Y709056D01*
X1118266Y709115D01*
X1118407Y709162D01*
X1118513Y709197D01*
X1118571Y709232D01*
X1118595Y709244D01*
X1118759Y709350D01*
X1118900Y709479D01*
X1119017Y709608D01*
X1119099Y709725D01*
X1119170Y709842D01*
X1119228Y709924D01*
X1119252Y709983D01*
X1119264Y710007D01*
X1119299Y710112D01*
X1119322Y710218D01*
X1119369Y710464D01*
X1119404Y710723D01*
X1119428Y710981D01*
X1119440Y711204D01*
Y711309D01*
X1119451Y711391D01*
Y711462D01*
Y711520D01*
Y711556D01*
Y711567D01*
Y716261D01*
X1120531D01*
Y711567D01*
D02*
G37*
G36*
X1135000Y708141D02*
X1133920D01*
Y711826D01*
X1130107D01*
Y712788D01*
X1133920D01*
Y715299D01*
X1129508D01*
Y716261D01*
X1135000D01*
Y708141D01*
D02*
G37*
G36*
X1129004D02*
X1127865D01*
X1126985Y710605D01*
X1123582D01*
X1122632Y708141D01*
X1121411D01*
X1124732Y716261D01*
X1125906D01*
X1129004Y708141D01*
D02*
G37*
G36*
X1112399D02*
X1107318D01*
Y709103D01*
X1111319D01*
Y716261D01*
X1112399D01*
Y708141D01*
D02*
G37*
G36*
X1106649Y715299D02*
X1103973D01*
Y708141D01*
X1102894D01*
Y715299D01*
X1100218D01*
Y716261D01*
X1106649D01*
Y715299D01*
D02*
G37*
G36*
X1107684Y731141D02*
X1106604D01*
Y733957D01*
X1105278Y735236D01*
X1102392Y731141D01*
X1100972D01*
X1104527Y735964D01*
X1101124Y739261D01*
X1102591D01*
X1106604Y735225D01*
Y739261D01*
X1107684D01*
Y731141D01*
D02*
G37*
G36*
X1124688Y739379D02*
X1125063Y739320D01*
X1125392Y739250D01*
X1125544Y739203D01*
X1125685Y739156D01*
X1125814Y739109D01*
X1125931Y739062D01*
X1126025Y739027D01*
X1126119Y738991D01*
X1126178Y738956D01*
X1126225Y738933D01*
X1126260Y738921D01*
X1126272Y738909D01*
X1126589Y738710D01*
X1126859Y738475D01*
X1127093Y738240D01*
X1127293Y738006D01*
X1127445Y737794D01*
X1127504Y737701D01*
X1127551Y737618D01*
X1127598Y737560D01*
X1127621Y737513D01*
X1127633Y737478D01*
X1127645Y737466D01*
X1127809Y737102D01*
X1127926Y736727D01*
X1128009Y736351D01*
X1128067Y736011D01*
X1128091Y735858D01*
X1128102Y735706D01*
X1128114Y735588D01*
Y735471D01*
X1128126Y735389D01*
Y735318D01*
Y735272D01*
Y735260D01*
X1128102Y734837D01*
X1128055Y734427D01*
X1127997Y734063D01*
X1127950Y733887D01*
X1127915Y733734D01*
X1127879Y733593D01*
X1127833Y733464D01*
X1127797Y733347D01*
X1127774Y733253D01*
X1127739Y733183D01*
X1127727Y733124D01*
X1127703Y733089D01*
Y733077D01*
X1127527Y732725D01*
X1127328Y732408D01*
X1127117Y732138D01*
X1127011Y732033D01*
X1126917Y731927D01*
X1126823Y731833D01*
X1126730Y731751D01*
X1126647Y731681D01*
X1126577Y731634D01*
X1126530Y731587D01*
X1126483Y731552D01*
X1126460Y731540D01*
X1126448Y731528D01*
X1126284Y731434D01*
X1126119Y731352D01*
X1125767Y731223D01*
X1125415Y731129D01*
X1125075Y731070D01*
X1124911Y731047D01*
X1124770Y731023D01*
X1124641Y731012D01*
X1124535D01*
X1124441Y731000D01*
X1124312D01*
X1124077Y731012D01*
X1123855Y731035D01*
X1123643Y731059D01*
X1123444Y731106D01*
X1123256Y731164D01*
X1123080Y731223D01*
X1122916Y731282D01*
X1122763Y731352D01*
X1122634Y731411D01*
X1122505Y731469D01*
X1122411Y731528D01*
X1122317Y731587D01*
X1122259Y731634D01*
X1122200Y731657D01*
X1122176Y731681D01*
X1122165Y731692D01*
X1122000Y731833D01*
X1121860Y731974D01*
X1121730Y732138D01*
X1121601Y732303D01*
X1121390Y732631D01*
X1121226Y732960D01*
X1121155Y733112D01*
X1121097Y733253D01*
X1121050Y733382D01*
X1121015Y733488D01*
X1120979Y733582D01*
X1120956Y733652D01*
X1120944Y733699D01*
Y733711D01*
X1122024Y733981D01*
X1122071Y733793D01*
X1122130Y733617D01*
X1122188Y733453D01*
X1122247Y733300D01*
X1122317Y733159D01*
X1122388Y733042D01*
X1122470Y732924D01*
X1122540Y732819D01*
X1122599Y732725D01*
X1122669Y732655D01*
X1122728Y732584D01*
X1122775Y732525D01*
X1122822Y732490D01*
X1122857Y732455D01*
X1122869Y732443D01*
X1122880Y732432D01*
X1122998Y732338D01*
X1123127Y732267D01*
X1123385Y732138D01*
X1123632Y732044D01*
X1123878Y731986D01*
X1124089Y731939D01*
X1124171Y731927D01*
X1124253D01*
X1124324Y731915D01*
X1124406D01*
X1124676Y731927D01*
X1124934Y731974D01*
X1125169Y732033D01*
X1125380Y732103D01*
X1125544Y732173D01*
X1125615Y732209D01*
X1125673Y732232D01*
X1125720Y732256D01*
X1125755Y732279D01*
X1125779Y732291D01*
X1125791D01*
X1126014Y732455D01*
X1126201Y732631D01*
X1126366Y732831D01*
X1126495Y733018D01*
X1126600Y733183D01*
X1126671Y733324D01*
X1126694Y733382D01*
X1126718Y733417D01*
X1126730Y733441D01*
Y733453D01*
X1126823Y733758D01*
X1126894Y734063D01*
X1126953Y734368D01*
X1126988Y734650D01*
X1126999Y734779D01*
X1127011Y734896D01*
Y735002D01*
X1127023Y735084D01*
Y735154D01*
Y735213D01*
Y735248D01*
Y735260D01*
X1127011Y735565D01*
X1126988Y735846D01*
X1126941Y736105D01*
X1126894Y736339D01*
X1126859Y736539D01*
X1126835Y736621D01*
X1126812Y736691D01*
X1126800Y736750D01*
X1126788Y736785D01*
X1126776Y736809D01*
Y736821D01*
X1126659Y737090D01*
X1126530Y737337D01*
X1126389Y737536D01*
X1126237Y737712D01*
X1126108Y737853D01*
X1126002Y737947D01*
X1125920Y738006D01*
X1125908Y738029D01*
X1125896D01*
X1125650Y738182D01*
X1125380Y738299D01*
X1125122Y738381D01*
X1124875Y738428D01*
X1124652Y738463D01*
X1124559Y738475D01*
X1124476D01*
X1124418Y738487D01*
X1124324D01*
X1124031Y738475D01*
X1123761Y738428D01*
X1123538Y738358D01*
X1123338Y738287D01*
X1123186Y738205D01*
X1123068Y738147D01*
X1122998Y738100D01*
X1122974Y738076D01*
X1122787Y737900D01*
X1122611Y737701D01*
X1122470Y737489D01*
X1122352Y737278D01*
X1122259Y737090D01*
X1122223Y736997D01*
X1122200Y736926D01*
X1122176Y736867D01*
X1122153Y736821D01*
X1122141Y736797D01*
Y736785D01*
X1121085Y737032D01*
X1121155Y737243D01*
X1121226Y737431D01*
X1121320Y737607D01*
X1121402Y737783D01*
X1121496Y737935D01*
X1121601Y738076D01*
X1121695Y738217D01*
X1121789Y738334D01*
X1121883Y738428D01*
X1121965Y738522D01*
X1122047Y738604D01*
X1122106Y738663D01*
X1122165Y738721D01*
X1122212Y738757D01*
X1122235Y738768D01*
X1122247Y738780D01*
X1122411Y738886D01*
X1122575Y738991D01*
X1122740Y739074D01*
X1122916Y739144D01*
X1123268Y739250D01*
X1123585Y739320D01*
X1123737Y739355D01*
X1123866Y739367D01*
X1123995Y739379D01*
X1124101Y739390D01*
X1124183Y739402D01*
X1124300D01*
X1124688Y739379D01*
D02*
G37*
G36*
X1136000Y731141D02*
X1133078D01*
X1132808Y731153D01*
X1132562Y731164D01*
X1132339Y731188D01*
X1132151Y731211D01*
X1131987Y731235D01*
X1131869Y731246D01*
X1131834Y731258D01*
X1131799Y731270D01*
X1131776D01*
X1131564Y731329D01*
X1131376Y731399D01*
X1131212Y731458D01*
X1131071Y731528D01*
X1130954Y731587D01*
X1130872Y731634D01*
X1130825Y731669D01*
X1130801Y731681D01*
X1130649Y731786D01*
X1130520Y731915D01*
X1130391Y732033D01*
X1130285Y732150D01*
X1130191Y732256D01*
X1130121Y732338D01*
X1130074Y732396D01*
X1130062Y732420D01*
X1129945Y732608D01*
X1129827Y732807D01*
X1129734Y732995D01*
X1129663Y733183D01*
X1129593Y733347D01*
X1129546Y733476D01*
X1129534Y733523D01*
X1129522Y733558D01*
X1129511Y733582D01*
Y733593D01*
X1129440Y733875D01*
X1129382Y734157D01*
X1129346Y734427D01*
X1129311Y734685D01*
X1129299Y734908D01*
Y735002D01*
X1129288Y735084D01*
Y735142D01*
Y735201D01*
Y735225D01*
Y735236D01*
X1129299Y735635D01*
X1129335Y735999D01*
X1129393Y736328D01*
X1129417Y736480D01*
X1129452Y736609D01*
X1129487Y736738D01*
X1129511Y736844D01*
X1129534Y736938D01*
X1129569Y737020D01*
X1129581Y737090D01*
X1129604Y737137D01*
X1129616Y737161D01*
Y737172D01*
X1129745Y737478D01*
X1129898Y737747D01*
X1130062Y737982D01*
X1130215Y738182D01*
X1130356Y738346D01*
X1130473Y738463D01*
X1130520Y738499D01*
X1130555Y738534D01*
X1130567Y738546D01*
X1130579Y738557D01*
X1130766Y738710D01*
X1130966Y738827D01*
X1131165Y738933D01*
X1131353Y739015D01*
X1131517Y739074D01*
X1131646Y739109D01*
X1131693Y739132D01*
X1131729D01*
X1131752Y739144D01*
X1131764D01*
X1131963Y739179D01*
X1132198Y739214D01*
X1132433Y739238D01*
X1132667Y739250D01*
X1132878Y739261D01*
X1136000D01*
Y731141D01*
D02*
G37*
G36*
X1113223Y739390D02*
X1113516Y739355D01*
X1113798Y739296D01*
X1114068Y739226D01*
X1114314Y739132D01*
X1114549Y739038D01*
X1114760Y738933D01*
X1114948Y738827D01*
X1115124Y738721D01*
X1115276Y738616D01*
X1115405Y738522D01*
X1115511Y738428D01*
X1115593Y738358D01*
X1115664Y738299D01*
X1115699Y738264D01*
X1115711Y738252D01*
X1115898Y738029D01*
X1116063Y737794D01*
X1116215Y737536D01*
X1116332Y737278D01*
X1116438Y737008D01*
X1116532Y736750D01*
X1116602Y736492D01*
X1116649Y736245D01*
X1116696Y736011D01*
X1116731Y735788D01*
X1116755Y735588D01*
X1116778Y735424D01*
Y735283D01*
X1116790Y735178D01*
Y735107D01*
Y735096D01*
Y735084D01*
X1116767Y734685D01*
X1116720Y734321D01*
X1116649Y733969D01*
X1116602Y733816D01*
X1116555Y733664D01*
X1116520Y733535D01*
X1116473Y733417D01*
X1116438Y733312D01*
X1116403Y733218D01*
X1116379Y733148D01*
X1116356Y733101D01*
X1116332Y733065D01*
Y733054D01*
X1116133Y732713D01*
X1115922Y732420D01*
X1115687Y732162D01*
X1115464Y731951D01*
X1115265Y731775D01*
X1115182Y731704D01*
X1115112Y731657D01*
X1115042Y731610D01*
X1114995Y731575D01*
X1114971Y731563D01*
X1114959Y731552D01*
X1114783Y731458D01*
X1114607Y731376D01*
X1114255Y731235D01*
X1113915Y731141D01*
X1113598Y731070D01*
X1113446Y731047D01*
X1113317Y731035D01*
X1113199Y731012D01*
X1113094D01*
X1113023Y731000D01*
X1112906D01*
X1112519Y731023D01*
X1112155Y731082D01*
X1111815Y731153D01*
X1111662Y731199D01*
X1111521Y731246D01*
X1111392Y731293D01*
X1111275Y731340D01*
X1111181Y731376D01*
X1111099Y731411D01*
X1111028Y731446D01*
X1110970Y731469D01*
X1110946Y731493D01*
X1110935D01*
X1110606Y731704D01*
X1110324Y731939D01*
X1110090Y732185D01*
X1109890Y732420D01*
X1109726Y732643D01*
X1109667Y732725D01*
X1109620Y732807D01*
X1109573Y732878D01*
X1109550Y732924D01*
X1109526Y732960D01*
Y732971D01*
X1109432Y733159D01*
X1109362Y733347D01*
X1109233Y733723D01*
X1109139Y734098D01*
X1109080Y734438D01*
X1109069Y734591D01*
X1109045Y734732D01*
X1109033Y734861D01*
Y734966D01*
X1109022Y735060D01*
Y735119D01*
Y735166D01*
Y735178D01*
X1109045Y735623D01*
X1109092Y736034D01*
X1109127Y736222D01*
X1109174Y736410D01*
X1109221Y736574D01*
X1109256Y736727D01*
X1109303Y736867D01*
X1109350Y736997D01*
X1109386Y737102D01*
X1109432Y737196D01*
X1109456Y737266D01*
X1109479Y737313D01*
X1109503Y737348D01*
Y737360D01*
X1109691Y737701D01*
X1109913Y738006D01*
X1110148Y738264D01*
X1110359Y738475D01*
X1110559Y738639D01*
X1110653Y738710D01*
X1110723Y738768D01*
X1110794Y738804D01*
X1110841Y738839D01*
X1110864Y738851D01*
X1110876Y738862D01*
X1111052Y738956D01*
X1111228Y739038D01*
X1111568Y739179D01*
X1111920Y739273D01*
X1112225Y739332D01*
X1112366Y739355D01*
X1112507Y739379D01*
X1112613Y739390D01*
X1112718D01*
X1112800Y739402D01*
X1112906D01*
X1113223Y739390D01*
D02*
G37*
%LPC*%
G36*
X1141532Y691416D02*
X1141450Y691146D01*
X1141356Y690865D01*
X1141262Y690583D01*
X1141168Y690313D01*
X1141121Y690196D01*
X1141086Y690079D01*
X1141051Y689973D01*
X1141016Y689891D01*
X1140992Y689820D01*
X1140969Y689762D01*
X1140957Y689727D01*
Y689715D01*
X1140112Y687485D01*
X1142858D01*
X1141978Y689856D01*
X1141872Y690149D01*
X1141790Y690431D01*
X1141708Y690689D01*
X1141649Y690923D01*
X1141602Y691123D01*
X1141579Y691205D01*
X1141567Y691287D01*
X1141544Y691334D01*
Y691381D01*
X1141532Y691405D01*
Y691416D01*
D02*
G37*
G36*
X1135641Y691358D02*
X1133083D01*
X1132766Y691346D01*
X1132496Y691299D01*
X1132262Y691240D01*
X1132085Y691170D01*
X1131933Y691100D01*
X1131839Y691041D01*
X1131780Y690994D01*
X1131757Y690982D01*
X1131616Y690830D01*
X1131510Y690677D01*
X1131440Y690513D01*
X1131381Y690372D01*
X1131358Y690231D01*
X1131346Y690126D01*
X1131334Y690055D01*
Y690043D01*
Y690032D01*
X1131346Y689891D01*
X1131370Y689750D01*
X1131405Y689633D01*
X1131440Y689527D01*
X1131487Y689433D01*
X1131522Y689363D01*
X1131546Y689316D01*
X1131557Y689304D01*
X1131639Y689187D01*
X1131745Y689081D01*
X1131851Y688999D01*
X1131956Y688929D01*
X1132050Y688882D01*
X1132121Y688847D01*
X1132168Y688823D01*
X1132191Y688811D01*
X1132355Y688764D01*
X1132543Y688729D01*
X1132731Y688706D01*
X1132919Y688694D01*
X1133083Y688682D01*
X1133224Y688671D01*
X1135641D01*
Y691358D01*
D02*
G37*
G36*
X1125342Y715416D02*
X1125260Y715146D01*
X1125166Y714865D01*
X1125072Y714583D01*
X1124978Y714313D01*
X1124931Y714196D01*
X1124896Y714079D01*
X1124861Y713973D01*
X1124826Y713891D01*
X1124802Y713820D01*
X1124779Y713762D01*
X1124767Y713727D01*
Y713715D01*
X1123922Y711485D01*
X1126668D01*
X1125788Y713856D01*
X1125683Y714149D01*
X1125600Y714431D01*
X1125518Y714689D01*
X1125460Y714923D01*
X1125413Y715123D01*
X1125389Y715205D01*
X1125378Y715287D01*
X1125354Y715334D01*
Y715381D01*
X1125342Y715405D01*
Y715416D01*
D02*
G37*
G36*
X1134920Y738299D02*
X1133043D01*
X1132890Y738287D01*
X1132738D01*
X1132597Y738276D01*
X1132362Y738240D01*
X1132174Y738217D01*
X1132022Y738182D01*
X1131916Y738147D01*
X1131858Y738135D01*
X1131834Y738123D01*
X1131623Y738017D01*
X1131423Y737888D01*
X1131247Y737736D01*
X1131095Y737583D01*
X1130977Y737442D01*
X1130884Y737325D01*
X1130860Y737278D01*
X1130837Y737243D01*
X1130813Y737219D01*
Y737208D01*
X1130743Y737079D01*
X1130672Y736926D01*
X1130567Y736621D01*
X1130496Y736292D01*
X1130438Y735976D01*
X1130426Y735835D01*
X1130414Y735694D01*
X1130403Y735577D01*
Y735471D01*
X1130391Y735377D01*
Y735318D01*
Y735272D01*
Y735260D01*
X1130403Y734931D01*
X1130426Y734626D01*
X1130461Y734356D01*
X1130496Y734121D01*
X1130520Y734028D01*
X1130543Y733945D01*
X1130567Y733863D01*
X1130579Y733805D01*
X1130590Y733758D01*
X1130602Y733723D01*
X1130614Y733699D01*
Y733687D01*
X1130696Y733464D01*
X1130790Y733265D01*
X1130895Y733089D01*
X1130989Y732936D01*
X1131071Y732819D01*
X1131142Y732737D01*
X1131189Y732690D01*
X1131200Y732666D01*
X1131318Y732572D01*
X1131435Y732490D01*
X1131553Y732420D01*
X1131670Y732349D01*
X1131776Y732303D01*
X1131858Y732267D01*
X1131916Y732256D01*
X1131940Y732244D01*
X1132116Y732197D01*
X1132327Y732162D01*
X1132538Y732138D01*
X1132738Y732127D01*
X1132914Y732115D01*
X1132996Y732103D01*
X1134920D01*
Y738299D01*
D02*
G37*
G36*
X1113011Y738475D02*
X1112906D01*
X1112613Y738463D01*
X1112331Y738416D01*
X1112085Y738346D01*
X1111873Y738276D01*
X1111697Y738193D01*
X1111627Y738158D01*
X1111568Y738135D01*
X1111509Y738100D01*
X1111474Y738088D01*
X1111462Y738064D01*
X1111451D01*
X1111228Y737900D01*
X1111028Y737712D01*
X1110852Y737525D01*
X1110712Y737337D01*
X1110606Y737172D01*
X1110524Y737032D01*
X1110500Y736985D01*
X1110477Y736950D01*
X1110465Y736926D01*
Y736914D01*
X1110348Y736633D01*
X1110266Y736328D01*
X1110207Y736046D01*
X1110172Y735776D01*
X1110148Y735647D01*
X1110136Y735541D01*
Y735436D01*
X1110125Y735354D01*
Y735283D01*
Y735236D01*
Y735201D01*
Y735189D01*
X1110136Y734908D01*
X1110160Y734638D01*
X1110195Y734380D01*
X1110242Y734145D01*
X1110312Y733934D01*
X1110371Y733734D01*
X1110442Y733547D01*
X1110512Y733382D01*
X1110594Y733241D01*
X1110665Y733112D01*
X1110723Y733007D01*
X1110782Y732924D01*
X1110841Y732854D01*
X1110876Y732795D01*
X1110899Y732772D01*
X1110911Y732760D01*
X1111064Y732608D01*
X1111228Y732479D01*
X1111392Y732373D01*
X1111556Y732267D01*
X1111721Y732185D01*
X1111897Y732127D01*
X1112049Y732068D01*
X1112214Y732021D01*
X1112354Y731986D01*
X1112495Y731962D01*
X1112613Y731939D01*
X1112718Y731927D01*
X1112800D01*
X1112859Y731915D01*
X1112918D01*
X1113141Y731927D01*
X1113352Y731951D01*
X1113540Y731998D01*
X1113727Y732044D01*
X1113903Y732115D01*
X1114068Y732185D01*
X1114220Y732256D01*
X1114361Y732338D01*
X1114478Y732420D01*
X1114584Y732490D01*
X1114678Y732561D01*
X1114760Y732631D01*
X1114819Y732678D01*
X1114866Y732725D01*
X1114889Y732748D01*
X1114901Y732760D01*
X1115042Y732924D01*
X1115159Y733101D01*
X1115265Y733288D01*
X1115359Y733476D01*
X1115429Y733676D01*
X1115499Y733863D01*
X1115593Y734239D01*
X1115617Y734403D01*
X1115640Y734567D01*
X1115664Y734708D01*
X1115675Y734826D01*
X1115687Y734931D01*
Y735013D01*
Y735060D01*
Y735072D01*
X1115675Y735401D01*
X1115652Y735706D01*
X1115617Y735999D01*
X1115558Y736257D01*
X1115499Y736492D01*
X1115429Y736703D01*
X1115347Y736903D01*
X1115276Y737067D01*
X1115194Y737219D01*
X1115124Y737348D01*
X1115053Y737454D01*
X1114995Y737536D01*
X1114936Y737607D01*
X1114901Y737654D01*
X1114877Y737677D01*
X1114866Y737689D01*
X1114713Y737830D01*
X1114549Y737947D01*
X1114385Y738053D01*
X1114209Y738147D01*
X1114044Y738217D01*
X1113880Y738287D01*
X1113575Y738381D01*
X1113434Y738405D01*
X1113305Y738428D01*
X1113199Y738452D01*
X1113094Y738463D01*
X1113011Y738475D01*
D02*
G37*
%LPD*%
D10*
X1233250Y627750D02*
G03*
X1233250Y627750I-1250J0D01*
G01*
D12*
X1222150Y677000D02*
G03*
X1222150Y677000I-500J0D01*
G01*
X1323149Y699905D02*
G03*
X1323149Y699905I-500J0D01*
G01*
X1310621Y661621D02*
G03*
X1310621Y661621I-500J0D01*
G01*
D13*
X1465100Y620000D02*
G03*
X1465100Y620000I-100J0D01*
G01*
X1468100Y602500D02*
G03*
X1468100Y602500I-100J0D01*
G01*
X1107000Y607542D02*
X1115000D01*
X1107000Y623543D02*
X1115000D01*
X1126500Y550000D02*
X1134500D01*
X1126500Y566000D02*
X1134500D01*
X1123000Y591000D02*
X1131000D01*
X1123000Y575000D02*
X1131000D01*
X1379503Y613498D02*
Y621497D01*
X1363503Y613498D02*
Y621497D01*
X1094250Y682595D02*
Y693395D01*
X805000Y608000D02*
Y616000D01*
X789000Y608000D02*
Y616000D01*
X1036000Y703000D02*
X1044000D01*
X1036000Y719000D02*
X1044000Y719000D01*
X1094250Y706097D02*
Y716897D01*
Y729600D02*
Y740400D01*
X763000Y608000D02*
Y616000D01*
X779000Y608000D02*
Y616000D01*
X1316497Y613000D02*
Y621000D01*
X1332498Y613000D02*
Y621000D01*
X621000Y679793D02*
Y687793D01*
X605000Y679793D02*
Y687793D01*
Y561500D02*
Y569500D01*
X621000Y561500D02*
Y569500D01*
X656543Y562000D02*
Y570000D01*
X672542Y562000D02*
Y570000D01*
X1382000Y661000D02*
X1390000D01*
X1382000Y677000D02*
X1390000D01*
X1340000Y613000D02*
Y621000D01*
X1356000Y613000D02*
Y621000D01*
X1382000Y651000D02*
X1390000D01*
X1382000Y635000D02*
X1390000D01*
X1252543Y669707D02*
X1260543Y669707D01*
X1252543Y653707D02*
X1260543D01*
X1223000Y653708D02*
X1231000Y653707D01*
X1223000Y669707D02*
X1231000D01*
X1253000Y734293D02*
X1261000D01*
X1253000Y718292D02*
X1261000Y718292D01*
X1223457D02*
X1231457Y718292D01*
X1223457Y734293D02*
X1231457D01*
X632000Y545957D02*
X640000D01*
X632000Y529958D02*
X640000D01*
X581000Y627000D02*
X589000D01*
X581000Y643000D02*
X589000Y643000D01*
X581000Y586000D02*
X589000D01*
X581000Y602000D02*
X589000D01*
X722543Y620000D02*
X730543D01*
X722543Y604000D02*
X730543D01*
X693000D02*
X701000D01*
X693000Y620000D02*
X701000D01*
X693000Y594458D02*
X701000D01*
X693000Y578457D02*
X701000D01*
X581000Y655000D02*
X589000D01*
X581000Y671000D02*
X589000D01*
D14*
X1015750Y545250D02*
Y650750D01*
Y545250D02*
X1026750D01*
X1015750Y650750D02*
X1026750D01*
X1234500Y609000D02*
X1265500D01*
X1234500Y619000D02*
X1265500D01*
Y609000D02*
Y619000D01*
X1234500Y609000D02*
Y619000D01*
X1253100Y711000D02*
X1259650D01*
X1225650D02*
X1232200D01*
X1253100Y677000D02*
X1259650Y677000D01*
X1225650Y677000D02*
X1232200Y677000D01*
X1259650Y709500D02*
Y711000D01*
Y677000D02*
Y678500D01*
X1225650Y709500D02*
X1225650Y711000D01*
X1225650Y677000D02*
Y678500D01*
X1409100Y606000D02*
X1471000D01*
X1409100Y644000D02*
X1457000D01*
X1471000Y606000D02*
Y644000D01*
X1409100Y606000D02*
Y636900D01*
Y644000D01*
X1457000D02*
X1471000D01*
X1078500Y686495D02*
Y688616D01*
X1078500Y687374D02*
X1078500Y689495D01*
X1080000Y687995D01*
X1078500Y686495D02*
X1080000Y687995D01*
X1078500Y712119D02*
X1078500Y709997D01*
Y710876D02*
Y712998D01*
X1080000Y711497D01*
X1078500Y709997D02*
X1080000Y711497D01*
X1078500Y733500D02*
Y735621D01*
Y734379D02*
Y736500D01*
X1080000Y735000D01*
X1078500Y733500D02*
X1080000Y735000D01*
D15*
X1095935Y612369D02*
Y618717D01*
X1092761D01*
X1091703Y617659D01*
Y615542D01*
X1092761Y614484D01*
X1095935D01*
X1093819D02*
X1091703Y612369D01*
X1089587D02*
X1087471D01*
X1088529D01*
Y618717D01*
X1089587Y617659D01*
X1084297Y613427D02*
X1083239Y612369D01*
X1081123D01*
X1080065Y613427D01*
Y617659D01*
X1081123Y618717D01*
X1083239D01*
X1084297Y617659D01*
Y616600D01*
X1083239Y615542D01*
X1080065D01*
X1130732Y543658D02*
X1131790Y544716D01*
X1133906D01*
X1134964Y543658D01*
Y539426D01*
X1133906Y538368D01*
X1131790D01*
X1130732Y539426D01*
X1128616Y543658D02*
X1127558Y544716D01*
X1125442D01*
X1124384Y543658D01*
Y542601D01*
X1125442Y541543D01*
X1126500D01*
X1125442D01*
X1124384Y540485D01*
Y539426D01*
X1125442Y538368D01*
X1127558D01*
X1128616Y539426D01*
X1122268Y544716D02*
X1118036D01*
Y543658D01*
X1122268Y539426D01*
Y538368D01*
X1126232Y601116D02*
X1127290Y602174D01*
X1129406D01*
X1130464Y601116D01*
Y596884D01*
X1129406Y595826D01*
X1127290D01*
X1126232Y596884D01*
X1124116Y601116D02*
X1123058Y602174D01*
X1120942D01*
X1119884Y601116D01*
Y600058D01*
X1120942Y599000D01*
X1122000D01*
X1120942D01*
X1119884Y597942D01*
Y596884D01*
X1120942Y595826D01*
X1123058D01*
X1124116Y596884D01*
X1117768Y601116D02*
X1116710Y602174D01*
X1114594D01*
X1113536Y601116D01*
Y600058D01*
X1114594Y599000D01*
X1113536Y597942D01*
Y596884D01*
X1114594Y595826D01*
X1116710D01*
X1117768Y596884D01*
Y597942D01*
X1116710Y599000D01*
X1117768Y600058D01*
Y601116D01*
X1116710Y599000D02*
X1114594D01*
X1072942Y553826D02*
X1070826D01*
X1071884D01*
Y559116D01*
X1070826Y560174D01*
X1069768D01*
X1068710Y559116D01*
X1079290Y560174D02*
X1075058D01*
X1079290Y555942D01*
Y554884D01*
X1078232Y553826D01*
X1076116D01*
X1075058Y554884D01*
X802640Y631952D02*
Y638300D01*
X799466D01*
X798408Y637242D01*
Y635126D01*
X799466Y634068D01*
X802640D01*
X800524D02*
X798408Y631952D01*
X796292D02*
X794176D01*
X795234D01*
Y638300D01*
X796292Y637242D01*
X787828Y631952D02*
Y638300D01*
X791002Y635126D01*
X786770D01*
X1377290Y598826D02*
Y605174D01*
X1374116D01*
X1373058Y604116D01*
Y602000D01*
X1374116Y600942D01*
X1377290D01*
X1375174D02*
X1373058Y598826D01*
X1370942Y599884D02*
X1369884Y598826D01*
X1367768D01*
X1366710Y599884D01*
Y604116D01*
X1367768Y605174D01*
X1369884D01*
X1370942Y604116D01*
Y603058D01*
X1369884Y602000D01*
X1366710D01*
X1324864Y636778D02*
Y643126D01*
X1321690D01*
X1320632Y642068D01*
Y639952D01*
X1321690Y638894D01*
X1324864D01*
X1322748D02*
X1320632Y636778D01*
X1314284Y643126D02*
X1318516D01*
Y639952D01*
X1316400Y641010D01*
X1315342D01*
X1314284Y639952D01*
Y637836D01*
X1315342Y636778D01*
X1317458D01*
X1318516Y637836D01*
X1024734Y708329D02*
Y714677D01*
X1021561D01*
X1020502Y713619D01*
Y711503D01*
X1021561Y710445D01*
X1024734D01*
X1022618D02*
X1020502Y708329D01*
X1018387D02*
X1016271D01*
X1017329D01*
Y714677D01*
X1018387Y713619D01*
X1066290Y691174D02*
Y684826D01*
X1063116D01*
X1062058Y685884D01*
Y690116D01*
X1063116Y691174D01*
X1066290D01*
X1059942Y690116D02*
X1058884Y691174D01*
X1056768D01*
X1055710Y690116D01*
Y689058D01*
X1056768Y688000D01*
X1057826D01*
X1056768D01*
X1055710Y686942D01*
Y685884D01*
X1056768Y684826D01*
X1058884D01*
X1059942Y685884D01*
X1066290Y715174D02*
Y708826D01*
X1063116D01*
X1062058Y709884D01*
Y714116D01*
X1063116Y715174D01*
X1066290D01*
X1055710Y708826D02*
X1059942D01*
X1055710Y713058D01*
Y714116D01*
X1056768Y715174D01*
X1058884D01*
X1059942Y714116D01*
X1064232Y738174D02*
Y731826D01*
X1061058D01*
X1060000Y732884D01*
Y737116D01*
X1061058Y738174D01*
X1064232D01*
X1057884Y731826D02*
X1055768D01*
X1056826D01*
Y738174D01*
X1057884Y737116D01*
X773516Y637242D02*
X774574Y638300D01*
X776690D01*
X777748Y637242D01*
Y633010D01*
X776690Y631952D01*
X774574D01*
X773516Y633010D01*
X771400Y637242D02*
X770342Y638300D01*
X768226D01*
X767168Y637242D01*
Y636184D01*
X768226Y635126D01*
X769284D01*
X768226D01*
X767168Y634068D01*
Y633010D01*
X768226Y631952D01*
X770342D01*
X771400Y633010D01*
X761878Y631952D02*
Y638300D01*
X765052Y635126D01*
X760820D01*
X1474724Y660652D02*
Y655362D01*
X1473666Y654304D01*
X1471550D01*
X1470492Y655362D01*
Y660652D01*
X1468376Y659594D02*
X1467318Y660652D01*
X1465202D01*
X1464144Y659594D01*
Y658536D01*
X1465202Y657478D01*
X1464144Y656420D01*
Y655362D01*
X1465202Y654304D01*
X1467318D01*
X1468376Y655362D01*
Y656420D01*
X1467318Y657478D01*
X1468376Y658536D01*
Y659594D01*
X1467318Y657478D02*
X1465202D01*
X1275290Y697174D02*
Y691884D01*
X1274232Y690826D01*
X1272116D01*
X1271058Y691884D01*
Y697174D01*
X1268942Y696116D02*
X1267884Y697174D01*
X1265768D01*
X1264710Y696116D01*
Y695058D01*
X1265768Y694000D01*
X1266826D01*
X1265768D01*
X1264710Y692942D01*
Y691884D01*
X1265768Y690826D01*
X1267884D01*
X1268942Y691884D01*
X1281290Y617174D02*
Y611884D01*
X1280232Y610826D01*
X1278116D01*
X1277058Y611884D01*
Y617174D01*
X1270710Y610826D02*
X1274942D01*
X1270710Y615058D01*
Y616116D01*
X1271768Y617174D01*
X1273884D01*
X1274942Y616116D01*
X664935Y534826D02*
Y541174D01*
X661761D01*
X660703Y540116D01*
Y538000D01*
X661761Y536942D01*
X664935D01*
X662819D02*
X660703Y534826D01*
X658587D02*
X656471D01*
X657529D01*
Y541174D01*
X658587Y540116D01*
X649065Y541174D02*
X653297D01*
Y538000D01*
X651181Y539058D01*
X650123D01*
X649065Y538000D01*
Y535884D01*
X650123Y534826D01*
X652239D01*
X653297Y535884D01*
X652290Y686174D02*
Y679826D01*
X648058D01*
X642768D02*
Y686174D01*
X645942Y683000D01*
X641710D01*
X617232Y705116D02*
X618290Y706174D01*
X620406D01*
X621464Y705116D01*
Y700884D01*
X620406Y699826D01*
X618290D01*
X617232Y700884D01*
X615116Y705116D02*
X614058Y706174D01*
X611942D01*
X610884Y705116D01*
Y704058D01*
X611942Y703000D01*
X613000D01*
X611942D01*
X610884Y701942D01*
Y700884D01*
X611942Y699826D01*
X614058D01*
X615116Y700884D01*
X604536Y706174D02*
X608768D01*
Y703000D01*
X606652Y704058D01*
X605594D01*
X604536Y703000D01*
Y700884D01*
X605594Y699826D01*
X607710D01*
X608768Y700884D01*
X680232Y614116D02*
X681290Y615174D01*
X683406D01*
X684464Y614116D01*
Y609884D01*
X683406Y608826D01*
X681290D01*
X680232Y609884D01*
X678116Y614116D02*
X677058Y615174D01*
X674942D01*
X673884Y614116D01*
Y613058D01*
X674942Y612000D01*
X676000D01*
X674942D01*
X673884Y610942D01*
Y609884D01*
X674942Y608826D01*
X677058D01*
X678116Y609884D01*
X667536Y608826D02*
X671768D01*
X667536Y613058D01*
Y614116D01*
X668594Y615174D01*
X670710D01*
X671768Y614116D01*
X729174Y630116D02*
X730232Y631174D01*
X732348D01*
X733406Y630116D01*
Y625884D01*
X732348Y624826D01*
X730232D01*
X729174Y625884D01*
X727058Y630116D02*
X726000Y631174D01*
X723884D01*
X722826Y630116D01*
Y629058D01*
X723884Y628000D01*
X724942D01*
X723884D01*
X722826Y626942D01*
Y625884D01*
X723884Y624826D01*
X726000D01*
X727058Y625884D01*
X720710Y624826D02*
X718594D01*
X719652D01*
Y631174D01*
X720710Y630116D01*
X565232Y596116D02*
X566290Y597174D01*
X568406D01*
X569464Y596116D01*
Y591884D01*
X568406Y590826D01*
X566290D01*
X565232Y591884D01*
X563116Y596116D02*
X562058Y597174D01*
X559942D01*
X558884Y596116D01*
Y595058D01*
X559942Y594000D01*
X561000D01*
X559942D01*
X558884Y592942D01*
Y591884D01*
X559942Y590826D01*
X562058D01*
X563116Y591884D01*
X556768Y596116D02*
X555710Y597174D01*
X553594D01*
X552536Y596116D01*
Y591884D01*
X553594Y590826D01*
X555710D01*
X556768Y591884D01*
Y596116D01*
X565232Y637116D02*
X566290Y638174D01*
X568406D01*
X569464Y637116D01*
Y632884D01*
X568406Y631826D01*
X566290D01*
X565232Y632884D01*
X558884Y631826D02*
X563116D01*
X558884Y636058D01*
Y637116D01*
X559942Y638174D01*
X562058D01*
X563116Y637116D01*
X556768Y632884D02*
X555710Y631826D01*
X553594D01*
X552536Y632884D01*
Y637116D01*
X553594Y638174D01*
X555710D01*
X556768Y637116D01*
Y636058D01*
X555710Y635000D01*
X552536D01*
X565232Y665116D02*
X566290Y666174D01*
X568406D01*
X569464Y665116D01*
Y660884D01*
X568406Y659826D01*
X566290D01*
X565232Y660884D01*
X558884Y659826D02*
X563116D01*
X558884Y664058D01*
Y665116D01*
X559942Y666174D01*
X562058D01*
X563116Y665116D01*
X556768D02*
X555710Y666174D01*
X553594D01*
X552536Y665116D01*
Y664058D01*
X553594Y663000D01*
X552536Y661942D01*
Y660884D01*
X553594Y659826D01*
X555710D01*
X556768Y660884D01*
Y661942D01*
X555710Y663000D01*
X556768Y664058D01*
Y665116D01*
X555710Y663000D02*
X553594D01*
X723232Y589116D02*
X724290Y590174D01*
X726406D01*
X727464Y589116D01*
Y584884D01*
X726406Y583826D01*
X724290D01*
X723232Y584884D01*
X716884Y583826D02*
X721116D01*
X716884Y588058D01*
Y589116D01*
X717942Y590174D01*
X720058D01*
X721116Y589116D01*
X714768Y590174D02*
X710536D01*
Y589116D01*
X714768Y584884D01*
Y583826D01*
X669232Y584116D02*
X670290Y585174D01*
X672406D01*
X673464Y584116D01*
Y579884D01*
X672406Y578826D01*
X670290D01*
X669232Y579884D01*
X662884Y578826D02*
X667116D01*
X662884Y583058D01*
Y584116D01*
X663942Y585174D01*
X666058D01*
X667116Y584116D01*
X656536Y585174D02*
X658652Y584116D01*
X660768Y582000D01*
Y579884D01*
X659710Y578826D01*
X657594D01*
X656536Y579884D01*
Y580942D01*
X657594Y582000D01*
X660768D01*
X617232Y584116D02*
X618290Y585174D01*
X620406D01*
X621464Y584116D01*
Y579884D01*
X620406Y578826D01*
X618290D01*
X617232Y579884D01*
X610884Y578826D02*
X615116D01*
X610884Y583058D01*
Y584116D01*
X611942Y585174D01*
X614058D01*
X615116Y584116D01*
X604536Y585174D02*
X608768D01*
Y582000D01*
X606652Y583058D01*
X605594D01*
X604536Y582000D01*
Y579884D01*
X605594Y578826D01*
X607710D01*
X608768Y579884D01*
X1366703Y671116D02*
X1367761Y672174D01*
X1369877D01*
X1370935Y671116D01*
Y666884D01*
X1369877Y665826D01*
X1367761D01*
X1366703Y666884D01*
X1364587Y665826D02*
X1362471D01*
X1363529D01*
Y672174D01*
X1364587Y671116D01*
X1359297D02*
X1358239Y672174D01*
X1356123D01*
X1355065Y671116D01*
Y666884D01*
X1356123Y665826D01*
X1358239D01*
X1359297Y666884D01*
Y671116D01*
X1368058Y645116D02*
X1369116Y646174D01*
X1371232D01*
X1372290Y645116D01*
Y640884D01*
X1371232Y639826D01*
X1369116D01*
X1368058Y640884D01*
X1365942D02*
X1364884Y639826D01*
X1362768D01*
X1361710Y640884D01*
Y645116D01*
X1362768Y646174D01*
X1364884D01*
X1365942Y645116D01*
Y644058D01*
X1364884Y643000D01*
X1361710D01*
X1277058Y728116D02*
X1278116Y729174D01*
X1280232D01*
X1281290Y728116D01*
Y723884D01*
X1280232Y722826D01*
X1278116D01*
X1277058Y723884D01*
X1274942Y728116D02*
X1273884Y729174D01*
X1271768D01*
X1270710Y728116D01*
Y727058D01*
X1271768Y726000D01*
X1270710Y724942D01*
Y723884D01*
X1271768Y722826D01*
X1273884D01*
X1274942Y723884D01*
Y724942D01*
X1273884Y726000D01*
X1274942Y727058D01*
Y728116D01*
X1273884Y726000D02*
X1271768D01*
X1208058Y728116D02*
X1209116Y729174D01*
X1211232D01*
X1212290Y728116D01*
Y723884D01*
X1211232Y722826D01*
X1209116D01*
X1208058Y723884D01*
X1205942Y729174D02*
X1201710D01*
Y728116D01*
X1205942Y723884D01*
Y722826D01*
X1208058Y663531D02*
X1209116Y664589D01*
X1211232D01*
X1212290Y663531D01*
Y659299D01*
X1211232Y658241D01*
X1209116D01*
X1208058Y659299D01*
X1201710Y664589D02*
X1203826Y663531D01*
X1205942Y661415D01*
Y659299D01*
X1204884Y658241D01*
X1202768D01*
X1201710Y659299D01*
Y660357D01*
X1202768Y661415D01*
X1205942D01*
X1275058Y670116D02*
X1276116Y671174D01*
X1278232D01*
X1279290Y670116D01*
Y665884D01*
X1278232Y664826D01*
X1276116D01*
X1275058Y665884D01*
X1268710Y671174D02*
X1272942D01*
Y668000D01*
X1270826Y669058D01*
X1269768D01*
X1268710Y668000D01*
Y665884D01*
X1269768Y664826D01*
X1271884D01*
X1272942Y665884D01*
X1342058Y697116D02*
X1343116Y698174D01*
X1345232D01*
X1346290Y697116D01*
Y692884D01*
X1345232Y691826D01*
X1343116D01*
X1342058Y692884D01*
X1336768Y691826D02*
Y698174D01*
X1339942Y695000D01*
X1335710D01*
X1293058Y670116D02*
X1294116Y671174D01*
X1296232D01*
X1297290Y670116D01*
Y665884D01*
X1296232Y664826D01*
X1294116D01*
X1293058Y665884D01*
X1290942Y670116D02*
X1289884Y671174D01*
X1287768D01*
X1286710Y670116D01*
Y669058D01*
X1287768Y668000D01*
X1288826D01*
X1287768D01*
X1286710Y666942D01*
Y665884D01*
X1287768Y664826D01*
X1289884D01*
X1290942Y665884D01*
X1349058Y604116D02*
X1350116Y605174D01*
X1352232D01*
X1353290Y604116D01*
Y599884D01*
X1352232Y598826D01*
X1350116D01*
X1349058Y599884D01*
X1342710Y598826D02*
X1346942D01*
X1342710Y603058D01*
Y604116D01*
X1343768Y605174D01*
X1345884D01*
X1346942Y604116D01*
D122*
X1064100Y572000D02*
Y575386D01*
Y573693D01*
X1074257D01*
X1072564Y572000D01*
Y621000D02*
X1074257Y622693D01*
Y626078D01*
X1072564Y627771D01*
X1070871D01*
X1069178Y626078D01*
X1067486Y627771D01*
X1065793D01*
X1064100Y626078D01*
Y622693D01*
X1065793Y621000D01*
X1067486D01*
X1069178Y622693D01*
X1070871Y621000D01*
X1072564D01*
X1069178Y622693D02*
Y626078D01*
M02*
