G04*
G04 #@! TF.GenerationSoftware,Altium Limited,Altium Designer,21.3.2 (30)*
G04*
G04 Layer_Physical_Order=4*
G04 Layer_Color=16711680*
%FSLAX44Y44*%
%MOMM*%
G71*
G04*
G04 #@! TF.SameCoordinates,BB622590-8895-4630-97EF-0A5410F07859*
G04*
G04*
G04 #@! TF.FilePolarity,Positive*
G04*
G01*
G75*
%ADD13C,0.2540*%
%ADD14C,0.2000*%
%ADD15C,0.1270*%
%ADD21R,1.3000X1.5000*%
%ADD43R,0.9000X0.6000*%
G04:AMPARAMS|DCode=44|XSize=0.6mm|YSize=0.9mm|CornerRadius=0.15mm|HoleSize=0mm|Usage=FLASHONLY|Rotation=270.000|XOffset=0mm|YOffset=0mm|HoleType=Round|Shape=RoundedRectangle|*
%AMROUNDEDRECTD44*
21,1,0.6000,0.6000,0,0,270.0*
21,1,0.3000,0.9000,0,0,270.0*
1,1,0.3000,-0.3000,-0.1500*
1,1,0.3000,-0.3000,0.1500*
1,1,0.3000,0.3000,0.1500*
1,1,0.3000,0.3000,-0.1500*
%
%ADD44ROUNDEDRECTD44*%
%ADD45R,0.6000X0.9000*%
G04:AMPARAMS|DCode=46|XSize=0.6mm|YSize=0.9mm|CornerRadius=0.15mm|HoleSize=0mm|Usage=FLASHONLY|Rotation=0.000|XOffset=0mm|YOffset=0mm|HoleType=Round|Shape=RoundedRectangle|*
%AMROUNDEDRECTD46*
21,1,0.6000,0.6000,0,0,0.0*
21,1,0.3000,0.9000,0,0,0.0*
1,1,0.3000,0.1500,-0.3000*
1,1,0.3000,-0.1500,-0.3000*
1,1,0.3000,-0.1500,0.3000*
1,1,0.3000,0.1500,0.3000*
%
%ADD46ROUNDEDRECTD46*%
%ADD92O,0.9000X1.5500*%
%ADD93O,1.2500X0.9500*%
%ADD94R,1.5000X1.5000*%
%ADD95C,1.5000*%
%ADD96R,1.5000X1.5000*%
%ADD97C,1.0000*%
%ADD98R,1.0000X1.0000*%
%ADD99C,0.7500*%
%ADD100C,0.4500*%
%ADD101C,0.5000*%
%ADD102R,1.2000X0.3000*%
%ADD103R,3.0000X2.7000*%
%ADD104R,0.9400X0.8900*%
%ADD105R,0.6000X1.0000*%
G04:AMPARAMS|DCode=106|XSize=0.6mm|YSize=1mm|CornerRadius=0.15mm|HoleSize=0mm|Usage=FLASHONLY|Rotation=180.000|XOffset=0mm|YOffset=0mm|HoleType=Round|Shape=RoundedRectangle|*
%AMROUNDEDRECTD106*
21,1,0.6000,0.7000,0,0,180.0*
21,1,0.3000,1.0000,0,0,180.0*
1,1,0.3000,-0.1500,0.3500*
1,1,0.3000,0.1500,0.3500*
1,1,0.3000,0.1500,-0.3500*
1,1,0.3000,-0.1500,-0.3500*
%
%ADD106ROUNDEDRECTD106*%
%ADD107R,1.4900X2.3700*%
%ADD108R,0.9000X0.4000*%
G04:AMPARAMS|DCode=109|XSize=0.4mm|YSize=0.9mm|CornerRadius=0.1mm|HoleSize=0mm|Usage=FLASHONLY|Rotation=270.000|XOffset=0mm|YOffset=0mm|HoleType=Round|Shape=RoundedRectangle|*
%AMROUNDEDRECTD109*
21,1,0.4000,0.7000,0,0,270.0*
21,1,0.2000,0.9000,0,0,270.0*
1,1,0.2000,-0.3500,-0.1000*
1,1,0.2000,-0.3500,0.1000*
1,1,0.2000,0.3500,0.1000*
1,1,0.2000,0.3500,-0.1000*
%
%ADD109ROUNDEDRECTD109*%
G04:AMPARAMS|DCode=110|XSize=0.75mm|YSize=0.35mm|CornerRadius=0.0875mm|HoleSize=0mm|Usage=FLASHONLY|Rotation=90.000|XOffset=0mm|YOffset=0mm|HoleType=Round|Shape=RoundedRectangle|*
%AMROUNDEDRECTD110*
21,1,0.7500,0.1750,0,0,90.0*
21,1,0.5750,0.3500,0,0,90.0*
1,1,0.1750,0.0875,0.2875*
1,1,0.1750,0.0875,-0.2875*
1,1,0.1750,-0.0875,-0.2875*
1,1,0.1750,-0.0875,0.2875*
%
%ADD110ROUNDEDRECTD110*%
%ADD111R,0.3500X0.7500*%
G36*
X1277115Y723391D02*
Y702174D01*
X1276702Y701861D01*
X1275902Y701592D01*
X1271247Y706247D01*
X1269987Y707089D01*
X1268500Y707385D01*
X1260485D01*
Y713852D01*
X1261755Y714237D01*
X1261948Y713948D01*
X1263119Y713165D01*
X1264500Y712891D01*
X1265881Y713165D01*
X1267052Y713948D01*
X1267835Y715119D01*
X1268109Y716500D01*
Y719387D01*
X1263602Y723895D01*
X1265398Y725691D01*
X1268770Y722319D01*
Y730077D01*
X1269943Y730563D01*
X1277115Y723391D01*
D02*
G37*
G36*
X1342500Y717915D02*
Y702552D01*
X1349372Y709424D01*
X1351168Y707628D01*
X1344296Y700756D01*
X1357723D01*
X1358040Y700756D01*
X1358993Y699991D01*
Y693222D01*
X1355506Y689734D01*
X1354664Y688474D01*
X1354368Y686987D01*
X1354434Y686657D01*
X1354179Y686214D01*
X1353370Y685495D01*
X1338503D01*
X1337977Y686765D01*
X1338044Y686831D01*
X1338579Y688124D01*
Y689525D01*
X1338044Y690819D01*
X1337053Y691809D01*
X1335963Y692260D01*
X1335759Y692346D01*
X1335036Y693615D01*
X1335155Y694210D01*
Y700756D01*
X1339040D01*
Y718115D01*
X1339470D01*
X1340956Y718411D01*
X1341401Y718708D01*
X1342500Y717915D01*
D02*
G37*
G36*
X905410Y747000D02*
Y625000D01*
X905607Y624009D01*
X906169Y623169D01*
X907009Y622607D01*
X908000Y622410D01*
X997000D01*
Y503000D01*
X831764D01*
X831089Y504000D01*
X831237Y504744D01*
Y513256D01*
X830991Y514495D01*
X830289Y515545D01*
X829545Y516289D01*
X828495Y516991D01*
X827256Y517237D01*
X809744D01*
X808505Y516991D01*
X807455Y516289D01*
X806711Y515545D01*
X806009Y514495D01*
X805763Y513256D01*
Y504744D01*
X805911Y504000D01*
X805236Y503000D01*
X503000D01*
X503000Y747000D01*
X905410Y747000D01*
D02*
G37*
G36*
X1320626D02*
X1321152Y745730D01*
X1319962Y744540D01*
X1309460D01*
Y729460D01*
X1324540D01*
Y729806D01*
X1325810Y730539D01*
X1326790Y729974D01*
X1328707Y729460D01*
X1330693D01*
X1332610Y729974D01*
X1334330Y730966D01*
X1335205Y731842D01*
X1336050Y732226D01*
X1336895Y731842D01*
X1337770Y730966D01*
X1339490Y729974D01*
X1340527Y729696D01*
X1340530Y729689D01*
X1340630Y728353D01*
X1339723Y727747D01*
X1337861Y725885D01*
X1302000D01*
X1300513Y725589D01*
X1299253Y724747D01*
X1298411Y723487D01*
X1298115Y722000D01*
X1298411Y720513D01*
X1299253Y719253D01*
X1300513Y718411D01*
X1302000Y718115D01*
X1323500D01*
Y700756D01*
X1327385D01*
Y695819D01*
X1323391Y691825D01*
X1320427D01*
X1319993Y692259D01*
X1319545Y692928D01*
X1319798Y694078D01*
X1320129Y694573D01*
X1320425Y696060D01*
X1320129Y697547D01*
X1319287Y698807D01*
X1318026Y699649D01*
X1316540Y699945D01*
X1304420D01*
X1302933Y699649D01*
X1301673Y698807D01*
X1300831Y697547D01*
X1300535Y696060D01*
X1300715Y695155D01*
X1299880Y693885D01*
X1294609D01*
X1284885Y703609D01*
Y725000D01*
X1284589Y726487D01*
X1283747Y727747D01*
X1272747Y738747D01*
X1271487Y739589D01*
X1270000Y739885D01*
X1154077D01*
X1152590Y739589D01*
X1151330Y738747D01*
X1128291Y715708D01*
X1127449Y714448D01*
X1127154Y712962D01*
X1127449Y711475D01*
X1128291Y710215D01*
X1129552Y709373D01*
X1131038Y709077D01*
X1132525Y709373D01*
X1133785Y710215D01*
X1155686Y732115D01*
X1214439D01*
X1215687Y732063D01*
X1215687Y730845D01*
Y722319D01*
X1219059Y725691D01*
X1219957Y724792D01*
X1220855Y725691D01*
X1224227Y722318D01*
X1224227Y732063D01*
X1225475Y732115D01*
X1230584D01*
X1231163Y730845D01*
X1230848Y730373D01*
X1230633Y729293D01*
Y723292D01*
X1230848Y722212D01*
X1231460Y721295D01*
X1232377Y720683D01*
X1233457Y720468D01*
X1236457D01*
X1237538Y720683D01*
X1238454Y721295D01*
X1239067Y722212D01*
X1239106Y722408D01*
X1245352D01*
X1245391Y722212D01*
X1246003Y721295D01*
X1246919Y720683D01*
X1248000Y720468D01*
X1248331D01*
X1252715Y716084D01*
Y706770D01*
X1251370D01*
Y707120D01*
X1246259D01*
Y710350D01*
X1245985Y711731D01*
X1245202Y712902D01*
X1244031Y713685D01*
X1242650Y713959D01*
X1213145D01*
X1200552Y726552D01*
X1199381Y727335D01*
X1198000Y727609D01*
X1196619Y727335D01*
X1195448Y726552D01*
X1194665Y725381D01*
X1194391Y724000D01*
X1194665Y722619D01*
X1195448Y721448D01*
X1209098Y707798D01*
X1210269Y707015D01*
X1211650Y706741D01*
X1222930D01*
Y700230D01*
X1233930D01*
Y697270D01*
X1224726D01*
X1227098Y694898D01*
X1226200Y694000D01*
X1227098Y693102D01*
X1224726Y690730D01*
X1233930D01*
Y688602D01*
X1233715Y688356D01*
X1232660Y687723D01*
X1232200Y687814D01*
X1230597D01*
X1230187Y688089D01*
X1228700Y688385D01*
X1227213Y688089D01*
X1226803Y687814D01*
X1225200D01*
X1224314Y687638D01*
X1223563Y687137D01*
X1223062Y686386D01*
X1222886Y685500D01*
Y683500D01*
X1223062Y682614D01*
X1223563Y681863D01*
X1224314Y681362D01*
X1225115Y681202D01*
Y681000D01*
X1225411Y679513D01*
X1226253Y678253D01*
X1232253Y672253D01*
X1233513Y671411D01*
X1235000Y671115D01*
X1245158D01*
Y666124D01*
X1244933Y665788D01*
X1244894Y665592D01*
X1238648D01*
X1238609Y665788D01*
X1237997Y666704D01*
X1237081Y667317D01*
X1236000Y667532D01*
X1233000D01*
X1231919Y667317D01*
X1231003Y666704D01*
X1230391Y665788D01*
X1230176Y664707D01*
Y658708D01*
X1230391Y657627D01*
X1231003Y656710D01*
X1231919Y656098D01*
X1233000Y655883D01*
X1236000D01*
X1237081Y656098D01*
X1237997Y656710D01*
X1238609Y657627D01*
X1238648Y657823D01*
X1244894D01*
X1244933Y657627D01*
X1245546Y656710D01*
X1246462Y656098D01*
X1247542Y655883D01*
X1250543D01*
X1251623Y656098D01*
X1252540Y656710D01*
X1253152Y657627D01*
X1253367Y658707D01*
Y664707D01*
X1253152Y665788D01*
X1252927Y666124D01*
Y673434D01*
X1256117Y676623D01*
X1256959Y677883D01*
X1257203Y679108D01*
X1257910Y679479D01*
X1258525Y679582D01*
X1264995Y673111D01*
X1265040Y672885D01*
X1265882Y671624D01*
X1269074Y668432D01*
X1268233Y667477D01*
X1261569D01*
X1264940Y664106D01*
X1263145Y662309D01*
X1259772Y665681D01*
Y657734D01*
X1263145Y661105D01*
X1264940Y659309D01*
X1261085Y655454D01*
Y648445D01*
X1259986Y647810D01*
X1259610Y648026D01*
X1257693Y648540D01*
X1255707D01*
X1253790Y648026D01*
X1252810Y647461D01*
X1251540Y648194D01*
Y648540D01*
X1236460D01*
Y633460D01*
X1236460D01*
X1236370Y632227D01*
X1236176Y631250D01*
Y628979D01*
X1234906Y628300D01*
X1234878Y628319D01*
Y634157D01*
X1234582Y635644D01*
X1233740Y636904D01*
X1222537Y648107D01*
X1221277Y648949D01*
X1219790Y649245D01*
X1218303Y648949D01*
X1217043Y648107D01*
X1216201Y646847D01*
X1215905Y645360D01*
X1216201Y643874D01*
X1217043Y642613D01*
X1227109Y632548D01*
Y625511D01*
X1227404Y624024D01*
X1228246Y622764D01*
X1239305Y611705D01*
X1240566Y610863D01*
X1242052Y610567D01*
X1246115D01*
Y607630D01*
X1245730Y606520D01*
X1244770D01*
Y606520D01*
X1244460Y606520D01*
X1236230D01*
Y593980D01*
X1240168D01*
X1240576Y593370D01*
X1242076Y591870D01*
X1242076Y591870D01*
X1243620Y590326D01*
X1243849Y590173D01*
X1244028Y588556D01*
X1243475Y588003D01*
X1242831Y587039D01*
X1242780Y586988D01*
X1242244Y585694D01*
Y584294D01*
X1242780Y583000D01*
X1243770Y582010D01*
X1245064Y581474D01*
X1246464D01*
X1247758Y582010D01*
X1248559Y582811D01*
X1249188Y582949D01*
X1250060Y582847D01*
X1250810Y582097D01*
X1252104Y581561D01*
X1253504D01*
X1254798Y582097D01*
X1255788Y583088D01*
X1256324Y584381D01*
Y585782D01*
X1255788Y587075D01*
X1255386Y587477D01*
X1255093Y587916D01*
X1254787Y588221D01*
X1255205Y589599D01*
X1255330Y589624D01*
X1256380Y590326D01*
X1259424Y593369D01*
X1259832Y593980D01*
X1263770D01*
Y606520D01*
X1255540D01*
X1255230Y606520D01*
Y606520D01*
X1255155D01*
X1253885Y607630D01*
Y614208D01*
X1254992Y615228D01*
X1255129Y615256D01*
X1255573Y615168D01*
X1265564D01*
X1267051Y615463D01*
X1268311Y616305D01*
X1269799Y617793D01*
X1270641Y619053D01*
X1270937Y620540D01*
Y638869D01*
X1270641Y640356D01*
X1269799Y641616D01*
X1268855Y642560D01*
Y650637D01*
X1270125Y651486D01*
X1270510Y651326D01*
X1271910D01*
X1273204Y651862D01*
X1273460Y652118D01*
X1274730Y651592D01*
Y645026D01*
X1281602Y651898D01*
X1282500Y651000D01*
X1283398Y651898D01*
X1290270Y645026D01*
Y660417D01*
X1290270Y660770D01*
X1291121Y661687D01*
X1292879D01*
X1293730Y660770D01*
Y643230D01*
X1302390D01*
Y594725D01*
X1302686Y593239D01*
X1303528Y591979D01*
X1311668Y583838D01*
X1312928Y582996D01*
X1314415Y582700D01*
X1315902Y582996D01*
X1317162Y583838D01*
X1318004Y585098D01*
X1318300Y586585D01*
X1318004Y588072D01*
X1317162Y589332D01*
X1310159Y596335D01*
Y661312D01*
X1311247D01*
X1312734Y661608D01*
X1313994Y662450D01*
X1314369Y662825D01*
X1315211Y664085D01*
X1315507Y665572D01*
X1315211Y667059D01*
X1314369Y668319D01*
X1313109Y669161D01*
X1311622Y669457D01*
X1279037D01*
X1272263Y676231D01*
X1272218Y676458D01*
X1271376Y677718D01*
X1262370Y686724D01*
Y687770D01*
X1261064D01*
X1260587Y688089D01*
X1259100Y688385D01*
X1254100D01*
X1252640Y688094D01*
X1252613Y688089D01*
X1251370Y688736D01*
Y690730D01*
X1262370D01*
Y697270D01*
X1251370D01*
Y700230D01*
X1254636D01*
X1255113Y699911D01*
X1256600Y699615D01*
X1266891D01*
X1283193Y683313D01*
X1284453Y682471D01*
X1285940Y682175D01*
X1302716D01*
X1303565Y680905D01*
X1303480Y680700D01*
Y679300D01*
X1304016Y678006D01*
X1305006Y677016D01*
X1306300Y676480D01*
X1307700D01*
X1308994Y677016D01*
X1309984Y678006D01*
X1310520Y679300D01*
Y680700D01*
X1310435Y680905D01*
X1311284Y682175D01*
X1313701D01*
X1317013Y678863D01*
X1318273Y678021D01*
X1319760Y677725D01*
X1352157D01*
X1370908Y658973D01*
X1370610Y657475D01*
X1370148Y657284D01*
X1369158Y656294D01*
X1368622Y655000D01*
Y653600D01*
X1369158Y652306D01*
X1370148Y651316D01*
X1370327Y651242D01*
X1370197Y649921D01*
X1370080Y649898D01*
X1368820Y649056D01*
X1367978Y647795D01*
X1367682Y646309D01*
X1367978Y644822D01*
X1368820Y643562D01*
X1369195Y643187D01*
X1370455Y642345D01*
X1371942Y642049D01*
X1374176D01*
Y640000D01*
X1374391Y638919D01*
X1374615Y638583D01*
Y630541D01*
X1374611Y630495D01*
X1373555Y629322D01*
X1368503D01*
X1367422Y629107D01*
X1366505Y628495D01*
X1365893Y627578D01*
X1365678Y626497D01*
Y624682D01*
X1365181Y623937D01*
X1364966Y622860D01*
X1364627Y622351D01*
X1364380Y621113D01*
Y620146D01*
X1364015Y619781D01*
X1363479Y618488D01*
Y617087D01*
X1364015Y615794D01*
X1365006Y614803D01*
X1365006Y614803D01*
X1365163Y614723D01*
X1365733Y614268D01*
Y611221D01*
X1353253Y598742D01*
X1352411Y597482D01*
X1352115Y595995D01*
Y594000D01*
X1352411Y592513D01*
X1353253Y591253D01*
X1354513Y590411D01*
X1356000Y590115D01*
X1357487Y590411D01*
X1358747Y591253D01*
X1359589Y592513D01*
X1359885Y594000D01*
Y594386D01*
X1371226Y605728D01*
X1375574D01*
X1376060Y604554D01*
X1342391Y570885D01*
X1240609D01*
X1150247Y661247D01*
X1148987Y662089D01*
X1147500Y662385D01*
X1036385D01*
Y705230D01*
X1036770D01*
Y716770D01*
X1028230D01*
Y705230D01*
X1028615D01*
Y659988D01*
X1028911Y658501D01*
X1029753Y657241D01*
X1031241Y655753D01*
X1032501Y654911D01*
X1033988Y654615D01*
X1145891D01*
X1234999Y565507D01*
X1234473Y564237D01*
X1232341D01*
X1165289Y631289D01*
X1164239Y631991D01*
X1163000Y632237D01*
X1098000D01*
X1096761Y631991D01*
X1095711Y631289D01*
X1089659Y625237D01*
X1080378D01*
X1079168Y624997D01*
X1078942Y626134D01*
X1078100Y627394D01*
X1076840Y628236D01*
X1075353Y628532D01*
X1073866Y628236D01*
X1072606Y627394D01*
X1071764Y626134D01*
X1071736Y625994D01*
X1069253Y623511D01*
X1068411Y622250D01*
X1068115Y620764D01*
Y619385D01*
X1063600D01*
X1062113Y619089D01*
X1060888Y618270D01*
X1056330D01*
Y610176D01*
X1055975Y609885D01*
X1051000D01*
X1049513Y609589D01*
X1048253Y608747D01*
X1047411Y607487D01*
X1047115Y606000D01*
X1047411Y604513D01*
X1048253Y603253D01*
X1049513Y602411D01*
X1050834Y602148D01*
X1051346Y601281D01*
X1051468Y600986D01*
X1049360Y598878D01*
X1049253Y598807D01*
X1048411Y597547D01*
X1048115Y596060D01*
X1048411Y594573D01*
X1049253Y593313D01*
X1050513Y592471D01*
X1052000Y592175D01*
X1052036D01*
X1053522Y592471D01*
X1054782Y593313D01*
X1055157Y593687D01*
X1056330Y593201D01*
Y589385D01*
X1047500D01*
X1046013Y589089D01*
X1044753Y588247D01*
X1042253Y585747D01*
X1041411Y584487D01*
X1041115Y583000D01*
Y575970D01*
X1030526D01*
X1044398Y562098D01*
X1043500Y561200D01*
X1044398Y560302D01*
X1030526Y546430D01*
X1059474D01*
X1045602Y560302D01*
X1046500Y561200D01*
X1045602Y562098D01*
X1059474Y575970D01*
X1048885D01*
Y581391D01*
X1049109Y581615D01*
X1056330D01*
Y577730D01*
X1062031D01*
X1062361Y577509D01*
X1063600Y577263D01*
X1073159D01*
X1079711Y570711D01*
X1080761Y570009D01*
X1082000Y569763D01*
X1089000D01*
X1090239Y570009D01*
X1091289Y570711D01*
X1120789Y600211D01*
X1121491Y601261D01*
X1121737Y602500D01*
Y609772D01*
X1122770D01*
Y619428D01*
X1124726D01*
X1127823Y616331D01*
Y609117D01*
X1128119Y607631D01*
X1128961Y606370D01*
X1130115Y605215D01*
Y583500D01*
X1130215Y583000D01*
X1130115Y582500D01*
X1130230Y581924D01*
Y577230D01*
X1138770D01*
Y588770D01*
X1137885D01*
Y606825D01*
X1137589Y608311D01*
X1136747Y609571D01*
X1135592Y610726D01*
Y617940D01*
X1135296Y619426D01*
X1134454Y620687D01*
X1130552Y624590D01*
X1131038Y625763D01*
X1161659D01*
X1177478Y609944D01*
X1176932Y608694D01*
X1176029D01*
X1174735Y608158D01*
X1173745Y607168D01*
X1173209Y605874D01*
Y604474D01*
X1173745Y603180D01*
X1174735Y602190D01*
X1176029Y601654D01*
X1177429D01*
X1178723Y602190D01*
X1179713Y603180D01*
X1180249Y604474D01*
Y605377D01*
X1181498Y605924D01*
X1227466Y559956D01*
X1226980Y558782D01*
X1220545D01*
X1219306Y558536D01*
X1218256Y557834D01*
X1205659Y545237D01*
X1129341D01*
X1126237Y548341D01*
Y552230D01*
X1127270D01*
Y563770D01*
X1127253D01*
X1126727Y565040D01*
X1127661Y565974D01*
X1127761Y566016D01*
X1128752Y567006D01*
X1129287Y568300D01*
Y569700D01*
X1128752Y570994D01*
X1127761Y571984D01*
X1126468Y572520D01*
X1125067D01*
X1123774Y571984D01*
X1122783Y570994D01*
X1122260Y569729D01*
X1120711Y568181D01*
X1120009Y567130D01*
X1119763Y565891D01*
Y563770D01*
X1118730D01*
Y552230D01*
X1119763D01*
Y547000D01*
X1120009Y545761D01*
X1120711Y544711D01*
X1125711Y539711D01*
X1126761Y539009D01*
X1128000Y538763D01*
X1207000D01*
X1208239Y539009D01*
X1209289Y539711D01*
X1221886Y552308D01*
X1336822D01*
X1337513Y552021D01*
X1338914D01*
X1340207Y552557D01*
X1340767Y553117D01*
X1342037Y552591D01*
Y545726D01*
X1342284Y544487D01*
X1342986Y543436D01*
X1352711Y533711D01*
X1353761Y533009D01*
X1355000Y532763D01*
X1382000D01*
X1383239Y533009D01*
X1384289Y533711D01*
X1394311Y543733D01*
X1394994Y544016D01*
X1395984Y545006D01*
X1396520Y546300D01*
Y547700D01*
X1395984Y548994D01*
X1394994Y549984D01*
X1393700Y550520D01*
X1392300D01*
X1391006Y549984D01*
X1390016Y548994D01*
X1389733Y548311D01*
X1380659Y539237D01*
X1356341D01*
X1348512Y547066D01*
Y556152D01*
X1348265Y557391D01*
X1347564Y558442D01*
X1344108Y561898D01*
X1344572Y563229D01*
X1345487Y563411D01*
X1346747Y564253D01*
X1351845Y569352D01*
X1352207Y569340D01*
X1353196Y568906D01*
X1353411Y567824D01*
X1353579Y567573D01*
Y548791D01*
X1353874Y547304D01*
X1354716Y546044D01*
X1355977Y545202D01*
X1357463Y544907D01*
X1358950Y545202D01*
X1360210Y546044D01*
X1361052Y547304D01*
X1361348Y548791D01*
Y568847D01*
X1361052Y570334D01*
X1360674Y570900D01*
X1360589Y571328D01*
X1359747Y572588D01*
X1358487Y573430D01*
X1357847Y573557D01*
X1357429Y574935D01*
X1395747Y613253D01*
X1396589Y614513D01*
X1396885Y616000D01*
X1396589Y617487D01*
X1395747Y618747D01*
X1382385Y632109D01*
Y638583D01*
X1382609Y638919D01*
X1382824Y640000D01*
Y646000D01*
X1382609Y647081D01*
X1381997Y647997D01*
X1381081Y648609D01*
X1380000Y648824D01*
X1379319D01*
X1378274Y649523D01*
X1376788Y649818D01*
X1373840D01*
X1373587Y651088D01*
X1374136Y651316D01*
X1375126Y652306D01*
X1375318Y652768D01*
X1376816Y653066D01*
X1377629Y652253D01*
X1378889Y651411D01*
X1380376Y651115D01*
X1399825D01*
X1400352Y649845D01*
X1399040Y648534D01*
X1397770Y648770D01*
Y648770D01*
X1397770Y648770D01*
X1391026D01*
X1394398Y645398D01*
X1392602Y643602D01*
X1389230Y646974D01*
Y639026D01*
X1392602Y642398D01*
X1394398Y640602D01*
X1391026Y637230D01*
X1397115D01*
Y635397D01*
X1394483Y632765D01*
X1393641Y631505D01*
X1393345Y630018D01*
Y624998D01*
X1393641Y623512D01*
X1394483Y622251D01*
X1398033Y618701D01*
X1399293Y617859D01*
X1400780Y617564D01*
X1402115D01*
Y591000D01*
X1402411Y589513D01*
X1403253Y588253D01*
X1446115Y545391D01*
Y527540D01*
X1442460D01*
Y512460D01*
X1457540D01*
Y514634D01*
X1458713Y515120D01*
X1459148Y514685D01*
X1461453Y513730D01*
X1463947D01*
X1466229Y514675D01*
X1461802Y519102D01*
X1462700Y520000D01*
X1461802Y520898D01*
X1466229Y525325D01*
X1463947Y526270D01*
X1461453D01*
X1459148Y525315D01*
X1458713Y524880D01*
X1457540Y525366D01*
Y527540D01*
X1453885D01*
Y547000D01*
X1453589Y548487D01*
X1452747Y549747D01*
X1409885Y592609D01*
Y620000D01*
X1409589Y621487D01*
X1408747Y622747D01*
X1407299Y624195D01*
X1406970Y624414D01*
X1406274Y625514D01*
X1406810Y626808D01*
Y628208D01*
X1406274Y629502D01*
X1405284Y630492D01*
X1405104Y630567D01*
X1404589Y632082D01*
X1404885Y633568D01*
Y643391D01*
X1406500Y645006D01*
X1408253Y643253D01*
X1409513Y642411D01*
X1411000Y642115D01*
X1411750D01*
X1412980Y642020D01*
X1412980Y640845D01*
Y631980D01*
X1419020D01*
Y635997D01*
X1420290Y636122D01*
X1420411Y635513D01*
X1420980Y634662D01*
Y631980D01*
X1427020D01*
Y634148D01*
X1428093Y634578D01*
X1428388Y634555D01*
X1428980Y633935D01*
Y631980D01*
X1435020D01*
Y634311D01*
X1436058Y635222D01*
X1436763Y635000D01*
X1436980Y633908D01*
Y631980D01*
X1438442D01*
X1440623Y629799D01*
X1440341Y628414D01*
X1440269Y628357D01*
X1439000Y628609D01*
X1437619Y628335D01*
X1436448Y627552D01*
X1435665Y626381D01*
X1435391Y625000D01*
Y624324D01*
X1435665Y622942D01*
X1436391Y621857D01*
Y613000D01*
X1436665Y611619D01*
X1436980Y611148D01*
Y609776D01*
X1439102Y611898D01*
X1440898Y610102D01*
X1438776Y607980D01*
X1442845D01*
X1443020Y607980D01*
X1444115Y607558D01*
Y600000D01*
X1444411Y598513D01*
X1445253Y597253D01*
X1446513Y596411D01*
X1448000Y596115D01*
X1449487Y596411D01*
X1450747Y597253D01*
X1451589Y598513D01*
X1451885Y600000D01*
Y607558D01*
X1452980Y607980D01*
X1453155Y607980D01*
X1453692D01*
X1454513Y607431D01*
X1456000Y607135D01*
X1457487Y607431D01*
X1458308Y607980D01*
X1459020D01*
Y608682D01*
X1459589Y609533D01*
X1459694Y610062D01*
X1460938Y610125D01*
X1461104Y609288D01*
X1461579Y608578D01*
X1462288Y608104D01*
X1463125Y607938D01*
X1464875D01*
X1465712Y608104D01*
X1466421Y608578D01*
X1466895Y609288D01*
X1467062Y610125D01*
Y615875D01*
X1466895Y616712D01*
X1466421Y617421D01*
X1465712Y617896D01*
X1464875Y618062D01*
X1463125D01*
X1462288Y617896D01*
X1461579Y617421D01*
X1461104Y616712D01*
X1460938Y615875D01*
Y614214D01*
X1459668Y614089D01*
X1459589Y614487D01*
X1459020Y615338D01*
Y618020D01*
X1452980D01*
Y616065D01*
X1452388Y615445D01*
X1452093Y615422D01*
X1451020Y615852D01*
Y618020D01*
X1444980D01*
Y616484D01*
X1444879Y616409D01*
X1443609Y617049D01*
Y623324D01*
X1443335Y624705D01*
X1442926Y625317D01*
X1443043Y625710D01*
X1444316Y626106D01*
X1444711Y625711D01*
X1445761Y625009D01*
X1447000Y624763D01*
X1458617D01*
X1459300Y624480D01*
X1460700D01*
X1461994Y625016D01*
X1462984Y626006D01*
X1463520Y627300D01*
Y628700D01*
X1462984Y629994D01*
X1462268Y630710D01*
X1462654Y631975D01*
X1462657Y631980D01*
X1467020D01*
Y642020D01*
X1460980D01*
Y632693D01*
X1460955Y632589D01*
X1460000Y632133D01*
X1459045Y632589D01*
X1459020Y632693D01*
Y635908D01*
X1459237Y637000D01*
X1459237Y637000D01*
Y643617D01*
X1459520Y644300D01*
Y645700D01*
X1458984Y646994D01*
X1457994Y647984D01*
X1456700Y648520D01*
X1455300D01*
X1454006Y647984D01*
X1453016Y646994D01*
X1452480Y645700D01*
Y644300D01*
X1452763Y643617D01*
Y637000D01*
X1452980Y635908D01*
X1452980Y631980D01*
X1452018Y631237D01*
X1451982D01*
X1451020Y631980D01*
Y640224D01*
X1448898Y638102D01*
X1448000Y639000D01*
X1447102Y638102D01*
X1444980Y640224D01*
Y637133D01*
X1443710Y636503D01*
X1443237Y636861D01*
Y637000D01*
X1443020Y638092D01*
Y642020D01*
X1437155D01*
X1436980Y642020D01*
X1435885Y642442D01*
Y643000D01*
X1435589Y644487D01*
X1434747Y645747D01*
X1431747Y648747D01*
X1430487Y649589D01*
X1429000Y649885D01*
X1412609D01*
X1409247Y653247D01*
X1404747Y657747D01*
X1403487Y658589D01*
X1402000Y658885D01*
X1381985D01*
X1378813Y662057D01*
X1379299Y663230D01*
X1382770D01*
Y667823D01*
X1383164Y668412D01*
X1383460Y669899D01*
X1383164Y671386D01*
X1382770Y671975D01*
Y674770D01*
X1374230D01*
Y668299D01*
X1373057Y667813D01*
X1358927Y681942D01*
X1359345Y683320D01*
X1359739Y683399D01*
X1361000Y684241D01*
X1364845Y688086D01*
X1366115Y687560D01*
Y678886D01*
X1366411Y677400D01*
X1367253Y676140D01*
X1368513Y675298D01*
X1370000Y675002D01*
X1371487Y675298D01*
X1372747Y676140D01*
X1373589Y677400D01*
X1373885Y678886D01*
Y704761D01*
X1374143Y706060D01*
X1373847Y707547D01*
X1373005Y708807D01*
X1371745Y709649D01*
X1370258Y709945D01*
X1368772Y709649D01*
X1367512Y708807D01*
X1367500Y708796D01*
X1366042Y708691D01*
X1365965Y708807D01*
X1364705Y709649D01*
X1363218Y709945D01*
X1361732Y709649D01*
X1360472Y708807D01*
X1360131Y708466D01*
X1359289Y707206D01*
X1358040Y707438D01*
Y716500D01*
X1351168Y709628D01*
X1349372Y711424D01*
X1356244Y718296D01*
X1342988D01*
X1342959Y718332D01*
X1342529Y719566D01*
X1344346Y721383D01*
X1344487Y721411D01*
X1345747Y722253D01*
X1346589Y723513D01*
X1346885Y725000D01*
X1346589Y726487D01*
X1345747Y727747D01*
X1344648Y728481D01*
X1344601Y729127D01*
X1344750Y729824D01*
X1345310Y729974D01*
X1347030Y730966D01*
X1348434Y732370D01*
X1349426Y734090D01*
X1349940Y736007D01*
Y737993D01*
X1349426Y739910D01*
X1349202Y740298D01*
X1349837Y741398D01*
X1363024D01*
X1382926Y721496D01*
Y689053D01*
X1382643Y688370D01*
Y686970D01*
X1383179Y685676D01*
X1384169Y684686D01*
X1385463Y684150D01*
X1386863D01*
X1388157Y684686D01*
X1389147Y685676D01*
X1389683Y686970D01*
Y688370D01*
X1389400Y689053D01*
Y722837D01*
X1389154Y724076D01*
X1388452Y725126D01*
X1367848Y745730D01*
X1368374Y747000D01*
X1472935Y747000D01*
X1473857Y745730D01*
X1473763Y745256D01*
Y736744D01*
X1474009Y735505D01*
X1474711Y734455D01*
X1475455Y733711D01*
X1476505Y733009D01*
X1477744Y732763D01*
X1495256D01*
X1495730Y732857D01*
X1497000Y731936D01*
X1497000Y503000D01*
X1003000D01*
X1003000Y747000D01*
X1320626Y747000D01*
D02*
G37*
G36*
X827000Y508432D02*
Y507974D01*
X825234D01*
Y507000D01*
X824735D01*
Y507974D01*
X824184D01*
Y508432D01*
X824735D01*
Y511060D01*
X825140D01*
X827000Y508432D01*
D02*
G37*
G36*
X1495000Y740432D02*
Y739974D01*
X1493234D01*
Y739000D01*
X1492735D01*
Y739974D01*
X1492184D01*
Y740432D01*
X1492735D01*
Y743060D01*
X1493140D01*
X1495000Y740432D01*
D02*
G37*
%LPC*%
G36*
X837393Y744540D02*
X835407D01*
X833490Y744026D01*
X831770Y743034D01*
X830697Y741960D01*
X830050Y741738D01*
X829403Y741960D01*
X828330Y743034D01*
X826610Y744026D01*
X824693Y744540D01*
X822707D01*
X820790Y744026D01*
X819540Y743305D01*
X818540Y743860D01*
Y744540D01*
X803460D01*
Y729460D01*
X818540D01*
Y730140D01*
X819540Y730695D01*
X820790Y729974D01*
X822707Y729460D01*
X824693D01*
X826610Y729974D01*
X828330Y730966D01*
X829403Y732040D01*
X830050Y732262D01*
X830697Y732040D01*
X831770Y730966D01*
X833490Y729974D01*
X835407Y729460D01*
X837393D01*
X839310Y729974D01*
X841030Y730966D01*
X842433Y732370D01*
X843426Y734090D01*
X843940Y736007D01*
Y737993D01*
X843426Y739910D01*
X842433Y741630D01*
X841030Y743034D01*
X839310Y744026D01*
X837393Y744540D01*
D02*
G37*
G36*
X542212Y742770D02*
X539903D01*
X537672Y742172D01*
X535776Y741077D01*
X541058Y735796D01*
X546339Y741077D01*
X544442Y742172D01*
X542212Y742770D01*
D02*
G37*
G36*
X548135Y739281D02*
X542854Y734000D01*
X548135Y728719D01*
X549230Y730615D01*
X549827Y732845D01*
Y735155D01*
X549230Y737385D01*
X548135Y739281D01*
D02*
G37*
G36*
X533980Y739281D02*
X532885Y737385D01*
X532287Y735155D01*
Y732845D01*
X532885Y730615D01*
X533980Y728719D01*
X539262Y734000D01*
X533980Y739281D01*
D02*
G37*
G36*
X753700Y733520D02*
X752300D01*
X751006Y732984D01*
X750016Y731994D01*
X749480Y730700D01*
Y729300D01*
X750016Y728006D01*
X751006Y727016D01*
X752300Y726480D01*
X753700D01*
X754994Y727016D01*
X755984Y728006D01*
X756520Y729300D01*
Y730700D01*
X755984Y731994D01*
X754994Y732984D01*
X753700Y733520D01*
D02*
G37*
G36*
X541058Y732204D02*
X535776Y726923D01*
X537672Y725828D01*
X539903Y725230D01*
X542212D01*
X544442Y725828D01*
X546339Y726923D01*
X541058Y732204D01*
D02*
G37*
G36*
X593179Y744040D02*
X590536D01*
X587982Y743356D01*
X585693Y742034D01*
X583824Y740165D01*
X582502Y737875D01*
X581818Y735322D01*
Y732678D01*
X582272Y730983D01*
X574253Y722965D01*
X573411Y721705D01*
X573115Y720218D01*
Y703000D01*
X573411Y701513D01*
X574253Y700253D01*
X575513Y699411D01*
X577000Y699115D01*
X578487Y699411D01*
X579747Y700253D01*
X580589Y701513D01*
X580885Y703000D01*
Y718609D01*
X587309Y725033D01*
X587982Y724644D01*
X590536Y723960D01*
X593179D01*
X595733Y724644D01*
X598022Y725966D01*
X599892Y727835D01*
X601213Y730125D01*
X601897Y732678D01*
Y735322D01*
X601213Y737875D01*
X599892Y740165D01*
X598022Y742034D01*
X595733Y743356D01*
X593179Y744040D01*
D02*
G37*
G36*
X567779D02*
X565136D01*
X562582Y743356D01*
X560293Y742034D01*
X558424Y740165D01*
X557102Y737875D01*
X556418Y735322D01*
Y732678D01*
X557102Y730125D01*
X558424Y727835D01*
X560293Y725966D01*
X562582Y724644D01*
X565136Y723960D01*
X567779D01*
X570333Y724644D01*
X572622Y725966D01*
X574492Y727835D01*
X575813Y730125D01*
X576497Y732678D01*
Y735322D01*
X575813Y737875D01*
X574492Y740165D01*
X572622Y742034D01*
X570333Y743356D01*
X567779Y744040D01*
D02*
G37*
G36*
X516979D02*
X514336D01*
X511782Y743356D01*
X509493Y742034D01*
X507623Y740165D01*
X506302Y737875D01*
X505617Y735322D01*
Y732678D01*
X506302Y730125D01*
X507623Y727835D01*
X509493Y725966D01*
X511782Y724644D01*
X514336Y723960D01*
X516979D01*
X519533Y724644D01*
X521822Y725966D01*
X523691Y727835D01*
X525013Y730125D01*
X525697Y732678D01*
Y735322D01*
X525013Y737875D01*
X523691Y740165D01*
X521822Y742034D01*
X519533Y743356D01*
X516979Y744040D01*
D02*
G37*
G36*
X575365Y697855D02*
X573965D01*
X572671Y697319D01*
X571681Y696329D01*
X571145Y695035D01*
Y693635D01*
X571681Y692341D01*
X572671Y691351D01*
X573965Y690815D01*
X575365D01*
X576659Y691351D01*
X577649Y692341D01*
X578185Y693635D01*
Y695035D01*
X577649Y696329D01*
X576659Y697319D01*
X575365Y697855D01*
D02*
G37*
G36*
X618654Y693650D02*
X616296Y691293D01*
X618654Y688935D01*
X618824Y689792D01*
Y692793D01*
X618654Y693650D01*
D02*
G37*
G36*
X607346Y693650D02*
X607176Y692793D01*
Y689792D01*
X607346Y688935D01*
X609704Y691293D01*
X607346Y693650D01*
D02*
G37*
G36*
X616000Y695617D02*
X610000D01*
X609142Y695446D01*
X612398Y692191D01*
X611500Y691293D01*
X612398Y690395D01*
X609142Y687139D01*
X610000Y686968D01*
X616000D01*
X616858Y687139D01*
X613602Y690395D01*
X614500Y691293D01*
X613602Y692191D01*
X616858Y695446D01*
X616000Y695617D01*
D02*
G37*
G36*
X627297Y744040D02*
X607217D01*
Y723960D01*
X620546D01*
X648115Y696391D01*
Y686609D01*
X641686Y680180D01*
X640762Y680563D01*
Y680870D01*
X631363D01*
X630980Y681794D01*
X634316Y685130D01*
X640762D01*
Y696570D01*
X628823D01*
Y690624D01*
X625554Y687355D01*
X625471D01*
X623984Y687060D01*
X622724Y686218D01*
X622717Y686211D01*
X622621Y686191D01*
X621361Y685349D01*
X620518Y684089D01*
X620223Y682602D01*
X620506Y681177D01*
X620505Y680964D01*
X620085Y680177D01*
X618770D01*
Y680563D01*
X607230D01*
Y680177D01*
X604292D01*
X602806Y679882D01*
X601546Y679039D01*
X598538Y676032D01*
X591276Y668770D01*
X588230D01*
Y657230D01*
X588615D01*
Y656122D01*
X587615Y655453D01*
X587140Y655650D01*
X585740D01*
X584446Y655114D01*
X583456Y654124D01*
X582920Y652830D01*
Y651551D01*
X582550Y651152D01*
X582094Y650810D01*
X581986Y650855D01*
X580585D01*
X579291Y650319D01*
X578301Y649329D01*
X577765Y648035D01*
Y646635D01*
X578301Y645341D01*
X579291Y644351D01*
X580585Y643815D01*
X581356D01*
X582194Y642901D01*
X582115Y642508D01*
X582386Y641148D01*
X582076Y640684D01*
X581999Y640297D01*
X580997Y639997D01*
X580081Y640609D01*
X579000Y640824D01*
X576000D01*
X575142Y640654D01*
X578398Y637398D01*
X576602Y635602D01*
X573346Y638858D01*
X573176Y638000D01*
Y632000D01*
X573346Y631142D01*
X576602Y634398D01*
X578398Y632602D01*
X575142Y629346D01*
X576000Y629176D01*
X579000D01*
X580081Y629391D01*
X580997Y630003D01*
X581086Y630136D01*
X581303Y630322D01*
X582089Y629902D01*
Y629902D01*
X582121Y629885D01*
X581989Y629568D01*
X581741Y628969D01*
Y627569D01*
X582277Y626275D01*
X583268Y625285D01*
X583824Y625054D01*
X584023Y623889D01*
X583456Y623322D01*
X582920Y622028D01*
Y620628D01*
X583456Y619334D01*
X584446Y618344D01*
X585740Y617808D01*
X587140D01*
X587615Y618005D01*
X588615Y617337D01*
Y599770D01*
X588230D01*
Y588230D01*
X588615D01*
Y579500D01*
X588911Y578013D01*
X589753Y576753D01*
X596253Y570253D01*
X597513Y569411D01*
X599000Y569115D01*
X607230D01*
Y568730D01*
X618770D01*
Y570115D01*
X620374D01*
X621860Y570411D01*
X623120Y571253D01*
X624608Y572741D01*
X625451Y574001D01*
X625465Y574075D01*
X626505Y574177D01*
X626576Y574006D01*
X627566Y573016D01*
X628860Y572480D01*
X630260D01*
X631554Y573016D01*
X632544Y574006D01*
X633080Y575300D01*
Y576700D01*
X632544Y577994D01*
X631554Y578984D01*
X630260Y579520D01*
X628860D01*
X627566Y578984D01*
X627414Y578832D01*
X626292Y579124D01*
X626244Y579296D01*
X626255Y579332D01*
X630789Y583865D01*
X648641D01*
X650615Y581891D01*
Y573500D01*
X650911Y572013D01*
X651753Y570753D01*
X653013Y569911D01*
X654500Y569615D01*
X658773D01*
Y569230D01*
X670312D01*
Y569615D01*
X685500D01*
X686987Y569911D01*
X688247Y570753D01*
X692247Y574753D01*
X693089Y576013D01*
X693385Y577500D01*
Y580687D01*
X693770D01*
Y592228D01*
X693385D01*
Y593891D01*
X705724Y606230D01*
X708770D01*
Y608115D01*
X714773D01*
Y606230D01*
X717819D01*
X720323Y603726D01*
Y595207D01*
X720619Y593721D01*
X721461Y592461D01*
X722721Y591619D01*
X724208Y591323D01*
X725694Y591619D01*
X726954Y592461D01*
X727796Y593721D01*
X728092Y595207D01*
Y600345D01*
X740230D01*
X741717Y600641D01*
X742977Y601483D01*
X764306Y622812D01*
X765230Y622430D01*
Y617026D01*
X768602Y620398D01*
X770398Y618602D01*
X767026Y615230D01*
X774974D01*
X771602Y618602D01*
X773398Y620398D01*
X776770Y617026D01*
Y623770D01*
X777627Y624115D01*
X785391D01*
X791176Y618330D01*
Y618000D01*
X791391Y616919D01*
X792003Y616003D01*
X792919Y615391D01*
X794000Y615176D01*
X800000D01*
X801081Y615391D01*
X801997Y616003D01*
X802609Y616919D01*
X802824Y618000D01*
Y621000D01*
X802609Y622081D01*
X801997Y622997D01*
X801081Y623609D01*
X800000Y623824D01*
X796669D01*
X789747Y630747D01*
X788487Y631589D01*
X787000Y631885D01*
X764000D01*
X762513Y631589D01*
X761253Y630747D01*
X739342Y608835D01*
X739054Y608884D01*
X738367Y609275D01*
Y615000D01*
X738196Y615858D01*
X734940Y612602D01*
X734043Y613500D01*
X733145Y612602D01*
X729889Y615858D01*
X729718Y615000D01*
Y609000D01*
X729741Y608888D01*
X729106Y608115D01*
X726922D01*
X723313Y611724D01*
Y617770D01*
X714773D01*
Y615885D01*
X708770D01*
Y617770D01*
X708385D01*
Y618218D01*
X708089Y619705D01*
X707247Y620965D01*
X707136Y621076D01*
Y625373D01*
X706983Y626142D01*
Y655901D01*
X706688Y657388D01*
X705846Y658648D01*
X700747Y663747D01*
X699487Y664589D01*
X698000Y664885D01*
X696513Y664589D01*
X695253Y663747D01*
X694411Y662487D01*
X694115Y661000D01*
X694411Y659513D01*
X695253Y658253D01*
X699214Y654292D01*
Y625526D01*
X699367Y624757D01*
Y619466D01*
X699663Y617980D01*
X700230Y617131D01*
Y611724D01*
X686753Y598247D01*
X685911Y596987D01*
X685615Y595500D01*
Y592228D01*
X685230D01*
Y580687D01*
X685615D01*
Y579109D01*
X683891Y577385D01*
X670312D01*
Y577770D01*
X658773D01*
X658385Y578609D01*
Y583500D01*
X658089Y584987D01*
X657247Y586247D01*
X652997Y590497D01*
X651737Y591339D01*
X650250Y591635D01*
X629180D01*
X627693Y591339D01*
X626433Y590497D01*
X619115Y583178D01*
X618273Y581918D01*
X617977Y580432D01*
Y577885D01*
X614000D01*
X612513Y577589D01*
X612036Y577270D01*
X607230D01*
Y576885D01*
X600609D01*
X596385Y581109D01*
Y588230D01*
X596770D01*
Y599770D01*
X596385D01*
Y629230D01*
X596770D01*
Y640770D01*
X593724D01*
X591740Y642754D01*
X595247Y646261D01*
X596089Y647521D01*
X596214Y648151D01*
X597355Y648761D01*
X597860Y648552D01*
X599260D01*
X600554Y649088D01*
X601544Y650078D01*
X602080Y651372D01*
Y652772D01*
X601544Y654066D01*
X600554Y655056D01*
X599260Y655592D01*
X597860D01*
X597385Y655395D01*
X596385Y656063D01*
Y657230D01*
X596770D01*
Y663276D01*
X605902Y672408D01*
X607230D01*
Y672023D01*
X618770D01*
Y672408D01*
X628823D01*
Y669430D01*
X633555D01*
Y665000D01*
X633851Y663513D01*
X634693Y662253D01*
X635953Y661411D01*
X637440Y661115D01*
X639043D01*
X640529Y661411D01*
X641789Y662253D01*
X642632Y663513D01*
X642927Y665000D01*
Y665368D01*
X642632Y666855D01*
X641789Y668115D01*
X641325Y668426D01*
Y669755D01*
X641812Y670483D01*
X641967Y671265D01*
X642150D01*
X643637Y671561D01*
X644897Y672403D01*
X654747Y682253D01*
X655589Y683513D01*
X655885Y685000D01*
Y698000D01*
X655589Y699487D01*
X654747Y700747D01*
X627297Y728196D01*
Y744040D01*
D02*
G37*
G36*
X664700Y685520D02*
X663300D01*
X662006Y684984D01*
X661016Y683994D01*
X660480Y682700D01*
Y681300D01*
X661016Y680006D01*
X662006Y679016D01*
X663300Y678480D01*
X664700D01*
X665994Y679016D01*
X666984Y680006D01*
X667520Y681300D01*
Y682700D01*
X666984Y683994D01*
X665994Y684984D01*
X664700Y685520D01*
D02*
G37*
G36*
X659700Y674520D02*
X658300D01*
X657006Y673984D01*
X656016Y672994D01*
X655480Y671700D01*
Y670300D01*
X656016Y669006D01*
X657006Y668016D01*
X658300Y667480D01*
X659700D01*
X660994Y668016D01*
X661984Y669006D01*
X662520Y670300D01*
Y671700D01*
X661984Y672994D01*
X660994Y673984D01*
X659700Y674520D01*
D02*
G37*
G36*
X579000Y668824D02*
X576000D01*
X575142Y668654D01*
X577500Y666296D01*
X579858Y668654D01*
X579000Y668824D01*
D02*
G37*
G36*
X573346Y666858D02*
X573176Y666000D01*
Y660000D01*
X573346Y659142D01*
X576602Y662398D01*
X577500Y661500D01*
X578398Y662398D01*
X581654Y659142D01*
X581824Y660000D01*
Y666000D01*
X581654Y666858D01*
X578398Y663602D01*
X577500Y664500D01*
X576602Y663602D01*
X573346Y666858D01*
D02*
G37*
G36*
X577500Y659704D02*
X575142Y657346D01*
X576000Y657176D01*
X579000D01*
X579858Y657346D01*
X577500Y659704D01*
D02*
G37*
G36*
X663750Y647770D02*
X662250D01*
X661385Y647411D01*
X663000Y645796D01*
X664615Y647411D01*
X663750Y647770D01*
D02*
G37*
G36*
X641750D02*
X640250D01*
X639385Y647411D01*
X641000Y645796D01*
X642616Y647411D01*
X641750Y647770D01*
D02*
G37*
G36*
X619750D02*
X618250D01*
X617385Y647411D01*
X619000Y645796D01*
X620615Y647411D01*
X619750Y647770D01*
D02*
G37*
G36*
X652750Y647770D02*
X651250D01*
X650385Y647411D01*
X652000Y645796D01*
X653615Y647411D01*
X652750Y647770D01*
D02*
G37*
G36*
X630750D02*
X629250D01*
X628385Y647411D01*
X630000Y645796D01*
X631615Y647411D01*
X630750Y647770D01*
D02*
G37*
G36*
X666412Y645615D02*
X664796Y644000D01*
X666412Y642385D01*
X666770Y643250D01*
Y644750D01*
X666412Y645615D01*
D02*
G37*
G36*
X644411D02*
X642796Y644000D01*
X644411Y642385D01*
X644770Y643250D01*
Y644750D01*
X644411Y645615D01*
D02*
G37*
G36*
X622411D02*
X620796Y644000D01*
X622411Y642385D01*
X622770Y643250D01*
Y644750D01*
X622411Y645615D01*
D02*
G37*
G36*
X659588Y645615D02*
X659230Y644750D01*
Y643250D01*
X659588Y642385D01*
X661204Y644000D01*
X659588Y645615D01*
D02*
G37*
G36*
X637589D02*
X637230Y644750D01*
Y643250D01*
X637589Y642385D01*
X639204Y644000D01*
X637589Y645615D01*
D02*
G37*
G36*
X615588D02*
X615230Y644750D01*
Y643250D01*
X615588Y642385D01*
X617204Y644000D01*
X615588Y645615D01*
D02*
G37*
G36*
X655412Y645615D02*
X653796Y644000D01*
X655412Y642384D01*
X655770Y643250D01*
Y644750D01*
X655412Y645615D01*
D02*
G37*
G36*
X633411D02*
X631796Y644000D01*
X633411Y642384D01*
X633770Y643250D01*
Y644750D01*
X633411Y645615D01*
D02*
G37*
G36*
X648588Y645615D02*
X648230Y644750D01*
Y643250D01*
X648588Y642384D01*
X650204Y644000D01*
X648588Y645615D01*
D02*
G37*
G36*
X626589D02*
X626230Y644750D01*
Y643250D01*
X626589Y642384D01*
X628204Y644000D01*
X626589Y645615D01*
D02*
G37*
G36*
X663000Y642204D02*
X661385Y640589D01*
X662250Y640230D01*
X663750D01*
X664615Y640589D01*
X663000Y642204D01*
D02*
G37*
G36*
X641000D02*
X639385Y640589D01*
X640250Y640230D01*
X641750D01*
X642616Y640589D01*
X641000Y642204D01*
D02*
G37*
G36*
X619000D02*
X617385Y640589D01*
X618250Y640230D01*
X619750D01*
X620616Y640589D01*
X619000Y642204D01*
D02*
G37*
G36*
X652000Y642204D02*
X650385Y640589D01*
X651250Y640230D01*
X652750D01*
X653615Y640589D01*
X652000Y642204D01*
D02*
G37*
G36*
X630000D02*
X628385Y640589D01*
X629250Y640230D01*
X630750D01*
X631615Y640589D01*
X630000Y642204D01*
D02*
G37*
G36*
X663750Y636770D02*
X662250D01*
X661385Y636412D01*
X663000Y634796D01*
X664615Y636412D01*
X663750Y636770D01*
D02*
G37*
G36*
X652750D02*
X651250D01*
X650385Y636412D01*
X652000Y634796D01*
X653615Y636412D01*
X652750Y636770D01*
D02*
G37*
G36*
X630750D02*
X629250D01*
X628385Y636412D01*
X630000Y634796D01*
X631615Y636412D01*
X630750Y636770D01*
D02*
G37*
G36*
X619750D02*
X618250D01*
X617385Y636412D01*
X619000Y634796D01*
X620616Y636412D01*
X619750Y636770D01*
D02*
G37*
G36*
X641750Y636770D02*
X640250D01*
X639385Y636412D01*
X641000Y634796D01*
X642616Y636412D01*
X641750Y636770D01*
D02*
G37*
G36*
X746265Y658918D02*
X744865D01*
X743571Y658382D01*
X742581Y657392D01*
X742045Y656098D01*
Y654698D01*
X742581Y653404D01*
X743571Y652414D01*
X744254Y652131D01*
X746921Y649464D01*
X746538Y648540D01*
X736460D01*
Y633460D01*
X751540D01*
Y634140D01*
X752540Y634695D01*
X753790Y633974D01*
X755707Y633460D01*
X757693D01*
X759610Y633974D01*
X761330Y634967D01*
X762734Y636370D01*
X763726Y638090D01*
X764240Y640007D01*
Y641993D01*
X763726Y643910D01*
X762734Y645630D01*
X761330Y647033D01*
X759610Y648026D01*
X757693Y648540D01*
X757001D01*
X754985Y650556D01*
X755248Y651707D01*
X755994Y652016D01*
X756984Y653006D01*
X757520Y654300D01*
Y655700D01*
X756984Y656994D01*
X755994Y657984D01*
X754700Y658520D01*
X753300D01*
X752006Y657984D01*
X751016Y656994D01*
X750707Y656248D01*
X749556Y655985D01*
X748832Y656709D01*
X748549Y657392D01*
X747559Y658382D01*
X746265Y658918D01*
D02*
G37*
G36*
X666412Y634615D02*
X664796Y633000D01*
X666412Y631385D01*
X666770Y632250D01*
Y633750D01*
X666412Y634615D01*
D02*
G37*
G36*
X655412D02*
X653796Y633000D01*
X655412Y631385D01*
X655770Y632250D01*
Y633750D01*
X655412Y634615D01*
D02*
G37*
G36*
X633411D02*
X631796Y633000D01*
X633411Y631385D01*
X633770Y632250D01*
Y633750D01*
X633411Y634615D01*
D02*
G37*
G36*
X622411D02*
X620796Y633000D01*
X622411Y631385D01*
X622770Y632250D01*
Y633750D01*
X622411Y634615D01*
D02*
G37*
G36*
X659588Y634616D02*
X659230Y633750D01*
Y632250D01*
X659588Y631385D01*
X661204Y633000D01*
X659588Y634616D01*
D02*
G37*
G36*
X648588D02*
X648230Y633750D01*
Y632250D01*
X648588Y631385D01*
X650204Y633000D01*
X648588Y634616D01*
D02*
G37*
G36*
X626589D02*
X626230Y633750D01*
Y632250D01*
X626589Y631385D01*
X628204Y633000D01*
X626589Y634616D01*
D02*
G37*
G36*
X615589D02*
X615230Y633750D01*
Y632250D01*
X615589Y631385D01*
X617204Y633000D01*
X615589Y634616D01*
D02*
G37*
G36*
X644411Y634615D02*
X642796Y633000D01*
X644411Y631385D01*
X644770Y632250D01*
Y633750D01*
X644411Y634615D01*
D02*
G37*
G36*
X637589Y634615D02*
X637230Y633750D01*
Y632250D01*
X637589Y631385D01*
X639204Y633000D01*
X637589Y634615D01*
D02*
G37*
G36*
X663000Y631204D02*
X661385Y629589D01*
X662250Y629230D01*
X663750D01*
X664615Y629589D01*
X663000Y631204D01*
D02*
G37*
G36*
X652000D02*
X650385Y629589D01*
X651250Y629230D01*
X652750D01*
X653615Y629589D01*
X652000Y631204D01*
D02*
G37*
G36*
X630000D02*
X628385Y629589D01*
X629250Y629230D01*
X630750D01*
X631615Y629589D01*
X630000Y631204D01*
D02*
G37*
G36*
X619000D02*
X617385Y629589D01*
X618250Y629230D01*
X619750D01*
X620616Y629589D01*
X619000Y631204D01*
D02*
G37*
G36*
X641000Y631204D02*
X639385Y629589D01*
X640250Y629230D01*
X641750D01*
X642616Y629589D01*
X641000Y631204D01*
D02*
G37*
G36*
X663750Y625770D02*
X662250D01*
X661385Y625411D01*
X663000Y623796D01*
X664615Y625411D01*
X663750Y625770D01*
D02*
G37*
G36*
X652750D02*
X651250D01*
X650385Y625411D01*
X652000Y623796D01*
X653615Y625411D01*
X652750Y625770D01*
D02*
G37*
G36*
X641750D02*
X640250D01*
X639385Y625411D01*
X641000Y623796D01*
X642616Y625411D01*
X641750Y625770D01*
D02*
G37*
G36*
X630750D02*
X629250D01*
X628385Y625411D01*
X630000Y623796D01*
X631615Y625411D01*
X630750Y625770D01*
D02*
G37*
G36*
X619750D02*
X618250D01*
X617385Y625411D01*
X619000Y623796D01*
X620615Y625411D01*
X619750Y625770D01*
D02*
G37*
G36*
X666412Y623615D02*
X664796Y622000D01*
X666412Y620385D01*
X666770Y621250D01*
Y622750D01*
X666412Y623615D01*
D02*
G37*
G36*
X655412D02*
X653796Y622000D01*
X655412Y620385D01*
X655770Y621250D01*
Y622750D01*
X655412Y623615D01*
D02*
G37*
G36*
X644411D02*
X642796Y622000D01*
X644411Y620385D01*
X644770Y621250D01*
Y622750D01*
X644411Y623615D01*
D02*
G37*
G36*
X633411D02*
X631796Y622000D01*
X633411Y620385D01*
X633770Y621250D01*
Y622750D01*
X633411Y623615D01*
D02*
G37*
G36*
X622411D02*
X620796Y622000D01*
X622411Y620385D01*
X622770Y621250D01*
Y622750D01*
X622411Y623615D01*
D02*
G37*
G36*
X659588Y623615D02*
X659230Y622750D01*
Y621250D01*
X659588Y620385D01*
X661204Y622000D01*
X659588Y623615D01*
D02*
G37*
G36*
X648588D02*
X648230Y622750D01*
Y621250D01*
X648588Y620385D01*
X650204Y622000D01*
X648588Y623615D01*
D02*
G37*
G36*
X637589D02*
X637230Y622750D01*
Y621250D01*
X637589Y620385D01*
X639204Y622000D01*
X637589Y623615D01*
D02*
G37*
G36*
X626589D02*
X626230Y622750D01*
Y621250D01*
X626589Y620385D01*
X628204Y622000D01*
X626589Y623615D01*
D02*
G37*
G36*
X615588D02*
X615230Y622750D01*
Y621250D01*
X615588Y620385D01*
X617204Y622000D01*
X615588Y623615D01*
D02*
G37*
G36*
X663000Y620204D02*
X661385Y618588D01*
X662250Y618230D01*
X663750D01*
X664615Y618588D01*
X663000Y620204D01*
D02*
G37*
G36*
X652000D02*
X650385Y618588D01*
X651250Y618230D01*
X652750D01*
X653615Y618588D01*
X652000Y620204D01*
D02*
G37*
G36*
X641000D02*
X639385Y618588D01*
X640250Y618230D01*
X641750D01*
X642616Y618588D01*
X641000Y620204D01*
D02*
G37*
G36*
X630000D02*
X628385Y618588D01*
X629250Y618230D01*
X630750D01*
X631615Y618588D01*
X630000Y620204D01*
D02*
G37*
G36*
X619000D02*
X617385Y618588D01*
X618250Y618230D01*
X619750D01*
X620616Y618588D01*
X619000Y620204D01*
D02*
G37*
G36*
X735543Y617824D02*
X732543D01*
X731685Y617654D01*
X734043Y615296D01*
X736400Y617654D01*
X735543Y617824D01*
D02*
G37*
G36*
X641750Y614770D02*
X640250D01*
X639385Y614412D01*
X641000Y612796D01*
X642616Y614412D01*
X641750Y614770D01*
D02*
G37*
G36*
X663750Y614770D02*
X662250D01*
X661385Y614412D01*
X663000Y612796D01*
X664615Y614412D01*
X663750Y614770D01*
D02*
G37*
G36*
X652750D02*
X651250D01*
X650385Y614412D01*
X652000Y612796D01*
X653615Y614412D01*
X652750Y614770D01*
D02*
G37*
G36*
X630750D02*
X629250D01*
X628385Y614412D01*
X630000Y612796D01*
X631615Y614412D01*
X630750Y614770D01*
D02*
G37*
G36*
X619750D02*
X618250D01*
X617385Y614412D01*
X619000Y612796D01*
X620616Y614412D01*
X619750Y614770D01*
D02*
G37*
G36*
X644411Y612616D02*
X642796Y611000D01*
X644411Y609385D01*
X644770Y610250D01*
Y611750D01*
X644411Y612616D01*
D02*
G37*
G36*
X637589Y612616D02*
X637230Y611750D01*
Y610250D01*
X637589Y609385D01*
X639204Y611000D01*
X637589Y612616D01*
D02*
G37*
G36*
X666412Y612615D02*
X664796Y611000D01*
X666412Y609385D01*
X666770Y610250D01*
Y611750D01*
X666412Y612615D01*
D02*
G37*
G36*
X655412D02*
X653796Y611000D01*
X655412Y609385D01*
X655770Y610250D01*
Y611750D01*
X655412Y612615D01*
D02*
G37*
G36*
X633411D02*
X631796Y611000D01*
X633411Y609385D01*
X633770Y610250D01*
Y611750D01*
X633411Y612615D01*
D02*
G37*
G36*
X622411D02*
X620796Y611000D01*
X622411Y609385D01*
X622770Y610250D01*
Y611750D01*
X622411Y612615D01*
D02*
G37*
G36*
X659588Y612616D02*
X659230Y611750D01*
Y610250D01*
X659588Y609385D01*
X661204Y611000D01*
X659588Y612616D01*
D02*
G37*
G36*
X648588D02*
X648230Y611750D01*
Y610250D01*
X648588Y609385D01*
X650204Y611000D01*
X648588Y612616D01*
D02*
G37*
G36*
X626589D02*
X626230Y611750D01*
Y610250D01*
X626589Y609385D01*
X628204Y611000D01*
X626589Y612616D01*
D02*
G37*
G36*
X615589D02*
X615230Y611750D01*
Y610250D01*
X615589Y609385D01*
X617204Y611000D01*
X615589Y612616D01*
D02*
G37*
G36*
X684892Y623526D02*
X683492D01*
X682198Y622990D01*
X681208Y622000D01*
X680672Y620706D01*
Y619306D01*
X681208Y618012D01*
X682198Y617022D01*
X683492Y616486D01*
X684529D01*
X684566Y616469D01*
X685199Y615776D01*
X685289Y615568D01*
X685176Y615000D01*
Y609000D01*
X685346Y608142D01*
X688602Y611398D01*
X689500Y610500D01*
X690398Y611398D01*
X693654Y608142D01*
X693824Y609000D01*
Y615000D01*
X693654Y615858D01*
X690398Y612602D01*
X688602Y614398D01*
X691858Y617654D01*
X691000Y617824D01*
X688180D01*
X687769Y618228D01*
X687477Y618740D01*
X687712Y619306D01*
Y620706D01*
X687176Y622000D01*
X686186Y622990D01*
X684892Y623526D01*
D02*
G37*
G36*
X641000Y609204D02*
X639385Y607589D01*
X640250Y607230D01*
X641750D01*
X642616Y607589D01*
X641000Y609204D01*
D02*
G37*
G36*
X663000Y609204D02*
X661385Y607589D01*
X662250Y607230D01*
X663750D01*
X664615Y607589D01*
X663000Y609204D01*
D02*
G37*
G36*
X652000D02*
X650385Y607589D01*
X651250Y607230D01*
X652750D01*
X653615Y607589D01*
X652000Y609204D01*
D02*
G37*
G36*
X630000D02*
X628385Y607589D01*
X629250Y607230D01*
X630750D01*
X631615Y607589D01*
X630000Y609204D01*
D02*
G37*
G36*
X619000D02*
X617385Y607589D01*
X618250Y607230D01*
X619750D01*
X620616Y607589D01*
X619000Y609204D01*
D02*
G37*
G36*
X689500Y608704D02*
X687142Y606346D01*
X688000Y606176D01*
X691000D01*
X691858Y606346D01*
X689500Y608704D01*
D02*
G37*
G36*
X652750Y603770D02*
X651250D01*
X650385Y603411D01*
X652000Y601796D01*
X653615Y603411D01*
X652750Y603770D01*
D02*
G37*
G36*
X630750D02*
X629250D01*
X628385Y603411D01*
X630000Y601796D01*
X631615Y603411D01*
X630750Y603770D01*
D02*
G37*
G36*
X663750Y603770D02*
X662250D01*
X661385Y603411D01*
X663000Y601796D01*
X664615Y603411D01*
X663750Y603770D01*
D02*
G37*
G36*
X641750D02*
X640250D01*
X639385Y603411D01*
X641000Y601796D01*
X642616Y603411D01*
X641750Y603770D01*
D02*
G37*
G36*
X619750D02*
X618250D01*
X617385Y603411D01*
X619000Y601796D01*
X620615Y603411D01*
X619750Y603770D01*
D02*
G37*
G36*
X774000Y608824D02*
X768000D01*
X766919Y608609D01*
X766003Y607997D01*
X765391Y607081D01*
X765176Y606000D01*
Y603000D01*
X765391Y601919D01*
X766003Y601003D01*
X766919Y600391D01*
X767115Y600352D01*
Y584039D01*
X757588Y574512D01*
X754435D01*
X752949Y574216D01*
X751688Y573374D01*
X751313Y572999D01*
X750471Y571739D01*
X750175Y570252D01*
X750471Y568765D01*
X751313Y567505D01*
X752573Y566663D01*
X754060Y566367D01*
X755547Y566663D01*
X755665Y566742D01*
X759197D01*
X760684Y567038D01*
X761944Y567880D01*
X773747Y579683D01*
X774589Y580943D01*
X774885Y582430D01*
Y600352D01*
X775081Y600391D01*
X775417Y600615D01*
X791230D01*
Y600230D01*
X802770D01*
Y608770D01*
X791230D01*
Y608385D01*
X775417D01*
X775081Y608609D01*
X774000Y608824D01*
D02*
G37*
G36*
X655412Y601615D02*
X653796Y600000D01*
X655412Y598385D01*
X655770Y599250D01*
Y600750D01*
X655412Y601615D01*
D02*
G37*
G36*
X633411D02*
X631796Y600000D01*
X633411Y598385D01*
X633770Y599250D01*
Y600750D01*
X633411Y601615D01*
D02*
G37*
G36*
X648588Y601615D02*
X648230Y600750D01*
Y599250D01*
X648588Y598385D01*
X650204Y600000D01*
X648588Y601615D01*
D02*
G37*
G36*
X626589D02*
X626230Y600750D01*
Y599250D01*
X626589Y598385D01*
X628204Y600000D01*
X626589Y601615D01*
D02*
G37*
G36*
X666412Y601615D02*
X664796Y600000D01*
X666412Y598385D01*
X666770Y599250D01*
Y600750D01*
X666412Y601615D01*
D02*
G37*
G36*
X644411D02*
X642796Y600000D01*
X644411Y598385D01*
X644770Y599250D01*
Y600750D01*
X644411Y601615D01*
D02*
G37*
G36*
X622411D02*
X620796Y600000D01*
X622411Y598385D01*
X622770Y599250D01*
Y600750D01*
X622411Y601615D01*
D02*
G37*
G36*
X659588Y601615D02*
X659230Y600750D01*
Y599250D01*
X659588Y598385D01*
X661204Y600000D01*
X659588Y601615D01*
D02*
G37*
G36*
X637589D02*
X637230Y600750D01*
Y599250D01*
X637589Y598385D01*
X639204Y600000D01*
X637589Y601615D01*
D02*
G37*
G36*
X615588D02*
X615230Y600750D01*
Y599250D01*
X615588Y598385D01*
X617204Y600000D01*
X615588Y601615D01*
D02*
G37*
G36*
X579000Y599824D02*
X576000D01*
X575142Y599654D01*
X577500Y597296D01*
X579858Y599654D01*
X579000Y599824D01*
D02*
G37*
G36*
X652000Y598204D02*
X650385Y596589D01*
X651250Y596230D01*
X652750D01*
X653615Y596589D01*
X652000Y598204D01*
D02*
G37*
G36*
X630000D02*
X628385Y596589D01*
X629250Y596230D01*
X630750D01*
X631615Y596589D01*
X630000Y598204D01*
D02*
G37*
G36*
X663000Y598204D02*
X661385Y596589D01*
X662250Y596230D01*
X663750D01*
X664615Y596589D01*
X663000Y598204D01*
D02*
G37*
G36*
X641000D02*
X639385Y596589D01*
X640250Y596230D01*
X641750D01*
X642616Y596589D01*
X641000Y598204D01*
D02*
G37*
G36*
X619000D02*
X617385Y596589D01*
X618250Y596230D01*
X619750D01*
X620616Y596589D01*
X619000Y598204D01*
D02*
G37*
G36*
X573346Y597858D02*
X573176Y597000D01*
Y591000D01*
X573346Y590142D01*
X576602Y593398D01*
X577500Y592500D01*
X578398Y593398D01*
X581654Y590142D01*
X581824Y591000D01*
Y597000D01*
X581654Y597858D01*
X578398Y594602D01*
X577500Y595500D01*
X576602Y594602D01*
X573346Y597858D01*
D02*
G37*
G36*
X706000Y592282D02*
X703000D01*
X702142Y592111D01*
X704500Y589753D01*
X706858Y592111D01*
X706000Y592282D01*
D02*
G37*
G36*
X577500Y590704D02*
X575142Y588346D01*
X576000Y588176D01*
X579000D01*
X579858Y588346D01*
X577500Y590704D01*
D02*
G37*
G36*
X708654Y590315D02*
X705398Y587060D01*
X704500Y587957D01*
X703602Y587060D01*
X700346Y590315D01*
X700176Y589458D01*
Y583457D01*
X700346Y582600D01*
X703602Y585855D01*
X704500Y584958D01*
X705398Y585855D01*
X708654Y582600D01*
X708824Y583457D01*
Y589458D01*
X708654Y590315D01*
D02*
G37*
G36*
X704500Y583162D02*
X702142Y580804D01*
X703000Y580633D01*
X706000D01*
X706858Y580804D01*
X704500Y583162D01*
D02*
G37*
G36*
X645537Y579509D02*
X645007D01*
X643521Y579214D01*
X642260Y578372D01*
X641418Y577111D01*
X641122Y575625D01*
X641418Y574138D01*
X642260Y572878D01*
X643521Y572036D01*
X645007Y571740D01*
X645537D01*
X647024Y572036D01*
X648284Y572878D01*
X649126Y574138D01*
X649422Y575625D01*
X649126Y577111D01*
X648284Y578372D01*
X647024Y579214D01*
X645537Y579509D01*
D02*
G37*
G36*
X711706Y578587D02*
X710306D01*
X709012Y578051D01*
X708022Y577061D01*
X707486Y575768D01*
Y574367D01*
X708022Y573074D01*
X708621Y572474D01*
X707994Y571734D01*
X707593Y571900D01*
X706700Y572270D01*
X705300D01*
X704006Y571734D01*
X703016Y570744D01*
X702878Y570410D01*
X702591Y570300D01*
X701733Y570261D01*
X700954Y571040D01*
X699660Y571576D01*
X698260D01*
X696966Y571040D01*
X695976Y570050D01*
X695761Y569532D01*
X694611Y569367D01*
X693994Y569984D01*
X692700Y570520D01*
X691300D01*
X690006Y569984D01*
X689016Y568994D01*
X688480Y567700D01*
Y566300D01*
X689016Y565006D01*
X690006Y564016D01*
X691300Y563480D01*
X692700D01*
X693994Y564016D01*
X694984Y565006D01*
X695199Y565525D01*
X696349Y565689D01*
X696966Y565072D01*
X698260Y564536D01*
X699660D01*
X700954Y565072D01*
X701944Y566062D01*
X702083Y566396D01*
X702369Y566507D01*
X703227Y566545D01*
X704006Y565766D01*
X705300Y565230D01*
X706700D01*
X707994Y565766D01*
X708984Y566756D01*
X709520Y568050D01*
Y569450D01*
X708984Y570744D01*
X708385Y571343D01*
X709012Y572083D01*
X709413Y571917D01*
X710306Y571547D01*
X711706D01*
X713000Y572083D01*
X713990Y573074D01*
X714526Y574367D01*
Y575768D01*
X713990Y577061D01*
X713000Y578051D01*
X711706Y578587D01*
D02*
G37*
G36*
X789251Y576290D02*
X786749D01*
X784437Y575332D01*
X782668Y573563D01*
X781710Y571251D01*
Y568749D01*
X782668Y566437D01*
X784437Y564668D01*
X786749Y563710D01*
X789251D01*
X791563Y564668D01*
X793332Y566437D01*
X794290Y568749D01*
Y571251D01*
X793332Y573563D01*
X791563Y575332D01*
X789251Y576290D01*
D02*
G37*
G36*
X717700Y568520D02*
X716300D01*
X715006Y567984D01*
X714016Y566994D01*
X713480Y565700D01*
Y564300D01*
X714016Y563006D01*
X715006Y562016D01*
X716300Y561480D01*
X717700D01*
X718994Y562016D01*
X719984Y563006D01*
X720520Y564300D01*
Y565700D01*
X719984Y566994D01*
X718994Y567984D01*
X717700Y568520D01*
D02*
G37*
G36*
X684700D02*
X683300D01*
X682006Y567984D01*
X681016Y566994D01*
X680480Y565700D01*
Y564300D01*
X681016Y563006D01*
X682006Y562016D01*
X683300Y561480D01*
X684700D01*
X685994Y562016D01*
X686984Y563006D01*
X687520Y564300D01*
Y565700D01*
X686984Y566994D01*
X685994Y567984D01*
X684700Y568520D01*
D02*
G37*
G36*
X670196Y560858D02*
X667839Y558500D01*
X670196Y556142D01*
X670367Y557000D01*
Y560000D01*
X670196Y560858D01*
D02*
G37*
G36*
X658889Y560858D02*
X658718Y560000D01*
Y557000D01*
X658889Y556142D01*
X661246Y558500D01*
X658889Y560858D01*
D02*
G37*
G36*
X618654Y560358D02*
X616296Y558000D01*
X618654Y555642D01*
X618824Y556500D01*
Y559500D01*
X618654Y560358D01*
D02*
G37*
G36*
X607346Y560358D02*
X607176Y559500D01*
Y556500D01*
X607346Y555642D01*
X609704Y558000D01*
X607346Y560358D01*
D02*
G37*
G36*
X667542Y562824D02*
X661543D01*
X660685Y562654D01*
X663941Y559398D01*
X663043Y558500D01*
X663941Y557602D01*
X660685Y554346D01*
X661543Y554176D01*
X667542D01*
X668400Y554346D01*
X665145Y557602D01*
X666042Y558500D01*
X665145Y559398D01*
X668400Y562654D01*
X667542Y562824D01*
D02*
G37*
G36*
X616000Y562324D02*
X610000D01*
X609142Y562154D01*
X612398Y558898D01*
X611500Y558000D01*
X612398Y557102D01*
X609142Y553846D01*
X610000Y553676D01*
X616000D01*
X616858Y553846D01*
X613602Y557102D01*
X614500Y558000D01*
X613602Y558898D01*
X616858Y562154D01*
X616000Y562324D01*
D02*
G37*
G36*
X645000Y543782D02*
X642000D01*
X641142Y543611D01*
X643500Y541254D01*
X645858Y543611D01*
X645000Y543782D01*
D02*
G37*
G36*
X647654Y541815D02*
X644398Y538559D01*
X643500Y539458D01*
X642602Y538559D01*
X639346Y541815D01*
X639176Y540957D01*
Y534958D01*
X639346Y534100D01*
X642602Y537355D01*
X643500Y536457D01*
X644398Y537355D01*
X647654Y534100D01*
X647824Y534958D01*
Y540957D01*
X647654Y541815D01*
D02*
G37*
G36*
X747700Y539520D02*
X746300D01*
X745006Y538984D01*
X744016Y537994D01*
X743480Y536700D01*
Y535300D01*
X744016Y534006D01*
X745006Y533016D01*
X746300Y532480D01*
X747700D01*
X748994Y533016D01*
X749984Y534006D01*
X750520Y535300D01*
Y536700D01*
X749984Y537994D01*
X748994Y538984D01*
X747700Y539520D01*
D02*
G37*
G36*
X643500Y534661D02*
X641142Y532304D01*
X642000Y532133D01*
X645000D01*
X645858Y532304D01*
X643500Y534661D01*
D02*
G37*
G36*
X632770Y543727D02*
X624230D01*
Y539475D01*
X620422D01*
X618935Y539180D01*
X617675Y538338D01*
X616833Y537077D01*
X616537Y535591D01*
X616833Y534104D01*
X617675Y532844D01*
X618935Y532002D01*
X620422Y531706D01*
X626770D01*
X628257Y532002D01*
X628535Y532188D01*
X632770D01*
Y543727D01*
D02*
G37*
G36*
X789251Y536290D02*
X786749D01*
X784437Y535332D01*
X782668Y533563D01*
X781710Y531251D01*
Y528749D01*
X782668Y526437D01*
X784437Y524668D01*
X786749Y523710D01*
X789251D01*
X791563Y524668D01*
X793332Y526437D01*
X794290Y528749D01*
Y531251D01*
X793332Y533563D01*
X791563Y535332D01*
X789251Y536290D01*
D02*
G37*
G36*
X697593Y523540D02*
X695607D01*
X693690Y523026D01*
X691970Y522034D01*
X690897Y520961D01*
X690250Y520738D01*
X689603Y520961D01*
X688530Y522034D01*
X686810Y523026D01*
X684893Y523540D01*
X682907D01*
X680990Y523026D01*
X679270Y522034D01*
X678197Y520961D01*
X677550Y520738D01*
X676903Y520961D01*
X675830Y522034D01*
X674110Y523026D01*
X672193Y523540D01*
X670207D01*
X668290Y523026D01*
X666570Y522034D01*
X665497Y520961D01*
X664850Y520738D01*
X664203Y520961D01*
X663130Y522034D01*
X661410Y523026D01*
X659493Y523540D01*
X657507D01*
X655590Y523026D01*
X653870Y522034D01*
X652797Y520961D01*
X652150Y520738D01*
X651503Y520961D01*
X650430Y522034D01*
X648710Y523026D01*
X646793Y523540D01*
X644807D01*
X642890Y523026D01*
X641170Y522034D01*
X640097Y520961D01*
X639450Y520738D01*
X638803Y520961D01*
X637730Y522034D01*
X636010Y523026D01*
X634093Y523540D01*
X632107D01*
X630190Y523026D01*
X628470Y522034D01*
X627397Y520961D01*
X626750Y520738D01*
X626103Y520961D01*
X625030Y522034D01*
X623310Y523026D01*
X621393Y523540D01*
X619407D01*
X617490Y523026D01*
X615770Y522034D01*
X614697Y520961D01*
X614050Y520738D01*
X613403Y520961D01*
X612330Y522034D01*
X610610Y523026D01*
X608693Y523540D01*
X606707D01*
X604790Y523026D01*
X603540Y522305D01*
X602540Y522860D01*
Y523540D01*
X587460D01*
Y508460D01*
X602540D01*
Y509140D01*
X603540Y509695D01*
X604790Y508974D01*
X606707Y508460D01*
X608693D01*
X610610Y508974D01*
X612330Y509967D01*
X613403Y511040D01*
X614050Y511262D01*
X614697Y511040D01*
X615770Y509967D01*
X617490Y508974D01*
X619407Y508460D01*
X621393D01*
X623310Y508974D01*
X625030Y509967D01*
X626103Y511040D01*
X626750Y511262D01*
X627397Y511040D01*
X628470Y509967D01*
X630190Y508974D01*
X632107Y508460D01*
X634093D01*
X636010Y508974D01*
X637730Y509967D01*
X638803Y511040D01*
X639450Y511262D01*
X640097Y511040D01*
X641170Y509967D01*
X642890Y508974D01*
X644807Y508460D01*
X646793D01*
X648710Y508974D01*
X650430Y509967D01*
X651503Y511040D01*
X652150Y511262D01*
X652797Y511040D01*
X653870Y509967D01*
X655590Y508974D01*
X657507Y508460D01*
X659493D01*
X661410Y508974D01*
X663130Y509967D01*
X664203Y511040D01*
X664850Y511262D01*
X665497Y511040D01*
X666570Y509967D01*
X668290Y508974D01*
X670207Y508460D01*
X672193D01*
X674110Y508974D01*
X675830Y509967D01*
X676903Y511040D01*
X677550Y511262D01*
X678197Y511040D01*
X679270Y509967D01*
X680990Y508974D01*
X682907Y508460D01*
X684893D01*
X686810Y508974D01*
X688530Y509967D01*
X689603Y511040D01*
X690250Y511262D01*
X690897Y511040D01*
X691970Y509967D01*
X693690Y508974D01*
X695607Y508460D01*
X697593D01*
X699510Y508974D01*
X701230Y509967D01*
X702634Y511370D01*
X703626Y513090D01*
X704140Y515007D01*
Y516993D01*
X703626Y518910D01*
X702634Y520630D01*
X701230Y522034D01*
X699510Y523026D01*
X697593Y523540D01*
D02*
G37*
G36*
X968025Y523529D02*
X964496Y520000D01*
X968025Y516471D01*
X968970Y518753D01*
Y521247D01*
X968025Y523529D01*
D02*
G37*
G36*
X957540Y527540D02*
X942460D01*
Y512460D01*
X957540D01*
Y514986D01*
X958464Y515369D01*
X959148Y514685D01*
X961453Y513730D01*
X963947D01*
X966229Y514675D01*
X961802Y519102D01*
X962700Y520000D01*
X961802Y520898D01*
X966229Y525325D01*
X963947Y526270D01*
X961453D01*
X959148Y525315D01*
X958464Y524631D01*
X957540Y525014D01*
Y527540D01*
D02*
G37*
G36*
X1091770Y740770D02*
X1083230D01*
Y729230D01*
X1091770D01*
Y731763D01*
X1120617D01*
X1121300Y731480D01*
X1122700D01*
X1123994Y732016D01*
X1124984Y733006D01*
X1125520Y734300D01*
Y735700D01*
X1124984Y736994D01*
X1123994Y737984D01*
X1122700Y738520D01*
X1121300D01*
X1120617Y738237D01*
X1091770D01*
Y740770D01*
D02*
G37*
G36*
X1438974Y728170D02*
X1425026D01*
X1432000Y721196D01*
X1438974Y728170D01*
D02*
G37*
G36*
X1219957Y722996D02*
X1217483Y720523D01*
X1222431D01*
X1219957Y722996D01*
D02*
G37*
G36*
X1074000Y740824D02*
X1071000D01*
X1069919Y740609D01*
X1069003Y739997D01*
X1068391Y739081D01*
X1068176Y738000D01*
Y732000D01*
X1068391Y730919D01*
X1068615Y730583D01*
Y715914D01*
X1068391Y715578D01*
X1068302Y715133D01*
X1051574D01*
X1050997Y715997D01*
X1050081Y716609D01*
X1049000Y716824D01*
X1046000D01*
X1044919Y716609D01*
X1044003Y715997D01*
X1043391Y715081D01*
X1043176Y714000D01*
Y708000D01*
X1043391Y706919D01*
X1044003Y706003D01*
X1044919Y705391D01*
X1046000Y705176D01*
X1049000D01*
X1050081Y705391D01*
X1050997Y706003D01*
X1051609Y706919D01*
X1051698Y707364D01*
X1068426D01*
X1068615Y707081D01*
Y692412D01*
X1068391Y692076D01*
X1068176Y690995D01*
Y684995D01*
X1068391Y683914D01*
X1069003Y682998D01*
X1069919Y682386D01*
X1071000Y682171D01*
X1074000D01*
X1075081Y682386D01*
X1075997Y682998D01*
X1076609Y683914D01*
X1076824Y684995D01*
Y690995D01*
X1076609Y692076D01*
X1076385Y692412D01*
Y707081D01*
X1076609Y707417D01*
X1076824Y708497D01*
Y714498D01*
X1076609Y715578D01*
X1076385Y715914D01*
Y730583D01*
X1076609Y730919D01*
X1076824Y732000D01*
Y738000D01*
X1076609Y739081D01*
X1075997Y739997D01*
X1075081Y740609D01*
X1074000Y740824D01*
D02*
G37*
G36*
X1423230Y726374D02*
Y712426D01*
X1430204Y719400D01*
X1423230Y726374D01*
D02*
G37*
G36*
X1440770Y726374D02*
X1433796Y719400D01*
X1440770Y712426D01*
Y726374D01*
D02*
G37*
G36*
X1432000Y717604D02*
X1425026Y710630D01*
X1438974D01*
X1432000Y717604D01*
D02*
G37*
G36*
X1091770Y717268D02*
X1083230D01*
Y705727D01*
X1091770D01*
Y707613D01*
X1112894D01*
X1120253Y700253D01*
X1121513Y699411D01*
X1123000Y699115D01*
X1124487Y699411D01*
X1125747Y700253D01*
X1126589Y701513D01*
X1126885Y703000D01*
X1126589Y704487D01*
X1125747Y705747D01*
X1117249Y714244D01*
X1115989Y715086D01*
X1114502Y715382D01*
X1091770D01*
Y717268D01*
D02*
G37*
G36*
X1222930Y695474D02*
Y692526D01*
X1224404Y694000D01*
X1222930Y695474D01*
D02*
G37*
G36*
X1433322Y704040D02*
X1430678D01*
X1428125Y703356D01*
X1425835Y702034D01*
X1423966Y700165D01*
X1422644Y697875D01*
X1421960Y695322D01*
Y692678D01*
X1422644Y690125D01*
X1423966Y687835D01*
X1425835Y685966D01*
X1428125Y684644D01*
X1430678Y683960D01*
X1433322D01*
X1435875Y684644D01*
X1438165Y685966D01*
X1440034Y687835D01*
X1441356Y690125D01*
X1442040Y692678D01*
Y695322D01*
X1441356Y697875D01*
X1440034Y700165D01*
X1438165Y702034D01*
X1435875Y703356D01*
X1433322Y704040D01*
D02*
G37*
G36*
X1091770Y693765D02*
X1083230D01*
Y682225D01*
X1091770D01*
Y684110D01*
X1129995D01*
X1131481Y684406D01*
X1132742Y685248D01*
X1133584Y686508D01*
X1133880Y687995D01*
X1133584Y689482D01*
X1132742Y690742D01*
X1131481Y691584D01*
X1129995Y691880D01*
X1091770D01*
Y693765D01*
D02*
G37*
G36*
X1395000Y674824D02*
X1392000D01*
X1391142Y674654D01*
X1393500Y672296D01*
X1395858Y674654D01*
X1395000Y674824D01*
D02*
G37*
G36*
X1220700Y678520D02*
X1219300D01*
X1218006Y677984D01*
X1217016Y676994D01*
X1216480Y675700D01*
Y674300D01*
X1217016Y673006D01*
X1218006Y672016D01*
X1219300Y671480D01*
X1220700D01*
X1221994Y672016D01*
X1222984Y673006D01*
X1223520Y674300D01*
Y675700D01*
X1222984Y676994D01*
X1221994Y677984D01*
X1220700Y678520D01*
D02*
G37*
G36*
X1397654Y672858D02*
X1394398Y669602D01*
X1393500Y670500D01*
X1392602Y669602D01*
X1389346Y672858D01*
X1389176Y672000D01*
Y666000D01*
X1389346Y665142D01*
X1392602Y668398D01*
X1393500Y667500D01*
X1394398Y668398D01*
X1397654Y665142D01*
X1397824Y666000D01*
Y672000D01*
X1397654Y672858D01*
D02*
G37*
G36*
X1346250Y670270D02*
X1344750D01*
X1343885Y669911D01*
X1345500Y668296D01*
X1347115Y669911D01*
X1346250Y670270D01*
D02*
G37*
G36*
X1335250D02*
X1333750D01*
X1332885Y669911D01*
X1334500Y668296D01*
X1336116Y669911D01*
X1335250Y670270D01*
D02*
G37*
G36*
X1221974Y667477D02*
X1217026D01*
X1219500Y665004D01*
X1221974Y667477D01*
D02*
G37*
G36*
X1348911Y668115D02*
X1347296Y666500D01*
X1348911Y664884D01*
X1349270Y665750D01*
Y667250D01*
X1348911Y668115D01*
D02*
G37*
G36*
X1337912D02*
X1336296Y666500D01*
X1337912Y664884D01*
X1338270Y665750D01*
Y667250D01*
X1337912Y668115D01*
D02*
G37*
G36*
X1342088Y668115D02*
X1341730Y667250D01*
Y665750D01*
X1342088Y664884D01*
X1343704Y666500D01*
X1342088Y668115D01*
D02*
G37*
G36*
X1331089D02*
X1330730Y667250D01*
Y665750D01*
X1331089Y664884D01*
X1332704Y666500D01*
X1331089Y668115D01*
D02*
G37*
G36*
X1393500Y665704D02*
X1391142Y663346D01*
X1392000Y663176D01*
X1395000D01*
X1395858Y663346D01*
X1393500Y665704D01*
D02*
G37*
G36*
X1345500Y664704D02*
X1343885Y663089D01*
X1344750Y662730D01*
X1346250D01*
X1347115Y663089D01*
X1345500Y664704D01*
D02*
G37*
G36*
X1334500D02*
X1332885Y663089D01*
X1333750Y662730D01*
X1335250D01*
X1336116Y663089D01*
X1334500Y664704D01*
D02*
G37*
G36*
X1223770Y665682D02*
X1220398Y662309D01*
X1219500Y663207D01*
X1218602Y662309D01*
X1215230Y665681D01*
Y657734D01*
X1218602Y661105D01*
X1219500Y660208D01*
X1220398Y661105D01*
X1223770Y657734D01*
Y665682D01*
D02*
G37*
G36*
X1346250Y659270D02*
X1344750D01*
X1343885Y658912D01*
X1345500Y657296D01*
X1347115Y658912D01*
X1346250Y659270D01*
D02*
G37*
G36*
X1335250D02*
X1333750D01*
X1332885Y658912D01*
X1334500Y657296D01*
X1336116Y658912D01*
X1335250Y659270D01*
D02*
G37*
G36*
X1219500Y658411D02*
X1217026Y655938D01*
X1221974D01*
X1219500Y658411D01*
D02*
G37*
G36*
X1348911Y657115D02*
X1347296Y655500D01*
X1348911Y653885D01*
X1349270Y654750D01*
Y656250D01*
X1348911Y657115D01*
D02*
G37*
G36*
X1337912D02*
X1336296Y655500D01*
X1337912Y653885D01*
X1338270Y654750D01*
Y656250D01*
X1337912Y657115D01*
D02*
G37*
G36*
X1342088Y657115D02*
X1341730Y656250D01*
Y654750D01*
X1342088Y653885D01*
X1343704Y655500D01*
X1342088Y657115D01*
D02*
G37*
G36*
X1331089D02*
X1330730Y656250D01*
Y654750D01*
X1331089Y653885D01*
X1332704Y655500D01*
X1331089Y657115D01*
D02*
G37*
G36*
X1345500Y653704D02*
X1343885Y652088D01*
X1344750Y651730D01*
X1346250D01*
X1347115Y652088D01*
X1345500Y653704D01*
D02*
G37*
G36*
X1334500D02*
X1332885Y652088D01*
X1333750Y651730D01*
X1335250D01*
X1336116Y652088D01*
X1334500Y653704D01*
D02*
G37*
G36*
X1282500Y649204D02*
X1276526Y643230D01*
X1288474D01*
X1282500Y649204D01*
D02*
G37*
G36*
X1449224Y642020D02*
X1446776D01*
X1448000Y640796D01*
X1449224Y642020D01*
D02*
G37*
G36*
X1276665Y630520D02*
X1275265D01*
X1273971Y629984D01*
X1272981Y628994D01*
X1272445Y627700D01*
Y626300D01*
X1272981Y625006D01*
X1273971Y624016D01*
X1275265Y623480D01*
X1276665D01*
X1277959Y624016D01*
X1278949Y625006D01*
X1279485Y626300D01*
Y627700D01*
X1278949Y628994D01*
X1277959Y629984D01*
X1276665Y630520D01*
D02*
G37*
G36*
X1028730Y647774D02*
Y621826D01*
X1041704Y634800D01*
X1028730Y647774D01*
D02*
G37*
G36*
X1061270Y647774D02*
X1048296Y634800D01*
X1061270Y621826D01*
Y647774D01*
D02*
G37*
G36*
X1059474Y649570D02*
X1030526D01*
X1044398Y635698D01*
X1043500Y634800D01*
X1044398Y633902D01*
X1030526Y620030D01*
X1059474D01*
X1045602Y633902D01*
X1046500Y634800D01*
X1045602Y635698D01*
X1059474Y649570D01*
D02*
G37*
G36*
X1218120Y624445D02*
X1216720D01*
X1215426Y623909D01*
X1214436Y622919D01*
X1213900Y621625D01*
Y620225D01*
X1214436Y618931D01*
X1215426Y617941D01*
X1216720Y617405D01*
X1218120D01*
X1219414Y617941D01*
X1220404Y618931D01*
X1220940Y620225D01*
Y621625D01*
X1220404Y622919D01*
X1219414Y623909D01*
X1218120Y624445D01*
D02*
G37*
G36*
X1144477Y616820D02*
X1143076D01*
X1141783Y616284D01*
X1140792Y615294D01*
X1140257Y614000D01*
Y612600D01*
X1140792Y611306D01*
X1141783Y610316D01*
X1143076Y609780D01*
X1144477D01*
X1145770Y610316D01*
X1146761Y611306D01*
X1147297Y612600D01*
Y614000D01*
X1146761Y615294D01*
X1145770Y616284D01*
X1144477Y616820D01*
D02*
G37*
G36*
X1419020Y618020D02*
X1412980D01*
Y607980D01*
X1419020D01*
Y618020D01*
D02*
G37*
G36*
X1435020Y618020D02*
X1428980D01*
Y607980D01*
X1435020D01*
Y618020D01*
D02*
G37*
G36*
X1427020Y618020D02*
X1420980D01*
Y607980D01*
X1427020D01*
Y618020D01*
D02*
G37*
G36*
X1330151Y611858D02*
X1327794Y609500D01*
X1330151Y607142D01*
X1330322Y608000D01*
Y611000D01*
X1330151Y611858D01*
D02*
G37*
G36*
X1318844Y611858D02*
X1318673Y611000D01*
Y608000D01*
X1318844Y607142D01*
X1321201Y609500D01*
X1318844Y611858D01*
D02*
G37*
G36*
X1316547Y652557D02*
X1315060Y652261D01*
X1313800Y651419D01*
X1312958Y650159D01*
X1312662Y648672D01*
Y641953D01*
X1312958Y640467D01*
X1313800Y639206D01*
X1318407Y634599D01*
X1319667Y633757D01*
X1321154Y633461D01*
X1322167D01*
X1325685Y629943D01*
X1325199Y628770D01*
X1318728D01*
Y620230D01*
X1320613D01*
Y618503D01*
X1320909Y617016D01*
X1321751Y615756D01*
X1322740Y615094D01*
X1322473Y613824D01*
X1321497D01*
X1320640Y613654D01*
X1323896Y610398D01*
X1322997Y609500D01*
X1323896Y608602D01*
X1320640Y605346D01*
X1321497Y605176D01*
X1327498D01*
X1328355Y605346D01*
X1325099Y608602D01*
X1325997Y609500D01*
X1325099Y610398D01*
X1328355Y613654D01*
X1327498Y613824D01*
X1326522D01*
X1326255Y615094D01*
X1327244Y615756D01*
X1328086Y617016D01*
X1328382Y618503D01*
Y620230D01*
X1330267D01*
Y621079D01*
X1331441Y621565D01*
X1341151Y611856D01*
Y611213D01*
X1341446Y609726D01*
X1342176Y608634D01*
Y608000D01*
X1342391Y606919D01*
X1343003Y606003D01*
X1343919Y605391D01*
X1345000Y605176D01*
X1351000D01*
X1352081Y605391D01*
X1352997Y606003D01*
X1353609Y606919D01*
X1353824Y608000D01*
Y611000D01*
X1353609Y612081D01*
X1352997Y612997D01*
X1352081Y613609D01*
X1351000Y613824D01*
X1349883D01*
X1349487Y614089D01*
X1348767Y614232D01*
X1348624Y614951D01*
X1347782Y616212D01*
X1344937Y619057D01*
X1345423Y620230D01*
X1353770D01*
Y628770D01*
X1351885D01*
Y631000D01*
X1351589Y632487D01*
X1350747Y633747D01*
X1349487Y634589D01*
X1348000Y634885D01*
X1346513Y634589D01*
X1345253Y633747D01*
X1344411Y632487D01*
X1344115Y631000D01*
Y628770D01*
X1342230D01*
Y623423D01*
X1341057Y622937D01*
X1336152Y627841D01*
Y628854D01*
X1335856Y630341D01*
X1335014Y631601D01*
X1326523Y640093D01*
X1325262Y640935D01*
X1323776Y641231D01*
X1322763D01*
X1320432Y643562D01*
Y648672D01*
X1320136Y650159D01*
X1319294Y651419D01*
X1318033Y652261D01*
X1316547Y652557D01*
D02*
G37*
G36*
X1146700Y605970D02*
X1145300D01*
X1144006Y605434D01*
X1143016Y604444D01*
X1142480Y603150D01*
Y601750D01*
X1143016Y600456D01*
X1144006Y599466D01*
X1145300Y598930D01*
X1146700D01*
X1147994Y599466D01*
X1148984Y600456D01*
X1149520Y601750D01*
Y603150D01*
X1148984Y604444D01*
X1147994Y605434D01*
X1146700Y605970D01*
D02*
G37*
G36*
X1164950Y593565D02*
X1163550D01*
X1162256Y593029D01*
X1161266Y592039D01*
X1160730Y590745D01*
Y589345D01*
X1161266Y588051D01*
X1162256Y587061D01*
X1163550Y586525D01*
X1164950D01*
X1166244Y587061D01*
X1167234Y588051D01*
X1167770Y589345D01*
Y590745D01*
X1167234Y592039D01*
X1166244Y593029D01*
X1164950Y593565D01*
D02*
G37*
G36*
X1121000Y588824D02*
X1118000D01*
X1117142Y588654D01*
X1119500Y586296D01*
X1121858Y588654D01*
X1121000Y588824D01*
D02*
G37*
G36*
X1115346Y586858D02*
X1115176Y586000D01*
Y584308D01*
X1113906Y583782D01*
X1113704Y583984D01*
X1112410Y584520D01*
X1111010D01*
X1109716Y583984D01*
X1108726Y582994D01*
X1108190Y581700D01*
Y580300D01*
X1108726Y579006D01*
X1109716Y578016D01*
X1111010Y577480D01*
X1112410D01*
X1113704Y578016D01*
X1114231Y578543D01*
X1114313Y578570D01*
X1114730Y578526D01*
X1118602Y582398D01*
X1119500Y581500D01*
X1120398Y582398D01*
X1123654Y579142D01*
X1123824Y580000D01*
Y586000D01*
X1123654Y586858D01*
X1120398Y583602D01*
X1119500Y584500D01*
X1118602Y583602D01*
X1115346Y586858D01*
D02*
G37*
G36*
X1175800Y593559D02*
X1174400D01*
X1173247Y593082D01*
X1172987Y593030D01*
X1171937Y592328D01*
X1171235Y591278D01*
X1170989Y590039D01*
X1171235Y588800D01*
X1171937Y587750D01*
X1172708Y587235D01*
X1172837Y586693D01*
X1172870Y586211D01*
X1172811Y585789D01*
X1172016Y584994D01*
X1171480Y583700D01*
Y582300D01*
X1172016Y581006D01*
X1173006Y580016D01*
X1174300Y579480D01*
X1175700D01*
X1176994Y580016D01*
X1177984Y581006D01*
X1178520Y582300D01*
Y583700D01*
X1177984Y584994D01*
X1177238Y585740D01*
X1177141Y586630D01*
X1177279Y587240D01*
X1178084Y588045D01*
X1178620Y589339D01*
Y590739D01*
X1178084Y592033D01*
X1177094Y593023D01*
X1175800Y593559D01*
D02*
G37*
G36*
X1119500Y579704D02*
X1117142Y577346D01*
X1118000Y577176D01*
X1121000D01*
X1121858Y577346D01*
X1119500Y579704D01*
D02*
G37*
G36*
X1181125Y572929D02*
X1179725D01*
X1178431Y572393D01*
X1177441Y571403D01*
X1176905Y570109D01*
Y568709D01*
X1177441Y567415D01*
X1178431Y566425D01*
X1179725Y565889D01*
X1181125D01*
X1182419Y566425D01*
X1183409Y567415D01*
X1183945Y568709D01*
Y570109D01*
X1183409Y571403D01*
X1182419Y572393D01*
X1181125Y572929D01*
D02*
G37*
G36*
X1194760Y569095D02*
X1193360D01*
X1192066Y568559D01*
X1191076Y567569D01*
X1190540Y566275D01*
Y564875D01*
X1191076Y563581D01*
X1192066Y562591D01*
X1193360Y562055D01*
X1194760D01*
X1196054Y562591D01*
X1197044Y563581D01*
X1197580Y564875D01*
Y566275D01*
X1197044Y567569D01*
X1196054Y568559D01*
X1194760Y569095D01*
D02*
G37*
G36*
X1139500Y563824D02*
X1136500D01*
X1135642Y563654D01*
X1138000Y561296D01*
X1140358Y563654D01*
X1139500Y563824D01*
D02*
G37*
G36*
X1113895Y574105D02*
X1112495D01*
X1111201Y573569D01*
X1110211Y572579D01*
X1109675Y571285D01*
Y569885D01*
X1110211Y568591D01*
X1111126Y567676D01*
X1111208Y567501D01*
X1111297Y566187D01*
X1110663Y565554D01*
X1110127Y564260D01*
Y562860D01*
X1110663Y561566D01*
X1111654Y560576D01*
X1112947Y560040D01*
X1114348D01*
X1115641Y560576D01*
X1116632Y561566D01*
X1117168Y562860D01*
Y564260D01*
X1116632Y565554D01*
X1115716Y566469D01*
X1115635Y566644D01*
X1115546Y567958D01*
X1116179Y568591D01*
X1116715Y569885D01*
Y571285D01*
X1116179Y572579D01*
X1115189Y573569D01*
X1113895Y574105D01*
D02*
G37*
G36*
X1166158Y580741D02*
X1164757D01*
X1163464Y580205D01*
X1162473Y579215D01*
X1161937Y577921D01*
Y576520D01*
X1162473Y575227D01*
X1162898Y574803D01*
X1162954Y574717D01*
X1163039Y574661D01*
X1163464Y574236D01*
X1163756Y574115D01*
X1164054Y572617D01*
X1163723Y572286D01*
X1163187Y570993D01*
Y569592D01*
X1163723Y568299D01*
X1163844Y568178D01*
X1163512Y566714D01*
X1162920Y566469D01*
X1161930Y565479D01*
X1161394Y564185D01*
Y562785D01*
X1161930Y561491D01*
X1162920Y560501D01*
X1164214Y559965D01*
X1165614D01*
X1166908Y560501D01*
X1167898Y561491D01*
X1168434Y562785D01*
Y564185D01*
X1167898Y565479D01*
X1167778Y565599D01*
X1168110Y567063D01*
X1168701Y567308D01*
X1169692Y568299D01*
X1170228Y569592D01*
Y570993D01*
X1169692Y572286D01*
X1168701Y573277D01*
X1168409Y573398D01*
X1168111Y574896D01*
X1168442Y575227D01*
X1168978Y576520D01*
Y577921D01*
X1168442Y579215D01*
X1167451Y580205D01*
X1166158Y580741D01*
D02*
G37*
G36*
X1142154Y561858D02*
X1138898Y558602D01*
X1138000Y559500D01*
X1137102Y558602D01*
X1133846Y561858D01*
X1133676Y561000D01*
Y555000D01*
X1133846Y554142D01*
X1137102Y557398D01*
X1138000Y556500D01*
X1138898Y557398D01*
X1142154Y554142D01*
X1142324Y555000D01*
Y561000D01*
X1142154Y561858D01*
D02*
G37*
G36*
X1454643Y560462D02*
X1453242D01*
X1451949Y559927D01*
X1450958Y558936D01*
X1450423Y557643D01*
Y556242D01*
X1450958Y554949D01*
X1451949Y553958D01*
X1453242Y553423D01*
X1454643D01*
X1455936Y553958D01*
X1456927Y554949D01*
X1457462Y556242D01*
Y557643D01*
X1456927Y558936D01*
X1455936Y559927D01*
X1454643Y560462D01*
D02*
G37*
G36*
X1138000Y554704D02*
X1135642Y552346D01*
X1136500Y552176D01*
X1139500D01*
X1140358Y552346D01*
X1138000Y554704D01*
D02*
G37*
G36*
X1176987Y556020D02*
X1175587D01*
X1174293Y555485D01*
X1173303Y554494D01*
X1172767Y553201D01*
Y551800D01*
X1173303Y550507D01*
X1174293Y549516D01*
X1175587Y548980D01*
X1176987D01*
X1178281Y549516D01*
X1179271Y550507D01*
X1179807Y551800D01*
Y553201D01*
X1179271Y554494D01*
X1178281Y555485D01*
X1176987Y556020D01*
D02*
G37*
G36*
X1028730Y574174D02*
Y548226D01*
X1041704Y561200D01*
X1028730Y574174D01*
D02*
G37*
G36*
X1061270Y574174D02*
X1048296Y561200D01*
X1061270Y548226D01*
Y574174D01*
D02*
G37*
G36*
X1114700Y552580D02*
X1113300D01*
X1112006Y552044D01*
X1111016Y551054D01*
X1110480Y549760D01*
Y548360D01*
X1111016Y547066D01*
X1112006Y546076D01*
X1113300Y545540D01*
X1114700D01*
X1115994Y546076D01*
X1116984Y547066D01*
X1117520Y548360D01*
Y549760D01*
X1116984Y551054D01*
X1115994Y552044D01*
X1114700Y552580D01*
D02*
G37*
G36*
X1221440Y544763D02*
X1220829Y543849D01*
X1220362Y541500D01*
X1220829Y539151D01*
X1221440Y538237D01*
X1224704Y541500D01*
X1221440Y544763D01*
D02*
G37*
G36*
X1271440Y544763D02*
X1270829Y543849D01*
X1270362Y541500D01*
X1270829Y539151D01*
X1271441Y538237D01*
X1274704Y541500D01*
X1271440Y544763D01*
D02*
G37*
G36*
X1234560Y544764D02*
X1231296Y541500D01*
X1234559Y538236D01*
X1235171Y539151D01*
X1235638Y541500D01*
X1235171Y543849D01*
X1234560Y544764D01*
D02*
G37*
G36*
X1284560Y544764D02*
X1281296Y541500D01*
X1284559Y538236D01*
X1285171Y539151D01*
X1285638Y541500D01*
X1285171Y543849D01*
X1284560Y544764D01*
D02*
G37*
G36*
X1229500Y547638D02*
X1226500D01*
X1224151Y547171D01*
X1223236Y546559D01*
X1227398Y542398D01*
X1226500Y541500D01*
X1227398Y540602D01*
X1223236Y536441D01*
X1224151Y535829D01*
X1226500Y535362D01*
X1229500D01*
X1231849Y535829D01*
X1232764Y536440D01*
X1228602Y540602D01*
X1229500Y541500D01*
X1228602Y542398D01*
X1232764Y546560D01*
X1231849Y547171D01*
X1229500Y547638D01*
D02*
G37*
G36*
X1279500Y547638D02*
X1276500D01*
X1274151Y547171D01*
X1273236Y546559D01*
X1277398Y542398D01*
X1276500Y541500D01*
X1277398Y540602D01*
X1273236Y536440D01*
X1274151Y535829D01*
X1276500Y535362D01*
X1279500D01*
X1281849Y535829D01*
X1282763Y536440D01*
X1278602Y540602D01*
X1279500Y541500D01*
X1278602Y542398D01*
X1282764Y546560D01*
X1281849Y547171D01*
X1279500Y547638D01*
D02*
G37*
G36*
X1067555Y532770D02*
X1065245D01*
X1063015Y532172D01*
X1061119Y531077D01*
X1066400Y525796D01*
X1071681Y531077D01*
X1069785Y532172D01*
X1067555Y532770D01*
D02*
G37*
G36*
X1197593Y523540D02*
X1195607D01*
X1193690Y523026D01*
X1191970Y522034D01*
X1191095Y521158D01*
X1190250Y520774D01*
X1189405Y521158D01*
X1188530Y522034D01*
X1186810Y523026D01*
X1184893Y523540D01*
X1182907D01*
X1180990Y523026D01*
X1179270Y522034D01*
X1178395Y521158D01*
X1177550Y520774D01*
X1176705Y521158D01*
X1175830Y522034D01*
X1174110Y523026D01*
X1172193Y523540D01*
X1170207D01*
X1168290Y523026D01*
X1166570Y522034D01*
X1165695Y521158D01*
X1164850Y520774D01*
X1164005Y521158D01*
X1163130Y522034D01*
X1161410Y523026D01*
X1159493Y523540D01*
X1157507D01*
X1155590Y523026D01*
X1153870Y522034D01*
X1152995Y521158D01*
X1152150Y520774D01*
X1151305Y521158D01*
X1150430Y522034D01*
X1148710Y523026D01*
X1146793Y523540D01*
X1144807D01*
X1142890Y523026D01*
X1141170Y522034D01*
X1140295Y521158D01*
X1139450Y520774D01*
X1138605Y521158D01*
X1137730Y522034D01*
X1136010Y523026D01*
X1134093Y523540D01*
X1132107D01*
X1130190Y523026D01*
X1128470Y522034D01*
X1127595Y521158D01*
X1126750Y520774D01*
X1125905Y521158D01*
X1125030Y522034D01*
X1123310Y523026D01*
X1121393Y523540D01*
X1119407D01*
X1117490Y523026D01*
X1115770Y522034D01*
X1114895Y521158D01*
X1114050Y520774D01*
X1113205Y521158D01*
X1112330Y522034D01*
X1110610Y523026D01*
X1108693Y523540D01*
X1106707D01*
X1104790Y523026D01*
X1103810Y522461D01*
X1102540Y523194D01*
Y523540D01*
X1087460D01*
Y508460D01*
X1102540D01*
Y508806D01*
X1103810Y509539D01*
X1104790Y508974D01*
X1106707Y508460D01*
X1108693D01*
X1110610Y508974D01*
X1112330Y509967D01*
X1113205Y510842D01*
X1114050Y511226D01*
X1114895Y510842D01*
X1115770Y509967D01*
X1117490Y508974D01*
X1119407Y508460D01*
X1121393D01*
X1123310Y508974D01*
X1125030Y509967D01*
X1125905Y510842D01*
X1126750Y511226D01*
X1127595Y510842D01*
X1128470Y509967D01*
X1130190Y508974D01*
X1132107Y508460D01*
X1134093D01*
X1136010Y508974D01*
X1137730Y509967D01*
X1138605Y510842D01*
X1139450Y511226D01*
X1140295Y510842D01*
X1141170Y509967D01*
X1142890Y508974D01*
X1144807Y508460D01*
X1146793D01*
X1148710Y508974D01*
X1150430Y509967D01*
X1151305Y510842D01*
X1152150Y511226D01*
X1152995Y510842D01*
X1153870Y509967D01*
X1155590Y508974D01*
X1157507Y508460D01*
X1159493D01*
X1161410Y508974D01*
X1163130Y509967D01*
X1164005Y510842D01*
X1164850Y511226D01*
X1165695Y510842D01*
X1166570Y509967D01*
X1168290Y508974D01*
X1170207Y508460D01*
X1172193D01*
X1174110Y508974D01*
X1175830Y509967D01*
X1176705Y510842D01*
X1177550Y511226D01*
X1178395Y510842D01*
X1179270Y509967D01*
X1180990Y508974D01*
X1182907Y508460D01*
X1184893D01*
X1186810Y508974D01*
X1188530Y509967D01*
X1189405Y510842D01*
X1190250Y511226D01*
X1191095Y510842D01*
X1191970Y509967D01*
X1193690Y508974D01*
X1195607Y508460D01*
X1197593D01*
X1199510Y508974D01*
X1201230Y509967D01*
X1202634Y511370D01*
X1203626Y513090D01*
X1204140Y515007D01*
Y516993D01*
X1203626Y518910D01*
X1202634Y520630D01*
X1201230Y522034D01*
X1199510Y523026D01*
X1197593Y523540D01*
D02*
G37*
G36*
X1218000Y523633D02*
X1215749Y523185D01*
X1214917Y522629D01*
X1218000Y519546D01*
X1221083Y522629D01*
X1220251Y523185D01*
X1218000Y523633D01*
D02*
G37*
G36*
X1288000D02*
X1285749Y523185D01*
X1284917Y522629D01*
X1288000Y519546D01*
X1291083Y522629D01*
X1290251Y523185D01*
X1288000Y523633D01*
D02*
G37*
G36*
X1073477Y529281D02*
X1068196Y524000D01*
X1073477Y518719D01*
X1074572Y520615D01*
X1075170Y522845D01*
Y525155D01*
X1074572Y527385D01*
X1073477Y529281D01*
D02*
G37*
G36*
X1059323Y529281D02*
X1058228Y527385D01*
X1057630Y525155D01*
Y522845D01*
X1058228Y520615D01*
X1059323Y518719D01*
X1064604Y524000D01*
X1059323Y529281D01*
D02*
G37*
G36*
X1468025Y523529D02*
X1464496Y520000D01*
X1468025Y516471D01*
X1468970Y518753D01*
Y521247D01*
X1468025Y523529D01*
D02*
G37*
G36*
X1066400Y522204D02*
X1061119Y516922D01*
X1063015Y515828D01*
X1065245Y515230D01*
X1067555D01*
X1069785Y515828D01*
X1071681Y516922D01*
X1066400Y522204D01*
D02*
G37*
G36*
X1051040Y534040D02*
X1030960D01*
Y513960D01*
X1051040D01*
Y534040D01*
D02*
G37*
G36*
X1213121Y520833D02*
X1212565Y520001D01*
X1212117Y517750D01*
Y511250D01*
X1212565Y508999D01*
X1213121Y508167D01*
X1217102Y512148D01*
X1218000Y511250D01*
X1218898Y512148D01*
X1222879Y508167D01*
X1223435Y508999D01*
X1223883Y511250D01*
Y517750D01*
X1223435Y520001D01*
X1222879Y520833D01*
X1218898Y516852D01*
X1218000Y517750D01*
X1217102Y516852D01*
X1213121Y520833D01*
D02*
G37*
G36*
X1283121D02*
X1282565Y520001D01*
X1282117Y517750D01*
Y511250D01*
X1282565Y508999D01*
X1283121Y508167D01*
X1287102Y512148D01*
X1288000Y511250D01*
X1288898Y512148D01*
X1292879Y508167D01*
X1293435Y508999D01*
X1293883Y511250D01*
Y517750D01*
X1293435Y520001D01*
X1292879Y520833D01*
X1288898Y516852D01*
X1288000Y517750D01*
X1287102Y516852D01*
X1283121Y520833D01*
D02*
G37*
G36*
X1288000Y509454D02*
X1284917Y506371D01*
X1285749Y505815D01*
X1288000Y505367D01*
X1290251Y505815D01*
X1291083Y506371D01*
X1288000Y509454D01*
D02*
G37*
G36*
X1218000Y509454D02*
X1214917Y506371D01*
X1215749Y505815D01*
X1218000Y505367D01*
X1220251Y505815D01*
X1221083Y506371D01*
X1218000Y509454D01*
D02*
G37*
G36*
X825234Y510251D02*
Y508432D01*
X826513D01*
X825234Y510251D01*
D02*
G37*
G36*
X1493234Y742251D02*
Y740432D01*
X1494513D01*
X1493234Y742251D01*
D02*
G37*
%LPD*%
D13*
X1103500Y617043D02*
X1109770Y623312D01*
X1126335D01*
X1131708Y617940D01*
Y609292D02*
Y617940D01*
X1103500Y615542D02*
Y617043D01*
X1045000Y561200D02*
Y583000D01*
X1047500Y585500D01*
X1063600D01*
X1072000Y616244D02*
Y620764D01*
X1075353Y624117D01*
Y624647D01*
X1079012Y590500D02*
X1081842Y593330D01*
Y615793D01*
X1397230Y630018D02*
X1400780Y633568D01*
X1397230Y624998D02*
X1400780Y621448D01*
X1404552D01*
X1401000Y633568D02*
Y645000D01*
X1404552Y621448D02*
X1406000Y620000D01*
X1397230Y624998D02*
Y630018D01*
X1400780Y633568D02*
X1401000D01*
X1344000Y567000D02*
X1393000Y616000D01*
X1356000Y594000D02*
Y595995D01*
X1370002Y609997D01*
X1456000Y611020D02*
Y613000D01*
X1448000Y600000D02*
Y613000D01*
X1406000Y591000D02*
X1450000Y547000D01*
Y520000D02*
Y547000D01*
X1357463Y548791D02*
Y568847D01*
X1074324Y601968D02*
X1074698Y602343D01*
X1074324Y599099D02*
Y601968D01*
X1070954Y595730D02*
X1074324Y599099D01*
X1063600Y615500D02*
X1071256D01*
X1072000Y616244D01*
X1056245Y605730D02*
X1063370D01*
X1055975Y606000D02*
X1056245Y605730D01*
X1051000Y606000D02*
X1055975D01*
X1063370Y605730D02*
X1063600Y605500D01*
X1052000Y596060D02*
X1052036D01*
X1056245Y600270D01*
X1063370D01*
X1063600Y600500D01*
Y595500D02*
X1063830Y595730D01*
X1070954D01*
X1063600Y590500D02*
X1079012D01*
X1134000Y582500D02*
X1134500Y583000D01*
X1134000Y583500D02*
X1134500Y583000D01*
X1131708Y609117D02*
X1134000Y606825D01*
X1131708Y609117D02*
Y609292D01*
X1134000Y583500D02*
Y606825D01*
X1219790Y645360D02*
X1230993Y634157D01*
Y625511D02*
Y634157D01*
Y625511D02*
X1242052Y614452D01*
X1249452D02*
X1250000Y615000D01*
X1242052Y614452D02*
X1249452D01*
X1357000Y569311D02*
X1357463Y568847D01*
X1357000Y569311D02*
Y569841D01*
X1239000Y567000D02*
X1344000D01*
X1370002Y609997D02*
X1371503D01*
X1302000Y722000D02*
X1339470D01*
X1342470Y725000D01*
X761626Y615376D02*
X765376D01*
X769500Y619500D02*
X771000D01*
X765376Y615376D02*
X769500Y619500D01*
X761251Y615001D02*
X761626Y615376D01*
X1342470Y725000D02*
X1343000D01*
X1316547Y641953D02*
Y648672D01*
Y641953D02*
X1321154Y637346D01*
X1318818Y687940D02*
X1325000D01*
X1316758Y690000D02*
X1318818Y687940D01*
X1331270Y694210D02*
Y709526D01*
X1325060Y688000D02*
X1331270Y694210D01*
X1293000Y690000D02*
X1316758D01*
X1319760Y681610D02*
X1353766D01*
X1285940Y686060D02*
X1315310D01*
X1319760Y681610D01*
X1358253Y686987D02*
X1362878Y691612D01*
Y705719D01*
X1370000Y705802D02*
X1370258Y706060D01*
X1362878Y705719D02*
X1363218Y706060D01*
X1370000Y678886D02*
Y705802D01*
X1304420Y696060D02*
X1316540D01*
X1324498Y618503D02*
Y624500D01*
X1345748Y610500D02*
X1348000D01*
X1345035Y611213D02*
Y613465D01*
X1323776Y637346D02*
X1332267Y628854D01*
Y626232D02*
Y628854D01*
X1345035Y611213D02*
X1345748Y610500D01*
X1321154Y637346D02*
X1323776D01*
X1332267Y626232D02*
X1345035Y613465D01*
X1087500Y687995D02*
X1129995D01*
X1114502Y711497D02*
X1123000Y703000D01*
X1087500Y711497D02*
X1114502D01*
X1378500Y630500D02*
X1393000Y616000D01*
X1147500Y658500D02*
X1239000Y567000D01*
X1033988Y658500D02*
X1147500D01*
X1032500Y659988D02*
Y711000D01*
Y659988D02*
X1033988Y658500D01*
X1072500Y711497D02*
Y735000D01*
Y687995D02*
Y711497D01*
X1047500Y711000D02*
X1047749Y711249D01*
X1072251D01*
X1072500Y711497D01*
X764000Y628000D02*
X787000D01*
X725312Y604230D02*
X740230D01*
X764000Y628000D01*
X787000D02*
X795500Y619500D01*
X797000D01*
X724208Y595207D02*
Y605335D01*
X725312Y604230D01*
X719043Y610500D02*
X724208Y605335D01*
X719043Y610500D02*
Y612000D01*
X759197Y570627D02*
X771000Y582430D01*
Y604500D01*
X754060Y570252D02*
X754435Y570627D01*
X759197D01*
X771000Y604500D02*
X797000D01*
X1306275Y664774D02*
X1306697Y665197D01*
X1311247D02*
X1311622Y665572D01*
X1306697Y665197D02*
X1311247D01*
X1277428Y665572D02*
X1311622D01*
X1306275Y594725D02*
Y664774D01*
X614000Y574000D02*
X620374D01*
X621861Y575488D01*
Y580432D01*
X613000Y573000D02*
X614000Y574000D01*
X616000Y734000D02*
X652000Y698000D01*
X642150Y675150D02*
X652000Y685000D01*
Y698000D01*
X634793Y675150D02*
X642150D01*
X698000Y661000D02*
X703099Y655901D01*
Y625526D02*
Y655901D01*
X590782Y734000D02*
X591857D01*
X577000Y720218D02*
X590782Y734000D01*
X577000Y703000D02*
X577000Y703000D01*
X577000Y703000D02*
Y720218D01*
X601285Y673285D02*
X604292Y676293D01*
X1267052Y620540D02*
Y638869D01*
X1264970Y640951D02*
X1267052Y638869D01*
X1265564Y619052D02*
X1267052Y620540D01*
X1255573Y619052D02*
X1265564D01*
X1306275Y594725D02*
X1314415Y586585D01*
X1264043Y661707D02*
X1264970Y660780D01*
Y640951D02*
Y660780D01*
X1253230Y621395D02*
X1255573Y619052D01*
X1253230Y621395D02*
Y622520D01*
X1250000Y625750D02*
Y627750D01*
Y625750D02*
X1253230Y622520D01*
X1378500Y630500D02*
Y644221D01*
X1371942Y645934D02*
X1376788D01*
X1371567Y646309D02*
X1371942Y645934D01*
X1376788D02*
X1378500Y644221D01*
X621861Y580432D02*
X629180Y587750D01*
X654500Y573500D02*
Y575132D01*
Y583500D01*
X599000Y573000D02*
X613000D01*
X629180Y587750D02*
X650250D01*
X1424000Y637000D02*
X1424000Y637000D01*
X1424000Y637000D02*
Y644512D01*
X1432000Y637000D02*
Y643000D01*
X1429000Y646000D02*
X1432000Y643000D01*
X703252Y619466D02*
Y625373D01*
X703099Y625526D02*
X703252Y625373D01*
Y619466D02*
X704500Y618218D01*
Y612000D02*
Y618218D01*
X689500Y586457D02*
Y595500D01*
X704500Y610500D01*
X689500Y577500D02*
Y586457D01*
X685500Y573500D02*
X689500Y577500D01*
X664542Y573500D02*
X685500D01*
X645007Y575625D02*
X645537D01*
X650250Y587750D02*
X654500Y583500D01*
X620422Y535591D02*
X626770D01*
X628500Y537321D02*
Y537957D01*
X626770Y535591D02*
X628500Y537321D01*
X585343Y636193D02*
X585665Y636515D01*
X592500Y594000D02*
Y635000D01*
X592500Y664500D02*
X601285Y673285D01*
X585665Y636515D02*
Y639197D01*
X587488Y641020D01*
X586000Y642508D02*
X587488Y641020D01*
X637440Y665000D02*
X639043D01*
Y665368D01*
X624603Y682602D02*
X625000Y683000D01*
X624107Y682602D02*
X624603D01*
X637440Y665000D02*
Y671970D01*
X638223D01*
X635042Y675150D02*
X638223Y671970D01*
X1270000Y736000D02*
X1281000Y725000D01*
X1154077Y736000D02*
X1270000D01*
X1281000Y702000D02*
Y725000D01*
X1131038Y712962D02*
X1154077Y736000D01*
X1281000Y702000D02*
X1293000Y690000D01*
X1249500Y724792D02*
X1256600Y717692D01*
Y703500D02*
Y717692D01*
X1249500Y724792D02*
Y726292D01*
X1268629Y674371D02*
X1277428Y665572D01*
X1353766Y681610D02*
X1380376Y655000D01*
X1378500Y669853D02*
X1378546Y669899D01*
X1379575D01*
X1378500Y669000D02*
Y669853D01*
X1348000Y624500D02*
Y631000D01*
X1256600Y684500D02*
X1259100D01*
X1268629Y674971D01*
Y674371D02*
Y674971D01*
X1268500Y703500D02*
X1285940Y686060D01*
X1256600Y703500D02*
X1268500D01*
X1299000Y657500D02*
X1299500Y657000D01*
X1234500Y661707D02*
X1249043D01*
X1234500Y661708D02*
X1234500Y661707D01*
X1249043D02*
Y674958D01*
X1249000Y675000D02*
X1249043Y674958D01*
X1229000Y681000D02*
Y684200D01*
X1228700Y684500D02*
X1229000Y684200D01*
Y681000D02*
X1235000Y675000D01*
X1249000D01*
X1253370Y679370D01*
X1254100Y684500D02*
X1256600D01*
X1253370Y683770D02*
X1254100Y684500D01*
X1253370Y679370D02*
Y683770D01*
X1250000Y600250D02*
Y615000D01*
X586000Y642508D02*
X592500Y649008D01*
Y664500D01*
Y635000D02*
Y636500D01*
X587488Y641020D02*
X587980D01*
X592500Y636500D01*
Y635000D02*
X592500Y635000D01*
X627163Y683471D02*
X634543Y690850D01*
X634793D01*
X625471Y683471D02*
X627163D01*
X625000Y683000D02*
X625471Y683471D01*
X592500Y579500D02*
Y594000D01*
X654500Y573500D02*
X664542D01*
X1406000Y591000D02*
Y620000D01*
X1401000Y645000D02*
X1406500Y650500D01*
X1411000Y646000D01*
X1425488D01*
X1402000Y655000D02*
X1406500Y650500D01*
X1380376Y655000D02*
X1402000D01*
X1425488Y646000D02*
X1429000D01*
X1424000Y644512D02*
X1425488Y646000D01*
X1234957Y726292D02*
X1249500D01*
X592500Y579500D02*
X599000Y573000D01*
X613000Y676293D02*
X633650D01*
X634793Y675150D01*
X604292Y676293D02*
X613000D01*
X704500Y610500D02*
Y612000D01*
X719043D01*
D14*
X734043D02*
Y624264D01*
X1440000Y613000D02*
Y623324D01*
X1439000Y624324D02*
X1440000Y623324D01*
X1439000Y624324D02*
Y625000D01*
X1198000Y724000D02*
X1211650Y710350D01*
X1242650D01*
Y694000D02*
Y710350D01*
X1264500Y716500D02*
Y726292D01*
D15*
X1164124Y589919D02*
X1164250Y590045D01*
X1089000Y573000D02*
X1118500Y602500D01*
Y615542D01*
X1082000Y573000D02*
X1089000D01*
X1125768Y568659D02*
Y569000D01*
X1123000Y565891D02*
X1125768Y568659D01*
X1123000Y547000D02*
Y565891D01*
X1074500Y580500D02*
X1082000Y573000D01*
X1063600Y580500D02*
X1074500D01*
X1382000Y536000D02*
X1393000Y547000D01*
X1355000Y536000D02*
X1382000D01*
X1345275Y545726D02*
X1355000Y536000D01*
X1345275Y545726D02*
Y556152D01*
X1340427Y561000D02*
X1345275Y556152D01*
X1231000Y561000D02*
X1340427D01*
X1163000Y629000D02*
X1231000Y561000D01*
X1098000Y629000D02*
X1163000D01*
X1091000Y622000D02*
X1098000Y629000D01*
X1080378Y622000D02*
X1091000D01*
X1076417Y618040D02*
X1080378Y622000D01*
X1073756Y610500D02*
X1076417Y613162D01*
X1063600Y610500D02*
X1073756D01*
X1076417Y613162D02*
Y618040D01*
X1220545Y555545D02*
X1338210D01*
X1338214Y555541D01*
X1456000Y637000D02*
X1456000Y637000D01*
X1456000Y637000D02*
Y645000D01*
X1447000Y628000D02*
X1460000D01*
X1440000Y635000D02*
X1447000Y628000D01*
X1440000Y635000D02*
Y637000D01*
X1123000Y547000D02*
X1128000Y542000D01*
X1207000D01*
X1220545Y555545D01*
X1370471Y624997D02*
X1371503D01*
X1368172Y621666D02*
Y622698D01*
X1367617Y621113D02*
X1368172Y621666D01*
X1367000Y617788D02*
X1367617Y618405D01*
X1368172Y622698D02*
X1370471Y624997D01*
X1367617Y618405D02*
Y621113D01*
X1087500Y735000D02*
X1122000D01*
X823000Y514000D02*
X827256D01*
X823000Y504000D02*
X827256D01*
X828000Y504744D01*
X827256Y514000D02*
X828000Y513256D01*
Y504744D02*
Y513256D01*
X809000Y504744D02*
Y513256D01*
X809744Y514000D02*
X813000D01*
X818000Y504000D02*
X823000D01*
X813000D02*
X818000D01*
X809000Y513256D02*
X809744Y514000D01*
X818000D02*
X823000D01*
X813000D02*
X818000D01*
X809000Y504744D02*
X809744Y504000D01*
X813000D01*
X818000Y507000D02*
Y513500D01*
Y504500D02*
Y507000D01*
X813000Y504000D02*
Y514000D01*
X823000Y504000D02*
Y514000D01*
X1491000Y736000D02*
Y746000D01*
X1481000Y736000D02*
Y746000D01*
X1486000Y736500D02*
Y739000D01*
Y745500D01*
X1477744Y736000D02*
X1481000D01*
X1477000Y736744D02*
X1477744Y736000D01*
X1481000Y746000D02*
X1486000D01*
X1491000D01*
X1477000Y745256D02*
X1477744Y746000D01*
X1481000Y736000D02*
X1486000D01*
X1491000D01*
X1477744Y746000D02*
X1481000D01*
X1477000Y736744D02*
Y745256D01*
X1496000Y736744D02*
Y745256D01*
X1495256Y746000D02*
X1496000Y745256D01*
X1495256Y736000D02*
X1496000Y736744D01*
X1491000Y736000D02*
X1495256D01*
X1491000Y746000D02*
X1495256D01*
X1386163Y687670D02*
Y722837D01*
X1364365Y744635D02*
X1386163Y722837D01*
X1317000Y737000D02*
X1324635Y744635D01*
X1364365D01*
X1174854Y583146D02*
X1175000Y583000D01*
X1174226Y590039D02*
X1175100D01*
X1165244Y577006D02*
X1165458Y577221D01*
X1164995Y563566D02*
Y563792D01*
X1164914Y563485D02*
X1164995Y563566D01*
X1244365Y594159D02*
X1244365D01*
X1245909Y592615D02*
X1247433D01*
X1244365Y594159D02*
X1245909Y592615D01*
X1248177Y588127D02*
Y591871D01*
X1247433Y592615D02*
X1248177Y591871D01*
X1245764Y584994D02*
Y585714D01*
X1248177Y588127D01*
X1242865Y595659D02*
X1244365Y594159D01*
X1242865Y595659D02*
Y597885D01*
X1240500Y600250D02*
X1242865Y597885D01*
X1250717Y587713D02*
X1252804Y585627D01*
Y585081D02*
Y585627D01*
X1250717Y587713D02*
Y591871D01*
X1251461Y592615D01*
X1254091D01*
X1257135Y595658D01*
Y597885D02*
X1259500Y600250D01*
X1257135Y595658D02*
Y597885D01*
X1256700Y641000D02*
X1257135Y640565D01*
Y630115D02*
X1259500Y627750D01*
X1257135Y630115D02*
Y640565D01*
X1240500Y637500D02*
X1244000Y641000D01*
X1240500Y627750D02*
Y637500D01*
X755669Y645294D02*
X756700D01*
Y641000D02*
Y645294D01*
X745565Y655398D02*
X755669Y645294D01*
D21*
X1331270Y709526D02*
D03*
X1350270D02*
D03*
X1301500Y652000D02*
D03*
X1282500D02*
D03*
D43*
X1371503Y609997D02*
D03*
X797000Y604500D02*
D03*
X771000Y619500D02*
D03*
X1324498Y624500D02*
D03*
X613000Y676293D02*
D03*
Y573000D02*
D03*
X664542Y573500D02*
D03*
X1348000Y624500D02*
D03*
D44*
X1371503Y624997D02*
D03*
X797000Y619500D02*
D03*
X771000Y604500D02*
D03*
X1324498Y609500D02*
D03*
X613000Y691292D02*
D03*
Y558000D02*
D03*
X664542Y558500D02*
D03*
X1348000Y609500D02*
D03*
D45*
X1118500Y615542D02*
D03*
X1123000Y558000D02*
D03*
X1134500Y583000D02*
D03*
X1087500Y687995D02*
D03*
X1032500Y711000D02*
D03*
X1087500Y711497D02*
D03*
Y735000D02*
D03*
X1378500Y669000D02*
D03*
X1393500Y643000D02*
D03*
X1264043Y661707D02*
D03*
X1219500Y661708D02*
D03*
X1264500Y726292D02*
D03*
X1219957D02*
D03*
X628500Y537957D02*
D03*
X592500Y635000D02*
D03*
X592500Y594000D02*
D03*
X719043Y612000D02*
D03*
X704500D02*
D03*
X689500Y586457D02*
D03*
X592500Y663000D02*
D03*
D46*
X1103500Y615542D02*
D03*
X1138000Y558000D02*
D03*
X1119500Y583000D02*
D03*
X1072500Y687995D02*
D03*
X1047500Y711000D02*
D03*
X1072500Y711497D02*
D03*
Y735000D02*
D03*
X1393500Y669000D02*
D03*
X1378500Y643000D02*
D03*
X1249043Y661707D02*
D03*
X1234500Y661708D02*
D03*
X1249500Y726292D02*
D03*
X1234957D02*
D03*
X643500Y537957D02*
D03*
X577500Y635000D02*
D03*
X577500Y594000D02*
D03*
X734043Y612000D02*
D03*
X689500D02*
D03*
X704500Y586457D02*
D03*
X577500Y663000D02*
D03*
D92*
X1218000Y514500D02*
D03*
X1288000D02*
D03*
D93*
X1228000Y541500D02*
D03*
X1278000Y541500D02*
D03*
D94*
X617257Y734000D02*
D03*
X1041000Y524000D02*
D03*
D95*
X591857Y734000D02*
D03*
X566457D02*
D03*
X541058D02*
D03*
X515658D02*
D03*
X1432000Y694000D02*
D03*
X1066400Y524000D02*
D03*
D96*
X1432000Y719400D02*
D03*
D97*
X696600Y516000D02*
D03*
X683900D02*
D03*
X671200D02*
D03*
X658500D02*
D03*
X645800D02*
D03*
X633100D02*
D03*
X620400D02*
D03*
X607700D02*
D03*
X756700Y641000D02*
D03*
X823700Y737000D02*
D03*
X836400D02*
D03*
X962700Y520000D02*
D03*
X1107700Y516000D02*
D03*
X1120400D02*
D03*
X1133100D02*
D03*
X1145800D02*
D03*
X1158500D02*
D03*
X1171200D02*
D03*
X1183900D02*
D03*
X1196600D02*
D03*
X1342400Y737000D02*
D03*
X1329700D02*
D03*
X1462700Y520000D02*
D03*
X1256700Y641000D02*
D03*
D98*
X595000Y516000D02*
D03*
X744000Y641000D02*
D03*
X811000Y737000D02*
D03*
X950000Y520000D02*
D03*
X1095000Y516000D02*
D03*
X1317000Y737000D02*
D03*
X1450000Y520000D02*
D03*
X1244000Y641000D02*
D03*
D99*
X788000Y530000D02*
D03*
Y570000D02*
D03*
D100*
X1164250Y590045D02*
D03*
X1113648Y563560D02*
D03*
X1125768Y569000D02*
D03*
X1194060Y565575D02*
D03*
X1180425Y569409D02*
D03*
X1111710Y581000D02*
D03*
X1393000Y547000D02*
D03*
X1075353Y624647D02*
D03*
X1081842Y615793D02*
D03*
X1403290Y627508D02*
D03*
X1406000Y620000D02*
D03*
X1393000Y616000D02*
D03*
X1113195Y570585D02*
D03*
X1338214Y555541D02*
D03*
X1356000Y594000D02*
D03*
X1456000Y645000D02*
D03*
X1460000Y628000D02*
D03*
X1456000Y611020D02*
D03*
X1448000Y600000D02*
D03*
X1453943Y556942D02*
D03*
X1357463Y548791D02*
D03*
X1146000Y602450D02*
D03*
X1074698Y602343D02*
D03*
X1084293Y583293D02*
D03*
X1051000Y606000D02*
D03*
X1052000Y596060D02*
D03*
X1217420Y620925D02*
D03*
X1143776Y613300D02*
D03*
X1357000Y569841D02*
D03*
X1377453Y548424D02*
D03*
X1350700Y557910D02*
D03*
X1131038Y712962D02*
D03*
X1367000Y617788D02*
D03*
X1343000Y725000D02*
D03*
X1316547Y648672D02*
D03*
X993751Y615001D02*
D03*
X990001Y607501D02*
D03*
X993751Y600001D02*
D03*
X990001Y592501D02*
D03*
X993751Y585001D02*
D03*
X990001Y577501D02*
D03*
X993751Y570001D02*
D03*
X990001Y562501D02*
D03*
X993751Y555001D02*
D03*
X990001Y547501D02*
D03*
X993751Y540001D02*
D03*
X990001Y532501D02*
D03*
X993751Y525001D02*
D03*
X990001Y517501D02*
D03*
X993751Y510001D02*
D03*
X986251Y615001D02*
D03*
X982501Y607501D02*
D03*
X986251Y600001D02*
D03*
X982501Y592501D02*
D03*
X986251Y585001D02*
D03*
X982501Y577501D02*
D03*
X986251Y570001D02*
D03*
X982501Y562501D02*
D03*
X986251Y555001D02*
D03*
X982501Y547501D02*
D03*
X986251Y540001D02*
D03*
X982501Y532501D02*
D03*
X986251Y525001D02*
D03*
X982501Y517501D02*
D03*
X986251Y510001D02*
D03*
X978751Y615001D02*
D03*
X975001Y607501D02*
D03*
X978751Y600001D02*
D03*
X975001Y592501D02*
D03*
X978751Y585001D02*
D03*
X975001Y577501D02*
D03*
X978751Y570001D02*
D03*
X975001Y562501D02*
D03*
X978751Y555001D02*
D03*
X975001Y547501D02*
D03*
X978751Y540001D02*
D03*
X975001Y532501D02*
D03*
X978751Y525001D02*
D03*
X975001Y517501D02*
D03*
X978751Y510001D02*
D03*
X971251Y615001D02*
D03*
X967501Y607501D02*
D03*
X971251Y600001D02*
D03*
X967501Y592501D02*
D03*
X971251Y585001D02*
D03*
X967501Y577501D02*
D03*
X971251Y570001D02*
D03*
X967501Y562501D02*
D03*
X971251Y555001D02*
D03*
X967501Y547501D02*
D03*
X971251Y540001D02*
D03*
X967501Y532501D02*
D03*
X971251Y525001D02*
D03*
Y510001D02*
D03*
X963751Y615001D02*
D03*
X960001Y607501D02*
D03*
X963751Y600001D02*
D03*
X960001Y592501D02*
D03*
X963751Y585001D02*
D03*
X960001Y577501D02*
D03*
X963751Y570001D02*
D03*
X960001Y562501D02*
D03*
X963751Y555001D02*
D03*
X960001Y547501D02*
D03*
X963751Y540001D02*
D03*
X960001Y532501D02*
D03*
X963751Y510001D02*
D03*
X956251Y615001D02*
D03*
X952501Y607501D02*
D03*
X956251Y600001D02*
D03*
X952501Y592501D02*
D03*
X956251Y585001D02*
D03*
X952501Y577501D02*
D03*
X956251Y570001D02*
D03*
X952501Y562501D02*
D03*
X956251Y555001D02*
D03*
X952501Y547501D02*
D03*
X956251Y540001D02*
D03*
X952501Y532501D02*
D03*
X956251Y510001D02*
D03*
X948751Y615001D02*
D03*
X945001Y607501D02*
D03*
X948751Y600001D02*
D03*
X945001Y592501D02*
D03*
X948751Y585001D02*
D03*
X945001Y577501D02*
D03*
X948751Y570001D02*
D03*
X945001Y562501D02*
D03*
X948751Y555001D02*
D03*
X945001Y547501D02*
D03*
X948751Y540001D02*
D03*
X945001Y532501D02*
D03*
X948751Y510001D02*
D03*
X941251Y615001D02*
D03*
X937501Y607501D02*
D03*
X941251Y600001D02*
D03*
X937501Y592501D02*
D03*
X941251Y585001D02*
D03*
X937501Y577501D02*
D03*
X941251Y570001D02*
D03*
X937501Y562501D02*
D03*
X941251Y555001D02*
D03*
X937501Y547501D02*
D03*
X941251Y540001D02*
D03*
X937501Y532501D02*
D03*
X941251Y510001D02*
D03*
X933751Y615001D02*
D03*
X930001Y607501D02*
D03*
X933751Y600001D02*
D03*
X930001Y592501D02*
D03*
X933751Y585001D02*
D03*
X930001Y577501D02*
D03*
X933751Y570001D02*
D03*
X930001Y562501D02*
D03*
X933751Y555001D02*
D03*
X930001Y547501D02*
D03*
X933751Y540001D02*
D03*
X930001Y532501D02*
D03*
X933751Y510001D02*
D03*
X926251Y615001D02*
D03*
X922501Y607501D02*
D03*
X926251Y600001D02*
D03*
X922501Y592501D02*
D03*
X926251Y585001D02*
D03*
X922501Y577501D02*
D03*
X926251Y570001D02*
D03*
X922501Y562501D02*
D03*
X926251Y555001D02*
D03*
X922501Y547501D02*
D03*
X926251Y540001D02*
D03*
X922501Y532501D02*
D03*
X926251Y510001D02*
D03*
X918751Y615001D02*
D03*
X915001Y607501D02*
D03*
X918751Y600001D02*
D03*
X915001Y592501D02*
D03*
X918751Y585001D02*
D03*
X915001Y577501D02*
D03*
X918751Y570001D02*
D03*
X915001Y562501D02*
D03*
X918751Y555001D02*
D03*
X915001Y547501D02*
D03*
X918751Y540001D02*
D03*
X915001Y532501D02*
D03*
X918751Y510001D02*
D03*
X911251Y615001D02*
D03*
X907501Y607501D02*
D03*
X911251Y600001D02*
D03*
X907501Y592501D02*
D03*
X911251Y585001D02*
D03*
X907501Y577501D02*
D03*
X911251Y570001D02*
D03*
X907501Y562501D02*
D03*
X911251Y555001D02*
D03*
X907501Y547501D02*
D03*
X911251Y540001D02*
D03*
X907501Y532501D02*
D03*
X911251Y510001D02*
D03*
X900001Y742501D02*
D03*
Y727501D02*
D03*
Y697501D02*
D03*
Y682501D02*
D03*
Y667501D02*
D03*
Y652501D02*
D03*
Y637501D02*
D03*
Y622501D02*
D03*
X903751Y615001D02*
D03*
X900001Y607501D02*
D03*
X903751Y600001D02*
D03*
X900001Y592501D02*
D03*
X903751Y585001D02*
D03*
X900001Y577501D02*
D03*
X903751Y570001D02*
D03*
X900001Y562501D02*
D03*
X903751Y555001D02*
D03*
X900001Y547501D02*
D03*
X903751Y540001D02*
D03*
X900001Y532501D02*
D03*
X903751Y510001D02*
D03*
X892501Y742501D02*
D03*
X896251Y735001D02*
D03*
X892501Y727501D02*
D03*
X896251Y720001D02*
D03*
X892501Y667501D02*
D03*
X896251Y660001D02*
D03*
X892501Y652501D02*
D03*
X896251Y645001D02*
D03*
X892501Y637501D02*
D03*
X896251Y630001D02*
D03*
X892501Y622501D02*
D03*
X896251Y615001D02*
D03*
X892501Y607501D02*
D03*
X896251Y600001D02*
D03*
X892501Y592501D02*
D03*
X896251Y585001D02*
D03*
X892501Y577501D02*
D03*
X896251Y570001D02*
D03*
X892501Y562501D02*
D03*
X896251Y555001D02*
D03*
X892501Y547501D02*
D03*
X896251Y540001D02*
D03*
X892501Y532501D02*
D03*
X896251Y510001D02*
D03*
X885001Y742501D02*
D03*
X888751Y735001D02*
D03*
X885001Y727501D02*
D03*
X888751Y720001D02*
D03*
X885001Y667501D02*
D03*
X888751Y660001D02*
D03*
X885001Y652501D02*
D03*
X888751Y645001D02*
D03*
X885001Y637501D02*
D03*
X888751Y630001D02*
D03*
X885001Y622501D02*
D03*
X888751Y615001D02*
D03*
X885001Y607501D02*
D03*
X888751Y600001D02*
D03*
X885001Y592501D02*
D03*
X888751Y585001D02*
D03*
X885001Y577501D02*
D03*
X888751Y570001D02*
D03*
X885001Y562501D02*
D03*
X888751Y555001D02*
D03*
X885001Y547501D02*
D03*
X888751Y540001D02*
D03*
X885001Y532501D02*
D03*
X888751Y510001D02*
D03*
X877501Y742501D02*
D03*
X881251Y735001D02*
D03*
X877501Y727501D02*
D03*
X881251Y720001D02*
D03*
X877501Y697501D02*
D03*
Y682501D02*
D03*
Y667501D02*
D03*
X881251Y660001D02*
D03*
X877501Y652501D02*
D03*
X881251Y645001D02*
D03*
X877501Y637501D02*
D03*
X881251Y630001D02*
D03*
X877501Y622501D02*
D03*
X881251Y615001D02*
D03*
X877501Y607501D02*
D03*
X881251Y600001D02*
D03*
X877501Y592501D02*
D03*
X881251Y585001D02*
D03*
X877501Y577501D02*
D03*
X881251Y570001D02*
D03*
X877501Y562501D02*
D03*
X881251Y555001D02*
D03*
X877501Y547501D02*
D03*
X881251Y540001D02*
D03*
X877501Y532501D02*
D03*
X881251Y510001D02*
D03*
X870001Y742501D02*
D03*
X873751Y735001D02*
D03*
X870001Y727501D02*
D03*
X873751Y720001D02*
D03*
X870001Y697501D02*
D03*
X873751Y690001D02*
D03*
X870001Y682501D02*
D03*
X873751Y675001D02*
D03*
X870001Y667501D02*
D03*
X873751Y660001D02*
D03*
X870001Y652501D02*
D03*
X873751Y645001D02*
D03*
X870001Y637501D02*
D03*
X873751Y630001D02*
D03*
X870001Y622501D02*
D03*
X873751Y615001D02*
D03*
X870001Y607501D02*
D03*
X873751Y600001D02*
D03*
X870001Y592501D02*
D03*
X873751Y585001D02*
D03*
X870001Y577501D02*
D03*
X873751Y570001D02*
D03*
X870001Y562501D02*
D03*
X873751Y555001D02*
D03*
X870001Y547501D02*
D03*
X873751Y540001D02*
D03*
X870001Y532501D02*
D03*
X873751Y510001D02*
D03*
X862501Y742501D02*
D03*
X866251Y735001D02*
D03*
X862501Y727501D02*
D03*
X866251Y720001D02*
D03*
X862501Y697501D02*
D03*
X866251Y690001D02*
D03*
X862501Y682501D02*
D03*
X866251Y675001D02*
D03*
X862501Y667501D02*
D03*
X866251Y660001D02*
D03*
X862501Y652501D02*
D03*
X866251Y645001D02*
D03*
X862501Y637501D02*
D03*
X866251Y630001D02*
D03*
X862501Y622501D02*
D03*
X866251Y615001D02*
D03*
X862501Y607501D02*
D03*
X866251Y600001D02*
D03*
X862501Y592501D02*
D03*
X866251Y585001D02*
D03*
X862501Y577501D02*
D03*
X866251Y570001D02*
D03*
X862501Y562501D02*
D03*
X866251Y555001D02*
D03*
X862501Y547501D02*
D03*
X866251Y540001D02*
D03*
X862501Y532501D02*
D03*
X866251Y510001D02*
D03*
X855001Y742501D02*
D03*
X858751Y735001D02*
D03*
X855001Y727501D02*
D03*
X858751Y720001D02*
D03*
X855001Y667501D02*
D03*
X858751Y660001D02*
D03*
X855001Y652501D02*
D03*
X858751Y645001D02*
D03*
X855001Y637501D02*
D03*
X858751Y630001D02*
D03*
X855001Y622501D02*
D03*
X858751Y615001D02*
D03*
X855001Y607501D02*
D03*
X858751Y600001D02*
D03*
X855001Y592501D02*
D03*
X858751Y585001D02*
D03*
X855001Y577501D02*
D03*
X858751Y570001D02*
D03*
X855001Y562501D02*
D03*
X858751Y555001D02*
D03*
X855001Y547501D02*
D03*
X858751Y540001D02*
D03*
X855001Y532501D02*
D03*
X858751Y510001D02*
D03*
X847501Y742501D02*
D03*
X851251Y735001D02*
D03*
X847501Y727501D02*
D03*
X851251Y720001D02*
D03*
X847501Y712501D02*
D03*
Y682501D02*
D03*
Y667501D02*
D03*
X851251Y660001D02*
D03*
X847501Y652501D02*
D03*
X851251Y645001D02*
D03*
X847501Y637501D02*
D03*
X851251Y630001D02*
D03*
X847501Y622501D02*
D03*
X851251Y615001D02*
D03*
X847501Y607501D02*
D03*
X851251Y600001D02*
D03*
X847501Y592501D02*
D03*
X851251Y585001D02*
D03*
X847501Y577501D02*
D03*
X851251Y570001D02*
D03*
X847501Y562501D02*
D03*
X851251Y555001D02*
D03*
X847501Y547501D02*
D03*
X851251Y540001D02*
D03*
X847501Y532501D02*
D03*
X851251Y510001D02*
D03*
X840001Y727501D02*
D03*
X843751Y720001D02*
D03*
X840001Y712501D02*
D03*
X843751Y705001D02*
D03*
X840001Y682501D02*
D03*
X843751Y675001D02*
D03*
X840001Y667501D02*
D03*
X843751Y660001D02*
D03*
X840001Y652501D02*
D03*
X843751Y645001D02*
D03*
X840001Y637501D02*
D03*
X843751Y630001D02*
D03*
X840001Y622501D02*
D03*
X843751Y615001D02*
D03*
X840001Y607501D02*
D03*
X843751Y600001D02*
D03*
X840001Y592501D02*
D03*
X843751Y585001D02*
D03*
X840001Y577501D02*
D03*
X843751Y570001D02*
D03*
X840001Y562501D02*
D03*
X843751Y555001D02*
D03*
X840001Y547501D02*
D03*
X843751Y540001D02*
D03*
X840001Y532501D02*
D03*
X843751Y510001D02*
D03*
X836251Y720001D02*
D03*
X832501Y712501D02*
D03*
X836251Y705001D02*
D03*
Y675001D02*
D03*
X832501Y667501D02*
D03*
X836251Y660001D02*
D03*
X832501Y652501D02*
D03*
X836251Y645001D02*
D03*
X832501Y637501D02*
D03*
X836251Y630001D02*
D03*
X832501Y622501D02*
D03*
X836251Y615001D02*
D03*
X832501Y607501D02*
D03*
X836251Y600001D02*
D03*
X832501Y592501D02*
D03*
X836251Y585001D02*
D03*
X832501Y577501D02*
D03*
X836251Y570001D02*
D03*
X832501Y562501D02*
D03*
X836251Y555001D02*
D03*
X832501Y547501D02*
D03*
X836251Y540001D02*
D03*
X832501Y532501D02*
D03*
X836251Y510001D02*
D03*
X828751Y720001D02*
D03*
X825001Y712501D02*
D03*
X828751Y705001D02*
D03*
Y675001D02*
D03*
X825001Y667501D02*
D03*
X828751Y660001D02*
D03*
X825001Y652501D02*
D03*
X828751Y645001D02*
D03*
X825001Y637501D02*
D03*
X828751Y630001D02*
D03*
X825001Y622501D02*
D03*
X828751Y615001D02*
D03*
X825001Y607501D02*
D03*
X828751Y600001D02*
D03*
X825001Y592501D02*
D03*
X828751Y585001D02*
D03*
X825001Y577501D02*
D03*
X828751Y570001D02*
D03*
X825001Y562501D02*
D03*
X828751Y555001D02*
D03*
X825001Y547501D02*
D03*
X828751Y540001D02*
D03*
X825001Y532501D02*
D03*
X821251Y720001D02*
D03*
X817501Y712501D02*
D03*
X821251Y705001D02*
D03*
Y675001D02*
D03*
X817501Y667501D02*
D03*
X821251Y660001D02*
D03*
X817501Y652501D02*
D03*
X821251Y645001D02*
D03*
X817501Y637501D02*
D03*
X821251Y630001D02*
D03*
X817501Y622501D02*
D03*
X821251Y615001D02*
D03*
X817501Y607501D02*
D03*
X821251Y600001D02*
D03*
X817501Y592501D02*
D03*
X821251Y585001D02*
D03*
X817501Y577501D02*
D03*
X821251Y570001D02*
D03*
X817501Y562501D02*
D03*
X821251Y555001D02*
D03*
X817501Y547501D02*
D03*
X821251Y540001D02*
D03*
X817501Y532501D02*
D03*
X813751Y720001D02*
D03*
X810001Y712501D02*
D03*
X813751Y705001D02*
D03*
X810001Y697501D02*
D03*
X813751Y675001D02*
D03*
X810001Y667501D02*
D03*
X813751Y660001D02*
D03*
X810001Y652501D02*
D03*
X813751Y645001D02*
D03*
X810001Y637501D02*
D03*
X813751Y630001D02*
D03*
X810001Y622501D02*
D03*
X813751Y615001D02*
D03*
X810001Y607501D02*
D03*
X813751Y600001D02*
D03*
X810001Y592501D02*
D03*
X813751Y585001D02*
D03*
Y570001D02*
D03*
Y555001D02*
D03*
X810001Y547501D02*
D03*
X813751Y540001D02*
D03*
X806251Y720001D02*
D03*
X802501Y712501D02*
D03*
X806251Y705001D02*
D03*
X802501Y667501D02*
D03*
X806251Y660001D02*
D03*
X802501Y652501D02*
D03*
X806251Y645001D02*
D03*
X802501Y637501D02*
D03*
X806251Y630001D02*
D03*
Y615001D02*
D03*
Y600001D02*
D03*
X802501Y592501D02*
D03*
X806251Y585001D02*
D03*
Y555001D02*
D03*
X802501Y547501D02*
D03*
X798751Y720001D02*
D03*
X795001Y667501D02*
D03*
X798751Y660001D02*
D03*
X795001Y652501D02*
D03*
X798751Y645001D02*
D03*
X795001Y637501D02*
D03*
X798751Y630001D02*
D03*
X795001Y592501D02*
D03*
X798751Y585001D02*
D03*
X795001Y577501D02*
D03*
Y562501D02*
D03*
X798751Y555001D02*
D03*
X795001Y547501D02*
D03*
Y517501D02*
D03*
X798751Y510001D02*
D03*
X791251Y720001D02*
D03*
X787501Y697501D02*
D03*
Y682501D02*
D03*
X791251Y675001D02*
D03*
X787501Y667501D02*
D03*
X791251Y660001D02*
D03*
X787501Y652501D02*
D03*
X791251Y645001D02*
D03*
X787501Y637501D02*
D03*
Y592501D02*
D03*
X791251Y585001D02*
D03*
Y555001D02*
D03*
X787501Y517501D02*
D03*
X791251Y510001D02*
D03*
X783751Y720001D02*
D03*
X780001Y697501D02*
D03*
X783751Y690001D02*
D03*
X780001Y682501D02*
D03*
X783751Y675001D02*
D03*
X780001Y667501D02*
D03*
X783751Y660001D02*
D03*
X780001Y652501D02*
D03*
X783751Y645001D02*
D03*
X780001Y637501D02*
D03*
Y592501D02*
D03*
X783751Y585001D02*
D03*
X780001Y577501D02*
D03*
Y562501D02*
D03*
X783751Y555001D02*
D03*
X780001Y517501D02*
D03*
X783751Y510001D02*
D03*
X776251Y720001D02*
D03*
Y690001D02*
D03*
X772501Y682501D02*
D03*
X776251Y675001D02*
D03*
X772501Y667501D02*
D03*
X776251Y660001D02*
D03*
X772501Y652501D02*
D03*
X776251Y645001D02*
D03*
X772501Y637501D02*
D03*
X776251Y555001D02*
D03*
Y510001D02*
D03*
X765001Y742501D02*
D03*
X768751Y720001D02*
D03*
X765001Y712501D02*
D03*
Y667501D02*
D03*
X768751Y660001D02*
D03*
X765001Y652501D02*
D03*
X768751Y645001D02*
D03*
Y555001D02*
D03*
Y510001D02*
D03*
X757501Y742501D02*
D03*
Y682501D02*
D03*
Y667501D02*
D03*
X761251Y660001D02*
D03*
Y615001D02*
D03*
Y600001D02*
D03*
X757501Y592501D02*
D03*
X761251Y585001D02*
D03*
X757501Y562501D02*
D03*
X761251Y555001D02*
D03*
Y540001D02*
D03*
X757501Y517501D02*
D03*
X761251Y510001D02*
D03*
X750001Y742501D02*
D03*
X753751Y705001D02*
D03*
X750001Y697501D02*
D03*
X753751Y675001D02*
D03*
Y630001D02*
D03*
Y540001D02*
D03*
X750001Y517501D02*
D03*
X753751Y510001D02*
D03*
X742501Y742501D02*
D03*
X746251Y735001D02*
D03*
X742501Y697501D02*
D03*
X746251Y630001D02*
D03*
Y525001D02*
D03*
X742501Y517501D02*
D03*
X746251Y510001D02*
D03*
X735001Y742501D02*
D03*
X738751Y735001D02*
D03*
X735001Y727501D02*
D03*
Y697501D02*
D03*
X738751Y690001D02*
D03*
Y660001D02*
D03*
X735001Y652501D02*
D03*
Y562501D02*
D03*
X738751Y555001D02*
D03*
X735001Y547501D02*
D03*
X738751Y540001D02*
D03*
X735001Y532501D02*
D03*
X738751Y525001D02*
D03*
X735001Y517501D02*
D03*
X738751Y510001D02*
D03*
X727501Y742501D02*
D03*
X731251Y735001D02*
D03*
X727501Y727501D02*
D03*
Y697501D02*
D03*
X731251Y690001D02*
D03*
X727501Y652501D02*
D03*
X731251Y645001D02*
D03*
X727501Y637501D02*
D03*
X731251Y570001D02*
D03*
Y555001D02*
D03*
X727501Y547501D02*
D03*
X731251Y540001D02*
D03*
X727501Y532501D02*
D03*
X731251Y525001D02*
D03*
X727501Y517501D02*
D03*
X731251Y510001D02*
D03*
X720001Y742501D02*
D03*
X723751Y735001D02*
D03*
X720001Y727501D02*
D03*
Y697501D02*
D03*
X723751Y690001D02*
D03*
X720001Y667501D02*
D03*
X723751Y645001D02*
D03*
X720001Y637501D02*
D03*
X723751Y630001D02*
D03*
X720001Y622501D02*
D03*
X723751Y555001D02*
D03*
X720001Y547501D02*
D03*
X723751Y540001D02*
D03*
X720001Y532501D02*
D03*
X723751Y525001D02*
D03*
X720001Y517501D02*
D03*
X723751Y510001D02*
D03*
X712501Y742501D02*
D03*
X716251Y735001D02*
D03*
X712501Y727501D02*
D03*
Y667501D02*
D03*
Y637501D02*
D03*
X716251Y630001D02*
D03*
X712501Y622501D02*
D03*
X716251Y600001D02*
D03*
Y540001D02*
D03*
X712501Y532501D02*
D03*
X716251Y525001D02*
D03*
X712501Y517501D02*
D03*
X716251Y510001D02*
D03*
X705001Y742501D02*
D03*
X708751Y735001D02*
D03*
X705001Y727501D02*
D03*
Y667501D02*
D03*
X708751Y660001D02*
D03*
Y600001D02*
D03*
Y540001D02*
D03*
Y525001D02*
D03*
Y510001D02*
D03*
X697501Y742501D02*
D03*
X701251Y735001D02*
D03*
X697501Y727501D02*
D03*
X690001Y742501D02*
D03*
X693751Y735001D02*
D03*
X690001Y727501D02*
D03*
X682501Y742501D02*
D03*
X686251Y735001D02*
D03*
X682501Y727501D02*
D03*
X675001Y742501D02*
D03*
X678751Y735001D02*
D03*
X675001Y727501D02*
D03*
Y682501D02*
D03*
X667501Y742501D02*
D03*
X671251Y735001D02*
D03*
X667501Y727501D02*
D03*
Y697501D02*
D03*
X671251Y690001D02*
D03*
X660001Y742501D02*
D03*
Y697501D02*
D03*
X663751Y690001D02*
D03*
X652501Y742501D02*
D03*
Y727501D02*
D03*
X645001Y742501D02*
D03*
Y547501D02*
D03*
X637501Y742501D02*
D03*
Y562501D02*
D03*
X630001Y742501D02*
D03*
X633751Y735001D02*
D03*
X611251Y540001D02*
D03*
X600001Y682501D02*
D03*
X603751Y660001D02*
D03*
X600001Y562501D02*
D03*
X596251Y705001D02*
D03*
X592501Y562501D02*
D03*
X596251Y555001D02*
D03*
X588751Y705001D02*
D03*
X585001Y607501D02*
D03*
Y577501D02*
D03*
X588751Y570001D02*
D03*
X585001Y532501D02*
D03*
Y517501D02*
D03*
X577501Y742501D02*
D03*
X581251Y615001D02*
D03*
X577501Y607501D02*
D03*
X581251Y585001D02*
D03*
X577501Y577501D02*
D03*
X581251Y570001D02*
D03*
X577501Y562501D02*
D03*
Y532501D02*
D03*
X581251Y525001D02*
D03*
X577501Y517501D02*
D03*
X581251Y510001D02*
D03*
X570001Y682501D02*
D03*
Y622501D02*
D03*
X573751Y615001D02*
D03*
X570001Y607501D02*
D03*
Y592501D02*
D03*
X573751Y585001D02*
D03*
X570001Y577501D02*
D03*
X573751Y570001D02*
D03*
X570001Y562501D02*
D03*
X573751Y555001D02*
D03*
X570001Y547501D02*
D03*
X573751Y540001D02*
D03*
X570001Y532501D02*
D03*
X573751Y525001D02*
D03*
X570001Y517501D02*
D03*
X573751Y510001D02*
D03*
X566251Y690001D02*
D03*
X562501Y682501D02*
D03*
Y667501D02*
D03*
Y652501D02*
D03*
Y637501D02*
D03*
X566251Y630001D02*
D03*
X562501Y622501D02*
D03*
X566251Y615001D02*
D03*
X562501Y607501D02*
D03*
X566251Y600001D02*
D03*
X562501Y592501D02*
D03*
X566251Y585001D02*
D03*
X562501Y577501D02*
D03*
X566251Y570001D02*
D03*
X562501Y562501D02*
D03*
X566251Y555001D02*
D03*
X562501Y547501D02*
D03*
X566251Y540001D02*
D03*
X562501Y532501D02*
D03*
X566251Y525001D02*
D03*
X562501Y517501D02*
D03*
X566251Y510001D02*
D03*
X555001Y742501D02*
D03*
Y727501D02*
D03*
X558751Y720001D02*
D03*
X555001Y712501D02*
D03*
Y682501D02*
D03*
X558751Y675001D02*
D03*
X555001Y667501D02*
D03*
X558751Y660001D02*
D03*
Y630001D02*
D03*
Y615001D02*
D03*
Y600001D02*
D03*
X555001Y592501D02*
D03*
X558751Y585001D02*
D03*
X555001Y577501D02*
D03*
X558751Y570001D02*
D03*
X555001Y562501D02*
D03*
X558751Y555001D02*
D03*
X555001Y547501D02*
D03*
X558751Y540001D02*
D03*
X555001Y532501D02*
D03*
X558751Y525001D02*
D03*
X555001Y517501D02*
D03*
X558751Y510001D02*
D03*
X551251Y720001D02*
D03*
X547501Y712501D02*
D03*
X551251Y705001D02*
D03*
X547501Y697501D02*
D03*
X551251Y630001D02*
D03*
Y600001D02*
D03*
X547501Y592501D02*
D03*
X551251Y585001D02*
D03*
X547501Y577501D02*
D03*
X551251Y570001D02*
D03*
X547501Y562501D02*
D03*
X551251Y555001D02*
D03*
X547501Y547501D02*
D03*
X551251Y540001D02*
D03*
X547501Y532501D02*
D03*
X551251Y525001D02*
D03*
X547501Y517501D02*
D03*
X551251Y510001D02*
D03*
X543751Y720001D02*
D03*
X540001Y712501D02*
D03*
X543751Y705001D02*
D03*
X540001Y697501D02*
D03*
Y682501D02*
D03*
Y667501D02*
D03*
X543751Y630001D02*
D03*
Y600001D02*
D03*
X540001Y592501D02*
D03*
X543751Y585001D02*
D03*
X540001Y577501D02*
D03*
X543751Y570001D02*
D03*
X540001Y562501D02*
D03*
X543751Y555001D02*
D03*
X540001Y547501D02*
D03*
X543751Y540001D02*
D03*
X540001Y532501D02*
D03*
X543751Y525001D02*
D03*
X540001Y517501D02*
D03*
X543751Y510001D02*
D03*
X532501Y742501D02*
D03*
X536251Y720001D02*
D03*
X532501Y712501D02*
D03*
X536251Y705001D02*
D03*
X532501Y697501D02*
D03*
X536251Y690001D02*
D03*
X532501Y682501D02*
D03*
X536251Y675001D02*
D03*
X532501Y667501D02*
D03*
X536251Y660001D02*
D03*
Y630001D02*
D03*
X532501Y622501D02*
D03*
Y607501D02*
D03*
X536251Y600001D02*
D03*
X532501Y592501D02*
D03*
X536251Y585001D02*
D03*
X532501Y577501D02*
D03*
X536251Y570001D02*
D03*
X532501Y562501D02*
D03*
X536251Y555001D02*
D03*
X532501Y547501D02*
D03*
X536251Y540001D02*
D03*
X532501Y532501D02*
D03*
X536251Y525001D02*
D03*
X532501Y517501D02*
D03*
X536251Y510001D02*
D03*
X525001Y742501D02*
D03*
X528751Y735001D02*
D03*
Y720001D02*
D03*
X525001Y712501D02*
D03*
X528751Y705001D02*
D03*
X525001Y697501D02*
D03*
X528751Y690001D02*
D03*
X525001Y682501D02*
D03*
X528751Y675001D02*
D03*
X525001Y667501D02*
D03*
X528751Y660001D02*
D03*
X525001Y652501D02*
D03*
X528751Y645001D02*
D03*
X525001Y637501D02*
D03*
X528751Y630001D02*
D03*
X525001Y622501D02*
D03*
X528751Y615001D02*
D03*
X525001Y607501D02*
D03*
X528751Y600001D02*
D03*
X525001Y592501D02*
D03*
X528751Y585001D02*
D03*
X525001Y577501D02*
D03*
X528751Y570001D02*
D03*
X525001Y562501D02*
D03*
X528751Y555001D02*
D03*
X525001Y547501D02*
D03*
X528751Y540001D02*
D03*
X525001Y532501D02*
D03*
X528751Y525001D02*
D03*
X525001Y517501D02*
D03*
X528751Y510001D02*
D03*
X521251Y720001D02*
D03*
X517501Y712501D02*
D03*
X521251Y705001D02*
D03*
X517501Y697501D02*
D03*
X521251Y690001D02*
D03*
X517501Y682501D02*
D03*
X521251Y675001D02*
D03*
X517501Y667501D02*
D03*
X521251Y660001D02*
D03*
X517501Y652501D02*
D03*
X521251Y645001D02*
D03*
X517501Y637501D02*
D03*
X521251Y630001D02*
D03*
X517501Y622501D02*
D03*
X521251Y615001D02*
D03*
X517501Y607501D02*
D03*
X521251Y600001D02*
D03*
X517501Y592501D02*
D03*
X521251Y585001D02*
D03*
X517501Y577501D02*
D03*
X521251Y570001D02*
D03*
X517501Y562501D02*
D03*
X521251Y555001D02*
D03*
X517501Y547501D02*
D03*
X521251Y540001D02*
D03*
X517501Y532501D02*
D03*
X521251Y525001D02*
D03*
X517501Y517501D02*
D03*
X521251Y510001D02*
D03*
X513751Y720001D02*
D03*
X510001Y712501D02*
D03*
X513751Y705001D02*
D03*
X510001Y697501D02*
D03*
X513751Y690001D02*
D03*
X510001Y682501D02*
D03*
X513751Y675001D02*
D03*
X510001Y667501D02*
D03*
X513751Y660001D02*
D03*
X510001Y652501D02*
D03*
X513751Y645001D02*
D03*
X510001Y637501D02*
D03*
X513751Y630001D02*
D03*
X510001Y622501D02*
D03*
X513751Y615001D02*
D03*
X510001Y607501D02*
D03*
X513751Y600001D02*
D03*
X510001Y592501D02*
D03*
X513751Y585001D02*
D03*
X510001Y577501D02*
D03*
X513751Y570001D02*
D03*
X510001Y562501D02*
D03*
X513751Y555001D02*
D03*
X510001Y547501D02*
D03*
X513751Y540001D02*
D03*
X510001Y532501D02*
D03*
X513751Y525001D02*
D03*
X510001Y517501D02*
D03*
X513751Y510001D02*
D03*
X506251Y720001D02*
D03*
Y705001D02*
D03*
Y690001D02*
D03*
Y675001D02*
D03*
Y660001D02*
D03*
Y645001D02*
D03*
Y630001D02*
D03*
Y615001D02*
D03*
Y600001D02*
D03*
Y585001D02*
D03*
Y570001D02*
D03*
Y555001D02*
D03*
Y540001D02*
D03*
Y525001D02*
D03*
Y510001D02*
D03*
X1335059Y688825D02*
D03*
X1325000Y687940D02*
D03*
X1358253Y686987D02*
D03*
X1370258Y706060D02*
D03*
X1363218D02*
D03*
X1348000Y631000D02*
D03*
X1311622Y665572D02*
D03*
X1316540Y696060D02*
D03*
X1304420D02*
D03*
X1324498Y618503D02*
D03*
X1276000Y681935D02*
D03*
X1268500Y703500D02*
D03*
X1129995Y687995D02*
D03*
X1123000Y703000D02*
D03*
X1122000Y735000D02*
D03*
X734043Y624264D02*
D03*
X598560Y652072D02*
D03*
X601285Y673285D02*
D03*
X645537Y575625D02*
D03*
X592500Y579500D02*
D03*
X586440Y652130D02*
D03*
X703099Y625526D02*
D03*
X581285Y647335D02*
D03*
X717000Y565000D02*
D03*
X639043Y665368D02*
D03*
X585343Y636193D02*
D03*
X659000Y671000D02*
D03*
X585261Y628269D02*
D03*
X586440Y621328D02*
D03*
X654500Y575132D02*
D03*
X698960Y568056D02*
D03*
X624107Y682602D02*
D03*
X706000Y568750D02*
D03*
X711006Y575067D02*
D03*
X577000Y703000D02*
D03*
X692000Y567000D02*
D03*
X698000Y661000D02*
D03*
X684192Y620006D02*
D03*
X684000Y565000D02*
D03*
X629560Y576000D02*
D03*
X599000Y573000D02*
D03*
X1220000Y675000D02*
D03*
X754060Y570252D02*
D03*
X1250000Y614308D02*
D03*
X1275965Y627000D02*
D03*
X1176729Y605174D02*
D03*
X1219790Y645360D02*
D03*
X1271210Y654846D02*
D03*
X747000Y536000D02*
D03*
X1198000Y724000D02*
D03*
X1439000Y625000D02*
D03*
X1264500Y716500D02*
D03*
X1294000Y612149D02*
D03*
X1386163Y687670D02*
D03*
X1372142Y654300D02*
D03*
X1371567Y646309D02*
D03*
X692000Y529000D02*
D03*
X664000Y682000D02*
D03*
X574665Y694335D02*
D03*
X620422Y535591D02*
D03*
X753000Y730000D02*
D03*
X1307000Y680000D02*
D03*
X1302000Y722000D02*
D03*
X1379575Y669899D02*
D03*
X1370000Y678886D02*
D03*
X1114000Y549060D02*
D03*
X1175000Y583000D02*
D03*
X1175100Y590039D02*
D03*
X1165458Y577221D02*
D03*
X1166708Y570293D02*
D03*
X1164914Y563485D02*
D03*
X1176287Y552500D02*
D03*
X1314415Y586585D02*
D03*
X1245764Y584994D02*
D03*
X1252804Y585081D02*
D03*
X745565Y655398D02*
D03*
X754000Y655000D02*
D03*
X1131708Y609292D02*
D03*
X724208Y595207D02*
D03*
D101*
X1345500Y666500D02*
D03*
Y655500D02*
D03*
X1334500Y666500D02*
D03*
Y655500D02*
D03*
X619000Y600000D02*
D03*
X619000Y611000D02*
D03*
X619000Y622000D02*
D03*
X619000Y633000D02*
D03*
X619000Y644000D02*
D03*
X630000Y600000D02*
D03*
Y611000D02*
D03*
X630000Y622000D02*
D03*
X630000Y633000D02*
D03*
Y644000D02*
D03*
X641000Y600000D02*
D03*
Y611000D02*
D03*
Y622000D02*
D03*
Y633000D02*
D03*
Y644000D02*
D03*
X652000Y600000D02*
D03*
Y611000D02*
D03*
X652000Y622000D02*
D03*
X652000Y633000D02*
D03*
Y644000D02*
D03*
X663000Y600000D02*
D03*
X663000Y611000D02*
D03*
X663000Y622000D02*
D03*
X663000Y633000D02*
D03*
X663000Y644000D02*
D03*
D102*
X1063600Y615500D02*
D03*
Y610500D02*
D03*
Y605500D02*
D03*
Y580500D02*
D03*
Y585500D02*
D03*
Y590500D02*
D03*
Y595500D02*
D03*
Y600500D02*
D03*
D103*
X1045000Y561200D02*
D03*
Y634800D02*
D03*
D104*
X634793Y690850D02*
D03*
Y675150D02*
D03*
D105*
X1240500Y600250D02*
D03*
X1250000D02*
D03*
X1259500D02*
D03*
Y627750D02*
D03*
X1250000Y627750D02*
D03*
D106*
X1240500Y627750D02*
D03*
D107*
X1242650Y694000D02*
D03*
D108*
X1256600Y703500D02*
D03*
X1256600Y694000D02*
D03*
X1256600Y684500D02*
D03*
X1228700Y703500D02*
D03*
Y694000D02*
D03*
D109*
Y684500D02*
D03*
D110*
X1464000Y613000D02*
D03*
D111*
X1456000Y613000D02*
D03*
X1448000Y613000D02*
D03*
X1440000D02*
D03*
X1432000D02*
D03*
X1424000Y613000D02*
D03*
X1416000Y613000D02*
D03*
Y637000D02*
D03*
X1424000D02*
D03*
X1432000D02*
D03*
X1440000D02*
D03*
X1448000Y637000D02*
D03*
X1456000D02*
D03*
X1464000Y637000D02*
D03*
M02*
