G04*
G04 #@! TF.GenerationSoftware,Altium Limited,Altium Designer,21.3.2 (30)*
G04*
G04 Layer_Color=8388736*
%FSLAX44Y44*%
%MOMM*%
G71*
G04*
G04 #@! TF.SameCoordinates,BB622590-8895-4630-97EF-0A5410F07859*
G04*
G04*
G04 #@! TF.FilePolarity,Negative*
G04*
G01*
G75*
G04:AMPARAMS|DCode=50|XSize=0.5mm|YSize=1.3mm|CornerRadius=0.1mm|HoleSize=0mm|Usage=FLASHONLY|Rotation=90.000|XOffset=0mm|YOffset=0mm|HoleType=Round|Shape=RoundedRectangle|*
%AMROUNDEDRECTD50*
21,1,0.5000,1.1000,0,0,90.0*
21,1,0.3000,1.3000,0,0,90.0*
1,1,0.2000,0.5500,0.1500*
1,1,0.2000,0.5500,-0.1500*
1,1,0.2000,-0.5500,-0.1500*
1,1,0.2000,-0.5500,0.1500*
%
%ADD50ROUNDEDRECTD50*%
%ADD51R,3.6000X1.1000*%
%ADD52R,3.5000X1.6000*%
%ADD53R,1.9000X1.5000*%
%ADD54R,1.4000X1.6000*%
%ADD55R,1.6000X1.6500*%
%ADD56R,0.5000X1.4500*%
%ADD57R,2.2000X1.0000*%
%ADD58R,2.7000X2.7000*%
%ADD59R,0.9500X0.3000*%
%ADD60R,0.3000X0.9500*%
G04:AMPARAMS|DCode=61|XSize=0.3mm|YSize=0.95mm|CornerRadius=0.1mm|HoleSize=0mm|Usage=FLASHONLY|Rotation=180.000|XOffset=0mm|YOffset=0mm|HoleType=Round|Shape=RoundedRectangle|*
%AMROUNDEDRECTD61*
21,1,0.3000,0.7500,0,0,180.0*
21,1,0.1000,0.9500,0,0,180.0*
1,1,0.2000,-0.0500,0.3750*
1,1,0.2000,0.0500,0.3750*
1,1,0.2000,0.0500,-0.3750*
1,1,0.2000,-0.0500,-0.3750*
%
%ADD61ROUNDEDRECTD61*%
%ADD62P,0.8202X4X360.0*%
%ADD63R,0.7000X1.4000*%
%ADD64R,1.5000X1.3000*%
G04:AMPARAMS|DCode=65|XSize=1.3mm|YSize=1.5mm|CornerRadius=0.35mm|HoleSize=0mm|Usage=FLASHONLY|Rotation=90.000|XOffset=0mm|YOffset=0mm|HoleType=Round|Shape=RoundedRectangle|*
%AMROUNDEDRECTD65*
21,1,1.3000,0.8000,0,0,90.0*
21,1,0.6000,1.5000,0,0,90.0*
1,1,0.7000,0.4000,0.3000*
1,1,0.7000,0.4000,-0.3000*
1,1,0.7000,-0.4000,-0.3000*
1,1,0.7000,-0.4000,0.3000*
%
%ADD65ROUNDEDRECTD65*%
%ADD66O,0.3500X0.9500*%
%ADD67R,0.3500X0.9500*%
%ADD68R,0.9500X0.3500*%
%ADD69R,5.7000X5.7000*%
%ADD70R,0.3000X0.4000*%
G04:AMPARAMS|DCode=71|XSize=0.4mm|YSize=0.3mm|CornerRadius=0.1mm|HoleSize=0mm|Usage=FLASHONLY|Rotation=270.000|XOffset=0mm|YOffset=0mm|HoleType=Round|Shape=RoundedRectangle|*
%AMROUNDEDRECTD71*
21,1,0.4000,0.1000,0,0,270.0*
21,1,0.2000,0.3000,0,0,270.0*
1,1,0.2000,-0.0500,-0.1000*
1,1,0.2000,-0.0500,0.1000*
1,1,0.2000,0.0500,0.1000*
1,1,0.2000,0.0500,-0.1000*
%
%ADD71ROUNDEDRECTD71*%
%ADD72R,0.9000X1.8000*%
%ADD73R,1.5000X1.9000*%
%ADD74R,1.0000X0.7000*%
G04:AMPARAMS|DCode=75|XSize=0.7mm|YSize=1mm|CornerRadius=0.2mm|HoleSize=0mm|Usage=FLASHONLY|Rotation=270.000|XOffset=0mm|YOffset=0mm|HoleType=Round|Shape=RoundedRectangle|*
%AMROUNDEDRECTD75*
21,1,0.7000,0.6000,0,0,270.0*
21,1,0.3000,1.0000,0,0,270.0*
1,1,0.4000,-0.3000,-0.1500*
1,1,0.4000,-0.3000,0.1500*
1,1,0.4000,0.3000,0.1500*
1,1,0.4000,0.3000,-0.1500*
%
%ADD75ROUNDEDRECTD75*%
%ADD76R,0.7000X1.0000*%
G04:AMPARAMS|DCode=77|XSize=0.7mm|YSize=1mm|CornerRadius=0.2mm|HoleSize=0mm|Usage=FLASHONLY|Rotation=0.000|XOffset=0mm|YOffset=0mm|HoleType=Round|Shape=RoundedRectangle|*
%AMROUNDEDRECTD77*
21,1,0.7000,0.6000,0,0,0.0*
21,1,0.3000,1.0000,0,0,0.0*
1,1,0.4000,0.1500,-0.3000*
1,1,0.4000,-0.1500,-0.3000*
1,1,0.4000,-0.1500,0.3000*
1,1,0.4000,0.1500,0.3000*
%
%ADD77ROUNDEDRECTD77*%
%ADD78R,0.9900X1.0400*%
%ADD79R,1.3000X1.6500*%
%ADD80R,1.3000X1.6500*%
%ADD81O,1.0000X1.6500*%
%ADD82O,1.3500X1.0500*%
%ADD83R,1.6000X1.6000*%
%ADD84C,1.6000*%
%ADD85R,1.6000X1.6000*%
%ADD86C,1.1000*%
%ADD87R,1.1000X1.1000*%
%ADD88C,0.8500*%
%ADD89C,0.6000*%
G36*
X1337009Y566153D02*
X1337058Y566148D01*
X1337130Y566126D01*
X1337152Y566120D01*
X1337239Y566073D01*
X1337315Y566011D01*
X1339815Y563511D01*
X1339878Y563435D01*
X1339924Y563348D01*
X1339931Y563326D01*
X1339953Y563254D01*
X1339957Y563204D01*
X1339962Y563155D01*
X1339962Y563155D01*
Y560955D01*
X1339953Y560857D01*
X1339924Y560763D01*
X1339878Y560676D01*
X1339815Y560600D01*
X1339739Y560538D01*
X1339652Y560491D01*
X1339558Y560463D01*
X1339460Y560453D01*
X1336960D01*
X1336862Y560463D01*
X1336768Y560491D01*
X1336681Y560538D01*
X1336605Y560600D01*
X1336542Y560676D01*
X1336496Y560763D01*
X1336467Y560857D01*
X1336458Y560955D01*
Y565655D01*
X1336457Y565655D01*
X1336462Y565704D01*
X1336467Y565754D01*
X1336489Y565826D01*
X1336496Y565848D01*
X1336542Y565935D01*
X1336605Y566011D01*
X1336681Y566073D01*
X1336768Y566120D01*
X1336790Y566126D01*
X1336862Y566148D01*
X1336911Y566153D01*
X1336960Y566158D01*
X1337009Y566153D01*
D02*
G37*
G36*
X1345258Y565462D02*
X1345958D01*
X1346056Y565452D01*
X1346150Y565424D01*
X1346237Y565377D01*
X1346313Y565315D01*
X1346375Y565239D01*
X1346422Y565152D01*
X1346450Y565058D01*
X1346460Y564960D01*
Y560960D01*
X1346450Y560862D01*
X1346422Y560767D01*
X1346375Y560680D01*
X1346313Y560604D01*
X1346237Y560542D01*
X1346150Y560495D01*
X1346056Y560467D01*
X1345958Y560457D01*
X1343458D01*
X1343360Y560467D01*
X1343265Y560495D01*
X1343178Y560542D01*
X1343102Y560604D01*
X1343040Y560680D01*
X1342993Y560767D01*
X1342965Y560862D01*
X1342955Y560960D01*
Y563159D01*
X1342955Y563160D01*
X1342964Y563249D01*
X1342965Y563258D01*
X1342993Y563352D01*
X1343040Y563439D01*
X1343074Y563480D01*
X1343102Y563515D01*
X1343102Y563515D01*
X1344902Y565315D01*
X1344978Y565377D01*
X1345065Y565424D01*
X1345087Y565430D01*
X1345159Y565452D01*
X1345208Y565457D01*
X1345258Y565462D01*
X1345258Y565462D01*
D02*
G37*
G36*
X1339556Y574450D02*
X1339650Y574422D01*
X1339737Y574375D01*
X1339813Y574313D01*
X1339875Y574237D01*
X1339922Y574150D01*
X1339950Y574055D01*
X1339960Y573957D01*
Y571758D01*
X1339960Y571758D01*
X1339951Y571668D01*
X1339950Y571660D01*
X1339922Y571565D01*
X1339875Y571478D01*
X1339841Y571437D01*
X1339813Y571402D01*
X1339813Y571402D01*
X1338013Y569602D01*
X1337937Y569540D01*
X1337850Y569493D01*
X1337828Y569487D01*
X1337755Y569465D01*
X1337706Y569460D01*
X1337657Y569455D01*
X1337657Y569455D01*
X1336958D01*
X1336859Y569465D01*
X1336765Y569493D01*
X1336678Y569540D01*
X1336602Y569602D01*
X1336540Y569678D01*
X1336493Y569765D01*
X1336465Y569860D01*
X1336455Y569958D01*
Y573957D01*
X1336465Y574055D01*
X1336493Y574150D01*
X1336540Y574237D01*
X1336602Y574313D01*
X1336678Y574375D01*
X1336765Y574422D01*
X1336859Y574450D01*
X1336958Y574460D01*
X1339458D01*
X1339556Y574450D01*
D02*
G37*
G36*
X1346056D02*
X1346150Y574422D01*
X1346237Y574375D01*
X1346313Y574313D01*
X1346375Y574237D01*
X1346422Y574150D01*
X1346450Y574055D01*
X1346460Y573957D01*
Y569958D01*
X1346450Y569860D01*
X1346422Y569765D01*
X1346375Y569678D01*
X1346313Y569602D01*
X1346237Y569540D01*
X1346150Y569493D01*
X1346056Y569465D01*
X1345957Y569455D01*
X1345258D01*
X1345258Y569455D01*
X1345208Y569460D01*
X1345159Y569465D01*
X1345087Y569487D01*
X1345065Y569493D01*
X1344978Y569540D01*
X1344902Y569602D01*
X1343102Y571402D01*
X1343102Y571402D01*
X1343074Y571437D01*
X1343040Y571478D01*
X1342993Y571565D01*
X1342965Y571660D01*
X1342964Y571668D01*
X1342955Y571758D01*
X1342955Y571758D01*
Y573957D01*
X1342965Y574055D01*
X1342993Y574150D01*
X1343040Y574237D01*
X1343102Y574313D01*
X1343178Y574375D01*
X1343265Y574422D01*
X1343360Y574450D01*
X1343457Y574460D01*
X1345957D01*
X1346056Y574450D01*
D02*
G37*
G36*
X1388834Y530412D02*
X1388883Y530408D01*
X1388955Y530386D01*
X1388977Y530379D01*
X1389064Y530333D01*
X1389140Y530270D01*
X1390940Y528470D01*
X1390940Y528470D01*
X1390968Y528436D01*
X1391003Y528394D01*
X1391049Y528307D01*
X1391078Y528213D01*
X1391079Y528204D01*
X1391087Y528115D01*
X1391087Y528115D01*
Y525915D01*
X1391078Y525817D01*
X1391049Y525723D01*
X1391003Y525636D01*
X1390940Y525560D01*
X1390864Y525497D01*
X1390777Y525451D01*
X1390683Y525422D01*
X1390585Y525412D01*
X1388085D01*
X1387987Y525422D01*
X1387893Y525451D01*
X1387806Y525497D01*
X1387730Y525560D01*
X1387667Y525636D01*
X1387621Y525723D01*
X1387592Y525817D01*
X1387583Y525915D01*
Y529915D01*
X1387592Y530013D01*
X1387621Y530107D01*
X1387667Y530194D01*
X1387730Y530270D01*
X1387806Y530333D01*
X1387893Y530379D01*
X1387987Y530408D01*
X1388085Y530417D01*
X1388785D01*
X1388785Y530417D01*
X1388834Y530412D01*
D02*
G37*
G36*
X1397183Y530408D02*
X1397277Y530379D01*
X1397364Y530333D01*
X1397427Y530281D01*
X1397440Y530270D01*
Y530270D01*
X1397440D01*
X1397451Y530257D01*
X1397503Y530194D01*
X1397549Y530107D01*
X1397578Y530013D01*
X1397587Y529915D01*
Y529915D01*
D01*
X1397587Y525915D01*
X1397578Y525817D01*
X1397549Y525723D01*
X1397503Y525636D01*
X1397440Y525560D01*
X1397364Y525497D01*
X1397277Y525451D01*
X1397183Y525422D01*
X1397085Y525412D01*
X1394585D01*
X1394487Y525422D01*
X1394393Y525451D01*
X1394306Y525497D01*
X1394230Y525560D01*
X1394167Y525636D01*
X1394121Y525723D01*
X1394092Y525817D01*
X1394083Y525915D01*
X1394083Y528115D01*
X1394083Y528115D01*
X1394092Y528213D01*
X1394121Y528307D01*
X1394167Y528394D01*
X1394230Y528470D01*
X1396030Y530270D01*
X1396030Y530270D01*
X1396089Y530319D01*
X1396106Y530333D01*
X1396146Y530354D01*
X1396193Y530379D01*
X1396287Y530408D01*
X1396305Y530409D01*
X1396385Y530417D01*
X1396385Y530417D01*
X1397085Y530417D01*
D01*
X1397085D01*
X1397183Y530408D01*
D02*
G37*
G36*
X1390683Y539406D02*
X1390777Y539377D01*
X1390864Y539331D01*
X1390940Y539268D01*
X1391003Y539192D01*
X1391049Y539105D01*
X1391078Y539011D01*
X1391087Y538913D01*
Y536713D01*
X1391078Y536615D01*
X1391056Y536543D01*
X1391049Y536521D01*
X1391003Y536434D01*
X1390940Y536358D01*
X1390940Y536357D01*
X1389140Y534558D01*
X1389140Y534558D01*
X1389078Y534506D01*
X1389064Y534495D01*
X1388977Y534449D01*
X1388883Y534420D01*
X1388829Y534415D01*
X1388785Y534410D01*
X1388785Y534411D01*
X1388085Y534410D01*
D01*
X1388085D01*
X1387987Y534420D01*
X1387893Y534449D01*
X1387806Y534495D01*
X1387744Y534546D01*
X1387730Y534558D01*
Y534558D01*
X1387730D01*
X1387719Y534571D01*
X1387667Y534634D01*
X1387621Y534721D01*
X1387592Y534815D01*
X1387583Y534913D01*
D01*
Y534913D01*
Y538913D01*
X1387592Y539011D01*
X1387621Y539105D01*
X1387667Y539192D01*
X1387730Y539268D01*
X1387806Y539331D01*
X1387893Y539377D01*
X1387987Y539406D01*
X1388085Y539415D01*
X1390585D01*
X1390683Y539406D01*
D02*
G37*
G36*
X1397181Y539410D02*
X1397275Y539381D01*
X1397362Y539335D01*
X1397438Y539272D01*
X1397500Y539196D01*
X1397547Y539109D01*
X1397576Y539015D01*
X1397585Y538917D01*
Y534217D01*
X1397585Y534217D01*
X1397580Y534168D01*
X1397576Y534119D01*
X1397554Y534047D01*
X1397547Y534025D01*
X1397500Y533938D01*
X1397438Y533862D01*
X1397362Y533799D01*
X1397275Y533753D01*
X1397253Y533746D01*
X1397181Y533724D01*
X1397132Y533719D01*
X1397083Y533715D01*
X1397034Y533719D01*
X1396985Y533724D01*
X1396912Y533746D01*
X1396890Y533753D01*
X1396804Y533799D01*
X1396727Y533862D01*
X1394227Y536362D01*
X1394165Y536438D01*
X1394118Y536525D01*
X1394112Y536547D01*
X1394090Y536619D01*
X1394085Y536668D01*
X1394080Y536717D01*
X1394080Y536717D01*
Y538917D01*
X1394090Y539015D01*
X1394118Y539109D01*
X1394165Y539196D01*
X1394227Y539272D01*
X1394304Y539335D01*
X1394391Y539381D01*
X1394485Y539410D01*
X1394583Y539419D01*
X1397083D01*
X1397181Y539410D01*
D02*
G37*
D50*
X1098500Y615793D02*
D03*
X1098500Y609292D02*
D03*
X1098500Y602793D02*
D03*
X1098500Y596292D02*
D03*
Y589793D02*
D03*
Y583293D02*
D03*
Y576792D02*
D03*
X1098500Y570293D02*
D03*
X1098500Y563792D02*
D03*
X1098500Y557293D02*
D03*
X1155500Y615793D02*
D03*
X1155500Y609292D02*
D03*
X1155500Y602793D02*
D03*
X1155500Y596292D02*
D03*
Y589793D02*
D03*
Y583293D02*
D03*
Y576792D02*
D03*
X1155500Y570293D02*
D03*
X1155500Y563792D02*
D03*
X1155500Y557293D02*
D03*
D51*
X1094500Y713000D02*
D03*
Y693000D02*
D03*
D52*
X1037000Y736500D02*
D03*
Y669500D02*
D03*
D53*
X546000Y618000D02*
D03*
Y646000D02*
D03*
D54*
X1425500Y601000D02*
D03*
X1406500D02*
D03*
D55*
X1263000Y514500D02*
D03*
X1243000D02*
D03*
D56*
X1266000Y541500D02*
D03*
X1259500D02*
D03*
X1253000D02*
D03*
X1246500D02*
D03*
X1240000D02*
D03*
D57*
X1211000Y659000D02*
D03*
Y633000D02*
D03*
D58*
X1340000Y661000D02*
D03*
D59*
X1320750Y649000D02*
D03*
Y653000D02*
D03*
Y657000D02*
D03*
Y661000D02*
D03*
Y665000D02*
D03*
Y669000D02*
D03*
Y673000D02*
D03*
X1359250D02*
D03*
Y669000D02*
D03*
Y665000D02*
D03*
Y661000D02*
D03*
Y657000D02*
D03*
Y653000D02*
D03*
Y649000D02*
D03*
D60*
X1328000Y680250D02*
D03*
X1332000D02*
D03*
X1336000D02*
D03*
X1340000D02*
D03*
X1344000D02*
D03*
X1348000D02*
D03*
X1352000D02*
D03*
Y641750D02*
D03*
X1348000D02*
D03*
X1344000D02*
D03*
X1340000D02*
D03*
X1336000D02*
D03*
X1332000D02*
D03*
D61*
X1328000D02*
D03*
D62*
X1392585Y532413D02*
D03*
X1341458Y567460D02*
D03*
D63*
X632270Y551646D02*
D03*
X608270D02*
D03*
D64*
X707000Y712000D02*
D03*
Y696000D02*
D03*
X685000Y712000D02*
D03*
D65*
Y696000D02*
D03*
D66*
X613500Y587750D02*
D03*
D67*
X618500D02*
D03*
X623500D02*
D03*
X628500D02*
D03*
X633500D02*
D03*
X638500Y587750D02*
D03*
X643500D02*
D03*
X648500Y587750D02*
D03*
X653500D02*
D03*
X658500D02*
D03*
X663500D02*
D03*
X668500D02*
D03*
Y656250D02*
D03*
X663500D02*
D03*
X658500D02*
D03*
X653500D02*
D03*
X648500D02*
D03*
X643500Y656250D02*
D03*
X638500D02*
D03*
X633500Y656250D02*
D03*
X628500D02*
D03*
X623500D02*
D03*
X618500D02*
D03*
X613500D02*
D03*
D68*
X675250Y594500D02*
D03*
Y599500D02*
D03*
Y604500D02*
D03*
Y609500D02*
D03*
Y614500D02*
D03*
X675250Y619500D02*
D03*
Y624500D02*
D03*
X675250Y629500D02*
D03*
Y634500D02*
D03*
Y639500D02*
D03*
Y644500D02*
D03*
Y649500D02*
D03*
X606750D02*
D03*
Y644500D02*
D03*
Y639500D02*
D03*
Y634500D02*
D03*
Y629500D02*
D03*
X606750Y624500D02*
D03*
Y619500D02*
D03*
X606750Y614500D02*
D03*
Y609500D02*
D03*
Y604500D02*
D03*
Y599500D02*
D03*
Y594500D02*
D03*
D69*
X641000Y622000D02*
D03*
D70*
X827000Y693000D02*
D03*
Y685000D02*
D03*
X832000D02*
D03*
X822000Y693000D02*
D03*
X832000D02*
D03*
D71*
X822000Y685000D02*
D03*
D72*
X771000Y530000D02*
D03*
X805000D02*
D03*
X771000Y570000D02*
D03*
X805000D02*
D03*
D73*
X748000Y610000D02*
D03*
X776000D02*
D03*
X1219000Y706000D02*
D03*
X1191000D02*
D03*
D74*
X1352000Y605500D02*
D03*
X1378000Y720000D02*
D03*
X1456000Y667043D02*
D03*
X1353000Y720498D02*
D03*
X1326333Y700000D02*
D03*
X1419628Y541915D02*
D03*
X1419585Y572957D02*
D03*
X1394043D02*
D03*
X1365543Y541915D02*
D03*
X1314458Y526915D02*
D03*
X1340000D02*
D03*
X1368500Y557957D02*
D03*
X1300457Y715000D02*
D03*
X800000Y691708D02*
D03*
X765000D02*
D03*
X854000D02*
D03*
X889000D02*
D03*
X1314415Y557957D02*
D03*
X1449000Y572500D02*
D03*
X1474543D02*
D03*
X585000Y543500D02*
D03*
X656793Y558500D02*
D03*
D75*
X1352000Y620500D02*
D03*
X1378000Y705000D02*
D03*
X1456000Y652043D02*
D03*
X1353000Y705498D02*
D03*
X1326333Y715000D02*
D03*
X1419628Y526915D02*
D03*
X1419585Y557957D02*
D03*
X1394043D02*
D03*
X1365542Y526915D02*
D03*
X1314458Y541915D02*
D03*
X1340000D02*
D03*
X1368500Y572957D02*
D03*
X1300457Y700000D02*
D03*
X800000Y676708D02*
D03*
X765000D02*
D03*
X854000Y676708D02*
D03*
X889000Y676708D02*
D03*
X1314415Y572957D02*
D03*
X1449000Y587500D02*
D03*
X1474543D02*
D03*
X585000Y558500D02*
D03*
X656793Y543500D02*
D03*
D76*
X1275500Y581000D02*
D03*
X1461042Y620000D02*
D03*
X1299500Y673000D02*
D03*
X1380499Y679189D02*
D03*
X1380500Y653542D02*
D03*
X1395500Y628000D02*
D03*
X1198500Y552293D02*
D03*
Y578750D02*
D03*
Y604293D02*
D03*
X659500Y733000D02*
D03*
D77*
X1260500Y581000D02*
D03*
X1446042Y620000D02*
D03*
X1284500Y673000D02*
D03*
X1395499Y679189D02*
D03*
X1395500Y653542D02*
D03*
X1380500Y628000D02*
D03*
X1183500Y552293D02*
D03*
Y578750D02*
D03*
Y604293D02*
D03*
X644500Y733000D02*
D03*
D78*
X775000Y708000D02*
D03*
X790700D02*
D03*
X863150D02*
D03*
X878850D02*
D03*
D79*
X1282005Y514505D02*
D03*
D80*
X1224005Y514505D02*
D03*
D81*
X1218000Y514500D02*
D03*
X1288000D02*
D03*
D82*
X1228000Y541500D02*
D03*
X1278000Y541500D02*
D03*
D83*
X617257Y734000D02*
D03*
X1041000Y524000D02*
D03*
D84*
X591857Y734000D02*
D03*
X566457D02*
D03*
X541058D02*
D03*
X515658D02*
D03*
X1432000Y694000D02*
D03*
X1066400Y524000D02*
D03*
D85*
X1432000Y719400D02*
D03*
D86*
X696600Y516000D02*
D03*
X683900D02*
D03*
X671200D02*
D03*
X658500D02*
D03*
X645800D02*
D03*
X633100D02*
D03*
X620400D02*
D03*
X607700D02*
D03*
X756700Y641000D02*
D03*
X823700Y737000D02*
D03*
X836400D02*
D03*
X962700Y520000D02*
D03*
X1107700Y516000D02*
D03*
X1120400D02*
D03*
X1133100D02*
D03*
X1145800D02*
D03*
X1158500D02*
D03*
X1171200D02*
D03*
X1183900D02*
D03*
X1196600D02*
D03*
X1342400Y737000D02*
D03*
X1329700D02*
D03*
X1462700Y520000D02*
D03*
X1256700Y641000D02*
D03*
D87*
X595000Y516000D02*
D03*
X744000Y641000D02*
D03*
X811000Y737000D02*
D03*
X950000Y520000D02*
D03*
X1095000Y516000D02*
D03*
X1317000Y737000D02*
D03*
X1450000Y520000D02*
D03*
X1244000Y641000D02*
D03*
D88*
X788000Y530000D02*
D03*
Y570000D02*
D03*
D89*
X1345500Y666500D02*
D03*
Y655500D02*
D03*
X1334500Y666500D02*
D03*
Y655500D02*
D03*
X619000Y600000D02*
D03*
X619000Y611000D02*
D03*
X619000Y622000D02*
D03*
X619000Y633000D02*
D03*
X619000Y644000D02*
D03*
X630000Y600000D02*
D03*
Y611000D02*
D03*
X630000Y622000D02*
D03*
X630000Y633000D02*
D03*
Y644000D02*
D03*
X641000Y600000D02*
D03*
Y611000D02*
D03*
Y622000D02*
D03*
Y633000D02*
D03*
Y644000D02*
D03*
X652000Y600000D02*
D03*
Y611000D02*
D03*
X652000Y622000D02*
D03*
X652000Y633000D02*
D03*
Y644000D02*
D03*
X663000Y600000D02*
D03*
X663000Y611000D02*
D03*
X663000Y622000D02*
D03*
X663000Y633000D02*
D03*
X663000Y644000D02*
D03*
M02*
