G04*
G04 #@! TF.GenerationSoftware,Altium Limited,Altium Designer,21.3.2 (30)*
G04*
G04 Layer_Color=32768*
%FSLAX44Y44*%
%MOMM*%
G71*
G04*
G04 #@! TF.SameCoordinates,BB622590-8895-4630-97EF-0A5410F07859*
G04*
G04*
G04 #@! TF.FilePolarity,Positive*
G04*
G01*
G75*
%ADD12C,0.1000*%
%ADD124C,0.0500*%
D12*
X1122000Y586543D02*
X1132000D01*
X1127000Y581543D02*
Y591543D01*
X1055000Y703000D02*
X1065000D01*
X1060000Y698000D02*
Y708000D01*
X546000Y627000D02*
Y637000D01*
X541000Y632000D02*
X551000D01*
X1411000Y601000D02*
X1421000D01*
X1416000Y596000D02*
Y606000D01*
X1253000Y523000D02*
Y533000D01*
X1248000Y528000D02*
X1258000D01*
X1211000Y641000D02*
Y651000D01*
X1206000Y646000D02*
X1216000D01*
X634793Y678500D02*
Y687500D01*
X630293Y683000D02*
X639292D01*
X1335000Y661000D02*
X1345000D01*
X1340000Y656000D02*
Y666000D01*
X1245000Y614000D02*
X1255000D01*
X1250000Y609000D02*
Y619000D01*
X1242650Y689000D02*
Y699000D01*
X1237650Y694000D02*
X1247650D01*
X601520Y541146D02*
X639020D01*
Y561895D01*
X601520D02*
X639020D01*
X601520Y541146D02*
Y561895D01*
X617770Y551646D02*
X620270D01*
Y549146D02*
Y551646D01*
X620247Y551598D02*
X622747D01*
X620247D02*
Y554098D01*
X696000Y699000D02*
Y709000D01*
X691000Y704000D02*
X701000D01*
X641000Y617000D02*
Y627000D01*
X636000Y622000D02*
X646000D01*
X817000Y681000D02*
Y697000D01*
X837000D01*
Y681000D02*
Y697000D01*
X817000Y681000D02*
X837000D01*
X1340770Y704526D02*
Y714526D01*
X1335770Y709526D02*
X1345770D01*
X1292000Y647000D02*
Y657000D01*
X1287000Y652000D02*
X1297000D01*
X762000Y605000D02*
Y615000D01*
X757000Y610000D02*
X767000D01*
X1205000Y701000D02*
Y711000D01*
X1200000Y706000D02*
X1210000D01*
X778350Y708000D02*
X787350D01*
X782850Y703500D02*
Y712500D01*
X866500Y708000D02*
X875500D01*
X871000Y703500D02*
Y712500D01*
D124*
X1091500Y552542D02*
Y620542D01*
X1162500Y552542D02*
Y620542D01*
X1091500D02*
X1162500D01*
X1091500Y552542D02*
X1162500D01*
X1033000Y598000D02*
X1043000D01*
X1038000Y593000D02*
Y603000D01*
X1071600Y543250D02*
Y652750D01*
X1013750D02*
X1071600D01*
X1013750Y543250D02*
Y652750D01*
Y543250D02*
X1071600D01*
X1019000Y661000D02*
Y745000D01*
Y661000D02*
X1113000D01*
Y745000D01*
X1019000D02*
X1113000D01*
X534500Y608500D02*
X557500D01*
X534500Y655500D02*
X557500D01*
X534500Y608500D02*
Y655500D01*
X557500Y608500D02*
Y655500D01*
X1433000Y591000D02*
Y611000D01*
X1399000Y591000D02*
Y611000D01*
Y591000D02*
X1433000D01*
X1399000Y611000D02*
X1433000D01*
X1211750Y486700D02*
Y549250D01*
Y486700D02*
X1294250D01*
X1211750Y549250D02*
X1294250Y549250D01*
Y486700D02*
Y549250D01*
X1197500Y667750D02*
X1224500D01*
X1197500Y624250D02*
X1224500D01*
Y667750D01*
X1197500Y624250D02*
Y667750D01*
X627293Y698000D02*
X642292Y698000D01*
X627293Y668000D02*
X642292Y668000D01*
X627293Y668000D02*
Y698000D01*
X642292Y668000D02*
Y698000D01*
X1366000Y635000D02*
Y687000D01*
X1314000Y635000D02*
Y687000D01*
X1366000D01*
X1314000Y635000D02*
X1366000D01*
X1268000Y593000D02*
Y635000D01*
X1232000Y593000D02*
Y635000D01*
Y593000D02*
X1268000Y593000D01*
X1232000Y635000D02*
X1268000D01*
X1221600Y712000D02*
X1263700D01*
X1221600Y676000D02*
X1263700D01*
X1263700Y712000D01*
X1221600Y676000D02*
X1221600Y712000D01*
X674500Y686000D02*
X717500D01*
X674500Y722000D02*
X717500D01*
Y686000D02*
Y722000D01*
X674500Y686000D02*
Y722000D01*
X600000Y581000D02*
X682000D01*
X600000Y663000D02*
X682000D01*
X600000Y581000D02*
Y663000D01*
X682000Y581000D02*
Y663000D01*
X1323770Y699526D02*
X1357770D01*
X1323770Y719526D02*
X1357770D01*
X1323770Y699526D02*
Y719526D01*
X1357770Y699526D02*
Y719526D01*
X1275000Y662000D02*
X1309000D01*
X1275000Y642000D02*
X1309000D01*
Y662000D01*
X1275000Y642000D02*
Y662000D01*
X738500Y621500D02*
X785500D01*
X738500Y598500D02*
X785500D01*
X738500D02*
Y621500D01*
X785500Y598500D02*
Y621500D01*
X1181500Y694500D02*
X1228500D01*
X1181500Y717500D02*
X1228500D01*
Y694500D02*
Y717500D01*
X1181500D02*
X1181500Y694500D01*
X767850Y715500D02*
X767850Y700500D01*
X797850D02*
X797850Y715500D01*
X767850D02*
X797850D01*
X767850Y700500D02*
X797850D01*
X856000Y715500D02*
X856000Y700500D01*
X886000D02*
X886000Y715500D01*
X856000D02*
X886000D01*
X856000Y700500D02*
X886000D01*
M02*
