G04*
G04 #@! TF.GenerationSoftware,Altium Limited,Altium Designer,21.0.9 (235)*
G04*
G04 Layer_Color=8388736*
%FSLAX44Y44*%
%MOMM*%
G71*
G04*
G04 #@! TF.SameCoordinates,010FA0BD-CCEB-4461-B68A-2F08C8EAF3F4*
G04*
G04*
G04 #@! TF.FilePolarity,Positive*
G04*
G01*
G75*
%ADD10C,0.2000*%
D10*
X559000Y266750D02*
Y293250D01*
X517000Y266750D02*
X559000D01*
X517000Y293250D02*
X559000D01*
X517000Y266750D02*
Y293250D01*
Y306750D02*
Y333250D01*
X559000D01*
X517000Y306750D02*
X559000D01*
Y333250D01*
X1150585Y274415D02*
X1150585Y290415D01*
X1134585Y274415D02*
X1150585D01*
X1134585D02*
Y290415D01*
X1150585Y290415D01*
X1083458Y309457D02*
Y325458D01*
X1099458D01*
Y309457D02*
Y325458D01*
X1083458Y309457D02*
X1099458D01*
X1162868Y359364D02*
Y376439D01*
Y359364D02*
X1217120Y359364D01*
Y390582D01*
X1162868Y390582D02*
X1217120Y390582D01*
X1162868Y376439D02*
Y390582D01*
X559000Y516750D02*
Y543250D01*
X517000Y516750D02*
X559000D01*
X517000Y543250D02*
X559000D01*
X517000Y516750D02*
Y543250D01*
Y556750D02*
Y583250D01*
X559000D01*
X517000Y556750D02*
X559000D01*
Y583250D01*
X1150585Y524415D02*
X1150585Y540415D01*
X1134585Y524415D02*
X1150585D01*
X1134585D02*
Y540415D01*
X1150585Y540415D01*
X1083458Y559458D02*
Y575458D01*
X1099458D01*
Y559458D02*
Y575458D01*
X1083458Y559458D02*
X1099458D01*
X1162868Y609365D02*
Y626439D01*
Y609365D02*
X1217120Y609365D01*
Y640582D01*
X1162868Y640582D02*
X1217120Y640582D01*
X1162868Y626439D02*
Y640582D01*
X559000Y766750D02*
Y793250D01*
X517000Y766750D02*
X559000D01*
X517000Y793250D02*
X559000D01*
X517000Y766750D02*
Y793250D01*
Y806750D02*
Y833250D01*
X559000D01*
X517000Y806750D02*
X559000D01*
Y833250D01*
X1150585Y774415D02*
X1150585Y790415D01*
X1134585Y774415D02*
X1150585D01*
X1134585D02*
Y790415D01*
X1150585Y790415D01*
X1083458Y809458D02*
Y825458D01*
X1099458D01*
Y809458D02*
Y825458D01*
X1083458Y809458D02*
X1099458D01*
X1162868Y859364D02*
Y876439D01*
Y859364D02*
X1217120Y859364D01*
Y890582D01*
X1162868Y890582D02*
X1217120Y890582D01*
X1162868Y876439D02*
Y890582D01*
X559000Y1016750D02*
Y1043250D01*
X517000Y1016750D02*
X559000D01*
X517000Y1043250D02*
X559000D01*
X517000Y1016750D02*
Y1043250D01*
Y1056750D02*
Y1083250D01*
X559000D01*
X517000Y1056750D02*
X559000D01*
Y1083250D01*
X1150585Y1024415D02*
X1150585Y1040415D01*
X1134585Y1024415D02*
X1150585D01*
X1134585D02*
Y1040415D01*
X1150585Y1040415D01*
X1083458Y1059458D02*
Y1075458D01*
X1099458D01*
Y1059458D02*
Y1075458D01*
X1083458Y1059458D02*
X1099458D01*
X1162868Y1109365D02*
Y1126439D01*
Y1109365D02*
X1217120Y1109365D01*
Y1140582D01*
X1162868Y1140582D02*
X1217120Y1140582D01*
X1162868Y1126439D02*
Y1140582D01*
M02*
