G04*
G04 #@! TF.GenerationSoftware,Altium Limited,Altium Designer,21.0.9 (235)*
G04*
G04 Layer_Physical_Order=3*
G04 Layer_Color=65280*
%FSLAX44Y44*%
%MOMM*%
G71*
G04*
G04 #@! TF.SameCoordinates,010FA0BD-CCEB-4461-B68A-2F08C8EAF3F4*
G04*
G04*
G04 #@! TF.FilePolarity,Positive*
G04*
G01*
G75*
%ADD11C,0.2540*%
%ADD47C,0.1270*%
%ADD53R,1.5000X1.5000*%
%ADD55R,1.0000X1.0000*%
%ADD56C,1.0000*%
%ADD60C,0.4500*%
G36*
X1238903Y1243137D02*
X1239061Y1243107D01*
X1239196Y1243061D01*
X1239314Y1243014D01*
X1239366Y1242984D01*
X1239408Y1242961D01*
X1239448Y1242937D01*
X1239478Y1242914D01*
X1239501Y1242896D01*
X1239519Y1242885D01*
X1239531Y1242879D01*
X1239537Y1242873D01*
X1239648Y1242761D01*
X1239736Y1242638D01*
X1239807Y1242509D01*
X1239865Y1242380D01*
X1239900Y1242268D01*
X1239918Y1242221D01*
X1239930Y1242180D01*
X1239936Y1242145D01*
X1239941Y1242122D01*
X1239947Y1242104D01*
Y1242098D01*
X1239448Y1242010D01*
X1239425Y1242139D01*
X1239390Y1242251D01*
X1239349Y1242345D01*
X1239308Y1242421D01*
X1239267Y1242480D01*
X1239231Y1242521D01*
X1239208Y1242550D01*
X1239202Y1242556D01*
X1239126Y1242615D01*
X1239044Y1242662D01*
X1238967Y1242691D01*
X1238891Y1242714D01*
X1238821Y1242726D01*
X1238768Y1242738D01*
X1238721D01*
X1238615Y1242732D01*
X1238521Y1242708D01*
X1238439Y1242679D01*
X1238369Y1242650D01*
X1238316Y1242615D01*
X1238275Y1242585D01*
X1238246Y1242562D01*
X1238240Y1242556D01*
X1238175Y1242486D01*
X1238128Y1242409D01*
X1238099Y1242333D01*
X1238076Y1242262D01*
X1238064Y1242198D01*
X1238052Y1242151D01*
Y1242116D01*
Y1242110D01*
Y1242104D01*
Y1242040D01*
X1238064Y1241981D01*
X1238093Y1241881D01*
X1238134Y1241793D01*
X1238181Y1241717D01*
X1238228Y1241664D01*
X1238269Y1241623D01*
X1238298Y1241600D01*
X1238304Y1241594D01*
X1238310D01*
X1238410Y1241541D01*
X1238504Y1241500D01*
X1238604Y1241470D01*
X1238692Y1241453D01*
X1238768Y1241441D01*
X1238832Y1241429D01*
X1238909D01*
X1238932Y1241435D01*
X1238962D01*
X1239020Y1240995D01*
X1238944Y1241013D01*
X1238874Y1241024D01*
X1238815Y1241036D01*
X1238762Y1241042D01*
X1238721Y1241048D01*
X1238668D01*
X1238545Y1241036D01*
X1238434Y1241013D01*
X1238334Y1240978D01*
X1238252Y1240937D01*
X1238187Y1240895D01*
X1238140Y1240860D01*
X1238111Y1240837D01*
X1238099Y1240825D01*
X1238023Y1240737D01*
X1237964Y1240643D01*
X1237923Y1240549D01*
X1237900Y1240455D01*
X1237882Y1240379D01*
X1237876Y1240314D01*
X1237870Y1240291D01*
Y1240274D01*
Y1240262D01*
Y1240256D01*
X1237882Y1240127D01*
X1237911Y1240009D01*
X1237946Y1239910D01*
X1237993Y1239822D01*
X1238040Y1239751D01*
X1238076Y1239698D01*
X1238105Y1239663D01*
X1238117Y1239651D01*
X1238211Y1239569D01*
X1238310Y1239511D01*
X1238410Y1239470D01*
X1238504Y1239440D01*
X1238586Y1239423D01*
X1238651Y1239417D01*
X1238674Y1239411D01*
X1238709D01*
X1238815Y1239417D01*
X1238915Y1239440D01*
X1239003Y1239470D01*
X1239073Y1239505D01*
X1239132Y1239534D01*
X1239179Y1239564D01*
X1239202Y1239587D01*
X1239214Y1239593D01*
X1239284Y1239675D01*
X1239343Y1239769D01*
X1239396Y1239869D01*
X1239437Y1239974D01*
X1239466Y1240062D01*
X1239478Y1240103D01*
X1239484Y1240138D01*
X1239490Y1240168D01*
X1239495Y1240191D01*
X1239501Y1240203D01*
Y1240209D01*
X1240000Y1240144D01*
X1239988Y1240051D01*
X1239971Y1239962D01*
X1239918Y1239798D01*
X1239853Y1239657D01*
X1239818Y1239599D01*
X1239783Y1239540D01*
X1239748Y1239487D01*
X1239713Y1239446D01*
X1239683Y1239405D01*
X1239654Y1239376D01*
X1239636Y1239352D01*
X1239619Y1239335D01*
X1239607Y1239323D01*
X1239601Y1239317D01*
X1239531Y1239264D01*
X1239460Y1239212D01*
X1239390Y1239170D01*
X1239314Y1239135D01*
X1239167Y1239077D01*
X1239026Y1239041D01*
X1238962Y1239030D01*
X1238903Y1239018D01*
X1238850Y1239012D01*
X1238803Y1239006D01*
X1238768Y1239000D01*
X1238715D01*
X1238604Y1239006D01*
X1238504Y1239018D01*
X1238404Y1239035D01*
X1238310Y1239059D01*
X1238222Y1239088D01*
X1238146Y1239118D01*
X1238070Y1239153D01*
X1238005Y1239188D01*
X1237941Y1239217D01*
X1237888Y1239252D01*
X1237841Y1239282D01*
X1237806Y1239311D01*
X1237776Y1239335D01*
X1237753Y1239352D01*
X1237741Y1239364D01*
X1237735Y1239370D01*
X1237665Y1239440D01*
X1237606Y1239517D01*
X1237553Y1239593D01*
X1237506Y1239669D01*
X1237471Y1239740D01*
X1237436Y1239816D01*
X1237389Y1239957D01*
X1237377Y1240021D01*
X1237366Y1240080D01*
X1237354Y1240133D01*
X1237348Y1240180D01*
X1237342Y1240215D01*
Y1240244D01*
Y1240262D01*
Y1240268D01*
X1237348Y1240408D01*
X1237372Y1240537D01*
X1237407Y1240649D01*
X1237442Y1240743D01*
X1237477Y1240819D01*
X1237512Y1240878D01*
X1237536Y1240913D01*
X1237542Y1240925D01*
X1237624Y1241013D01*
X1237712Y1241089D01*
X1237806Y1241148D01*
X1237900Y1241195D01*
X1237982Y1241230D01*
X1238046Y1241253D01*
X1238070Y1241259D01*
X1238087Y1241265D01*
X1238099Y1241271D01*
X1238105D01*
X1238005Y1241324D01*
X1237923Y1241376D01*
X1237853Y1241435D01*
X1237794Y1241488D01*
X1237747Y1241535D01*
X1237712Y1241576D01*
X1237694Y1241600D01*
X1237688Y1241611D01*
X1237641Y1241693D01*
X1237606Y1241776D01*
X1237577Y1241858D01*
X1237559Y1241934D01*
X1237548Y1241999D01*
X1237542Y1242045D01*
Y1242081D01*
Y1242092D01*
X1237548Y1242192D01*
X1237565Y1242292D01*
X1237589Y1242380D01*
X1237618Y1242456D01*
X1237647Y1242521D01*
X1237671Y1242573D01*
X1237688Y1242603D01*
X1237694Y1242615D01*
X1237753Y1242703D01*
X1237823Y1242779D01*
X1237894Y1242843D01*
X1237964Y1242902D01*
X1238023Y1242943D01*
X1238076Y1242978D01*
X1238111Y1242996D01*
X1238117Y1243002D01*
X1238122D01*
X1238228Y1243049D01*
X1238334Y1243084D01*
X1238439Y1243113D01*
X1238533Y1243131D01*
X1238609Y1243143D01*
X1238674Y1243148D01*
X1238821D01*
X1238903Y1243137D01*
D02*
G37*
G36*
X570903Y1011137D02*
X571061Y1011107D01*
X571196Y1011060D01*
X571314Y1011013D01*
X571366Y1010984D01*
X571408Y1010961D01*
X571449Y1010937D01*
X571478Y1010914D01*
X571501Y1010896D01*
X571519Y1010884D01*
X571531Y1010879D01*
X571537Y1010873D01*
X571648Y1010761D01*
X571736Y1010638D01*
X571806Y1010509D01*
X571865Y1010380D01*
X571900Y1010268D01*
X571918Y1010221D01*
X571930Y1010180D01*
X571936Y1010145D01*
X571941Y1010122D01*
X571947Y1010104D01*
Y1010098D01*
X571449Y1010010D01*
X571425Y1010139D01*
X571390Y1010251D01*
X571349Y1010345D01*
X571308Y1010421D01*
X571267Y1010480D01*
X571231Y1010521D01*
X571208Y1010550D01*
X571202Y1010556D01*
X571126Y1010615D01*
X571044Y1010661D01*
X570967Y1010691D01*
X570891Y1010714D01*
X570821Y1010726D01*
X570768Y1010738D01*
X570721D01*
X570615Y1010732D01*
X570522Y1010708D01*
X570439Y1010679D01*
X570369Y1010650D01*
X570316Y1010615D01*
X570275Y1010585D01*
X570246Y1010562D01*
X570240Y1010556D01*
X570175Y1010486D01*
X570128Y1010409D01*
X570099Y1010333D01*
X570076Y1010263D01*
X570064Y1010198D01*
X570052Y1010151D01*
Y1010116D01*
Y1010110D01*
Y1010104D01*
Y1010040D01*
X570064Y1009981D01*
X570093Y1009881D01*
X570134Y1009793D01*
X570181Y1009717D01*
X570228Y1009664D01*
X570269Y1009623D01*
X570299Y1009600D01*
X570304Y1009594D01*
X570310D01*
X570410Y1009541D01*
X570504Y1009500D01*
X570604Y1009470D01*
X570692Y1009453D01*
X570768Y1009441D01*
X570832Y1009429D01*
X570909D01*
X570932Y1009435D01*
X570962D01*
X571020Y1008995D01*
X570944Y1009013D01*
X570874Y1009025D01*
X570815Y1009036D01*
X570762Y1009042D01*
X570721Y1009048D01*
X570668D01*
X570545Y1009036D01*
X570434Y1009013D01*
X570334Y1008978D01*
X570252Y1008936D01*
X570187Y1008895D01*
X570140Y1008860D01*
X570111Y1008837D01*
X570099Y1008825D01*
X570023Y1008737D01*
X569964Y1008643D01*
X569923Y1008549D01*
X569900Y1008455D01*
X569882Y1008379D01*
X569876Y1008315D01*
X569870Y1008291D01*
Y1008273D01*
Y1008262D01*
Y1008256D01*
X569882Y1008127D01*
X569911Y1008009D01*
X569947Y1007910D01*
X569993Y1007822D01*
X570040Y1007751D01*
X570076Y1007699D01*
X570105Y1007663D01*
X570117Y1007652D01*
X570210Y1007569D01*
X570310Y1007511D01*
X570410Y1007470D01*
X570504Y1007440D01*
X570586Y1007423D01*
X570651Y1007417D01*
X570674Y1007411D01*
X570709D01*
X570815Y1007417D01*
X570915Y1007440D01*
X571003Y1007470D01*
X571073Y1007505D01*
X571132Y1007534D01*
X571179Y1007563D01*
X571202Y1007587D01*
X571214Y1007593D01*
X571284Y1007675D01*
X571343Y1007769D01*
X571396Y1007869D01*
X571437Y1007974D01*
X571466Y1008062D01*
X571478Y1008103D01*
X571484Y1008139D01*
X571490Y1008168D01*
X571496Y1008191D01*
X571501Y1008203D01*
Y1008209D01*
X572000Y1008144D01*
X571988Y1008051D01*
X571971Y1007962D01*
X571918Y1007798D01*
X571853Y1007657D01*
X571818Y1007599D01*
X571783Y1007540D01*
X571748Y1007487D01*
X571713Y1007446D01*
X571683Y1007405D01*
X571654Y1007376D01*
X571636Y1007352D01*
X571619Y1007335D01*
X571607Y1007323D01*
X571601Y1007317D01*
X571531Y1007264D01*
X571460Y1007212D01*
X571390Y1007170D01*
X571314Y1007135D01*
X571167Y1007076D01*
X571026Y1007041D01*
X570962Y1007030D01*
X570903Y1007018D01*
X570850Y1007012D01*
X570803Y1007006D01*
X570768Y1007000D01*
X570715D01*
X570604Y1007006D01*
X570504Y1007018D01*
X570404Y1007036D01*
X570310Y1007059D01*
X570222Y1007088D01*
X570146Y1007118D01*
X570070Y1007153D01*
X570005Y1007188D01*
X569941Y1007217D01*
X569888Y1007253D01*
X569841Y1007282D01*
X569806Y1007311D01*
X569776Y1007335D01*
X569753Y1007352D01*
X569741Y1007364D01*
X569735Y1007370D01*
X569665Y1007440D01*
X569606Y1007517D01*
X569553Y1007593D01*
X569506Y1007669D01*
X569471Y1007739D01*
X569436Y1007816D01*
X569389Y1007957D01*
X569377Y1008021D01*
X569366Y1008080D01*
X569354Y1008133D01*
X569348Y1008180D01*
X569342Y1008215D01*
Y1008244D01*
Y1008262D01*
Y1008268D01*
X569348Y1008408D01*
X569371Y1008538D01*
X569407Y1008649D01*
X569442Y1008743D01*
X569477Y1008819D01*
X569512Y1008878D01*
X569536Y1008913D01*
X569542Y1008925D01*
X569624Y1009013D01*
X569712Y1009089D01*
X569806Y1009148D01*
X569900Y1009195D01*
X569982Y1009230D01*
X570046Y1009253D01*
X570070Y1009259D01*
X570087Y1009265D01*
X570099Y1009271D01*
X570105D01*
X570005Y1009324D01*
X569923Y1009377D01*
X569853Y1009435D01*
X569794Y1009488D01*
X569747Y1009535D01*
X569712Y1009576D01*
X569694Y1009600D01*
X569688Y1009611D01*
X569641Y1009693D01*
X569606Y1009775D01*
X569577Y1009858D01*
X569559Y1009934D01*
X569548Y1009998D01*
X569542Y1010045D01*
Y1010081D01*
Y1010092D01*
X569548Y1010192D01*
X569565Y1010292D01*
X569589Y1010380D01*
X569618Y1010456D01*
X569647Y1010521D01*
X569671Y1010574D01*
X569688Y1010603D01*
X569694Y1010615D01*
X569753Y1010703D01*
X569823Y1010779D01*
X569894Y1010843D01*
X569964Y1010902D01*
X570023Y1010943D01*
X570076Y1010978D01*
X570111Y1010996D01*
X570117Y1011002D01*
X570122D01*
X570228Y1011049D01*
X570334Y1011084D01*
X570439Y1011113D01*
X570533Y1011131D01*
X570610Y1011143D01*
X570674Y1011149D01*
X570821D01*
X570903Y1011137D01*
D02*
G37*
G36*
X1238903Y993137D02*
X1239061Y993107D01*
X1239196Y993060D01*
X1239314Y993014D01*
X1239366Y992984D01*
X1239408Y992961D01*
X1239448Y992937D01*
X1239478Y992914D01*
X1239501Y992896D01*
X1239519Y992884D01*
X1239531Y992878D01*
X1239537Y992873D01*
X1239648Y992761D01*
X1239736Y992638D01*
X1239807Y992509D01*
X1239865Y992380D01*
X1239900Y992268D01*
X1239918Y992221D01*
X1239930Y992180D01*
X1239936Y992145D01*
X1239941Y992122D01*
X1239947Y992104D01*
Y992098D01*
X1239448Y992010D01*
X1239425Y992139D01*
X1239390Y992251D01*
X1239349Y992345D01*
X1239308Y992421D01*
X1239267Y992479D01*
X1239231Y992521D01*
X1239208Y992550D01*
X1239202Y992556D01*
X1239126Y992615D01*
X1239044Y992661D01*
X1238967Y992691D01*
X1238891Y992714D01*
X1238821Y992726D01*
X1238768Y992738D01*
X1238721D01*
X1238615Y992732D01*
X1238521Y992708D01*
X1238439Y992679D01*
X1238369Y992650D01*
X1238316Y992615D01*
X1238275Y992585D01*
X1238246Y992562D01*
X1238240Y992556D01*
X1238175Y992485D01*
X1238128Y992409D01*
X1238099Y992333D01*
X1238076Y992262D01*
X1238064Y992198D01*
X1238052Y992151D01*
Y992116D01*
Y992110D01*
Y992104D01*
Y992039D01*
X1238064Y991981D01*
X1238093Y991881D01*
X1238134Y991793D01*
X1238181Y991717D01*
X1238228Y991664D01*
X1238269Y991623D01*
X1238298Y991599D01*
X1238304Y991594D01*
X1238310D01*
X1238410Y991541D01*
X1238504Y991500D01*
X1238604Y991470D01*
X1238692Y991453D01*
X1238768Y991441D01*
X1238832Y991429D01*
X1238909D01*
X1238932Y991435D01*
X1238962D01*
X1239020Y990995D01*
X1238944Y991013D01*
X1238874Y991024D01*
X1238815Y991036D01*
X1238762Y991042D01*
X1238721Y991048D01*
X1238668D01*
X1238545Y991036D01*
X1238434Y991013D01*
X1238334Y990977D01*
X1238252Y990936D01*
X1238187Y990895D01*
X1238140Y990860D01*
X1238111Y990837D01*
X1238099Y990825D01*
X1238023Y990737D01*
X1237964Y990643D01*
X1237923Y990549D01*
X1237900Y990455D01*
X1237882Y990379D01*
X1237876Y990314D01*
X1237870Y990291D01*
Y990273D01*
Y990262D01*
Y990256D01*
X1237882Y990127D01*
X1237911Y990009D01*
X1237946Y989910D01*
X1237993Y989822D01*
X1238040Y989751D01*
X1238076Y989698D01*
X1238105Y989663D01*
X1238117Y989651D01*
X1238211Y989569D01*
X1238310Y989511D01*
X1238410Y989470D01*
X1238504Y989440D01*
X1238586Y989423D01*
X1238651Y989417D01*
X1238674Y989411D01*
X1238709D01*
X1238815Y989417D01*
X1238915Y989440D01*
X1239003Y989470D01*
X1239073Y989505D01*
X1239132Y989534D01*
X1239179Y989564D01*
X1239202Y989587D01*
X1239214Y989593D01*
X1239284Y989675D01*
X1239343Y989769D01*
X1239396Y989869D01*
X1239437Y989974D01*
X1239466Y990062D01*
X1239478Y990103D01*
X1239484Y990138D01*
X1239490Y990168D01*
X1239495Y990191D01*
X1239501Y990203D01*
Y990209D01*
X1240000Y990144D01*
X1239988Y990050D01*
X1239971Y989962D01*
X1239918Y989798D01*
X1239853Y989657D01*
X1239818Y989599D01*
X1239783Y989540D01*
X1239748Y989487D01*
X1239713Y989446D01*
X1239683Y989405D01*
X1239654Y989376D01*
X1239636Y989352D01*
X1239619Y989335D01*
X1239607Y989323D01*
X1239601Y989317D01*
X1239531Y989264D01*
X1239460Y989211D01*
X1239390Y989170D01*
X1239314Y989135D01*
X1239167Y989077D01*
X1239026Y989041D01*
X1238962Y989029D01*
X1238903Y989018D01*
X1238850Y989012D01*
X1238803Y989006D01*
X1238768Y989000D01*
X1238715D01*
X1238604Y989006D01*
X1238504Y989018D01*
X1238404Y989035D01*
X1238310Y989059D01*
X1238222Y989088D01*
X1238146Y989118D01*
X1238070Y989153D01*
X1238005Y989188D01*
X1237941Y989217D01*
X1237888Y989252D01*
X1237841Y989282D01*
X1237806Y989311D01*
X1237776Y989335D01*
X1237753Y989352D01*
X1237741Y989364D01*
X1237735Y989370D01*
X1237665Y989440D01*
X1237606Y989517D01*
X1237553Y989593D01*
X1237506Y989669D01*
X1237471Y989740D01*
X1237436Y989816D01*
X1237389Y989957D01*
X1237377Y990021D01*
X1237366Y990080D01*
X1237354Y990133D01*
X1237348Y990180D01*
X1237342Y990215D01*
Y990244D01*
Y990262D01*
Y990267D01*
X1237348Y990408D01*
X1237372Y990537D01*
X1237407Y990649D01*
X1237442Y990743D01*
X1237477Y990819D01*
X1237512Y990878D01*
X1237536Y990913D01*
X1237542Y990925D01*
X1237624Y991013D01*
X1237712Y991089D01*
X1237806Y991148D01*
X1237900Y991195D01*
X1237982Y991230D01*
X1238046Y991253D01*
X1238070Y991259D01*
X1238087Y991265D01*
X1238099Y991271D01*
X1238105D01*
X1238005Y991324D01*
X1237923Y991376D01*
X1237853Y991435D01*
X1237794Y991488D01*
X1237747Y991535D01*
X1237712Y991576D01*
X1237694Y991599D01*
X1237688Y991611D01*
X1237641Y991693D01*
X1237606Y991776D01*
X1237577Y991858D01*
X1237559Y991934D01*
X1237548Y991998D01*
X1237542Y992045D01*
Y992081D01*
Y992092D01*
X1237548Y992192D01*
X1237565Y992292D01*
X1237589Y992380D01*
X1237618Y992456D01*
X1237647Y992521D01*
X1237671Y992573D01*
X1237688Y992603D01*
X1237694Y992615D01*
X1237753Y992702D01*
X1237823Y992779D01*
X1237894Y992843D01*
X1237964Y992902D01*
X1238023Y992943D01*
X1238076Y992978D01*
X1238111Y992996D01*
X1238117Y993002D01*
X1238122D01*
X1238228Y993049D01*
X1238334Y993084D01*
X1238439Y993113D01*
X1238533Y993131D01*
X1238609Y993143D01*
X1238674Y993148D01*
X1238821D01*
X1238903Y993137D01*
D02*
G37*
G36*
X570903Y761137D02*
X571061Y761107D01*
X571196Y761060D01*
X571314Y761013D01*
X571366Y760984D01*
X571408Y760961D01*
X571449Y760937D01*
X571478Y760914D01*
X571501Y760896D01*
X571519Y760884D01*
X571531Y760879D01*
X571537Y760873D01*
X571648Y760761D01*
X571736Y760638D01*
X571806Y760509D01*
X571865Y760380D01*
X571900Y760268D01*
X571918Y760221D01*
X571930Y760180D01*
X571936Y760145D01*
X571941Y760122D01*
X571947Y760104D01*
Y760098D01*
X571449Y760010D01*
X571425Y760139D01*
X571390Y760251D01*
X571349Y760345D01*
X571308Y760421D01*
X571267Y760480D01*
X571231Y760521D01*
X571208Y760550D01*
X571202Y760556D01*
X571126Y760614D01*
X571044Y760661D01*
X570967Y760691D01*
X570891Y760714D01*
X570821Y760726D01*
X570768Y760738D01*
X570721D01*
X570615Y760732D01*
X570522Y760708D01*
X570439Y760679D01*
X570369Y760650D01*
X570316Y760614D01*
X570275Y760585D01*
X570246Y760562D01*
X570240Y760556D01*
X570175Y760485D01*
X570128Y760409D01*
X570099Y760333D01*
X570076Y760263D01*
X570064Y760198D01*
X570052Y760151D01*
Y760116D01*
Y760110D01*
Y760104D01*
Y760040D01*
X570064Y759981D01*
X570093Y759881D01*
X570134Y759793D01*
X570181Y759717D01*
X570228Y759664D01*
X570269Y759623D01*
X570299Y759599D01*
X570304Y759594D01*
X570310D01*
X570410Y759541D01*
X570504Y759500D01*
X570604Y759470D01*
X570692Y759453D01*
X570768Y759441D01*
X570832Y759429D01*
X570909D01*
X570932Y759435D01*
X570962D01*
X571020Y758995D01*
X570944Y759013D01*
X570874Y759024D01*
X570815Y759036D01*
X570762Y759042D01*
X570721Y759048D01*
X570668D01*
X570545Y759036D01*
X570434Y759013D01*
X570334Y758978D01*
X570252Y758936D01*
X570187Y758895D01*
X570140Y758860D01*
X570111Y758837D01*
X570099Y758825D01*
X570023Y758737D01*
X569964Y758643D01*
X569923Y758549D01*
X569900Y758455D01*
X569882Y758379D01*
X569876Y758315D01*
X569870Y758291D01*
Y758273D01*
Y758262D01*
Y758256D01*
X569882Y758127D01*
X569911Y758009D01*
X569947Y757910D01*
X569993Y757822D01*
X570040Y757751D01*
X570076Y757698D01*
X570105Y757663D01*
X570117Y757652D01*
X570210Y757569D01*
X570310Y757511D01*
X570410Y757470D01*
X570504Y757440D01*
X570586Y757423D01*
X570651Y757417D01*
X570674Y757411D01*
X570709D01*
X570815Y757417D01*
X570915Y757440D01*
X571003Y757470D01*
X571073Y757505D01*
X571132Y757534D01*
X571179Y757563D01*
X571202Y757587D01*
X571214Y757593D01*
X571284Y757675D01*
X571343Y757769D01*
X571396Y757869D01*
X571437Y757974D01*
X571466Y758062D01*
X571478Y758103D01*
X571484Y758139D01*
X571490Y758168D01*
X571496Y758191D01*
X571501Y758203D01*
Y758209D01*
X572000Y758144D01*
X571988Y758051D01*
X571971Y757962D01*
X571918Y757798D01*
X571853Y757657D01*
X571818Y757599D01*
X571783Y757540D01*
X571748Y757487D01*
X571713Y757446D01*
X571683Y757405D01*
X571654Y757376D01*
X571636Y757352D01*
X571619Y757335D01*
X571607Y757323D01*
X571601Y757317D01*
X571531Y757264D01*
X571460Y757211D01*
X571390Y757170D01*
X571314Y757135D01*
X571167Y757076D01*
X571026Y757041D01*
X570962Y757029D01*
X570903Y757018D01*
X570850Y757012D01*
X570803Y757006D01*
X570768Y757000D01*
X570715D01*
X570604Y757006D01*
X570504Y757018D01*
X570404Y757035D01*
X570310Y757059D01*
X570222Y757088D01*
X570146Y757117D01*
X570070Y757153D01*
X570005Y757188D01*
X569941Y757217D01*
X569888Y757253D01*
X569841Y757282D01*
X569806Y757311D01*
X569776Y757335D01*
X569753Y757352D01*
X569741Y757364D01*
X569735Y757370D01*
X569665Y757440D01*
X569606Y757516D01*
X569553Y757593D01*
X569506Y757669D01*
X569471Y757739D01*
X569436Y757816D01*
X569389Y757957D01*
X569377Y758021D01*
X569366Y758080D01*
X569354Y758133D01*
X569348Y758179D01*
X569342Y758215D01*
Y758244D01*
Y758262D01*
Y758268D01*
X569348Y758408D01*
X569371Y758537D01*
X569407Y758649D01*
X569442Y758743D01*
X569477Y758819D01*
X569512Y758878D01*
X569536Y758913D01*
X569542Y758925D01*
X569624Y759013D01*
X569712Y759089D01*
X569806Y759148D01*
X569900Y759195D01*
X569982Y759230D01*
X570046Y759253D01*
X570070Y759259D01*
X570087Y759265D01*
X570099Y759271D01*
X570105D01*
X570005Y759324D01*
X569923Y759377D01*
X569853Y759435D01*
X569794Y759488D01*
X569747Y759535D01*
X569712Y759576D01*
X569694Y759599D01*
X569688Y759611D01*
X569641Y759693D01*
X569606Y759775D01*
X569577Y759858D01*
X569559Y759934D01*
X569548Y759998D01*
X569542Y760045D01*
Y760081D01*
Y760092D01*
X569548Y760192D01*
X569565Y760292D01*
X569589Y760380D01*
X569618Y760456D01*
X569647Y760521D01*
X569671Y760573D01*
X569688Y760603D01*
X569694Y760614D01*
X569753Y760703D01*
X569823Y760779D01*
X569894Y760843D01*
X569964Y760902D01*
X570023Y760943D01*
X570076Y760978D01*
X570111Y760996D01*
X570117Y761002D01*
X570122D01*
X570228Y761049D01*
X570334Y761084D01*
X570439Y761113D01*
X570533Y761131D01*
X570610Y761143D01*
X570674Y761148D01*
X570821D01*
X570903Y761137D01*
D02*
G37*
G36*
X1238903Y743137D02*
X1239061Y743107D01*
X1239196Y743060D01*
X1239314Y743013D01*
X1239366Y742984D01*
X1239408Y742961D01*
X1239448Y742937D01*
X1239478Y742914D01*
X1239501Y742896D01*
X1239519Y742884D01*
X1239531Y742878D01*
X1239537Y742873D01*
X1239648Y742761D01*
X1239736Y742638D01*
X1239807Y742509D01*
X1239865Y742380D01*
X1239900Y742268D01*
X1239918Y742221D01*
X1239930Y742180D01*
X1239936Y742145D01*
X1239941Y742122D01*
X1239947Y742104D01*
Y742098D01*
X1239448Y742010D01*
X1239425Y742139D01*
X1239390Y742251D01*
X1239349Y742345D01*
X1239308Y742421D01*
X1239267Y742479D01*
X1239231Y742521D01*
X1239208Y742550D01*
X1239202Y742556D01*
X1239126Y742614D01*
X1239044Y742661D01*
X1238967Y742691D01*
X1238891Y742714D01*
X1238821Y742726D01*
X1238768Y742738D01*
X1238721D01*
X1238615Y742732D01*
X1238521Y742708D01*
X1238439Y742679D01*
X1238369Y742650D01*
X1238316Y742614D01*
X1238275Y742585D01*
X1238246Y742562D01*
X1238240Y742556D01*
X1238175Y742485D01*
X1238128Y742409D01*
X1238099Y742333D01*
X1238076Y742262D01*
X1238064Y742198D01*
X1238052Y742151D01*
Y742116D01*
Y742110D01*
Y742104D01*
Y742039D01*
X1238064Y741981D01*
X1238093Y741881D01*
X1238134Y741793D01*
X1238181Y741717D01*
X1238228Y741664D01*
X1238269Y741623D01*
X1238298Y741599D01*
X1238304Y741593D01*
X1238310D01*
X1238410Y741541D01*
X1238504Y741500D01*
X1238604Y741470D01*
X1238692Y741453D01*
X1238768Y741441D01*
X1238832Y741429D01*
X1238909D01*
X1238932Y741435D01*
X1238962D01*
X1239020Y740995D01*
X1238944Y741013D01*
X1238874Y741024D01*
X1238815Y741036D01*
X1238762Y741042D01*
X1238721Y741048D01*
X1238668D01*
X1238545Y741036D01*
X1238434Y741013D01*
X1238334Y740977D01*
X1238252Y740936D01*
X1238187Y740895D01*
X1238140Y740860D01*
X1238111Y740837D01*
X1238099Y740825D01*
X1238023Y740737D01*
X1237964Y740643D01*
X1237923Y740549D01*
X1237900Y740455D01*
X1237882Y740379D01*
X1237876Y740314D01*
X1237870Y740291D01*
Y740273D01*
Y740262D01*
Y740256D01*
X1237882Y740127D01*
X1237911Y740009D01*
X1237946Y739910D01*
X1237993Y739822D01*
X1238040Y739751D01*
X1238076Y739698D01*
X1238105Y739663D01*
X1238117Y739651D01*
X1238211Y739569D01*
X1238310Y739511D01*
X1238410Y739470D01*
X1238504Y739440D01*
X1238586Y739423D01*
X1238651Y739417D01*
X1238674Y739411D01*
X1238709D01*
X1238815Y739417D01*
X1238915Y739440D01*
X1239003Y739470D01*
X1239073Y739505D01*
X1239132Y739534D01*
X1239179Y739563D01*
X1239202Y739587D01*
X1239214Y739593D01*
X1239284Y739675D01*
X1239343Y739769D01*
X1239396Y739868D01*
X1239437Y739974D01*
X1239466Y740062D01*
X1239478Y740103D01*
X1239484Y740138D01*
X1239490Y740168D01*
X1239495Y740191D01*
X1239501Y740203D01*
Y740209D01*
X1240000Y740144D01*
X1239988Y740050D01*
X1239971Y739962D01*
X1239918Y739798D01*
X1239853Y739657D01*
X1239818Y739599D01*
X1239783Y739540D01*
X1239748Y739487D01*
X1239713Y739446D01*
X1239683Y739405D01*
X1239654Y739376D01*
X1239636Y739352D01*
X1239619Y739335D01*
X1239607Y739323D01*
X1239601Y739317D01*
X1239531Y739264D01*
X1239460Y739211D01*
X1239390Y739170D01*
X1239314Y739135D01*
X1239167Y739076D01*
X1239026Y739041D01*
X1238962Y739029D01*
X1238903Y739018D01*
X1238850Y739012D01*
X1238803Y739006D01*
X1238768Y739000D01*
X1238715D01*
X1238604Y739006D01*
X1238504Y739018D01*
X1238404Y739035D01*
X1238310Y739059D01*
X1238222Y739088D01*
X1238146Y739118D01*
X1238070Y739153D01*
X1238005Y739188D01*
X1237941Y739217D01*
X1237888Y739252D01*
X1237841Y739282D01*
X1237806Y739311D01*
X1237776Y739335D01*
X1237753Y739352D01*
X1237741Y739364D01*
X1237735Y739370D01*
X1237665Y739440D01*
X1237606Y739517D01*
X1237553Y739593D01*
X1237506Y739669D01*
X1237471Y739739D01*
X1237436Y739816D01*
X1237389Y739957D01*
X1237377Y740021D01*
X1237366Y740080D01*
X1237354Y740133D01*
X1237348Y740180D01*
X1237342Y740215D01*
Y740244D01*
Y740262D01*
Y740267D01*
X1237348Y740408D01*
X1237372Y740537D01*
X1237407Y740649D01*
X1237442Y740743D01*
X1237477Y740819D01*
X1237512Y740878D01*
X1237536Y740913D01*
X1237542Y740925D01*
X1237624Y741013D01*
X1237712Y741089D01*
X1237806Y741148D01*
X1237900Y741195D01*
X1237982Y741230D01*
X1238046Y741253D01*
X1238070Y741259D01*
X1238087Y741265D01*
X1238099Y741271D01*
X1238105D01*
X1238005Y741324D01*
X1237923Y741376D01*
X1237853Y741435D01*
X1237794Y741488D01*
X1237747Y741535D01*
X1237712Y741576D01*
X1237694Y741599D01*
X1237688Y741611D01*
X1237641Y741693D01*
X1237606Y741775D01*
X1237577Y741858D01*
X1237559Y741934D01*
X1237548Y741998D01*
X1237542Y742045D01*
Y742081D01*
Y742092D01*
X1237548Y742192D01*
X1237565Y742292D01*
X1237589Y742380D01*
X1237618Y742456D01*
X1237647Y742521D01*
X1237671Y742573D01*
X1237688Y742603D01*
X1237694Y742614D01*
X1237753Y742702D01*
X1237823Y742779D01*
X1237894Y742843D01*
X1237964Y742902D01*
X1238023Y742943D01*
X1238076Y742978D01*
X1238111Y742996D01*
X1238117Y743002D01*
X1238122D01*
X1238228Y743049D01*
X1238334Y743084D01*
X1238439Y743113D01*
X1238533Y743131D01*
X1238609Y743142D01*
X1238674Y743148D01*
X1238821D01*
X1238903Y743137D01*
D02*
G37*
G36*
X570903Y511137D02*
X571061Y511107D01*
X571196Y511060D01*
X571314Y511013D01*
X571366Y510984D01*
X571408Y510961D01*
X571449Y510937D01*
X571478Y510914D01*
X571501Y510896D01*
X571519Y510884D01*
X571531Y510878D01*
X571537Y510873D01*
X571648Y510761D01*
X571736Y510638D01*
X571806Y510509D01*
X571865Y510380D01*
X571900Y510268D01*
X571918Y510221D01*
X571930Y510180D01*
X571936Y510145D01*
X571941Y510122D01*
X571947Y510104D01*
Y510098D01*
X571449Y510010D01*
X571425Y510139D01*
X571390Y510251D01*
X571349Y510345D01*
X571308Y510421D01*
X571267Y510480D01*
X571231Y510521D01*
X571208Y510550D01*
X571202Y510556D01*
X571126Y510614D01*
X571044Y510661D01*
X570967Y510691D01*
X570891Y510714D01*
X570821Y510726D01*
X570768Y510738D01*
X570721D01*
X570615Y510732D01*
X570522Y510708D01*
X570439Y510679D01*
X570369Y510650D01*
X570316Y510614D01*
X570275Y510585D01*
X570246Y510562D01*
X570240Y510556D01*
X570175Y510485D01*
X570128Y510409D01*
X570099Y510333D01*
X570076Y510262D01*
X570064Y510198D01*
X570052Y510151D01*
Y510116D01*
Y510110D01*
Y510104D01*
Y510039D01*
X570064Y509981D01*
X570093Y509881D01*
X570134Y509793D01*
X570181Y509717D01*
X570228Y509664D01*
X570269Y509623D01*
X570299Y509599D01*
X570304Y509594D01*
X570310D01*
X570410Y509541D01*
X570504Y509500D01*
X570604Y509470D01*
X570692Y509453D01*
X570768Y509441D01*
X570832Y509429D01*
X570909D01*
X570932Y509435D01*
X570962D01*
X571020Y508995D01*
X570944Y509013D01*
X570874Y509024D01*
X570815Y509036D01*
X570762Y509042D01*
X570721Y509048D01*
X570668D01*
X570545Y509036D01*
X570434Y509013D01*
X570334Y508977D01*
X570252Y508936D01*
X570187Y508895D01*
X570140Y508860D01*
X570111Y508837D01*
X570099Y508825D01*
X570023Y508737D01*
X569964Y508643D01*
X569923Y508549D01*
X569900Y508455D01*
X569882Y508379D01*
X569876Y508314D01*
X569870Y508291D01*
Y508273D01*
Y508262D01*
Y508256D01*
X569882Y508127D01*
X569911Y508009D01*
X569947Y507910D01*
X569993Y507822D01*
X570040Y507751D01*
X570076Y507698D01*
X570105Y507663D01*
X570117Y507651D01*
X570210Y507569D01*
X570310Y507511D01*
X570410Y507469D01*
X570504Y507440D01*
X570586Y507423D01*
X570651Y507417D01*
X570674Y507411D01*
X570709D01*
X570815Y507417D01*
X570915Y507440D01*
X571003Y507469D01*
X571073Y507505D01*
X571132Y507534D01*
X571179Y507563D01*
X571202Y507587D01*
X571214Y507593D01*
X571284Y507675D01*
X571343Y507769D01*
X571396Y507868D01*
X571437Y507974D01*
X571466Y508062D01*
X571478Y508103D01*
X571484Y508138D01*
X571490Y508168D01*
X571496Y508191D01*
X571501Y508203D01*
Y508209D01*
X572000Y508144D01*
X571988Y508050D01*
X571971Y507962D01*
X571918Y507798D01*
X571853Y507657D01*
X571818Y507599D01*
X571783Y507540D01*
X571748Y507487D01*
X571713Y507446D01*
X571683Y507405D01*
X571654Y507376D01*
X571636Y507352D01*
X571619Y507335D01*
X571607Y507323D01*
X571601Y507317D01*
X571531Y507264D01*
X571460Y507211D01*
X571390Y507170D01*
X571314Y507135D01*
X571167Y507076D01*
X571026Y507041D01*
X570962Y507029D01*
X570903Y507018D01*
X570850Y507012D01*
X570803Y507006D01*
X570768Y507000D01*
X570715D01*
X570604Y507006D01*
X570504Y507018D01*
X570404Y507035D01*
X570310Y507059D01*
X570222Y507088D01*
X570146Y507118D01*
X570070Y507153D01*
X570005Y507188D01*
X569941Y507217D01*
X569888Y507252D01*
X569841Y507282D01*
X569806Y507311D01*
X569776Y507335D01*
X569753Y507352D01*
X569741Y507364D01*
X569735Y507370D01*
X569665Y507440D01*
X569606Y507517D01*
X569553Y507593D01*
X569506Y507669D01*
X569471Y507739D01*
X569436Y507816D01*
X569389Y507957D01*
X569377Y508021D01*
X569366Y508080D01*
X569354Y508133D01*
X569348Y508180D01*
X569342Y508215D01*
Y508244D01*
Y508262D01*
Y508268D01*
X569348Y508408D01*
X569371Y508537D01*
X569407Y508649D01*
X569442Y508743D01*
X569477Y508819D01*
X569512Y508878D01*
X569536Y508913D01*
X569542Y508925D01*
X569624Y509013D01*
X569712Y509089D01*
X569806Y509148D01*
X569900Y509194D01*
X569982Y509230D01*
X570046Y509253D01*
X570070Y509259D01*
X570087Y509265D01*
X570099Y509271D01*
X570105D01*
X570005Y509324D01*
X569923Y509376D01*
X569853Y509435D01*
X569794Y509488D01*
X569747Y509535D01*
X569712Y509576D01*
X569694Y509599D01*
X569688Y509611D01*
X569641Y509693D01*
X569606Y509775D01*
X569577Y509858D01*
X569559Y509934D01*
X569548Y509998D01*
X569542Y510045D01*
Y510080D01*
Y510092D01*
X569548Y510192D01*
X569565Y510292D01*
X569589Y510380D01*
X569618Y510456D01*
X569647Y510521D01*
X569671Y510573D01*
X569688Y510603D01*
X569694Y510614D01*
X569753Y510703D01*
X569823Y510779D01*
X569894Y510843D01*
X569964Y510902D01*
X570023Y510943D01*
X570076Y510978D01*
X570111Y510996D01*
X570117Y511002D01*
X570122D01*
X570228Y511049D01*
X570334Y511084D01*
X570439Y511113D01*
X570533Y511131D01*
X570610Y511143D01*
X570674Y511148D01*
X570821D01*
X570903Y511137D01*
D02*
G37*
G36*
X1238903Y493137D02*
X1239061Y493107D01*
X1239196Y493060D01*
X1239314Y493013D01*
X1239366Y492984D01*
X1239408Y492961D01*
X1239448Y492937D01*
X1239478Y492914D01*
X1239501Y492896D01*
X1239519Y492884D01*
X1239531Y492878D01*
X1239537Y492873D01*
X1239648Y492761D01*
X1239736Y492638D01*
X1239807Y492509D01*
X1239865Y492380D01*
X1239900Y492268D01*
X1239918Y492221D01*
X1239930Y492180D01*
X1239936Y492145D01*
X1239941Y492122D01*
X1239947Y492104D01*
Y492098D01*
X1239448Y492010D01*
X1239425Y492139D01*
X1239390Y492251D01*
X1239349Y492345D01*
X1239308Y492421D01*
X1239267Y492479D01*
X1239231Y492520D01*
X1239208Y492550D01*
X1239202Y492556D01*
X1239126Y492614D01*
X1239044Y492661D01*
X1238967Y492691D01*
X1238891Y492714D01*
X1238821Y492726D01*
X1238768Y492738D01*
X1238721D01*
X1238615Y492732D01*
X1238521Y492708D01*
X1238439Y492679D01*
X1238369Y492650D01*
X1238316Y492614D01*
X1238275Y492585D01*
X1238246Y492562D01*
X1238240Y492556D01*
X1238175Y492485D01*
X1238128Y492409D01*
X1238099Y492333D01*
X1238076Y492262D01*
X1238064Y492198D01*
X1238052Y492151D01*
Y492116D01*
Y492110D01*
Y492104D01*
Y492039D01*
X1238064Y491981D01*
X1238093Y491881D01*
X1238134Y491793D01*
X1238181Y491717D01*
X1238228Y491664D01*
X1238269Y491623D01*
X1238298Y491599D01*
X1238304Y491594D01*
X1238310D01*
X1238410Y491541D01*
X1238504Y491500D01*
X1238604Y491470D01*
X1238692Y491453D01*
X1238768Y491441D01*
X1238832Y491429D01*
X1238909D01*
X1238932Y491435D01*
X1238962D01*
X1239020Y490995D01*
X1238944Y491013D01*
X1238874Y491024D01*
X1238815Y491036D01*
X1238762Y491042D01*
X1238721Y491048D01*
X1238668D01*
X1238545Y491036D01*
X1238434Y491013D01*
X1238334Y490977D01*
X1238252Y490936D01*
X1238187Y490895D01*
X1238140Y490860D01*
X1238111Y490837D01*
X1238099Y490825D01*
X1238023Y490737D01*
X1237964Y490643D01*
X1237923Y490549D01*
X1237900Y490455D01*
X1237882Y490379D01*
X1237876Y490314D01*
X1237870Y490291D01*
Y490273D01*
Y490262D01*
Y490256D01*
X1237882Y490127D01*
X1237911Y490009D01*
X1237946Y489910D01*
X1237993Y489822D01*
X1238040Y489751D01*
X1238076Y489698D01*
X1238105Y489663D01*
X1238117Y489651D01*
X1238211Y489569D01*
X1238310Y489510D01*
X1238410Y489469D01*
X1238504Y489440D01*
X1238586Y489422D01*
X1238651Y489417D01*
X1238674Y489411D01*
X1238709D01*
X1238815Y489417D01*
X1238915Y489440D01*
X1239003Y489469D01*
X1239073Y489505D01*
X1239132Y489534D01*
X1239179Y489563D01*
X1239202Y489587D01*
X1239214Y489593D01*
X1239284Y489675D01*
X1239343Y489769D01*
X1239396Y489868D01*
X1239437Y489974D01*
X1239466Y490062D01*
X1239478Y490103D01*
X1239484Y490138D01*
X1239490Y490168D01*
X1239495Y490191D01*
X1239501Y490203D01*
Y490209D01*
X1240000Y490144D01*
X1239988Y490050D01*
X1239971Y489962D01*
X1239918Y489798D01*
X1239853Y489657D01*
X1239818Y489599D01*
X1239783Y489540D01*
X1239748Y489487D01*
X1239713Y489446D01*
X1239683Y489405D01*
X1239654Y489376D01*
X1239636Y489352D01*
X1239619Y489334D01*
X1239607Y489323D01*
X1239601Y489317D01*
X1239531Y489264D01*
X1239460Y489211D01*
X1239390Y489170D01*
X1239314Y489135D01*
X1239167Y489076D01*
X1239026Y489041D01*
X1238962Y489029D01*
X1238903Y489018D01*
X1238850Y489012D01*
X1238803Y489006D01*
X1238768Y489000D01*
X1238715D01*
X1238604Y489006D01*
X1238504Y489018D01*
X1238404Y489035D01*
X1238310Y489059D01*
X1238222Y489088D01*
X1238146Y489117D01*
X1238070Y489153D01*
X1238005Y489188D01*
X1237941Y489217D01*
X1237888Y489252D01*
X1237841Y489282D01*
X1237806Y489311D01*
X1237776Y489334D01*
X1237753Y489352D01*
X1237741Y489364D01*
X1237735Y489370D01*
X1237665Y489440D01*
X1237606Y489516D01*
X1237553Y489593D01*
X1237506Y489669D01*
X1237471Y489739D01*
X1237436Y489816D01*
X1237389Y489956D01*
X1237377Y490021D01*
X1237366Y490080D01*
X1237354Y490132D01*
X1237348Y490179D01*
X1237342Y490215D01*
Y490244D01*
Y490262D01*
Y490267D01*
X1237348Y490408D01*
X1237372Y490537D01*
X1237407Y490649D01*
X1237442Y490743D01*
X1237477Y490819D01*
X1237512Y490878D01*
X1237536Y490913D01*
X1237542Y490925D01*
X1237624Y491013D01*
X1237712Y491089D01*
X1237806Y491147D01*
X1237900Y491194D01*
X1237982Y491230D01*
X1238046Y491253D01*
X1238070Y491259D01*
X1238087Y491265D01*
X1238099Y491271D01*
X1238105D01*
X1238005Y491324D01*
X1237923Y491376D01*
X1237853Y491435D01*
X1237794Y491488D01*
X1237747Y491535D01*
X1237712Y491576D01*
X1237694Y491599D01*
X1237688Y491611D01*
X1237641Y491693D01*
X1237606Y491775D01*
X1237577Y491857D01*
X1237559Y491934D01*
X1237548Y491998D01*
X1237542Y492045D01*
Y492080D01*
Y492092D01*
X1237548Y492192D01*
X1237565Y492292D01*
X1237589Y492380D01*
X1237618Y492456D01*
X1237647Y492520D01*
X1237671Y492573D01*
X1237688Y492603D01*
X1237694Y492614D01*
X1237753Y492702D01*
X1237823Y492779D01*
X1237894Y492843D01*
X1237964Y492902D01*
X1238023Y492943D01*
X1238076Y492978D01*
X1238111Y492996D01*
X1238117Y493002D01*
X1238122D01*
X1238228Y493049D01*
X1238334Y493084D01*
X1238439Y493113D01*
X1238533Y493131D01*
X1238609Y493142D01*
X1238674Y493148D01*
X1238821D01*
X1238903Y493137D01*
D02*
G37*
G36*
X570903Y261137D02*
X571061Y261107D01*
X571196Y261060D01*
X571314Y261013D01*
X571366Y260984D01*
X571408Y260961D01*
X571449Y260937D01*
X571478Y260914D01*
X571501Y260896D01*
X571519Y260884D01*
X571531Y260878D01*
X571537Y260873D01*
X571648Y260761D01*
X571736Y260638D01*
X571806Y260509D01*
X571865Y260380D01*
X571900Y260268D01*
X571918Y260221D01*
X571930Y260180D01*
X571936Y260145D01*
X571941Y260121D01*
X571947Y260104D01*
Y260098D01*
X571449Y260010D01*
X571425Y260139D01*
X571390Y260251D01*
X571349Y260345D01*
X571308Y260421D01*
X571267Y260479D01*
X571231Y260520D01*
X571208Y260550D01*
X571202Y260556D01*
X571126Y260614D01*
X571044Y260661D01*
X570967Y260691D01*
X570891Y260714D01*
X570821Y260726D01*
X570768Y260738D01*
X570721D01*
X570615Y260732D01*
X570522Y260708D01*
X570439Y260679D01*
X570369Y260650D01*
X570316Y260614D01*
X570275Y260585D01*
X570246Y260562D01*
X570240Y260556D01*
X570175Y260485D01*
X570128Y260409D01*
X570099Y260333D01*
X570076Y260262D01*
X570064Y260198D01*
X570052Y260151D01*
Y260116D01*
Y260110D01*
Y260104D01*
Y260039D01*
X570064Y259981D01*
X570093Y259881D01*
X570134Y259793D01*
X570181Y259717D01*
X570228Y259664D01*
X570269Y259623D01*
X570299Y259599D01*
X570304Y259594D01*
X570310D01*
X570410Y259541D01*
X570504Y259500D01*
X570604Y259470D01*
X570692Y259453D01*
X570768Y259441D01*
X570832Y259429D01*
X570909D01*
X570932Y259435D01*
X570962D01*
X571020Y258995D01*
X570944Y259013D01*
X570874Y259024D01*
X570815Y259036D01*
X570762Y259042D01*
X570721Y259048D01*
X570668D01*
X570545Y259036D01*
X570434Y259013D01*
X570334Y258977D01*
X570252Y258936D01*
X570187Y258895D01*
X570140Y258860D01*
X570111Y258837D01*
X570099Y258825D01*
X570023Y258737D01*
X569964Y258643D01*
X569923Y258549D01*
X569900Y258455D01*
X569882Y258379D01*
X569876Y258314D01*
X569870Y258291D01*
Y258273D01*
Y258262D01*
Y258256D01*
X569882Y258127D01*
X569911Y258009D01*
X569947Y257910D01*
X569993Y257822D01*
X570040Y257751D01*
X570076Y257698D01*
X570105Y257663D01*
X570117Y257651D01*
X570210Y257569D01*
X570310Y257511D01*
X570410Y257470D01*
X570504Y257440D01*
X570586Y257423D01*
X570651Y257417D01*
X570674Y257411D01*
X570709D01*
X570815Y257417D01*
X570915Y257440D01*
X571003Y257470D01*
X571073Y257505D01*
X571132Y257534D01*
X571179Y257563D01*
X571202Y257587D01*
X571214Y257593D01*
X571284Y257675D01*
X571343Y257769D01*
X571396Y257868D01*
X571437Y257974D01*
X571466Y258062D01*
X571478Y258103D01*
X571484Y258138D01*
X571490Y258168D01*
X571496Y258191D01*
X571501Y258203D01*
Y258209D01*
X572000Y258144D01*
X571988Y258050D01*
X571971Y257962D01*
X571918Y257798D01*
X571853Y257657D01*
X571818Y257598D01*
X571783Y257540D01*
X571748Y257487D01*
X571713Y257446D01*
X571683Y257405D01*
X571654Y257376D01*
X571636Y257352D01*
X571619Y257334D01*
X571607Y257323D01*
X571601Y257317D01*
X571531Y257264D01*
X571460Y257211D01*
X571390Y257170D01*
X571314Y257135D01*
X571167Y257076D01*
X571026Y257041D01*
X570962Y257029D01*
X570903Y257018D01*
X570850Y257012D01*
X570803Y257006D01*
X570768Y257000D01*
X570715D01*
X570604Y257006D01*
X570504Y257018D01*
X570404Y257035D01*
X570310Y257059D01*
X570222Y257088D01*
X570146Y257117D01*
X570070Y257153D01*
X570005Y257188D01*
X569941Y257217D01*
X569888Y257252D01*
X569841Y257282D01*
X569806Y257311D01*
X569776Y257334D01*
X569753Y257352D01*
X569741Y257364D01*
X569735Y257370D01*
X569665Y257440D01*
X569606Y257516D01*
X569553Y257593D01*
X569506Y257669D01*
X569471Y257739D01*
X569436Y257816D01*
X569389Y257957D01*
X569377Y258021D01*
X569366Y258080D01*
X569354Y258132D01*
X569348Y258179D01*
X569342Y258215D01*
Y258244D01*
Y258262D01*
Y258267D01*
X569348Y258408D01*
X569371Y258537D01*
X569407Y258649D01*
X569442Y258743D01*
X569477Y258819D01*
X569512Y258878D01*
X569536Y258913D01*
X569542Y258925D01*
X569624Y259013D01*
X569712Y259089D01*
X569806Y259147D01*
X569900Y259195D01*
X569982Y259230D01*
X570046Y259253D01*
X570070Y259259D01*
X570087Y259265D01*
X570099Y259271D01*
X570105D01*
X570005Y259324D01*
X569923Y259376D01*
X569853Y259435D01*
X569794Y259488D01*
X569747Y259535D01*
X569712Y259576D01*
X569694Y259599D01*
X569688Y259611D01*
X569641Y259693D01*
X569606Y259775D01*
X569577Y259858D01*
X569559Y259934D01*
X569548Y259998D01*
X569542Y260045D01*
Y260081D01*
Y260092D01*
X569548Y260192D01*
X569565Y260292D01*
X569589Y260380D01*
X569618Y260456D01*
X569647Y260520D01*
X569671Y260573D01*
X569688Y260603D01*
X569694Y260614D01*
X569753Y260702D01*
X569823Y260779D01*
X569894Y260843D01*
X569964Y260902D01*
X570023Y260943D01*
X570076Y260978D01*
X570111Y260996D01*
X570117Y261002D01*
X570122D01*
X570228Y261049D01*
X570334Y261084D01*
X570439Y261113D01*
X570533Y261131D01*
X570610Y261143D01*
X570674Y261148D01*
X570821D01*
X570903Y261137D01*
D02*
G37*
D11*
X474561Y394561D02*
G03*
X482000Y412521I-17960J17960D01*
G01*
X450995Y381516D02*
G03*
X468956Y388956I0J25400D01*
G01*
X977013Y371625D02*
X978270Y370368D01*
X970940Y371625D02*
X977013D01*
X978270Y370368D02*
X1019333D01*
X1025965Y377000D01*
X970000Y425000D02*
X1006044D01*
X1021210Y404846D02*
Y409834D01*
X1006044Y425000D02*
X1021210Y409834D01*
X497000Y286000D02*
Y316000D01*
X482332Y330668D02*
X497000Y316000D01*
X439668Y330668D02*
X482332D01*
X394591Y285591D02*
X439668Y330668D01*
X370422Y285591D02*
X394591D01*
X401990Y319072D02*
X413072D01*
X433000Y339000D02*
X485000D01*
X413072Y319072D02*
X433000Y339000D01*
X1121306Y409090D02*
Y411630D01*
Y409090D02*
X1121767Y408629D01*
X1121306Y411630D02*
X1129575Y419899D01*
X1121767Y404675D02*
Y408629D01*
Y404675D02*
X1122142Y404300D01*
X378564Y293732D02*
Y328437D01*
X378500Y328500D02*
X378564Y328437D01*
X1205860Y395283D02*
X1206000Y395143D01*
Y362000D02*
Y395143D01*
X395537Y325463D02*
X395600D01*
X485000Y339000D02*
X503748Y320252D01*
X395600Y325463D02*
X401990Y319072D01*
X395537Y325463D02*
Y325625D01*
X439273Y381586D02*
X439343Y381516D01*
X450995D01*
X468956Y388956D02*
X474561Y394561D01*
X482000Y412521D02*
Y419575D01*
X370422Y285591D02*
X378564Y293732D01*
X503531Y480000D02*
X504800Y478730D01*
X503000Y480000D02*
X503531D01*
X504800Y478730D02*
X578130D01*
X586400Y487000D01*
X1210000Y341470D02*
X1214000Y345470D01*
Y346000D01*
X1210000Y293000D02*
Y341470D01*
X874545Y319025D02*
Y319830D01*
X891000Y320000D02*
X915000Y296000D01*
X959000D01*
X887465Y305015D02*
X909000Y283480D01*
X887465Y305015D02*
Y306105D01*
X866653Y318347D02*
X905330Y279670D01*
X874545Y319025D02*
X887465Y306105D01*
X959000Y296000D02*
X963000Y300000D01*
X1040000D01*
X1049000Y291000D01*
X1173000D01*
X1175000Y293000D01*
Y331000D01*
X1206000Y362000D01*
X1191526Y338956D02*
X1198246Y345676D01*
X1182000Y332612D02*
X1188344Y338956D01*
X1182000Y292488D02*
Y332612D01*
X1188344Y338956D02*
X1191526D01*
X866653Y318347D02*
Y320877D01*
X863000Y324530D02*
X866653Y320877D01*
X863000Y324530D02*
Y325060D01*
X909000Y283480D02*
X1172992D01*
X1196670Y279670D02*
X1210000Y293000D01*
X905330Y279670D02*
X1196670D01*
X1172992Y283480D02*
X1182000Y292488D01*
X474561Y644561D02*
G03*
X482000Y662521I-17960J17960D01*
G01*
X450995Y631516D02*
G03*
X468956Y638956I0J25400D01*
G01*
X977013Y621625D02*
X978270Y620368D01*
X970940Y621625D02*
X977013D01*
X978270Y620368D02*
X1019333D01*
X1025965Y627000D01*
X970000Y675000D02*
X1006044D01*
X1021210Y654846D02*
Y659834D01*
X1006044Y675000D02*
X1021210Y659834D01*
X497000Y536000D02*
Y566000D01*
X482332Y580668D02*
X497000Y566000D01*
X439668Y580668D02*
X482332D01*
X394591Y535591D02*
X439668Y580668D01*
X370422Y535591D02*
X394591D01*
X401990Y569072D02*
X413072D01*
X433000Y589000D02*
X485000D01*
X413072Y569072D02*
X433000Y589000D01*
X1121306Y659090D02*
Y661630D01*
Y659090D02*
X1121767Y658629D01*
X1121306Y661630D02*
X1129575Y669899D01*
X1121767Y654675D02*
Y658629D01*
Y654675D02*
X1122142Y654300D01*
X378564Y543732D02*
Y578437D01*
X378500Y578500D02*
X378564Y578437D01*
X1205860Y645283D02*
X1206000Y645143D01*
Y612000D02*
Y645143D01*
X395537Y575463D02*
X395600D01*
X485000Y589000D02*
X503748Y570252D01*
X395600Y575463D02*
X401990Y569072D01*
X395537Y575463D02*
Y575625D01*
X439273Y631586D02*
X439343Y631516D01*
X450995D01*
X468956Y638956D02*
X474561Y644561D01*
X482000Y662521D02*
Y669575D01*
X370422Y535591D02*
X378564Y543732D01*
X503531Y730000D02*
X504800Y728730D01*
X503000Y730000D02*
X503531D01*
X504800Y728730D02*
X578130D01*
X586400Y737000D01*
X1210000Y591470D02*
X1214000Y595470D01*
Y596000D01*
X1210000Y543000D02*
Y591470D01*
X874545Y569025D02*
Y569830D01*
X891000Y570000D02*
X915000Y546000D01*
X959000D01*
X887465Y555015D02*
X909000Y533480D01*
X887465Y555015D02*
Y556105D01*
X866653Y568347D02*
X905330Y529670D01*
X874545Y569025D02*
X887465Y556105D01*
X959000Y546000D02*
X963000Y550000D01*
X1040000D01*
X1049000Y541000D01*
X1173000D01*
X1175000Y543000D01*
Y581000D01*
X1206000Y612000D01*
X1191526Y588956D02*
X1198246Y595676D01*
X1182000Y582612D02*
X1188344Y588956D01*
X1182000Y542488D02*
Y582612D01*
X1188344Y588956D02*
X1191526D01*
X866653Y568347D02*
Y570877D01*
X863000Y574530D02*
X866653Y570877D01*
X863000Y574530D02*
Y575060D01*
X909000Y533480D02*
X1172992D01*
X1196670Y529670D02*
X1210000Y543000D01*
X905330Y529670D02*
X1196670D01*
X1172992Y533480D02*
X1182000Y542488D01*
X474561Y894561D02*
G03*
X482000Y912521I-17960J17960D01*
G01*
X450995Y881516D02*
G03*
X468956Y888956I0J25400D01*
G01*
X977013Y871625D02*
X978270Y870368D01*
X970940Y871625D02*
X977013D01*
X978270Y870368D02*
X1019333D01*
X1025965Y877000D01*
X970000Y925000D02*
X1006044D01*
X1021210Y904846D02*
Y909834D01*
X1006044Y925000D02*
X1021210Y909834D01*
X497000Y786000D02*
Y816000D01*
X482332Y830668D02*
X497000Y816000D01*
X439668Y830668D02*
X482332D01*
X394591Y785591D02*
X439668Y830668D01*
X370422Y785591D02*
X394591D01*
X401990Y819072D02*
X413072D01*
X433000Y839000D02*
X485000D01*
X413072Y819072D02*
X433000Y839000D01*
X1121306Y909090D02*
Y911630D01*
Y909090D02*
X1121767Y908629D01*
X1121306Y911630D02*
X1129575Y919899D01*
X1121767Y904675D02*
Y908629D01*
Y904675D02*
X1122142Y904300D01*
X378564Y793732D02*
Y828437D01*
X378500Y828500D02*
X378564Y828437D01*
X1205860Y895283D02*
X1206000Y895143D01*
Y862000D02*
Y895143D01*
X395537Y825463D02*
X395600D01*
X485000Y839000D02*
X503748Y820252D01*
X395600Y825463D02*
X401990Y819072D01*
X395537Y825463D02*
Y825625D01*
X439273Y881587D02*
X439343Y881516D01*
X450995D01*
X468956Y888956D02*
X474561Y894561D01*
X482000Y912521D02*
Y919575D01*
X370422Y785591D02*
X378564Y793732D01*
X503531Y980000D02*
X504800Y978730D01*
X503000Y980000D02*
X503531D01*
X504800Y978730D02*
X578130D01*
X586400Y987000D01*
X1210000Y841470D02*
X1214000Y845470D01*
Y846000D01*
X1210000Y793000D02*
Y841470D01*
X874545Y819025D02*
Y819830D01*
X891000Y820000D02*
X915000Y796000D01*
X959000D01*
X887465Y805015D02*
X909000Y783480D01*
X887465Y805015D02*
Y806105D01*
X866653Y818347D02*
X905330Y779670D01*
X874545Y819025D02*
X887465Y806105D01*
X959000Y796000D02*
X963000Y800000D01*
X1040000D01*
X1049000Y791000D01*
X1173000D01*
X1175000Y793000D01*
Y831000D01*
X1206000Y862000D01*
X1191526Y838956D02*
X1198246Y845676D01*
X1182000Y832612D02*
X1188344Y838956D01*
X1182000Y792488D02*
Y832612D01*
X1188344Y838956D02*
X1191526D01*
X866653Y818347D02*
Y820877D01*
X863000Y824530D02*
X866653Y820877D01*
X863000Y824530D02*
Y825060D01*
X909000Y783480D02*
X1172992D01*
X1196670Y779670D02*
X1210000Y793000D01*
X905330Y779670D02*
X1196670D01*
X1172992Y783480D02*
X1182000Y792488D01*
X474561Y1144561D02*
G03*
X482000Y1162521I-17960J17960D01*
G01*
X450995Y1131516D02*
G03*
X468956Y1138956I0J25400D01*
G01*
X977013Y1121625D02*
X978270Y1120368D01*
X970940Y1121625D02*
X977013D01*
X978270Y1120368D02*
X1019333D01*
X1025965Y1127000D01*
X970000Y1175000D02*
X1006044D01*
X1021210Y1154846D02*
Y1159834D01*
X1006044Y1175000D02*
X1021210Y1159834D01*
X497000Y1036000D02*
Y1066000D01*
X482332Y1080668D02*
X497000Y1066000D01*
X439668Y1080668D02*
X482332D01*
X394591Y1035591D02*
X439668Y1080668D01*
X370422Y1035591D02*
X394591D01*
X401990Y1069072D02*
X413072D01*
X433000Y1089000D02*
X485000D01*
X413072Y1069072D02*
X433000Y1089000D01*
X1121306Y1159090D02*
Y1161630D01*
Y1159090D02*
X1121767Y1158629D01*
X1121306Y1161630D02*
X1129575Y1169899D01*
X1121767Y1154675D02*
Y1158629D01*
Y1154675D02*
X1122142Y1154300D01*
X378564Y1043732D02*
Y1078437D01*
X378500Y1078500D02*
X378564Y1078437D01*
X1205860Y1145283D02*
X1206000Y1145143D01*
Y1112000D02*
Y1145143D01*
X395537Y1075463D02*
X395600D01*
X485000Y1089000D02*
X503748Y1070252D01*
X395600Y1075463D02*
X401990Y1069072D01*
X395537Y1075463D02*
Y1075625D01*
X439273Y1131587D02*
X439343Y1131516D01*
X450995D01*
X468956Y1138956D02*
X474561Y1144561D01*
X482000Y1162521D02*
Y1169575D01*
X370422Y1035591D02*
X378564Y1043732D01*
X503531Y1230000D02*
X504800Y1228730D01*
X503000Y1230000D02*
X503531D01*
X504800Y1228730D02*
X578130D01*
X586400Y1237000D01*
X1210000Y1091470D02*
X1214000Y1095470D01*
Y1096000D01*
X1210000Y1043000D02*
Y1091470D01*
X874545Y1069025D02*
Y1069830D01*
X891000Y1070000D02*
X915000Y1046000D01*
X959000D01*
X887465Y1055015D02*
X909000Y1033480D01*
X887465Y1055015D02*
Y1056105D01*
X866653Y1068347D02*
X905330Y1029670D01*
X874545Y1069025D02*
X887465Y1056105D01*
X959000Y1046000D02*
X963000Y1050000D01*
X1040000D01*
X1049000Y1041000D01*
X1173000D01*
X1175000Y1043000D01*
Y1081000D01*
X1206000Y1112000D01*
X1191526Y1088956D02*
X1198246Y1095676D01*
X1182000Y1082612D02*
X1188344Y1088956D01*
X1182000Y1042488D02*
Y1082612D01*
X1188344Y1088956D02*
X1191526D01*
X866653Y1068347D02*
Y1070877D01*
X863000Y1074530D02*
X866653Y1070877D01*
X863000Y1074530D02*
Y1075060D01*
X909000Y1033480D02*
X1172992D01*
X1196670Y1029670D02*
X1210000Y1043000D01*
X905330Y1029670D02*
X1196670D01*
X1172992Y1033480D02*
X1182000Y1042488D01*
D47*
X891919Y360933D02*
X895890Y364905D01*
Y368613D02*
X896338Y369060D01*
X895890Y364905D02*
Y368613D01*
X917000Y345446D02*
X926729Y355174D01*
X573000Y254000D02*
Y264000D01*
X577256Y254000D02*
X578000Y254744D01*
Y263256D01*
X573000Y254000D02*
X577256D01*
X563000D02*
Y264000D01*
X568000Y254500D02*
Y257000D01*
Y263500D01*
X559744Y254000D02*
X563000D01*
X559000Y254744D02*
X559744Y254000D01*
X563000Y264000D02*
X568000D01*
X573000D01*
X559000Y263256D02*
X559744Y264000D01*
X563000Y254000D02*
X568000D01*
X559744Y264000D02*
X563000D01*
X559000Y254744D02*
Y263256D01*
X568000Y254000D02*
X573000D01*
X577256Y264000D02*
X578000Y263256D01*
X573000Y264000D02*
X577256D01*
X1241000Y496000D02*
X1245256D01*
X1246000Y495256D01*
X1236000Y486000D02*
X1241000D01*
X1227000Y486744D02*
Y495256D01*
X1227744Y496000D02*
X1231000D01*
Y486000D02*
X1236000D01*
X1227000Y495256D02*
X1227744Y496000D01*
X1236000D02*
X1241000D01*
X1231000D02*
X1236000D01*
X1227000Y486744D02*
X1227744Y486000D01*
X1231000D01*
X1236000Y489000D02*
Y495500D01*
Y486500D02*
Y489000D01*
X1231000Y486000D02*
Y496000D01*
X1241000Y486000D02*
X1245256D01*
X1246000Y486744D02*
Y495256D01*
X1245256Y486000D02*
X1246000Y486744D01*
X1241000Y486000D02*
Y496000D01*
X408663Y281255D02*
X434000Y306592D01*
X441460Y316460D02*
X442000Y317000D01*
X441460Y310460D02*
Y316460D01*
X434000Y306592D02*
Y315000D01*
X400291Y445709D02*
X414000Y432000D01*
X352231Y445709D02*
X400291D01*
X324665Y444335D02*
X350858D01*
X352231Y445709D01*
X433000Y281000D02*
X467000Y315000D01*
X409715Y278715D02*
X441460Y310460D01*
X423500Y281000D02*
X433000D01*
X448342Y313342D02*
Y316643D01*
X449358Y317659D01*
X454385Y316261D02*
X456000Y317876D01*
X390065Y278715D02*
X409715D01*
X412543Y273635D02*
X454385Y315477D01*
Y316261D01*
X411175Y276175D02*
X448342Y313342D01*
X391586Y276175D02*
X411175D01*
X456000Y317876D02*
Y318750D01*
X448960Y318056D02*
X449358Y317659D01*
X378793Y281255D02*
X408663D01*
X392638Y273635D02*
X412543D01*
X408500Y266000D02*
X423500Y281000D01*
X357700Y266000D02*
X369326Y277626D01*
X383100Y266000D02*
X385003D01*
X390496Y275086D02*
X391586Y276175D01*
X377704Y280166D02*
X378793Y281255D01*
X370400Y266000D02*
X379486Y275086D01*
X347835Y280166D02*
X377704D01*
X379486Y275086D02*
X390496D01*
X369326Y277626D02*
X388976D01*
X385003Y266000D02*
X392638Y273635D01*
X388976Y277626D02*
X390065Y278715D01*
X345000Y266000D02*
Y277331D01*
X347835Y280166D01*
X336534Y402036D02*
X340486D01*
X336440Y402130D02*
X336534Y402036D01*
X340486D02*
X347062Y395460D01*
X349000Y398000D02*
X360000D01*
X347062Y395460D02*
X361052D01*
X348339Y398661D02*
Y401851D01*
Y398661D02*
X349000Y398000D01*
X348339Y401851D02*
X348560Y402072D01*
X432000Y425000D02*
X487000D01*
X407408Y404000D02*
X430948Y427540D01*
X366000Y404000D02*
X407408D01*
X408460Y401460D02*
X432000Y425000D01*
X430948Y427540D02*
X488052D01*
X367052Y401460D02*
X408460D01*
X488052Y427540D02*
X501053Y414540D01*
X797865Y261135D02*
X801269Y257731D01*
X898254D01*
X797865Y261135D02*
Y267135D01*
X919987Y259988D02*
Y264788D01*
X917731Y257731D02*
X919987Y259988D01*
X898254Y257731D02*
X917731D01*
X919987Y264788D02*
X921200Y266000D01*
X898254Y257731D02*
X898254Y257731D01*
X791000Y274000D02*
X797865Y267135D01*
X890934Y360933D02*
X891919D01*
X887133Y357133D02*
X890934Y360933D01*
X878376Y336376D02*
X887133Y345133D01*
Y357133D01*
X856376Y309368D02*
Y335632D01*
X857120Y336376D01*
X878376D01*
X856376Y309368D02*
X861259Y304485D01*
X870515D01*
X883100Y291900D01*
Y266000D02*
Y291900D01*
X864000Y294000D02*
X870400Y287600D01*
X864000Y294000D02*
Y299060D01*
X870400Y266000D02*
Y287600D01*
X929939Y318923D02*
X930425Y319409D01*
X916708Y320293D02*
X917149Y319851D01*
X935434Y314400D02*
X946600D01*
X930911Y318923D02*
X935434Y314400D01*
X929939Y318923D02*
X930911D01*
X929011Y319851D02*
X929939Y318923D01*
X917149Y319851D02*
X929011D01*
X915458Y327221D02*
X916076Y327839D01*
Y331086D02*
X917000Y332011D01*
X916076Y327839D02*
Y331086D01*
X915303Y313485D02*
X926287Y302500D01*
X914914Y313485D02*
X915303D01*
X917000Y332011D02*
Y335123D01*
X919675Y337798D02*
Y342292D01*
X917000Y344967D02*
Y345446D01*
Y335123D02*
X919675Y337798D01*
X917000Y344967D02*
X919675Y342292D01*
X498513Y408147D02*
Y413488D01*
X487000Y425000D02*
X498513Y413488D01*
X495764Y405398D02*
X498513Y408147D01*
X495565Y405398D02*
X495764D01*
X487000Y425000D02*
X487000Y425000D01*
X361052Y395460D02*
X367052Y401460D01*
X501053Y408147D02*
X504000Y405199D01*
Y405000D02*
Y405199D01*
X501053Y408147D02*
Y414540D01*
X360000Y398000D02*
X366000Y404000D01*
X891919Y610934D02*
X895890Y614905D01*
Y618613D02*
X896338Y619060D01*
X895890Y614905D02*
Y618613D01*
X917000Y595446D02*
X926729Y605174D01*
X573000Y504000D02*
Y514000D01*
X577256Y504000D02*
X578000Y504744D01*
Y513256D01*
X573000Y504000D02*
X577256D01*
X563000D02*
Y514000D01*
X568000Y504500D02*
Y507000D01*
Y513500D01*
X559744Y504000D02*
X563000D01*
X559000Y504744D02*
X559744Y504000D01*
X563000Y514000D02*
X568000D01*
X573000D01*
X559000Y513256D02*
X559744Y514000D01*
X563000Y504000D02*
X568000D01*
X559744Y514000D02*
X563000D01*
X559000Y504744D02*
Y513256D01*
X568000Y504000D02*
X573000D01*
X577256Y514000D02*
X578000Y513256D01*
X573000Y514000D02*
X577256D01*
X1241000Y746000D02*
X1245256D01*
X1246000Y745256D01*
X1236000Y736000D02*
X1241000D01*
X1227000Y736744D02*
Y745256D01*
X1227744Y746000D02*
X1231000D01*
Y736000D02*
X1236000D01*
X1227000Y745256D02*
X1227744Y746000D01*
X1236000D02*
X1241000D01*
X1231000D02*
X1236000D01*
X1227000Y736744D02*
X1227744Y736000D01*
X1231000D01*
X1236000Y739000D02*
Y745500D01*
Y736500D02*
Y739000D01*
X1231000Y736000D02*
Y746000D01*
X1241000Y736000D02*
X1245256D01*
X1246000Y736744D02*
Y745256D01*
X1245256Y736000D02*
X1246000Y736744D01*
X1241000Y736000D02*
Y746000D01*
X408663Y531255D02*
X434000Y556592D01*
X441460Y566460D02*
X442000Y567000D01*
X441460Y560460D02*
Y566460D01*
X434000Y556592D02*
Y565000D01*
X400291Y695709D02*
X414000Y682000D01*
X352231Y695709D02*
X400291D01*
X324665Y694335D02*
X350858D01*
X352231Y695709D01*
X433000Y531000D02*
X467000Y565000D01*
X409715Y528715D02*
X441460Y560460D01*
X423500Y531000D02*
X433000D01*
X448342Y563342D02*
Y566643D01*
X449358Y567659D01*
X454385Y566261D02*
X456000Y567876D01*
X390065Y528715D02*
X409715D01*
X412543Y523635D02*
X454385Y565477D01*
Y566261D01*
X411175Y526175D02*
X448342Y563342D01*
X391586Y526175D02*
X411175D01*
X456000Y567876D02*
Y568750D01*
X448960Y568056D02*
X449358Y567659D01*
X378793Y531255D02*
X408663D01*
X392638Y523635D02*
X412543D01*
X408500Y516000D02*
X423500Y531000D01*
X357700Y516000D02*
X369326Y527626D01*
X383100Y516000D02*
X385003D01*
X390496Y525086D02*
X391586Y526175D01*
X377704Y530166D02*
X378793Y531255D01*
X370400Y516000D02*
X379486Y525086D01*
X347835Y530166D02*
X377704D01*
X379486Y525086D02*
X390496D01*
X369326Y527626D02*
X388976D01*
X385003Y516000D02*
X392638Y523635D01*
X388976Y527626D02*
X390065Y528715D01*
X345000Y516000D02*
Y527331D01*
X347835Y530166D01*
X336534Y652036D02*
X340486D01*
X336440Y652130D02*
X336534Y652036D01*
X340486D02*
X347062Y645460D01*
X349000Y648000D02*
X360000D01*
X347062Y645460D02*
X361052D01*
X348339Y648661D02*
Y651851D01*
Y648661D02*
X349000Y648000D01*
X348339Y651851D02*
X348560Y652072D01*
X432000Y675000D02*
X487000D01*
X407408Y654000D02*
X430948Y677540D01*
X366000Y654000D02*
X407408D01*
X408460Y651460D02*
X432000Y675000D01*
X430948Y677540D02*
X488052D01*
X367052Y651460D02*
X408460D01*
X488052Y677540D02*
X501053Y664540D01*
X797865Y511135D02*
X801269Y507731D01*
X898254D01*
X797865Y511135D02*
Y517135D01*
X919987Y509987D02*
Y514788D01*
X917731Y507731D02*
X919987Y509987D01*
X898254Y507731D02*
X917731D01*
X919987Y514788D02*
X921200Y516000D01*
X898254Y507731D02*
X898254Y507731D01*
X791000Y524000D02*
X797865Y517135D01*
X890934Y610934D02*
X891919D01*
X887133Y607133D02*
X890934Y610934D01*
X878376Y586376D02*
X887133Y595133D01*
Y607133D01*
X856376Y559369D02*
Y585632D01*
X857120Y586376D01*
X878376D01*
X856376Y559369D02*
X861259Y554485D01*
X870515D01*
X883100Y541900D01*
Y516000D02*
Y541900D01*
X864000Y544000D02*
X870400Y537600D01*
X864000Y544000D02*
Y549060D01*
X870400Y516000D02*
Y537600D01*
X929939Y568923D02*
X930425Y569409D01*
X916708Y570293D02*
X917149Y569851D01*
X935434Y564400D02*
X946600D01*
X930911Y568923D02*
X935434Y564400D01*
X929939Y568923D02*
X930911D01*
X929011Y569851D02*
X929939Y568923D01*
X917149Y569851D02*
X929011D01*
X915458Y577221D02*
X916076Y577839D01*
Y581086D02*
X917000Y582011D01*
X916076Y577839D02*
Y581086D01*
X915303Y563485D02*
X926287Y552501D01*
X914914Y563485D02*
X915303D01*
X917000Y582011D02*
Y585123D01*
X919675Y587798D02*
Y592293D01*
X917000Y594967D02*
Y595446D01*
Y585123D02*
X919675Y587798D01*
X917000Y594967D02*
X919675Y592293D01*
X498513Y658147D02*
Y663488D01*
X487000Y675000D02*
X498513Y663488D01*
X495764Y655398D02*
X498513Y658147D01*
X495565Y655398D02*
X495764D01*
X487000Y675000D02*
X487000Y675000D01*
X361052Y645460D02*
X367052Y651460D01*
X501053Y658147D02*
X504000Y655199D01*
Y655000D02*
Y655199D01*
X501053Y658147D02*
Y664540D01*
X360000Y648000D02*
X366000Y654000D01*
X891919Y860934D02*
X895890Y864905D01*
Y868613D02*
X896338Y869060D01*
X895890Y864905D02*
Y868613D01*
X917000Y845446D02*
X926729Y855174D01*
X573000Y754000D02*
Y764000D01*
X577256Y754000D02*
X578000Y754744D01*
Y763256D01*
X573000Y754000D02*
X577256D01*
X563000D02*
Y764000D01*
X568000Y754500D02*
Y757000D01*
Y763500D01*
X559744Y754000D02*
X563000D01*
X559000Y754744D02*
X559744Y754000D01*
X563000Y764000D02*
X568000D01*
X573000D01*
X559000Y763256D02*
X559744Y764000D01*
X563000Y754000D02*
X568000D01*
X559744Y764000D02*
X563000D01*
X559000Y754744D02*
Y763256D01*
X568000Y754000D02*
X573000D01*
X577256Y764000D02*
X578000Y763256D01*
X573000Y764000D02*
X577256D01*
X1241000Y996000D02*
X1245256D01*
X1246000Y995256D01*
X1236000Y986000D02*
X1241000D01*
X1227000Y986744D02*
Y995256D01*
X1227744Y996000D02*
X1231000D01*
Y986000D02*
X1236000D01*
X1227000Y995256D02*
X1227744Y996000D01*
X1236000D02*
X1241000D01*
X1231000D02*
X1236000D01*
X1227000Y986744D02*
X1227744Y986000D01*
X1231000D01*
X1236000Y989000D02*
Y995500D01*
Y986500D02*
Y989000D01*
X1231000Y986000D02*
Y996000D01*
X1241000Y986000D02*
X1245256D01*
X1246000Y986744D02*
Y995256D01*
X1245256Y986000D02*
X1246000Y986744D01*
X1241000Y986000D02*
Y996000D01*
X408663Y781255D02*
X434000Y806592D01*
X441460Y816460D02*
X442000Y817000D01*
X441460Y810460D02*
Y816460D01*
X434000Y806592D02*
Y815000D01*
X400291Y945709D02*
X414000Y932000D01*
X352231Y945709D02*
X400291D01*
X324665Y944335D02*
X350858D01*
X352231Y945709D01*
X433000Y781000D02*
X467000Y815000D01*
X409715Y778715D02*
X441460Y810460D01*
X423500Y781000D02*
X433000D01*
X448342Y813342D02*
Y816644D01*
X449358Y817659D01*
X454385Y816261D02*
X456000Y817876D01*
X390065Y778715D02*
X409715D01*
X412543Y773635D02*
X454385Y815478D01*
Y816261D01*
X411175Y776175D02*
X448342Y813342D01*
X391586Y776175D02*
X411175D01*
X456000Y817876D02*
Y818750D01*
X448960Y818056D02*
X449358Y817659D01*
X378793Y781255D02*
X408663D01*
X392638Y773635D02*
X412543D01*
X408500Y766000D02*
X423500Y781000D01*
X357700Y766000D02*
X369326Y777626D01*
X383100Y766000D02*
X385003D01*
X390496Y775086D02*
X391586Y776175D01*
X377704Y780166D02*
X378793Y781255D01*
X370400Y766000D02*
X379486Y775086D01*
X347835Y780166D02*
X377704D01*
X379486Y775086D02*
X390496D01*
X369326Y777626D02*
X388976D01*
X385003Y766000D02*
X392638Y773635D01*
X388976Y777626D02*
X390065Y778715D01*
X345000Y766000D02*
Y777331D01*
X347835Y780166D01*
X336534Y902036D02*
X340486D01*
X336440Y902130D02*
X336534Y902036D01*
X340486D02*
X347062Y895460D01*
X349000Y898000D02*
X360000D01*
X347062Y895460D02*
X361052D01*
X348339Y898661D02*
Y901851D01*
Y898661D02*
X349000Y898000D01*
X348339Y901851D02*
X348560Y902072D01*
X432000Y925000D02*
X487000D01*
X407408Y904000D02*
X430948Y927540D01*
X366000Y904000D02*
X407408D01*
X408460Y901460D02*
X432000Y925000D01*
X430948Y927540D02*
X488052D01*
X367052Y901460D02*
X408460D01*
X488052Y927540D02*
X501053Y914540D01*
X797865Y761135D02*
X801269Y757731D01*
X898254D01*
X797865Y761135D02*
Y767135D01*
X919987Y759988D02*
Y764788D01*
X917731Y757731D02*
X919987Y759988D01*
X898254Y757731D02*
X917731D01*
X919987Y764788D02*
X921200Y766000D01*
X898254Y757731D02*
X898254Y757731D01*
X791000Y774000D02*
X797865Y767135D01*
X890934Y860934D02*
X891919D01*
X887133Y857133D02*
X890934Y860934D01*
X878376Y836376D02*
X887133Y845133D01*
Y857133D01*
X856376Y809369D02*
Y835632D01*
X857120Y836376D01*
X878376D01*
X856376Y809369D02*
X861259Y804485D01*
X870515D01*
X883100Y791900D01*
Y766000D02*
Y791900D01*
X864000Y794000D02*
X870400Y787600D01*
X864000Y794000D02*
Y799060D01*
X870400Y766000D02*
Y787600D01*
X929939Y818923D02*
X930425Y819409D01*
X916708Y820293D02*
X917149Y819851D01*
X935434Y814400D02*
X946600D01*
X930911Y818923D02*
X935434Y814400D01*
X929939Y818923D02*
X930911D01*
X929011Y819851D02*
X929939Y818923D01*
X917149Y819851D02*
X929011D01*
X915458Y827221D02*
X916076Y827839D01*
Y831086D02*
X917000Y832011D01*
X916076Y827839D02*
Y831086D01*
X915303Y813485D02*
X926287Y802501D01*
X914914Y813485D02*
X915303D01*
X917000Y832011D02*
Y835123D01*
X919675Y837798D02*
Y842292D01*
X917000Y844968D02*
Y845446D01*
Y835123D02*
X919675Y837798D01*
X917000Y844968D02*
X919675Y842292D01*
X498513Y908147D02*
Y913488D01*
X487000Y925000D02*
X498513Y913488D01*
X495764Y905398D02*
X498513Y908147D01*
X495565Y905398D02*
X495764D01*
X487000Y925000D02*
X487000Y925000D01*
X361052Y895460D02*
X367052Y901460D01*
X501053Y908147D02*
X504000Y905199D01*
Y905000D02*
Y905199D01*
X501053Y908147D02*
Y914540D01*
X360000Y898000D02*
X366000Y904000D01*
X891919Y1110934D02*
X895890Y1114905D01*
Y1118613D02*
X896338Y1119060D01*
X895890Y1114905D02*
Y1118613D01*
X917000Y1095446D02*
X926729Y1105174D01*
X573000Y1004000D02*
Y1014000D01*
X577256Y1004000D02*
X578000Y1004744D01*
Y1013256D01*
X573000Y1004000D02*
X577256D01*
X563000D02*
Y1014000D01*
X568000Y1004500D02*
Y1007000D01*
Y1013500D01*
X559744Y1004000D02*
X563000D01*
X559000Y1004744D02*
X559744Y1004000D01*
X563000Y1014000D02*
X568000D01*
X573000D01*
X559000Y1013256D02*
X559744Y1014000D01*
X563000Y1004000D02*
X568000D01*
X559744Y1014000D02*
X563000D01*
X559000Y1004744D02*
Y1013256D01*
X568000Y1004000D02*
X573000D01*
X577256Y1014000D02*
X578000Y1013256D01*
X573000Y1014000D02*
X577256D01*
X1241000Y1246000D02*
X1245256D01*
X1246000Y1245256D01*
X1236000Y1236000D02*
X1241000D01*
X1227000Y1236744D02*
Y1245256D01*
X1227744Y1246000D02*
X1231000D01*
Y1236000D02*
X1236000D01*
X1227000Y1245256D02*
X1227744Y1246000D01*
X1236000D02*
X1241000D01*
X1231000D02*
X1236000D01*
X1227000Y1236744D02*
X1227744Y1236000D01*
X1231000D01*
X1236000Y1239000D02*
Y1245500D01*
Y1236500D02*
Y1239000D01*
X1231000Y1236000D02*
Y1246000D01*
X1241000Y1236000D02*
X1245256D01*
X1246000Y1236744D02*
Y1245256D01*
X1245256Y1236000D02*
X1246000Y1236744D01*
X1241000Y1236000D02*
Y1246000D01*
X408663Y1031255D02*
X434000Y1056592D01*
X441460Y1066460D02*
X442000Y1067000D01*
X441460Y1060460D02*
Y1066460D01*
X434000Y1056592D02*
Y1065000D01*
X400291Y1195709D02*
X414000Y1182000D01*
X352231Y1195709D02*
X400291D01*
X324665Y1194335D02*
X350858D01*
X352231Y1195709D01*
X433000Y1031000D02*
X467000Y1065000D01*
X409715Y1028715D02*
X441460Y1060460D01*
X423500Y1031000D02*
X433000D01*
X448342Y1063343D02*
Y1066644D01*
X449358Y1067659D01*
X454385Y1066262D02*
X456000Y1067876D01*
X390065Y1028715D02*
X409715D01*
X412543Y1023635D02*
X454385Y1065478D01*
Y1066262D01*
X411175Y1026175D02*
X448342Y1063343D01*
X391586Y1026175D02*
X411175D01*
X456000Y1067876D02*
Y1068750D01*
X448960Y1068056D02*
X449358Y1067659D01*
X378793Y1031255D02*
X408663D01*
X392638Y1023635D02*
X412543D01*
X408500Y1016000D02*
X423500Y1031000D01*
X357700Y1016000D02*
X369326Y1027626D01*
X383100Y1016000D02*
X385003D01*
X390496Y1025086D02*
X391586Y1026175D01*
X377704Y1030166D02*
X378793Y1031255D01*
X370400Y1016000D02*
X379486Y1025086D01*
X347835Y1030166D02*
X377704D01*
X379486Y1025086D02*
X390496D01*
X369326Y1027626D02*
X388976D01*
X385003Y1016000D02*
X392638Y1023635D01*
X388976Y1027626D02*
X390065Y1028715D01*
X345000Y1016000D02*
Y1027331D01*
X347835Y1030166D01*
X336534Y1152036D02*
X340486D01*
X336440Y1152130D02*
X336534Y1152036D01*
X340486D02*
X347062Y1145460D01*
X349000Y1148000D02*
X360000D01*
X347062Y1145460D02*
X361052D01*
X348339Y1148661D02*
Y1151851D01*
Y1148661D02*
X349000Y1148000D01*
X348339Y1151851D02*
X348560Y1152072D01*
X432000Y1175000D02*
X487000D01*
X407408Y1154000D02*
X430948Y1177540D01*
X366000Y1154000D02*
X407408D01*
X408460Y1151460D02*
X432000Y1175000D01*
X430948Y1177540D02*
X488052D01*
X367052Y1151460D02*
X408460D01*
X488052Y1177540D02*
X501053Y1164540D01*
X797865Y1011135D02*
X801269Y1007731D01*
X898254D01*
X797865Y1011135D02*
Y1017135D01*
X919987Y1009988D02*
Y1014788D01*
X917731Y1007731D02*
X919987Y1009988D01*
X898254Y1007731D02*
X917731D01*
X919987Y1014788D02*
X921200Y1016000D01*
X898254Y1007731D02*
X898254Y1007731D01*
X791000Y1024000D02*
X797865Y1017135D01*
X890934Y1110934D02*
X891919D01*
X887133Y1107133D02*
X890934Y1110934D01*
X878376Y1086376D02*
X887133Y1095133D01*
Y1107133D01*
X856376Y1059369D02*
Y1085632D01*
X857120Y1086376D01*
X878376D01*
X856376Y1059369D02*
X861259Y1054485D01*
X870515D01*
X883100Y1041900D01*
Y1016000D02*
Y1041900D01*
X864000Y1044000D02*
X870400Y1037600D01*
X864000Y1044000D02*
Y1049060D01*
X870400Y1016000D02*
Y1037600D01*
X929939Y1068923D02*
X930425Y1069409D01*
X916708Y1070293D02*
X917149Y1069851D01*
X935434Y1064400D02*
X946600D01*
X930911Y1068923D02*
X935434Y1064400D01*
X929939Y1068923D02*
X930911D01*
X929011Y1069851D02*
X929939Y1068923D01*
X917149Y1069851D02*
X929011D01*
X915458Y1077221D02*
X916076Y1077839D01*
Y1081086D02*
X917000Y1082011D01*
X916076Y1077839D02*
Y1081086D01*
X915303Y1063485D02*
X926287Y1052501D01*
X914914Y1063485D02*
X915303D01*
X917000Y1082011D02*
Y1085123D01*
X919675Y1087798D02*
Y1092293D01*
X917000Y1094968D02*
Y1095446D01*
Y1085123D02*
X919675Y1087798D01*
X917000Y1094968D02*
X919675Y1092293D01*
X498513Y1158147D02*
Y1163488D01*
X487000Y1175000D02*
X498513Y1163488D01*
X495764Y1155398D02*
X498513Y1158147D01*
X495565Y1155398D02*
X495764D01*
X487000Y1175000D02*
X487000Y1175000D01*
X361052Y1145460D02*
X367052Y1151460D01*
X501053Y1158147D02*
X504000Y1155199D01*
Y1155000D02*
Y1155199D01*
X501053Y1158147D02*
Y1164540D01*
X360000Y1148000D02*
X366000Y1154000D01*
D53*
X791000Y274000D02*
D03*
Y524000D02*
D03*
Y774000D02*
D03*
Y1024000D02*
D03*
D55*
X345000Y266000D02*
D03*
Y516000D02*
D03*
Y766000D02*
D03*
Y1016000D02*
D03*
D56*
X586400Y487000D02*
D03*
X357700Y266000D02*
D03*
X370400D02*
D03*
X383100D02*
D03*
X408500D02*
D03*
X870400D02*
D03*
X883100D02*
D03*
X921200D02*
D03*
X586400Y737000D02*
D03*
X357700Y516000D02*
D03*
X370400D02*
D03*
X383100D02*
D03*
X408500D02*
D03*
X870400D02*
D03*
X883100D02*
D03*
X921200D02*
D03*
X586400Y987000D02*
D03*
X357700Y766000D02*
D03*
X370400D02*
D03*
X383100D02*
D03*
X408500D02*
D03*
X870400D02*
D03*
X883100D02*
D03*
X921200D02*
D03*
X586400Y1237000D02*
D03*
X357700Y1016000D02*
D03*
X370400D02*
D03*
X383100D02*
D03*
X408500D02*
D03*
X870400D02*
D03*
X883100D02*
D03*
X921200D02*
D03*
D60*
X970940Y371625D02*
D03*
X1025965Y377000D02*
D03*
X896338Y369060D02*
D03*
X926729Y355174D02*
D03*
X970000Y425000D02*
D03*
X1021210Y404846D02*
D03*
X497000Y286000D02*
D03*
X1122142Y404300D02*
D03*
X378500Y328500D02*
D03*
X1205860Y395283D02*
D03*
X503748Y320252D02*
D03*
X442000Y317000D02*
D03*
X434000Y315000D02*
D03*
X439273Y381586D02*
D03*
X414000Y432000D02*
D03*
X324665Y444335D02*
D03*
X467000Y315000D02*
D03*
X448960Y318056D02*
D03*
X456000Y318750D02*
D03*
X395537Y325625D02*
D03*
X370422Y285591D02*
D03*
X503000Y480000D02*
D03*
X336440Y402130D02*
D03*
X348560Y402072D02*
D03*
X482000Y419575D02*
D03*
X1214000Y346000D02*
D03*
X1129575Y419899D02*
D03*
X864000Y299060D02*
D03*
X930425Y319409D02*
D03*
X915458Y327221D02*
D03*
X916708Y320293D02*
D03*
X914914Y313485D02*
D03*
X946600Y314400D02*
D03*
X926287Y302500D02*
D03*
X874545Y319830D02*
D03*
X891000Y320000D02*
D03*
X1198246Y345676D02*
D03*
X863000Y325060D02*
D03*
X495565Y405398D02*
D03*
X504000Y405000D02*
D03*
X970940Y621625D02*
D03*
X1025965Y627000D02*
D03*
X896338Y619060D02*
D03*
X926729Y605174D02*
D03*
X970000Y675000D02*
D03*
X1021210Y654846D02*
D03*
X497000Y536000D02*
D03*
X1122142Y654300D02*
D03*
X378500Y578500D02*
D03*
X1205860Y645283D02*
D03*
X503748Y570252D02*
D03*
X442000Y567000D02*
D03*
X434000Y565000D02*
D03*
X439273Y631586D02*
D03*
X414000Y682000D02*
D03*
X324665Y694335D02*
D03*
X467000Y565000D02*
D03*
X448960Y568056D02*
D03*
X456000Y568750D02*
D03*
X395537Y575625D02*
D03*
X370422Y535591D02*
D03*
X503000Y730000D02*
D03*
X336440Y652130D02*
D03*
X348560Y652072D02*
D03*
X482000Y669575D02*
D03*
X1214000Y596000D02*
D03*
X1129575Y669899D02*
D03*
X864000Y549060D02*
D03*
X930425Y569409D02*
D03*
X915458Y577221D02*
D03*
X916708Y570293D02*
D03*
X914914Y563485D02*
D03*
X946600Y564400D02*
D03*
X926287Y552501D02*
D03*
X874545Y569830D02*
D03*
X891000Y570000D02*
D03*
X1198246Y595676D02*
D03*
X863000Y575060D02*
D03*
X495565Y655398D02*
D03*
X504000Y655000D02*
D03*
X970940Y871625D02*
D03*
X1025965Y877000D02*
D03*
X896338Y869060D02*
D03*
X926729Y855174D02*
D03*
X970000Y925000D02*
D03*
X1021210Y904846D02*
D03*
X497000Y786000D02*
D03*
X1122142Y904300D02*
D03*
X378500Y828500D02*
D03*
X1205860Y895283D02*
D03*
X503748Y820252D02*
D03*
X442000Y817000D02*
D03*
X434000Y815000D02*
D03*
X439273Y881587D02*
D03*
X414000Y932000D02*
D03*
X324665Y944335D02*
D03*
X467000Y815000D02*
D03*
X448960Y818056D02*
D03*
X456000Y818750D02*
D03*
X395537Y825625D02*
D03*
X370422Y785591D02*
D03*
X503000Y980000D02*
D03*
X336440Y902130D02*
D03*
X348560Y902072D02*
D03*
X482000Y919575D02*
D03*
X1214000Y846000D02*
D03*
X1129575Y919899D02*
D03*
X864000Y799060D02*
D03*
X930425Y819409D02*
D03*
X915458Y827221D02*
D03*
X916708Y820293D02*
D03*
X914914Y813485D02*
D03*
X946600Y814400D02*
D03*
X926287Y802501D02*
D03*
X874545Y819830D02*
D03*
X891000Y820000D02*
D03*
X1198246Y845676D02*
D03*
X863000Y825060D02*
D03*
X495565Y905398D02*
D03*
X504000Y905000D02*
D03*
X970940Y1121625D02*
D03*
X1025965Y1127000D02*
D03*
X896338Y1119060D02*
D03*
X926729Y1105174D02*
D03*
X970000Y1175000D02*
D03*
X1021210Y1154846D02*
D03*
X497000Y1036000D02*
D03*
X1122142Y1154300D02*
D03*
X378500Y1078500D02*
D03*
X1205860Y1145283D02*
D03*
X503748Y1070252D02*
D03*
X442000Y1067000D02*
D03*
X434000Y1065000D02*
D03*
X439273Y1131587D02*
D03*
X414000Y1182000D02*
D03*
X324665Y1194335D02*
D03*
X467000Y1065000D02*
D03*
X448960Y1068056D02*
D03*
X456000Y1068750D02*
D03*
X395537Y1075625D02*
D03*
X370422Y1035591D02*
D03*
X503000Y1230000D02*
D03*
X336440Y1152130D02*
D03*
X348560Y1152072D02*
D03*
X482000Y1169575D02*
D03*
X1214000Y1096000D02*
D03*
X1129575Y1169899D02*
D03*
X864000Y1049060D02*
D03*
X930425Y1069409D02*
D03*
X915458Y1077221D02*
D03*
X916708Y1070293D02*
D03*
X914914Y1063485D02*
D03*
X946600Y1064400D02*
D03*
X926287Y1052501D02*
D03*
X874545Y1069830D02*
D03*
X891000Y1070000D02*
D03*
X1198246Y1095676D02*
D03*
X863000Y1075060D02*
D03*
X495565Y1155398D02*
D03*
X504000Y1155000D02*
D03*
M02*
