G04*
G04 #@! TF.GenerationSoftware,Altium Limited,Altium Designer,21.0.9 (235)*
G04*
G04 Layer_Color=255*
%FSLAX44Y44*%
%MOMM*%
G71*
G04*
G04 #@! TF.SameCoordinates,010FA0BD-CCEB-4461-B68A-2F08C8EAF3F4*
G04*
G04*
G04 #@! TF.FilePolarity,Positive*
G04*
G01*
G75*
%ADD12R,0.6000X1.3000*%
%ADD13R,5.0000X3.0000*%
%ADD14R,1.3000X1.5000*%
%ADD15R,0.8000X1.7000*%
%ADD16R,1.4000X1.8000*%
%ADD17R,1.8000X1.4000*%
%ADD18R,0.2000X0.3000*%
G04:AMPARAMS|DCode=19|XSize=0.3mm|YSize=0.2mm|CornerRadius=0.05mm|HoleSize=0mm|Usage=FLASHONLY|Rotation=270.000|XOffset=0mm|YOffset=0mm|HoleType=Round|Shape=RoundedRectangle|*
%AMROUNDEDRECTD19*
21,1,0.3000,0.1000,0,0,270.0*
21,1,0.2000,0.2000,0,0,270.0*
1,1,0.1000,-0.0500,-0.1000*
1,1,0.1000,-0.0500,0.1000*
1,1,0.1000,0.0500,0.1000*
1,1,0.1000,0.0500,-0.1000*
%
%ADD19ROUNDEDRECTD19*%
%ADD20R,0.9000X0.6000*%
G04:AMPARAMS|DCode=21|XSize=0.6mm|YSize=0.9mm|CornerRadius=0.15mm|HoleSize=0mm|Usage=FLASHONLY|Rotation=270.000|XOffset=0mm|YOffset=0mm|HoleType=Round|Shape=RoundedRectangle|*
%AMROUNDEDRECTD21*
21,1,0.6000,0.6000,0,0,270.0*
21,1,0.3000,0.9000,0,0,270.0*
1,1,0.3000,-0.3000,-0.1500*
1,1,0.3000,-0.3000,0.1500*
1,1,0.3000,0.3000,0.1500*
1,1,0.3000,0.3000,-0.1500*
%
%ADD21ROUNDEDRECTD21*%
%ADD22R,0.6000X0.9000*%
G04:AMPARAMS|DCode=23|XSize=0.6mm|YSize=0.9mm|CornerRadius=0.15mm|HoleSize=0mm|Usage=FLASHONLY|Rotation=0.000|XOffset=0mm|YOffset=0mm|HoleType=Round|Shape=RoundedRectangle|*
%AMROUNDEDRECTD23*
21,1,0.6000,0.6000,0,0,0.0*
21,1,0.3000,0.9000,0,0,0.0*
1,1,0.3000,0.1500,-0.3000*
1,1,0.3000,-0.1500,-0.3000*
1,1,0.3000,-0.1500,0.3000*
1,1,0.3000,0.1500,0.3000*
%
%ADD23ROUNDEDRECTD23*%
%ADD24R,5.6000X5.6000*%
%ADD25R,0.8500X0.2500*%
%ADD26R,0.2500X0.8500*%
%ADD27O,0.2500X0.8500*%
G04:AMPARAMS|DCode=28|XSize=0.65mm|YSize=0.95mm|CornerRadius=0.1625mm|HoleSize=0mm|Usage=FLASHONLY|Rotation=180.000|XOffset=0mm|YOffset=0mm|HoleType=Round|Shape=RoundedRectangle|*
%AMROUNDEDRECTD28*
21,1,0.6500,0.6250,0,0,180.0*
21,1,0.3250,0.9500,0,0,180.0*
1,1,0.3250,-0.1625,0.3125*
1,1,0.3250,0.1625,0.3125*
1,1,0.3250,0.1625,-0.3125*
1,1,0.3250,-0.1625,-0.3125*
%
%ADD28ROUNDEDRECTD28*%
%ADD29R,0.6500X0.9500*%
G04:AMPARAMS|DCode=30|XSize=0.2mm|YSize=0.85mm|CornerRadius=0.05mm|HoleSize=0mm|Usage=FLASHONLY|Rotation=180.000|XOffset=0mm|YOffset=0mm|HoleType=Round|Shape=RoundedRectangle|*
%AMROUNDEDRECTD30*
21,1,0.2000,0.7500,0,0,180.0*
21,1,0.1000,0.8500,0,0,180.0*
1,1,0.1000,-0.0500,0.3750*
1,1,0.1000,0.0500,0.3750*
1,1,0.1000,0.0500,-0.3750*
1,1,0.1000,-0.0500,-0.3750*
%
%ADD30ROUNDEDRECTD30*%
%ADD31R,0.2000X0.8500*%
%ADD32R,0.8500X0.2000*%
%ADD33R,2.6000X2.6000*%
%ADD34R,0.2500X0.2200*%
%ADD35R,0.2500X0.2200*%
%ADD36P,0.6788X4X360.0*%
%ADD37R,0.8900X0.9400*%
%ADD38R,0.4000X1.3500*%
%ADD39R,1.5000X1.5500*%
%ADD40R,1.2000X0.3000*%
%ADD41R,3.0000X2.7000*%
%ADD42R,3.4000X1.5000*%
%ADD43R,3.5000X1.0000*%
%ADD44R,0.4800X0.4800*%
G04:AMPARAMS|DCode=45|XSize=1.2mm|YSize=1.4mm|CornerRadius=0.3mm|HoleSize=0mm|Usage=FLASHONLY|Rotation=0.000|XOffset=0mm|YOffset=0mm|HoleType=Round|Shape=RoundedRectangle|*
%AMROUNDEDRECTD45*
21,1,1.2000,0.8000,0,0,0.0*
21,1,0.6000,1.4000,0,0,0.0*
1,1,0.6000,0.3000,-0.4000*
1,1,0.6000,-0.3000,-0.4000*
1,1,0.6000,-0.3000,0.4000*
1,1,0.6000,0.3000,0.4000*
%
%ADD45ROUNDEDRECTD45*%
%ADD46R,1.2000X1.4000*%
%ADD52C,0.7500*%
%ADD53R,1.5000X1.5000*%
%ADD54C,1.5000*%
%ADD55R,1.0000X1.0000*%
%ADD56C,1.0000*%
%ADD57R,1.5000X1.5000*%
%ADD58O,1.2500X0.9500*%
%ADD59O,0.9000X1.5500*%
D12*
X358270Y301646D02*
D03*
X382270D02*
D03*
X358270Y551646D02*
D03*
X382270D02*
D03*
X358270Y801646D02*
D03*
X382270D02*
D03*
X358270Y1051646D02*
D03*
X382270D02*
D03*
D13*
X940000Y423835D02*
D03*
Y383835D02*
D03*
Y673835D02*
D03*
Y633835D02*
D03*
Y923835D02*
D03*
Y883835D02*
D03*
Y1173835D02*
D03*
Y1133835D02*
D03*
D14*
X1156500Y351000D02*
D03*
X1175500D02*
D03*
X1156500Y601000D02*
D03*
X1175500D02*
D03*
X1156500Y851000D02*
D03*
X1175500D02*
D03*
X1156500Y1101000D02*
D03*
X1175500D02*
D03*
D15*
X555000Y280000D02*
D03*
X521000D02*
D03*
Y320000D02*
D03*
X555000D02*
D03*
Y530000D02*
D03*
X521000D02*
D03*
Y570000D02*
D03*
X555000D02*
D03*
Y780000D02*
D03*
X521000D02*
D03*
Y820000D02*
D03*
X555000D02*
D03*
Y1030000D02*
D03*
X521000D02*
D03*
Y1070000D02*
D03*
X555000D02*
D03*
D16*
X607793Y345207D02*
D03*
X635793D02*
D03*
X969000Y456000D02*
D03*
X941000D02*
D03*
X607793Y595208D02*
D03*
X635793D02*
D03*
X969000Y706000D02*
D03*
X941000D02*
D03*
X607793Y845208D02*
D03*
X635793D02*
D03*
X969000Y956000D02*
D03*
X941000D02*
D03*
X607793Y1095208D02*
D03*
X635793D02*
D03*
X969000Y1206000D02*
D03*
X941000D02*
D03*
D17*
X296000Y396000D02*
D03*
Y368000D02*
D03*
Y646000D02*
D03*
Y618000D02*
D03*
Y896000D02*
D03*
Y868000D02*
D03*
Y1146000D02*
D03*
Y1118000D02*
D03*
D18*
X582000Y443000D02*
D03*
X572000D02*
D03*
X582000Y435000D02*
D03*
X577000D02*
D03*
Y443000D02*
D03*
X582000Y693000D02*
D03*
X572000D02*
D03*
X582000Y685000D02*
D03*
X577000D02*
D03*
Y693000D02*
D03*
X582000Y943000D02*
D03*
X572000D02*
D03*
X582000Y935000D02*
D03*
X577000D02*
D03*
Y943000D02*
D03*
X582000Y1193000D02*
D03*
X572000D02*
D03*
X582000Y1185000D02*
D03*
X577000D02*
D03*
Y1193000D02*
D03*
D19*
X572000Y435000D02*
D03*
Y685000D02*
D03*
Y935000D02*
D03*
Y1185000D02*
D03*
D20*
X1102000Y355500D02*
D03*
X1128300Y465000D02*
D03*
X1206000Y417043D02*
D03*
X1102617Y465000D02*
D03*
X1076333Y450000D02*
D03*
X1169628Y291915D02*
D03*
X1169585Y322957D02*
D03*
X1144043D02*
D03*
X1115543Y291915D02*
D03*
X1064458Y276915D02*
D03*
X1090000D02*
D03*
X1118500Y307957D02*
D03*
X1050458Y465000D02*
D03*
X550000Y441707D02*
D03*
X515000D02*
D03*
X604000D02*
D03*
X639000D02*
D03*
X1064415Y307957D02*
D03*
X1199000Y322500D02*
D03*
X1224543D02*
D03*
X335000Y293500D02*
D03*
X406793Y308500D02*
D03*
X1102000Y605500D02*
D03*
X1128300Y715000D02*
D03*
X1206000Y667043D02*
D03*
X1102617Y715000D02*
D03*
X1076333Y700000D02*
D03*
X1169628Y541915D02*
D03*
X1169585Y572958D02*
D03*
X1144043D02*
D03*
X1115543Y541915D02*
D03*
X1064458Y526915D02*
D03*
X1090000D02*
D03*
X1118500Y557958D02*
D03*
X1050458Y715000D02*
D03*
X550000Y691708D02*
D03*
X515000D02*
D03*
X604000D02*
D03*
X639000D02*
D03*
X1064415Y557958D02*
D03*
X1199000Y572500D02*
D03*
X1224543D02*
D03*
X335000Y543500D02*
D03*
X406793Y558500D02*
D03*
X1102000Y855500D02*
D03*
X1128300Y965000D02*
D03*
X1206000Y917043D02*
D03*
X1102617Y965000D02*
D03*
X1076333Y950000D02*
D03*
X1169628Y791915D02*
D03*
X1169585Y822958D02*
D03*
X1144043D02*
D03*
X1115543Y791915D02*
D03*
X1064458Y776915D02*
D03*
X1090000D02*
D03*
X1118500Y807958D02*
D03*
X1050458Y965000D02*
D03*
X550000Y941708D02*
D03*
X515000D02*
D03*
X604000D02*
D03*
X639000D02*
D03*
X1064415Y807958D02*
D03*
X1199000Y822500D02*
D03*
X1224543D02*
D03*
X335000Y793500D02*
D03*
X406793Y808500D02*
D03*
X1102000Y1105500D02*
D03*
X1128300Y1215000D02*
D03*
X1206000Y1167043D02*
D03*
X1102617Y1215000D02*
D03*
X1076333Y1200000D02*
D03*
X1169628Y1041915D02*
D03*
X1169585Y1072958D02*
D03*
X1144043D02*
D03*
X1115543Y1041915D02*
D03*
X1064458Y1026915D02*
D03*
X1090000D02*
D03*
X1118500Y1057958D02*
D03*
X1050458Y1215000D02*
D03*
X550000Y1191708D02*
D03*
X515000D02*
D03*
X604000D02*
D03*
X639000D02*
D03*
X1064415Y1057958D02*
D03*
X1199000Y1072500D02*
D03*
X1224543D02*
D03*
X335000Y1043500D02*
D03*
X406793Y1058500D02*
D03*
D21*
X1102000Y370500D02*
D03*
X1128300Y450000D02*
D03*
X1206000Y402043D02*
D03*
X1102617Y450000D02*
D03*
X1076333Y465000D02*
D03*
X1169628Y276915D02*
D03*
X1169585Y307958D02*
D03*
X1144043D02*
D03*
X1115543Y276915D02*
D03*
X1064458Y291915D02*
D03*
X1090000D02*
D03*
X1118500Y322957D02*
D03*
X1050458Y450000D02*
D03*
X550000Y426708D02*
D03*
X515000D02*
D03*
X604000Y426707D02*
D03*
X639000Y426708D02*
D03*
X1064415Y322957D02*
D03*
X1199000Y337500D02*
D03*
X1224543D02*
D03*
X335000Y308500D02*
D03*
X406793Y293500D02*
D03*
X1102000Y620500D02*
D03*
X1128300Y700000D02*
D03*
X1206000Y652043D02*
D03*
X1102617Y700000D02*
D03*
X1076333Y715000D02*
D03*
X1169628Y526915D02*
D03*
X1169585Y557958D02*
D03*
X1144043D02*
D03*
X1115543Y526915D02*
D03*
X1064458Y541915D02*
D03*
X1090000D02*
D03*
X1118500Y572958D02*
D03*
X1050458Y700000D02*
D03*
X550000Y676708D02*
D03*
X515000D02*
D03*
X604000Y676708D02*
D03*
X639000Y676708D02*
D03*
X1064415Y572958D02*
D03*
X1199000Y587500D02*
D03*
X1224543D02*
D03*
X335000Y558500D02*
D03*
X406793Y543500D02*
D03*
X1102000Y870500D02*
D03*
X1128300Y950000D02*
D03*
X1206000Y902043D02*
D03*
X1102617Y950000D02*
D03*
X1076333Y965000D02*
D03*
X1169628Y776915D02*
D03*
X1169585Y807958D02*
D03*
X1144043D02*
D03*
X1115543Y776915D02*
D03*
X1064458Y791915D02*
D03*
X1090000D02*
D03*
X1118500Y822958D02*
D03*
X1050458Y950000D02*
D03*
X550000Y926708D02*
D03*
X515000D02*
D03*
X604000Y926708D02*
D03*
X639000Y926708D02*
D03*
X1064415Y822958D02*
D03*
X1199000Y837500D02*
D03*
X1224543D02*
D03*
X335000Y808500D02*
D03*
X406793Y793500D02*
D03*
X1102000Y1120500D02*
D03*
X1128300Y1200000D02*
D03*
X1206000Y1152043D02*
D03*
X1102617Y1200000D02*
D03*
X1076333Y1215000D02*
D03*
X1169628Y1026915D02*
D03*
X1169585Y1057958D02*
D03*
X1144043D02*
D03*
X1115543Y1026915D02*
D03*
X1064458Y1041915D02*
D03*
X1090000D02*
D03*
X1118500Y1072958D02*
D03*
X1050458Y1200000D02*
D03*
X550000Y1176708D02*
D03*
X515000D02*
D03*
X604000Y1176708D02*
D03*
X639000Y1176708D02*
D03*
X1064415Y1072958D02*
D03*
X1199000Y1087500D02*
D03*
X1224543D02*
D03*
X335000Y1058500D02*
D03*
X406793Y1043500D02*
D03*
D22*
X1025500Y331000D02*
D03*
X1211043Y370000D02*
D03*
X1049500Y423000D02*
D03*
X1130499Y429189D02*
D03*
X1130500Y403543D02*
D03*
X1145500Y378000D02*
D03*
X853500Y365543D02*
D03*
X948500Y302293D02*
D03*
Y328750D02*
D03*
Y354293D02*
D03*
X409500Y483000D02*
D03*
X869500Y333000D02*
D03*
X884500Y307458D02*
D03*
X1025500Y581000D02*
D03*
X1211043Y620000D02*
D03*
X1049500Y673000D02*
D03*
X1130499Y679189D02*
D03*
X1130500Y653543D02*
D03*
X1145500Y628000D02*
D03*
X853500Y615543D02*
D03*
X948500Y552293D02*
D03*
Y578750D02*
D03*
Y604293D02*
D03*
X409500Y733000D02*
D03*
X869500Y583000D02*
D03*
X884500Y557458D02*
D03*
X1025500Y831000D02*
D03*
X1211043Y870000D02*
D03*
X1049500Y923000D02*
D03*
X1130499Y929189D02*
D03*
X1130500Y903543D02*
D03*
X1145500Y878000D02*
D03*
X853500Y865543D02*
D03*
X948500Y802293D02*
D03*
Y828750D02*
D03*
Y854293D02*
D03*
X409500Y983000D02*
D03*
X869500Y833000D02*
D03*
X884500Y807458D02*
D03*
X1025500Y1081000D02*
D03*
X1211043Y1120000D02*
D03*
X1049500Y1173000D02*
D03*
X1130499Y1179189D02*
D03*
X1130500Y1153543D02*
D03*
X1145500Y1128000D02*
D03*
X853500Y1115543D02*
D03*
X948500Y1052293D02*
D03*
Y1078750D02*
D03*
Y1104293D02*
D03*
X409500Y1233000D02*
D03*
X869500Y1083000D02*
D03*
X884500Y1057458D02*
D03*
D23*
X1010500Y331000D02*
D03*
X1196043Y370000D02*
D03*
X1034500Y423000D02*
D03*
X1145499Y429189D02*
D03*
X1145500Y403543D02*
D03*
X1130500Y378000D02*
D03*
X868500Y365543D02*
D03*
X933500Y302293D02*
D03*
Y328750D02*
D03*
Y354293D02*
D03*
X394500Y483000D02*
D03*
X884500Y333000D02*
D03*
X869500Y307458D02*
D03*
X1010500Y581000D02*
D03*
X1196043Y620000D02*
D03*
X1034500Y673000D02*
D03*
X1145499Y679189D02*
D03*
X1145500Y653543D02*
D03*
X1130500Y628000D02*
D03*
X868500Y615543D02*
D03*
X933500Y552293D02*
D03*
Y578750D02*
D03*
Y604293D02*
D03*
X394500Y733000D02*
D03*
X884500Y583000D02*
D03*
X869500Y557458D02*
D03*
X1010500Y831000D02*
D03*
X1196043Y870000D02*
D03*
X1034500Y923000D02*
D03*
X1145499Y929189D02*
D03*
X1145500Y903543D02*
D03*
X1130500Y878000D02*
D03*
X868500Y865543D02*
D03*
X933500Y802293D02*
D03*
Y828750D02*
D03*
Y854293D02*
D03*
X394500Y983000D02*
D03*
X884500Y833000D02*
D03*
X869500Y807458D02*
D03*
X1010500Y1081000D02*
D03*
X1196043Y1120000D02*
D03*
X1034500Y1173000D02*
D03*
X1145499Y1179189D02*
D03*
X1145500Y1153543D02*
D03*
X1130500Y1128000D02*
D03*
X868500Y1115543D02*
D03*
X933500Y1052293D02*
D03*
Y1078750D02*
D03*
Y1104293D02*
D03*
X394500Y1233000D02*
D03*
X884500Y1083000D02*
D03*
X869500Y1057458D02*
D03*
D24*
X391000Y372000D02*
D03*
Y622000D02*
D03*
Y872000D02*
D03*
Y1122000D02*
D03*
D25*
X356750Y344500D02*
D03*
Y349500D02*
D03*
Y354500D02*
D03*
Y359500D02*
D03*
Y364500D02*
D03*
X356750Y369500D02*
D03*
Y374500D02*
D03*
X356750Y379500D02*
D03*
Y384500D02*
D03*
Y389500D02*
D03*
Y394500D02*
D03*
Y399500D02*
D03*
X425250D02*
D03*
Y394500D02*
D03*
Y389500D02*
D03*
Y384500D02*
D03*
Y379500D02*
D03*
X425250Y374500D02*
D03*
Y369500D02*
D03*
X425250Y364500D02*
D03*
Y359500D02*
D03*
Y354500D02*
D03*
Y349500D02*
D03*
Y344500D02*
D03*
X356750Y594500D02*
D03*
Y599500D02*
D03*
Y604500D02*
D03*
Y609500D02*
D03*
Y614500D02*
D03*
X356750Y619500D02*
D03*
Y624500D02*
D03*
X356750Y629500D02*
D03*
Y634500D02*
D03*
Y639500D02*
D03*
Y644500D02*
D03*
Y649500D02*
D03*
X425250D02*
D03*
Y644500D02*
D03*
Y639500D02*
D03*
Y634500D02*
D03*
Y629500D02*
D03*
X425250Y624500D02*
D03*
Y619500D02*
D03*
X425250Y614500D02*
D03*
Y609500D02*
D03*
Y604500D02*
D03*
Y599500D02*
D03*
Y594500D02*
D03*
X356750Y844500D02*
D03*
Y849500D02*
D03*
Y854500D02*
D03*
Y859500D02*
D03*
Y864500D02*
D03*
X356750Y869500D02*
D03*
Y874500D02*
D03*
X356750Y879500D02*
D03*
Y884500D02*
D03*
Y889500D02*
D03*
Y894500D02*
D03*
Y899500D02*
D03*
X425250D02*
D03*
Y894500D02*
D03*
Y889500D02*
D03*
Y884500D02*
D03*
Y879500D02*
D03*
X425250Y874500D02*
D03*
Y869500D02*
D03*
X425250Y864500D02*
D03*
Y859500D02*
D03*
Y854500D02*
D03*
Y849500D02*
D03*
Y844500D02*
D03*
X356750Y1094500D02*
D03*
Y1099500D02*
D03*
Y1104500D02*
D03*
Y1109500D02*
D03*
Y1114500D02*
D03*
X356750Y1119500D02*
D03*
Y1124500D02*
D03*
X356750Y1129500D02*
D03*
Y1134500D02*
D03*
Y1139500D02*
D03*
Y1144500D02*
D03*
Y1149500D02*
D03*
X425250D02*
D03*
Y1144500D02*
D03*
Y1139500D02*
D03*
Y1134500D02*
D03*
Y1129500D02*
D03*
X425250Y1124500D02*
D03*
Y1119500D02*
D03*
X425250Y1114500D02*
D03*
Y1109500D02*
D03*
Y1104500D02*
D03*
Y1099500D02*
D03*
Y1094500D02*
D03*
D26*
X363500Y406250D02*
D03*
X368500D02*
D03*
X373500D02*
D03*
X378500D02*
D03*
X383500D02*
D03*
X388500Y406250D02*
D03*
X393500D02*
D03*
X398500Y406250D02*
D03*
X403500D02*
D03*
X408500D02*
D03*
X413500D02*
D03*
X418500D02*
D03*
Y337750D02*
D03*
X413500D02*
D03*
X408500D02*
D03*
X403500D02*
D03*
X398500D02*
D03*
X393500Y337750D02*
D03*
X388500D02*
D03*
X383500Y337750D02*
D03*
X378500D02*
D03*
X373500D02*
D03*
X368500D02*
D03*
X363500Y656250D02*
D03*
X368500D02*
D03*
X373500D02*
D03*
X378500D02*
D03*
X383500D02*
D03*
X388500Y656250D02*
D03*
X393500D02*
D03*
X398500Y656250D02*
D03*
X403500D02*
D03*
X408500D02*
D03*
X413500D02*
D03*
X418500D02*
D03*
Y587750D02*
D03*
X413500D02*
D03*
X408500D02*
D03*
X403500D02*
D03*
X398500D02*
D03*
X393500Y587750D02*
D03*
X388500D02*
D03*
X383500Y587750D02*
D03*
X378500D02*
D03*
X373500D02*
D03*
X368500D02*
D03*
X363500Y906250D02*
D03*
X368500D02*
D03*
X373500D02*
D03*
X378500D02*
D03*
X383500D02*
D03*
X388500Y906250D02*
D03*
X393500D02*
D03*
X398500Y906250D02*
D03*
X403500D02*
D03*
X408500D02*
D03*
X413500D02*
D03*
X418500D02*
D03*
Y837750D02*
D03*
X413500D02*
D03*
X408500D02*
D03*
X403500D02*
D03*
X398500D02*
D03*
X393500Y837750D02*
D03*
X388500D02*
D03*
X383500Y837750D02*
D03*
X378500D02*
D03*
X373500D02*
D03*
X368500D02*
D03*
X363500Y1156250D02*
D03*
X368500D02*
D03*
X373500D02*
D03*
X378500D02*
D03*
X383500D02*
D03*
X388500Y1156250D02*
D03*
X393500D02*
D03*
X398500Y1156250D02*
D03*
X403500D02*
D03*
X408500D02*
D03*
X413500D02*
D03*
X418500D02*
D03*
Y1087750D02*
D03*
X413500D02*
D03*
X408500D02*
D03*
X403500D02*
D03*
X398500D02*
D03*
X393500Y1087750D02*
D03*
X388500D02*
D03*
X383500Y1087750D02*
D03*
X378500D02*
D03*
X373500D02*
D03*
X368500D02*
D03*
D27*
X363500Y337750D02*
D03*
Y587750D02*
D03*
Y837750D02*
D03*
Y1087750D02*
D03*
D28*
X1054000Y346707D02*
D03*
Y596708D02*
D03*
Y846708D02*
D03*
Y1096708D02*
D03*
D29*
X1072000Y346707D02*
D03*
X1063000Y370207D02*
D03*
X1072000Y596708D02*
D03*
X1063000Y620208D02*
D03*
X1072000Y846708D02*
D03*
X1063000Y870208D02*
D03*
X1072000Y1096708D02*
D03*
X1063000Y1120208D02*
D03*
D30*
X1078000Y391750D02*
D03*
Y641750D02*
D03*
Y891750D02*
D03*
Y1141750D02*
D03*
D31*
X1082000Y391750D02*
D03*
X1086000D02*
D03*
X1090000D02*
D03*
X1094000D02*
D03*
X1098000D02*
D03*
X1102000D02*
D03*
Y430250D02*
D03*
X1098000D02*
D03*
X1094000D02*
D03*
X1090000D02*
D03*
X1086000D02*
D03*
X1082000D02*
D03*
X1078000D02*
D03*
X1082000Y641750D02*
D03*
X1086000D02*
D03*
X1090000D02*
D03*
X1094000D02*
D03*
X1098000D02*
D03*
X1102000D02*
D03*
Y680250D02*
D03*
X1098000D02*
D03*
X1094000D02*
D03*
X1090000D02*
D03*
X1086000D02*
D03*
X1082000D02*
D03*
X1078000D02*
D03*
X1082000Y891750D02*
D03*
X1086000D02*
D03*
X1090000D02*
D03*
X1094000D02*
D03*
X1098000D02*
D03*
X1102000D02*
D03*
Y930250D02*
D03*
X1098000D02*
D03*
X1094000D02*
D03*
X1090000D02*
D03*
X1086000D02*
D03*
X1082000D02*
D03*
X1078000D02*
D03*
X1082000Y1141750D02*
D03*
X1086000D02*
D03*
X1090000D02*
D03*
X1094000D02*
D03*
X1098000D02*
D03*
X1102000D02*
D03*
Y1180250D02*
D03*
X1098000D02*
D03*
X1094000D02*
D03*
X1090000D02*
D03*
X1086000D02*
D03*
X1082000D02*
D03*
X1078000D02*
D03*
D32*
X1109250Y399000D02*
D03*
Y403000D02*
D03*
Y407000D02*
D03*
Y411000D02*
D03*
Y415000D02*
D03*
Y419000D02*
D03*
Y423000D02*
D03*
X1070750D02*
D03*
Y419000D02*
D03*
Y415000D02*
D03*
Y411000D02*
D03*
Y407000D02*
D03*
Y403000D02*
D03*
Y399000D02*
D03*
X1109250Y649000D02*
D03*
Y653000D02*
D03*
Y657000D02*
D03*
Y661000D02*
D03*
Y665000D02*
D03*
Y669000D02*
D03*
Y673000D02*
D03*
X1070750D02*
D03*
Y669000D02*
D03*
Y665000D02*
D03*
Y661000D02*
D03*
Y657000D02*
D03*
Y653000D02*
D03*
Y649000D02*
D03*
X1109250Y899000D02*
D03*
Y903000D02*
D03*
Y907000D02*
D03*
Y911000D02*
D03*
Y915000D02*
D03*
Y919000D02*
D03*
Y923000D02*
D03*
X1070750D02*
D03*
Y919000D02*
D03*
Y915000D02*
D03*
Y911000D02*
D03*
Y907000D02*
D03*
Y903000D02*
D03*
Y899000D02*
D03*
X1109250Y1149000D02*
D03*
Y1153000D02*
D03*
Y1157000D02*
D03*
Y1161000D02*
D03*
Y1165000D02*
D03*
Y1169000D02*
D03*
Y1173000D02*
D03*
X1070750D02*
D03*
Y1169000D02*
D03*
Y1165000D02*
D03*
Y1161000D02*
D03*
Y1157000D02*
D03*
Y1153000D02*
D03*
Y1149000D02*
D03*
D33*
X1090000Y411000D02*
D03*
Y661000D02*
D03*
Y911000D02*
D03*
Y1161000D02*
D03*
D34*
X1145833Y287817D02*
D03*
X1088210Y312055D02*
D03*
X1145833Y537817D02*
D03*
X1088210Y562056D02*
D03*
X1145833Y787817D02*
D03*
X1088210Y812056D02*
D03*
X1145833Y1037817D02*
D03*
X1088210Y1062056D02*
D03*
D35*
X1139335Y287813D02*
D03*
Y277013D02*
D03*
X1145835Y277013D02*
D03*
X1094708Y312060D02*
D03*
Y322860D02*
D03*
X1088208D02*
D03*
X1139335Y537813D02*
D03*
Y527013D02*
D03*
X1145835Y527013D02*
D03*
X1094708Y562060D02*
D03*
Y572860D02*
D03*
X1088208D02*
D03*
X1139335Y787813D02*
D03*
Y777013D02*
D03*
X1145835Y777013D02*
D03*
X1094708Y812060D02*
D03*
Y822860D02*
D03*
X1088208D02*
D03*
X1139335Y1037813D02*
D03*
Y1027013D02*
D03*
X1145835Y1027013D02*
D03*
X1094708Y1062060D02*
D03*
Y1072860D02*
D03*
X1088208D02*
D03*
D36*
X1142585Y282413D02*
D03*
X1091458Y317460D02*
D03*
X1142585Y532413D02*
D03*
X1091458Y567460D02*
D03*
X1142585Y782413D02*
D03*
X1091458Y817460D02*
D03*
X1142585Y1032413D02*
D03*
X1091458Y1067460D02*
D03*
D37*
X525000Y458000D02*
D03*
X540700D02*
D03*
X613150D02*
D03*
X628850D02*
D03*
X525000Y708000D02*
D03*
X540700D02*
D03*
X613150D02*
D03*
X628850D02*
D03*
X525000Y958000D02*
D03*
X540700D02*
D03*
X613150D02*
D03*
X628850D02*
D03*
X525000Y1208000D02*
D03*
X540700D02*
D03*
X613150D02*
D03*
X628850D02*
D03*
D38*
X990000Y291500D02*
D03*
X996500D02*
D03*
X1003000D02*
D03*
X1009500D02*
D03*
X1016000D02*
D03*
X990000Y541500D02*
D03*
X996500D02*
D03*
X1003000D02*
D03*
X1009500D02*
D03*
X1016000D02*
D03*
X990000Y791500D02*
D03*
X996500D02*
D03*
X1003000D02*
D03*
X1009500D02*
D03*
X1016000D02*
D03*
X990000Y1041500D02*
D03*
X996500D02*
D03*
X1003000D02*
D03*
X1009500D02*
D03*
X1016000D02*
D03*
D39*
X993000Y264500D02*
D03*
X1013000D02*
D03*
X993000Y514500D02*
D03*
X1013000D02*
D03*
X993000Y764500D02*
D03*
X1013000D02*
D03*
X993000Y1014500D02*
D03*
X1013000D02*
D03*
D40*
X826600Y331500D02*
D03*
Y336500D02*
D03*
Y341500D02*
D03*
Y366500D02*
D03*
Y361500D02*
D03*
Y356500D02*
D03*
Y351500D02*
D03*
Y346500D02*
D03*
Y581500D02*
D03*
Y586500D02*
D03*
Y591500D02*
D03*
Y616500D02*
D03*
Y611500D02*
D03*
Y606500D02*
D03*
Y601500D02*
D03*
Y596500D02*
D03*
Y831500D02*
D03*
Y836500D02*
D03*
Y841500D02*
D03*
Y866500D02*
D03*
Y861500D02*
D03*
Y856500D02*
D03*
Y851500D02*
D03*
Y846500D02*
D03*
Y1081500D02*
D03*
Y1086500D02*
D03*
Y1091500D02*
D03*
Y1116500D02*
D03*
Y1111500D02*
D03*
Y1106500D02*
D03*
Y1101500D02*
D03*
Y1096500D02*
D03*
D41*
X808000Y385800D02*
D03*
Y312200D02*
D03*
Y635800D02*
D03*
Y562200D02*
D03*
Y885800D02*
D03*
Y812200D02*
D03*
Y1135800D02*
D03*
Y1062200D02*
D03*
D42*
X787000Y419500D02*
D03*
Y486500D02*
D03*
Y669500D02*
D03*
Y736500D02*
D03*
Y919500D02*
D03*
Y986500D02*
D03*
Y1169500D02*
D03*
Y1236500D02*
D03*
D43*
X844500Y443000D02*
D03*
Y463000D02*
D03*
Y693000D02*
D03*
Y713000D02*
D03*
Y943000D02*
D03*
Y963000D02*
D03*
Y1193000D02*
D03*
Y1213000D02*
D03*
D44*
X662000Y458000D02*
D03*
Y708000D02*
D03*
Y958000D02*
D03*
Y1208000D02*
D03*
D45*
X454000Y416000D02*
D03*
Y666000D02*
D03*
Y916000D02*
D03*
Y1166000D02*
D03*
D46*
X470000Y416000D02*
D03*
X454000Y394000D02*
D03*
X470000D02*
D03*
Y666000D02*
D03*
X454000Y644000D02*
D03*
X470000D02*
D03*
Y916000D02*
D03*
X454000Y894000D02*
D03*
X470000D02*
D03*
Y1166000D02*
D03*
X454000Y1144000D02*
D03*
X470000D02*
D03*
D52*
X538000Y280000D02*
D03*
Y320000D02*
D03*
Y530000D02*
D03*
Y570000D02*
D03*
Y780000D02*
D03*
Y820000D02*
D03*
Y1030000D02*
D03*
Y1070000D02*
D03*
D53*
X791000Y274000D02*
D03*
Y524000D02*
D03*
Y774000D02*
D03*
Y1024000D02*
D03*
D54*
X816400Y274000D02*
D03*
X1182000Y444000D02*
D03*
X816400Y524000D02*
D03*
X1182000Y694000D02*
D03*
X816400Y774000D02*
D03*
X1182000Y944000D02*
D03*
X816400Y1024000D02*
D03*
X1182000Y1194000D02*
D03*
D55*
X700000Y270000D02*
D03*
X561000Y487000D02*
D03*
X494000Y391000D02*
D03*
X345000Y266000D02*
D03*
X845000D02*
D03*
X1067000Y487000D02*
D03*
X1200000Y270000D02*
D03*
X994000Y391000D02*
D03*
X330700Y484000D02*
D03*
X700000Y520000D02*
D03*
X561000Y737000D02*
D03*
X494000Y641000D02*
D03*
X345000Y516000D02*
D03*
X845000D02*
D03*
X1067000Y737000D02*
D03*
X1200000Y520000D02*
D03*
X994000Y641000D02*
D03*
X330700Y734000D02*
D03*
X700000Y770000D02*
D03*
X561000Y987000D02*
D03*
X494000Y891000D02*
D03*
X345000Y766000D02*
D03*
X845000D02*
D03*
X1067000Y987000D02*
D03*
X1200000Y770000D02*
D03*
X994000Y891000D02*
D03*
X330700Y984000D02*
D03*
X700000Y1020000D02*
D03*
X561000Y1237000D02*
D03*
X494000Y1141000D02*
D03*
X345000Y1016000D02*
D03*
X845000D02*
D03*
X1067000Y1237000D02*
D03*
X1200000Y1020000D02*
D03*
X994000Y1141000D02*
D03*
X330700Y1234000D02*
D03*
D56*
X712700Y270000D02*
D03*
X586400Y487000D02*
D03*
X573700D02*
D03*
X506700Y391000D02*
D03*
X357700Y266000D02*
D03*
X370400D02*
D03*
X383100D02*
D03*
X395800D02*
D03*
X408500D02*
D03*
X421200D02*
D03*
X433900D02*
D03*
X446600D02*
D03*
X857700D02*
D03*
X870400D02*
D03*
X883100D02*
D03*
X895800D02*
D03*
X908500D02*
D03*
X921200D02*
D03*
X933900D02*
D03*
X946600D02*
D03*
X1092400Y487000D02*
D03*
X1079700D02*
D03*
X1212700Y270000D02*
D03*
X1006700Y391000D02*
D03*
X318000Y484000D02*
D03*
X305300D02*
D03*
X292600D02*
D03*
X279900D02*
D03*
X712700Y520000D02*
D03*
X586400Y737000D02*
D03*
X573700D02*
D03*
X506700Y641000D02*
D03*
X357700Y516000D02*
D03*
X370400D02*
D03*
X383100D02*
D03*
X395800D02*
D03*
X408500D02*
D03*
X421200D02*
D03*
X433900D02*
D03*
X446600D02*
D03*
X857700D02*
D03*
X870400D02*
D03*
X883100D02*
D03*
X895800D02*
D03*
X908500D02*
D03*
X921200D02*
D03*
X933900D02*
D03*
X946600D02*
D03*
X1092400Y737000D02*
D03*
X1079700D02*
D03*
X1212700Y520000D02*
D03*
X1006700Y641000D02*
D03*
X318000Y734000D02*
D03*
X305300D02*
D03*
X292600D02*
D03*
X279900D02*
D03*
X712700Y770000D02*
D03*
X586400Y987000D02*
D03*
X573700D02*
D03*
X506700Y891000D02*
D03*
X357700Y766000D02*
D03*
X370400D02*
D03*
X383100D02*
D03*
X395800D02*
D03*
X408500D02*
D03*
X421200D02*
D03*
X433900D02*
D03*
X446600D02*
D03*
X857700D02*
D03*
X870400D02*
D03*
X883100D02*
D03*
X895800D02*
D03*
X908500D02*
D03*
X921200D02*
D03*
X933900D02*
D03*
X946600D02*
D03*
X1092400Y987000D02*
D03*
X1079700D02*
D03*
X1212700Y770000D02*
D03*
X1006700Y891000D02*
D03*
X318000Y984000D02*
D03*
X305300D02*
D03*
X292600D02*
D03*
X279900D02*
D03*
X712700Y1020000D02*
D03*
X586400Y1237000D02*
D03*
X573700D02*
D03*
X506700Y1141000D02*
D03*
X357700Y1016000D02*
D03*
X370400D02*
D03*
X383100D02*
D03*
X395800D02*
D03*
X408500D02*
D03*
X421200D02*
D03*
X433900D02*
D03*
X446600D02*
D03*
X857700D02*
D03*
X870400D02*
D03*
X883100D02*
D03*
X895800D02*
D03*
X908500D02*
D03*
X921200D02*
D03*
X933900D02*
D03*
X946600D02*
D03*
X1092400Y1237000D02*
D03*
X1079700D02*
D03*
X1212700Y1020000D02*
D03*
X1006700Y1141000D02*
D03*
X318000Y1234000D02*
D03*
X305300D02*
D03*
X292600D02*
D03*
X279900D02*
D03*
D57*
X1182000Y469400D02*
D03*
Y719400D02*
D03*
Y969400D02*
D03*
Y1219400D02*
D03*
D58*
X1028000Y291500D02*
D03*
X978000Y291500D02*
D03*
X1028000Y541500D02*
D03*
X978000Y541500D02*
D03*
X1028000Y791500D02*
D03*
X978000Y791500D02*
D03*
X1028000Y1041500D02*
D03*
X978000Y1041500D02*
D03*
D59*
X1038000Y264500D02*
D03*
X968000D02*
D03*
X1038000Y514500D02*
D03*
X968000D02*
D03*
X1038000Y764500D02*
D03*
X968000D02*
D03*
X1038000Y1014500D02*
D03*
X968000D02*
D03*
M02*
