M48
;Layer_Color=9474304
;FILE_FORMAT=4:4
METRIC,LZ
;TYPE=PLATED
T3F00S00C0.5000
T4F00S00C0.5500
%
G90
G05
T03
G00X00968Y0026125
M15
G01Y0026775
M16
G00X01038Y0026125
M15
G01Y0026775
M16
G00X01038Y0051125
M15
G01Y0051775
M16
G00X00968Y0051125
M15
G01Y0051775
M16
G00X00968Y0076125
M15
G01Y0076775
M16
G00X01038Y0076125
M15
G01Y0076775
M16
G00X01038Y0101125
M15
G01Y0101775
M16
G00X00968Y0101125
M15
G01Y0101775
M16
T04
G00X009795Y002915
M15
G01X009765
M16
G00X010295Y002915
M15
G01X010265
M16
G00X010295Y005415
M15
G01X010265
M16
G00X009795Y005415
M15
G01X009765
M16
G00X009795Y007915
M15
G01X009765
M16
G00X010295Y007915
M15
G01X010265
M16
G00X010295Y010415
M15
G01X010265
M16
G00X009795Y010415
M15
G01X009765
M16
M17
M30
