G04*
G04 #@! TF.GenerationSoftware,Altium Limited,Altium Designer,21.0.9 (235)*
G04*
G04 Layer_Color=16711935*
%FSLAX44Y44*%
%MOMM*%
G71*
G04*
G04 #@! TF.SameCoordinates,010FA0BD-CCEB-4461-B68A-2F08C8EAF3F4*
G04*
G04*
G04 #@! TF.FilePolarity,Positive*
G04*
G01*
G75*
%ADD10C,0.2000*%
%ADD71C,0.1000*%
D10*
X1107000Y354000D02*
Y372000D01*
X1097000Y354000D02*
X1107000D01*
X1097000D02*
Y372000D01*
X1107000D01*
X1123300Y448500D02*
X1123300Y466500D01*
X1133300D01*
X1133300Y448500D02*
X1133300Y466500D01*
X1123300Y448500D02*
X1133300D01*
X1201000Y400543D02*
Y418543D01*
X1211000D01*
Y400543D02*
Y418543D01*
X1201000Y400543D02*
X1211000D01*
X1009000Y336000D02*
X1027000D01*
Y326000D02*
Y336000D01*
X1009000Y326000D02*
X1027000D01*
X1009000D02*
Y336000D01*
X358000Y424793D02*
Y442793D01*
Y424793D02*
X368000D01*
Y442793D01*
X358000D02*
X368000D01*
Y306500D02*
Y324500D01*
X358000D02*
X368000D01*
X358000Y306500D02*
Y324500D01*
Y306500D02*
X368000D01*
X384000Y307000D02*
Y325000D01*
Y307000D02*
X394000D01*
Y325000D01*
X384000D02*
X394000D01*
X419543Y307000D02*
Y325000D01*
X409543D02*
X419543D01*
X409543Y307000D02*
Y325000D01*
Y307000D02*
X419543D01*
X1127000Y424000D02*
X1145000D01*
X1127000Y414000D02*
Y424000D01*
Y414000D02*
X1145000D01*
Y424000D01*
X1103000Y359000D02*
Y377000D01*
X1093000D02*
X1103000D01*
X1093000Y359000D02*
Y377000D01*
Y359000D02*
X1103000D01*
X1127000Y388000D02*
X1145000D01*
Y398000D01*
X1127000D02*
X1145000D01*
X1127000Y388000D02*
Y398000D01*
X1097617Y448500D02*
Y466500D01*
X1107617D01*
X1107617Y448500D02*
X1107617Y466500D01*
X1097617Y448500D02*
X1107617D01*
X1081333Y448500D02*
Y466500D01*
X1071333Y448500D02*
X1081333D01*
X1071333D02*
Y466500D01*
X1081333D01*
X997543Y406707D02*
X1015543D01*
Y416707D01*
X997543Y416707D02*
X1015543Y416707D01*
X997543Y416707D02*
X997543Y406707D01*
X968000Y416707D02*
X986000Y416707D01*
X968000Y406707D02*
Y416707D01*
Y406707D02*
X986000D01*
Y416707D01*
X998000Y471293D02*
X1016000Y471293D01*
Y481293D01*
X998000Y481293D02*
X1016000Y481293D01*
X998000Y471293D02*
Y481293D01*
X968457Y481293D02*
X986458Y481293D01*
X968457Y471293D02*
Y481293D01*
Y471293D02*
X986458Y471293D01*
Y481293D01*
X1164628Y275415D02*
X1164628Y293415D01*
X1174628D01*
Y275415D02*
Y293415D01*
X1164628Y275415D02*
X1174628D01*
X1164585Y306458D02*
Y324458D01*
X1174585D01*
Y306458D02*
Y324458D01*
X1164585Y306458D02*
X1174585D01*
X1139043Y306458D02*
Y324458D01*
X1149043D01*
Y306458D02*
Y324458D01*
X1139043Y306458D02*
X1149043D01*
X1110543Y275415D02*
Y293415D01*
X1120543D01*
Y275415D02*
Y293415D01*
X1110543Y275415D02*
X1120543D01*
X1069458Y275415D02*
Y293415D01*
X1059458Y275415D02*
X1069458D01*
X1059458D02*
Y293415D01*
X1069458D01*
X1095000Y275415D02*
Y293415D01*
X1085000Y275415D02*
X1095000D01*
X1085000D02*
Y293415D01*
X1095000D01*
X1123500Y306458D02*
Y324458D01*
X1113500Y306458D02*
X1123500D01*
X1113500D02*
Y324458D01*
X1123500D01*
X1194543Y375000D02*
X1212543D01*
Y365000D02*
Y375000D01*
X1194543Y365000D02*
X1212543D01*
X1194543D02*
Y375000D01*
X1033000Y428000D02*
X1051000D01*
Y418000D02*
Y428000D01*
X1033000Y418000D02*
X1051000D01*
X1033000D02*
Y428000D01*
X1045458Y448500D02*
Y466500D01*
X1055458D01*
Y448500D02*
Y466500D01*
X1045458Y448500D02*
X1055458D01*
X1128999Y424189D02*
X1146999D01*
X1128999D02*
Y434189D01*
X1146999D01*
Y424189D02*
Y434189D01*
X1129000Y398543D02*
X1147000D01*
X1129000D02*
Y408543D01*
X1147000D01*
Y398543D02*
Y408543D01*
X1129000Y383000D02*
X1147000D01*
Y373000D02*
Y383000D01*
X1129000Y373000D02*
X1147000D01*
X1129000D02*
Y383000D01*
X545000Y425207D02*
Y443208D01*
X555000D01*
Y425207D02*
Y443208D01*
X545000Y425207D02*
X555000D01*
X510000D02*
Y443208D01*
X520000D01*
Y425207D02*
Y443208D01*
X510000Y425207D02*
X520000D01*
X599000Y443208D02*
X599000Y425207D01*
X599000Y443208D02*
X609000D01*
X609000Y425207D02*
X609000Y443208D01*
X599000Y425207D02*
X609000D01*
X634000Y425207D02*
Y443208D01*
X644000D01*
Y425207D02*
Y443208D01*
X634000Y425207D02*
X644000D01*
X852000Y360543D02*
X870000D01*
X852000D02*
Y370543D01*
X870000D01*
Y360543D02*
Y370543D01*
X1069415Y306458D02*
Y324458D01*
X1059415Y306458D02*
X1069415D01*
X1059415D02*
Y324458D01*
X1069415D01*
X932000Y297293D02*
Y307293D01*
Y297293D02*
X950000Y297293D01*
Y307293D01*
X932000Y307293D02*
X950000Y307293D01*
X932000Y323750D02*
Y333750D01*
Y323750D02*
X950000Y323750D01*
Y333750D01*
X932000D02*
X950000D01*
X932000Y349293D02*
Y359293D01*
Y349293D02*
X950000D01*
Y359293D01*
X932000D02*
X950000D01*
X393000Y488000D02*
X411000D01*
Y478000D02*
Y488000D01*
X393000Y478000D02*
X411000D01*
X393000D02*
Y488000D01*
X1194000Y339000D02*
X1204000D01*
X1194000Y321000D02*
Y339000D01*
Y321000D02*
X1204000D01*
Y339000D01*
X1219543D02*
X1229543D01*
X1219543Y321000D02*
Y339000D01*
Y321000D02*
X1229543D01*
Y339000D01*
X886000Y328000D02*
Y338000D01*
X868000D02*
X886000D01*
X868000Y328000D02*
Y338000D01*
Y328000D02*
X886000D01*
X868000Y302458D02*
Y312458D01*
Y302458D02*
X886000D01*
Y312458D01*
X868000D02*
X886000D01*
X395000Y282957D02*
Y292957D01*
X377000Y282957D02*
X395000D01*
X377000D02*
Y292957D01*
X395000D01*
X330000Y310000D02*
X340000D01*
X330000Y292000D02*
Y310000D01*
Y292000D02*
X340000D01*
Y310000D01*
X401793Y292000D02*
X411793D01*
Y310000D01*
X401793D02*
X411793D01*
X401793Y292000D02*
Y310000D01*
X326000Y380000D02*
Y390000D01*
X344000Y390000D01*
Y380000D02*
Y390000D01*
X326000Y380000D02*
X344000Y380000D01*
X326000Y339000D02*
Y349000D01*
X344000Y349000D01*
Y339000D02*
Y349000D01*
X326000Y339000D02*
X344000Y339000D01*
X485543Y357000D02*
Y367000D01*
X467543Y357000D02*
X485543D01*
X467543D02*
Y367000D01*
X485543D01*
X438000Y357000D02*
Y367000D01*
X456000D01*
Y357000D02*
Y367000D01*
X438000Y357000D02*
X456000D01*
Y331458D02*
Y341458D01*
X438000Y331458D02*
X456000D01*
X438000D02*
Y341458D01*
X456000D01*
X326000Y408000D02*
Y418000D01*
X344000D01*
Y408000D02*
Y418000D01*
X326000Y408000D02*
X344000D01*
X1107000Y604000D02*
Y622000D01*
X1097000Y604000D02*
X1107000D01*
X1097000D02*
Y622000D01*
X1107000D01*
X1123300Y698500D02*
X1123300Y716500D01*
X1133300D01*
X1133300Y698500D02*
X1133300Y716500D01*
X1123300Y698500D02*
X1133300D01*
X1201000Y650543D02*
Y668543D01*
X1211000D01*
Y650543D02*
Y668543D01*
X1201000Y650543D02*
X1211000D01*
X1009000Y586000D02*
X1027000D01*
Y576000D02*
Y586000D01*
X1009000Y576000D02*
X1027000D01*
X1009000D02*
Y586000D01*
X358000Y674793D02*
Y692793D01*
Y674793D02*
X368000D01*
Y692793D01*
X358000D02*
X368000D01*
Y556500D02*
Y574500D01*
X358000D02*
X368000D01*
X358000Y556500D02*
Y574500D01*
Y556500D02*
X368000D01*
X384000Y557000D02*
Y575000D01*
Y557000D02*
X394000D01*
Y575000D01*
X384000D02*
X394000D01*
X419543Y557000D02*
Y575000D01*
X409543D02*
X419543D01*
X409543Y557000D02*
Y575000D01*
Y557000D02*
X419543D01*
X1127000Y674000D02*
X1145000D01*
X1127000Y664000D02*
Y674000D01*
Y664000D02*
X1145000D01*
Y674000D01*
X1103000Y609000D02*
Y627000D01*
X1093000D02*
X1103000D01*
X1093000Y609000D02*
Y627000D01*
Y609000D02*
X1103000D01*
X1127000Y638000D02*
X1145000D01*
Y648000D01*
X1127000D02*
X1145000D01*
X1127000Y638000D02*
Y648000D01*
X1097617Y698500D02*
Y716500D01*
X1107617D01*
X1107617Y698500D02*
X1107617Y716500D01*
X1097617Y698500D02*
X1107617D01*
X1081333Y698500D02*
Y716500D01*
X1071333Y698500D02*
X1081333D01*
X1071333D02*
Y716500D01*
X1081333D01*
X997543Y656708D02*
X1015543D01*
Y666708D01*
X997543Y666708D02*
X1015543Y666708D01*
X997543Y666708D02*
X997543Y656708D01*
X968000Y666708D02*
X986000Y666708D01*
X968000Y656708D02*
Y666708D01*
Y656708D02*
X986000D01*
Y666708D01*
X998000Y721293D02*
X1016000Y721293D01*
Y731293D01*
X998000Y731293D02*
X1016000Y731293D01*
X998000Y721293D02*
Y731293D01*
X968457Y731293D02*
X986458Y731293D01*
X968457Y721293D02*
Y731293D01*
Y721293D02*
X986458Y721293D01*
Y731293D01*
X1164628Y525415D02*
X1164628Y543415D01*
X1174628D01*
Y525415D02*
Y543415D01*
X1164628Y525415D02*
X1174628D01*
X1164585Y556458D02*
Y574458D01*
X1174585D01*
Y556458D02*
Y574458D01*
X1164585Y556458D02*
X1174585D01*
X1139043Y556457D02*
Y574458D01*
X1149043D01*
Y556457D02*
Y574458D01*
X1139043Y556457D02*
X1149043D01*
X1110543Y525415D02*
Y543415D01*
X1120543D01*
Y525415D02*
Y543415D01*
X1110543Y525415D02*
X1120543D01*
X1069458Y525415D02*
Y543415D01*
X1059458Y525415D02*
X1069458D01*
X1059458D02*
Y543415D01*
X1069458D01*
X1095000Y525415D02*
Y543415D01*
X1085000Y525415D02*
X1095000D01*
X1085000D02*
Y543415D01*
X1095000D01*
X1123500Y556458D02*
Y574458D01*
X1113500Y556458D02*
X1123500D01*
X1113500D02*
Y574458D01*
X1123500D01*
X1194543Y625000D02*
X1212543D01*
Y615000D02*
Y625000D01*
X1194543Y615000D02*
X1212543D01*
X1194543D02*
Y625000D01*
X1033000Y678000D02*
X1051000D01*
Y668000D02*
Y678000D01*
X1033000Y668000D02*
X1051000D01*
X1033000D02*
Y678000D01*
X1045458Y698500D02*
Y716500D01*
X1055458D01*
Y698500D02*
Y716500D01*
X1045458Y698500D02*
X1055458D01*
X1128999Y674189D02*
X1146999D01*
X1128999D02*
Y684189D01*
X1146999D01*
Y674189D02*
Y684189D01*
X1129000Y648543D02*
X1147000D01*
X1129000D02*
Y658543D01*
X1147000D01*
Y648543D02*
Y658543D01*
X1129000Y633000D02*
X1147000D01*
Y623000D02*
Y633000D01*
X1129000Y623000D02*
X1147000D01*
X1129000D02*
Y633000D01*
X545000Y675208D02*
Y693208D01*
X555000D01*
Y675208D02*
Y693208D01*
X545000Y675208D02*
X555000D01*
X510000D02*
Y693208D01*
X520000D01*
Y675208D02*
Y693208D01*
X510000Y675208D02*
X520000D01*
X599000Y693208D02*
X599000Y675208D01*
X599000Y693208D02*
X609000D01*
X609000Y675208D02*
X609000Y693208D01*
X599000Y675208D02*
X609000D01*
X634000Y675208D02*
Y693208D01*
X644000D01*
Y675208D02*
Y693208D01*
X634000Y675208D02*
X644000D01*
X852000Y610543D02*
X870000D01*
X852000D02*
Y620543D01*
X870000D01*
Y610543D02*
Y620543D01*
X1069415Y556458D02*
Y574458D01*
X1059415Y556458D02*
X1069415D01*
X1059415D02*
Y574458D01*
X1069415D01*
X932000Y547293D02*
Y557293D01*
Y547293D02*
X950000Y547293D01*
Y557293D01*
X932000Y557293D02*
X950000Y557293D01*
X932000Y573750D02*
Y583750D01*
Y573750D02*
X950000Y573750D01*
Y583750D01*
X932000D02*
X950000D01*
X932000Y599293D02*
Y609293D01*
Y599293D02*
X950000D01*
Y609293D01*
X932000D02*
X950000D01*
X393000Y738000D02*
X411000D01*
Y728000D02*
Y738000D01*
X393000Y728000D02*
X411000D01*
X393000D02*
Y738000D01*
X1194000Y589000D02*
X1204000D01*
X1194000Y571000D02*
Y589000D01*
Y571000D02*
X1204000D01*
Y589000D01*
X1219543D02*
X1229543D01*
X1219543Y571000D02*
Y589000D01*
Y571000D02*
X1229543D01*
Y589000D01*
X886000Y578000D02*
Y588000D01*
X868000D02*
X886000D01*
X868000Y578000D02*
Y588000D01*
Y578000D02*
X886000D01*
X868000Y552458D02*
Y562458D01*
Y552458D02*
X886000D01*
Y562458D01*
X868000D02*
X886000D01*
X395000Y532958D02*
Y542958D01*
X377000Y532958D02*
X395000D01*
X377000D02*
Y542958D01*
X395000D01*
X330000Y560000D02*
X340000D01*
X330000Y542000D02*
Y560000D01*
Y542000D02*
X340000D01*
Y560000D01*
X401793Y542000D02*
X411793D01*
Y560000D01*
X401793D02*
X411793D01*
X401793Y542000D02*
Y560000D01*
X326000Y630000D02*
Y640000D01*
X344000Y640000D01*
Y630000D02*
Y640000D01*
X326000Y630000D02*
X344000Y630000D01*
X326000Y589000D02*
Y599000D01*
X344000Y599000D01*
Y589000D02*
Y599000D01*
X326000Y589000D02*
X344000Y589000D01*
X485543Y607000D02*
Y617000D01*
X467543Y607000D02*
X485543D01*
X467543D02*
Y617000D01*
X485543D01*
X438000Y607000D02*
Y617000D01*
X456000D01*
Y607000D02*
Y617000D01*
X438000Y607000D02*
X456000D01*
Y581458D02*
Y591458D01*
X438000Y581458D02*
X456000D01*
X438000D02*
Y591458D01*
X456000D01*
X326000Y658000D02*
Y668000D01*
X344000D01*
Y658000D02*
Y668000D01*
X326000Y658000D02*
X344000D01*
X1107000Y854000D02*
Y872000D01*
X1097000Y854000D02*
X1107000D01*
X1097000D02*
Y872000D01*
X1107000D01*
X1123300Y948500D02*
X1123300Y966500D01*
X1133300D01*
X1133300Y948500D02*
X1133300Y966500D01*
X1123300Y948500D02*
X1133300D01*
X1201000Y900543D02*
Y918543D01*
X1211000D01*
Y900543D02*
Y918543D01*
X1201000Y900543D02*
X1211000D01*
X1009000Y836000D02*
X1027000D01*
Y826000D02*
Y836000D01*
X1009000Y826000D02*
X1027000D01*
X1009000D02*
Y836000D01*
X358000Y924793D02*
Y942793D01*
Y924793D02*
X368000D01*
Y942793D01*
X358000D02*
X368000D01*
Y806500D02*
Y824500D01*
X358000D02*
X368000D01*
X358000Y806500D02*
Y824500D01*
Y806500D02*
X368000D01*
X384000Y807000D02*
Y825000D01*
Y807000D02*
X394000D01*
Y825000D01*
X384000D02*
X394000D01*
X419543Y807000D02*
Y825000D01*
X409543D02*
X419543D01*
X409543Y807000D02*
Y825000D01*
Y807000D02*
X419543D01*
X1127000Y924000D02*
X1145000D01*
X1127000Y914000D02*
Y924000D01*
Y914000D02*
X1145000D01*
Y924000D01*
X1103000Y859000D02*
Y877000D01*
X1093000D02*
X1103000D01*
X1093000Y859000D02*
Y877000D01*
Y859000D02*
X1103000D01*
X1127000Y888000D02*
X1145000D01*
Y898000D01*
X1127000D02*
X1145000D01*
X1127000Y888000D02*
Y898000D01*
X1097617Y948500D02*
Y966500D01*
X1107617D01*
X1107617Y948500D02*
X1107617Y966500D01*
X1097617Y948500D02*
X1107617D01*
X1081333Y948500D02*
Y966500D01*
X1071333Y948500D02*
X1081333D01*
X1071333D02*
Y966500D01*
X1081333D01*
X997543Y906708D02*
X1015543D01*
Y916708D01*
X997543Y916708D02*
X1015543Y916708D01*
X997543Y916708D02*
X997543Y906708D01*
X968000Y916708D02*
X986000Y916708D01*
X968000Y906708D02*
Y916708D01*
Y906708D02*
X986000D01*
Y916708D01*
X998000Y971293D02*
X1016000Y971293D01*
Y981293D01*
X998000Y981293D02*
X1016000Y981293D01*
X998000Y971293D02*
Y981293D01*
X968457Y981293D02*
X986458Y981293D01*
X968457Y971293D02*
Y981293D01*
Y971293D02*
X986458Y971293D01*
Y981293D01*
X1164628Y775415D02*
X1164628Y793415D01*
X1174628D01*
Y775415D02*
Y793415D01*
X1164628Y775415D02*
X1174628D01*
X1164585Y806458D02*
Y824458D01*
X1174585D01*
Y806458D02*
Y824458D01*
X1164585Y806458D02*
X1174585D01*
X1139043Y806458D02*
Y824458D01*
X1149043D01*
Y806458D02*
Y824458D01*
X1139043Y806458D02*
X1149043D01*
X1110543Y775415D02*
Y793415D01*
X1120543D01*
Y775415D02*
Y793415D01*
X1110543Y775415D02*
X1120543D01*
X1069458Y775415D02*
Y793415D01*
X1059458Y775415D02*
X1069458D01*
X1059458D02*
Y793415D01*
X1069458D01*
X1095000Y775415D02*
Y793415D01*
X1085000Y775415D02*
X1095000D01*
X1085000D02*
Y793415D01*
X1095000D01*
X1123500Y806458D02*
Y824458D01*
X1113500Y806458D02*
X1123500D01*
X1113500D02*
Y824458D01*
X1123500D01*
X1194543Y875000D02*
X1212543D01*
Y865000D02*
Y875000D01*
X1194543Y865000D02*
X1212543D01*
X1194543D02*
Y875000D01*
X1033000Y928000D02*
X1051000D01*
Y918000D02*
Y928000D01*
X1033000Y918000D02*
X1051000D01*
X1033000D02*
Y928000D01*
X1045458Y948500D02*
Y966500D01*
X1055458D01*
Y948500D02*
Y966500D01*
X1045458Y948500D02*
X1055458D01*
X1128999Y924189D02*
X1146999D01*
X1128999D02*
Y934189D01*
X1146999D01*
Y924189D02*
Y934189D01*
X1129000Y898543D02*
X1147000D01*
X1129000D02*
Y908543D01*
X1147000D01*
Y898543D02*
Y908543D01*
X1129000Y883000D02*
X1147000D01*
Y873000D02*
Y883000D01*
X1129000Y873000D02*
X1147000D01*
X1129000D02*
Y883000D01*
X545000Y925208D02*
Y943208D01*
X555000D01*
Y925208D02*
Y943208D01*
X545000Y925208D02*
X555000D01*
X510000D02*
Y943208D01*
X520000D01*
Y925208D02*
Y943208D01*
X510000Y925208D02*
X520000D01*
X599000Y943208D02*
X599000Y925208D01*
X599000Y943208D02*
X609000D01*
X609000Y925208D02*
X609000Y943208D01*
X599000Y925208D02*
X609000D01*
X634000Y925208D02*
Y943208D01*
X644000D01*
Y925208D02*
Y943208D01*
X634000Y925208D02*
X644000D01*
X852000Y860543D02*
X870000D01*
X852000D02*
Y870543D01*
X870000D01*
Y860543D02*
Y870543D01*
X1069415Y806458D02*
Y824458D01*
X1059415Y806458D02*
X1069415D01*
X1059415D02*
Y824458D01*
X1069415D01*
X932000Y797293D02*
Y807293D01*
Y797293D02*
X950000Y797293D01*
Y807293D01*
X932000Y807293D02*
X950000Y807293D01*
X932000Y823750D02*
Y833750D01*
Y823750D02*
X950000Y823750D01*
Y833750D01*
X932000D02*
X950000D01*
X932000Y849293D02*
Y859293D01*
Y849293D02*
X950000D01*
Y859293D01*
X932000D02*
X950000D01*
X393000Y988000D02*
X411000D01*
Y978000D02*
Y988000D01*
X393000Y978000D02*
X411000D01*
X393000D02*
Y988000D01*
X1194000Y839000D02*
X1204000D01*
X1194000Y821000D02*
Y839000D01*
Y821000D02*
X1204000D01*
Y839000D01*
X1219543D02*
X1229543D01*
X1219543Y821000D02*
Y839000D01*
Y821000D02*
X1229543D01*
Y839000D01*
X886000Y828000D02*
Y838000D01*
X868000D02*
X886000D01*
X868000Y828000D02*
Y838000D01*
Y828000D02*
X886000D01*
X868000Y802458D02*
Y812458D01*
Y802458D02*
X886000D01*
Y812458D01*
X868000D02*
X886000D01*
X395000Y782958D02*
Y792958D01*
X377000Y782958D02*
X395000D01*
X377000D02*
Y792958D01*
X395000D01*
X330000Y810000D02*
X340000D01*
X330000Y792000D02*
Y810000D01*
Y792000D02*
X340000D01*
Y810000D01*
X401793Y792000D02*
X411793D01*
Y810000D01*
X401793D02*
X411793D01*
X401793Y792000D02*
Y810000D01*
X326000Y880000D02*
Y890000D01*
X344000Y890000D01*
Y880000D02*
Y890000D01*
X326000Y880000D02*
X344000Y880000D01*
X326000Y839000D02*
Y849000D01*
X344000Y849000D01*
Y839000D02*
Y849000D01*
X326000Y839000D02*
X344000Y839000D01*
X485543Y857000D02*
Y867000D01*
X467543Y857000D02*
X485543D01*
X467543D02*
Y867000D01*
X485543D01*
X438000Y857000D02*
Y867000D01*
X456000D01*
Y857000D02*
Y867000D01*
X438000Y857000D02*
X456000D01*
Y831458D02*
Y841458D01*
X438000Y831458D02*
X456000D01*
X438000D02*
Y841458D01*
X456000D01*
X326000Y908000D02*
Y918000D01*
X344000D01*
Y908000D02*
Y918000D01*
X326000Y908000D02*
X344000D01*
X1107000Y1104000D02*
Y1122000D01*
X1097000Y1104000D02*
X1107000D01*
X1097000D02*
Y1122000D01*
X1107000D01*
X1123300Y1198500D02*
X1123300Y1216500D01*
X1133300D01*
X1133300Y1198500D02*
X1133300Y1216500D01*
X1123300Y1198500D02*
X1133300D01*
X1201000Y1150543D02*
Y1168543D01*
X1211000D01*
Y1150543D02*
Y1168543D01*
X1201000Y1150543D02*
X1211000D01*
X1009000Y1086000D02*
X1027000D01*
Y1076000D02*
Y1086000D01*
X1009000Y1076000D02*
X1027000D01*
X1009000D02*
Y1086000D01*
X358000Y1174793D02*
Y1192793D01*
Y1174793D02*
X368000D01*
Y1192793D01*
X358000D02*
X368000D01*
Y1056500D02*
Y1074500D01*
X358000D02*
X368000D01*
X358000Y1056500D02*
Y1074500D01*
Y1056500D02*
X368000D01*
X384000Y1057000D02*
Y1075000D01*
Y1057000D02*
X394000D01*
Y1075000D01*
X384000D02*
X394000D01*
X419543Y1057000D02*
Y1075000D01*
X409543D02*
X419543D01*
X409543Y1057000D02*
Y1075000D01*
Y1057000D02*
X419543D01*
X1127000Y1174000D02*
X1145000D01*
X1127000Y1164000D02*
Y1174000D01*
Y1164000D02*
X1145000D01*
Y1174000D01*
X1103000Y1109000D02*
Y1127000D01*
X1093000D02*
X1103000D01*
X1093000Y1109000D02*
Y1127000D01*
Y1109000D02*
X1103000D01*
X1127000Y1138000D02*
X1145000D01*
Y1148000D01*
X1127000D02*
X1145000D01*
X1127000Y1138000D02*
Y1148000D01*
X1097617Y1198500D02*
Y1216500D01*
X1107617D01*
X1107617Y1198500D02*
X1107617Y1216500D01*
X1097617Y1198500D02*
X1107617D01*
X1081333Y1198500D02*
Y1216500D01*
X1071333Y1198500D02*
X1081333D01*
X1071333D02*
Y1216500D01*
X1081333D01*
X997543Y1156708D02*
X1015543D01*
Y1166708D01*
X997543Y1166708D02*
X1015543Y1166708D01*
X997543Y1166708D02*
X997543Y1156708D01*
X968000Y1166708D02*
X986000Y1166708D01*
X968000Y1156708D02*
Y1166708D01*
Y1156708D02*
X986000D01*
Y1166708D01*
X998000Y1221293D02*
X1016000Y1221293D01*
Y1231293D01*
X998000Y1231293D02*
X1016000Y1231293D01*
X998000Y1221293D02*
Y1231293D01*
X968457Y1231293D02*
X986458Y1231293D01*
X968457Y1221293D02*
Y1231293D01*
Y1221293D02*
X986458Y1221293D01*
Y1231293D01*
X1164628Y1025415D02*
X1164628Y1043415D01*
X1174628D01*
Y1025415D02*
Y1043415D01*
X1164628Y1025415D02*
X1174628D01*
X1164585Y1056458D02*
Y1074458D01*
X1174585D01*
Y1056458D02*
Y1074458D01*
X1164585Y1056458D02*
X1174585D01*
X1139043Y1056458D02*
Y1074458D01*
X1149043D01*
Y1056458D02*
Y1074458D01*
X1139043Y1056458D02*
X1149043D01*
X1110543Y1025415D02*
Y1043415D01*
X1120543D01*
Y1025415D02*
Y1043415D01*
X1110543Y1025415D02*
X1120543D01*
X1069458Y1025415D02*
Y1043415D01*
X1059458Y1025415D02*
X1069458D01*
X1059458D02*
Y1043415D01*
X1069458D01*
X1095000Y1025415D02*
Y1043415D01*
X1085000Y1025415D02*
X1095000D01*
X1085000D02*
Y1043415D01*
X1095000D01*
X1123500Y1056458D02*
Y1074458D01*
X1113500Y1056458D02*
X1123500D01*
X1113500D02*
Y1074458D01*
X1123500D01*
X1194543Y1125000D02*
X1212543D01*
Y1115000D02*
Y1125000D01*
X1194543Y1115000D02*
X1212543D01*
X1194543D02*
Y1125000D01*
X1033000Y1178000D02*
X1051000D01*
Y1168000D02*
Y1178000D01*
X1033000Y1168000D02*
X1051000D01*
X1033000D02*
Y1178000D01*
X1045458Y1198500D02*
Y1216500D01*
X1055458D01*
Y1198500D02*
Y1216500D01*
X1045458Y1198500D02*
X1055458D01*
X1128999Y1174189D02*
X1146999D01*
X1128999D02*
Y1184189D01*
X1146999D01*
Y1174189D02*
Y1184189D01*
X1129000Y1148543D02*
X1147000D01*
X1129000D02*
Y1158543D01*
X1147000D01*
Y1148543D02*
Y1158543D01*
X1129000Y1133000D02*
X1147000D01*
Y1123000D02*
Y1133000D01*
X1129000Y1123000D02*
X1147000D01*
X1129000D02*
Y1133000D01*
X545000Y1175208D02*
Y1193208D01*
X555000D01*
Y1175208D02*
Y1193208D01*
X545000Y1175208D02*
X555000D01*
X510000D02*
Y1193208D01*
X520000D01*
Y1175208D02*
Y1193208D01*
X510000Y1175208D02*
X520000D01*
X599000Y1193208D02*
X599000Y1175208D01*
X599000Y1193208D02*
X609000D01*
X609000Y1175208D02*
X609000Y1193208D01*
X599000Y1175208D02*
X609000D01*
X634000Y1175208D02*
Y1193208D01*
X644000D01*
Y1175208D02*
Y1193208D01*
X634000Y1175208D02*
X644000D01*
X852000Y1110543D02*
X870000D01*
X852000D02*
Y1120543D01*
X870000D01*
Y1110543D02*
Y1120543D01*
X1069415Y1056458D02*
Y1074458D01*
X1059415Y1056458D02*
X1069415D01*
X1059415D02*
Y1074458D01*
X1069415D01*
X932000Y1047293D02*
Y1057293D01*
Y1047293D02*
X950000Y1047293D01*
Y1057293D01*
X932000Y1057293D02*
X950000Y1057293D01*
X932000Y1073750D02*
Y1083750D01*
Y1073750D02*
X950000Y1073750D01*
Y1083750D01*
X932000D02*
X950000D01*
X932000Y1099293D02*
Y1109293D01*
Y1099293D02*
X950000D01*
Y1109293D01*
X932000D02*
X950000D01*
X393000Y1238000D02*
X411000D01*
Y1228000D02*
Y1238000D01*
X393000Y1228000D02*
X411000D01*
X393000D02*
Y1238000D01*
X1194000Y1089000D02*
X1204000D01*
X1194000Y1071000D02*
Y1089000D01*
Y1071000D02*
X1204000D01*
Y1089000D01*
X1219543D02*
X1229543D01*
X1219543Y1071000D02*
Y1089000D01*
Y1071000D02*
X1229543D01*
Y1089000D01*
X886000Y1078000D02*
Y1088000D01*
X868000D02*
X886000D01*
X868000Y1078000D02*
Y1088000D01*
Y1078000D02*
X886000D01*
X868000Y1052458D02*
Y1062458D01*
Y1052458D02*
X886000D01*
Y1062458D01*
X868000D02*
X886000D01*
X395000Y1032958D02*
Y1042958D01*
X377000Y1032958D02*
X395000D01*
X377000D02*
Y1042958D01*
X395000D01*
X330000Y1060000D02*
X340000D01*
X330000Y1042000D02*
Y1060000D01*
Y1042000D02*
X340000D01*
Y1060000D01*
X401793Y1042000D02*
X411793D01*
Y1060000D01*
X401793D02*
X411793D01*
X401793Y1042000D02*
Y1060000D01*
X326000Y1130000D02*
Y1140000D01*
X344000Y1140000D01*
Y1130000D02*
Y1140000D01*
X326000Y1130000D02*
X344000Y1130000D01*
X326000Y1089000D02*
Y1099000D01*
X344000Y1099000D01*
Y1089000D02*
Y1099000D01*
X326000Y1089000D02*
X344000Y1089000D01*
X485543Y1107000D02*
Y1117000D01*
X467543Y1107000D02*
X485543D01*
X467543D02*
Y1117000D01*
X485543D01*
X438000Y1107000D02*
Y1117000D01*
X456000D01*
Y1107000D02*
Y1117000D01*
X438000Y1107000D02*
X456000D01*
Y1081458D02*
Y1091458D01*
X438000Y1081458D02*
X456000D01*
X438000D02*
Y1091458D01*
X456000D01*
X326000Y1158000D02*
Y1168000D01*
X344000D01*
Y1158000D02*
Y1168000D01*
X326000Y1158000D02*
X344000D01*
D71*
X895500Y360543D02*
G03*
X895500Y360543I-5000J0D01*
G01*
X369500Y345500D02*
G03*
X369500Y345500I-5000J0D01*
G01*
X1083500Y399500D02*
G03*
X1083500Y399500I-5000J0D01*
G01*
X991150Y437500D02*
G03*
X991150Y437500I-5000J0D01*
G01*
X354270Y294146D02*
Y309146D01*
X386270D01*
Y294146D02*
Y309146D01*
X354270Y294146D02*
X386270D01*
X914500Y430335D02*
X965500D01*
X914500Y377335D02*
X965500D01*
Y430335D01*
X914500Y377335D02*
Y430335D01*
X1155000Y358250D02*
X1177000D01*
X1155000Y343750D02*
X1177000D01*
X1155000D02*
Y358250D01*
X1177000Y343750D02*
Y358250D01*
X1079770Y452276D02*
X1101770D01*
X1079770Y466776D02*
X1101770D01*
X1079770Y452276D02*
Y466776D01*
X1101770Y452276D02*
Y466776D01*
X1031000Y409250D02*
X1053000D01*
X1031000Y394750D02*
X1053000D01*
Y409250D01*
X1031000Y394750D02*
Y409250D01*
X604293Y354207D02*
X639293D01*
X604293Y336208D02*
X639293D01*
X604293D02*
Y354207D01*
X639293Y336208D02*
Y354207D01*
X305000Y364500D02*
Y399500D01*
X287000Y364500D02*
Y399500D01*
X305000D01*
X287000Y364500D02*
X305000D01*
X937500Y447000D02*
X972500D01*
X937500Y465000D02*
X972500D01*
Y447000D02*
Y465000D01*
X937500Y447000D02*
Y465000D01*
X569000Y435000D02*
X585000D01*
Y443000D01*
X569000D02*
X585000D01*
X569000Y435000D02*
Y443000D01*
X571000Y439000D02*
X574000D01*
X899500Y303543D02*
Y369543D01*
X854500Y303543D02*
Y369543D01*
X899500D01*
X854500Y303543D02*
X899500D01*
X984750Y372750D02*
X1015250D01*
X984750Y355250D02*
X1015250D01*
X984750D02*
Y372750D01*
X1015250D02*
X1015250Y355250D01*
X426500Y336500D02*
Y407500D01*
X355500Y336500D02*
Y407500D01*
X426500D01*
X355500Y336500D02*
X426500D01*
X1048000Y351457D02*
X1078000D01*
X1048000Y365457D02*
X1078000D01*
X1048000Y351457D02*
Y365457D01*
X1078000Y351457D02*
Y365457D01*
X1069500Y390500D02*
X1110500D01*
X1069500Y431500D02*
X1110500D01*
X1069500Y390500D02*
Y431500D01*
X1110500Y390500D02*
Y431500D01*
X977150Y428500D02*
Y459500D01*
X1008150Y428500D02*
Y459500D01*
X977150Y428500D02*
X1008150D01*
X977150Y459500D02*
X1008150D01*
X524350Y453500D02*
Y462500D01*
X541350Y453500D02*
Y462500D01*
X524350D02*
X541350D01*
X524350Y453500D02*
X541350D01*
X612500D02*
Y462500D01*
X629500Y453500D02*
Y462500D01*
X612500D02*
X629500D01*
X612500Y453500D02*
X629500D01*
X968000Y243000D02*
X1038000D01*
X1038000Y293000D01*
X968000Y243000D02*
Y293000D01*
X1038000D01*
X792500Y395000D02*
X822500D01*
X779500Y297000D02*
X792500D01*
Y303000D01*
X822500Y303000D01*
X792500Y395000D02*
Y401000D01*
X779500D02*
X792500D01*
X779500Y297000D02*
Y401000D01*
X822500Y303000D02*
Y395000D01*
X848000Y413500D02*
Y421500D01*
X780000Y413500D02*
X848000D01*
X832000Y421500D02*
X848000D01*
X832000Y421500D02*
Y484500D01*
X832000Y484500D02*
X848000D01*
X772000Y418500D02*
X780000D01*
Y413500D02*
Y418500D01*
X772000D02*
Y487500D01*
Y487500D02*
X780000D01*
Y487500D02*
Y492500D01*
X848000Y484500D02*
Y492500D01*
X780000D02*
X848000D01*
X389293Y424500D02*
Y441500D01*
X380293Y424500D02*
Y441500D01*
Y424500D02*
X389293D01*
X380293Y441500D02*
X389293D01*
X449000Y421500D02*
X475000D01*
X449000Y388500D02*
X475000D01*
X475000Y421500D02*
X475000Y388500D01*
X449000D02*
X449000Y421500D01*
X895500Y610543D02*
G03*
X895500Y610543I-5000J0D01*
G01*
X369500Y595500D02*
G03*
X369500Y595500I-5000J0D01*
G01*
X1083500Y649500D02*
G03*
X1083500Y649500I-5000J0D01*
G01*
X991150Y687500D02*
G03*
X991150Y687500I-5000J0D01*
G01*
X354270Y544146D02*
Y559146D01*
X386270D01*
Y544146D02*
Y559146D01*
X354270Y544146D02*
X386270D01*
X914500Y680335D02*
X965500D01*
X914500Y627335D02*
X965500D01*
Y680335D01*
X914500Y627335D02*
Y680335D01*
X1155000Y608250D02*
X1177000D01*
X1155000Y593750D02*
X1177000D01*
X1155000D02*
Y608250D01*
X1177000Y593750D02*
Y608250D01*
X1079770Y702276D02*
X1101770D01*
X1079770Y716776D02*
X1101770D01*
X1079770Y702276D02*
Y716776D01*
X1101770Y702276D02*
Y716776D01*
X1031000Y659250D02*
X1053000D01*
X1031000Y644750D02*
X1053000D01*
Y659250D01*
X1031000Y644750D02*
Y659250D01*
X604293Y604208D02*
X639293D01*
X604293Y586208D02*
X639293D01*
X604293D02*
Y604208D01*
X639293Y586208D02*
Y604208D01*
X305000Y614500D02*
Y649500D01*
X287000Y614500D02*
Y649500D01*
X305000D01*
X287000Y614500D02*
X305000D01*
X937500Y697000D02*
X972500D01*
X937500Y715000D02*
X972500D01*
Y697000D02*
Y715000D01*
X937500Y697000D02*
Y715000D01*
X569000Y685000D02*
X585000D01*
Y693000D01*
X569000D02*
X585000D01*
X569000Y685000D02*
Y693000D01*
X571000Y689000D02*
X574000D01*
X899500Y553543D02*
Y619543D01*
X854500Y553543D02*
Y619543D01*
X899500D01*
X854500Y553543D02*
X899500D01*
X984750Y622750D02*
X1015250D01*
X984750Y605250D02*
X1015250D01*
X984750D02*
Y622750D01*
X1015250D02*
X1015250Y605250D01*
X426500Y586500D02*
Y657500D01*
X355500Y586500D02*
Y657500D01*
X426500D01*
X355500Y586500D02*
X426500D01*
X1048000Y601458D02*
X1078000D01*
X1048000Y615458D02*
X1078000D01*
X1048000Y601458D02*
Y615458D01*
X1078000Y601458D02*
Y615458D01*
X1069500Y640500D02*
X1110500D01*
X1069500Y681500D02*
X1110500D01*
X1069500Y640500D02*
Y681500D01*
X1110500Y640500D02*
Y681500D01*
X977150Y678500D02*
Y709500D01*
X1008150Y678500D02*
Y709500D01*
X977150Y678500D02*
X1008150D01*
X977150Y709500D02*
X1008150D01*
X524350Y703500D02*
Y712500D01*
X541350Y703500D02*
Y712500D01*
X524350D02*
X541350D01*
X524350Y703500D02*
X541350D01*
X612500D02*
Y712500D01*
X629500Y703500D02*
Y712500D01*
X612500D02*
X629500D01*
X612500Y703500D02*
X629500D01*
X968000Y493000D02*
X1038000D01*
X1038000Y543000D01*
X968000Y493000D02*
Y543000D01*
X1038000D01*
X792500Y645000D02*
X822500D01*
X779500Y547000D02*
X792500D01*
Y553000D01*
X822500Y553000D01*
X792500Y645000D02*
Y651000D01*
X779500D02*
X792500D01*
X779500Y547000D02*
Y651000D01*
X822500Y553000D02*
Y645000D01*
X848000Y663500D02*
Y671500D01*
X780000Y663500D02*
X848000D01*
X832000Y671500D02*
X848000D01*
X832000Y671500D02*
Y734500D01*
X832000Y734500D02*
X848000D01*
X772000Y668500D02*
X780000D01*
Y663500D02*
Y668500D01*
X772000D02*
Y737500D01*
Y737500D02*
X780000D01*
Y737500D02*
Y742500D01*
X848000Y734500D02*
Y742500D01*
X780000D02*
X848000D01*
X389293Y674500D02*
Y691500D01*
X380293Y674500D02*
Y691500D01*
Y674500D02*
X389293D01*
X380293Y691500D02*
X389293D01*
X449000Y671500D02*
X475000D01*
X449000Y638500D02*
X475000D01*
X475000Y671500D02*
X475000Y638500D01*
X449000D02*
X449000Y671500D01*
X895500Y860543D02*
G03*
X895500Y860543I-5000J0D01*
G01*
X369500Y845500D02*
G03*
X369500Y845500I-5000J0D01*
G01*
X1083500Y899500D02*
G03*
X1083500Y899500I-5000J0D01*
G01*
X991150Y937500D02*
G03*
X991150Y937500I-5000J0D01*
G01*
X354270Y794146D02*
Y809146D01*
X386270D01*
Y794146D02*
Y809146D01*
X354270Y794146D02*
X386270D01*
X914500Y930335D02*
X965500D01*
X914500Y877335D02*
X965500D01*
Y930335D01*
X914500Y877335D02*
Y930335D01*
X1155000Y858250D02*
X1177000D01*
X1155000Y843750D02*
X1177000D01*
X1155000D02*
Y858250D01*
X1177000Y843750D02*
Y858250D01*
X1079770Y952276D02*
X1101770D01*
X1079770Y966776D02*
X1101770D01*
X1079770Y952276D02*
Y966776D01*
X1101770Y952276D02*
Y966776D01*
X1031000Y909250D02*
X1053000D01*
X1031000Y894750D02*
X1053000D01*
Y909250D01*
X1031000Y894750D02*
Y909250D01*
X604293Y854208D02*
X639293D01*
X604293Y836208D02*
X639293D01*
X604293D02*
Y854208D01*
X639293Y836208D02*
Y854208D01*
X305000Y864500D02*
Y899500D01*
X287000Y864500D02*
Y899500D01*
X305000D01*
X287000Y864500D02*
X305000D01*
X937500Y947000D02*
X972500D01*
X937500Y965000D02*
X972500D01*
Y947000D02*
Y965000D01*
X937500Y947000D02*
Y965000D01*
X569000Y935000D02*
X585000D01*
Y943000D01*
X569000D02*
X585000D01*
X569000Y935000D02*
Y943000D01*
X571000Y939000D02*
X574000D01*
X899500Y803543D02*
Y869543D01*
X854500Y803543D02*
Y869543D01*
X899500D01*
X854500Y803543D02*
X899500D01*
X984750Y872750D02*
X1015250D01*
X984750Y855250D02*
X1015250D01*
X984750D02*
Y872750D01*
X1015250D02*
X1015250Y855250D01*
X426500Y836500D02*
Y907500D01*
X355500Y836500D02*
Y907500D01*
X426500D01*
X355500Y836500D02*
X426500D01*
X1048000Y851458D02*
X1078000D01*
X1048000Y865458D02*
X1078000D01*
X1048000Y851458D02*
Y865458D01*
X1078000Y851458D02*
Y865458D01*
X1069500Y890500D02*
X1110500D01*
X1069500Y931500D02*
X1110500D01*
X1069500Y890500D02*
Y931500D01*
X1110500Y890500D02*
Y931500D01*
X977150Y928500D02*
Y959500D01*
X1008150Y928500D02*
Y959500D01*
X977150Y928500D02*
X1008150D01*
X977150Y959500D02*
X1008150D01*
X524350Y953500D02*
Y962500D01*
X541350Y953500D02*
Y962500D01*
X524350D02*
X541350D01*
X524350Y953500D02*
X541350D01*
X612500D02*
Y962500D01*
X629500Y953500D02*
Y962500D01*
X612500D02*
X629500D01*
X612500Y953500D02*
X629500D01*
X968000Y743000D02*
X1038000D01*
X1038000Y793000D01*
X968000Y743000D02*
Y793000D01*
X1038000D01*
X792500Y895000D02*
X822500D01*
X779500Y797000D02*
X792500D01*
Y803000D01*
X822500Y803000D01*
X792500Y895000D02*
Y901000D01*
X779500D02*
X792500D01*
X779500Y797000D02*
Y901000D01*
X822500Y803000D02*
Y895000D01*
X848000Y913500D02*
Y921500D01*
X780000Y913500D02*
X848000D01*
X832000Y921500D02*
X848000D01*
X832000Y921500D02*
Y984500D01*
X832000Y984500D02*
X848000D01*
X772000Y918500D02*
X780000D01*
Y913500D02*
Y918500D01*
X772000D02*
Y987500D01*
Y987500D02*
X780000D01*
Y987500D02*
Y992500D01*
X848000Y984500D02*
Y992500D01*
X780000D02*
X848000D01*
X389293Y924500D02*
Y941500D01*
X380293Y924500D02*
Y941500D01*
Y924500D02*
X389293D01*
X380293Y941500D02*
X389293D01*
X449000Y921500D02*
X475000D01*
X449000Y888500D02*
X475000D01*
X475000Y921500D02*
X475000Y888500D01*
X449000D02*
X449000Y921500D01*
X895500Y1110543D02*
G03*
X895500Y1110543I-5000J0D01*
G01*
X369500Y1095500D02*
G03*
X369500Y1095500I-5000J0D01*
G01*
X1083500Y1149500D02*
G03*
X1083500Y1149500I-5000J0D01*
G01*
X991150Y1187500D02*
G03*
X991150Y1187500I-5000J0D01*
G01*
X354270Y1044146D02*
Y1059146D01*
X386270D01*
Y1044146D02*
Y1059146D01*
X354270Y1044146D02*
X386270D01*
X914500Y1180335D02*
X965500D01*
X914500Y1127335D02*
X965500D01*
Y1180335D01*
X914500Y1127335D02*
Y1180335D01*
X1155000Y1108250D02*
X1177000D01*
X1155000Y1093750D02*
X1177000D01*
X1155000D02*
Y1108250D01*
X1177000Y1093750D02*
Y1108250D01*
X1079770Y1202276D02*
X1101770D01*
X1079770Y1216776D02*
X1101770D01*
X1079770Y1202276D02*
Y1216776D01*
X1101770Y1202276D02*
Y1216776D01*
X1031000Y1159250D02*
X1053000D01*
X1031000Y1144750D02*
X1053000D01*
Y1159250D01*
X1031000Y1144750D02*
Y1159250D01*
X604293Y1104208D02*
X639293D01*
X604293Y1086208D02*
X639293D01*
X604293D02*
Y1104208D01*
X639293Y1086208D02*
Y1104208D01*
X305000Y1114500D02*
Y1149500D01*
X287000Y1114500D02*
Y1149500D01*
X305000D01*
X287000Y1114500D02*
X305000D01*
X937500Y1197000D02*
X972500D01*
X937500Y1215000D02*
X972500D01*
Y1197000D02*
Y1215000D01*
X937500Y1197000D02*
Y1215000D01*
X569000Y1185000D02*
X585000D01*
Y1193000D01*
X569000D02*
X585000D01*
X569000Y1185000D02*
Y1193000D01*
X571000Y1189000D02*
X574000D01*
X899500Y1053543D02*
Y1119543D01*
X854500Y1053543D02*
Y1119543D01*
X899500D01*
X854500Y1053543D02*
X899500D01*
X984750Y1122750D02*
X1015250D01*
X984750Y1105250D02*
X1015250D01*
X984750D02*
Y1122750D01*
X1015250D02*
X1015250Y1105250D01*
X426500Y1086500D02*
Y1157500D01*
X355500Y1086500D02*
Y1157500D01*
X426500D01*
X355500Y1086500D02*
X426500D01*
X1048000Y1101458D02*
X1078000D01*
X1048000Y1115458D02*
X1078000D01*
X1048000Y1101458D02*
Y1115458D01*
X1078000Y1101458D02*
Y1115458D01*
X1069500Y1140500D02*
X1110500D01*
X1069500Y1181500D02*
X1110500D01*
X1069500Y1140500D02*
Y1181500D01*
X1110500Y1140500D02*
Y1181500D01*
X977150Y1178500D02*
Y1209500D01*
X1008150Y1178500D02*
Y1209500D01*
X977150Y1178500D02*
X1008150D01*
X977150Y1209500D02*
X1008150D01*
X524350Y1203500D02*
Y1212500D01*
X541350Y1203500D02*
Y1212500D01*
X524350D02*
X541350D01*
X524350Y1203500D02*
X541350D01*
X612500D02*
Y1212500D01*
X629500Y1203500D02*
Y1212500D01*
X612500D02*
X629500D01*
X612500Y1203500D02*
X629500D01*
X968000Y993000D02*
X1038000D01*
X1038000Y1043000D01*
X968000Y993000D02*
Y1043000D01*
X1038000D01*
X792500Y1145000D02*
X822500D01*
X779500Y1047000D02*
X792500D01*
Y1053000D01*
X822500Y1053000D01*
X792500Y1145000D02*
Y1151000D01*
X779500D02*
X792500D01*
X779500Y1047000D02*
Y1151000D01*
X822500Y1053000D02*
Y1145000D01*
X848000Y1163500D02*
Y1171500D01*
X780000Y1163500D02*
X848000D01*
X832000Y1171500D02*
X848000D01*
X832000Y1171500D02*
Y1234500D01*
X832000Y1234500D02*
X848000D01*
X772000Y1168500D02*
X780000D01*
Y1163500D02*
Y1168500D01*
X772000D02*
Y1237500D01*
Y1237500D02*
X780000D01*
Y1237500D02*
Y1242500D01*
X848000Y1234500D02*
Y1242500D01*
X780000D02*
X848000D01*
X389293Y1174500D02*
Y1191500D01*
X380293Y1174500D02*
Y1191500D01*
Y1174500D02*
X389293D01*
X380293Y1191500D02*
X389293D01*
X449000Y1171500D02*
X475000D01*
X449000Y1138500D02*
X475000D01*
X475000Y1171500D02*
X475000Y1138500D01*
X449000D02*
X449000Y1171500D01*
M02*
