M48
;Layer_Color=9474304
;FILE_FORMAT=4:4
METRIC,LZ
;TYPE=PLATED
T1F00S00C0.2000
T2F00S00C0.3000
T5F00S00C0.6000
T6F00S00C0.7500
T7F00S00C0.9000
%
T01
X01198Y0053994
X011966Y005644
X01245764Y00584994
X01252804Y00585081
X0125Y00615
X01294Y00612149
X01314415Y00586585
X01357Y00569841
X01350664Y00557336
X01357463Y00548791
X01341Y00551
X01377453Y005483
X01391964Y0054706
X01393Y00616
X01406Y0062
X01439Y00625
X0144Y00647
X0145586Y00645283
X01471Y00615292
X01464Y00596
X01448246Y00595676
X01467621Y00580799
X01371567Y00646309
X01372142Y006543
X01379575Y00669899
X0137Y00678886
Y007
X01362878Y0069979
X0135617Y00687172
X013293Y0068767
X0131654Y0069606
X0130442
X01307Y0068
X01311622Y00665572
X01312334Y00649
X013345Y006555
Y006665
X013455
Y006555
X01348Y00632
X01386163Y0068767
X01333Y00721667
X01302Y00722
X012645Y007165
X012685Y007035
X01276Y00682
X0121252Y0064152
X01198Y00724
X01131038Y00712962
X01131708Y00609292
X01146Y00603
X01146338Y00615353
X01176729Y00605174
X011751Y00590039
X01175Y00583
X01165458Y00577221
X01166708Y00570293
X01164914Y00563485
X01180425Y00569409
X01176287Y005525
X01143525Y00557525
X01141Y0057
X01124545Y0056983
X01113Y0057506
X01111801Y0056294
X01114Y0054906
X01104Y00544
X01094Y0055
X0108734Y0057763
X01089816Y00590491
X01088906Y00597472
X01088499Y00604501
X01089Y00615
X01120159Y00595487
X0116425Y00590045
X00993751Y00585001
X00986251
X00978751
X00971251
X00963751
X00956251
X00948751
X00941251
X00933751
X00926251
X00918751
X00911251
X00903751
X00896251
X00900001Y00592501
X00907501
X00915001
X00922501
X00930001
X00937501
X00945001
X00952501
X00960001
X00967501
X00975001
X00982501
X00990001
X00993751Y00600001
X00986251
X00978751
X00971251
X00963751
X00956251
X00948751
X00941251
X00933751
X00926251
X00918751
X00911251
X00903751
X00907501Y00607501
X00915001
X00922501
X00930001
X00937501
X00945001
X00952501
X00960001
X00967501
X00975001
X00982501
X00990001
X00993751Y00615001
X00986251
X00978751
X00971251
X00963751
X00956251
X00948751
X00941251
X00933751
X00926251
X00918751
X00911251
X00903751
X00896251
X00888751
X00881251
X00873751
X00866251
X00858751
X00851251
X00843751
X00836251
X00828751
X00821251
X00813751
X00806251
X00798751
X00802501Y00622501
X00810001
X00817501
X00825001
X00832501
X00840001
X00847501
X00855001
X00862501
X00870001
X00877501
X00885001
X00892501
X00900001
X00896251Y00630001
X00888751
X00881251
X00873751
X00866251
X00858751
X00851251
X00843751
X00836251
X00828751
X00821251
X00813751
X00806251
X00798751
X00802501Y00637501
X00810001
X00817501
X00825001
X00832501
X00840001
X00847501
X00855001
X00862501
X00870001
X00877501
X00885001
X00892501
X00900001
X00896251Y00645001
X00888751
X00881251
X00873751
X00866251
X00858751
X00851251
X00843751
X00836251
X00828751
X00821251
X00813751
X00806251
X00798751
X00802501Y00652501
X00810001
X00817501
X00825001
X00832501
X00840001
X00847501
X00855001
X00862501
X00870001
X00877501
X00885001
X00892501
X00900001
X00896251Y00660001
X00888751
X00881251
X00873751
X00866251
X00858751
X00851251
X00843751
X00836251
X00828751
X00821251
X00813751
X00806251
X00798751
X00802501Y00667501
X00810001
X00817501
X00825001
X00832501
X00840001
X00847501
X00855001
X00862501
X00870001
X00877501
X00885001
X00892501
X00900001
Y00682501
Y00697501
X00877501
X00870001
X00862501
X00866251Y00690001
X00873751
X00877501Y00682501
X00870001
X00862501
X00866251Y00675001
X00873751
X00843751
X00836251
X00828751
X00821251
X00813751
X00810001Y00697501
X00813751Y00705001
X00821251
X00828751
X00836251
X00843751
X00847501Y00712501
X00840001
X00832501
X00825001
X00817501
X00810001
X00802501
X00806251Y00720001
X00813751
X00821251
X00828751
X00836251
X00843751
X00851251
X00858751
X00866251
X00873751
X00881251
X00888751
X00896251
X00900001Y00727501
X00892501
X00885001
X00877501
X00870001
X00862501
X00855001
X00847501
X00840001
X00851251Y00735001
X00858751
X00866251
X00873751
X00881251
X00888751
X00896251
X00900001Y00742501
X00892501
X00885001
X00877501
X00870001
X00862501
X00855001
X00847501
Y00682501
X00840001
X00806251Y00705001
X00798751Y00720001
X00795001Y00667501
Y00652501
Y00637501
Y00622501
Y00607501
X00802501
X00810001
X00817501
X00825001
X00832501
X00840001
X00870001
X00877501
X00873751Y00600001
X00870001Y00592501
X00862501Y00577501
X00855001
X00847501
X00840001
X00843751Y00570001
X00851251
X00858751
X00866251
X00870001Y00562501
X00877501
X00881251Y00555001
X00873751
X00866251
X00858751
X00851251
X00843751
X00836251
X00840001Y00562501
X00847501
X00855001
X00862501
Y00547501
X00870001
X00877501
X00885001
X00892501
X00896251Y00540001
X00888751
X00881251
X00873751
X00866251
X00858751
X00851251
X00843751
X00836251
X00840001Y00547501
X00847501
X00855001
Y00532501
X00862501
X00870001
X00877501
X00885001
X00892501
X00900001
X00907501
X00911251Y00525001
X00903751
X00896251
X00888751
X00881251
X00873751
X00866251
X00858751
X00851251
X00843751
X00836251
X00828751
X00821251
X00832501Y00532501
X00840001
X00847501
Y00517501
X00855001
X00862501
X00870001
X00877501
X00885001
X00892501
X00900001
X00907501
X00915001
X00922501
X00926251Y00510001
X00933751
X00941251
X00948751
X00956251
X00963751
X00971251
X00978751
X00986251
X00993751
X00990001Y00517501
X00982501
X00975001
X00978751Y00525001
X00986251
X00993751
X00990001Y00532501
X00982501
X00975001
X00967501
X00960001
X00952501
X00945001
X00937501
X00930001
X00933751Y00540001
X00941251
X00948751
X00956251
X00963751
X00971251
X00978751
X00986251
X00993751
X00990001Y00547501
X00982501
X00975001
X00967501
X00960001
X00952501
X00945001
X00937501
X00930001
X00922501
X00915001
X00918751Y00555001
X00926251
X00933751
X00941251
X00948751
X00956251
X00963751
X00971251
X00978751
X00986251
X00993751
X00990001Y00562501
X00982501
X00975001
X00967501
X00960001
X00952501
X00945001
X00937501
X00930001
X00922501
X00915001
X00907501
X00900001
X00903751Y00570001
X00911251
X00918751
X00926251
X00933751
X00941251
X00948751
X00956251
X00963751
X00971251
X00978751
X00986251
X00993751
X00990001Y00577501
X00982501
X00975001
X00967501
X00960001
X00952501
X00945001
X00937501
X00930001
X00922501
X00915001
X00907501
X00900001
X00892501
X00885001
X00896251Y00570001
X00911251Y00555001
X00926251Y00540001
X00918751Y00510001
X00911251
X00903751
X00896251
X00888751
X00881251
X00873751
X00866251
X00858751
X00851251
X00843751
X00836251
X00840001Y00517501
X00832501Y00547501
Y00562501
X00836251Y00570001
X00813751
X00817501Y00577501
X00821251Y00585001
X00813751
X00806251
X00798751
X00795001Y00577501
Y00562501
X00798751Y00555001
X00806251
X00813751
X00810001Y00547501
X00802501
X00795001
X00813751Y00540001
X00795001Y00517501
X00798751Y00510001
X00971251Y00525001
X00900001Y00607501
X00787501
X00780001
X00772501
X00765001
X00757501
X00750001
X00742501
X00746251Y00615001
X00753751
X00761251
X00768751
X00776251
X00783751
X00791251
X00787501Y00622501
X00780001
X00772501
X00765001
X00757501
X00750001
X00742501
X00735Y0062
X00727501Y00622501
X00720001
X00712501
X00703099Y00625526
X00689273Y00631586
X00688579Y00639198
X00684192Y00620006
X00663Y00622
X00663Y00633
X00652
Y00644
X00663Y00644
X00641
Y00633
Y00622
X00652
X00652Y00611
X00663
X00663Y006
X00652Y006
X00641Y006
Y00611
X0063Y00611
Y006
X00619Y006
X00619Y00611
X00619Y00622
X0063
X0063Y00633
Y00644
X00619Y00644
X00619Y00633
X00585343Y00636193
X00585261Y00628269
X0058644Y00621328
X00581251Y00615001
X00573751
X00566251
X00558751
X00562501Y00622501
X00570001
X00566251Y00630001
X00558751
X00551251
X00543751
X00536251
X00528751
X00521251
X00513751
X00506251
X00510001Y00637501
X00517501
X00525001
X00528751Y00645001
X00521251
X00513751
X00506251
X00510001Y00652501
X00517501
X00525001
X00528751Y00660001
X00536251
X00540001Y00667501
X00532501
X00525001
X00517501
X00510001
X00513751Y00675001
X00521251
X00528751
X00536251
X00540001Y00682501
X00532501
X00525001
X00517501
X00510001
X00513751Y00690001
X00521251
X00528751
X00536251
X00540001Y00697501
X00547501
X00551251Y00705001
X00543751
X00536251
X00528751
X00521251
X00513751
X00506251
X00510001Y00712501
X00517501
X00525001
X00532501
X00540001
X00547501
X00543751Y00720001
X00536251
X00528751
X00521251
X00513751
X00506251
X00510001Y00727501
X00517501
X00513751Y00735001
X00506251
X00510001Y00742501
X00517501
X00540001
X00547501
X00562501
X00592501
X00600001
X00607501
X00615001
X00622501
X00630001
X00637501
X00645001
X00652501
X00660001
X00667501
X00675001
X00682501
X00690001
X00697501
X00705001
X00712501
X00720001
X00727501
X00735001
X00742501
X00750001
X00757501
X00765001
X00753Y0073
X00746251Y00735001
X00738751
X00731251
X00723751
X00716251
X00708751
X00701251
X00693751
X00686251
X00678751
X00671251
X00675001Y00727501
X00682501
X00690001
X00697501
X00705001
X00712501
X00720001
X00727501
X00735001
Y00697501
X00742501
X00727501
X00720001
X00712501
X00705001
X00697501
X00690001
X00682501
X00675001
X00667501
X00660001
X00663751Y00690001
X00671251
X00678751
X00686251
X00693751
X00701251
X00708751
X00716251
X00723751
X00731251
X00732Y00669575
X00738751Y00660001
X00745565Y00655398
X00754Y00655
X00761251Y00660001
X00768751
X00776251
X00783751
X00791251
X00787501Y00667501
X00780001
X00772501
X00765001
X00757501
X00753751Y00675001
X00757501Y00682501
X00750001
X00772501
X00780001
X00787501
X00791251Y00675001
X00783751
X00776251
Y00690001
X00783751
X00787501Y00697501
X00780001
X00783751Y00720001
X00791251
X00776251
X00768751
X00765001Y00712501
X00753751Y00705001
X00765001Y00652501
X00772501
X00780001
X00787501
X00791251Y00645001
X00783751
X00776251
X00768751
X00772501Y00637501
X00780001
X00787501
X00791251Y00630001
X00783751
X00776251
X00768751
X00761251
X00753751
X00746251
X00738751
X00731251
X00723751
X00724208Y00595207
X00716251Y00600001
X00708751
X00709905Y00574608
X00706Y0056875
X0069896Y00568056
X00692Y00567
X00684Y00565
X00717
X00723751Y00555001
X00731251
X00738751
X00735001Y00562501
X00731251Y00570001
X00753748Y00570252
X00757501Y00577501
X00761251Y00585001
X00768751
X00776251
X00783751
X00791251
X00780001Y00577501
Y00562501
X00783751Y00555001
X00791251
X00787501Y00547501
X00780001
X00772501
X00765001
X00757501
X00761251Y00555001
X00768751
X00776251
X00783751Y00540001
X00791251
X00787501Y00517501
X00780001
X00783751Y00510001
X00791251
X00776251
X00768751
X00761251
X00753751
X00746251
X00738751
X00731251
X00723751
X00716251
X00708751
X00712501Y00517501
X00720001
X00727501
X00735001
X00742501
X00750001
X00757501
X00746251Y00525001
X00738751
X00731251
X00723751
X00716251
X00708751
X00712501Y00532501
X00720001
X00727501
X00735001
X00738751Y00540001
X00731251
X00723751
X00716251
X00708751
X00720001Y00547501
X00727501
X00735001
X00747Y00536
X00753751Y00540001
X00761251
X00753751Y00555001
X00757501Y00562501
X00753751Y00585001
X006545Y00575132
X00645537Y00575625
X006285Y005785
X00599Y00573
X005925Y005795
X00585001Y00577501
X00577501
X00570001
X00562501
X00555001
X00547501
X00540001
X00532501
X00525001
X00517501
X00510001
X00513751Y00585001
X00521251
X00528751
X00536251
X00543751
X00551251
X00558751
X00566251
X00573751
X00581251
Y00570001
X00588751
X00592501Y00562501
X00596251Y00555001
X00573751
X00566251
X00558751
X00551251
X00543751
X00536251
X00528751
X00521251
X00513751
X00506251
X00510001Y00562501
X00517501
X00525001
X00532501
X00540001
X00547501
X00555001
X00562501
X00570001
X00577501
X00573751Y00570001
X00566251
X00558751
X00551251
X00543751
X00536251
X00528751
X00521251
X00513751
X00506251
Y00585001
X00510001Y00592501
X00517501
X00525001
X00532501
X00540001
X00547501
X00555001
X00562501
X00570001
X00566251Y00600001
X00558751
X00551251
X00543751
X00536251
X00528751
X00521251
X00513751
X00506251
X00510001Y00607501
X00517501
X00525001
X00532501
X00528751Y00615001
X00521251
X00513751
X00506251
X00510001Y00622501
X00517501
X00525001
X00532501
X00562501Y00637501
Y00652501
X00558751Y00660001
X00562501Y00667501
X00555001
X00558751Y00675001
X00562501Y00682501
X00555001
X00566251Y00690001
X00574665Y00694335
X00577Y00703
X00588751Y00705001
X00592501Y00712501
X00585001
X00588751Y00720001
X00596251
X00603751
X00607501Y00727501
X00600001
X00592501
X00626251Y00735001
X00633751
X00652501Y00727501
X00667501
X00664Y00682
X00675001Y00682501
X00659Y00671
X00639043Y00665368
X00625303Y00690284
X00600001Y00682501
X00601285Y00673285
X00603751Y00660001
X0059856Y00652072
X0058644Y0065213
X00581285Y00647335
X00585001Y00607501
X00577501
X00570001
X00562501
Y00547501
X00570001
X00573751Y00540001
X00566251
X00558751
X00551251
X00543751
X00536251
X00528751
X00521251
X00513751
X00506251
X00510001Y00547501
X00517501
X00525001
X00532501
X00540001
X00547501
X00555001
Y00532501
X00562501
X00570001
X00577501
X00585001
X00581251Y00525001
X00573751
X00566251
X00558751
X00551251
X00543751
X00536251
X00528751
X00521251
X00513751
X00506251
X00510001Y00532501
X00517501
X00525001
X00532501
X00540001
X00547501
Y00517501
X00555001
X00562501
X00570001
X00577501
X00585001
X00581251Y00510001
X00573751
X00566251
X00558751
X00551251
X00543751
X00536251
X00528751
X00521251
X00513751
X00506251
X00510001Y00517501
X00517501
X00525001
X00532501
X00540001
X00620422Y00535591
X00645001Y00547501
X00692Y00529
X00521251Y00660001
X00513751
X00506251
Y00675001
Y00690001
X00510001Y00697501
X00517501
X00525001
X00532501
T02
X00624107Y00682602
T05
X011966Y00516
X01244Y00641
X012567
X01317Y00737
X013297
X013424
X0145Y0052
X014627
X011839Y00516
X011712
X011585
X011458
X011331
X011204
X011077
X01095
X009627Y0052
X0095
X008364Y00737
X008237
X00811
X007567Y00641
X00744
X006966Y00516
X006839
X006712
X006585
X006458
X006331
X006204
X006077
X00595
X005807Y00734
X00568
X005553
X005426
X005299
T06
X00788Y0053
Y0057
T07
X01432Y00694
Y007194
X010664Y00524
X01041
M30
