G04*
G04 #@! TF.GenerationSoftware,Altium Limited,Altium Designer,21.0.9 (235)*
G04*
G04 Layer_Color=32896*
%FSLAX44Y44*%
%MOMM*%
G71*
G04*
G04 #@! TF.SameCoordinates,35DE941F-9A8C-42F3-B98C-DFFE3D48772F*
G04*
G04*
G04 #@! TF.FilePolarity,Positive*
G04*
G01*
G75*
%ADD10C,0.1000*%
%ADD11C,0.2500*%
%ADD12C,0.2540*%
%ADD13C,0.2000*%
%ADD14C,0.1270*%
%ADD127C,0.6000*%
D10*
X1323149Y699905D02*
G03*
X1323149Y699905I-500J0D01*
G01*
X1310621Y661621D02*
G03*
X1310621Y661621I-500J0D01*
G01*
X1222150Y677000D02*
G03*
X1222150Y677000I-500J0D01*
G01*
D11*
X1156750Y623293D02*
G03*
X1156750Y623293I-1250J0D01*
G01*
X1233250Y627750D02*
G03*
X1233250Y627750I-1250J0D01*
G01*
D12*
X1468100Y602500D02*
G03*
X1468100Y602500I-100J0D01*
G01*
X1465100Y620000D02*
G03*
X1465100Y620000I-100J0D01*
G01*
X621000Y679793D02*
Y687793D01*
X605000Y679793D02*
Y687793D01*
Y561500D02*
Y569500D01*
X621000Y561500D02*
Y569500D01*
X647000Y562000D02*
Y570000D01*
X631000Y562000D02*
Y570000D01*
X656543Y562000D02*
Y570000D01*
X672542Y562000D02*
Y570000D01*
X1382000Y661000D02*
X1390000D01*
X1382000Y677000D02*
X1390000D01*
X1340000Y614000D02*
Y622000D01*
X1356000Y614000D02*
Y622000D01*
X1382000Y651000D02*
X1390000D01*
X1382000Y635000D02*
X1390000D01*
X1252543Y669707D02*
X1260543Y669707D01*
X1252543Y653707D02*
X1260543D01*
X1223000Y653708D02*
X1231000Y653707D01*
X1223000Y669707D02*
X1231000D01*
X1253000Y734293D02*
X1261000D01*
X1253000Y718292D02*
X1261000Y718292D01*
X1223457D02*
X1231457Y718292D01*
X1223457Y734293D02*
X1231457D01*
X632000Y545957D02*
X640000D01*
X632000Y529958D02*
X640000D01*
X581000Y627000D02*
X589000D01*
X581000Y643000D02*
X589000Y643000D01*
X581000Y586000D02*
X589000D01*
X581000Y602000D02*
X589000D01*
X722543Y620000D02*
X730543D01*
X722543Y604000D02*
X730543D01*
X693000D02*
X701000D01*
X693000Y620000D02*
X701000D01*
X693000Y594458D02*
X701000D01*
X693000Y578457D02*
X701000D01*
X581000Y655000D02*
X589000D01*
X581000Y671000D02*
X589000D01*
D13*
X1145500Y553543D02*
Y619543D01*
X1108500Y553543D02*
Y619543D01*
X1145500D01*
X1108500Y553543D02*
X1145500Y553543D01*
X1234500Y609000D02*
Y619000D01*
X1265500Y609000D02*
Y619000D01*
X1234500D02*
X1265500D01*
X1234500Y609000D02*
X1265500D01*
X1225650Y677000D02*
Y678500D01*
Y709500D02*
X1225650Y711000D01*
X1259650Y677000D02*
Y678500D01*
Y709500D02*
Y711000D01*
X1225650Y677000D02*
X1232200Y677000D01*
X1253100Y677000D02*
X1259650Y677000D01*
X1225650Y711000D02*
X1232200D01*
X1253100D02*
X1259650D01*
X1457000Y644000D02*
X1471000D01*
X1409100Y636900D02*
Y644000D01*
Y606000D02*
Y636900D01*
X1471000Y606000D02*
Y644000D01*
X1409100D02*
X1457000D01*
X1409100Y606000D02*
X1471000D01*
D14*
X1474724Y660652D02*
Y655362D01*
X1473666Y654304D01*
X1471550D01*
X1470492Y655362D01*
Y660652D01*
X1468376Y659594D02*
X1467318Y660652D01*
X1465202D01*
X1464144Y659594D01*
Y658536D01*
X1465202Y657478D01*
X1464144Y656420D01*
Y655362D01*
X1465202Y654304D01*
X1467318D01*
X1468376Y655362D01*
Y656420D01*
X1467318Y657478D01*
X1468376Y658536D01*
Y659594D01*
X1467318Y657478D02*
X1465202D01*
X1132290Y630174D02*
Y624884D01*
X1131232Y623826D01*
X1129116D01*
X1128058Y624884D01*
Y630174D01*
X1125942D02*
X1121710D01*
Y629116D01*
X1125942Y624884D01*
Y623826D01*
X1275290Y697174D02*
Y691884D01*
X1274232Y690826D01*
X1272116D01*
X1271058Y691884D01*
Y697174D01*
X1268942Y696116D02*
X1267884Y697174D01*
X1265768D01*
X1264710Y696116D01*
Y695058D01*
X1265768Y694000D01*
X1266826D01*
X1265768D01*
X1264710Y692942D01*
Y691884D01*
X1265768Y690826D01*
X1267884D01*
X1268942Y691884D01*
X1281290Y617174D02*
Y611884D01*
X1280232Y610826D01*
X1278116D01*
X1277058Y611884D01*
Y617174D01*
X1270710Y610826D02*
X1274942D01*
X1270710Y615058D01*
Y616116D01*
X1271768Y617174D01*
X1273884D01*
X1274942Y616116D01*
X663877Y534826D02*
Y541174D01*
X660703D01*
X659645Y540116D01*
Y538000D01*
X660703Y536942D01*
X663877D01*
X661761D02*
X659645Y534826D01*
X657529D02*
X655413D01*
X656471D01*
Y541174D01*
X657529Y540116D01*
X652239Y534826D02*
X650123D01*
X651181D01*
Y541174D01*
X652239Y540116D01*
X652290Y686174D02*
Y679826D01*
X648058D01*
X642768D02*
Y686174D01*
X645942Y683000D01*
X641710D01*
X617232Y705116D02*
X618290Y706174D01*
X620406D01*
X621464Y705116D01*
Y700884D01*
X620406Y699826D01*
X618290D01*
X617232Y700884D01*
X615116Y705116D02*
X614058Y706174D01*
X611942D01*
X610884Y705116D01*
Y704058D01*
X611942Y703000D01*
X613000D01*
X611942D01*
X610884Y701942D01*
Y700884D01*
X611942Y699826D01*
X614058D01*
X615116Y700884D01*
X604536Y706174D02*
X608768D01*
Y703000D01*
X606652Y704058D01*
X605594D01*
X604536Y703000D01*
Y700884D01*
X605594Y699826D01*
X607710D01*
X608768Y700884D01*
X644232Y584116D02*
X645290Y585174D01*
X647406D01*
X648464Y584116D01*
Y579884D01*
X647406Y578826D01*
X645290D01*
X644232Y579884D01*
X642116Y584116D02*
X641058Y585174D01*
X638942D01*
X637884Y584116D01*
Y583058D01*
X638942Y582000D01*
X640000D01*
X638942D01*
X637884Y580942D01*
Y579884D01*
X638942Y578826D01*
X641058D01*
X642116Y579884D01*
X635768Y584116D02*
X634710Y585174D01*
X632594D01*
X631536Y584116D01*
Y583058D01*
X632594Y582000D01*
X633652D01*
X632594D01*
X631536Y580942D01*
Y579884D01*
X632594Y578826D01*
X634710D01*
X635768Y579884D01*
X680232Y614116D02*
X681290Y615174D01*
X683406D01*
X684464Y614116D01*
Y609884D01*
X683406Y608826D01*
X681290D01*
X680232Y609884D01*
X678116Y614116D02*
X677058Y615174D01*
X674942D01*
X673884Y614116D01*
Y613058D01*
X674942Y612000D01*
X676000D01*
X674942D01*
X673884Y610942D01*
Y609884D01*
X674942Y608826D01*
X677058D01*
X678116Y609884D01*
X667536Y608826D02*
X671768D01*
X667536Y613058D01*
Y614116D01*
X668594Y615174D01*
X670710D01*
X671768Y614116D01*
X729174Y630116D02*
X730232Y631174D01*
X732348D01*
X733406Y630116D01*
Y625884D01*
X732348Y624826D01*
X730232D01*
X729174Y625884D01*
X727058Y630116D02*
X726000Y631174D01*
X723884D01*
X722826Y630116D01*
Y629058D01*
X723884Y628000D01*
X724942D01*
X723884D01*
X722826Y626942D01*
Y625884D01*
X723884Y624826D01*
X726000D01*
X727058Y625884D01*
X720710Y624826D02*
X718594D01*
X719652D01*
Y631174D01*
X720710Y630116D01*
X565232Y596116D02*
X566290Y597174D01*
X568406D01*
X569464Y596116D01*
Y591884D01*
X568406Y590826D01*
X566290D01*
X565232Y591884D01*
X563116Y596116D02*
X562058Y597174D01*
X559942D01*
X558884Y596116D01*
Y595058D01*
X559942Y594000D01*
X561000D01*
X559942D01*
X558884Y592942D01*
Y591884D01*
X559942Y590826D01*
X562058D01*
X563116Y591884D01*
X556768Y596116D02*
X555710Y597174D01*
X553594D01*
X552536Y596116D01*
Y591884D01*
X553594Y590826D01*
X555710D01*
X556768Y591884D01*
Y596116D01*
X565232Y637116D02*
X566290Y638174D01*
X568406D01*
X569464Y637116D01*
Y632884D01*
X568406Y631826D01*
X566290D01*
X565232Y632884D01*
X558884Y631826D02*
X563116D01*
X558884Y636058D01*
Y637116D01*
X559942Y638174D01*
X562058D01*
X563116Y637116D01*
X556768Y632884D02*
X555710Y631826D01*
X553594D01*
X552536Y632884D01*
Y637116D01*
X553594Y638174D01*
X555710D01*
X556768Y637116D01*
Y636058D01*
X555710Y635000D01*
X552536D01*
X565232Y665116D02*
X566290Y666174D01*
X568406D01*
X569464Y665116D01*
Y660884D01*
X568406Y659826D01*
X566290D01*
X565232Y660884D01*
X558884Y659826D02*
X563116D01*
X558884Y664058D01*
Y665116D01*
X559942Y666174D01*
X562058D01*
X563116Y665116D01*
X556768D02*
X555710Y666174D01*
X553594D01*
X552536Y665116D01*
Y664058D01*
X553594Y663000D01*
X552536Y661942D01*
Y660884D01*
X553594Y659826D01*
X555710D01*
X556768Y660884D01*
Y661942D01*
X555710Y663000D01*
X556768Y664058D01*
Y665116D01*
X555710Y663000D02*
X553594D01*
X723232Y589116D02*
X724290Y590174D01*
X726406D01*
X727464Y589116D01*
Y584884D01*
X726406Y583826D01*
X724290D01*
X723232Y584884D01*
X716884Y583826D02*
X721116D01*
X716884Y588058D01*
Y589116D01*
X717942Y590174D01*
X720058D01*
X721116Y589116D01*
X714768Y590174D02*
X710536D01*
Y589116D01*
X714768Y584884D01*
Y583826D01*
X669232Y584116D02*
X670290Y585174D01*
X672406D01*
X673464Y584116D01*
Y579884D01*
X672406Y578826D01*
X670290D01*
X669232Y579884D01*
X662884Y578826D02*
X667116D01*
X662884Y583058D01*
Y584116D01*
X663942Y585174D01*
X666058D01*
X667116Y584116D01*
X656536Y585174D02*
X658652Y584116D01*
X660768Y582000D01*
Y579884D01*
X659710Y578826D01*
X657594D01*
X656536Y579884D01*
Y580942D01*
X657594Y582000D01*
X660768D01*
X617232Y584116D02*
X618290Y585174D01*
X620406D01*
X621464Y584116D01*
Y579884D01*
X620406Y578826D01*
X618290D01*
X617232Y579884D01*
X610884Y578826D02*
X615116D01*
X610884Y583058D01*
Y584116D01*
X611942Y585174D01*
X614058D01*
X615116Y584116D01*
X604536Y585174D02*
X608768D01*
Y582000D01*
X606652Y583058D01*
X605594D01*
X604536Y582000D01*
Y579884D01*
X605594Y578826D01*
X607710D01*
X608768Y579884D01*
X1366703Y671116D02*
X1367761Y672174D01*
X1369877D01*
X1370935Y671116D01*
Y666884D01*
X1369877Y665826D01*
X1367761D01*
X1366703Y666884D01*
X1364587Y665826D02*
X1362471D01*
X1363529D01*
Y672174D01*
X1364587Y671116D01*
X1359297D02*
X1358239Y672174D01*
X1356123D01*
X1355065Y671116D01*
Y666884D01*
X1356123Y665826D01*
X1358239D01*
X1359297Y666884D01*
Y671116D01*
X1364058Y645116D02*
X1365116Y646174D01*
X1367232D01*
X1368290Y645116D01*
Y640884D01*
X1367232Y639826D01*
X1365116D01*
X1364058Y640884D01*
X1361942D02*
X1360884Y639826D01*
X1358768D01*
X1357710Y640884D01*
Y645116D01*
X1358768Y646174D01*
X1360884D01*
X1361942Y645116D01*
Y644058D01*
X1360884Y643000D01*
X1357710D01*
X1277058Y728116D02*
X1278116Y729174D01*
X1280232D01*
X1281290Y728116D01*
Y723884D01*
X1280232Y722826D01*
X1278116D01*
X1277058Y723884D01*
X1274942Y728116D02*
X1273884Y729174D01*
X1271768D01*
X1270710Y728116D01*
Y727058D01*
X1271768Y726000D01*
X1270710Y724942D01*
Y723884D01*
X1271768Y722826D01*
X1273884D01*
X1274942Y723884D01*
Y724942D01*
X1273884Y726000D01*
X1274942Y727058D01*
Y728116D01*
X1273884Y726000D02*
X1271768D01*
X1208058Y728116D02*
X1209116Y729174D01*
X1211232D01*
X1212290Y728116D01*
Y723884D01*
X1211232Y722826D01*
X1209116D01*
X1208058Y723884D01*
X1205942Y729174D02*
X1201710D01*
Y728116D01*
X1205942Y723884D01*
Y722826D01*
X1208058Y663531D02*
X1209116Y664589D01*
X1211232D01*
X1212290Y663531D01*
Y659299D01*
X1211232Y658241D01*
X1209116D01*
X1208058Y659299D01*
X1201710Y664589D02*
X1203826Y663531D01*
X1205942Y661415D01*
Y659299D01*
X1204884Y658241D01*
X1202768D01*
X1201710Y659299D01*
Y660357D01*
X1202768Y661415D01*
X1205942D01*
X1275058Y670116D02*
X1276116Y671174D01*
X1278232D01*
X1279290Y670116D01*
Y665884D01*
X1278232Y664826D01*
X1276116D01*
X1275058Y665884D01*
X1268710Y671174D02*
X1272942D01*
Y668000D01*
X1270826Y669058D01*
X1269768D01*
X1268710Y668000D01*
Y665884D01*
X1269768Y664826D01*
X1271884D01*
X1272942Y665884D01*
X1342058Y697116D02*
X1343116Y698174D01*
X1345232D01*
X1346290Y697116D01*
Y692884D01*
X1345232Y691826D01*
X1343116D01*
X1342058Y692884D01*
X1336768Y691826D02*
Y698174D01*
X1339942Y695000D01*
X1335710D01*
X1293058Y670116D02*
X1294116Y671174D01*
X1296232D01*
X1297290Y670116D01*
Y665884D01*
X1296232Y664826D01*
X1294116D01*
X1293058Y665884D01*
X1290942Y670116D02*
X1289884Y671174D01*
X1287768D01*
X1286710Y670116D01*
Y669058D01*
X1287768Y668000D01*
X1288826D01*
X1287768D01*
X1286710Y666942D01*
Y665884D01*
X1287768Y664826D01*
X1289884D01*
X1290942Y665884D01*
X1349058Y605116D02*
X1350116Y606174D01*
X1352232D01*
X1353290Y605116D01*
Y600884D01*
X1352232Y599826D01*
X1350116D01*
X1349058Y600884D01*
X1342710Y599826D02*
X1346942D01*
X1342710Y604058D01*
Y605116D01*
X1343768Y606174D01*
X1345884D01*
X1346942Y605116D01*
D127*
X1138500Y609543D02*
G03*
X1138500Y609543I-3000J0D01*
G01*
M02*
