G04*
G04 #@! TF.GenerationSoftware,Altium Limited,Altium Designer,21.0.9 (235)*
G04*
G04 Layer_Color=128*
%FSLAX44Y44*%
%MOMM*%
G71*
G04*
G04 #@! TF.SameCoordinates,35DE941F-9A8C-42F3-B98C-DFFE3D48772F*
G04*
G04*
G04 #@! TF.FilePolarity,Positive*
G04*
G01*
G75*
%ADD130C,0.0508*%
D130*
X784250Y530000D02*
X791750D01*
X788000Y526250D02*
Y533750D01*
X784250Y570000D02*
X791750D01*
X788000Y566250D02*
Y573750D01*
X1036500Y524000D02*
X1045500D01*
X1041000Y519500D02*
Y528500D01*
X1061900Y524000D02*
X1070900D01*
X1066400Y519500D02*
Y528500D01*
X947000Y520000D02*
X953000D01*
X950000Y517000D02*
Y523000D01*
X959700Y520000D02*
X965700D01*
X962700Y517000D02*
Y523000D01*
X833400Y737000D02*
X839400D01*
X836400Y734000D02*
Y740000D01*
X820700Y737000D02*
X826700D01*
X823700Y734000D02*
Y740000D01*
X808000Y737000D02*
X814000D01*
X811000Y734000D02*
Y740000D01*
X741000Y641000D02*
X747000D01*
X744000Y638000D02*
Y644000D01*
X753700Y641000D02*
X759700D01*
X756700Y638000D02*
Y644000D01*
X592000Y516000D02*
X598000D01*
X595000Y513000D02*
Y519000D01*
X604700Y516000D02*
X610700D01*
X607700Y513000D02*
Y519000D01*
X617400Y516000D02*
X623400D01*
X620400Y513000D02*
Y519000D01*
X630100Y516000D02*
X636100D01*
X633100Y513000D02*
Y519000D01*
X642800Y516000D02*
X648800D01*
X645800Y513000D02*
Y519000D01*
X655500Y516000D02*
X661500D01*
X658500Y513000D02*
Y519000D01*
X668200Y516000D02*
X674200D01*
X671200Y513000D02*
Y519000D01*
X680900Y516000D02*
X686900D01*
X683900Y513000D02*
Y519000D01*
X693600Y516000D02*
X699600D01*
X696600Y513000D02*
Y519000D01*
X1092000Y516000D02*
X1098000D01*
X1095000Y513000D02*
Y519000D01*
X1104700Y516000D02*
X1110700D01*
X1107700Y513000D02*
Y519000D01*
X1117400Y516000D02*
X1123400D01*
X1120400Y513000D02*
Y519000D01*
X1130100Y516000D02*
X1136100D01*
X1133100Y513000D02*
Y519000D01*
X1142800Y516000D02*
X1148800D01*
X1145800Y513000D02*
Y519000D01*
X1155500Y516000D02*
X1161500D01*
X1158500Y513000D02*
Y519000D01*
X1168200Y516000D02*
X1174200D01*
X1171200Y513000D02*
Y519000D01*
X1180900Y516000D02*
X1186900D01*
X1183900Y513000D02*
Y519000D01*
X1193600Y516000D02*
X1199600D01*
X1196600Y513000D02*
Y519000D01*
X1339400Y737000D02*
X1345400D01*
X1342400Y734000D02*
Y740000D01*
X1326700Y737000D02*
X1332700D01*
X1329700Y734000D02*
Y740000D01*
X1314000Y737000D02*
X1320000D01*
X1317000Y734000D02*
Y740000D01*
X1447000Y520000D02*
X1453000D01*
X1450000Y517000D02*
Y523000D01*
X1459700Y520000D02*
X1465700D01*
X1462700Y517000D02*
Y523000D01*
X1241000Y641000D02*
X1247000D01*
X1244000Y638000D02*
Y644000D01*
X1253700Y641000D02*
X1259700D01*
X1256700Y638000D02*
Y644000D01*
X1427500Y719400D02*
X1436500D01*
X1432000Y714900D02*
Y723900D01*
X1427500Y694000D02*
X1436500D01*
X1432000Y689500D02*
Y698500D01*
X1275250Y541500D02*
X1280750D01*
X1278000Y538750D02*
Y544250D01*
X1225250Y541500D02*
X1230750D01*
X1228000Y538750D02*
Y544250D01*
X1285500Y514500D02*
X1290500D01*
X1288000Y512000D02*
Y517000D01*
X1215500Y514500D02*
X1220500D01*
X1218000Y512000D02*
Y517000D01*
X577700Y734000D02*
X583700D01*
X580700Y731000D02*
Y737000D01*
X565000Y734000D02*
X571000D01*
X568000Y731000D02*
Y737000D01*
X552300Y734000D02*
X558300D01*
X555300Y731000D02*
Y737000D01*
X539600Y734000D02*
X545600D01*
X542600Y731000D02*
Y737000D01*
X526900Y734000D02*
X532900D01*
X529900Y731000D02*
Y737000D01*
X992751Y615001D02*
X994751D01*
X993751Y614001D02*
Y616001D01*
X989001Y607501D02*
X991001D01*
X990001Y606501D02*
Y608501D01*
X992751Y600001D02*
X994751D01*
X993751Y599001D02*
Y601001D01*
X989001Y592501D02*
X991001D01*
X990001Y591501D02*
Y593501D01*
X992751Y585001D02*
X994751D01*
X993751Y584001D02*
Y586001D01*
X989001Y577501D02*
X991001D01*
X990001Y576501D02*
Y578501D01*
X992751Y570001D02*
X994751D01*
X993751Y569001D02*
Y571001D01*
X989001Y562501D02*
X991001D01*
X990001Y561501D02*
Y563501D01*
X992751Y555001D02*
X994751D01*
X993751Y554001D02*
Y556001D01*
X989001Y547501D02*
X991001D01*
X990001Y546501D02*
Y548501D01*
X992751Y540001D02*
X994751D01*
X993751Y539001D02*
Y541001D01*
X989001Y532501D02*
X991001D01*
X990001Y531501D02*
Y533501D01*
X992751Y525001D02*
X994751D01*
X993751Y524001D02*
Y526001D01*
X989001Y517501D02*
X991001D01*
X990001Y516501D02*
Y518501D01*
X992751Y510001D02*
X994751D01*
X993751Y509001D02*
Y511001D01*
X985251Y615001D02*
X987251D01*
X986251Y614001D02*
Y616001D01*
X981501Y607501D02*
X983501D01*
X982501Y606501D02*
Y608501D01*
X985251Y600001D02*
X987251D01*
X986251Y599001D02*
Y601001D01*
X981501Y592501D02*
X983501D01*
X982501Y591501D02*
Y593501D01*
X985251Y585001D02*
X987251D01*
X986251Y584001D02*
Y586001D01*
X981501Y577501D02*
X983501D01*
X982501Y576501D02*
Y578501D01*
X985251Y570001D02*
X987251D01*
X986251Y569001D02*
Y571001D01*
X981501Y562501D02*
X983501D01*
X982501Y561501D02*
Y563501D01*
X985251Y555001D02*
X987251D01*
X986251Y554001D02*
Y556001D01*
X981501Y547501D02*
X983501D01*
X982501Y546501D02*
Y548501D01*
X985251Y540001D02*
X987251D01*
X986251Y539001D02*
Y541001D01*
X981501Y532501D02*
X983501D01*
X982501Y531501D02*
Y533501D01*
X985251Y525001D02*
X987251D01*
X986251Y524001D02*
Y526001D01*
X981501Y517501D02*
X983501D01*
X982501Y516501D02*
Y518501D01*
X985251Y510001D02*
X987251D01*
X986251Y509001D02*
Y511001D01*
X977751Y615001D02*
X979751D01*
X978751Y614001D02*
Y616001D01*
X974001Y607501D02*
X976001D01*
X975001Y606501D02*
Y608501D01*
X977751Y600001D02*
X979751D01*
X978751Y599001D02*
Y601001D01*
X974001Y592501D02*
X976001D01*
X975001Y591501D02*
Y593501D01*
X977751Y585001D02*
X979751D01*
X978751Y584001D02*
Y586001D01*
X974001Y577501D02*
X976001D01*
X975001Y576501D02*
Y578501D01*
X977751Y570001D02*
X979751D01*
X978751Y569001D02*
Y571001D01*
X974001Y562501D02*
X976001D01*
X975001Y561501D02*
Y563501D01*
X977751Y555001D02*
X979751D01*
X978751Y554001D02*
Y556001D01*
X974001Y547501D02*
X976001D01*
X975001Y546501D02*
Y548501D01*
X977751Y540001D02*
X979751D01*
X978751Y539001D02*
Y541001D01*
X974001Y532501D02*
X976001D01*
X975001Y531501D02*
Y533501D01*
X977751Y525001D02*
X979751D01*
X978751Y524001D02*
Y526001D01*
X974001Y517501D02*
X976001D01*
X975001Y516501D02*
Y518501D01*
X977751Y510001D02*
X979751D01*
X978751Y509001D02*
Y511001D01*
X970251Y615001D02*
X972251D01*
X971251Y614001D02*
Y616001D01*
X966501Y607501D02*
X968501D01*
X967501Y606501D02*
Y608501D01*
X970251Y600001D02*
X972251D01*
X971251Y599001D02*
Y601001D01*
X966501Y592501D02*
X968501D01*
X967501Y591501D02*
Y593501D01*
X970251Y585001D02*
X972251D01*
X971251Y584001D02*
Y586001D01*
X966501Y577501D02*
X968501D01*
X967501Y576501D02*
Y578501D01*
X970251Y570001D02*
X972251D01*
X971251Y569001D02*
Y571001D01*
X966501Y562501D02*
X968501D01*
X967501Y561501D02*
Y563501D01*
X970251Y555001D02*
X972251D01*
X971251Y554001D02*
Y556001D01*
X966501Y547501D02*
X968501D01*
X967501Y546501D02*
Y548501D01*
X970251Y540001D02*
X972251D01*
X971251Y539001D02*
Y541001D01*
X966501Y532501D02*
X968501D01*
X967501Y531501D02*
Y533501D01*
X970251Y525001D02*
X972251D01*
X971251Y524001D02*
Y526001D01*
X970251Y510001D02*
X972251D01*
X971251Y509001D02*
Y511001D01*
X962751Y615001D02*
X964751D01*
X963751Y614001D02*
Y616001D01*
X959001Y607501D02*
X961001D01*
X960001Y606501D02*
Y608501D01*
X962751Y600001D02*
X964751D01*
X963751Y599001D02*
Y601001D01*
X959001Y592501D02*
X961001D01*
X960001Y591501D02*
Y593501D01*
X962751Y585001D02*
X964751D01*
X963751Y584001D02*
Y586001D01*
X959001Y577501D02*
X961001D01*
X960001Y576501D02*
Y578501D01*
X962751Y570001D02*
X964751D01*
X963751Y569001D02*
Y571001D01*
X959001Y562501D02*
X961001D01*
X960001Y561501D02*
Y563501D01*
X962751Y555001D02*
X964751D01*
X963751Y554001D02*
Y556001D01*
X959001Y547501D02*
X961001D01*
X960001Y546501D02*
Y548501D01*
X962751Y540001D02*
X964751D01*
X963751Y539001D02*
Y541001D01*
X959001Y532501D02*
X961001D01*
X960001Y531501D02*
Y533501D01*
X962751Y510001D02*
X964751D01*
X963751Y509001D02*
Y511001D01*
X955251Y615001D02*
X957251D01*
X956251Y614001D02*
Y616001D01*
X951501Y607501D02*
X953501D01*
X952501Y606501D02*
Y608501D01*
X955251Y600001D02*
X957251D01*
X956251Y599001D02*
Y601001D01*
X951501Y592501D02*
X953501D01*
X952501Y591501D02*
Y593501D01*
X955251Y585001D02*
X957251D01*
X956251Y584001D02*
Y586001D01*
X951501Y577501D02*
X953501D01*
X952501Y576501D02*
Y578501D01*
X955251Y570001D02*
X957251D01*
X956251Y569001D02*
Y571001D01*
X951501Y562501D02*
X953501D01*
X952501Y561501D02*
Y563501D01*
X955251Y555001D02*
X957251D01*
X956251Y554001D02*
Y556001D01*
X951501Y547501D02*
X953501D01*
X952501Y546501D02*
Y548501D01*
X955251Y540001D02*
X957251D01*
X956251Y539001D02*
Y541001D01*
X951501Y532501D02*
X953501D01*
X952501Y531501D02*
Y533501D01*
X955251Y510001D02*
X957251D01*
X956251Y509001D02*
Y511001D01*
X947751Y615001D02*
X949751D01*
X948751Y614001D02*
Y616001D01*
X944001Y607501D02*
X946001D01*
X945001Y606501D02*
Y608501D01*
X947751Y600001D02*
X949751D01*
X948751Y599001D02*
Y601001D01*
X944001Y592501D02*
X946001D01*
X945001Y591501D02*
Y593501D01*
X947751Y585001D02*
X949751D01*
X948751Y584001D02*
Y586001D01*
X944001Y577501D02*
X946001D01*
X945001Y576501D02*
Y578501D01*
X947751Y570001D02*
X949751D01*
X948751Y569001D02*
Y571001D01*
X944001Y562501D02*
X946001D01*
X945001Y561501D02*
Y563501D01*
X947751Y555001D02*
X949751D01*
X948751Y554001D02*
Y556001D01*
X944001Y547501D02*
X946001D01*
X945001Y546501D02*
Y548501D01*
X947751Y540001D02*
X949751D01*
X948751Y539001D02*
Y541001D01*
X944001Y532501D02*
X946001D01*
X945001Y531501D02*
Y533501D01*
X947751Y510001D02*
X949751D01*
X948751Y509001D02*
Y511001D01*
X940251Y615001D02*
X942251D01*
X941251Y614001D02*
Y616001D01*
X936501Y607501D02*
X938501D01*
X937501Y606501D02*
Y608501D01*
X940251Y600001D02*
X942251D01*
X941251Y599001D02*
Y601001D01*
X936501Y592501D02*
X938501D01*
X937501Y591501D02*
Y593501D01*
X940251Y585001D02*
X942251D01*
X941251Y584001D02*
Y586001D01*
X936501Y577501D02*
X938501D01*
X937501Y576501D02*
Y578501D01*
X940251Y570001D02*
X942251D01*
X941251Y569001D02*
Y571001D01*
X936501Y562501D02*
X938501D01*
X937501Y561501D02*
Y563501D01*
X940251Y555001D02*
X942251D01*
X941251Y554001D02*
Y556001D01*
X936501Y547501D02*
X938501D01*
X937501Y546501D02*
Y548501D01*
X940251Y540001D02*
X942251D01*
X941251Y539001D02*
Y541001D01*
X936501Y532501D02*
X938501D01*
X937501Y531501D02*
Y533501D01*
X940251Y510001D02*
X942251D01*
X941251Y509001D02*
Y511001D01*
X932751Y615001D02*
X934751D01*
X933751Y614001D02*
Y616001D01*
X929001Y607501D02*
X931001D01*
X930001Y606501D02*
Y608501D01*
X932751Y600001D02*
X934751D01*
X933751Y599001D02*
Y601001D01*
X929001Y592501D02*
X931001D01*
X930001Y591501D02*
Y593501D01*
X932751Y585001D02*
X934751D01*
X933751Y584001D02*
Y586001D01*
X929001Y577501D02*
X931001D01*
X930001Y576501D02*
Y578501D01*
X932751Y570001D02*
X934751D01*
X933751Y569001D02*
Y571001D01*
X929001Y562501D02*
X931001D01*
X930001Y561501D02*
Y563501D01*
X932751Y555001D02*
X934751D01*
X933751Y554001D02*
Y556001D01*
X929001Y547501D02*
X931001D01*
X930001Y546501D02*
Y548501D01*
X932751Y540001D02*
X934751D01*
X933751Y539001D02*
Y541001D01*
X929001Y532501D02*
X931001D01*
X930001Y531501D02*
Y533501D01*
X932751Y510001D02*
X934751D01*
X933751Y509001D02*
Y511001D01*
X925251Y615001D02*
X927251D01*
X926251Y614001D02*
Y616001D01*
X921501Y607501D02*
X923501D01*
X922501Y606501D02*
Y608501D01*
X925251Y600001D02*
X927251D01*
X926251Y599001D02*
Y601001D01*
X921501Y592501D02*
X923501D01*
X922501Y591501D02*
Y593501D01*
X925251Y585001D02*
X927251D01*
X926251Y584001D02*
Y586001D01*
X921501Y577501D02*
X923501D01*
X922501Y576501D02*
Y578501D01*
X925251Y570001D02*
X927251D01*
X926251Y569001D02*
Y571001D01*
X921501Y562501D02*
X923501D01*
X922501Y561501D02*
Y563501D01*
X925251Y555001D02*
X927251D01*
X926251Y554001D02*
Y556001D01*
X921501Y547501D02*
X923501D01*
X922501Y546501D02*
Y548501D01*
X925251Y540001D02*
X927251D01*
X926251Y539001D02*
Y541001D01*
X921501Y517501D02*
X923501D01*
X922501Y516501D02*
Y518501D01*
X925251Y510001D02*
X927251D01*
X926251Y509001D02*
Y511001D01*
X917751Y615001D02*
X919751D01*
X918751Y614001D02*
Y616001D01*
X914001Y607501D02*
X916001D01*
X915001Y606501D02*
Y608501D01*
X917751Y600001D02*
X919751D01*
X918751Y599001D02*
Y601001D01*
X914001Y592501D02*
X916001D01*
X915001Y591501D02*
Y593501D01*
X917751Y585001D02*
X919751D01*
X918751Y584001D02*
Y586001D01*
X914001Y577501D02*
X916001D01*
X915001Y576501D02*
Y578501D01*
X917751Y570001D02*
X919751D01*
X918751Y569001D02*
Y571001D01*
X914001Y562501D02*
X916001D01*
X915001Y561501D02*
Y563501D01*
X917751Y555001D02*
X919751D01*
X918751Y554001D02*
Y556001D01*
X914001Y547501D02*
X916001D01*
X915001Y546501D02*
Y548501D01*
X914001Y517501D02*
X916001D01*
X915001Y516501D02*
Y518501D01*
X917751Y510001D02*
X919751D01*
X918751Y509001D02*
Y511001D01*
X910251Y615001D02*
X912251D01*
X911251Y614001D02*
Y616001D01*
X906501Y607501D02*
X908501D01*
X907501Y606501D02*
Y608501D01*
X910251Y600001D02*
X912251D01*
X911251Y599001D02*
Y601001D01*
X906501Y592501D02*
X908501D01*
X907501Y591501D02*
Y593501D01*
X910251Y585001D02*
X912251D01*
X911251Y584001D02*
Y586001D01*
X906501Y577501D02*
X908501D01*
X907501Y576501D02*
Y578501D01*
X910251Y570001D02*
X912251D01*
X911251Y569001D02*
Y571001D01*
X906501Y562501D02*
X908501D01*
X907501Y561501D02*
Y563501D01*
X910251Y555001D02*
X912251D01*
X911251Y554001D02*
Y556001D01*
X906501Y532501D02*
X908501D01*
X907501Y531501D02*
Y533501D01*
X910251Y525001D02*
X912251D01*
X911251Y524001D02*
Y526001D01*
X906501Y517501D02*
X908501D01*
X907501Y516501D02*
Y518501D01*
X910251Y510001D02*
X912251D01*
X911251Y509001D02*
Y511001D01*
X899001Y742501D02*
X901001D01*
X900001Y741501D02*
Y743501D01*
X899001Y727501D02*
X901001D01*
X900001Y726501D02*
Y728501D01*
X899001Y697501D02*
X901001D01*
X900001Y696501D02*
Y698501D01*
X899001Y682501D02*
X901001D01*
X900001Y681501D02*
Y683501D01*
X899001Y667501D02*
X901001D01*
X900001Y666501D02*
Y668501D01*
X899001Y652501D02*
X901001D01*
X900001Y651501D02*
Y653501D01*
X899001Y637501D02*
X901001D01*
X900001Y636501D02*
Y638501D01*
X899001Y622501D02*
X901001D01*
X900001Y621501D02*
Y623501D01*
X902751Y615001D02*
X904751D01*
X903751Y614001D02*
Y616001D01*
X899001Y607501D02*
X901001D01*
X900001Y606501D02*
Y608501D01*
X902751Y600001D02*
X904751D01*
X903751Y599001D02*
Y601001D01*
X899001Y592501D02*
X901001D01*
X900001Y591501D02*
Y593501D01*
X902751Y585001D02*
X904751D01*
X903751Y584001D02*
Y586001D01*
X899001Y577501D02*
X901001D01*
X900001Y576501D02*
Y578501D01*
X902751Y570001D02*
X904751D01*
X903751Y569001D02*
Y571001D01*
X899001Y562501D02*
X901001D01*
X900001Y561501D02*
Y563501D01*
X899001Y532501D02*
X901001D01*
X900001Y531501D02*
Y533501D01*
X902751Y525001D02*
X904751D01*
X903751Y524001D02*
Y526001D01*
X899001Y517501D02*
X901001D01*
X900001Y516501D02*
Y518501D01*
X902751Y510001D02*
X904751D01*
X903751Y509001D02*
Y511001D01*
X891501Y742501D02*
X893501D01*
X892501Y741501D02*
Y743501D01*
X895251Y735001D02*
X897251D01*
X896251Y734001D02*
Y736001D01*
X891501Y727501D02*
X893501D01*
X892501Y726501D02*
Y728501D01*
X895251Y720001D02*
X897251D01*
X896251Y719001D02*
Y721001D01*
X891501Y667501D02*
X893501D01*
X892501Y666501D02*
Y668501D01*
X895251Y660001D02*
X897251D01*
X896251Y659001D02*
Y661001D01*
X891501Y652501D02*
X893501D01*
X892501Y651501D02*
Y653501D01*
X895251Y645001D02*
X897251D01*
X896251Y644001D02*
Y646001D01*
X891501Y637501D02*
X893501D01*
X892501Y636501D02*
Y638501D01*
X895251Y630001D02*
X897251D01*
X896251Y629001D02*
Y631001D01*
X891501Y622501D02*
X893501D01*
X892501Y621501D02*
Y623501D01*
X895251Y615001D02*
X897251D01*
X896251Y614001D02*
Y616001D01*
X895251Y585001D02*
X897251D01*
X896251Y584001D02*
Y586001D01*
X891501Y577501D02*
X893501D01*
X892501Y576501D02*
Y578501D01*
X895251Y570001D02*
X897251D01*
X896251Y569001D02*
Y571001D01*
X891501Y547501D02*
X893501D01*
X892501Y546501D02*
Y548501D01*
X895251Y540001D02*
X897251D01*
X896251Y539001D02*
Y541001D01*
X891501Y532501D02*
X893501D01*
X892501Y531501D02*
Y533501D01*
X895251Y525001D02*
X897251D01*
X896251Y524001D02*
Y526001D01*
X891501Y517501D02*
X893501D01*
X892501Y516501D02*
Y518501D01*
X895251Y510001D02*
X897251D01*
X896251Y509001D02*
Y511001D01*
X884001Y742501D02*
X886001D01*
X885001Y741501D02*
Y743501D01*
X887751Y735001D02*
X889751D01*
X888751Y734001D02*
Y736001D01*
X884001Y727501D02*
X886001D01*
X885001Y726501D02*
Y728501D01*
X887751Y720001D02*
X889751D01*
X888751Y719001D02*
Y721001D01*
X884001Y667501D02*
X886001D01*
X885001Y666501D02*
Y668501D01*
X887751Y660001D02*
X889751D01*
X888751Y659001D02*
Y661001D01*
X884001Y652501D02*
X886001D01*
X885001Y651501D02*
Y653501D01*
X887751Y645001D02*
X889751D01*
X888751Y644001D02*
Y646001D01*
X884001Y637501D02*
X886001D01*
X885001Y636501D02*
Y638501D01*
X887751Y630001D02*
X889751D01*
X888751Y629001D02*
Y631001D01*
X884001Y622501D02*
X886001D01*
X885001Y621501D02*
Y623501D01*
X887751Y615001D02*
X889751D01*
X888751Y614001D02*
Y616001D01*
X884001Y577501D02*
X886001D01*
X885001Y576501D02*
Y578501D01*
X884001Y547501D02*
X886001D01*
X885001Y546501D02*
Y548501D01*
X887751Y540001D02*
X889751D01*
X888751Y539001D02*
Y541001D01*
X884001Y532501D02*
X886001D01*
X885001Y531501D02*
Y533501D01*
X887751Y525001D02*
X889751D01*
X888751Y524001D02*
Y526001D01*
X884001Y517501D02*
X886001D01*
X885001Y516501D02*
Y518501D01*
X887751Y510001D02*
X889751D01*
X888751Y509001D02*
Y511001D01*
X876501Y742501D02*
X878501D01*
X877501Y741501D02*
Y743501D01*
X880251Y735001D02*
X882251D01*
X881251Y734001D02*
Y736001D01*
X876501Y727501D02*
X878501D01*
X877501Y726501D02*
Y728501D01*
X880251Y720001D02*
X882251D01*
X881251Y719001D02*
Y721001D01*
X876501Y697501D02*
X878501D01*
X877501Y696501D02*
Y698501D01*
X876501Y682501D02*
X878501D01*
X877501Y681501D02*
Y683501D01*
X876501Y667501D02*
X878501D01*
X877501Y666501D02*
Y668501D01*
X880251Y660001D02*
X882251D01*
X881251Y659001D02*
Y661001D01*
X876501Y652501D02*
X878501D01*
X877501Y651501D02*
Y653501D01*
X880251Y645001D02*
X882251D01*
X881251Y644001D02*
Y646001D01*
X876501Y637501D02*
X878501D01*
X877501Y636501D02*
Y638501D01*
X880251Y630001D02*
X882251D01*
X881251Y629001D02*
Y631001D01*
X876501Y622501D02*
X878501D01*
X877501Y621501D02*
Y623501D01*
X880251Y615001D02*
X882251D01*
X881251Y614001D02*
Y616001D01*
X876501Y607501D02*
X878501D01*
X877501Y606501D02*
Y608501D01*
X876501Y562501D02*
X878501D01*
X877501Y561501D02*
Y563501D01*
X880251Y555001D02*
X882251D01*
X881251Y554001D02*
Y556001D01*
X876501Y547501D02*
X878501D01*
X877501Y546501D02*
Y548501D01*
X880251Y540001D02*
X882251D01*
X881251Y539001D02*
Y541001D01*
X876501Y532501D02*
X878501D01*
X877501Y531501D02*
Y533501D01*
X880251Y525001D02*
X882251D01*
X881251Y524001D02*
Y526001D01*
X876501Y517501D02*
X878501D01*
X877501Y516501D02*
Y518501D01*
X880251Y510001D02*
X882251D01*
X881251Y509001D02*
Y511001D01*
X869001Y742501D02*
X871001D01*
X870001Y741501D02*
Y743501D01*
X872751Y735001D02*
X874751D01*
X873751Y734001D02*
Y736001D01*
X869001Y727501D02*
X871001D01*
X870001Y726501D02*
Y728501D01*
X872751Y720001D02*
X874751D01*
X873751Y719001D02*
Y721001D01*
X869001Y697501D02*
X871001D01*
X870001Y696501D02*
Y698501D01*
X872751Y690001D02*
X874751D01*
X873751Y689001D02*
Y691001D01*
X869001Y682501D02*
X871001D01*
X870001Y681501D02*
Y683501D01*
X872751Y675001D02*
X874751D01*
X873751Y674001D02*
Y676001D01*
X869001Y667501D02*
X871001D01*
X870001Y666501D02*
Y668501D01*
X872751Y660001D02*
X874751D01*
X873751Y659001D02*
Y661001D01*
X869001Y652501D02*
X871001D01*
X870001Y651501D02*
Y653501D01*
X872751Y645001D02*
X874751D01*
X873751Y644001D02*
Y646001D01*
X869001Y637501D02*
X871001D01*
X870001Y636501D02*
Y638501D01*
X872751Y630001D02*
X874751D01*
X873751Y629001D02*
Y631001D01*
X869001Y622501D02*
X871001D01*
X870001Y621501D02*
Y623501D01*
X872751Y615001D02*
X874751D01*
X873751Y614001D02*
Y616001D01*
X869001Y607501D02*
X871001D01*
X870001Y606501D02*
Y608501D01*
X872751Y600001D02*
X874751D01*
X873751Y599001D02*
Y601001D01*
X869001Y592501D02*
X871001D01*
X870001Y591501D02*
Y593501D01*
X869001Y562501D02*
X871001D01*
X870001Y561501D02*
Y563501D01*
X872751Y555001D02*
X874751D01*
X873751Y554001D02*
Y556001D01*
X869001Y547501D02*
X871001D01*
X870001Y546501D02*
Y548501D01*
X872751Y540001D02*
X874751D01*
X873751Y539001D02*
Y541001D01*
X869001Y532501D02*
X871001D01*
X870001Y531501D02*
Y533501D01*
X872751Y525001D02*
X874751D01*
X873751Y524001D02*
Y526001D01*
X869001Y517501D02*
X871001D01*
X870001Y516501D02*
Y518501D01*
X872751Y510001D02*
X874751D01*
X873751Y509001D02*
Y511001D01*
X861501Y742501D02*
X863501D01*
X862501Y741501D02*
Y743501D01*
X865251Y735001D02*
X867251D01*
X866251Y734001D02*
Y736001D01*
X861501Y727501D02*
X863501D01*
X862501Y726501D02*
Y728501D01*
X865251Y720001D02*
X867251D01*
X866251Y719001D02*
Y721001D01*
X861501Y697501D02*
X863501D01*
X862501Y696501D02*
Y698501D01*
X865251Y690001D02*
X867251D01*
X866251Y689001D02*
Y691001D01*
X861501Y682501D02*
X863501D01*
X862501Y681501D02*
Y683501D01*
X865251Y675001D02*
X867251D01*
X866251Y674001D02*
Y676001D01*
X861501Y667501D02*
X863501D01*
X862501Y666501D02*
Y668501D01*
X865251Y660001D02*
X867251D01*
X866251Y659001D02*
Y661001D01*
X861501Y652501D02*
X863501D01*
X862501Y651501D02*
Y653501D01*
X865251Y645001D02*
X867251D01*
X866251Y644001D02*
Y646001D01*
X861501Y637501D02*
X863501D01*
X862501Y636501D02*
Y638501D01*
X865251Y630001D02*
X867251D01*
X866251Y629001D02*
Y631001D01*
X861501Y622501D02*
X863501D01*
X862501Y621501D02*
Y623501D01*
X865251Y615001D02*
X867251D01*
X866251Y614001D02*
Y616001D01*
X861501Y577501D02*
X863501D01*
X862501Y576501D02*
Y578501D01*
X865251Y570001D02*
X867251D01*
X866251Y569001D02*
Y571001D01*
X861501Y562501D02*
X863501D01*
X862501Y561501D02*
Y563501D01*
X865251Y555001D02*
X867251D01*
X866251Y554001D02*
Y556001D01*
X861501Y547501D02*
X863501D01*
X862501Y546501D02*
Y548501D01*
X865251Y540001D02*
X867251D01*
X866251Y539001D02*
Y541001D01*
X861501Y532501D02*
X863501D01*
X862501Y531501D02*
Y533501D01*
X865251Y525001D02*
X867251D01*
X866251Y524001D02*
Y526001D01*
X861501Y517501D02*
X863501D01*
X862501Y516501D02*
Y518501D01*
X865251Y510001D02*
X867251D01*
X866251Y509001D02*
Y511001D01*
X854001Y742501D02*
X856001D01*
X855001Y741501D02*
Y743501D01*
X857751Y735001D02*
X859751D01*
X858751Y734001D02*
Y736001D01*
X854001Y727501D02*
X856001D01*
X855001Y726501D02*
Y728501D01*
X857751Y720001D02*
X859751D01*
X858751Y719001D02*
Y721001D01*
X854001Y667501D02*
X856001D01*
X855001Y666501D02*
Y668501D01*
X857751Y660001D02*
X859751D01*
X858751Y659001D02*
Y661001D01*
X854001Y652501D02*
X856001D01*
X855001Y651501D02*
Y653501D01*
X857751Y645001D02*
X859751D01*
X858751Y644001D02*
Y646001D01*
X854001Y637501D02*
X856001D01*
X855001Y636501D02*
Y638501D01*
X857751Y630001D02*
X859751D01*
X858751Y629001D02*
Y631001D01*
X854001Y622501D02*
X856001D01*
X855001Y621501D02*
Y623501D01*
X857751Y615001D02*
X859751D01*
X858751Y614001D02*
Y616001D01*
X854001Y577501D02*
X856001D01*
X855001Y576501D02*
Y578501D01*
X857751Y570001D02*
X859751D01*
X858751Y569001D02*
Y571001D01*
X854001Y562501D02*
X856001D01*
X855001Y561501D02*
Y563501D01*
X857751Y555001D02*
X859751D01*
X858751Y554001D02*
Y556001D01*
X854001Y547501D02*
X856001D01*
X855001Y546501D02*
Y548501D01*
X857751Y540001D02*
X859751D01*
X858751Y539001D02*
Y541001D01*
X854001Y532501D02*
X856001D01*
X855001Y531501D02*
Y533501D01*
X857751Y525001D02*
X859751D01*
X858751Y524001D02*
Y526001D01*
X854001Y517501D02*
X856001D01*
X855001Y516501D02*
Y518501D01*
X857751Y510001D02*
X859751D01*
X858751Y509001D02*
Y511001D01*
X846501Y742501D02*
X848501D01*
X847501Y741501D02*
Y743501D01*
X850251Y735001D02*
X852251D01*
X851251Y734001D02*
Y736001D01*
X846501Y727501D02*
X848501D01*
X847501Y726501D02*
Y728501D01*
X850251Y720001D02*
X852251D01*
X851251Y719001D02*
Y721001D01*
X846501Y712501D02*
X848501D01*
X847501Y711501D02*
Y713501D01*
X846501Y682501D02*
X848501D01*
X847501Y681501D02*
Y683501D01*
X846501Y667501D02*
X848501D01*
X847501Y666501D02*
Y668501D01*
X850251Y660001D02*
X852251D01*
X851251Y659001D02*
Y661001D01*
X846501Y652501D02*
X848501D01*
X847501Y651501D02*
Y653501D01*
X850251Y645001D02*
X852251D01*
X851251Y644001D02*
Y646001D01*
X846501Y637501D02*
X848501D01*
X847501Y636501D02*
Y638501D01*
X850251Y630001D02*
X852251D01*
X851251Y629001D02*
Y631001D01*
X846501Y622501D02*
X848501D01*
X847501Y621501D02*
Y623501D01*
X850251Y615001D02*
X852251D01*
X851251Y614001D02*
Y616001D01*
X846501Y577501D02*
X848501D01*
X847501Y576501D02*
Y578501D01*
X850251Y570001D02*
X852251D01*
X851251Y569001D02*
Y571001D01*
X846501Y562501D02*
X848501D01*
X847501Y561501D02*
Y563501D01*
X850251Y555001D02*
X852251D01*
X851251Y554001D02*
Y556001D01*
X846501Y547501D02*
X848501D01*
X847501Y546501D02*
Y548501D01*
X850251Y540001D02*
X852251D01*
X851251Y539001D02*
Y541001D01*
X846501Y532501D02*
X848501D01*
X847501Y531501D02*
Y533501D01*
X850251Y525001D02*
X852251D01*
X851251Y524001D02*
Y526001D01*
X846501Y517501D02*
X848501D01*
X847501Y516501D02*
Y518501D01*
X850251Y510001D02*
X852251D01*
X851251Y509001D02*
Y511001D01*
X839001Y727501D02*
X841001D01*
X840001Y726501D02*
Y728501D01*
X842751Y720001D02*
X844751D01*
X843751Y719001D02*
Y721001D01*
X839001Y712501D02*
X841001D01*
X840001Y711501D02*
Y713501D01*
X842751Y705001D02*
X844751D01*
X843751Y704001D02*
Y706001D01*
X839001Y682501D02*
X841001D01*
X840001Y681501D02*
Y683501D01*
X842751Y675001D02*
X844751D01*
X843751Y674001D02*
Y676001D01*
X839001Y667501D02*
X841001D01*
X840001Y666501D02*
Y668501D01*
X842751Y660001D02*
X844751D01*
X843751Y659001D02*
Y661001D01*
X839001Y652501D02*
X841001D01*
X840001Y651501D02*
Y653501D01*
X842751Y645001D02*
X844751D01*
X843751Y644001D02*
Y646001D01*
X839001Y637501D02*
X841001D01*
X840001Y636501D02*
Y638501D01*
X842751Y630001D02*
X844751D01*
X843751Y629001D02*
Y631001D01*
X839001Y622501D02*
X841001D01*
X840001Y621501D02*
Y623501D01*
X842751Y615001D02*
X844751D01*
X843751Y614001D02*
Y616001D01*
X839001Y607501D02*
X841001D01*
X840001Y606501D02*
Y608501D01*
X839001Y577501D02*
X841001D01*
X840001Y576501D02*
Y578501D01*
X842751Y570001D02*
X844751D01*
X843751Y569001D02*
Y571001D01*
X839001Y562501D02*
X841001D01*
X840001Y561501D02*
Y563501D01*
X842751Y555001D02*
X844751D01*
X843751Y554001D02*
Y556001D01*
X839001Y547501D02*
X841001D01*
X840001Y546501D02*
Y548501D01*
X842751Y540001D02*
X844751D01*
X843751Y539001D02*
Y541001D01*
X839001Y532501D02*
X841001D01*
X840001Y531501D02*
Y533501D01*
X842751Y525001D02*
X844751D01*
X843751Y524001D02*
Y526001D01*
X839001Y517501D02*
X841001D01*
X840001Y516501D02*
Y518501D01*
X842751Y510001D02*
X844751D01*
X843751Y509001D02*
Y511001D01*
X835251Y720001D02*
X837251D01*
X836251Y719001D02*
Y721001D01*
X831501Y712501D02*
X833501D01*
X832501Y711501D02*
Y713501D01*
X835251Y705001D02*
X837251D01*
X836251Y704001D02*
Y706001D01*
X835251Y675001D02*
X837251D01*
X836251Y674001D02*
Y676001D01*
X831501Y667501D02*
X833501D01*
X832501Y666501D02*
Y668501D01*
X835251Y660001D02*
X837251D01*
X836251Y659001D02*
Y661001D01*
X831501Y652501D02*
X833501D01*
X832501Y651501D02*
Y653501D01*
X835251Y645001D02*
X837251D01*
X836251Y644001D02*
Y646001D01*
X831501Y637501D02*
X833501D01*
X832501Y636501D02*
Y638501D01*
X835251Y630001D02*
X837251D01*
X836251Y629001D02*
Y631001D01*
X831501Y622501D02*
X833501D01*
X832501Y621501D02*
Y623501D01*
X835251Y615001D02*
X837251D01*
X836251Y614001D02*
Y616001D01*
X831501Y607501D02*
X833501D01*
X832501Y606501D02*
Y608501D01*
X835251Y570001D02*
X837251D01*
X836251Y569001D02*
Y571001D01*
X831501Y562501D02*
X833501D01*
X832501Y561501D02*
Y563501D01*
X835251Y555001D02*
X837251D01*
X836251Y554001D02*
Y556001D01*
X831501Y547501D02*
X833501D01*
X832501Y546501D02*
Y548501D01*
X835251Y540001D02*
X837251D01*
X836251Y539001D02*
Y541001D01*
X831501Y532501D02*
X833501D01*
X832501Y531501D02*
Y533501D01*
X835251Y525001D02*
X837251D01*
X836251Y524001D02*
Y526001D01*
X835251Y510001D02*
X837251D01*
X836251Y509001D02*
Y511001D01*
X827751Y720001D02*
X829751D01*
X828751Y719001D02*
Y721001D01*
X824001Y712501D02*
X826001D01*
X825001Y711501D02*
Y713501D01*
X827751Y705001D02*
X829751D01*
X828751Y704001D02*
Y706001D01*
X827751Y675001D02*
X829751D01*
X828751Y674001D02*
Y676001D01*
X824001Y667501D02*
X826001D01*
X825001Y666501D02*
Y668501D01*
X827751Y660001D02*
X829751D01*
X828751Y659001D02*
Y661001D01*
X824001Y652501D02*
X826001D01*
X825001Y651501D02*
Y653501D01*
X827751Y645001D02*
X829751D01*
X828751Y644001D02*
Y646001D01*
X824001Y637501D02*
X826001D01*
X825001Y636501D02*
Y638501D01*
X827751Y630001D02*
X829751D01*
X828751Y629001D02*
Y631001D01*
X824001Y622501D02*
X826001D01*
X825001Y621501D02*
Y623501D01*
X827751Y615001D02*
X829751D01*
X828751Y614001D02*
Y616001D01*
X824001Y607501D02*
X826001D01*
X825001Y606501D02*
Y608501D01*
X827751Y525001D02*
X829751D01*
X828751Y524001D02*
Y526001D01*
X820251Y720001D02*
X822251D01*
X821251Y719001D02*
Y721001D01*
X816501Y712501D02*
X818501D01*
X817501Y711501D02*
Y713501D01*
X820251Y705001D02*
X822251D01*
X821251Y704001D02*
Y706001D01*
X820251Y675001D02*
X822251D01*
X821251Y674001D02*
Y676001D01*
X816501Y667501D02*
X818501D01*
X817501Y666501D02*
Y668501D01*
X820251Y660001D02*
X822251D01*
X821251Y659001D02*
Y661001D01*
X816501Y652501D02*
X818501D01*
X817501Y651501D02*
Y653501D01*
X820251Y645001D02*
X822251D01*
X821251Y644001D02*
Y646001D01*
X816501Y637501D02*
X818501D01*
X817501Y636501D02*
Y638501D01*
X820251Y630001D02*
X822251D01*
X821251Y629001D02*
Y631001D01*
X816501Y622501D02*
X818501D01*
X817501Y621501D02*
Y623501D01*
X820251Y615001D02*
X822251D01*
X821251Y614001D02*
Y616001D01*
X816501Y607501D02*
X818501D01*
X817501Y606501D02*
Y608501D01*
X820251Y585001D02*
X822251D01*
X821251Y584001D02*
Y586001D01*
X816501Y577501D02*
X818501D01*
X817501Y576501D02*
Y578501D01*
X820251Y525001D02*
X822251D01*
X821251Y524001D02*
Y526001D01*
X812751Y720001D02*
X814751D01*
X813751Y719001D02*
Y721001D01*
X809001Y712501D02*
X811001D01*
X810001Y711501D02*
Y713501D01*
X812751Y705001D02*
X814751D01*
X813751Y704001D02*
Y706001D01*
X809001Y697501D02*
X811001D01*
X810001Y696501D02*
Y698501D01*
X812751Y675001D02*
X814751D01*
X813751Y674001D02*
Y676001D01*
X809001Y667501D02*
X811001D01*
X810001Y666501D02*
Y668501D01*
X812751Y660001D02*
X814751D01*
X813751Y659001D02*
Y661001D01*
X809001Y652501D02*
X811001D01*
X810001Y651501D02*
Y653501D01*
X812751Y645001D02*
X814751D01*
X813751Y644001D02*
Y646001D01*
X809001Y637501D02*
X811001D01*
X810001Y636501D02*
Y638501D01*
X812751Y630001D02*
X814751D01*
X813751Y629001D02*
Y631001D01*
X809001Y622501D02*
X811001D01*
X810001Y621501D02*
Y623501D01*
X812751Y615001D02*
X814751D01*
X813751Y614001D02*
Y616001D01*
X809001Y607501D02*
X811001D01*
X810001Y606501D02*
Y608501D01*
X812751Y585001D02*
X814751D01*
X813751Y584001D02*
Y586001D01*
X812751Y570001D02*
X814751D01*
X813751Y569001D02*
Y571001D01*
X812751Y555001D02*
X814751D01*
X813751Y554001D02*
Y556001D01*
X809001Y547501D02*
X811001D01*
X810001Y546501D02*
Y548501D01*
X812751Y540001D02*
X814751D01*
X813751Y539001D02*
Y541001D01*
X805251Y720001D02*
X807251D01*
X806251Y719001D02*
Y721001D01*
X801501Y712501D02*
X803501D01*
X802501Y711501D02*
Y713501D01*
X805251Y705001D02*
X807251D01*
X806251Y704001D02*
Y706001D01*
X801501Y667501D02*
X803501D01*
X802501Y666501D02*
Y668501D01*
X805251Y660001D02*
X807251D01*
X806251Y659001D02*
Y661001D01*
X801501Y652501D02*
X803501D01*
X802501Y651501D02*
Y653501D01*
X805251Y645001D02*
X807251D01*
X806251Y644001D02*
Y646001D01*
X801501Y637501D02*
X803501D01*
X802501Y636501D02*
Y638501D01*
X805251Y630001D02*
X807251D01*
X806251Y629001D02*
Y631001D01*
X801501Y622501D02*
X803501D01*
X802501Y621501D02*
Y623501D01*
X805251Y615001D02*
X807251D01*
X806251Y614001D02*
Y616001D01*
X801501Y607501D02*
X803501D01*
X802501Y606501D02*
Y608501D01*
X805251Y585001D02*
X807251D01*
X806251Y584001D02*
Y586001D01*
X805251Y555001D02*
X807251D01*
X806251Y554001D02*
Y556001D01*
X801501Y547501D02*
X803501D01*
X802501Y546501D02*
Y548501D01*
X797751Y720001D02*
X799751D01*
X798751Y719001D02*
Y721001D01*
X794001Y667501D02*
X796001D01*
X795001Y666501D02*
Y668501D01*
X797751Y660001D02*
X799751D01*
X798751Y659001D02*
Y661001D01*
X794001Y652501D02*
X796001D01*
X795001Y651501D02*
Y653501D01*
X797751Y645001D02*
X799751D01*
X798751Y644001D02*
Y646001D01*
X794001Y637501D02*
X796001D01*
X795001Y636501D02*
Y638501D01*
X797751Y630001D02*
X799751D01*
X798751Y629001D02*
Y631001D01*
X794001Y622501D02*
X796001D01*
X795001Y621501D02*
Y623501D01*
X797751Y615001D02*
X799751D01*
X798751Y614001D02*
Y616001D01*
X794001Y607501D02*
X796001D01*
X795001Y606501D02*
Y608501D01*
X797751Y585001D02*
X799751D01*
X798751Y584001D02*
Y586001D01*
X794001Y577501D02*
X796001D01*
X795001Y576501D02*
Y578501D01*
X794001Y562501D02*
X796001D01*
X795001Y561501D02*
Y563501D01*
X797751Y555001D02*
X799751D01*
X798751Y554001D02*
Y556001D01*
X794001Y547501D02*
X796001D01*
X795001Y546501D02*
Y548501D01*
X794001Y517501D02*
X796001D01*
X795001Y516501D02*
Y518501D01*
X797751Y510001D02*
X799751D01*
X798751Y509001D02*
Y511001D01*
X790251Y720001D02*
X792251D01*
X791251Y719001D02*
Y721001D01*
X786501Y697501D02*
X788501D01*
X787501Y696501D02*
Y698501D01*
X786501Y682501D02*
X788501D01*
X787501Y681501D02*
Y683501D01*
X790251Y675001D02*
X792251D01*
X791251Y674001D02*
Y676001D01*
X786501Y667501D02*
X788501D01*
X787501Y666501D02*
Y668501D01*
X790251Y660001D02*
X792251D01*
X791251Y659001D02*
Y661001D01*
X786501Y652501D02*
X788501D01*
X787501Y651501D02*
Y653501D01*
X790251Y645001D02*
X792251D01*
X791251Y644001D02*
Y646001D01*
X786501Y637501D02*
X788501D01*
X787501Y636501D02*
Y638501D01*
X790251Y630001D02*
X792251D01*
X791251Y629001D02*
Y631001D01*
X786501Y622501D02*
X788501D01*
X787501Y621501D02*
Y623501D01*
X790251Y615001D02*
X792251D01*
X791251Y614001D02*
Y616001D01*
X786501Y607501D02*
X788501D01*
X787501Y606501D02*
Y608501D01*
X790251Y585001D02*
X792251D01*
X791251Y584001D02*
Y586001D01*
X790251Y555001D02*
X792251D01*
X791251Y554001D02*
Y556001D01*
X786501Y547501D02*
X788501D01*
X787501Y546501D02*
Y548501D01*
X790251Y540001D02*
X792251D01*
X791251Y539001D02*
Y541001D01*
X786501Y517501D02*
X788501D01*
X787501Y516501D02*
Y518501D01*
X790251Y510001D02*
X792251D01*
X791251Y509001D02*
Y511001D01*
X782751Y720001D02*
X784751D01*
X783751Y719001D02*
Y721001D01*
X779001Y697501D02*
X781001D01*
X780001Y696501D02*
Y698501D01*
X782751Y690001D02*
X784751D01*
X783751Y689001D02*
Y691001D01*
X779001Y682501D02*
X781001D01*
X780001Y681501D02*
Y683501D01*
X782751Y675001D02*
X784751D01*
X783751Y674001D02*
Y676001D01*
X779001Y667501D02*
X781001D01*
X780001Y666501D02*
Y668501D01*
X782751Y660001D02*
X784751D01*
X783751Y659001D02*
Y661001D01*
X779001Y652501D02*
X781001D01*
X780001Y651501D02*
Y653501D01*
X782751Y645001D02*
X784751D01*
X783751Y644001D02*
Y646001D01*
X779001Y637501D02*
X781001D01*
X780001Y636501D02*
Y638501D01*
X782751Y630001D02*
X784751D01*
X783751Y629001D02*
Y631001D01*
X779001Y622501D02*
X781001D01*
X780001Y621501D02*
Y623501D01*
X782751Y615001D02*
X784751D01*
X783751Y614001D02*
Y616001D01*
X779001Y607501D02*
X781001D01*
X780001Y606501D02*
Y608501D01*
X782751Y585001D02*
X784751D01*
X783751Y584001D02*
Y586001D01*
X779001Y577501D02*
X781001D01*
X780001Y576501D02*
Y578501D01*
X779001Y562501D02*
X781001D01*
X780001Y561501D02*
Y563501D01*
X782751Y555001D02*
X784751D01*
X783751Y554001D02*
Y556001D01*
X779001Y547501D02*
X781001D01*
X780001Y546501D02*
Y548501D01*
X782751Y540001D02*
X784751D01*
X783751Y539001D02*
Y541001D01*
X779001Y517501D02*
X781001D01*
X780001Y516501D02*
Y518501D01*
X782751Y510001D02*
X784751D01*
X783751Y509001D02*
Y511001D01*
X775251Y720001D02*
X777251D01*
X776251Y719001D02*
Y721001D01*
X775251Y690001D02*
X777251D01*
X776251Y689001D02*
Y691001D01*
X771501Y682501D02*
X773501D01*
X772501Y681501D02*
Y683501D01*
X775251Y675001D02*
X777251D01*
X776251Y674001D02*
Y676001D01*
X771501Y667501D02*
X773501D01*
X772501Y666501D02*
Y668501D01*
X775251Y660001D02*
X777251D01*
X776251Y659001D02*
Y661001D01*
X771501Y652501D02*
X773501D01*
X772501Y651501D02*
Y653501D01*
X775251Y645001D02*
X777251D01*
X776251Y644001D02*
Y646001D01*
X771501Y637501D02*
X773501D01*
X772501Y636501D02*
Y638501D01*
X775251Y630001D02*
X777251D01*
X776251Y629001D02*
Y631001D01*
X771501Y622501D02*
X773501D01*
X772501Y621501D02*
Y623501D01*
X775251Y615001D02*
X777251D01*
X776251Y614001D02*
Y616001D01*
X771501Y607501D02*
X773501D01*
X772501Y606501D02*
Y608501D01*
X775251Y585001D02*
X777251D01*
X776251Y584001D02*
Y586001D01*
X775251Y555001D02*
X777251D01*
X776251Y554001D02*
Y556001D01*
X771501Y547501D02*
X773501D01*
X772501Y546501D02*
Y548501D01*
X775251Y510001D02*
X777251D01*
X776251Y509001D02*
Y511001D01*
X764001Y742501D02*
X766001D01*
X765001Y741501D02*
Y743501D01*
X767751Y720001D02*
X769751D01*
X768751Y719001D02*
Y721001D01*
X764001Y712501D02*
X766001D01*
X765001Y711501D02*
Y713501D01*
X764001Y667501D02*
X766001D01*
X765001Y666501D02*
Y668501D01*
X767751Y660001D02*
X769751D01*
X768751Y659001D02*
Y661001D01*
X764001Y652501D02*
X766001D01*
X765001Y651501D02*
Y653501D01*
X767751Y645001D02*
X769751D01*
X768751Y644001D02*
Y646001D01*
X767751Y630001D02*
X769751D01*
X768751Y629001D02*
Y631001D01*
X764001Y622501D02*
X766001D01*
X765001Y621501D02*
Y623501D01*
X767751Y615001D02*
X769751D01*
X768751Y614001D02*
Y616001D01*
X764001Y607501D02*
X766001D01*
X765001Y606501D02*
Y608501D01*
X767751Y585001D02*
X769751D01*
X768751Y584001D02*
Y586001D01*
X767751Y555001D02*
X769751D01*
X768751Y554001D02*
Y556001D01*
X764001Y547501D02*
X766001D01*
X765001Y546501D02*
Y548501D01*
X767751Y510001D02*
X769751D01*
X768751Y509001D02*
Y511001D01*
X756501Y742501D02*
X758501D01*
X757501Y741501D02*
Y743501D01*
X756501Y682501D02*
X758501D01*
X757501Y681501D02*
Y683501D01*
X756501Y667501D02*
X758501D01*
X757501Y666501D02*
Y668501D01*
X760251Y660001D02*
X762251D01*
X761251Y659001D02*
Y661001D01*
X760251Y630001D02*
X762251D01*
X761251Y629001D02*
Y631001D01*
X756501Y622501D02*
X758501D01*
X757501Y621501D02*
Y623501D01*
X760251Y615001D02*
X762251D01*
X761251Y614001D02*
Y616001D01*
X756501Y607501D02*
X758501D01*
X757501Y606501D02*
Y608501D01*
X760251Y585001D02*
X762251D01*
X761251Y584001D02*
Y586001D01*
X756501Y577501D02*
X758501D01*
X757501Y576501D02*
Y578501D01*
X756501Y562501D02*
X758501D01*
X757501Y561501D02*
Y563501D01*
X760251Y555001D02*
X762251D01*
X761251Y554001D02*
Y556001D01*
X756501Y547501D02*
X758501D01*
X757501Y546501D02*
Y548501D01*
X760251Y540001D02*
X762251D01*
X761251Y539001D02*
Y541001D01*
X756501Y517501D02*
X758501D01*
X757501Y516501D02*
Y518501D01*
X760251Y510001D02*
X762251D01*
X761251Y509001D02*
Y511001D01*
X749001Y742501D02*
X751001D01*
X750001Y741501D02*
Y743501D01*
X752751Y705001D02*
X754751D01*
X753751Y704001D02*
Y706001D01*
X749001Y682501D02*
X751001D01*
X750001Y681501D02*
Y683501D01*
X752751Y675001D02*
X754751D01*
X753751Y674001D02*
Y676001D01*
X752751Y630001D02*
X754751D01*
X753751Y629001D02*
Y631001D01*
X749001Y622501D02*
X751001D01*
X750001Y621501D02*
Y623501D01*
X752751Y615001D02*
X754751D01*
X753751Y614001D02*
Y616001D01*
X749001Y607501D02*
X751001D01*
X750001Y606501D02*
Y608501D01*
X752751Y585001D02*
X754751D01*
X753751Y584001D02*
Y586001D01*
X752751Y555001D02*
X754751D01*
X753751Y554001D02*
Y556001D01*
X752751Y540001D02*
X754751D01*
X753751Y539001D02*
Y541001D01*
X749001Y517501D02*
X751001D01*
X750001Y516501D02*
Y518501D01*
X752751Y510001D02*
X754751D01*
X753751Y509001D02*
Y511001D01*
X741501Y742501D02*
X743501D01*
X742501Y741501D02*
Y743501D01*
X745251Y735001D02*
X747251D01*
X746251Y734001D02*
Y736001D01*
X741501Y697501D02*
X743501D01*
X742501Y696501D02*
Y698501D01*
X745251Y630001D02*
X747251D01*
X746251Y629001D02*
Y631001D01*
X741501Y622501D02*
X743501D01*
X742501Y621501D02*
Y623501D01*
X745251Y615001D02*
X747251D01*
X746251Y614001D02*
Y616001D01*
X741501Y607501D02*
X743501D01*
X742501Y606501D02*
Y608501D01*
X745251Y525001D02*
X747251D01*
X746251Y524001D02*
Y526001D01*
X741501Y517501D02*
X743501D01*
X742501Y516501D02*
Y518501D01*
X745251Y510001D02*
X747251D01*
X746251Y509001D02*
Y511001D01*
X734001Y742501D02*
X736001D01*
X735001Y741501D02*
Y743501D01*
X737751Y735001D02*
X739751D01*
X738751Y734001D02*
Y736001D01*
X734001Y727501D02*
X736001D01*
X735001Y726501D02*
Y728501D01*
X734001Y697501D02*
X736001D01*
X735001Y696501D02*
Y698501D01*
X737751Y660001D02*
X739751D01*
X738751Y659001D02*
Y661001D01*
X737751Y630001D02*
X739751D01*
X738751Y629001D02*
Y631001D01*
X734001Y562501D02*
X736001D01*
X735001Y561501D02*
Y563501D01*
X737751Y555001D02*
X739751D01*
X738751Y554001D02*
Y556001D01*
X734001Y547501D02*
X736001D01*
X735001Y546501D02*
Y548501D01*
X737751Y540001D02*
X739751D01*
X738751Y539001D02*
Y541001D01*
X734001Y532501D02*
X736001D01*
X735001Y531501D02*
Y533501D01*
X737751Y525001D02*
X739751D01*
X738751Y524001D02*
Y526001D01*
X734001Y517501D02*
X736001D01*
X735001Y516501D02*
Y518501D01*
X737751Y510001D02*
X739751D01*
X738751Y509001D02*
Y511001D01*
X726501Y742501D02*
X728501D01*
X727501Y741501D02*
Y743501D01*
X730251Y735001D02*
X732251D01*
X731251Y734001D02*
Y736001D01*
X726501Y727501D02*
X728501D01*
X727501Y726501D02*
Y728501D01*
X726501Y697501D02*
X728501D01*
X727501Y696501D02*
Y698501D01*
X730251Y690001D02*
X732251D01*
X731251Y689001D02*
Y691001D01*
X730251Y630001D02*
X732251D01*
X731251Y629001D02*
Y631001D01*
X726501Y622501D02*
X728501D01*
X727501Y621501D02*
Y623501D01*
X730251Y570001D02*
X732251D01*
X731251Y569001D02*
Y571001D01*
X730251Y555001D02*
X732251D01*
X731251Y554001D02*
Y556001D01*
X726501Y547501D02*
X728501D01*
X727501Y546501D02*
Y548501D01*
X730251Y540001D02*
X732251D01*
X731251Y539001D02*
Y541001D01*
X726501Y532501D02*
X728501D01*
X727501Y531501D02*
Y533501D01*
X730251Y525001D02*
X732251D01*
X731251Y524001D02*
Y526001D01*
X726501Y517501D02*
X728501D01*
X727501Y516501D02*
Y518501D01*
X730251Y510001D02*
X732251D01*
X731251Y509001D02*
Y511001D01*
X719001Y742501D02*
X721001D01*
X720001Y741501D02*
Y743501D01*
X722751Y735001D02*
X724751D01*
X723751Y734001D02*
Y736001D01*
X719001Y727501D02*
X721001D01*
X720001Y726501D02*
Y728501D01*
X719001Y697501D02*
X721001D01*
X720001Y696501D02*
Y698501D01*
X722751Y690001D02*
X724751D01*
X723751Y689001D02*
Y691001D01*
X722751Y630001D02*
X724751D01*
X723751Y629001D02*
Y631001D01*
X719001Y622501D02*
X721001D01*
X720001Y621501D02*
Y623501D01*
X722751Y555001D02*
X724751D01*
X723751Y554001D02*
Y556001D01*
X719001Y547501D02*
X721001D01*
X720001Y546501D02*
Y548501D01*
X722751Y540001D02*
X724751D01*
X723751Y539001D02*
Y541001D01*
X719001Y532501D02*
X721001D01*
X720001Y531501D02*
Y533501D01*
X722751Y525001D02*
X724751D01*
X723751Y524001D02*
Y526001D01*
X719001Y517501D02*
X721001D01*
X720001Y516501D02*
Y518501D01*
X722751Y510001D02*
X724751D01*
X723751Y509001D02*
Y511001D01*
X711501Y742501D02*
X713501D01*
X712501Y741501D02*
Y743501D01*
X715251Y735001D02*
X717251D01*
X716251Y734001D02*
Y736001D01*
X711501Y727501D02*
X713501D01*
X712501Y726501D02*
Y728501D01*
X711501Y697501D02*
X713501D01*
X712501Y696501D02*
Y698501D01*
X715251Y690001D02*
X717251D01*
X716251Y689001D02*
Y691001D01*
X711501Y622501D02*
X713501D01*
X712501Y621501D02*
Y623501D01*
X715251Y600001D02*
X717251D01*
X716251Y599001D02*
Y601001D01*
X715251Y540001D02*
X717251D01*
X716251Y539001D02*
Y541001D01*
X711501Y532501D02*
X713501D01*
X712501Y531501D02*
Y533501D01*
X715251Y525001D02*
X717251D01*
X716251Y524001D02*
Y526001D01*
X711501Y517501D02*
X713501D01*
X712501Y516501D02*
Y518501D01*
X715251Y510001D02*
X717251D01*
X716251Y509001D02*
Y511001D01*
X704001Y742501D02*
X706001D01*
X705001Y741501D02*
Y743501D01*
X707751Y735001D02*
X709751D01*
X708751Y734001D02*
Y736001D01*
X704001Y727501D02*
X706001D01*
X705001Y726501D02*
Y728501D01*
X704001Y697501D02*
X706001D01*
X705001Y696501D02*
Y698501D01*
X707751Y690001D02*
X709751D01*
X708751Y689001D02*
Y691001D01*
X707751Y600001D02*
X709751D01*
X708751Y599001D02*
Y601001D01*
X707751Y540001D02*
X709751D01*
X708751Y539001D02*
Y541001D01*
X707751Y525001D02*
X709751D01*
X708751Y524001D02*
Y526001D01*
X707751Y510001D02*
X709751D01*
X708751Y509001D02*
Y511001D01*
X696501Y742501D02*
X698501D01*
X697501Y741501D02*
Y743501D01*
X700251Y735001D02*
X702251D01*
X701251Y734001D02*
Y736001D01*
X696501Y727501D02*
X698501D01*
X697501Y726501D02*
Y728501D01*
X696501Y697501D02*
X698501D01*
X697501Y696501D02*
Y698501D01*
X700251Y690001D02*
X702251D01*
X701251Y689001D02*
Y691001D01*
X689001Y742501D02*
X691001D01*
X690001Y741501D02*
Y743501D01*
X692751Y735001D02*
X694751D01*
X693751Y734001D02*
Y736001D01*
X689001Y727501D02*
X691001D01*
X690001Y726501D02*
Y728501D01*
X689001Y697501D02*
X691001D01*
X690001Y696501D02*
Y698501D01*
X692751Y690001D02*
X694751D01*
X693751Y689001D02*
Y691001D01*
X681501Y742501D02*
X683501D01*
X682501Y741501D02*
Y743501D01*
X685251Y735001D02*
X687251D01*
X686251Y734001D02*
Y736001D01*
X681501Y727501D02*
X683501D01*
X682501Y726501D02*
Y728501D01*
X681501Y697501D02*
X683501D01*
X682501Y696501D02*
Y698501D01*
X685251Y690001D02*
X687251D01*
X686251Y689001D02*
Y691001D01*
X674001Y742501D02*
X676001D01*
X675001Y741501D02*
Y743501D01*
X677751Y735001D02*
X679751D01*
X678751Y734001D02*
Y736001D01*
X674001Y727501D02*
X676001D01*
X675001Y726501D02*
Y728501D01*
X674001Y697501D02*
X676001D01*
X675001Y696501D02*
Y698501D01*
X677751Y690001D02*
X679751D01*
X678751Y689001D02*
Y691001D01*
X674001Y682501D02*
X676001D01*
X675001Y681501D02*
Y683501D01*
X666501Y742501D02*
X668501D01*
X667501Y741501D02*
Y743501D01*
X670251Y735001D02*
X672251D01*
X671251Y734001D02*
Y736001D01*
X666501Y727501D02*
X668501D01*
X667501Y726501D02*
Y728501D01*
X666501Y697501D02*
X668501D01*
X667501Y696501D02*
Y698501D01*
X670251Y690001D02*
X672251D01*
X671251Y689001D02*
Y691001D01*
X659001Y742501D02*
X661001D01*
X660001Y741501D02*
Y743501D01*
X659001Y697501D02*
X661001D01*
X660001Y696501D02*
Y698501D01*
X662751Y690001D02*
X664751D01*
X663751Y689001D02*
Y691001D01*
X651501Y742501D02*
X653501D01*
X652501Y741501D02*
Y743501D01*
X651501Y727501D02*
X653501D01*
X652501Y726501D02*
Y728501D01*
X644001Y742501D02*
X646001D01*
X645001Y741501D02*
Y743501D01*
X644001Y547501D02*
X646001D01*
X645001Y546501D02*
Y548501D01*
X636501Y742501D02*
X638501D01*
X637501Y741501D02*
Y743501D01*
X629001Y742501D02*
X631001D01*
X630001Y741501D02*
Y743501D01*
X632751Y735001D02*
X634751D01*
X633751Y734001D02*
Y736001D01*
X621501Y742501D02*
X623501D01*
X622501Y741501D02*
Y743501D01*
X625251Y735001D02*
X627251D01*
X626251Y734001D02*
Y736001D01*
X614001Y742501D02*
X616001D01*
X615001Y741501D02*
Y743501D01*
X606501Y742501D02*
X608501D01*
X607501Y741501D02*
Y743501D01*
X606501Y727501D02*
X608501D01*
X607501Y726501D02*
Y728501D01*
X599001Y742501D02*
X601001D01*
X600001Y741501D02*
Y743501D01*
X599001Y727501D02*
X601001D01*
X600001Y726501D02*
Y728501D01*
X602751Y720001D02*
X604751D01*
X603751Y719001D02*
Y721001D01*
X599001Y682501D02*
X601001D01*
X600001Y681501D02*
Y683501D01*
X602751Y660001D02*
X604751D01*
X603751Y659001D02*
Y661001D01*
X591501Y742501D02*
X593501D01*
X592501Y741501D02*
Y743501D01*
X591501Y727501D02*
X593501D01*
X592501Y726501D02*
Y728501D01*
X595251Y720001D02*
X597251D01*
X596251Y719001D02*
Y721001D01*
X591501Y712501D02*
X593501D01*
X592501Y711501D02*
Y713501D01*
X591501Y562501D02*
X593501D01*
X592501Y561501D02*
Y563501D01*
X595251Y555001D02*
X597251D01*
X596251Y554001D02*
Y556001D01*
X587751Y720001D02*
X589751D01*
X588751Y719001D02*
Y721001D01*
X584001Y712501D02*
X586001D01*
X585001Y711501D02*
Y713501D01*
X587751Y705001D02*
X589751D01*
X588751Y704001D02*
Y706001D01*
X584001Y607501D02*
X586001D01*
X585001Y606501D02*
Y608501D01*
X584001Y577501D02*
X586001D01*
X585001Y576501D02*
Y578501D01*
X587751Y570001D02*
X589751D01*
X588751Y569001D02*
Y571001D01*
X584001Y532501D02*
X586001D01*
X585001Y531501D02*
Y533501D01*
X584001Y517501D02*
X586001D01*
X585001Y516501D02*
Y518501D01*
X580251Y615001D02*
X582251D01*
X581251Y614001D02*
Y616001D01*
X576501Y607501D02*
X578501D01*
X577501Y606501D02*
Y608501D01*
X580251Y585001D02*
X582251D01*
X581251Y584001D02*
Y586001D01*
X576501Y577501D02*
X578501D01*
X577501Y576501D02*
Y578501D01*
X580251Y570001D02*
X582251D01*
X581251Y569001D02*
Y571001D01*
X576501Y562501D02*
X578501D01*
X577501Y561501D02*
Y563501D01*
X576501Y532501D02*
X578501D01*
X577501Y531501D02*
Y533501D01*
X580251Y525001D02*
X582251D01*
X581251Y524001D02*
Y526001D01*
X576501Y517501D02*
X578501D01*
X577501Y516501D02*
Y518501D01*
X580251Y510001D02*
X582251D01*
X581251Y509001D02*
Y511001D01*
X569001Y622501D02*
X571001D01*
X570001Y621501D02*
Y623501D01*
X572751Y615001D02*
X574751D01*
X573751Y614001D02*
Y616001D01*
X569001Y607501D02*
X571001D01*
X570001Y606501D02*
Y608501D01*
X569001Y592501D02*
X571001D01*
X570001Y591501D02*
Y593501D01*
X572751Y585001D02*
X574751D01*
X573751Y584001D02*
Y586001D01*
X569001Y577501D02*
X571001D01*
X570001Y576501D02*
Y578501D01*
X572751Y570001D02*
X574751D01*
X573751Y569001D02*
Y571001D01*
X569001Y562501D02*
X571001D01*
X570001Y561501D02*
Y563501D01*
X572751Y555001D02*
X574751D01*
X573751Y554001D02*
Y556001D01*
X569001Y547501D02*
X571001D01*
X570001Y546501D02*
Y548501D01*
X572751Y540001D02*
X574751D01*
X573751Y539001D02*
Y541001D01*
X569001Y532501D02*
X571001D01*
X570001Y531501D02*
Y533501D01*
X572751Y525001D02*
X574751D01*
X573751Y524001D02*
Y526001D01*
X569001Y517501D02*
X571001D01*
X570001Y516501D02*
Y518501D01*
X572751Y510001D02*
X574751D01*
X573751Y509001D02*
Y511001D01*
X561501Y742501D02*
X563501D01*
X562501Y741501D02*
Y743501D01*
X565251Y690001D02*
X567251D01*
X566251Y689001D02*
Y691001D01*
X561501Y682501D02*
X563501D01*
X562501Y681501D02*
Y683501D01*
X561501Y667501D02*
X563501D01*
X562501Y666501D02*
Y668501D01*
X561501Y652501D02*
X563501D01*
X562501Y651501D02*
Y653501D01*
X561501Y637501D02*
X563501D01*
X562501Y636501D02*
Y638501D01*
X565251Y630001D02*
X567251D01*
X566251Y629001D02*
Y631001D01*
X561501Y622501D02*
X563501D01*
X562501Y621501D02*
Y623501D01*
X565251Y615001D02*
X567251D01*
X566251Y614001D02*
Y616001D01*
X561501Y607501D02*
X563501D01*
X562501Y606501D02*
Y608501D01*
X565251Y600001D02*
X567251D01*
X566251Y599001D02*
Y601001D01*
X561501Y592501D02*
X563501D01*
X562501Y591501D02*
Y593501D01*
X565251Y585001D02*
X567251D01*
X566251Y584001D02*
Y586001D01*
X561501Y577501D02*
X563501D01*
X562501Y576501D02*
Y578501D01*
X565251Y570001D02*
X567251D01*
X566251Y569001D02*
Y571001D01*
X561501Y562501D02*
X563501D01*
X562501Y561501D02*
Y563501D01*
X565251Y555001D02*
X567251D01*
X566251Y554001D02*
Y556001D01*
X561501Y547501D02*
X563501D01*
X562501Y546501D02*
Y548501D01*
X565251Y540001D02*
X567251D01*
X566251Y539001D02*
Y541001D01*
X561501Y532501D02*
X563501D01*
X562501Y531501D02*
Y533501D01*
X565251Y525001D02*
X567251D01*
X566251Y524001D02*
Y526001D01*
X561501Y517501D02*
X563501D01*
X562501Y516501D02*
Y518501D01*
X565251Y510001D02*
X567251D01*
X566251Y509001D02*
Y511001D01*
X554001Y682501D02*
X556001D01*
X555001Y681501D02*
Y683501D01*
X557751Y675001D02*
X559751D01*
X558751Y674001D02*
Y676001D01*
X554001Y667501D02*
X556001D01*
X555001Y666501D02*
Y668501D01*
X557751Y660001D02*
X559751D01*
X558751Y659001D02*
Y661001D01*
X557751Y630001D02*
X559751D01*
X558751Y629001D02*
Y631001D01*
X557751Y615001D02*
X559751D01*
X558751Y614001D02*
Y616001D01*
X557751Y600001D02*
X559751D01*
X558751Y599001D02*
Y601001D01*
X554001Y592501D02*
X556001D01*
X555001Y591501D02*
Y593501D01*
X557751Y585001D02*
X559751D01*
X558751Y584001D02*
Y586001D01*
X554001Y577501D02*
X556001D01*
X555001Y576501D02*
Y578501D01*
X557751Y570001D02*
X559751D01*
X558751Y569001D02*
Y571001D01*
X554001Y562501D02*
X556001D01*
X555001Y561501D02*
Y563501D01*
X557751Y555001D02*
X559751D01*
X558751Y554001D02*
Y556001D01*
X554001Y547501D02*
X556001D01*
X555001Y546501D02*
Y548501D01*
X557751Y540001D02*
X559751D01*
X558751Y539001D02*
Y541001D01*
X554001Y532501D02*
X556001D01*
X555001Y531501D02*
Y533501D01*
X557751Y525001D02*
X559751D01*
X558751Y524001D02*
Y526001D01*
X554001Y517501D02*
X556001D01*
X555001Y516501D02*
Y518501D01*
X557751Y510001D02*
X559751D01*
X558751Y509001D02*
Y511001D01*
X546501Y742501D02*
X548501D01*
X547501Y741501D02*
Y743501D01*
X546501Y712501D02*
X548501D01*
X547501Y711501D02*
Y713501D01*
X550251Y705001D02*
X552251D01*
X551251Y704001D02*
Y706001D01*
X546501Y697501D02*
X548501D01*
X547501Y696501D02*
Y698501D01*
X550251Y630001D02*
X552251D01*
X551251Y629001D02*
Y631001D01*
X550251Y600001D02*
X552251D01*
X551251Y599001D02*
Y601001D01*
X546501Y592501D02*
X548501D01*
X547501Y591501D02*
Y593501D01*
X550251Y585001D02*
X552251D01*
X551251Y584001D02*
Y586001D01*
X546501Y577501D02*
X548501D01*
X547501Y576501D02*
Y578501D01*
X550251Y570001D02*
X552251D01*
X551251Y569001D02*
Y571001D01*
X546501Y562501D02*
X548501D01*
X547501Y561501D02*
Y563501D01*
X550251Y555001D02*
X552251D01*
X551251Y554001D02*
Y556001D01*
X546501Y547501D02*
X548501D01*
X547501Y546501D02*
Y548501D01*
X550251Y540001D02*
X552251D01*
X551251Y539001D02*
Y541001D01*
X546501Y532501D02*
X548501D01*
X547501Y531501D02*
Y533501D01*
X550251Y525001D02*
X552251D01*
X551251Y524001D02*
Y526001D01*
X546501Y517501D02*
X548501D01*
X547501Y516501D02*
Y518501D01*
X550251Y510001D02*
X552251D01*
X551251Y509001D02*
Y511001D01*
X539001Y742501D02*
X541001D01*
X540001Y741501D02*
Y743501D01*
X542751Y720001D02*
X544751D01*
X543751Y719001D02*
Y721001D01*
X539001Y712501D02*
X541001D01*
X540001Y711501D02*
Y713501D01*
X542751Y705001D02*
X544751D01*
X543751Y704001D02*
Y706001D01*
X539001Y697501D02*
X541001D01*
X540001Y696501D02*
Y698501D01*
X539001Y682501D02*
X541001D01*
X540001Y681501D02*
Y683501D01*
X539001Y667501D02*
X541001D01*
X540001Y666501D02*
Y668501D01*
X542751Y630001D02*
X544751D01*
X543751Y629001D02*
Y631001D01*
X542751Y600001D02*
X544751D01*
X543751Y599001D02*
Y601001D01*
X539001Y592501D02*
X541001D01*
X540001Y591501D02*
Y593501D01*
X542751Y585001D02*
X544751D01*
X543751Y584001D02*
Y586001D01*
X539001Y577501D02*
X541001D01*
X540001Y576501D02*
Y578501D01*
X542751Y570001D02*
X544751D01*
X543751Y569001D02*
Y571001D01*
X539001Y562501D02*
X541001D01*
X540001Y561501D02*
Y563501D01*
X542751Y555001D02*
X544751D01*
X543751Y554001D02*
Y556001D01*
X539001Y547501D02*
X541001D01*
X540001Y546501D02*
Y548501D01*
X542751Y540001D02*
X544751D01*
X543751Y539001D02*
Y541001D01*
X539001Y532501D02*
X541001D01*
X540001Y531501D02*
Y533501D01*
X542751Y525001D02*
X544751D01*
X543751Y524001D02*
Y526001D01*
X539001Y517501D02*
X541001D01*
X540001Y516501D02*
Y518501D01*
X542751Y510001D02*
X544751D01*
X543751Y509001D02*
Y511001D01*
X535251Y720001D02*
X537251D01*
X536251Y719001D02*
Y721001D01*
X531501Y712501D02*
X533501D01*
X532501Y711501D02*
Y713501D01*
X535251Y705001D02*
X537251D01*
X536251Y704001D02*
Y706001D01*
X531501Y697501D02*
X533501D01*
X532501Y696501D02*
Y698501D01*
X535251Y690001D02*
X537251D01*
X536251Y689001D02*
Y691001D01*
X531501Y682501D02*
X533501D01*
X532501Y681501D02*
Y683501D01*
X535251Y675001D02*
X537251D01*
X536251Y674001D02*
Y676001D01*
X531501Y667501D02*
X533501D01*
X532501Y666501D02*
Y668501D01*
X535251Y660001D02*
X537251D01*
X536251Y659001D02*
Y661001D01*
X535251Y630001D02*
X537251D01*
X536251Y629001D02*
Y631001D01*
X531501Y622501D02*
X533501D01*
X532501Y621501D02*
Y623501D01*
X531501Y607501D02*
X533501D01*
X532501Y606501D02*
Y608501D01*
X535251Y600001D02*
X537251D01*
X536251Y599001D02*
Y601001D01*
X531501Y592501D02*
X533501D01*
X532501Y591501D02*
Y593501D01*
X535251Y585001D02*
X537251D01*
X536251Y584001D02*
Y586001D01*
X531501Y577501D02*
X533501D01*
X532501Y576501D02*
Y578501D01*
X535251Y570001D02*
X537251D01*
X536251Y569001D02*
Y571001D01*
X531501Y562501D02*
X533501D01*
X532501Y561501D02*
Y563501D01*
X535251Y555001D02*
X537251D01*
X536251Y554001D02*
Y556001D01*
X531501Y547501D02*
X533501D01*
X532501Y546501D02*
Y548501D01*
X535251Y540001D02*
X537251D01*
X536251Y539001D02*
Y541001D01*
X531501Y532501D02*
X533501D01*
X532501Y531501D02*
Y533501D01*
X535251Y525001D02*
X537251D01*
X536251Y524001D02*
Y526001D01*
X531501Y517501D02*
X533501D01*
X532501Y516501D02*
Y518501D01*
X535251Y510001D02*
X537251D01*
X536251Y509001D02*
Y511001D01*
X527751Y720001D02*
X529751D01*
X528751Y719001D02*
Y721001D01*
X524001Y712501D02*
X526001D01*
X525001Y711501D02*
Y713501D01*
X527751Y705001D02*
X529751D01*
X528751Y704001D02*
Y706001D01*
X524001Y697501D02*
X526001D01*
X525001Y696501D02*
Y698501D01*
X527751Y690001D02*
X529751D01*
X528751Y689001D02*
Y691001D01*
X524001Y682501D02*
X526001D01*
X525001Y681501D02*
Y683501D01*
X527751Y675001D02*
X529751D01*
X528751Y674001D02*
Y676001D01*
X524001Y667501D02*
X526001D01*
X525001Y666501D02*
Y668501D01*
X527751Y660001D02*
X529751D01*
X528751Y659001D02*
Y661001D01*
X524001Y652501D02*
X526001D01*
X525001Y651501D02*
Y653501D01*
X527751Y645001D02*
X529751D01*
X528751Y644001D02*
Y646001D01*
X524001Y637501D02*
X526001D01*
X525001Y636501D02*
Y638501D01*
X527751Y630001D02*
X529751D01*
X528751Y629001D02*
Y631001D01*
X524001Y622501D02*
X526001D01*
X525001Y621501D02*
Y623501D01*
X527751Y615001D02*
X529751D01*
X528751Y614001D02*
Y616001D01*
X524001Y607501D02*
X526001D01*
X525001Y606501D02*
Y608501D01*
X527751Y600001D02*
X529751D01*
X528751Y599001D02*
Y601001D01*
X524001Y592501D02*
X526001D01*
X525001Y591501D02*
Y593501D01*
X527751Y585001D02*
X529751D01*
X528751Y584001D02*
Y586001D01*
X524001Y577501D02*
X526001D01*
X525001Y576501D02*
Y578501D01*
X527751Y570001D02*
X529751D01*
X528751Y569001D02*
Y571001D01*
X524001Y562501D02*
X526001D01*
X525001Y561501D02*
Y563501D01*
X527751Y555001D02*
X529751D01*
X528751Y554001D02*
Y556001D01*
X524001Y547501D02*
X526001D01*
X525001Y546501D02*
Y548501D01*
X527751Y540001D02*
X529751D01*
X528751Y539001D02*
Y541001D01*
X524001Y532501D02*
X526001D01*
X525001Y531501D02*
Y533501D01*
X527751Y525001D02*
X529751D01*
X528751Y524001D02*
Y526001D01*
X524001Y517501D02*
X526001D01*
X525001Y516501D02*
Y518501D01*
X527751Y510001D02*
X529751D01*
X528751Y509001D02*
Y511001D01*
X516501Y742501D02*
X518501D01*
X517501Y741501D02*
Y743501D01*
X516501Y727501D02*
X518501D01*
X517501Y726501D02*
Y728501D01*
X520251Y720001D02*
X522251D01*
X521251Y719001D02*
Y721001D01*
X516501Y712501D02*
X518501D01*
X517501Y711501D02*
Y713501D01*
X520251Y705001D02*
X522251D01*
X521251Y704001D02*
Y706001D01*
X516501Y697501D02*
X518501D01*
X517501Y696501D02*
Y698501D01*
X520251Y690001D02*
X522251D01*
X521251Y689001D02*
Y691001D01*
X516501Y682501D02*
X518501D01*
X517501Y681501D02*
Y683501D01*
X520251Y675001D02*
X522251D01*
X521251Y674001D02*
Y676001D01*
X516501Y667501D02*
X518501D01*
X517501Y666501D02*
Y668501D01*
X520251Y660001D02*
X522251D01*
X521251Y659001D02*
Y661001D01*
X516501Y652501D02*
X518501D01*
X517501Y651501D02*
Y653501D01*
X520251Y645001D02*
X522251D01*
X521251Y644001D02*
Y646001D01*
X516501Y637501D02*
X518501D01*
X517501Y636501D02*
Y638501D01*
X520251Y630001D02*
X522251D01*
X521251Y629001D02*
Y631001D01*
X516501Y622501D02*
X518501D01*
X517501Y621501D02*
Y623501D01*
X520251Y615001D02*
X522251D01*
X521251Y614001D02*
Y616001D01*
X516501Y607501D02*
X518501D01*
X517501Y606501D02*
Y608501D01*
X520251Y600001D02*
X522251D01*
X521251Y599001D02*
Y601001D01*
X516501Y592501D02*
X518501D01*
X517501Y591501D02*
Y593501D01*
X520251Y585001D02*
X522251D01*
X521251Y584001D02*
Y586001D01*
X516501Y577501D02*
X518501D01*
X517501Y576501D02*
Y578501D01*
X520251Y570001D02*
X522251D01*
X521251Y569001D02*
Y571001D01*
X516501Y562501D02*
X518501D01*
X517501Y561501D02*
Y563501D01*
X520251Y555001D02*
X522251D01*
X521251Y554001D02*
Y556001D01*
X516501Y547501D02*
X518501D01*
X517501Y546501D02*
Y548501D01*
X520251Y540001D02*
X522251D01*
X521251Y539001D02*
Y541001D01*
X516501Y532501D02*
X518501D01*
X517501Y531501D02*
Y533501D01*
X520251Y525001D02*
X522251D01*
X521251Y524001D02*
Y526001D01*
X516501Y517501D02*
X518501D01*
X517501Y516501D02*
Y518501D01*
X520251Y510001D02*
X522251D01*
X521251Y509001D02*
Y511001D01*
X509001Y742501D02*
X511001D01*
X510001Y741501D02*
Y743501D01*
X512751Y735001D02*
X514751D01*
X513751Y734001D02*
Y736001D01*
X509001Y727501D02*
X511001D01*
X510001Y726501D02*
Y728501D01*
X512751Y720001D02*
X514751D01*
X513751Y719001D02*
Y721001D01*
X509001Y712501D02*
X511001D01*
X510001Y711501D02*
Y713501D01*
X512751Y705001D02*
X514751D01*
X513751Y704001D02*
Y706001D01*
X509001Y697501D02*
X511001D01*
X510001Y696501D02*
Y698501D01*
X512751Y690001D02*
X514751D01*
X513751Y689001D02*
Y691001D01*
X509001Y682501D02*
X511001D01*
X510001Y681501D02*
Y683501D01*
X512751Y675001D02*
X514751D01*
X513751Y674001D02*
Y676001D01*
X509001Y667501D02*
X511001D01*
X510001Y666501D02*
Y668501D01*
X512751Y660001D02*
X514751D01*
X513751Y659001D02*
Y661001D01*
X509001Y652501D02*
X511001D01*
X510001Y651501D02*
Y653501D01*
X512751Y645001D02*
X514751D01*
X513751Y644001D02*
Y646001D01*
X509001Y637501D02*
X511001D01*
X510001Y636501D02*
Y638501D01*
X512751Y630001D02*
X514751D01*
X513751Y629001D02*
Y631001D01*
X509001Y622501D02*
X511001D01*
X510001Y621501D02*
Y623501D01*
X512751Y615001D02*
X514751D01*
X513751Y614001D02*
Y616001D01*
X509001Y607501D02*
X511001D01*
X510001Y606501D02*
Y608501D01*
X512751Y600001D02*
X514751D01*
X513751Y599001D02*
Y601001D01*
X509001Y592501D02*
X511001D01*
X510001Y591501D02*
Y593501D01*
X512751Y585001D02*
X514751D01*
X513751Y584001D02*
Y586001D01*
X509001Y577501D02*
X511001D01*
X510001Y576501D02*
Y578501D01*
X512751Y570001D02*
X514751D01*
X513751Y569001D02*
Y571001D01*
X509001Y562501D02*
X511001D01*
X510001Y561501D02*
Y563501D01*
X512751Y555001D02*
X514751D01*
X513751Y554001D02*
Y556001D01*
X509001Y547501D02*
X511001D01*
X510001Y546501D02*
Y548501D01*
X512751Y540001D02*
X514751D01*
X513751Y539001D02*
Y541001D01*
X509001Y532501D02*
X511001D01*
X510001Y531501D02*
Y533501D01*
X512751Y525001D02*
X514751D01*
X513751Y524001D02*
Y526001D01*
X509001Y517501D02*
X511001D01*
X510001Y516501D02*
Y518501D01*
X512751Y510001D02*
X514751D01*
X513751Y509001D02*
Y511001D01*
X505251Y735001D02*
X507251D01*
X506251Y734001D02*
Y736001D01*
X505251Y720001D02*
X507251D01*
X506251Y719001D02*
Y721001D01*
X505251Y705001D02*
X507251D01*
X506251Y704001D02*
Y706001D01*
X505251Y690001D02*
X507251D01*
X506251Y689001D02*
Y691001D01*
X505251Y675001D02*
X507251D01*
X506251Y674001D02*
Y676001D01*
X505251Y660001D02*
X507251D01*
X506251Y659001D02*
Y661001D01*
X505251Y645001D02*
X507251D01*
X506251Y644001D02*
Y646001D01*
X505251Y630001D02*
X507251D01*
X506251Y629001D02*
Y631001D01*
X505251Y615001D02*
X507251D01*
X506251Y614001D02*
Y616001D01*
X505251Y600001D02*
X507251D01*
X506251Y599001D02*
Y601001D01*
X505251Y585001D02*
X507251D01*
X506251Y584001D02*
Y586001D01*
X505251Y570001D02*
X507251D01*
X506251Y569001D02*
Y571001D01*
X505251Y555001D02*
X507251D01*
X506251Y554001D02*
Y556001D01*
X505251Y540001D02*
X507251D01*
X506251Y539001D02*
Y541001D01*
X505251Y525001D02*
X507251D01*
X506251Y524001D02*
Y526001D01*
X505251Y510001D02*
X507251D01*
X506251Y509001D02*
Y511001D01*
X746000Y536000D02*
X748000D01*
X747000Y535000D02*
Y537000D01*
X1197000Y724000D02*
X1199000D01*
X1198000Y723000D02*
Y725000D01*
X1438000Y625000D02*
X1440000D01*
X1439000Y624000D02*
Y626000D01*
X1103000Y544000D02*
X1105000D01*
X1104000Y543000D02*
Y545000D01*
X1361878Y699790D02*
X1363878D01*
X1362878Y698790D02*
Y700790D01*
X1369000Y700000D02*
X1371000D01*
X1370000Y699000D02*
Y701000D01*
X734000Y620000D02*
X736000D01*
X735000Y619000D02*
Y621000D01*
X1263500Y716500D02*
X1265500D01*
X1264500Y715500D02*
Y717500D01*
X1293000Y612149D02*
X1295000D01*
X1294000Y611148D02*
Y613148D01*
X1376453Y548300D02*
X1378453D01*
X1377453Y547300D02*
Y549300D01*
X1349664Y557336D02*
X1351664D01*
X1350664Y556336D02*
Y558336D01*
X1356463Y548791D02*
X1358463D01*
X1357463Y547791D02*
Y549791D01*
X1385163Y687670D02*
X1387163D01*
X1386163Y686670D02*
Y688670D01*
X1371142Y654300D02*
X1373142D01*
X1372142Y653300D02*
Y655300D01*
X1328300Y687670D02*
X1330300D01*
X1329300Y686670D02*
Y688670D01*
X1370567Y646309D02*
X1372567D01*
X1371567Y645309D02*
Y647309D01*
X691000Y529000D02*
X693000D01*
X692000Y528000D02*
Y530000D01*
X627500Y578500D02*
X629500D01*
X628500Y577500D02*
Y579500D01*
X1275000Y682000D02*
X1277000D01*
X1276000Y681000D02*
Y683000D01*
X1439000Y647000D02*
X1441000D01*
X1440000Y646000D02*
Y648000D01*
X1454860Y645283D02*
X1456860D01*
X1455860Y644283D02*
Y646283D01*
X752748Y570252D02*
X754748D01*
X753748Y569252D02*
Y571252D01*
X691000Y567000D02*
X693000D01*
X692000Y566000D02*
Y568000D01*
X683000Y565000D02*
X685000D01*
X684000Y564000D02*
Y566000D01*
X683192Y620006D02*
X685192D01*
X684192Y619006D02*
Y621006D01*
X688273Y631586D02*
X690273D01*
X689273Y630586D02*
Y632586D01*
X687579Y639198D02*
X689579D01*
X688579Y638199D02*
Y640199D01*
X702099Y625526D02*
X704099D01*
X703099Y624526D02*
Y626526D01*
X663000Y682000D02*
X665000D01*
X664000Y681000D02*
Y683000D01*
X658000Y671000D02*
X660000D01*
X659000Y670000D02*
Y672000D01*
X573665Y694335D02*
X575665D01*
X574665Y693335D02*
Y695335D01*
X576000Y703000D02*
X578000D01*
X577000Y702000D02*
Y704000D01*
X716000Y565000D02*
X718000D01*
X717000Y564000D02*
Y566000D01*
X708905Y574608D02*
X710905D01*
X709905Y573608D02*
Y575608D01*
X697960Y568056D02*
X699960D01*
X698960Y567056D02*
Y569056D01*
X705000Y568750D02*
X707000D01*
X706000Y567750D02*
Y569750D01*
X653500Y575132D02*
X655500D01*
X654500Y574132D02*
Y576132D01*
X644537Y575625D02*
X646537D01*
X645537Y574625D02*
Y576625D01*
X619422Y535591D02*
X621422D01*
X620422Y534591D02*
Y536591D01*
X752000Y730000D02*
X754000D01*
X753000Y729000D02*
Y731000D01*
X585440Y621328D02*
X587440D01*
X586440Y620328D02*
Y622328D01*
X584261Y628269D02*
X586261D01*
X585261Y627269D02*
Y629269D01*
X584343Y636193D02*
X586343D01*
X585343Y635193D02*
Y637193D01*
X600285Y673285D02*
X602285D01*
X601285Y672285D02*
Y674285D01*
X580285Y647335D02*
X582285D01*
X581285Y646335D02*
Y648335D01*
X585440Y652130D02*
X587440D01*
X586440Y651130D02*
Y653130D01*
X597560Y652072D02*
X599560D01*
X598560Y651072D02*
Y653072D01*
X624302Y690284D02*
X626302D01*
X625303Y689284D02*
Y691284D01*
X638043Y665368D02*
X640043D01*
X639043Y664368D02*
Y666368D01*
X622607Y682602D02*
X625607D01*
X624107Y681103D02*
Y684102D01*
X731000Y669575D02*
X733000D01*
X732000Y668575D02*
Y670575D01*
X1303420Y696060D02*
X1305420D01*
X1304420Y695060D02*
Y697060D01*
X1315540Y696060D02*
X1317540D01*
X1316540Y695060D02*
Y697060D01*
X1306000Y680000D02*
X1308000D01*
X1307000Y679000D02*
Y681000D01*
X1130038Y712962D02*
X1132038D01*
X1131038Y711962D02*
Y713962D01*
X1301000Y722000D02*
X1303000D01*
X1302000Y721000D02*
Y723000D01*
X1332000Y721667D02*
X1334000D01*
X1333000Y720667D02*
Y722667D01*
X1470000Y615292D02*
X1472000D01*
X1471000Y614292D02*
Y616292D01*
X1463000Y596000D02*
X1465000D01*
X1464000Y595000D02*
Y597000D01*
X1466621Y580799D02*
X1468621D01*
X1467621Y579799D02*
Y581799D01*
X1392000Y616000D02*
X1394000D01*
X1393000Y615000D02*
Y617000D01*
X1378575Y669899D02*
X1380575D01*
X1379575Y668899D02*
Y670899D01*
X1347000Y632000D02*
X1349000D01*
X1348000Y631000D02*
Y633000D01*
X1311335Y649000D02*
X1313335D01*
X1312334Y648000D02*
Y650000D01*
X1369000Y678886D02*
X1371000D01*
X1370000Y677887D02*
Y679886D01*
X1355170Y687172D02*
X1357170D01*
X1356170Y686172D02*
Y688173D01*
X1310622Y665572D02*
X1312622D01*
X1311622Y664572D02*
Y666572D01*
X1088000Y615000D02*
X1090000D01*
X1089000Y614000D02*
Y616000D01*
X1088816Y590491D02*
X1090816D01*
X1089816Y589492D02*
Y591492D01*
X1087499Y604501D02*
X1089499D01*
X1088499Y603501D02*
Y605501D01*
X1087906Y597472D02*
X1089906D01*
X1088906Y596473D02*
Y598473D01*
X1145338Y615353D02*
X1147338D01*
X1146338Y614352D02*
Y616353D01*
X1145000Y603000D02*
X1147000D01*
X1146000Y602000D02*
Y604000D01*
X1113000Y549060D02*
X1115000D01*
X1114000Y548060D02*
Y550060D01*
X1119159Y595487D02*
X1121159D01*
X1120159Y594487D02*
Y596487D01*
X1179425Y569409D02*
X1181425D01*
X1180425Y568409D02*
Y570409D01*
X1174000Y583000D02*
X1176000D01*
X1175000Y582000D02*
Y584000D01*
X1174100Y590039D02*
X1176100D01*
X1175100Y589039D02*
Y591039D01*
X1164457Y577221D02*
X1166458D01*
X1165458Y576221D02*
Y578221D01*
X1165707Y570293D02*
X1167708D01*
X1166708Y569292D02*
Y571292D01*
X1163914Y563485D02*
X1165914D01*
X1164914Y562485D02*
Y564485D01*
X1195600Y564400D02*
X1197600D01*
X1196600Y563400D02*
Y565400D01*
X1175287Y552500D02*
X1177287D01*
X1176287Y551500D02*
Y553500D01*
X1110801Y562940D02*
X1112801D01*
X1111801Y561940D02*
Y563940D01*
X1123545Y569830D02*
X1125545D01*
X1124545Y568830D02*
Y570830D01*
X1140000Y570000D02*
X1142000D01*
X1141000Y569000D02*
Y571000D01*
X1142525Y557525D02*
X1144525D01*
X1143525Y556525D02*
Y558525D01*
X1197000Y539940D02*
X1199000D01*
X1198000Y538940D02*
Y540940D01*
X1390964Y547060D02*
X1392964D01*
X1391964Y546060D02*
Y548060D01*
X1447246Y595676D02*
X1449246D01*
X1448246Y594676D02*
Y596676D01*
X1112000Y575060D02*
X1114000D01*
X1113000Y574060D02*
Y576060D01*
X1313415Y586585D02*
X1315415D01*
X1314415Y585585D02*
Y587585D01*
X1356000Y569841D02*
X1358000D01*
X1357000Y568841D02*
Y570841D01*
X1211520Y641520D02*
X1213520D01*
X1212520Y640520D02*
Y642520D01*
X1249000Y615000D02*
X1251000D01*
X1250000Y614000D02*
Y616000D01*
X1244764Y584994D02*
X1246764D01*
X1245764Y583994D02*
Y585994D01*
X1251804Y585081D02*
X1253804D01*
X1252804Y584081D02*
Y586081D01*
X1340000Y551000D02*
X1342000D01*
X1341000Y550000D02*
Y552000D01*
X1093000Y550000D02*
X1095000D01*
X1094000Y549000D02*
Y551000D01*
X1086340Y577630D02*
X1088340D01*
X1087340Y576630D02*
Y578630D01*
X1163250Y590045D02*
X1165250D01*
X1164250Y589045D02*
Y591045D01*
X1175729Y605174D02*
X1177729D01*
X1176729Y604174D02*
Y606174D01*
X744565Y655398D02*
X746565D01*
X745565Y654398D02*
Y656398D01*
X753000Y655000D02*
X755000D01*
X754000Y654000D02*
Y656000D01*
X662000Y644000D02*
X664000D01*
X663000Y643000D02*
Y645000D01*
X662000Y633000D02*
X664000D01*
X663000Y632000D02*
Y634000D01*
X662000Y622000D02*
X664000D01*
X663000Y621000D02*
Y623000D01*
X662000Y611000D02*
X664000D01*
X663000Y610000D02*
Y612000D01*
X662000Y600000D02*
X664000D01*
X663000Y599000D02*
Y601000D01*
X651000Y644000D02*
X653000D01*
X652000Y643000D02*
Y645000D01*
X651000Y633000D02*
X653000D01*
X652000Y632000D02*
Y634000D01*
X651000Y622000D02*
X653000D01*
X652000Y621000D02*
Y623000D01*
X651000Y611000D02*
X653000D01*
X652000Y610000D02*
Y612000D01*
X651000Y600000D02*
X653000D01*
X652000Y599000D02*
Y601000D01*
X640000Y644000D02*
X642000D01*
X641000Y643000D02*
Y645000D01*
X640000Y633000D02*
X642000D01*
X641000Y632000D02*
Y634000D01*
X640000Y622000D02*
X642000D01*
X641000Y621000D02*
Y623000D01*
X640000Y611000D02*
X642000D01*
X641000Y610000D02*
Y612000D01*
X640000Y600000D02*
X642000D01*
X641000Y599000D02*
Y601000D01*
X629000Y644000D02*
X631000D01*
X630000Y643000D02*
Y645000D01*
X629000Y633000D02*
X631000D01*
X630000Y632000D02*
Y634000D01*
X629000Y622000D02*
X631000D01*
X630000Y621000D02*
Y623000D01*
X629000Y611000D02*
X631000D01*
X630000Y610000D02*
Y612000D01*
X629000Y600000D02*
X631000D01*
X630000Y599000D02*
Y601000D01*
X618000Y644000D02*
X620000D01*
X619000Y643000D02*
Y645000D01*
X618000Y633000D02*
X620000D01*
X619000Y632000D02*
Y634000D01*
X618000Y622000D02*
X620000D01*
X619000Y621000D02*
Y623000D01*
X618000Y611000D02*
X620000D01*
X619000Y610000D02*
Y612000D01*
X618000Y600000D02*
X620000D01*
X619000Y599000D02*
Y601000D01*
X591500Y579500D02*
X593500D01*
X592500Y578500D02*
Y580500D01*
X598000Y573000D02*
X600000D01*
X599000Y572000D02*
Y574000D01*
X1405000Y620000D02*
X1407000D01*
X1406000Y619000D02*
Y621000D01*
X1267500Y703500D02*
X1269500D01*
X1268500Y702500D02*
Y704500D01*
X1130707Y609292D02*
X1132708D01*
X1131708Y608293D02*
Y610293D01*
X723207Y595207D02*
X725208D01*
X724208Y594207D02*
Y596208D01*
X1333500Y655500D02*
X1335500D01*
X1334500Y654500D02*
Y656500D01*
X1333500Y666500D02*
X1335500D01*
X1334500Y665500D02*
Y667500D01*
X1344500Y655500D02*
X1346500D01*
X1345500Y654500D02*
Y656500D01*
X1344500Y666500D02*
X1346500D01*
X1345500Y665500D02*
Y667500D01*
M02*
