G04*
G04 #@! TF.GenerationSoftware,Altium Limited,Altium Designer,21.0.9 (235)*
G04*
G04 Layer_Color=65535*
%FSLAX44Y44*%
%MOMM*%
G71*
G04*
G04 #@! TF.SameCoordinates,35DE941F-9A8C-42F3-B98C-DFFE3D48772F*
G04*
G04*
G04 #@! TF.FilePolarity,Positive*
G04*
G01*
G75*
%ADD10C,0.1000*%
%ADD11C,0.2500*%
%ADD12C,0.2540*%
%ADD13C,0.2000*%
%ADD14C,0.1270*%
%ADD15C,0.1524*%
G36*
X845086Y535299D02*
X842410D01*
Y528141D01*
X841330D01*
Y535299D01*
X838655D01*
Y536261D01*
X845086D01*
Y535299D01*
D02*
G37*
G36*
X817274Y536250D02*
X817368D01*
X817579Y536226D01*
X817814Y536203D01*
X818060Y536156D01*
X818307Y536097D01*
X818530Y536015D01*
X818541D01*
X818553Y536003D01*
X818624Y535968D01*
X818729Y535909D01*
X818847Y535827D01*
X818987Y535722D01*
X819140Y535592D01*
X819281Y535428D01*
X819410Y535252D01*
X819421Y535229D01*
X819457Y535158D01*
X819515Y535064D01*
X819574Y534924D01*
X819633Y534759D01*
X819691Y534583D01*
X819727Y534384D01*
X819738Y534184D01*
Y534161D01*
Y534102D01*
X819727Y533997D01*
X819703Y533867D01*
X819668Y533715D01*
X819609Y533551D01*
X819539Y533386D01*
X819445Y533210D01*
X819433Y533187D01*
X819398Y533140D01*
X819328Y533046D01*
X819234Y532952D01*
X819116Y532835D01*
X818976Y532706D01*
X818800Y532588D01*
X818600Y532471D01*
X818612D01*
X818635Y532459D01*
X818670Y532448D01*
X818717Y532424D01*
X818858Y532377D01*
X819023Y532295D01*
X819199Y532189D01*
X819398Y532060D01*
X819574Y531908D01*
X819738Y531720D01*
X819750Y531697D01*
X819797Y531626D01*
X819867Y531521D01*
X819938Y531380D01*
X820008Y531192D01*
X820079Y530992D01*
X820126Y530758D01*
X820137Y530499D01*
Y530488D01*
Y530476D01*
Y530406D01*
X820126Y530288D01*
X820102Y530148D01*
X820079Y529983D01*
X820032Y529807D01*
X819973Y529619D01*
X819891Y529432D01*
X819879Y529408D01*
X819844Y529350D01*
X819797Y529267D01*
X819727Y529150D01*
X819633Y529033D01*
X819539Y528904D01*
X819421Y528774D01*
X819292Y528669D01*
X819281Y528657D01*
X819234Y528622D01*
X819152Y528575D01*
X819046Y528528D01*
X818917Y528458D01*
X818764Y528387D01*
X818600Y528329D01*
X818400Y528270D01*
X818377D01*
X818307Y528246D01*
X818189Y528235D01*
X818037Y528211D01*
X817849Y528188D01*
X817626Y528164D01*
X817380Y528153D01*
X817098Y528141D01*
X814000D01*
Y536261D01*
X817192D01*
X817274Y536250D01*
D02*
G37*
G36*
X834184Y536390D02*
X834289D01*
X834395Y536379D01*
X834536Y536355D01*
X834677Y536332D01*
X834982Y536273D01*
X835334Y536179D01*
X835674Y536038D01*
X835850Y535956D01*
X836026Y535862D01*
X836038Y535851D01*
X836061Y535839D01*
X836108Y535804D01*
X836179Y535768D01*
X836249Y535710D01*
X836343Y535639D01*
X836543Y535475D01*
X836754Y535264D01*
X836989Y535006D01*
X837211Y534701D01*
X837399Y534360D01*
Y534348D01*
X837423Y534313D01*
X837446Y534266D01*
X837470Y534196D01*
X837516Y534102D01*
X837552Y533997D01*
X837599Y533867D01*
X837646Y533727D01*
X837681Y533574D01*
X837728Y533410D01*
X837775Y533222D01*
X837810Y533034D01*
X837857Y532623D01*
X837880Y532178D01*
Y532166D01*
Y532119D01*
Y532060D01*
X837869Y531966D01*
Y531861D01*
X837857Y531732D01*
X837833Y531591D01*
X837822Y531438D01*
X837763Y531098D01*
X837669Y530723D01*
X837540Y530347D01*
X837470Y530159D01*
X837376Y529972D01*
Y529960D01*
X837352Y529925D01*
X837329Y529878D01*
X837282Y529807D01*
X837235Y529725D01*
X837176Y529643D01*
X837012Y529420D01*
X836812Y529185D01*
X836578Y528939D01*
X836296Y528704D01*
X835967Y528493D01*
X835956D01*
X835932Y528469D01*
X835874Y528446D01*
X835803Y528411D01*
X835721Y528376D01*
X835627Y528340D01*
X835510Y528293D01*
X835381Y528246D01*
X835240Y528200D01*
X835087Y528153D01*
X834747Y528082D01*
X834383Y528023D01*
X833996Y528000D01*
X833879D01*
X833808Y528012D01*
X833703D01*
X833585Y528035D01*
X833456Y528047D01*
X833304Y528070D01*
X832987Y528141D01*
X832647Y528235D01*
X832295Y528376D01*
X832119Y528458D01*
X831943Y528551D01*
X831931Y528563D01*
X831907Y528575D01*
X831860Y528610D01*
X831790Y528657D01*
X831720Y528704D01*
X831637Y528774D01*
X831438Y528951D01*
X831215Y529162D01*
X830980Y529420D01*
X830769Y529713D01*
X830570Y530054D01*
Y530065D01*
X830546Y530101D01*
X830523Y530148D01*
X830499Y530218D01*
X830464Y530312D01*
X830429Y530417D01*
X830382Y530535D01*
X830347Y530664D01*
X830300Y530816D01*
X830253Y530969D01*
X830182Y531321D01*
X830135Y531685D01*
X830112Y532084D01*
Y532095D01*
Y532107D01*
Y532178D01*
X830124Y532283D01*
Y532424D01*
X830147Y532588D01*
X830171Y532788D01*
X830206Y533011D01*
X830253Y533246D01*
X830300Y533492D01*
X830370Y533750D01*
X830464Y534008D01*
X830570Y534278D01*
X830687Y534536D01*
X830839Y534795D01*
X831004Y535029D01*
X831191Y535252D01*
X831203Y535264D01*
X831238Y535299D01*
X831309Y535358D01*
X831391Y535428D01*
X831497Y535522D01*
X831626Y535616D01*
X831778Y535722D01*
X831954Y535827D01*
X832142Y535933D01*
X832353Y536038D01*
X832588Y536132D01*
X832834Y536226D01*
X833104Y536297D01*
X833386Y536355D01*
X833679Y536390D01*
X833996Y536402D01*
X834102D01*
X834184Y536390D01*
D02*
G37*
G36*
X825359D02*
X825465D01*
X825571Y536379D01*
X825711Y536355D01*
X825852Y536332D01*
X826157Y536273D01*
X826509Y536179D01*
X826850Y536038D01*
X827026Y535956D01*
X827202Y535862D01*
X827213Y535851D01*
X827237Y535839D01*
X827284Y535804D01*
X827354Y535768D01*
X827425Y535710D01*
X827518Y535639D01*
X827718Y535475D01*
X827929Y535264D01*
X828164Y535006D01*
X828387Y534701D01*
X828575Y534360D01*
Y534348D01*
X828598Y534313D01*
X828622Y534266D01*
X828645Y534196D01*
X828692Y534102D01*
X828727Y533997D01*
X828774Y533867D01*
X828821Y533727D01*
X828856Y533574D01*
X828903Y533410D01*
X828950Y533222D01*
X828985Y533034D01*
X829032Y532623D01*
X829056Y532178D01*
Y532166D01*
Y532119D01*
Y532060D01*
X829044Y531966D01*
Y531861D01*
X829032Y531732D01*
X829009Y531591D01*
X828997Y531438D01*
X828938Y531098D01*
X828845Y530723D01*
X828715Y530347D01*
X828645Y530159D01*
X828551Y529972D01*
Y529960D01*
X828528Y529925D01*
X828504Y529878D01*
X828457Y529807D01*
X828410Y529725D01*
X828352Y529643D01*
X828187Y529420D01*
X827988Y529185D01*
X827753Y528939D01*
X827471Y528704D01*
X827143Y528493D01*
X827131D01*
X827108Y528469D01*
X827049Y528446D01*
X826979Y528411D01*
X826897Y528376D01*
X826803Y528340D01*
X826685Y528293D01*
X826556Y528246D01*
X826415Y528200D01*
X826263Y528153D01*
X825923Y528082D01*
X825559Y528023D01*
X825172Y528000D01*
X825054D01*
X824984Y528012D01*
X824878D01*
X824761Y528035D01*
X824632Y528047D01*
X824479Y528070D01*
X824162Y528141D01*
X823822Y528235D01*
X823470Y528376D01*
X823294Y528458D01*
X823118Y528551D01*
X823106Y528563D01*
X823083Y528575D01*
X823036Y528610D01*
X822965Y528657D01*
X822895Y528704D01*
X822813Y528774D01*
X822613Y528951D01*
X822390Y529162D01*
X822156Y529420D01*
X821945Y529713D01*
X821745Y530054D01*
Y530065D01*
X821721Y530101D01*
X821698Y530148D01*
X821675Y530218D01*
X821639Y530312D01*
X821604Y530417D01*
X821557Y530535D01*
X821522Y530664D01*
X821475Y530816D01*
X821428Y530969D01*
X821358Y531321D01*
X821311Y531685D01*
X821287Y532084D01*
Y532095D01*
Y532107D01*
Y532178D01*
X821299Y532283D01*
Y532424D01*
X821322Y532588D01*
X821346Y532788D01*
X821381Y533011D01*
X821428Y533246D01*
X821475Y533492D01*
X821545Y533750D01*
X821639Y534008D01*
X821745Y534278D01*
X821862Y534536D01*
X822015Y534795D01*
X822179Y535029D01*
X822367Y535252D01*
X822379Y535264D01*
X822414Y535299D01*
X822484Y535358D01*
X822566Y535428D01*
X822672Y535522D01*
X822801Y535616D01*
X822954Y535722D01*
X823130Y535827D01*
X823317Y535933D01*
X823529Y536038D01*
X823763Y536132D01*
X824010Y536226D01*
X824280Y536297D01*
X824561Y536355D01*
X824855Y536390D01*
X825172Y536402D01*
X825277D01*
X825359Y536390D01*
D02*
G37*
G36*
X832776Y574390D02*
X832858D01*
X833081Y574367D01*
X833327Y574332D01*
X833585Y574273D01*
X833867Y574203D01*
X834125Y574109D01*
X834137D01*
X834160Y574097D01*
X834196Y574074D01*
X834242Y574050D01*
X834360Y573991D01*
X834512Y573886D01*
X834688Y573768D01*
X834865Y573616D01*
X835029Y573440D01*
X835181Y573240D01*
Y573229D01*
X835193Y573217D01*
X835217Y573182D01*
X835240Y573147D01*
X835299Y573029D01*
X835369Y572877D01*
X835451Y572689D01*
X835510Y572466D01*
X835569Y572231D01*
X835592Y571973D01*
X834559Y571891D01*
Y571903D01*
Y571926D01*
X834548Y571961D01*
X834536Y572020D01*
X834501Y572149D01*
X834454Y572325D01*
X834383Y572513D01*
X834278Y572701D01*
X834149Y572877D01*
X833984Y573041D01*
X833961Y573053D01*
X833902Y573100D01*
X833785Y573170D01*
X833632Y573240D01*
X833433Y573311D01*
X833198Y573381D01*
X832905Y573428D01*
X832576Y573440D01*
X832412D01*
X832342Y573428D01*
X832248Y573416D01*
X832036Y573393D01*
X831802Y573346D01*
X831567Y573287D01*
X831344Y573193D01*
X831250Y573135D01*
X831156Y573076D01*
X831133Y573064D01*
X831086Y573017D01*
X831015Y572935D01*
X830945Y572841D01*
X830863Y572712D01*
X830792Y572571D01*
X830746Y572407D01*
X830722Y572220D01*
Y572196D01*
Y572149D01*
X830734Y572067D01*
X830757Y571973D01*
X830792Y571856D01*
X830851Y571738D01*
X830922Y571621D01*
X831027Y571504D01*
X831039Y571492D01*
X831098Y571457D01*
X831144Y571422D01*
X831191Y571398D01*
X831262Y571363D01*
X831344Y571316D01*
X831450Y571281D01*
X831567Y571234D01*
X831696Y571187D01*
X831849Y571128D01*
X832013Y571081D01*
X832201Y571022D01*
X832412Y570976D01*
X832647Y570917D01*
X832658D01*
X832705Y570905D01*
X832776Y570893D01*
X832858Y570870D01*
X832963Y570846D01*
X833092Y570811D01*
X833222Y570776D01*
X833362Y570741D01*
X833668Y570659D01*
X833961Y570577D01*
X834102Y570530D01*
X834231Y570483D01*
X834348Y570448D01*
X834442Y570401D01*
X834454D01*
X834477Y570389D01*
X834512Y570365D01*
X834559Y570342D01*
X834688Y570271D01*
X834841Y570178D01*
X835017Y570048D01*
X835193Y569908D01*
X835357Y569743D01*
X835498Y569567D01*
X835510Y569544D01*
X835557Y569485D01*
X835604Y569380D01*
X835674Y569239D01*
X835733Y569075D01*
X835791Y568875D01*
X835827Y568652D01*
X835838Y568417D01*
Y568406D01*
Y568394D01*
Y568359D01*
Y568312D01*
X835815Y568183D01*
X835791Y568018D01*
X835745Y567831D01*
X835686Y567631D01*
X835592Y567420D01*
X835463Y567197D01*
Y567185D01*
X835451Y567174D01*
X835393Y567103D01*
X835310Y566997D01*
X835193Y566880D01*
X835041Y566739D01*
X834853Y566587D01*
X834641Y566446D01*
X834395Y566317D01*
X834383D01*
X834360Y566305D01*
X834325Y566293D01*
X834278Y566270D01*
X834207Y566246D01*
X834125Y566211D01*
X833937Y566164D01*
X833715Y566106D01*
X833445Y566047D01*
X833151Y566012D01*
X832834Y566000D01*
X832647D01*
X832553Y566012D01*
X832447D01*
X832330Y566023D01*
X832189Y566035D01*
X831896Y566082D01*
X831590Y566129D01*
X831285Y566211D01*
X830992Y566317D01*
X830980D01*
X830957Y566329D01*
X830922Y566352D01*
X830875Y566376D01*
X830734Y566446D01*
X830570Y566552D01*
X830382Y566692D01*
X830182Y566857D01*
X829995Y567056D01*
X829818Y567279D01*
Y567291D01*
X829795Y567314D01*
X829783Y567350D01*
X829748Y567397D01*
X829725Y567455D01*
X829689Y567525D01*
X829607Y567702D01*
X829525Y567924D01*
X829455Y568171D01*
X829408Y568453D01*
X829384Y568746D01*
X830394Y568840D01*
Y568828D01*
Y568816D01*
X830405Y568781D01*
Y568734D01*
X830429Y568629D01*
X830464Y568476D01*
X830511Y568324D01*
X830558Y568148D01*
X830640Y567983D01*
X830722Y567831D01*
X830734Y567819D01*
X830769Y567772D01*
X830828Y567690D01*
X830922Y567608D01*
X831039Y567502D01*
X831168Y567397D01*
X831344Y567291D01*
X831532Y567197D01*
X831544D01*
X831555Y567185D01*
X831590Y567174D01*
X831626Y567162D01*
X831743Y567127D01*
X831896Y567080D01*
X832083Y567033D01*
X832295Y566997D01*
X832529Y566974D01*
X832787Y566962D01*
X832893D01*
X833010Y566974D01*
X833151Y566986D01*
X833316Y567009D01*
X833503Y567033D01*
X833691Y567080D01*
X833867Y567138D01*
X833891Y567150D01*
X833949Y567174D01*
X834031Y567220D01*
X834137Y567267D01*
X834242Y567350D01*
X834360Y567432D01*
X834477Y567525D01*
X834571Y567643D01*
X834583Y567655D01*
X834606Y567702D01*
X834641Y567760D01*
X834688Y567854D01*
X834735Y567948D01*
X834771Y568065D01*
X834794Y568194D01*
X834806Y568335D01*
Y568347D01*
Y568406D01*
X834794Y568476D01*
X834782Y568570D01*
X834747Y568664D01*
X834712Y568781D01*
X834653Y568899D01*
X834571Y569004D01*
X834559Y569016D01*
X834524Y569051D01*
X834477Y569098D01*
X834395Y569168D01*
X834301Y569239D01*
X834172Y569321D01*
X834020Y569403D01*
X833844Y569473D01*
X833832Y569485D01*
X833773Y569497D01*
X833679Y569532D01*
X833621Y569544D01*
X833538Y569567D01*
X833456Y569603D01*
X833351Y569626D01*
X833233Y569661D01*
X833092Y569697D01*
X832952Y569732D01*
X832787Y569779D01*
X832600Y569826D01*
X832400Y569873D01*
X832388D01*
X832353Y569884D01*
X832295Y569896D01*
X832224Y569919D01*
X832130Y569943D01*
X832025Y569966D01*
X831790Y570037D01*
X831532Y570119D01*
X831262Y570201D01*
X831027Y570283D01*
X830922Y570330D01*
X830828Y570377D01*
X830816D01*
X830804Y570389D01*
X830734Y570436D01*
X830628Y570494D01*
X830511Y570588D01*
X830370Y570694D01*
X830229Y570823D01*
X830088Y570976D01*
X829971Y571140D01*
X829959Y571163D01*
X829924Y571222D01*
X829877Y571316D01*
X829830Y571433D01*
X829783Y571586D01*
X829736Y571762D01*
X829701Y571950D01*
X829689Y572149D01*
Y572161D01*
Y572173D01*
Y572208D01*
Y572255D01*
X829713Y572372D01*
X829736Y572525D01*
X829772Y572701D01*
X829830Y572900D01*
X829912Y573100D01*
X830030Y573299D01*
Y573311D01*
X830042Y573322D01*
X830100Y573393D01*
X830182Y573487D01*
X830288Y573604D01*
X830429Y573733D01*
X830605Y573874D01*
X830816Y574003D01*
X831051Y574120D01*
X831062D01*
X831086Y574132D01*
X831121Y574144D01*
X831168Y574167D01*
X831227Y574191D01*
X831309Y574214D01*
X831485Y574261D01*
X831708Y574308D01*
X831966Y574355D01*
X832236Y574390D01*
X832541Y574402D01*
X832693D01*
X832776Y574390D01*
D02*
G37*
G36*
X850706Y573299D02*
X848031D01*
Y566141D01*
X846951D01*
Y573299D01*
X844276D01*
Y574261D01*
X850706D01*
Y573299D01*
D02*
G37*
G36*
X843208D02*
X838408D01*
Y570823D01*
X842903D01*
Y569861D01*
X838408D01*
Y567103D01*
X843396D01*
Y566141D01*
X837329D01*
Y574261D01*
X843208D01*
Y573299D01*
D02*
G37*
G36*
X828070D02*
X823270D01*
Y570823D01*
X827765D01*
Y569861D01*
X823270D01*
Y567103D01*
X828258D01*
Y566141D01*
X822191D01*
Y574261D01*
X828070D01*
Y573299D01*
D02*
G37*
G36*
X817861Y574250D02*
X817966D01*
X818213Y574238D01*
X818471Y574203D01*
X818753Y574167D01*
X819011Y574109D01*
X819140Y574074D01*
X819246Y574038D01*
X819257D01*
X819269Y574027D01*
X819339Y573991D01*
X819445Y573945D01*
X819574Y573862D01*
X819715Y573757D01*
X819867Y573616D01*
X820008Y573452D01*
X820149Y573264D01*
Y573252D01*
X820161Y573240D01*
X820208Y573170D01*
X820255Y573053D01*
X820325Y572900D01*
X820384Y572724D01*
X820442Y572513D01*
X820478Y572290D01*
X820489Y572043D01*
Y572032D01*
Y572008D01*
Y571961D01*
X820478Y571903D01*
Y571820D01*
X820466Y571738D01*
X820419Y571539D01*
X820349Y571304D01*
X820255Y571058D01*
X820114Y570811D01*
X820020Y570694D01*
X819926Y570577D01*
X819914Y570565D01*
X819903Y570553D01*
X819867Y570518D01*
X819820Y570483D01*
X819762Y570436D01*
X819691Y570389D01*
X819597Y570330D01*
X819504Y570260D01*
X819386Y570201D01*
X819257Y570142D01*
X819116Y570072D01*
X818964Y570013D01*
X818788Y569966D01*
X818612Y569908D01*
X818412Y569873D01*
X818201Y569837D01*
X818224Y569826D01*
X818271Y569802D01*
X818342Y569755D01*
X818436Y569708D01*
X818647Y569579D01*
X818753Y569497D01*
X818847Y569427D01*
X818870Y569403D01*
X818929Y569344D01*
X819023Y569251D01*
X819140Y569133D01*
X819269Y568969D01*
X819421Y568793D01*
X819574Y568582D01*
X819738Y568347D01*
X821135Y566141D01*
X819797D01*
X818729Y567831D01*
Y567842D01*
X818706Y567866D01*
X818682Y567901D01*
X818647Y567948D01*
X818565Y568077D01*
X818459Y568241D01*
X818330Y568417D01*
X818201Y568605D01*
X818072Y568781D01*
X817955Y568945D01*
X817943Y568957D01*
X817908Y569004D01*
X817849Y569075D01*
X817767Y569157D01*
X817591Y569333D01*
X817497Y569415D01*
X817403Y569485D01*
X817391Y569497D01*
X817368Y569509D01*
X817321Y569532D01*
X817251Y569567D01*
X817180Y569603D01*
X817098Y569638D01*
X816910Y569697D01*
X816898D01*
X816875Y569708D01*
X816828D01*
X816769Y569720D01*
X816687Y569732D01*
X816593D01*
X816464Y569743D01*
X815080D01*
Y566141D01*
X814000D01*
Y574261D01*
X817767D01*
X817861Y574250D01*
D02*
G37*
%LPC*%
G36*
X817004Y535299D02*
X815080D01*
Y532858D01*
X817075D01*
X817227Y532870D01*
X817391Y532882D01*
X817556Y532893D01*
X817720Y532917D01*
X817849Y532940D01*
X817872Y532952D01*
X817919Y532964D01*
X817990Y532999D01*
X818084Y533046D01*
X818178Y533093D01*
X818283Y533163D01*
X818389Y533257D01*
X818471Y533351D01*
X818483Y533363D01*
X818506Y533398D01*
X818541Y533468D01*
X818577Y533551D01*
X818612Y533644D01*
X818647Y533762D01*
X818670Y533903D01*
X818682Y534055D01*
Y534079D01*
Y534126D01*
X818670Y534196D01*
X818659Y534290D01*
X818635Y534407D01*
X818600Y534525D01*
X818553Y534642D01*
X818483Y534759D01*
X818471Y534771D01*
X818447Y534806D01*
X818400Y534865D01*
X818342Y534924D01*
X818260Y534994D01*
X818166Y535064D01*
X818048Y535135D01*
X817919Y535182D01*
X817908D01*
X817849Y535205D01*
X817767Y535217D01*
X817638Y535240D01*
X817462Y535264D01*
X817262Y535276D01*
X817004Y535299D01*
D02*
G37*
G36*
X817215Y531896D02*
X815080D01*
Y529103D01*
X817391D01*
X817638Y529115D01*
X817743Y529127D01*
X817837Y529138D01*
X817849D01*
X817896Y529150D01*
X817966Y529162D01*
X818048Y529185D01*
X818248Y529256D01*
X818447Y529350D01*
X818459Y529361D01*
X818494Y529385D01*
X818541Y529420D01*
X818600Y529467D01*
X818659Y529537D01*
X818741Y529608D01*
X818800Y529702D01*
X818870Y529807D01*
X818882Y529819D01*
X818893Y529854D01*
X818917Y529925D01*
X818952Y530007D01*
X818987Y530101D01*
X819011Y530218D01*
X819023Y530359D01*
X819034Y530499D01*
Y530523D01*
Y530570D01*
X819023Y530664D01*
X818999Y530769D01*
X818976Y530887D01*
X818929Y531016D01*
X818870Y531145D01*
X818788Y531274D01*
X818776Y531286D01*
X818741Y531333D01*
X818694Y531391D01*
X818624Y531462D01*
X818530Y531544D01*
X818412Y531626D01*
X818283Y531697D01*
X818131Y531755D01*
X818107Y531767D01*
X818060Y531779D01*
X817955Y531802D01*
X817825Y531826D01*
X817661Y531849D01*
X817462Y531872D01*
X817215Y531896D01*
D02*
G37*
G36*
X833996Y535475D02*
X833891D01*
X833808Y535463D01*
X833703Y535452D01*
X833597Y535428D01*
X833468Y535405D01*
X833327Y535381D01*
X833022Y535287D01*
X832858Y535217D01*
X832693Y535146D01*
X832517Y535053D01*
X832353Y534947D01*
X832189Y534830D01*
X832036Y534689D01*
X832025Y534677D01*
X832001Y534654D01*
X831966Y534607D01*
X831907Y534536D01*
X831849Y534454D01*
X831778Y534348D01*
X831708Y534220D01*
X831626Y534067D01*
X831555Y533903D01*
X831473Y533703D01*
X831403Y533492D01*
X831344Y533257D01*
X831285Y532999D01*
X831250Y532706D01*
X831227Y532401D01*
X831215Y532072D01*
Y532060D01*
Y532013D01*
Y531931D01*
X831227Y531826D01*
X831238Y531708D01*
X831262Y531567D01*
X831285Y531403D01*
X831309Y531239D01*
X831403Y530863D01*
X831473Y530676D01*
X831544Y530476D01*
X831637Y530288D01*
X831743Y530101D01*
X831860Y529925D01*
X832001Y529760D01*
X832013Y529748D01*
X832036Y529725D01*
X832083Y529678D01*
X832142Y529631D01*
X832224Y529561D01*
X832318Y529490D01*
X832424Y529420D01*
X832541Y529338D01*
X832682Y529256D01*
X832834Y529185D01*
X832999Y529115D01*
X833175Y529044D01*
X833362Y528997D01*
X833550Y528951D01*
X833761Y528927D01*
X833984Y528915D01*
X834043D01*
X834102Y528927D01*
X834184D01*
X834289Y528939D01*
X834407Y528962D01*
X834548Y528986D01*
X834688Y529021D01*
X834853Y529068D01*
X835005Y529127D01*
X835181Y529185D01*
X835346Y529267D01*
X835510Y529373D01*
X835674Y529479D01*
X835838Y529608D01*
X835991Y529760D01*
X836003Y529772D01*
X836026Y529795D01*
X836061Y529854D01*
X836120Y529925D01*
X836179Y530007D01*
X836237Y530112D01*
X836308Y530241D01*
X836390Y530382D01*
X836460Y530546D01*
X836531Y530734D01*
X836590Y530934D01*
X836660Y531145D01*
X836707Y531380D01*
X836742Y531638D01*
X836766Y531908D01*
X836777Y532189D01*
Y532201D01*
Y532236D01*
Y532283D01*
Y532354D01*
X836766Y532436D01*
Y532541D01*
X836754Y532647D01*
X836730Y532776D01*
X836695Y533046D01*
X836636Y533328D01*
X836554Y533633D01*
X836437Y533914D01*
Y533926D01*
X836425Y533950D01*
X836402Y533985D01*
X836378Y534032D01*
X836296Y534173D01*
X836190Y534337D01*
X836050Y534525D01*
X835874Y534712D01*
X835674Y534900D01*
X835451Y535064D01*
X835440D01*
X835428Y535088D01*
X835393Y535100D01*
X835334Y535135D01*
X835275Y535158D01*
X835205Y535193D01*
X835029Y535276D01*
X834818Y535346D01*
X834571Y535416D01*
X834289Y535463D01*
X833996Y535475D01*
D02*
G37*
G36*
X825172D02*
X825066D01*
X824984Y535463D01*
X824878Y535452D01*
X824772Y535428D01*
X824643Y535405D01*
X824503Y535381D01*
X824197Y535287D01*
X824033Y535217D01*
X823869Y535146D01*
X823693Y535053D01*
X823529Y534947D01*
X823364Y534830D01*
X823212Y534689D01*
X823200Y534677D01*
X823177Y534654D01*
X823141Y534607D01*
X823083Y534536D01*
X823024Y534454D01*
X822954Y534348D01*
X822883Y534220D01*
X822801Y534067D01*
X822731Y533903D01*
X822648Y533703D01*
X822578Y533492D01*
X822520Y533257D01*
X822461Y532999D01*
X822426Y532706D01*
X822402Y532401D01*
X822390Y532072D01*
Y532060D01*
Y532013D01*
Y531931D01*
X822402Y531826D01*
X822414Y531708D01*
X822437Y531567D01*
X822461Y531403D01*
X822484Y531239D01*
X822578Y530863D01*
X822648Y530676D01*
X822719Y530476D01*
X822813Y530288D01*
X822918Y530101D01*
X823036Y529925D01*
X823177Y529760D01*
X823188Y529748D01*
X823212Y529725D01*
X823259Y529678D01*
X823317Y529631D01*
X823400Y529561D01*
X823493Y529490D01*
X823599Y529420D01*
X823716Y529338D01*
X823857Y529256D01*
X824010Y529185D01*
X824174Y529115D01*
X824350Y529044D01*
X824538Y528997D01*
X824726Y528951D01*
X824937Y528927D01*
X825160Y528915D01*
X825219D01*
X825277Y528927D01*
X825359D01*
X825465Y528939D01*
X825582Y528962D01*
X825723Y528986D01*
X825864Y529021D01*
X826028Y529068D01*
X826181Y529127D01*
X826357Y529185D01*
X826521Y529267D01*
X826685Y529373D01*
X826850Y529479D01*
X827014Y529608D01*
X827166Y529760D01*
X827178Y529772D01*
X827202Y529795D01*
X827237Y529854D01*
X827296Y529925D01*
X827354Y530007D01*
X827413Y530112D01*
X827483Y530241D01*
X827565Y530382D01*
X827636Y530546D01*
X827706Y530734D01*
X827765Y530934D01*
X827835Y531145D01*
X827882Y531380D01*
X827917Y531638D01*
X827941Y531908D01*
X827953Y532189D01*
Y532201D01*
Y532236D01*
Y532283D01*
Y532354D01*
X827941Y532436D01*
Y532541D01*
X827929Y532647D01*
X827906Y532776D01*
X827870Y533046D01*
X827812Y533328D01*
X827730Y533633D01*
X827612Y533914D01*
Y533926D01*
X827601Y533950D01*
X827577Y533985D01*
X827554Y534032D01*
X827471Y534173D01*
X827366Y534337D01*
X827225Y534525D01*
X827049Y534712D01*
X826850Y534900D01*
X826627Y535064D01*
X826615D01*
X826603Y535088D01*
X826568Y535100D01*
X826509Y535135D01*
X826451Y535158D01*
X826380Y535193D01*
X826204Y535276D01*
X825993Y535346D01*
X825747Y535416D01*
X825465Y535463D01*
X825172Y535475D01*
D02*
G37*
G36*
X817638Y573358D02*
X815080D01*
Y570671D01*
X817497D01*
X817638Y570682D01*
X817802Y570694D01*
X817990Y570706D01*
X818178Y570729D01*
X818365Y570764D01*
X818530Y570811D01*
X818553Y570823D01*
X818600Y570846D01*
X818670Y570882D01*
X818764Y570929D01*
X818870Y570999D01*
X818976Y571081D01*
X819081Y571187D01*
X819163Y571304D01*
X819175Y571316D01*
X819199Y571363D01*
X819234Y571433D01*
X819281Y571527D01*
X819316Y571633D01*
X819351Y571750D01*
X819374Y571891D01*
X819386Y572032D01*
Y572043D01*
Y572055D01*
X819374Y572126D01*
X819363Y572231D01*
X819339Y572372D01*
X819281Y572513D01*
X819210Y572677D01*
X819105Y572830D01*
X818964Y572982D01*
X818940Y572994D01*
X818882Y573041D01*
X818788Y573100D01*
X818635Y573170D01*
X818459Y573240D01*
X818224Y573299D01*
X817955Y573346D01*
X817638Y573358D01*
D02*
G37*
%LPD*%
D10*
X1398379Y610621D02*
G03*
X1398379Y610621I-500J0D01*
G01*
X849173Y584086D02*
G03*
X849173Y584086I-500J0D01*
G01*
X535379Y655120D02*
G03*
X535379Y655120I-500J0D01*
G01*
X1228620Y717121D02*
G03*
X1228620Y717121I-500J0D01*
G01*
X818000Y685000D02*
Y693000D01*
X821000Y689000D02*
X824000D01*
D11*
X606750Y578500D02*
G03*
X606750Y578500I-1250J0D01*
G01*
X1320750Y632500D02*
G03*
X1320750Y632500I-1250J0D01*
G01*
X1241250Y553750D02*
G03*
X1241250Y553750I-1250J0D01*
G01*
X1118750Y713000D02*
G03*
X1118750Y713000I-1250J0D01*
G01*
D12*
X1399840Y543797D02*
G03*
X1399840Y543797I-500J0D01*
G01*
X1335202Y556076D02*
G03*
X1335202Y556076I-500J0D01*
G01*
X1344000Y609000D02*
Y617000D01*
X1360000Y609000D02*
Y617000D01*
X1386300Y711500D02*
X1386300Y703500D01*
X1370300Y711500D02*
X1370300Y703500D01*
X1464000Y655543D02*
Y663542D01*
X1448000Y655543D02*
Y663542D01*
X1264000Y573000D02*
X1272000D01*
X1264000Y589000D02*
X1272000D01*
X1360617Y703500D02*
Y711500D01*
X1344617D02*
X1344617Y703500D01*
X1318333D02*
Y711500D01*
X1334332Y703500D02*
Y711500D01*
X1427628Y538415D02*
X1427628Y530415D01*
X1411628D02*
Y538415D01*
X1427585Y561457D02*
Y569458D01*
X1411585Y561457D02*
Y569458D01*
X1402043Y561457D02*
X1402043Y569457D01*
X1386042D02*
X1386042Y561457D01*
X1373542Y538415D02*
X1373543Y530415D01*
X1357543D02*
Y538415D01*
X1306458Y530415D02*
Y538415D01*
X1322458Y530415D02*
Y538415D01*
X1332000Y530415D02*
Y538415D01*
X1348000Y530415D02*
Y538415D01*
X1360500Y561457D02*
Y569458D01*
X1376500Y561457D02*
Y569458D01*
X1449543Y612000D02*
X1457543D01*
X1449543Y628000D02*
X1457543D01*
X1288000Y665000D02*
X1296000D01*
X1288000Y681000D02*
X1296000D01*
X1308457Y703500D02*
Y711500D01*
X1292457Y703500D02*
Y711500D01*
X1383999Y687189D02*
X1391999D01*
X1383999Y671189D02*
X1391999D01*
X1384000Y661543D02*
X1392000D01*
X1384000Y645543D02*
X1392000D01*
X1384000Y620000D02*
X1392000D01*
X1384000Y636000D02*
X1392000D01*
X808000Y680208D02*
Y688207D01*
X792000Y680208D02*
Y688207D01*
X773000Y680208D02*
Y688207D01*
X757000Y680208D02*
Y688207D01*
X862000Y680208D02*
X862000Y688207D01*
X846000D02*
X846000Y680208D01*
X897000D02*
Y688207D01*
X881000Y680208D02*
Y688207D01*
X1107000Y623543D02*
X1115000D01*
X1107000Y607542D02*
X1115000D01*
X1306415Y561457D02*
Y569458D01*
X1322415Y561457D02*
Y569458D01*
X1187000Y560293D02*
X1195000Y560293D01*
X1187000Y544293D02*
X1195000Y544293D01*
X1187000Y586750D02*
X1195000Y586750D01*
X1187000Y570750D02*
X1195000D01*
X1187000Y612293D02*
X1195000Y612293D01*
X1187000Y596292D02*
X1195000Y596293D01*
X666250Y727600D02*
Y738400D01*
X1457000Y576000D02*
Y584000D01*
X1441000Y576000D02*
Y584000D01*
X1482543Y576000D02*
Y584000D01*
X1466543Y576000D02*
Y584000D01*
X1123000Y575000D02*
X1131000D01*
X1123000Y591000D02*
X1131000D01*
X1123000Y565457D02*
X1131000D01*
X1123000Y549458D02*
X1131000D01*
X593000Y547000D02*
Y555000D01*
X577000Y547000D02*
Y555000D01*
X648793Y547000D02*
Y555000D01*
X664793Y547000D02*
Y555000D01*
D13*
X602500Y535000D02*
G03*
X602500Y535000I-500J0D01*
G01*
X696500Y674000D02*
G03*
X696500Y674000I-500J0D01*
G01*
X805000Y517000D02*
Y519000D01*
X771000Y517000D02*
X805000D01*
X771000D02*
Y519000D01*
Y541000D02*
Y543000D01*
X805000D01*
Y541000D02*
Y543000D01*
Y581000D02*
Y583000D01*
X771000D02*
X805000D01*
X771000Y581000D02*
Y583000D01*
Y557000D02*
Y559000D01*
Y557000D02*
X805000D01*
Y559000D01*
X868792Y603208D02*
X874792D01*
X868792Y587207D02*
X874792D01*
X554000Y629000D02*
Y635000D01*
X538000Y629000D02*
Y635000D01*
X1202000Y698000D02*
X1208000Y698000D01*
X1202000Y714000D02*
X1208000D01*
X1079100Y511300D02*
Y536700D01*
X1028300Y511300D02*
X1079100D01*
X1028300D02*
Y536700D01*
X1079100D01*
X678000Y585000D02*
Y589250D01*
X673750Y585000D02*
X678000D01*
Y654750D02*
Y659000D01*
X673750D02*
X678000D01*
X604000D02*
X608250D01*
X604000Y654750D02*
Y659000D01*
Y585000D02*
Y589250D01*
Y585000D02*
X608250D01*
X941000Y511000D02*
X971700D01*
X941000D02*
Y529000D01*
X971700D01*
Y511000D02*
Y529000D01*
X845400Y728000D02*
Y746000D01*
X802000D02*
X845400D01*
X802000Y728000D02*
Y746000D01*
Y728000D02*
X845400D01*
X735000Y632000D02*
X765700D01*
X735000D02*
Y650000D01*
X765700D01*
Y632000D02*
Y650000D01*
X586000Y507000D02*
Y525000D01*
X705600D01*
Y507000D02*
Y525000D01*
X586000Y507000D02*
X705600D01*
X1298000Y605457D02*
Y615457D01*
X1305750D01*
X1328000Y605457D02*
Y615457D01*
X1320250D02*
X1328000D01*
X1086000Y507000D02*
Y525000D01*
X1205600D01*
Y507000D02*
Y525000D01*
X1086000Y507000D02*
X1205600D01*
X1318000Y639000D02*
X1323000D01*
X1318000D02*
Y644000D01*
Y678000D02*
Y683000D01*
X1323000D01*
X1357000D02*
X1362000D01*
Y678000D02*
Y683000D01*
X1357000Y639000D02*
X1362000D01*
Y644000D01*
X1351400Y728000D02*
Y746000D01*
X1308000D02*
X1351400D01*
X1308000Y728000D02*
Y746000D01*
Y728000D02*
X1351400D01*
X1441000Y511000D02*
X1471700D01*
X1441000D02*
Y529000D01*
X1471700D01*
Y511000D02*
Y529000D01*
X1235000Y632000D02*
X1265700D01*
X1235000D02*
Y650000D01*
X1265700D01*
Y632000D02*
Y650000D01*
X1419300Y681300D02*
X1444700D01*
X1419300D02*
Y732100D01*
X1444700D01*
Y681300D02*
Y732100D01*
X1400585Y528915D02*
Y540415D01*
X1400585Y524415D02*
X1400585Y528915D01*
X1384585Y524415D02*
X1400585D01*
X1384585D02*
Y540415D01*
X1400585Y540415D01*
X1333457Y559458D02*
Y570957D01*
Y575457D01*
X1349458D01*
Y559458D02*
Y575457D01*
X1333457Y559458D02*
X1349458D01*
X1218000Y502250D02*
X1218000Y493000D01*
Y526750D02*
Y539300D01*
Y493000D02*
X1288000D01*
Y502250D01*
Y526750D02*
Y539300D01*
X650500Y732379D02*
Y734500D01*
Y731500D02*
Y733621D01*
Y731500D02*
X652000Y733000D01*
X650500Y734500D02*
X652000Y733000D01*
X1028750Y546250D02*
Y651750D01*
X1039750D01*
X1028750Y546250D02*
X1039750D01*
X1022000Y681000D02*
Y725000D01*
X1058000Y663500D02*
X1098000D01*
Y671500D01*
X1082000D02*
X1098000D01*
X1082000D02*
X1082000Y684000D01*
X1082000Y734500D02*
X1082000Y722000D01*
X1082000Y734500D02*
X1098000D01*
Y742500D01*
X1058000D02*
X1098000D01*
X520900Y743000D02*
X589700D01*
Y725000D02*
Y743000D01*
X520900Y725000D02*
X589700D01*
X520900D02*
Y743000D01*
X606000Y534000D02*
X636000D01*
X606000Y568000D02*
X636000D01*
X695000Y640000D02*
Y670000D01*
X729000Y640000D02*
Y670000D01*
D14*
X758942Y549116D02*
X757884Y550174D01*
X755768D01*
X754710Y549116D01*
Y548058D01*
X755768Y547000D01*
X757884D01*
X758942Y545942D01*
Y544884D01*
X757884Y543826D01*
X755768D01*
X754710Y544884D01*
X765290Y543826D02*
X761058D01*
X765290Y548058D01*
Y549116D01*
X764232Y550174D01*
X762116D01*
X761058Y549116D01*
X759000Y589116D02*
X757942Y590174D01*
X755826D01*
X754768Y589116D01*
Y588058D01*
X755826Y587000D01*
X757942D01*
X759000Y585942D01*
Y584884D01*
X757942Y583826D01*
X755826D01*
X754768Y584884D01*
X761116Y583826D02*
X763232D01*
X762174D01*
Y590174D01*
X761116Y589116D01*
X866768Y618116D02*
X865710Y619174D01*
X863594D01*
X862536Y618116D01*
Y613884D01*
X863594Y612826D01*
X865710D01*
X866768Y613884D01*
X868884Y618116D02*
X869942Y619174D01*
X872058D01*
X873116Y618116D01*
Y617058D01*
X872058Y616000D01*
X871000D01*
X872058D01*
X873116Y614942D01*
Y613884D01*
X872058Y612826D01*
X869942D01*
X868884Y613884D01*
X878406Y612826D02*
Y619174D01*
X875232Y616000D01*
X879464D01*
X822112Y710182D02*
X817880D01*
Y707008D01*
X819996D01*
X817880D01*
Y703834D01*
X824228Y710182D02*
Y703834D01*
X828460D01*
X830576Y710182D02*
X834808D01*
X832692D01*
Y703834D01*
X836924D02*
X839040D01*
X837982D01*
Y710182D01*
X836924Y709124D01*
X601132Y676052D02*
Y670762D01*
X602190Y669704D01*
X604306D01*
X605364Y670762D01*
Y676052D01*
X611712D02*
X609596Y674994D01*
X607480Y672878D01*
Y670762D01*
X608538Y669704D01*
X610654D01*
X611712Y670762D01*
Y671820D01*
X610654Y672878D01*
X607480D01*
X941324Y536448D02*
Y542796D01*
X944498D01*
X945556Y541738D01*
Y539622D01*
X944498Y538564D01*
X941324D01*
X947672Y537506D02*
X948730Y536448D01*
X950846D01*
X951904Y537506D01*
Y541738D01*
X950846Y542796D01*
X948730D01*
X947672Y541738D01*
Y540680D01*
X948730Y539622D01*
X951904D01*
X849710Y739826D02*
Y746174D01*
X852884D01*
X853942Y745116D01*
Y743000D01*
X852884Y741942D01*
X849710D01*
X856058Y746174D02*
X860290D01*
Y745116D01*
X856058Y740884D01*
Y739826D01*
X735330Y657352D02*
Y663700D01*
X738504D01*
X739562Y662642D01*
Y660526D01*
X738504Y659468D01*
X735330D01*
X745910Y663700D02*
X743794Y662642D01*
X741678Y660526D01*
Y658410D01*
X742736Y657352D01*
X744852D01*
X745910Y658410D01*
Y659468D01*
X744852Y660526D01*
X741678D01*
X567710Y519826D02*
Y526174D01*
X570884D01*
X571942Y525116D01*
Y523000D01*
X570884Y521942D01*
X567710D01*
X574058Y525116D02*
X575116Y526174D01*
X577232D01*
X578290Y525116D01*
Y524058D01*
X577232Y523000D01*
X578290Y521942D01*
Y520884D01*
X577232Y519826D01*
X575116D01*
X574058Y520884D01*
Y521942D01*
X575116Y523000D01*
X574058Y524058D01*
Y525116D01*
X575116Y523000D02*
X577232D01*
X1355710Y739826D02*
Y746174D01*
X1358884D01*
X1359942Y745116D01*
Y743000D01*
X1358884Y741942D01*
X1355710D01*
X1365232Y739826D02*
Y746174D01*
X1362058Y743000D01*
X1366290D01*
X1441196Y536448D02*
Y542796D01*
X1444370D01*
X1445428Y541738D01*
Y539622D01*
X1444370Y538564D01*
X1441196D01*
X1451776Y536448D02*
X1447544D01*
X1451776Y540680D01*
Y541738D01*
X1450718Y542796D01*
X1448602D01*
X1447544Y541738D01*
X1235202Y657352D02*
Y663700D01*
X1238376D01*
X1239434Y662642D01*
Y660526D01*
X1238376Y659468D01*
X1235202D01*
X1241550Y662642D02*
X1242608Y663700D01*
X1244724D01*
X1245782Y662642D01*
Y661584D01*
X1244724Y660526D01*
X1243666D01*
X1244724D01*
X1245782Y659468D01*
Y658410D01*
X1244724Y657352D01*
X1242608D01*
X1241550Y658410D01*
X1095465Y529826D02*
Y536174D01*
X1098639D01*
X1099697Y535116D01*
Y533000D01*
X1098639Y531942D01*
X1095465D01*
X1101813Y529826D02*
X1103929D01*
X1102871D01*
Y536174D01*
X1101813Y535116D01*
X1107103D02*
X1108161Y536174D01*
X1110277D01*
X1111335Y535116D01*
Y530884D01*
X1110277Y529826D01*
X1108161D01*
X1107103Y530884D01*
Y535116D01*
X1419606Y739394D02*
Y745742D01*
X1422780D01*
X1423838Y744684D01*
Y742568D01*
X1422780Y741510D01*
X1419606D01*
X1421722D02*
X1423838Y739394D01*
X1425954Y745742D02*
X1430186D01*
X1428070D01*
Y739394D01*
X1432302D02*
X1434418D01*
X1433360D01*
Y745742D01*
X1432302Y744684D01*
X1207065Y549661D02*
Y556009D01*
X1210239D01*
X1211297Y554951D01*
Y552835D01*
X1210239Y551777D01*
X1207065D01*
X1209181D02*
X1211297Y549661D01*
X1213413D02*
X1215529D01*
X1214471D01*
Y556009D01*
X1213413Y554951D01*
X1221877Y549661D02*
Y556009D01*
X1218703Y552835D01*
X1222935D01*
X1207065Y576034D02*
Y582382D01*
X1210239D01*
X1211297Y581324D01*
Y579207D01*
X1210239Y578149D01*
X1207065D01*
X1209181D02*
X1211297Y576034D01*
X1213413D02*
X1215529D01*
X1214471D01*
Y582382D01*
X1213413Y581324D01*
X1218703D02*
X1219761Y582382D01*
X1221877D01*
X1222935Y581324D01*
Y580266D01*
X1221877Y579207D01*
X1220819D01*
X1221877D01*
X1222935Y578149D01*
Y577091D01*
X1221877Y576034D01*
X1219761D01*
X1218703Y577091D01*
X1207065Y601119D02*
Y607467D01*
X1210239D01*
X1211297Y606409D01*
Y604293D01*
X1210239Y603235D01*
X1207065D01*
X1209181D02*
X1211297Y601119D01*
X1213413D02*
X1215529D01*
X1214471D01*
Y607467D01*
X1213413Y606409D01*
X1222935Y601119D02*
X1218703D01*
X1222935Y605351D01*
Y606409D01*
X1221877Y607467D01*
X1219761D01*
X1218703Y606409D01*
X679710Y676174D02*
Y675116D01*
X681826Y673000D01*
X683942Y675116D01*
Y676174D01*
X681826Y673000D02*
Y669826D01*
X690290D02*
X686058D01*
X690290Y674058D01*
Y675116D01*
X689232Y676174D01*
X687116D01*
X686058Y675116D01*
X616768Y579174D02*
Y578116D01*
X618884Y576000D01*
X621000Y578116D01*
Y579174D01*
X618884Y576000D02*
Y572826D01*
X623116D02*
X625232D01*
X624174D01*
Y579174D01*
X623116Y578116D01*
X1386710Y519631D02*
Y514342D01*
X1387768Y513284D01*
X1389884D01*
X1390942Y514342D01*
Y519631D01*
X1397290D02*
X1393058D01*
Y516457D01*
X1395174Y517515D01*
X1396232D01*
X1397290Y516457D01*
Y514342D01*
X1396232Y513284D01*
X1394116D01*
X1393058Y514342D01*
X1336710Y586174D02*
Y580884D01*
X1337768Y579826D01*
X1339884D01*
X1340942Y580884D01*
Y586174D01*
X1346232Y579826D02*
Y586174D01*
X1343058Y583000D01*
X1347290D01*
X1305768Y693174D02*
Y687884D01*
X1306826Y686826D01*
X1308942D01*
X1310000Y687884D01*
Y693174D01*
X1312116Y686826D02*
X1314232D01*
X1313174D01*
Y693174D01*
X1312116Y692116D01*
X1081942Y547116D02*
X1080884Y548174D01*
X1078768D01*
X1077710Y547116D01*
Y546058D01*
X1078768Y545000D01*
X1080884D01*
X1081942Y543942D01*
Y542884D01*
X1080884Y541826D01*
X1078768D01*
X1077710Y542884D01*
X1084058Y547116D02*
X1085116Y548174D01*
X1087232D01*
X1088290Y547116D01*
Y546058D01*
X1087232Y545000D01*
X1086174D01*
X1087232D01*
X1088290Y543942D01*
Y542884D01*
X1087232Y541826D01*
X1085116D01*
X1084058Y542884D01*
X1470065Y655826D02*
Y662174D01*
X1473239D01*
X1474297Y661116D01*
Y659000D01*
X1473239Y657942D01*
X1470065D01*
X1472181D02*
X1474297Y655826D01*
X1476413D02*
X1478529D01*
X1477471D01*
Y662174D01*
X1476413Y661116D01*
X1481703D02*
X1482761Y662174D01*
X1484877D01*
X1485935Y661116D01*
Y660058D01*
X1484877Y659000D01*
X1485935Y657942D01*
Y656884D01*
X1484877Y655826D01*
X1482761D01*
X1481703Y656884D01*
Y657942D01*
X1482761Y659000D01*
X1481703Y660058D01*
Y661116D01*
X1482761Y659000D02*
X1484877D01*
X1441065Y558369D02*
Y564716D01*
X1444239D01*
X1445297Y563658D01*
Y561543D01*
X1444239Y560485D01*
X1441065D01*
X1443181D02*
X1445297Y558369D01*
X1447413D02*
X1449529D01*
X1448471D01*
Y564716D01*
X1447413Y563658D01*
X1452703Y564716D02*
X1456935D01*
Y563658D01*
X1452703Y559426D01*
Y558369D01*
X1466608Y558369D02*
Y564716D01*
X1469781D01*
X1470840Y563658D01*
Y561543D01*
X1469781Y560485D01*
X1466608D01*
X1468723D02*
X1470840Y558369D01*
X1472955D02*
X1475072D01*
X1474014D01*
Y564716D01*
X1472955Y563658D01*
X1482477Y564716D02*
X1480361Y563658D01*
X1478246Y561543D01*
Y559427D01*
X1479303Y558369D01*
X1481419D01*
X1482477Y559427D01*
Y560485D01*
X1481419Y561543D01*
X1478246D01*
X1126065Y612369D02*
Y618717D01*
X1129239D01*
X1130297Y617659D01*
Y615542D01*
X1129239Y614484D01*
X1126065D01*
X1128181D02*
X1130297Y612369D01*
X1132413D02*
X1134529D01*
X1133471D01*
Y618717D01*
X1132413Y617659D01*
X1141935Y618717D02*
X1137703D01*
Y615542D01*
X1139819Y616600D01*
X1140877D01*
X1141935Y615542D01*
Y613427D01*
X1140877Y612369D01*
X1138761D01*
X1137703Y613427D01*
X1356065Y722826D02*
Y729174D01*
X1359239D01*
X1360297Y728116D01*
Y726000D01*
X1359239Y724942D01*
X1356065D01*
X1358181D02*
X1360297Y722826D01*
X1362413D02*
X1364529D01*
X1363471D01*
Y729174D01*
X1362413Y728116D01*
X1367703D02*
X1368761Y729174D01*
X1370877D01*
X1371935Y728116D01*
Y723884D01*
X1370877Y722826D01*
X1368761D01*
X1367703Y723884D01*
Y728116D01*
X1364710Y608826D02*
Y615174D01*
X1367884D01*
X1368942Y614116D01*
Y612000D01*
X1367884Y610942D01*
X1364710D01*
X1366826D02*
X1368942Y608826D01*
X1371058Y609884D02*
X1372116Y608826D01*
X1374232D01*
X1375290Y609884D01*
Y614116D01*
X1374232Y615174D01*
X1372116D01*
X1371058Y614116D01*
Y613058D01*
X1372116Y612000D01*
X1375290D01*
X1309710Y716826D02*
Y723174D01*
X1312884D01*
X1313942Y722116D01*
Y720000D01*
X1312884Y718942D01*
X1309710D01*
X1311826D02*
X1313942Y716826D01*
X1316058Y722116D02*
X1317116Y723174D01*
X1319232D01*
X1320290Y722116D01*
Y721058D01*
X1319232Y720000D01*
X1320290Y718942D01*
Y717884D01*
X1319232Y716826D01*
X1317116D01*
X1316058Y717884D01*
Y718942D01*
X1317116Y720000D01*
X1316058Y721058D01*
Y722116D01*
X1317116Y720000D02*
X1319232D01*
X1392710Y704826D02*
Y711174D01*
X1395884D01*
X1396942Y710116D01*
Y708000D01*
X1395884Y706942D01*
X1392710D01*
X1394826D02*
X1396942Y704826D01*
X1399058Y711174D02*
X1403290D01*
Y710116D01*
X1399058Y705884D01*
Y704826D01*
X1262710Y593826D02*
Y600174D01*
X1265884D01*
X1266942Y599116D01*
Y597000D01*
X1265884Y595942D01*
X1262710D01*
X1264826D02*
X1266942Y593826D01*
X1273290Y600174D02*
X1271174Y599116D01*
X1269058Y597000D01*
Y594884D01*
X1270116Y593826D01*
X1272232D01*
X1273290Y594884D01*
Y595942D01*
X1272232Y597000D01*
X1269058D01*
X1403710Y651369D02*
Y657717D01*
X1406884D01*
X1407942Y656658D01*
Y654543D01*
X1406884Y653484D01*
X1403710D01*
X1405826D02*
X1407942Y651369D01*
X1414290Y657717D02*
X1410058D01*
Y654543D01*
X1412174Y655601D01*
X1413232D01*
X1414290Y654543D01*
Y652427D01*
X1413232Y651369D01*
X1411116D01*
X1410058Y652427D01*
X1403709Y677015D02*
Y683363D01*
X1406883D01*
X1407941Y682305D01*
Y680189D01*
X1406883Y679131D01*
X1403709D01*
X1405825D02*
X1407941Y677015D01*
X1413231D02*
Y683363D01*
X1410057Y680189D01*
X1414289D01*
X1286710Y686826D02*
Y693174D01*
X1289884D01*
X1290942Y692116D01*
Y690000D01*
X1289884Y688942D01*
X1286710D01*
X1288826D02*
X1290942Y686826D01*
X1293058Y692116D02*
X1294116Y693174D01*
X1296232D01*
X1297290Y692116D01*
Y691058D01*
X1296232Y690000D01*
X1295174D01*
X1296232D01*
X1297290Y688942D01*
Y687884D01*
X1296232Y686826D01*
X1294116D01*
X1293058Y687884D01*
X1282710Y716826D02*
Y723174D01*
X1285884D01*
X1286942Y722116D01*
Y720000D01*
X1285884Y718942D01*
X1282710D01*
X1284826D02*
X1286942Y716826D01*
X1293290D02*
X1289058D01*
X1293290Y721058D01*
Y722116D01*
X1292232Y723174D01*
X1290116D01*
X1289058Y722116D01*
X1380768Y608826D02*
Y615174D01*
X1383942D01*
X1385000Y614116D01*
Y612000D01*
X1383942Y610942D01*
X1380768D01*
X1382884D02*
X1385000Y608826D01*
X1387116D02*
X1389232D01*
X1388174D01*
Y615174D01*
X1387116Y614116D01*
X1301000Y622884D02*
Y627116D01*
X1299942Y628174D01*
X1297826D01*
X1296768Y627116D01*
Y622884D01*
X1297826Y621826D01*
X1299942D01*
X1298884Y623942D02*
X1301000Y621826D01*
X1299942D02*
X1301000Y622884D01*
X1303116Y621826D02*
X1305232D01*
X1304174D01*
Y628174D01*
X1303116Y627116D01*
X506010Y736826D02*
Y743174D01*
X509184D01*
X510242Y742116D01*
Y740000D01*
X509184Y738942D01*
X506010D01*
X516590Y743174D02*
X512358D01*
Y740000D01*
X514474Y741058D01*
X515532D01*
X516590Y740000D01*
Y737884D01*
X515532Y736826D01*
X513416D01*
X512358Y737884D01*
X1005768Y699826D02*
Y706174D01*
X1008942D01*
X1010000Y705116D01*
Y703000D01*
X1008942Y701942D01*
X1005768D01*
X1012116Y699826D02*
X1014232D01*
X1013174D01*
Y706174D01*
X1012116Y705116D01*
X865710Y722174D02*
Y715826D01*
X869942D01*
X872058Y721116D02*
X873116Y722174D01*
X875232D01*
X876290Y721116D01*
Y720058D01*
X875232Y719000D01*
X874174D01*
X875232D01*
X876290Y717942D01*
Y716884D01*
X875232Y715826D01*
X873116D01*
X872058Y716884D01*
X778560Y721174D02*
Y714826D01*
X782792D01*
X789140D02*
X784908D01*
X789140Y719058D01*
Y720116D01*
X788082Y721174D01*
X785966D01*
X784908Y720116D01*
X1287768Y660174D02*
Y653826D01*
X1292000D01*
X1294116D02*
X1296232D01*
X1295174D01*
Y660174D01*
X1294116Y659116D01*
X1085942Y643174D02*
X1083826D01*
X1084884D01*
Y637884D01*
X1083826Y636826D01*
X1082768D01*
X1081710Y637884D01*
X1092290Y636826D02*
X1088058D01*
X1092290Y641058D01*
Y642116D01*
X1091232Y643174D01*
X1089116D01*
X1088058Y642116D01*
X1295000Y552174D02*
X1292884D01*
X1293942D01*
Y546884D01*
X1292884Y545826D01*
X1291826D01*
X1290768Y546884D01*
X1297116Y545826D02*
X1299232D01*
X1298174D01*
Y552174D01*
X1297116Y551116D01*
X677674Y743232D02*
X671326D01*
Y740058D01*
X672384Y739000D01*
X676616D01*
X677674Y740058D01*
Y743232D01*
X671326Y736884D02*
Y734768D01*
Y735826D01*
X677674D01*
X676616Y736884D01*
X1448768Y638116D02*
X1447710Y639174D01*
X1445594D01*
X1444536Y638116D01*
Y633884D01*
X1445594Y632826D01*
X1447710D01*
X1448768Y633884D01*
X1454058Y632826D02*
Y639174D01*
X1450884Y636000D01*
X1455116D01*
X1457232Y638116D02*
X1458290Y639174D01*
X1460406D01*
X1461464Y638116D01*
Y633884D01*
X1460406Y632826D01*
X1458290D01*
X1457232Y633884D01*
Y638116D01*
X1411768Y619116D02*
X1410710Y620174D01*
X1408594D01*
X1407536Y619116D01*
Y614884D01*
X1408594Y613826D01*
X1410710D01*
X1411768Y614884D01*
X1413884Y619116D02*
X1414942Y620174D01*
X1417058D01*
X1418116Y619116D01*
Y618058D01*
X1417058Y617000D01*
X1416000D01*
X1417058D01*
X1418116Y615942D01*
Y614884D01*
X1417058Y613826D01*
X1414942D01*
X1413884Y614884D01*
X1420232D02*
X1421290Y613826D01*
X1423406D01*
X1424464Y614884D01*
Y619116D01*
X1423406Y620174D01*
X1421290D01*
X1420232Y619116D01*
Y618058D01*
X1421290Y617000D01*
X1424464D01*
X1127768Y602116D02*
X1126710Y603174D01*
X1124594D01*
X1123536Y602116D01*
Y597884D01*
X1124594Y596826D01*
X1126710D01*
X1127768Y597884D01*
X1129884Y602116D02*
X1130942Y603174D01*
X1133058D01*
X1134116Y602116D01*
Y601058D01*
X1133058Y600000D01*
X1132000D01*
X1133058D01*
X1134116Y598942D01*
Y597884D01*
X1133058Y596826D01*
X1130942D01*
X1129884Y597884D01*
X1136232Y602116D02*
X1137290Y603174D01*
X1139406D01*
X1140464Y602116D01*
Y601058D01*
X1139406Y600000D01*
X1140464Y598942D01*
Y597884D01*
X1139406Y596826D01*
X1137290D01*
X1136232Y597884D01*
Y598942D01*
X1137290Y600000D01*
X1136232Y601058D01*
Y602116D01*
X1137290Y600000D02*
X1139406D01*
X1126768Y543116D02*
X1125710Y544174D01*
X1123594D01*
X1122536Y543116D01*
Y538884D01*
X1123594Y537826D01*
X1125710D01*
X1126768Y538884D01*
X1128884Y543116D02*
X1129942Y544174D01*
X1132058D01*
X1133116Y543116D01*
Y542058D01*
X1132058Y541000D01*
X1131000D01*
X1132058D01*
X1133116Y539942D01*
Y538884D01*
X1132058Y537826D01*
X1129942D01*
X1128884Y538884D01*
X1135232Y544174D02*
X1139464D01*
Y543116D01*
X1135232Y538884D01*
Y537826D01*
X513768Y635116D02*
X512710Y636174D01*
X510594D01*
X509536Y635116D01*
Y630884D01*
X510594Y629826D01*
X512710D01*
X513768Y630884D01*
X515884Y635116D02*
X516942Y636174D01*
X519058D01*
X520116Y635116D01*
Y634058D01*
X519058Y633000D01*
X518000D01*
X519058D01*
X520116Y631942D01*
Y630884D01*
X519058Y629826D01*
X516942D01*
X515884Y630884D01*
X526464Y636174D02*
X524348Y635116D01*
X522232Y633000D01*
Y630884D01*
X523290Y629826D01*
X525406D01*
X526464Y630884D01*
Y631942D01*
X525406Y633000D01*
X522232D01*
X652768Y577116D02*
X651710Y578174D01*
X649594D01*
X648536Y577116D01*
Y572884D01*
X649594Y571826D01*
X651710D01*
X652768Y572884D01*
X659116Y571826D02*
X654884D01*
X659116Y576058D01*
Y577116D01*
X658058Y578174D01*
X655942D01*
X654884Y577116D01*
X664406Y571826D02*
Y578174D01*
X661232Y575000D01*
X665464D01*
X578768Y577116D02*
X577710Y578174D01*
X575594D01*
X574536Y577116D01*
Y572884D01*
X575594Y571826D01*
X577710D01*
X578768Y572884D01*
X585116Y571826D02*
X580884D01*
X585116Y576058D01*
Y577116D01*
X584058Y578174D01*
X581942D01*
X580884Y577116D01*
X587232D02*
X588290Y578174D01*
X590406D01*
X591464Y577116D01*
Y576058D01*
X590406Y575000D01*
X589348D01*
X590406D01*
X591464Y573942D01*
Y572884D01*
X590406Y571826D01*
X588290D01*
X587232Y572884D01*
X884768Y668324D02*
X883710Y669381D01*
X881594D01*
X880536Y668324D01*
Y664091D01*
X881594Y663034D01*
X883710D01*
X884768Y664091D01*
X891116Y663034D02*
X886884D01*
X891116Y667265D01*
Y668324D01*
X890058Y669381D01*
X887942D01*
X886884Y668324D01*
X897464Y663034D02*
X893232D01*
X897464Y667265D01*
Y668324D01*
X896406Y669381D01*
X894290D01*
X893232Y668324D01*
X851826Y668116D02*
X850768Y669174D01*
X848652D01*
X847594Y668116D01*
Y663884D01*
X848652Y662826D01*
X850768D01*
X851826Y663884D01*
X858174Y662826D02*
X853942D01*
X858174Y667058D01*
Y668116D01*
X857116Y669174D01*
X855000D01*
X853942Y668116D01*
X860290Y662826D02*
X862406D01*
X861348D01*
Y669174D01*
X860290Y668116D01*
X795768Y668324D02*
X794710Y669381D01*
X792594D01*
X791536Y668324D01*
Y664091D01*
X792594Y663034D01*
X794710D01*
X795768Y664091D01*
X802116Y663034D02*
X797884D01*
X802116Y667265D01*
Y668324D01*
X801058Y669381D01*
X798942D01*
X797884Y668324D01*
X804232D02*
X805290Y669381D01*
X807406D01*
X808464Y668324D01*
Y664091D01*
X807406Y663034D01*
X805290D01*
X804232Y664091D01*
Y668324D01*
X761297D02*
X760239Y669381D01*
X758123D01*
X757065Y668324D01*
Y664091D01*
X758123Y663034D01*
X760239D01*
X761297Y664091D01*
X763413Y663034D02*
X765529D01*
X764471D01*
Y669381D01*
X763413Y668324D01*
X768703Y664091D02*
X769761Y663034D01*
X771877D01*
X772935Y664091D01*
Y668324D01*
X771877Y669381D01*
X769761D01*
X768703Y668324D01*
Y667265D01*
X769761Y666208D01*
X772935D01*
X1415755Y586073D02*
X1414697Y587132D01*
X1412581D01*
X1411523Y586073D01*
Y581842D01*
X1412581Y580784D01*
X1414697D01*
X1415755Y581842D01*
X1417870Y580784D02*
X1419987D01*
X1418929D01*
Y587132D01*
X1417870Y586073D01*
X1423161D02*
X1424218Y587132D01*
X1426334D01*
X1427392Y586073D01*
Y585015D01*
X1426334Y583957D01*
X1427392Y582900D01*
Y581842D01*
X1426334Y580784D01*
X1424218D01*
X1423161Y581842D01*
Y582900D01*
X1424218Y583957D01*
X1423161Y585015D01*
Y586073D01*
X1424218Y583957D02*
X1426334D01*
X1390755Y586073D02*
X1389697Y587132D01*
X1387581D01*
X1386523Y586073D01*
Y581842D01*
X1387581Y580784D01*
X1389697D01*
X1390755Y581842D01*
X1392870Y580784D02*
X1394987D01*
X1393929D01*
Y587132D01*
X1392870Y586073D01*
X1398160Y587132D02*
X1402392D01*
Y586073D01*
X1398160Y581842D01*
Y580784D01*
X1362297Y518531D02*
X1361239Y519589D01*
X1359123D01*
X1358065Y518531D01*
Y514299D01*
X1359123Y513241D01*
X1361239D01*
X1362297Y514299D01*
X1364413Y513241D02*
X1366529D01*
X1365471D01*
Y519589D01*
X1364413Y518531D01*
X1373935Y519589D02*
X1371819Y518531D01*
X1369703Y516415D01*
Y514299D01*
X1370761Y513241D01*
X1372877D01*
X1373935Y514299D01*
Y515357D01*
X1372877Y516415D01*
X1369703D01*
X1416297Y518531D02*
X1415239Y519589D01*
X1413123D01*
X1412065Y518531D01*
Y514299D01*
X1413123Y513241D01*
X1415239D01*
X1416297Y514299D01*
X1418413Y513241D02*
X1420529D01*
X1419471D01*
Y519589D01*
X1418413Y518531D01*
X1427935Y519589D02*
X1423703D01*
Y516415D01*
X1425819Y517473D01*
X1426877D01*
X1427935Y516415D01*
Y514299D01*
X1426877Y513241D01*
X1424761D01*
X1423703Y514299D01*
X1312297Y518531D02*
X1311239Y519589D01*
X1309123D01*
X1308065Y518531D01*
Y514299D01*
X1309123Y513241D01*
X1311239D01*
X1312297Y514299D01*
X1314413Y513241D02*
X1316529D01*
X1315471D01*
Y519589D01*
X1314413Y518531D01*
X1322877Y513241D02*
Y519589D01*
X1319703Y516415D01*
X1323935D01*
X1336297Y518531D02*
X1335239Y519589D01*
X1333123D01*
X1332065Y518531D01*
Y514299D01*
X1333123Y513241D01*
X1335239D01*
X1336297Y514299D01*
X1338413Y513241D02*
X1340529D01*
X1339471D01*
Y519589D01*
X1338413Y518531D01*
X1343703D02*
X1344761Y519589D01*
X1346877D01*
X1347935Y518531D01*
Y517473D01*
X1346877Y516415D01*
X1345819D01*
X1346877D01*
X1347935Y515357D01*
Y514299D01*
X1346877Y513241D01*
X1344761D01*
X1343703Y514299D01*
X1289297Y568116D02*
X1288239Y569174D01*
X1286123D01*
X1285065Y568116D01*
Y563884D01*
X1286123Y562826D01*
X1288239D01*
X1289297Y563884D01*
X1291413Y562826D02*
X1293529D01*
X1292471D01*
Y569174D01*
X1291413Y568116D01*
X1300935Y562826D02*
X1296703D01*
X1300935Y567058D01*
Y568116D01*
X1299877Y569174D01*
X1297761D01*
X1296703Y568116D01*
X1365813Y585574D02*
X1364755Y586631D01*
X1362639D01*
X1361581Y585574D01*
Y581342D01*
X1362639Y580284D01*
X1364755D01*
X1365813Y581342D01*
X1367929Y580284D02*
X1370045D01*
X1368987D01*
Y586631D01*
X1367929Y585574D01*
X1373219Y580284D02*
X1375334D01*
X1374276D01*
Y586631D01*
X1373219Y585574D01*
X1209000Y728116D02*
X1207942Y729174D01*
X1205826D01*
X1204768Y728116D01*
Y723884D01*
X1205826Y722826D01*
X1207942D01*
X1209000Y723884D01*
X1211116Y722826D02*
X1213232D01*
X1212174D01*
Y729174D01*
X1211116Y728116D01*
D15*
X1077100Y625000D02*
Y621614D01*
Y623307D01*
X1087257D01*
X1085564Y625000D01*
Y576000D02*
X1087257Y574307D01*
Y570922D01*
X1085564Y569229D01*
X1083871D01*
X1082178Y570922D01*
X1080486Y569229D01*
X1078793D01*
X1077100Y570922D01*
Y574307D01*
X1078793Y576000D01*
X1080486D01*
X1082178Y574307D01*
X1083871Y576000D01*
X1085564D01*
X1082178Y574307D02*
Y570922D01*
M02*
