G04*
G04 #@! TF.GenerationSoftware,Altium Limited,Altium Designer,21.0.9 (235)*
G04*
G04 Layer_Physical_Order=2*
G04 Layer_Color=16711833*
%FSLAX44Y44*%
%MOMM*%
G71*
G04*
G04 #@! TF.SameCoordinates,35DE941F-9A8C-42F3-B98C-DFFE3D48772F*
G04*
G04*
G04 #@! TF.FilePolarity,Positive*
G04*
G01*
G75*
%ADD12C,0.2540*%
%ADD14C,0.1270*%
%ADD102R,1.0000X1.0000*%
%ADD103C,1.0000*%
%ADD107C,0.4500*%
G36*
X815514Y511072D02*
X815561Y511066D01*
X815619Y511060D01*
X815684Y511049D01*
X815749Y511037D01*
X815901Y510996D01*
X816054Y510937D01*
X816130Y510902D01*
X816206Y510861D01*
X816276Y510808D01*
X816341Y510749D01*
X816347Y510743D01*
X816359Y510737D01*
X816370Y510714D01*
X816394Y510691D01*
X816423Y510661D01*
X816453Y510620D01*
X816482Y510579D01*
X816517Y510526D01*
X816576Y510415D01*
X816635Y510274D01*
X816658Y510204D01*
X816670Y510121D01*
X816681Y510039D01*
X816687Y509951D01*
Y509940D01*
Y509910D01*
X816681Y509863D01*
X816675Y509799D01*
X816664Y509728D01*
X816640Y509646D01*
X816617Y509558D01*
X816582Y509470D01*
X816576Y509458D01*
X816564Y509429D01*
X816541Y509382D01*
X816505Y509318D01*
X816458Y509247D01*
X816400Y509159D01*
X816329Y509071D01*
X816247Y508971D01*
X816236Y508960D01*
X816206Y508924D01*
X816177Y508895D01*
X816148Y508866D01*
X816112Y508831D01*
X816065Y508784D01*
X816018Y508737D01*
X815960Y508684D01*
X815901Y508625D01*
X815831Y508561D01*
X815754Y508496D01*
X815672Y508420D01*
X815578Y508344D01*
X815484Y508261D01*
X815479Y508256D01*
X815467Y508244D01*
X815443Y508226D01*
X815414Y508203D01*
X815379Y508168D01*
X815338Y508132D01*
X815244Y508056D01*
X815144Y507968D01*
X815050Y507880D01*
X814968Y507804D01*
X814933Y507775D01*
X814904Y507745D01*
X814898Y507739D01*
X814880Y507722D01*
X814857Y507698D01*
X814827Y507663D01*
X814798Y507622D01*
X814763Y507581D01*
X814692Y507481D01*
X816693D01*
Y507000D01*
X814000D01*
Y507006D01*
Y507029D01*
Y507065D01*
X814006Y507112D01*
X814012Y507164D01*
X814024Y507223D01*
X814035Y507282D01*
X814059Y507346D01*
Y507352D01*
X814064Y507358D01*
X814076Y507393D01*
X814100Y507446D01*
X814135Y507516D01*
X814182Y507598D01*
X814241Y507692D01*
X814305Y507786D01*
X814387Y507886D01*
Y507892D01*
X814399Y507898D01*
X814428Y507933D01*
X814481Y507986D01*
X814557Y508062D01*
X814645Y508150D01*
X814757Y508256D01*
X814892Y508373D01*
X815039Y508496D01*
X815044Y508502D01*
X815068Y508520D01*
X815103Y508549D01*
X815144Y508584D01*
X815197Y508631D01*
X815262Y508684D01*
X815326Y508743D01*
X815402Y508807D01*
X815549Y508948D01*
X815696Y509089D01*
X815766Y509159D01*
X815831Y509230D01*
X815889Y509294D01*
X815936Y509359D01*
Y509365D01*
X815948Y509370D01*
X815960Y509388D01*
X815971Y509412D01*
X816012Y509476D01*
X816059Y509552D01*
X816100Y509646D01*
X816142Y509746D01*
X816165Y509857D01*
X816177Y509963D01*
Y509969D01*
Y509975D01*
X816171Y510010D01*
X816165Y510069D01*
X816148Y510133D01*
X816124Y510215D01*
X816083Y510298D01*
X816030Y510380D01*
X815960Y510462D01*
X815948Y510474D01*
X815919Y510497D01*
X815878Y510526D01*
X815813Y510567D01*
X815731Y510603D01*
X815637Y510638D01*
X815526Y510661D01*
X815402Y510667D01*
X815367D01*
X815344Y510661D01*
X815273Y510655D01*
X815191Y510638D01*
X815103Y510614D01*
X815003Y510573D01*
X814909Y510520D01*
X814821Y510450D01*
X814810Y510438D01*
X814786Y510409D01*
X814751Y510362D01*
X814716Y510292D01*
X814675Y510210D01*
X814640Y510104D01*
X814616Y509986D01*
X814604Y509852D01*
X814094Y509904D01*
Y509910D01*
X814100Y509928D01*
Y509957D01*
X814106Y509998D01*
X814117Y510045D01*
X814129Y510098D01*
X814147Y510163D01*
X814164Y510227D01*
X814211Y510368D01*
X814282Y510509D01*
X814323Y510579D01*
X814376Y510649D01*
X814428Y510714D01*
X814487Y510773D01*
X814493Y510779D01*
X814505Y510784D01*
X814522Y510802D01*
X814551Y510820D01*
X814587Y510843D01*
X814628Y510867D01*
X814675Y510896D01*
X814733Y510925D01*
X814798Y510955D01*
X814868Y510984D01*
X814945Y511007D01*
X815027Y511031D01*
X815115Y511049D01*
X815209Y511066D01*
X815308Y511072D01*
X815414Y511078D01*
X815473D01*
X815514Y511072D01*
D02*
G37*
G36*
X1483514Y743072D02*
X1483561Y743066D01*
X1483619Y743060D01*
X1483684Y743048D01*
X1483748Y743037D01*
X1483901Y742996D01*
X1484054Y742937D01*
X1484130Y742902D01*
X1484206Y742861D01*
X1484276Y742808D01*
X1484341Y742749D01*
X1484347Y742743D01*
X1484359Y742738D01*
X1484370Y742714D01*
X1484394Y742691D01*
X1484423Y742661D01*
X1484453Y742620D01*
X1484482Y742579D01*
X1484517Y742526D01*
X1484576Y742415D01*
X1484634Y742274D01*
X1484658Y742204D01*
X1484670Y742122D01*
X1484681Y742039D01*
X1484687Y741951D01*
Y741940D01*
Y741910D01*
X1484681Y741863D01*
X1484675Y741799D01*
X1484664Y741728D01*
X1484640Y741646D01*
X1484617Y741558D01*
X1484582Y741470D01*
X1484576Y741458D01*
X1484564Y741429D01*
X1484541Y741382D01*
X1484505Y741318D01*
X1484458Y741247D01*
X1484400Y741159D01*
X1484329Y741071D01*
X1484247Y740971D01*
X1484236Y740960D01*
X1484206Y740925D01*
X1484177Y740895D01*
X1484147Y740866D01*
X1484112Y740831D01*
X1484065Y740784D01*
X1484018Y740737D01*
X1483960Y740684D01*
X1483901Y740625D01*
X1483831Y740561D01*
X1483754Y740496D01*
X1483672Y740420D01*
X1483578Y740344D01*
X1483484Y740262D01*
X1483479Y740256D01*
X1483467Y740244D01*
X1483443Y740226D01*
X1483414Y740203D01*
X1483379Y740168D01*
X1483338Y740132D01*
X1483244Y740056D01*
X1483144Y739968D01*
X1483050Y739880D01*
X1482968Y739804D01*
X1482933Y739774D01*
X1482904Y739745D01*
X1482898Y739739D01*
X1482880Y739722D01*
X1482857Y739698D01*
X1482827Y739663D01*
X1482798Y739622D01*
X1482763Y739581D01*
X1482692Y739481D01*
X1484693D01*
Y739000D01*
X1482000D01*
Y739006D01*
Y739029D01*
Y739064D01*
X1482006Y739111D01*
X1482012Y739164D01*
X1482023Y739223D01*
X1482035Y739282D01*
X1482059Y739346D01*
Y739352D01*
X1482065Y739358D01*
X1482076Y739393D01*
X1482100Y739446D01*
X1482135Y739516D01*
X1482182Y739598D01*
X1482240Y739692D01*
X1482305Y739786D01*
X1482387Y739886D01*
Y739892D01*
X1482399Y739898D01*
X1482428Y739933D01*
X1482481Y739986D01*
X1482557Y740062D01*
X1482645Y740150D01*
X1482757Y740256D01*
X1482892Y740373D01*
X1483038Y740496D01*
X1483044Y740502D01*
X1483068Y740520D01*
X1483103Y740549D01*
X1483144Y740584D01*
X1483197Y740631D01*
X1483262Y740684D01*
X1483326Y740743D01*
X1483402Y740807D01*
X1483549Y740948D01*
X1483696Y741089D01*
X1483766Y741159D01*
X1483831Y741230D01*
X1483889Y741294D01*
X1483936Y741359D01*
Y741365D01*
X1483948Y741370D01*
X1483960Y741388D01*
X1483971Y741412D01*
X1484012Y741476D01*
X1484059Y741552D01*
X1484100Y741646D01*
X1484142Y741746D01*
X1484165Y741857D01*
X1484177Y741963D01*
Y741969D01*
Y741975D01*
X1484171Y742010D01*
X1484165Y742069D01*
X1484147Y742133D01*
X1484124Y742215D01*
X1484083Y742298D01*
X1484030Y742380D01*
X1483960Y742462D01*
X1483948Y742474D01*
X1483919Y742497D01*
X1483878Y742526D01*
X1483813Y742567D01*
X1483731Y742603D01*
X1483637Y742638D01*
X1483526Y742661D01*
X1483402Y742667D01*
X1483367D01*
X1483344Y742661D01*
X1483273Y742655D01*
X1483191Y742638D01*
X1483103Y742614D01*
X1483003Y742573D01*
X1482909Y742520D01*
X1482821Y742450D01*
X1482810Y742438D01*
X1482786Y742409D01*
X1482751Y742362D01*
X1482716Y742292D01*
X1482675Y742209D01*
X1482639Y742104D01*
X1482616Y741986D01*
X1482604Y741852D01*
X1482094Y741904D01*
Y741910D01*
X1482100Y741928D01*
Y741957D01*
X1482106Y741998D01*
X1482117Y742045D01*
X1482129Y742098D01*
X1482147Y742162D01*
X1482164Y742227D01*
X1482211Y742368D01*
X1482282Y742509D01*
X1482323Y742579D01*
X1482375Y742650D01*
X1482428Y742714D01*
X1482487Y742773D01*
X1482493Y742779D01*
X1482505Y742785D01*
X1482522Y742802D01*
X1482552Y742820D01*
X1482587Y742843D01*
X1482628Y742867D01*
X1482675Y742896D01*
X1482733Y742925D01*
X1482798Y742955D01*
X1482868Y742984D01*
X1482945Y743007D01*
X1483027Y743031D01*
X1483115Y743048D01*
X1483209Y743066D01*
X1483308Y743072D01*
X1483414Y743078D01*
X1483473D01*
X1483514Y743072D01*
D02*
G37*
D12*
X688743Y639885D02*
G03*
X688813Y640475I-2471J590D01*
G01*
X1334691Y646309D02*
X1371567D01*
X1328190Y652810D02*
X1334691Y646309D01*
X1328190Y652810D02*
Y658810D01*
X1307000Y680000D02*
X1328190Y658810D01*
X688579Y639198D02*
X688743Y639885D01*
X688813Y640475D02*
Y644341D01*
X691000Y646529D02*
Y668000D01*
X688813Y644341D02*
X691000Y646529D01*
X740810Y717810D02*
X753000Y730000D01*
X611422Y717810D02*
X740810D01*
X571415Y677803D02*
X611422Y717810D01*
X575225Y676225D02*
X613000Y714000D01*
X580380Y649620D02*
Y675992D01*
X614578Y710190D01*
X571415Y633545D02*
Y677803D01*
X613000Y714000D02*
X748000D01*
X614578Y710190D02*
X749578D01*
X575225Y637741D02*
Y676225D01*
X571415Y633545D02*
X583257Y621703D01*
X586065D01*
X586440Y621328D01*
X582867Y630133D02*
X584731Y628269D01*
X585261D01*
X749578Y710190D02*
X772658Y733270D01*
X748000Y714000D02*
X779270Y745270D01*
X817355D01*
X823700Y737000D02*
Y738924D01*
X807270Y733270D02*
X811000Y737000D01*
X817355Y745270D02*
X823700Y738924D01*
X772658Y733270D02*
X807270D01*
X575225Y637741D02*
X582833Y630133D01*
X582867D01*
X580380Y649620D02*
X580910Y649090D01*
Y647710D02*
Y649090D01*
Y647710D02*
X581285Y647335D01*
X662019Y696981D02*
X691000Y668000D01*
X632000Y696981D02*
X662019D01*
X625303Y690284D02*
X632000Y696981D01*
X1301940Y721940D02*
X1302000Y722000D01*
X1295940Y721940D02*
X1301940D01*
X1292000Y718000D02*
X1295940Y721940D01*
X1292000Y695000D02*
Y718000D01*
Y695000D02*
X1307000Y680000D01*
X1111801Y562940D02*
X1133940D01*
X1141000Y570000D01*
D14*
X818000Y504000D02*
X823000D01*
X813000D02*
Y514000D01*
X818000Y504500D02*
Y507000D01*
Y513500D01*
X809744Y504000D02*
X813000D01*
X809000Y504744D02*
X809744Y504000D01*
X813000Y514000D02*
X818000D01*
X823000D01*
X809000Y513256D02*
X809744Y514000D01*
X813000Y504000D02*
X818000D01*
X809000Y504744D02*
Y513256D01*
X809744Y514000D02*
X813000D01*
X823000Y504000D02*
Y514000D01*
X828000Y504744D02*
Y513256D01*
X827256Y514000D02*
X828000Y513256D01*
X827256Y504000D02*
X828000Y504744D01*
X823000Y504000D02*
X827256D01*
X823000Y514000D02*
X827256D01*
X1491000Y746000D02*
X1495256D01*
X1491000Y736000D02*
X1495256D01*
X1496000Y736744D01*
X1495256Y746000D02*
X1496000Y745256D01*
Y736744D02*
Y745256D01*
X1491000Y736000D02*
Y746000D01*
X1477744D02*
X1481000D01*
X1477000Y736744D02*
Y745256D01*
X1481000Y736000D02*
X1486000D01*
X1477000Y745256D02*
X1477744Y746000D01*
X1486000D02*
X1491000D01*
X1481000D02*
X1486000D01*
X1477000Y736744D02*
X1477744Y736000D01*
X1481000D01*
X1486000Y739000D02*
Y745500D01*
Y736500D02*
Y739000D01*
X1481000Y736000D02*
Y746000D01*
X1486000Y736000D02*
X1491000D01*
X682000Y623072D02*
Y664000D01*
X684192Y620006D02*
Y620880D01*
X682000Y623072D02*
X684192Y620880D01*
X664000Y682000D02*
X682000Y664000D01*
X668000Y671000D02*
X676000Y663000D01*
Y610000D02*
Y663000D01*
Y610000D02*
X692573Y593427D01*
X659000Y671000D02*
X668000D01*
X555300Y713700D02*
X574665Y694335D01*
X555300Y713700D02*
Y734000D01*
X695650Y540450D02*
X701450D01*
X671200Y516000D02*
X695650Y540450D01*
X701450D02*
X724000Y563000D01*
Y568185D01*
X698757Y593427D02*
X724000Y568185D01*
X692573Y593427D02*
X698757D01*
X709905Y573734D02*
X711425Y572214D01*
X709905Y573734D02*
Y574608D01*
X711425Y565425D02*
Y572214D01*
X658800Y529000D02*
X675000D01*
X711425Y565425D01*
X645800Y516000D02*
X658800Y529000D01*
X1120000Y603000D02*
X1146000D01*
X1113853Y549207D02*
X1114000Y549060D01*
X1113853Y549207D02*
Y553215D01*
X1106376Y589376D02*
X1120000Y603000D01*
X1106376Y560693D02*
Y589376D01*
Y560693D02*
X1113853Y553215D01*
X1095000Y516000D02*
X1122000Y543000D01*
X1144429D01*
X1173835Y542377D02*
X1185850Y554391D01*
X1183900Y516000D02*
X1190000Y522100D01*
X1183369Y590039D02*
X1185850Y587558D01*
X1190000Y522100D02*
Y587000D01*
X1185850Y554391D02*
Y587558D01*
X1176729Y600271D02*
X1190000Y587000D01*
X1169575Y580753D02*
Y584720D01*
Y580753D02*
X1172132Y578195D01*
X1175000Y561408D02*
Y583000D01*
X1175100Y590039D02*
X1183369D01*
X1172132Y562132D02*
Y578195D01*
X1143950Y533950D02*
X1172132Y562132D01*
X1160900Y547308D02*
X1175000Y561408D01*
X1164250Y590045D02*
X1169575Y584720D01*
X1144429Y543000D02*
X1164914Y563485D01*
X1196600Y545365D02*
Y564400D01*
X1195753Y545365D02*
X1196600D01*
X1192575Y542187D02*
X1195753Y545365D01*
X1192575Y537693D02*
Y542187D01*
Y537693D02*
X1195753Y534515D01*
X1196600D01*
Y516000D02*
Y534515D01*
X1176729Y600271D02*
Y605174D01*
X1166377Y542377D02*
X1173835D01*
X1158500Y534500D02*
X1166377Y542377D01*
X1158500Y516000D02*
Y534500D01*
X1145800Y526800D02*
X1160900Y541900D01*
Y547308D01*
X1145800Y516000D02*
Y526800D01*
X1107700Y516000D02*
X1125650Y533950D01*
X1143950D01*
D102*
X811000Y737000D02*
D03*
X1095000Y516000D02*
D03*
D103*
X823700Y737000D02*
D03*
X645800Y516000D02*
D03*
X671200D02*
D03*
X1107700D02*
D03*
X1145800D02*
D03*
X1158500D02*
D03*
X1183900D02*
D03*
X1196600D02*
D03*
X555300Y734000D02*
D03*
D107*
X675001Y682501D02*
D03*
X671251Y690001D02*
D03*
X660001Y697501D02*
D03*
X1371567Y646309D02*
D03*
X684192Y620006D02*
D03*
X688579Y639198D02*
D03*
X664000Y682000D02*
D03*
X659000Y671000D02*
D03*
X574665Y694335D02*
D03*
X709905Y574608D02*
D03*
X753000Y730000D02*
D03*
X586440Y621328D02*
D03*
X585261Y628269D02*
D03*
X581285Y647335D02*
D03*
X625303Y690284D02*
D03*
X1307000Y680000D02*
D03*
X1302000Y722000D02*
D03*
X1146000Y603000D02*
D03*
X1114000Y549060D02*
D03*
X1175000Y583000D02*
D03*
X1175100Y590039D02*
D03*
X1164914Y563485D02*
D03*
X1196600Y564400D02*
D03*
X1111801Y562940D02*
D03*
X1141000Y570000D02*
D03*
X1164250Y590045D02*
D03*
X1176729Y605174D02*
D03*
M02*
