G04*
G04 #@! TF.GenerationSoftware,Altium Limited,Altium Designer,21.0.9 (235)*
G04*
G04 Layer_Color=2752767*
%FSLAX44Y44*%
%MOMM*%
G71*
G04*
G04 #@! TF.SameCoordinates,35DE941F-9A8C-42F3-B98C-DFFE3D48772F*
G04*
G04*
G04 #@! TF.FilePolarity,Positive*
G04*
G01*
G75*
%ADD130C,0.0508*%
%ADD131C,0.0677*%
D130*
X785968Y527968D02*
Y532032D01*
X790032D01*
Y527968D01*
X785968D01*
Y567968D02*
Y572032D01*
X790032D01*
Y567968D01*
X785968D01*
X950000Y517968D02*
X947968Y522032D01*
X952032D01*
X950000Y517968D01*
X962700D02*
X960668Y522032D01*
X964732D01*
X962700Y517968D01*
X836400Y734968D02*
X834368Y739032D01*
X838432D01*
X836400Y734968D01*
X823700D02*
X821668Y739032D01*
X825732D01*
X823700Y734968D01*
X811000D02*
X808968Y739032D01*
X813032D01*
X811000Y734968D01*
X744000Y638968D02*
X741968Y643032D01*
X746032D01*
X744000Y638968D01*
X756700D02*
X754668Y643032D01*
X758732D01*
X756700Y638968D01*
X595000Y513968D02*
X592968Y518032D01*
X597032D01*
X595000Y513968D01*
X607700D02*
X605668Y518032D01*
X609732D01*
X607700Y513968D01*
X620400D02*
X618368Y518032D01*
X622432D01*
X620400Y513968D01*
X633100D02*
X631068Y518032D01*
X635132D01*
X633100Y513968D01*
X645800D02*
X643768Y518032D01*
X647832D01*
X645800Y513968D01*
X658500D02*
X656468Y518032D01*
X660532D01*
X658500Y513968D01*
X671200D02*
X669168Y518032D01*
X673232D01*
X671200Y513968D01*
X683900D02*
X681868Y518032D01*
X685932D01*
X683900Y513968D01*
X696600D02*
X694568Y518032D01*
X698632D01*
X696600Y513968D01*
X1095000D02*
X1092968Y518032D01*
X1097032D01*
X1095000Y513968D01*
X1107700D02*
X1105668Y518032D01*
X1109732D01*
X1107700Y513968D01*
X1120400D02*
X1118368Y518032D01*
X1122432D01*
X1120400Y513968D01*
X1133100D02*
X1131068Y518032D01*
X1135132D01*
X1133100Y513968D01*
X1145800D02*
X1143768Y518032D01*
X1147832D01*
X1145800Y513968D01*
X1158500D02*
X1156468Y518032D01*
X1160532D01*
X1158500Y513968D01*
X1171200D02*
X1169168Y518032D01*
X1173232D01*
X1171200Y513968D01*
X1183900D02*
X1181868Y518032D01*
X1185932D01*
X1183900Y513968D01*
X1196600D02*
X1194568Y518032D01*
X1198632D01*
X1196600Y513968D01*
X1342400Y734968D02*
X1340368Y739032D01*
X1344432D01*
X1342400Y734968D01*
X1329700D02*
X1327668Y739032D01*
X1331732D01*
X1329700Y734968D01*
X1317000D02*
X1314968Y739032D01*
X1319032D01*
X1317000Y734968D01*
X1450000Y517968D02*
X1447968Y522032D01*
X1452032D01*
X1450000Y517968D01*
X1462700D02*
X1460668Y522032D01*
X1464732D01*
X1462700Y517968D01*
X1244000Y638968D02*
X1241968Y643032D01*
X1246032D01*
X1244000Y638968D01*
X1256700D02*
X1254668Y643032D01*
X1258732D01*
X1256700Y638968D01*
X1278000Y539468D02*
X1279016Y540484D01*
X1280032D01*
X1279016Y541500D01*
X1280032Y542516D01*
X1279016D01*
X1278000Y543532D01*
X1276984Y542516D01*
X1275968D01*
X1276984Y541500D01*
X1275968Y540484D01*
X1276984D01*
X1278000Y539468D01*
X1228000Y539468D02*
X1229016Y540484D01*
X1230032D01*
X1229016Y541500D01*
X1230032Y542516D01*
X1229016D01*
X1228000Y543532D01*
X1226984Y542516D01*
X1225968D01*
X1226984Y541500D01*
X1225968Y540484D01*
X1226984D01*
X1228000Y539468D01*
X1285968Y512468D02*
X1286984Y514500D01*
X1285968Y516532D01*
X1288000Y515516D01*
X1290032Y516532D01*
X1289016Y514500D01*
X1290032Y512468D01*
X1288000Y513484D01*
X1285968Y512468D01*
X1215968D02*
X1216984Y514500D01*
X1215968Y516532D01*
X1218000Y515516D01*
X1220032Y516532D01*
X1219016Y514500D01*
X1220032Y512468D01*
X1218000Y513484D01*
X1215968Y512468D01*
X580700Y731968D02*
X578668Y736032D01*
X582732D01*
X580700Y731968D01*
X568000D02*
X565968Y736032D01*
X570032D01*
X568000Y731968D01*
X555300D02*
X553268Y736032D01*
X557332D01*
X555300Y731968D01*
X542600D02*
X540568Y736032D01*
X544632D01*
X542600Y731968D01*
X529900D02*
X527868Y736032D01*
X531932D01*
X529900Y731968D01*
X992735Y613985D02*
Y612969D01*
X994767D01*
Y613985D01*
X995783D01*
Y616017D01*
X994767D01*
Y617033D01*
X992735D01*
Y616017D01*
X991719D01*
Y613985D01*
X992735D01*
X988985Y606485D02*
Y605469D01*
X991017D01*
Y606485D01*
X992033D01*
Y608517D01*
X991017D01*
Y609533D01*
X988985D01*
Y608517D01*
X987969D01*
Y606485D01*
X988985D01*
X992735Y598985D02*
Y597969D01*
X994767D01*
Y598985D01*
X995783D01*
Y601017D01*
X994767D01*
Y602033D01*
X992735D01*
Y601017D01*
X991719D01*
Y598985D01*
X992735D01*
X988985Y591485D02*
Y590469D01*
X991017D01*
Y591485D01*
X992033D01*
Y593517D01*
X991017D01*
Y594533D01*
X988985D01*
Y593517D01*
X987969D01*
Y591485D01*
X988985D01*
X992735Y583985D02*
Y582969D01*
X994767D01*
Y583985D01*
X995783D01*
Y586017D01*
X994767D01*
Y587033D01*
X992735D01*
Y586017D01*
X991719D01*
Y583985D01*
X992735D01*
X988985Y576485D02*
Y575469D01*
X991017D01*
Y576485D01*
X992033D01*
Y578517D01*
X991017D01*
Y579533D01*
X988985D01*
Y578517D01*
X987969D01*
Y576485D01*
X988985D01*
X992735Y568985D02*
Y567969D01*
X994767D01*
Y568985D01*
X995783D01*
Y571017D01*
X994767D01*
Y572033D01*
X992735D01*
Y571017D01*
X991719D01*
Y568985D01*
X992735D01*
X988985Y561485D02*
Y560469D01*
X991017D01*
Y561485D01*
X992033D01*
Y563517D01*
X991017D01*
Y564533D01*
X988985D01*
Y563517D01*
X987969D01*
Y561485D01*
X988985D01*
X992735Y553985D02*
Y552969D01*
X994767D01*
Y553985D01*
X995783D01*
Y556017D01*
X994767D01*
Y557033D01*
X992735D01*
Y556017D01*
X991719D01*
Y553985D01*
X992735D01*
X988985Y546485D02*
Y545469D01*
X991017D01*
Y546485D01*
X992033D01*
Y548517D01*
X991017D01*
Y549533D01*
X988985D01*
Y548517D01*
X987969D01*
Y546485D01*
X988985D01*
X992735Y538985D02*
Y537969D01*
X994767D01*
Y538985D01*
X995783D01*
Y541017D01*
X994767D01*
Y542033D01*
X992735D01*
Y541017D01*
X991719D01*
Y538985D01*
X992735D01*
X988985Y531485D02*
Y530469D01*
X991017D01*
Y531485D01*
X992033D01*
Y533517D01*
X991017D01*
Y534533D01*
X988985D01*
Y533517D01*
X987969D01*
Y531485D01*
X988985D01*
X992735Y523985D02*
Y522969D01*
X994767D01*
Y523985D01*
X995783D01*
Y526017D01*
X994767D01*
Y527033D01*
X992735D01*
Y526017D01*
X991719D01*
Y523985D01*
X992735D01*
X988985Y516485D02*
Y515469D01*
X991017D01*
Y516485D01*
X992033D01*
Y518517D01*
X991017D01*
Y519533D01*
X988985D01*
Y518517D01*
X987969D01*
Y516485D01*
X988985D01*
X992735Y508985D02*
Y507969D01*
X994767D01*
Y508985D01*
X995783D01*
Y511017D01*
X994767D01*
Y512033D01*
X992735D01*
Y511017D01*
X991719D01*
Y508985D01*
X992735D01*
X985235Y613985D02*
Y612969D01*
X987267D01*
Y613985D01*
X988283D01*
Y616017D01*
X987267D01*
Y617033D01*
X985235D01*
Y616017D01*
X984219D01*
Y613985D01*
X985235D01*
X981485Y606485D02*
Y605469D01*
X983517D01*
Y606485D01*
X984533D01*
Y608517D01*
X983517D01*
Y609533D01*
X981485D01*
Y608517D01*
X980469D01*
Y606485D01*
X981485D01*
X985235Y598985D02*
Y597969D01*
X987267D01*
Y598985D01*
X988283D01*
Y601017D01*
X987267D01*
Y602033D01*
X985235D01*
Y601017D01*
X984219D01*
Y598985D01*
X985235D01*
X981485Y591485D02*
Y590469D01*
X983517D01*
Y591485D01*
X984533D01*
Y593517D01*
X983517D01*
Y594533D01*
X981485D01*
Y593517D01*
X980469D01*
Y591485D01*
X981485D01*
X985235Y583985D02*
Y582969D01*
X987267D01*
Y583985D01*
X988283D01*
Y586017D01*
X987267D01*
Y587033D01*
X985235D01*
Y586017D01*
X984219D01*
Y583985D01*
X985235D01*
X981485Y576485D02*
Y575469D01*
X983517D01*
Y576485D01*
X984533D01*
Y578517D01*
X983517D01*
Y579533D01*
X981485D01*
Y578517D01*
X980469D01*
Y576485D01*
X981485D01*
X985235Y568985D02*
Y567969D01*
X987267D01*
Y568985D01*
X988283D01*
Y571017D01*
X987267D01*
Y572033D01*
X985235D01*
Y571017D01*
X984219D01*
Y568985D01*
X985235D01*
X981485Y561485D02*
Y560469D01*
X983517D01*
Y561485D01*
X984533D01*
Y563517D01*
X983517D01*
Y564533D01*
X981485D01*
Y563517D01*
X980469D01*
Y561485D01*
X981485D01*
X985235Y553985D02*
Y552969D01*
X987267D01*
Y553985D01*
X988283D01*
Y556017D01*
X987267D01*
Y557033D01*
X985235D01*
Y556017D01*
X984219D01*
Y553985D01*
X985235D01*
X981485Y546485D02*
Y545469D01*
X983517D01*
Y546485D01*
X984533D01*
Y548517D01*
X983517D01*
Y549533D01*
X981485D01*
Y548517D01*
X980469D01*
Y546485D01*
X981485D01*
X985235Y538985D02*
Y537969D01*
X987267D01*
Y538985D01*
X988283D01*
Y541017D01*
X987267D01*
Y542033D01*
X985235D01*
Y541017D01*
X984219D01*
Y538985D01*
X985235D01*
X981485Y531485D02*
Y530469D01*
X983517D01*
Y531485D01*
X984533D01*
Y533517D01*
X983517D01*
Y534533D01*
X981485D01*
Y533517D01*
X980469D01*
Y531485D01*
X981485D01*
X985235Y523985D02*
Y522969D01*
X987267D01*
Y523985D01*
X988283D01*
Y526017D01*
X987267D01*
Y527033D01*
X985235D01*
Y526017D01*
X984219D01*
Y523985D01*
X985235D01*
X981485Y516485D02*
Y515469D01*
X983517D01*
Y516485D01*
X984533D01*
Y518517D01*
X983517D01*
Y519533D01*
X981485D01*
Y518517D01*
X980469D01*
Y516485D01*
X981485D01*
X985235Y508985D02*
Y507969D01*
X987267D01*
Y508985D01*
X988283D01*
Y511017D01*
X987267D01*
Y512033D01*
X985235D01*
Y511017D01*
X984219D01*
Y508985D01*
X985235D01*
X977735Y613985D02*
Y612969D01*
X979767D01*
Y613985D01*
X980783D01*
Y616017D01*
X979767D01*
Y617033D01*
X977735D01*
Y616017D01*
X976719D01*
Y613985D01*
X977735D01*
X973985Y606485D02*
Y605469D01*
X976017D01*
Y606485D01*
X977033D01*
Y608517D01*
X976017D01*
Y609533D01*
X973985D01*
Y608517D01*
X972969D01*
Y606485D01*
X973985D01*
X977735Y598985D02*
Y597969D01*
X979767D01*
Y598985D01*
X980783D01*
Y601017D01*
X979767D01*
Y602033D01*
X977735D01*
Y601017D01*
X976719D01*
Y598985D01*
X977735D01*
X973985Y591485D02*
Y590469D01*
X976017D01*
Y591485D01*
X977033D01*
Y593517D01*
X976017D01*
Y594533D01*
X973985D01*
Y593517D01*
X972969D01*
Y591485D01*
X973985D01*
X977735Y583985D02*
Y582969D01*
X979767D01*
Y583985D01*
X980783D01*
Y586017D01*
X979767D01*
Y587033D01*
X977735D01*
Y586017D01*
X976719D01*
Y583985D01*
X977735D01*
X973985Y576485D02*
Y575469D01*
X976017D01*
Y576485D01*
X977033D01*
Y578517D01*
X976017D01*
Y579533D01*
X973985D01*
Y578517D01*
X972969D01*
Y576485D01*
X973985D01*
X977735Y568985D02*
Y567969D01*
X979767D01*
Y568985D01*
X980783D01*
Y571017D01*
X979767D01*
Y572033D01*
X977735D01*
Y571017D01*
X976719D01*
Y568985D01*
X977735D01*
X973985Y561485D02*
Y560469D01*
X976017D01*
Y561485D01*
X977033D01*
Y563517D01*
X976017D01*
Y564533D01*
X973985D01*
Y563517D01*
X972969D01*
Y561485D01*
X973985D01*
X977735Y553985D02*
Y552969D01*
X979767D01*
Y553985D01*
X980783D01*
Y556017D01*
X979767D01*
Y557033D01*
X977735D01*
Y556017D01*
X976719D01*
Y553985D01*
X977735D01*
X973985Y546485D02*
Y545469D01*
X976017D01*
Y546485D01*
X977033D01*
Y548517D01*
X976017D01*
Y549533D01*
X973985D01*
Y548517D01*
X972969D01*
Y546485D01*
X973985D01*
X977735Y538985D02*
Y537969D01*
X979767D01*
Y538985D01*
X980783D01*
Y541017D01*
X979767D01*
Y542033D01*
X977735D01*
Y541017D01*
X976719D01*
Y538985D01*
X977735D01*
X973985Y531485D02*
Y530469D01*
X976017D01*
Y531485D01*
X977033D01*
Y533517D01*
X976017D01*
Y534533D01*
X973985D01*
Y533517D01*
X972969D01*
Y531485D01*
X973985D01*
X977735Y523985D02*
Y522969D01*
X979767D01*
Y523985D01*
X980783D01*
Y526017D01*
X979767D01*
Y527033D01*
X977735D01*
Y526017D01*
X976719D01*
Y523985D01*
X977735D01*
X973985Y516485D02*
Y515469D01*
X976017D01*
Y516485D01*
X977033D01*
Y518517D01*
X976017D01*
Y519533D01*
X973985D01*
Y518517D01*
X972969D01*
Y516485D01*
X973985D01*
X977735Y508985D02*
Y507969D01*
X979767D01*
Y508985D01*
X980783D01*
Y511017D01*
X979767D01*
Y512033D01*
X977735D01*
Y511017D01*
X976719D01*
Y508985D01*
X977735D01*
X970235Y613985D02*
Y612969D01*
X972267D01*
Y613985D01*
X973283D01*
Y616017D01*
X972267D01*
Y617033D01*
X970235D01*
Y616017D01*
X969219D01*
Y613985D01*
X970235D01*
X966485Y606485D02*
Y605469D01*
X968517D01*
Y606485D01*
X969533D01*
Y608517D01*
X968517D01*
Y609533D01*
X966485D01*
Y608517D01*
X965469D01*
Y606485D01*
X966485D01*
X970235Y598985D02*
Y597969D01*
X972267D01*
Y598985D01*
X973283D01*
Y601017D01*
X972267D01*
Y602033D01*
X970235D01*
Y601017D01*
X969219D01*
Y598985D01*
X970235D01*
X966485Y591485D02*
Y590469D01*
X968517D01*
Y591485D01*
X969533D01*
Y593517D01*
X968517D01*
Y594533D01*
X966485D01*
Y593517D01*
X965469D01*
Y591485D01*
X966485D01*
X970235Y583985D02*
Y582969D01*
X972267D01*
Y583985D01*
X973283D01*
Y586017D01*
X972267D01*
Y587033D01*
X970235D01*
Y586017D01*
X969219D01*
Y583985D01*
X970235D01*
X966485Y576485D02*
Y575469D01*
X968517D01*
Y576485D01*
X969533D01*
Y578517D01*
X968517D01*
Y579533D01*
X966485D01*
Y578517D01*
X965469D01*
Y576485D01*
X966485D01*
X970235Y568985D02*
Y567969D01*
X972267D01*
Y568985D01*
X973283D01*
Y571017D01*
X972267D01*
Y572033D01*
X970235D01*
Y571017D01*
X969219D01*
Y568985D01*
X970235D01*
X966485Y561485D02*
Y560469D01*
X968517D01*
Y561485D01*
X969533D01*
Y563517D01*
X968517D01*
Y564533D01*
X966485D01*
Y563517D01*
X965469D01*
Y561485D01*
X966485D01*
X970235Y553985D02*
Y552969D01*
X972267D01*
Y553985D01*
X973283D01*
Y556017D01*
X972267D01*
Y557033D01*
X970235D01*
Y556017D01*
X969219D01*
Y553985D01*
X970235D01*
X966485Y546485D02*
Y545469D01*
X968517D01*
Y546485D01*
X969533D01*
Y548517D01*
X968517D01*
Y549533D01*
X966485D01*
Y548517D01*
X965469D01*
Y546485D01*
X966485D01*
X970235Y538985D02*
Y537969D01*
X972267D01*
Y538985D01*
X973283D01*
Y541017D01*
X972267D01*
Y542033D01*
X970235D01*
Y541017D01*
X969219D01*
Y538985D01*
X970235D01*
X966485Y531485D02*
Y530469D01*
X968517D01*
Y531485D01*
X969533D01*
Y533517D01*
X968517D01*
Y534533D01*
X966485D01*
Y533517D01*
X965469D01*
Y531485D01*
X966485D01*
X970235Y523985D02*
Y522969D01*
X972267D01*
Y523985D01*
X973283D01*
Y526017D01*
X972267D01*
Y527033D01*
X970235D01*
Y526017D01*
X969219D01*
Y523985D01*
X970235D01*
Y508985D02*
Y507969D01*
X972267D01*
Y508985D01*
X973283D01*
Y511017D01*
X972267D01*
Y512033D01*
X970235D01*
Y511017D01*
X969219D01*
Y508985D01*
X970235D01*
X962735Y613985D02*
Y612969D01*
X964767D01*
Y613985D01*
X965783D01*
Y616017D01*
X964767D01*
Y617033D01*
X962735D01*
Y616017D01*
X961719D01*
Y613985D01*
X962735D01*
X958985Y606485D02*
Y605469D01*
X961017D01*
Y606485D01*
X962033D01*
Y608517D01*
X961017D01*
Y609533D01*
X958985D01*
Y608517D01*
X957969D01*
Y606485D01*
X958985D01*
X962735Y598985D02*
Y597969D01*
X964767D01*
Y598985D01*
X965783D01*
Y601017D01*
X964767D01*
Y602033D01*
X962735D01*
Y601017D01*
X961719D01*
Y598985D01*
X962735D01*
X958985Y591485D02*
Y590469D01*
X961017D01*
Y591485D01*
X962033D01*
Y593517D01*
X961017D01*
Y594533D01*
X958985D01*
Y593517D01*
X957969D01*
Y591485D01*
X958985D01*
X962735Y583985D02*
Y582969D01*
X964767D01*
Y583985D01*
X965783D01*
Y586017D01*
X964767D01*
Y587033D01*
X962735D01*
Y586017D01*
X961719D01*
Y583985D01*
X962735D01*
X958985Y576485D02*
Y575469D01*
X961017D01*
Y576485D01*
X962033D01*
Y578517D01*
X961017D01*
Y579533D01*
X958985D01*
Y578517D01*
X957969D01*
Y576485D01*
X958985D01*
X962735Y568985D02*
Y567969D01*
X964767D01*
Y568985D01*
X965783D01*
Y571017D01*
X964767D01*
Y572033D01*
X962735D01*
Y571017D01*
X961719D01*
Y568985D01*
X962735D01*
X958985Y561485D02*
Y560469D01*
X961017D01*
Y561485D01*
X962033D01*
Y563517D01*
X961017D01*
Y564533D01*
X958985D01*
Y563517D01*
X957969D01*
Y561485D01*
X958985D01*
X962735Y553985D02*
Y552969D01*
X964767D01*
Y553985D01*
X965783D01*
Y556017D01*
X964767D01*
Y557033D01*
X962735D01*
Y556017D01*
X961719D01*
Y553985D01*
X962735D01*
X958985Y546485D02*
Y545469D01*
X961017D01*
Y546485D01*
X962033D01*
Y548517D01*
X961017D01*
Y549533D01*
X958985D01*
Y548517D01*
X957969D01*
Y546485D01*
X958985D01*
X962735Y538985D02*
Y537969D01*
X964767D01*
Y538985D01*
X965783D01*
Y541017D01*
X964767D01*
Y542033D01*
X962735D01*
Y541017D01*
X961719D01*
Y538985D01*
X962735D01*
X958985Y531485D02*
Y530469D01*
X961017D01*
Y531485D01*
X962033D01*
Y533517D01*
X961017D01*
Y534533D01*
X958985D01*
Y533517D01*
X957969D01*
Y531485D01*
X958985D01*
X962735Y508985D02*
Y507969D01*
X964767D01*
Y508985D01*
X965783D01*
Y511017D01*
X964767D01*
Y512033D01*
X962735D01*
Y511017D01*
X961719D01*
Y508985D01*
X962735D01*
X955235Y613985D02*
Y612969D01*
X957267D01*
Y613985D01*
X958283D01*
Y616017D01*
X957267D01*
Y617033D01*
X955235D01*
Y616017D01*
X954219D01*
Y613985D01*
X955235D01*
X951485Y606485D02*
Y605469D01*
X953517D01*
Y606485D01*
X954533D01*
Y608517D01*
X953517D01*
Y609533D01*
X951485D01*
Y608517D01*
X950469D01*
Y606485D01*
X951485D01*
X955235Y598985D02*
Y597969D01*
X957267D01*
Y598985D01*
X958283D01*
Y601017D01*
X957267D01*
Y602033D01*
X955235D01*
Y601017D01*
X954219D01*
Y598985D01*
X955235D01*
X951485Y591485D02*
Y590469D01*
X953517D01*
Y591485D01*
X954533D01*
Y593517D01*
X953517D01*
Y594533D01*
X951485D01*
Y593517D01*
X950469D01*
Y591485D01*
X951485D01*
X955235Y583985D02*
Y582969D01*
X957267D01*
Y583985D01*
X958283D01*
Y586017D01*
X957267D01*
Y587033D01*
X955235D01*
Y586017D01*
X954219D01*
Y583985D01*
X955235D01*
X951485Y576485D02*
Y575469D01*
X953517D01*
Y576485D01*
X954533D01*
Y578517D01*
X953517D01*
Y579533D01*
X951485D01*
Y578517D01*
X950469D01*
Y576485D01*
X951485D01*
X955235Y568985D02*
Y567969D01*
X957267D01*
Y568985D01*
X958283D01*
Y571017D01*
X957267D01*
Y572033D01*
X955235D01*
Y571017D01*
X954219D01*
Y568985D01*
X955235D01*
X951485Y561485D02*
Y560469D01*
X953517D01*
Y561485D01*
X954533D01*
Y563517D01*
X953517D01*
Y564533D01*
X951485D01*
Y563517D01*
X950469D01*
Y561485D01*
X951485D01*
X955235Y553985D02*
Y552969D01*
X957267D01*
Y553985D01*
X958283D01*
Y556017D01*
X957267D01*
Y557033D01*
X955235D01*
Y556017D01*
X954219D01*
Y553985D01*
X955235D01*
X951485Y546485D02*
Y545469D01*
X953517D01*
Y546485D01*
X954533D01*
Y548517D01*
X953517D01*
Y549533D01*
X951485D01*
Y548517D01*
X950469D01*
Y546485D01*
X951485D01*
X955235Y538985D02*
Y537969D01*
X957267D01*
Y538985D01*
X958283D01*
Y541017D01*
X957267D01*
Y542033D01*
X955235D01*
Y541017D01*
X954219D01*
Y538985D01*
X955235D01*
X951485Y531485D02*
Y530469D01*
X953517D01*
Y531485D01*
X954533D01*
Y533517D01*
X953517D01*
Y534533D01*
X951485D01*
Y533517D01*
X950469D01*
Y531485D01*
X951485D01*
X955235Y508985D02*
Y507969D01*
X957267D01*
Y508985D01*
X958283D01*
Y511017D01*
X957267D01*
Y512033D01*
X955235D01*
Y511017D01*
X954219D01*
Y508985D01*
X955235D01*
X947735Y613985D02*
Y612969D01*
X949767D01*
Y613985D01*
X950783D01*
Y616017D01*
X949767D01*
Y617033D01*
X947735D01*
Y616017D01*
X946719D01*
Y613985D01*
X947735D01*
X943985Y606485D02*
Y605469D01*
X946017D01*
Y606485D01*
X947033D01*
Y608517D01*
X946017D01*
Y609533D01*
X943985D01*
Y608517D01*
X942969D01*
Y606485D01*
X943985D01*
X947735Y598985D02*
Y597969D01*
X949767D01*
Y598985D01*
X950783D01*
Y601017D01*
X949767D01*
Y602033D01*
X947735D01*
Y601017D01*
X946719D01*
Y598985D01*
X947735D01*
X943985Y591485D02*
Y590469D01*
X946017D01*
Y591485D01*
X947033D01*
Y593517D01*
X946017D01*
Y594533D01*
X943985D01*
Y593517D01*
X942969D01*
Y591485D01*
X943985D01*
X947735Y583985D02*
Y582969D01*
X949767D01*
Y583985D01*
X950783D01*
Y586017D01*
X949767D01*
Y587033D01*
X947735D01*
Y586017D01*
X946719D01*
Y583985D01*
X947735D01*
X943985Y576485D02*
Y575469D01*
X946017D01*
Y576485D01*
X947033D01*
Y578517D01*
X946017D01*
Y579533D01*
X943985D01*
Y578517D01*
X942969D01*
Y576485D01*
X943985D01*
X947735Y568985D02*
Y567969D01*
X949767D01*
Y568985D01*
X950783D01*
Y571017D01*
X949767D01*
Y572033D01*
X947735D01*
Y571017D01*
X946719D01*
Y568985D01*
X947735D01*
X943985Y561485D02*
Y560469D01*
X946017D01*
Y561485D01*
X947033D01*
Y563517D01*
X946017D01*
Y564533D01*
X943985D01*
Y563517D01*
X942969D01*
Y561485D01*
X943985D01*
X947735Y553985D02*
Y552969D01*
X949767D01*
Y553985D01*
X950783D01*
Y556017D01*
X949767D01*
Y557033D01*
X947735D01*
Y556017D01*
X946719D01*
Y553985D01*
X947735D01*
X943985Y546485D02*
Y545469D01*
X946017D01*
Y546485D01*
X947033D01*
Y548517D01*
X946017D01*
Y549533D01*
X943985D01*
Y548517D01*
X942969D01*
Y546485D01*
X943985D01*
X947735Y538985D02*
Y537969D01*
X949767D01*
Y538985D01*
X950783D01*
Y541017D01*
X949767D01*
Y542033D01*
X947735D01*
Y541017D01*
X946719D01*
Y538985D01*
X947735D01*
X943985Y531485D02*
Y530469D01*
X946017D01*
Y531485D01*
X947033D01*
Y533517D01*
X946017D01*
Y534533D01*
X943985D01*
Y533517D01*
X942969D01*
Y531485D01*
X943985D01*
X947735Y508985D02*
Y507969D01*
X949767D01*
Y508985D01*
X950783D01*
Y511017D01*
X949767D01*
Y512033D01*
X947735D01*
Y511017D01*
X946719D01*
Y508985D01*
X947735D01*
X940235Y613985D02*
Y612969D01*
X942267D01*
Y613985D01*
X943283D01*
Y616017D01*
X942267D01*
Y617033D01*
X940235D01*
Y616017D01*
X939219D01*
Y613985D01*
X940235D01*
X936485Y606485D02*
Y605469D01*
X938517D01*
Y606485D01*
X939533D01*
Y608517D01*
X938517D01*
Y609533D01*
X936485D01*
Y608517D01*
X935469D01*
Y606485D01*
X936485D01*
X940235Y598985D02*
Y597969D01*
X942267D01*
Y598985D01*
X943283D01*
Y601017D01*
X942267D01*
Y602033D01*
X940235D01*
Y601017D01*
X939219D01*
Y598985D01*
X940235D01*
X936485Y591485D02*
Y590469D01*
X938517D01*
Y591485D01*
X939533D01*
Y593517D01*
X938517D01*
Y594533D01*
X936485D01*
Y593517D01*
X935469D01*
Y591485D01*
X936485D01*
X940235Y583985D02*
Y582969D01*
X942267D01*
Y583985D01*
X943283D01*
Y586017D01*
X942267D01*
Y587033D01*
X940235D01*
Y586017D01*
X939219D01*
Y583985D01*
X940235D01*
X936485Y576485D02*
Y575469D01*
X938517D01*
Y576485D01*
X939533D01*
Y578517D01*
X938517D01*
Y579533D01*
X936485D01*
Y578517D01*
X935469D01*
Y576485D01*
X936485D01*
X940235Y568985D02*
Y567969D01*
X942267D01*
Y568985D01*
X943283D01*
Y571017D01*
X942267D01*
Y572033D01*
X940235D01*
Y571017D01*
X939219D01*
Y568985D01*
X940235D01*
X936485Y561485D02*
Y560469D01*
X938517D01*
Y561485D01*
X939533D01*
Y563517D01*
X938517D01*
Y564533D01*
X936485D01*
Y563517D01*
X935469D01*
Y561485D01*
X936485D01*
X940235Y553985D02*
Y552969D01*
X942267D01*
Y553985D01*
X943283D01*
Y556017D01*
X942267D01*
Y557033D01*
X940235D01*
Y556017D01*
X939219D01*
Y553985D01*
X940235D01*
X936485Y546485D02*
Y545469D01*
X938517D01*
Y546485D01*
X939533D01*
Y548517D01*
X938517D01*
Y549533D01*
X936485D01*
Y548517D01*
X935469D01*
Y546485D01*
X936485D01*
X940235Y538985D02*
Y537969D01*
X942267D01*
Y538985D01*
X943283D01*
Y541017D01*
X942267D01*
Y542033D01*
X940235D01*
Y541017D01*
X939219D01*
Y538985D01*
X940235D01*
X936485Y531485D02*
Y530469D01*
X938517D01*
Y531485D01*
X939533D01*
Y533517D01*
X938517D01*
Y534533D01*
X936485D01*
Y533517D01*
X935469D01*
Y531485D01*
X936485D01*
X940235Y508985D02*
Y507969D01*
X942267D01*
Y508985D01*
X943283D01*
Y511017D01*
X942267D01*
Y512033D01*
X940235D01*
Y511017D01*
X939219D01*
Y508985D01*
X940235D01*
X932735Y613985D02*
Y612969D01*
X934767D01*
Y613985D01*
X935783D01*
Y616017D01*
X934767D01*
Y617033D01*
X932735D01*
Y616017D01*
X931719D01*
Y613985D01*
X932735D01*
X928985Y606485D02*
Y605469D01*
X931017D01*
Y606485D01*
X932033D01*
Y608517D01*
X931017D01*
Y609533D01*
X928985D01*
Y608517D01*
X927969D01*
Y606485D01*
X928985D01*
X932735Y598985D02*
Y597969D01*
X934767D01*
Y598985D01*
X935783D01*
Y601017D01*
X934767D01*
Y602033D01*
X932735D01*
Y601017D01*
X931719D01*
Y598985D01*
X932735D01*
X928985Y591485D02*
Y590469D01*
X931017D01*
Y591485D01*
X932033D01*
Y593517D01*
X931017D01*
Y594533D01*
X928985D01*
Y593517D01*
X927969D01*
Y591485D01*
X928985D01*
X932735Y583985D02*
Y582969D01*
X934767D01*
Y583985D01*
X935783D01*
Y586017D01*
X934767D01*
Y587033D01*
X932735D01*
Y586017D01*
X931719D01*
Y583985D01*
X932735D01*
X928985Y576485D02*
Y575469D01*
X931017D01*
Y576485D01*
X932033D01*
Y578517D01*
X931017D01*
Y579533D01*
X928985D01*
Y578517D01*
X927969D01*
Y576485D01*
X928985D01*
X932735Y568985D02*
Y567969D01*
X934767D01*
Y568985D01*
X935783D01*
Y571017D01*
X934767D01*
Y572033D01*
X932735D01*
Y571017D01*
X931719D01*
Y568985D01*
X932735D01*
X928985Y561485D02*
Y560469D01*
X931017D01*
Y561485D01*
X932033D01*
Y563517D01*
X931017D01*
Y564533D01*
X928985D01*
Y563517D01*
X927969D01*
Y561485D01*
X928985D01*
X932735Y553985D02*
Y552969D01*
X934767D01*
Y553985D01*
X935783D01*
Y556017D01*
X934767D01*
Y557033D01*
X932735D01*
Y556017D01*
X931719D01*
Y553985D01*
X932735D01*
X928985Y546485D02*
Y545469D01*
X931017D01*
Y546485D01*
X932033D01*
Y548517D01*
X931017D01*
Y549533D01*
X928985D01*
Y548517D01*
X927969D01*
Y546485D01*
X928985D01*
X932735Y538985D02*
Y537969D01*
X934767D01*
Y538985D01*
X935783D01*
Y541017D01*
X934767D01*
Y542033D01*
X932735D01*
Y541017D01*
X931719D01*
Y538985D01*
X932735D01*
X928985Y531485D02*
Y530469D01*
X931017D01*
Y531485D01*
X932033D01*
Y533517D01*
X931017D01*
Y534533D01*
X928985D01*
Y533517D01*
X927969D01*
Y531485D01*
X928985D01*
X932735Y508985D02*
Y507969D01*
X934767D01*
Y508985D01*
X935783D01*
Y511017D01*
X934767D01*
Y512033D01*
X932735D01*
Y511017D01*
X931719D01*
Y508985D01*
X932735D01*
X925235Y613985D02*
Y612969D01*
X927267D01*
Y613985D01*
X928283D01*
Y616017D01*
X927267D01*
Y617033D01*
X925235D01*
Y616017D01*
X924219D01*
Y613985D01*
X925235D01*
X921485Y606485D02*
Y605469D01*
X923517D01*
Y606485D01*
X924533D01*
Y608517D01*
X923517D01*
Y609533D01*
X921485D01*
Y608517D01*
X920469D01*
Y606485D01*
X921485D01*
X925235Y598985D02*
Y597969D01*
X927267D01*
Y598985D01*
X928283D01*
Y601017D01*
X927267D01*
Y602033D01*
X925235D01*
Y601017D01*
X924219D01*
Y598985D01*
X925235D01*
X921485Y591485D02*
Y590469D01*
X923517D01*
Y591485D01*
X924533D01*
Y593517D01*
X923517D01*
Y594533D01*
X921485D01*
Y593517D01*
X920469D01*
Y591485D01*
X921485D01*
X925235Y583985D02*
Y582969D01*
X927267D01*
Y583985D01*
X928283D01*
Y586017D01*
X927267D01*
Y587033D01*
X925235D01*
Y586017D01*
X924219D01*
Y583985D01*
X925235D01*
X921485Y576485D02*
Y575469D01*
X923517D01*
Y576485D01*
X924533D01*
Y578517D01*
X923517D01*
Y579533D01*
X921485D01*
Y578517D01*
X920469D01*
Y576485D01*
X921485D01*
X925235Y568985D02*
Y567969D01*
X927267D01*
Y568985D01*
X928283D01*
Y571017D01*
X927267D01*
Y572033D01*
X925235D01*
Y571017D01*
X924219D01*
Y568985D01*
X925235D01*
X921485Y561485D02*
Y560469D01*
X923517D01*
Y561485D01*
X924533D01*
Y563517D01*
X923517D01*
Y564533D01*
X921485D01*
Y563517D01*
X920469D01*
Y561485D01*
X921485D01*
X925235Y553985D02*
Y552969D01*
X927267D01*
Y553985D01*
X928283D01*
Y556017D01*
X927267D01*
Y557033D01*
X925235D01*
Y556017D01*
X924219D01*
Y553985D01*
X925235D01*
X921485Y546485D02*
Y545469D01*
X923517D01*
Y546485D01*
X924533D01*
Y548517D01*
X923517D01*
Y549533D01*
X921485D01*
Y548517D01*
X920469D01*
Y546485D01*
X921485D01*
X925235Y538985D02*
Y537969D01*
X927267D01*
Y538985D01*
X928283D01*
Y541017D01*
X927267D01*
Y542033D01*
X925235D01*
Y541017D01*
X924219D01*
Y538985D01*
X925235D01*
X921485Y516485D02*
Y515469D01*
X923517D01*
Y516485D01*
X924533D01*
Y518517D01*
X923517D01*
Y519533D01*
X921485D01*
Y518517D01*
X920469D01*
Y516485D01*
X921485D01*
X925235Y508985D02*
Y507969D01*
X927267D01*
Y508985D01*
X928283D01*
Y511017D01*
X927267D01*
Y512033D01*
X925235D01*
Y511017D01*
X924219D01*
Y508985D01*
X925235D01*
X917735Y613985D02*
Y612969D01*
X919767D01*
Y613985D01*
X920783D01*
Y616017D01*
X919767D01*
Y617033D01*
X917735D01*
Y616017D01*
X916719D01*
Y613985D01*
X917735D01*
X913985Y606485D02*
Y605469D01*
X916017D01*
Y606485D01*
X917033D01*
Y608517D01*
X916017D01*
Y609533D01*
X913985D01*
Y608517D01*
X912969D01*
Y606485D01*
X913985D01*
X917735Y598985D02*
Y597969D01*
X919767D01*
Y598985D01*
X920783D01*
Y601017D01*
X919767D01*
Y602033D01*
X917735D01*
Y601017D01*
X916719D01*
Y598985D01*
X917735D01*
X913985Y591485D02*
Y590469D01*
X916017D01*
Y591485D01*
X917033D01*
Y593517D01*
X916017D01*
Y594533D01*
X913985D01*
Y593517D01*
X912969D01*
Y591485D01*
X913985D01*
X917735Y583985D02*
Y582969D01*
X919767D01*
Y583985D01*
X920783D01*
Y586017D01*
X919767D01*
Y587033D01*
X917735D01*
Y586017D01*
X916719D01*
Y583985D01*
X917735D01*
X913985Y576485D02*
Y575469D01*
X916017D01*
Y576485D01*
X917033D01*
Y578517D01*
X916017D01*
Y579533D01*
X913985D01*
Y578517D01*
X912969D01*
Y576485D01*
X913985D01*
X917735Y568985D02*
Y567969D01*
X919767D01*
Y568985D01*
X920783D01*
Y571017D01*
X919767D01*
Y572033D01*
X917735D01*
Y571017D01*
X916719D01*
Y568985D01*
X917735D01*
X913985Y561485D02*
Y560469D01*
X916017D01*
Y561485D01*
X917033D01*
Y563517D01*
X916017D01*
Y564533D01*
X913985D01*
Y563517D01*
X912969D01*
Y561485D01*
X913985D01*
X917735Y553985D02*
Y552969D01*
X919767D01*
Y553985D01*
X920783D01*
Y556017D01*
X919767D01*
Y557033D01*
X917735D01*
Y556017D01*
X916719D01*
Y553985D01*
X917735D01*
X913985Y546485D02*
Y545469D01*
X916017D01*
Y546485D01*
X917033D01*
Y548517D01*
X916017D01*
Y549533D01*
X913985D01*
Y548517D01*
X912969D01*
Y546485D01*
X913985D01*
Y516485D02*
Y515469D01*
X916017D01*
Y516485D01*
X917033D01*
Y518517D01*
X916017D01*
Y519533D01*
X913985D01*
Y518517D01*
X912969D01*
Y516485D01*
X913985D01*
X917735Y508985D02*
Y507969D01*
X919767D01*
Y508985D01*
X920783D01*
Y511017D01*
X919767D01*
Y512033D01*
X917735D01*
Y511017D01*
X916719D01*
Y508985D01*
X917735D01*
X910235Y613985D02*
Y612969D01*
X912267D01*
Y613985D01*
X913283D01*
Y616017D01*
X912267D01*
Y617033D01*
X910235D01*
Y616017D01*
X909219D01*
Y613985D01*
X910235D01*
X906485Y606485D02*
Y605469D01*
X908517D01*
Y606485D01*
X909533D01*
Y608517D01*
X908517D01*
Y609533D01*
X906485D01*
Y608517D01*
X905469D01*
Y606485D01*
X906485D01*
X910235Y598985D02*
Y597969D01*
X912267D01*
Y598985D01*
X913283D01*
Y601017D01*
X912267D01*
Y602033D01*
X910235D01*
Y601017D01*
X909219D01*
Y598985D01*
X910235D01*
X906485Y591485D02*
Y590469D01*
X908517D01*
Y591485D01*
X909533D01*
Y593517D01*
X908517D01*
Y594533D01*
X906485D01*
Y593517D01*
X905469D01*
Y591485D01*
X906485D01*
X910235Y583985D02*
Y582969D01*
X912267D01*
Y583985D01*
X913283D01*
Y586017D01*
X912267D01*
Y587033D01*
X910235D01*
Y586017D01*
X909219D01*
Y583985D01*
X910235D01*
X906485Y576485D02*
Y575469D01*
X908517D01*
Y576485D01*
X909533D01*
Y578517D01*
X908517D01*
Y579533D01*
X906485D01*
Y578517D01*
X905469D01*
Y576485D01*
X906485D01*
X910235Y568985D02*
Y567969D01*
X912267D01*
Y568985D01*
X913283D01*
Y571017D01*
X912267D01*
Y572033D01*
X910235D01*
Y571017D01*
X909219D01*
Y568985D01*
X910235D01*
X906485Y561485D02*
Y560469D01*
X908517D01*
Y561485D01*
X909533D01*
Y563517D01*
X908517D01*
Y564533D01*
X906485D01*
Y563517D01*
X905469D01*
Y561485D01*
X906485D01*
X910235Y553985D02*
Y552969D01*
X912267D01*
Y553985D01*
X913283D01*
Y556017D01*
X912267D01*
Y557033D01*
X910235D01*
Y556017D01*
X909219D01*
Y553985D01*
X910235D01*
X906485Y531485D02*
Y530469D01*
X908517D01*
Y531485D01*
X909533D01*
Y533517D01*
X908517D01*
Y534533D01*
X906485D01*
Y533517D01*
X905469D01*
Y531485D01*
X906485D01*
X910235Y523985D02*
Y522969D01*
X912267D01*
Y523985D01*
X913283D01*
Y526017D01*
X912267D01*
Y527033D01*
X910235D01*
Y526017D01*
X909219D01*
Y523985D01*
X910235D01*
X906485Y516485D02*
Y515469D01*
X908517D01*
Y516485D01*
X909533D01*
Y518517D01*
X908517D01*
Y519533D01*
X906485D01*
Y518517D01*
X905469D01*
Y516485D01*
X906485D01*
X910235Y508985D02*
Y507969D01*
X912267D01*
Y508985D01*
X913283D01*
Y511017D01*
X912267D01*
Y512033D01*
X910235D01*
Y511017D01*
X909219D01*
Y508985D01*
X910235D01*
X898985Y741485D02*
Y740469D01*
X901017D01*
Y741485D01*
X902033D01*
Y743517D01*
X901017D01*
Y744533D01*
X898985D01*
Y743517D01*
X897969D01*
Y741485D01*
X898985D01*
Y726485D02*
Y725469D01*
X901017D01*
Y726485D01*
X902033D01*
Y728517D01*
X901017D01*
Y729533D01*
X898985D01*
Y728517D01*
X897969D01*
Y726485D01*
X898985D01*
Y696485D02*
Y695469D01*
X901017D01*
Y696485D01*
X902033D01*
Y698517D01*
X901017D01*
Y699533D01*
X898985D01*
Y698517D01*
X897969D01*
Y696485D01*
X898985D01*
Y681485D02*
Y680469D01*
X901017D01*
Y681485D01*
X902033D01*
Y683517D01*
X901017D01*
Y684533D01*
X898985D01*
Y683517D01*
X897969D01*
Y681485D01*
X898985D01*
Y666485D02*
Y665469D01*
X901017D01*
Y666485D01*
X902033D01*
Y668517D01*
X901017D01*
Y669533D01*
X898985D01*
Y668517D01*
X897969D01*
Y666485D01*
X898985D01*
Y651485D02*
Y650469D01*
X901017D01*
Y651485D01*
X902033D01*
Y653517D01*
X901017D01*
Y654533D01*
X898985D01*
Y653517D01*
X897969D01*
Y651485D01*
X898985D01*
Y636485D02*
Y635469D01*
X901017D01*
Y636485D01*
X902033D01*
Y638517D01*
X901017D01*
Y639533D01*
X898985D01*
Y638517D01*
X897969D01*
Y636485D01*
X898985D01*
Y621485D02*
Y620469D01*
X901017D01*
Y621485D01*
X902033D01*
Y623517D01*
X901017D01*
Y624533D01*
X898985D01*
Y623517D01*
X897969D01*
Y621485D01*
X898985D01*
X902735Y613985D02*
Y612969D01*
X904767D01*
Y613985D01*
X905783D01*
Y616017D01*
X904767D01*
Y617033D01*
X902735D01*
Y616017D01*
X901719D01*
Y613985D01*
X902735D01*
X898985Y606485D02*
Y605469D01*
X901017D01*
Y606485D01*
X902033D01*
Y608517D01*
X901017D01*
Y609533D01*
X898985D01*
Y608517D01*
X897969D01*
Y606485D01*
X898985D01*
X902735Y598985D02*
Y597969D01*
X904767D01*
Y598985D01*
X905783D01*
Y601017D01*
X904767D01*
Y602033D01*
X902735D01*
Y601017D01*
X901719D01*
Y598985D01*
X902735D01*
X898985Y591485D02*
Y590469D01*
X901017D01*
Y591485D01*
X902033D01*
Y593517D01*
X901017D01*
Y594533D01*
X898985D01*
Y593517D01*
X897969D01*
Y591485D01*
X898985D01*
X902735Y583985D02*
Y582969D01*
X904767D01*
Y583985D01*
X905783D01*
Y586017D01*
X904767D01*
Y587033D01*
X902735D01*
Y586017D01*
X901719D01*
Y583985D01*
X902735D01*
X898985Y576485D02*
Y575469D01*
X901017D01*
Y576485D01*
X902033D01*
Y578517D01*
X901017D01*
Y579533D01*
X898985D01*
Y578517D01*
X897969D01*
Y576485D01*
X898985D01*
X902735Y568985D02*
Y567969D01*
X904767D01*
Y568985D01*
X905783D01*
Y571017D01*
X904767D01*
Y572033D01*
X902735D01*
Y571017D01*
X901719D01*
Y568985D01*
X902735D01*
X898985Y561485D02*
Y560469D01*
X901017D01*
Y561485D01*
X902033D01*
Y563517D01*
X901017D01*
Y564533D01*
X898985D01*
Y563517D01*
X897969D01*
Y561485D01*
X898985D01*
Y531485D02*
Y530469D01*
X901017D01*
Y531485D01*
X902033D01*
Y533517D01*
X901017D01*
Y534533D01*
X898985D01*
Y533517D01*
X897969D01*
Y531485D01*
X898985D01*
X902735Y523985D02*
Y522969D01*
X904767D01*
Y523985D01*
X905783D01*
Y526017D01*
X904767D01*
Y527033D01*
X902735D01*
Y526017D01*
X901719D01*
Y523985D01*
X902735D01*
X898985Y516485D02*
Y515469D01*
X901017D01*
Y516485D01*
X902033D01*
Y518517D01*
X901017D01*
Y519533D01*
X898985D01*
Y518517D01*
X897969D01*
Y516485D01*
X898985D01*
X902735Y508985D02*
Y507969D01*
X904767D01*
Y508985D01*
X905783D01*
Y511017D01*
X904767D01*
Y512033D01*
X902735D01*
Y511017D01*
X901719D01*
Y508985D01*
X902735D01*
X891485Y741485D02*
Y740469D01*
X893517D01*
Y741485D01*
X894533D01*
Y743517D01*
X893517D01*
Y744533D01*
X891485D01*
Y743517D01*
X890469D01*
Y741485D01*
X891485D01*
X895235Y733985D02*
Y732969D01*
X897267D01*
Y733985D01*
X898283D01*
Y736017D01*
X897267D01*
Y737033D01*
X895235D01*
Y736017D01*
X894219D01*
Y733985D01*
X895235D01*
X891485Y726485D02*
Y725469D01*
X893517D01*
Y726485D01*
X894533D01*
Y728517D01*
X893517D01*
Y729533D01*
X891485D01*
Y728517D01*
X890469D01*
Y726485D01*
X891485D01*
X895235Y718985D02*
Y717969D01*
X897267D01*
Y718985D01*
X898283D01*
Y721017D01*
X897267D01*
Y722033D01*
X895235D01*
Y721017D01*
X894219D01*
Y718985D01*
X895235D01*
X891485Y666485D02*
Y665469D01*
X893517D01*
Y666485D01*
X894533D01*
Y668517D01*
X893517D01*
Y669533D01*
X891485D01*
Y668517D01*
X890469D01*
Y666485D01*
X891485D01*
X895235Y658985D02*
Y657969D01*
X897267D01*
Y658985D01*
X898283D01*
Y661017D01*
X897267D01*
Y662033D01*
X895235D01*
Y661017D01*
X894219D01*
Y658985D01*
X895235D01*
X891485Y651485D02*
Y650469D01*
X893517D01*
Y651485D01*
X894533D01*
Y653517D01*
X893517D01*
Y654533D01*
X891485D01*
Y653517D01*
X890469D01*
Y651485D01*
X891485D01*
X895235Y643985D02*
Y642969D01*
X897267D01*
Y643985D01*
X898283D01*
Y646017D01*
X897267D01*
Y647033D01*
X895235D01*
Y646017D01*
X894219D01*
Y643985D01*
X895235D01*
X891485Y636485D02*
Y635469D01*
X893517D01*
Y636485D01*
X894533D01*
Y638517D01*
X893517D01*
Y639533D01*
X891485D01*
Y638517D01*
X890469D01*
Y636485D01*
X891485D01*
X895235Y628985D02*
Y627969D01*
X897267D01*
Y628985D01*
X898283D01*
Y631017D01*
X897267D01*
Y632033D01*
X895235D01*
Y631017D01*
X894219D01*
Y628985D01*
X895235D01*
X891485Y621485D02*
Y620469D01*
X893517D01*
Y621485D01*
X894533D01*
Y623517D01*
X893517D01*
Y624533D01*
X891485D01*
Y623517D01*
X890469D01*
Y621485D01*
X891485D01*
X895235Y613985D02*
Y612969D01*
X897267D01*
Y613985D01*
X898283D01*
Y616017D01*
X897267D01*
Y617033D01*
X895235D01*
Y616017D01*
X894219D01*
Y613985D01*
X895235D01*
Y583985D02*
Y582969D01*
X897267D01*
Y583985D01*
X898283D01*
Y586017D01*
X897267D01*
Y587033D01*
X895235D01*
Y586017D01*
X894219D01*
Y583985D01*
X895235D01*
X891485Y576485D02*
Y575469D01*
X893517D01*
Y576485D01*
X894533D01*
Y578517D01*
X893517D01*
Y579533D01*
X891485D01*
Y578517D01*
X890469D01*
Y576485D01*
X891485D01*
X895235Y568985D02*
Y567969D01*
X897267D01*
Y568985D01*
X898283D01*
Y571017D01*
X897267D01*
Y572033D01*
X895235D01*
Y571017D01*
X894219D01*
Y568985D01*
X895235D01*
X891485Y546485D02*
Y545469D01*
X893517D01*
Y546485D01*
X894533D01*
Y548517D01*
X893517D01*
Y549533D01*
X891485D01*
Y548517D01*
X890469D01*
Y546485D01*
X891485D01*
X895235Y538985D02*
Y537969D01*
X897267D01*
Y538985D01*
X898283D01*
Y541017D01*
X897267D01*
Y542033D01*
X895235D01*
Y541017D01*
X894219D01*
Y538985D01*
X895235D01*
X891485Y531485D02*
Y530469D01*
X893517D01*
Y531485D01*
X894533D01*
Y533517D01*
X893517D01*
Y534533D01*
X891485D01*
Y533517D01*
X890469D01*
Y531485D01*
X891485D01*
X895235Y523985D02*
Y522969D01*
X897267D01*
Y523985D01*
X898283D01*
Y526017D01*
X897267D01*
Y527033D01*
X895235D01*
Y526017D01*
X894219D01*
Y523985D01*
X895235D01*
X891485Y516485D02*
Y515469D01*
X893517D01*
Y516485D01*
X894533D01*
Y518517D01*
X893517D01*
Y519533D01*
X891485D01*
Y518517D01*
X890469D01*
Y516485D01*
X891485D01*
X895235Y508985D02*
Y507969D01*
X897267D01*
Y508985D01*
X898283D01*
Y511017D01*
X897267D01*
Y512033D01*
X895235D01*
Y511017D01*
X894219D01*
Y508985D01*
X895235D01*
X883985Y741485D02*
Y740469D01*
X886017D01*
Y741485D01*
X887033D01*
Y743517D01*
X886017D01*
Y744533D01*
X883985D01*
Y743517D01*
X882969D01*
Y741485D01*
X883985D01*
X887735Y733985D02*
Y732969D01*
X889767D01*
Y733985D01*
X890783D01*
Y736017D01*
X889767D01*
Y737033D01*
X887735D01*
Y736017D01*
X886719D01*
Y733985D01*
X887735D01*
X883985Y726485D02*
Y725469D01*
X886017D01*
Y726485D01*
X887033D01*
Y728517D01*
X886017D01*
Y729533D01*
X883985D01*
Y728517D01*
X882969D01*
Y726485D01*
X883985D01*
X887735Y718985D02*
Y717969D01*
X889767D01*
Y718985D01*
X890783D01*
Y721017D01*
X889767D01*
Y722033D01*
X887735D01*
Y721017D01*
X886719D01*
Y718985D01*
X887735D01*
X883985Y666485D02*
Y665469D01*
X886017D01*
Y666485D01*
X887033D01*
Y668517D01*
X886017D01*
Y669533D01*
X883985D01*
Y668517D01*
X882969D01*
Y666485D01*
X883985D01*
X887735Y658985D02*
Y657969D01*
X889767D01*
Y658985D01*
X890783D01*
Y661017D01*
X889767D01*
Y662033D01*
X887735D01*
Y661017D01*
X886719D01*
Y658985D01*
X887735D01*
X883985Y651485D02*
Y650469D01*
X886017D01*
Y651485D01*
X887033D01*
Y653517D01*
X886017D01*
Y654533D01*
X883985D01*
Y653517D01*
X882969D01*
Y651485D01*
X883985D01*
X887735Y643985D02*
Y642969D01*
X889767D01*
Y643985D01*
X890783D01*
Y646017D01*
X889767D01*
Y647033D01*
X887735D01*
Y646017D01*
X886719D01*
Y643985D01*
X887735D01*
X883985Y636485D02*
Y635469D01*
X886017D01*
Y636485D01*
X887033D01*
Y638517D01*
X886017D01*
Y639533D01*
X883985D01*
Y638517D01*
X882969D01*
Y636485D01*
X883985D01*
X887735Y628985D02*
Y627969D01*
X889767D01*
Y628985D01*
X890783D01*
Y631017D01*
X889767D01*
Y632033D01*
X887735D01*
Y631017D01*
X886719D01*
Y628985D01*
X887735D01*
X883985Y621485D02*
Y620469D01*
X886017D01*
Y621485D01*
X887033D01*
Y623517D01*
X886017D01*
Y624533D01*
X883985D01*
Y623517D01*
X882969D01*
Y621485D01*
X883985D01*
X887735Y613985D02*
Y612969D01*
X889767D01*
Y613985D01*
X890783D01*
Y616017D01*
X889767D01*
Y617033D01*
X887735D01*
Y616017D01*
X886719D01*
Y613985D01*
X887735D01*
X883985Y576485D02*
Y575469D01*
X886017D01*
Y576485D01*
X887033D01*
Y578517D01*
X886017D01*
Y579533D01*
X883985D01*
Y578517D01*
X882969D01*
Y576485D01*
X883985D01*
Y546485D02*
Y545469D01*
X886017D01*
Y546485D01*
X887033D01*
Y548517D01*
X886017D01*
Y549533D01*
X883985D01*
Y548517D01*
X882969D01*
Y546485D01*
X883985D01*
X887735Y538985D02*
Y537969D01*
X889767D01*
Y538985D01*
X890783D01*
Y541017D01*
X889767D01*
Y542033D01*
X887735D01*
Y541017D01*
X886719D01*
Y538985D01*
X887735D01*
X883985Y531485D02*
Y530469D01*
X886017D01*
Y531485D01*
X887033D01*
Y533517D01*
X886017D01*
Y534533D01*
X883985D01*
Y533517D01*
X882969D01*
Y531485D01*
X883985D01*
X887735Y523985D02*
Y522969D01*
X889767D01*
Y523985D01*
X890783D01*
Y526017D01*
X889767D01*
Y527033D01*
X887735D01*
Y526017D01*
X886719D01*
Y523985D01*
X887735D01*
X883985Y516485D02*
Y515469D01*
X886017D01*
Y516485D01*
X887033D01*
Y518517D01*
X886017D01*
Y519533D01*
X883985D01*
Y518517D01*
X882969D01*
Y516485D01*
X883985D01*
X887735Y508985D02*
Y507969D01*
X889767D01*
Y508985D01*
X890783D01*
Y511017D01*
X889767D01*
Y512033D01*
X887735D01*
Y511017D01*
X886719D01*
Y508985D01*
X887735D01*
X876485Y741485D02*
Y740469D01*
X878517D01*
Y741485D01*
X879533D01*
Y743517D01*
X878517D01*
Y744533D01*
X876485D01*
Y743517D01*
X875469D01*
Y741485D01*
X876485D01*
X880235Y733985D02*
Y732969D01*
X882267D01*
Y733985D01*
X883283D01*
Y736017D01*
X882267D01*
Y737033D01*
X880235D01*
Y736017D01*
X879219D01*
Y733985D01*
X880235D01*
X876485Y726485D02*
Y725469D01*
X878517D01*
Y726485D01*
X879533D01*
Y728517D01*
X878517D01*
Y729533D01*
X876485D01*
Y728517D01*
X875469D01*
Y726485D01*
X876485D01*
X880235Y718985D02*
Y717969D01*
X882267D01*
Y718985D01*
X883283D01*
Y721017D01*
X882267D01*
Y722033D01*
X880235D01*
Y721017D01*
X879219D01*
Y718985D01*
X880235D01*
X876485Y696485D02*
Y695469D01*
X878517D01*
Y696485D01*
X879533D01*
Y698517D01*
X878517D01*
Y699533D01*
X876485D01*
Y698517D01*
X875469D01*
Y696485D01*
X876485D01*
Y681485D02*
Y680469D01*
X878517D01*
Y681485D01*
X879533D01*
Y683517D01*
X878517D01*
Y684533D01*
X876485D01*
Y683517D01*
X875469D01*
Y681485D01*
X876485D01*
Y666485D02*
Y665469D01*
X878517D01*
Y666485D01*
X879533D01*
Y668517D01*
X878517D01*
Y669533D01*
X876485D01*
Y668517D01*
X875469D01*
Y666485D01*
X876485D01*
X880235Y658985D02*
Y657969D01*
X882267D01*
Y658985D01*
X883283D01*
Y661017D01*
X882267D01*
Y662033D01*
X880235D01*
Y661017D01*
X879219D01*
Y658985D01*
X880235D01*
X876485Y651485D02*
Y650469D01*
X878517D01*
Y651485D01*
X879533D01*
Y653517D01*
X878517D01*
Y654533D01*
X876485D01*
Y653517D01*
X875469D01*
Y651485D01*
X876485D01*
X880235Y643985D02*
Y642969D01*
X882267D01*
Y643985D01*
X883283D01*
Y646017D01*
X882267D01*
Y647033D01*
X880235D01*
Y646017D01*
X879219D01*
Y643985D01*
X880235D01*
X876485Y636485D02*
Y635469D01*
X878517D01*
Y636485D01*
X879533D01*
Y638517D01*
X878517D01*
Y639533D01*
X876485D01*
Y638517D01*
X875469D01*
Y636485D01*
X876485D01*
X880235Y628985D02*
Y627969D01*
X882267D01*
Y628985D01*
X883283D01*
Y631017D01*
X882267D01*
Y632033D01*
X880235D01*
Y631017D01*
X879219D01*
Y628985D01*
X880235D01*
X876485Y621485D02*
Y620469D01*
X878517D01*
Y621485D01*
X879533D01*
Y623517D01*
X878517D01*
Y624533D01*
X876485D01*
Y623517D01*
X875469D01*
Y621485D01*
X876485D01*
X880235Y613985D02*
Y612969D01*
X882267D01*
Y613985D01*
X883283D01*
Y616017D01*
X882267D01*
Y617033D01*
X880235D01*
Y616017D01*
X879219D01*
Y613985D01*
X880235D01*
X876485Y606485D02*
Y605469D01*
X878517D01*
Y606485D01*
X879533D01*
Y608517D01*
X878517D01*
Y609533D01*
X876485D01*
Y608517D01*
X875469D01*
Y606485D01*
X876485D01*
Y561485D02*
Y560469D01*
X878517D01*
Y561485D01*
X879533D01*
Y563517D01*
X878517D01*
Y564533D01*
X876485D01*
Y563517D01*
X875469D01*
Y561485D01*
X876485D01*
X880235Y553985D02*
Y552969D01*
X882267D01*
Y553985D01*
X883283D01*
Y556017D01*
X882267D01*
Y557033D01*
X880235D01*
Y556017D01*
X879219D01*
Y553985D01*
X880235D01*
X876485Y546485D02*
Y545469D01*
X878517D01*
Y546485D01*
X879533D01*
Y548517D01*
X878517D01*
Y549533D01*
X876485D01*
Y548517D01*
X875469D01*
Y546485D01*
X876485D01*
X880235Y538985D02*
Y537969D01*
X882267D01*
Y538985D01*
X883283D01*
Y541017D01*
X882267D01*
Y542033D01*
X880235D01*
Y541017D01*
X879219D01*
Y538985D01*
X880235D01*
X876485Y531485D02*
Y530469D01*
X878517D01*
Y531485D01*
X879533D01*
Y533517D01*
X878517D01*
Y534533D01*
X876485D01*
Y533517D01*
X875469D01*
Y531485D01*
X876485D01*
X880235Y523985D02*
Y522969D01*
X882267D01*
Y523985D01*
X883283D01*
Y526017D01*
X882267D01*
Y527033D01*
X880235D01*
Y526017D01*
X879219D01*
Y523985D01*
X880235D01*
X876485Y516485D02*
Y515469D01*
X878517D01*
Y516485D01*
X879533D01*
Y518517D01*
X878517D01*
Y519533D01*
X876485D01*
Y518517D01*
X875469D01*
Y516485D01*
X876485D01*
X880235Y508985D02*
Y507969D01*
X882267D01*
Y508985D01*
X883283D01*
Y511017D01*
X882267D01*
Y512033D01*
X880235D01*
Y511017D01*
X879219D01*
Y508985D01*
X880235D01*
X868985Y741485D02*
Y740469D01*
X871017D01*
Y741485D01*
X872033D01*
Y743517D01*
X871017D01*
Y744533D01*
X868985D01*
Y743517D01*
X867969D01*
Y741485D01*
X868985D01*
X872735Y733985D02*
Y732969D01*
X874767D01*
Y733985D01*
X875783D01*
Y736017D01*
X874767D01*
Y737033D01*
X872735D01*
Y736017D01*
X871719D01*
Y733985D01*
X872735D01*
X868985Y726485D02*
Y725469D01*
X871017D01*
Y726485D01*
X872033D01*
Y728517D01*
X871017D01*
Y729533D01*
X868985D01*
Y728517D01*
X867969D01*
Y726485D01*
X868985D01*
X872735Y718985D02*
Y717969D01*
X874767D01*
Y718985D01*
X875783D01*
Y721017D01*
X874767D01*
Y722033D01*
X872735D01*
Y721017D01*
X871719D01*
Y718985D01*
X872735D01*
X868985Y696485D02*
Y695469D01*
X871017D01*
Y696485D01*
X872033D01*
Y698517D01*
X871017D01*
Y699533D01*
X868985D01*
Y698517D01*
X867969D01*
Y696485D01*
X868985D01*
X872735Y688985D02*
Y687969D01*
X874767D01*
Y688985D01*
X875783D01*
Y691017D01*
X874767D01*
Y692033D01*
X872735D01*
Y691017D01*
X871719D01*
Y688985D01*
X872735D01*
X868985Y681485D02*
Y680469D01*
X871017D01*
Y681485D01*
X872033D01*
Y683517D01*
X871017D01*
Y684533D01*
X868985D01*
Y683517D01*
X867969D01*
Y681485D01*
X868985D01*
X872735Y673985D02*
Y672969D01*
X874767D01*
Y673985D01*
X875783D01*
Y676017D01*
X874767D01*
Y677033D01*
X872735D01*
Y676017D01*
X871719D01*
Y673985D01*
X872735D01*
X868985Y666485D02*
Y665469D01*
X871017D01*
Y666485D01*
X872033D01*
Y668517D01*
X871017D01*
Y669533D01*
X868985D01*
Y668517D01*
X867969D01*
Y666485D01*
X868985D01*
X872735Y658985D02*
Y657969D01*
X874767D01*
Y658985D01*
X875783D01*
Y661017D01*
X874767D01*
Y662033D01*
X872735D01*
Y661017D01*
X871719D01*
Y658985D01*
X872735D01*
X868985Y651485D02*
Y650469D01*
X871017D01*
Y651485D01*
X872033D01*
Y653517D01*
X871017D01*
Y654533D01*
X868985D01*
Y653517D01*
X867969D01*
Y651485D01*
X868985D01*
X872735Y643985D02*
Y642969D01*
X874767D01*
Y643985D01*
X875783D01*
Y646017D01*
X874767D01*
Y647033D01*
X872735D01*
Y646017D01*
X871719D01*
Y643985D01*
X872735D01*
X868985Y636485D02*
Y635469D01*
X871017D01*
Y636485D01*
X872033D01*
Y638517D01*
X871017D01*
Y639533D01*
X868985D01*
Y638517D01*
X867969D01*
Y636485D01*
X868985D01*
X872735Y628985D02*
Y627969D01*
X874767D01*
Y628985D01*
X875783D01*
Y631017D01*
X874767D01*
Y632033D01*
X872735D01*
Y631017D01*
X871719D01*
Y628985D01*
X872735D01*
X868985Y621485D02*
Y620469D01*
X871017D01*
Y621485D01*
X872033D01*
Y623517D01*
X871017D01*
Y624533D01*
X868985D01*
Y623517D01*
X867969D01*
Y621485D01*
X868985D01*
X872735Y613985D02*
Y612969D01*
X874767D01*
Y613985D01*
X875783D01*
Y616017D01*
X874767D01*
Y617033D01*
X872735D01*
Y616017D01*
X871719D01*
Y613985D01*
X872735D01*
X868985Y606485D02*
Y605469D01*
X871017D01*
Y606485D01*
X872033D01*
Y608517D01*
X871017D01*
Y609533D01*
X868985D01*
Y608517D01*
X867969D01*
Y606485D01*
X868985D01*
X872735Y598985D02*
Y597969D01*
X874767D01*
Y598985D01*
X875783D01*
Y601017D01*
X874767D01*
Y602033D01*
X872735D01*
Y601017D01*
X871719D01*
Y598985D01*
X872735D01*
X868985Y591485D02*
Y590469D01*
X871017D01*
Y591485D01*
X872033D01*
Y593517D01*
X871017D01*
Y594533D01*
X868985D01*
Y593517D01*
X867969D01*
Y591485D01*
X868985D01*
Y561485D02*
Y560469D01*
X871017D01*
Y561485D01*
X872033D01*
Y563517D01*
X871017D01*
Y564533D01*
X868985D01*
Y563517D01*
X867969D01*
Y561485D01*
X868985D01*
X872735Y553985D02*
Y552969D01*
X874767D01*
Y553985D01*
X875783D01*
Y556017D01*
X874767D01*
Y557033D01*
X872735D01*
Y556017D01*
X871719D01*
Y553985D01*
X872735D01*
X868985Y546485D02*
Y545469D01*
X871017D01*
Y546485D01*
X872033D01*
Y548517D01*
X871017D01*
Y549533D01*
X868985D01*
Y548517D01*
X867969D01*
Y546485D01*
X868985D01*
X872735Y538985D02*
Y537969D01*
X874767D01*
Y538985D01*
X875783D01*
Y541017D01*
X874767D01*
Y542033D01*
X872735D01*
Y541017D01*
X871719D01*
Y538985D01*
X872735D01*
X868985Y531485D02*
Y530469D01*
X871017D01*
Y531485D01*
X872033D01*
Y533517D01*
X871017D01*
Y534533D01*
X868985D01*
Y533517D01*
X867969D01*
Y531485D01*
X868985D01*
X872735Y523985D02*
Y522969D01*
X874767D01*
Y523985D01*
X875783D01*
Y526017D01*
X874767D01*
Y527033D01*
X872735D01*
Y526017D01*
X871719D01*
Y523985D01*
X872735D01*
X868985Y516485D02*
Y515469D01*
X871017D01*
Y516485D01*
X872033D01*
Y518517D01*
X871017D01*
Y519533D01*
X868985D01*
Y518517D01*
X867969D01*
Y516485D01*
X868985D01*
X872735Y508985D02*
Y507969D01*
X874767D01*
Y508985D01*
X875783D01*
Y511017D01*
X874767D01*
Y512033D01*
X872735D01*
Y511017D01*
X871719D01*
Y508985D01*
X872735D01*
X861485Y741485D02*
Y740469D01*
X863517D01*
Y741485D01*
X864533D01*
Y743517D01*
X863517D01*
Y744533D01*
X861485D01*
Y743517D01*
X860469D01*
Y741485D01*
X861485D01*
X865235Y733985D02*
Y732969D01*
X867267D01*
Y733985D01*
X868283D01*
Y736017D01*
X867267D01*
Y737033D01*
X865235D01*
Y736017D01*
X864219D01*
Y733985D01*
X865235D01*
X861485Y726485D02*
Y725469D01*
X863517D01*
Y726485D01*
X864533D01*
Y728517D01*
X863517D01*
Y729533D01*
X861485D01*
Y728517D01*
X860469D01*
Y726485D01*
X861485D01*
X865235Y718985D02*
Y717969D01*
X867267D01*
Y718985D01*
X868283D01*
Y721017D01*
X867267D01*
Y722033D01*
X865235D01*
Y721017D01*
X864219D01*
Y718985D01*
X865235D01*
X861485Y696485D02*
Y695469D01*
X863517D01*
Y696485D01*
X864533D01*
Y698517D01*
X863517D01*
Y699533D01*
X861485D01*
Y698517D01*
X860469D01*
Y696485D01*
X861485D01*
X865235Y688985D02*
Y687969D01*
X867267D01*
Y688985D01*
X868283D01*
Y691017D01*
X867267D01*
Y692033D01*
X865235D01*
Y691017D01*
X864219D01*
Y688985D01*
X865235D01*
X861485Y681485D02*
Y680469D01*
X863517D01*
Y681485D01*
X864533D01*
Y683517D01*
X863517D01*
Y684533D01*
X861485D01*
Y683517D01*
X860469D01*
Y681485D01*
X861485D01*
X865235Y673985D02*
Y672969D01*
X867267D01*
Y673985D01*
X868283D01*
Y676017D01*
X867267D01*
Y677033D01*
X865235D01*
Y676017D01*
X864219D01*
Y673985D01*
X865235D01*
X861485Y666485D02*
Y665469D01*
X863517D01*
Y666485D01*
X864533D01*
Y668517D01*
X863517D01*
Y669533D01*
X861485D01*
Y668517D01*
X860469D01*
Y666485D01*
X861485D01*
X865235Y658985D02*
Y657969D01*
X867267D01*
Y658985D01*
X868283D01*
Y661017D01*
X867267D01*
Y662033D01*
X865235D01*
Y661017D01*
X864219D01*
Y658985D01*
X865235D01*
X861485Y651485D02*
Y650469D01*
X863517D01*
Y651485D01*
X864533D01*
Y653517D01*
X863517D01*
Y654533D01*
X861485D01*
Y653517D01*
X860469D01*
Y651485D01*
X861485D01*
X865235Y643985D02*
Y642969D01*
X867267D01*
Y643985D01*
X868283D01*
Y646017D01*
X867267D01*
Y647033D01*
X865235D01*
Y646017D01*
X864219D01*
Y643985D01*
X865235D01*
X861485Y636485D02*
Y635469D01*
X863517D01*
Y636485D01*
X864533D01*
Y638517D01*
X863517D01*
Y639533D01*
X861485D01*
Y638517D01*
X860469D01*
Y636485D01*
X861485D01*
X865235Y628985D02*
Y627969D01*
X867267D01*
Y628985D01*
X868283D01*
Y631017D01*
X867267D01*
Y632033D01*
X865235D01*
Y631017D01*
X864219D01*
Y628985D01*
X865235D01*
X861485Y621485D02*
Y620469D01*
X863517D01*
Y621485D01*
X864533D01*
Y623517D01*
X863517D01*
Y624533D01*
X861485D01*
Y623517D01*
X860469D01*
Y621485D01*
X861485D01*
X865235Y613985D02*
Y612969D01*
X867267D01*
Y613985D01*
X868283D01*
Y616017D01*
X867267D01*
Y617033D01*
X865235D01*
Y616017D01*
X864219D01*
Y613985D01*
X865235D01*
X861485Y576485D02*
Y575469D01*
X863517D01*
Y576485D01*
X864533D01*
Y578517D01*
X863517D01*
Y579533D01*
X861485D01*
Y578517D01*
X860469D01*
Y576485D01*
X861485D01*
X865235Y568985D02*
Y567969D01*
X867267D01*
Y568985D01*
X868283D01*
Y571017D01*
X867267D01*
Y572033D01*
X865235D01*
Y571017D01*
X864219D01*
Y568985D01*
X865235D01*
X861485Y561485D02*
Y560469D01*
X863517D01*
Y561485D01*
X864533D01*
Y563517D01*
X863517D01*
Y564533D01*
X861485D01*
Y563517D01*
X860469D01*
Y561485D01*
X861485D01*
X865235Y553985D02*
Y552969D01*
X867267D01*
Y553985D01*
X868283D01*
Y556017D01*
X867267D01*
Y557033D01*
X865235D01*
Y556017D01*
X864219D01*
Y553985D01*
X865235D01*
X861485Y546485D02*
Y545469D01*
X863517D01*
Y546485D01*
X864533D01*
Y548517D01*
X863517D01*
Y549533D01*
X861485D01*
Y548517D01*
X860469D01*
Y546485D01*
X861485D01*
X865235Y538985D02*
Y537969D01*
X867267D01*
Y538985D01*
X868283D01*
Y541017D01*
X867267D01*
Y542033D01*
X865235D01*
Y541017D01*
X864219D01*
Y538985D01*
X865235D01*
X861485Y531485D02*
Y530469D01*
X863517D01*
Y531485D01*
X864533D01*
Y533517D01*
X863517D01*
Y534533D01*
X861485D01*
Y533517D01*
X860469D01*
Y531485D01*
X861485D01*
X865235Y523985D02*
Y522969D01*
X867267D01*
Y523985D01*
X868283D01*
Y526017D01*
X867267D01*
Y527033D01*
X865235D01*
Y526017D01*
X864219D01*
Y523985D01*
X865235D01*
X861485Y516485D02*
Y515469D01*
X863517D01*
Y516485D01*
X864533D01*
Y518517D01*
X863517D01*
Y519533D01*
X861485D01*
Y518517D01*
X860469D01*
Y516485D01*
X861485D01*
X865235Y508985D02*
Y507969D01*
X867267D01*
Y508985D01*
X868283D01*
Y511017D01*
X867267D01*
Y512033D01*
X865235D01*
Y511017D01*
X864219D01*
Y508985D01*
X865235D01*
X853985Y741485D02*
Y740469D01*
X856017D01*
Y741485D01*
X857033D01*
Y743517D01*
X856017D01*
Y744533D01*
X853985D01*
Y743517D01*
X852969D01*
Y741485D01*
X853985D01*
X857735Y733985D02*
Y732969D01*
X859767D01*
Y733985D01*
X860783D01*
Y736017D01*
X859767D01*
Y737033D01*
X857735D01*
Y736017D01*
X856719D01*
Y733985D01*
X857735D01*
X853985Y726485D02*
Y725469D01*
X856017D01*
Y726485D01*
X857033D01*
Y728517D01*
X856017D01*
Y729533D01*
X853985D01*
Y728517D01*
X852969D01*
Y726485D01*
X853985D01*
X857735Y718985D02*
Y717969D01*
X859767D01*
Y718985D01*
X860783D01*
Y721017D01*
X859767D01*
Y722033D01*
X857735D01*
Y721017D01*
X856719D01*
Y718985D01*
X857735D01*
X853985Y666485D02*
Y665469D01*
X856017D01*
Y666485D01*
X857033D01*
Y668517D01*
X856017D01*
Y669533D01*
X853985D01*
Y668517D01*
X852969D01*
Y666485D01*
X853985D01*
X857735Y658985D02*
Y657969D01*
X859767D01*
Y658985D01*
X860783D01*
Y661017D01*
X859767D01*
Y662033D01*
X857735D01*
Y661017D01*
X856719D01*
Y658985D01*
X857735D01*
X853985Y651485D02*
Y650469D01*
X856017D01*
Y651485D01*
X857033D01*
Y653517D01*
X856017D01*
Y654533D01*
X853985D01*
Y653517D01*
X852969D01*
Y651485D01*
X853985D01*
X857735Y643985D02*
Y642969D01*
X859767D01*
Y643985D01*
X860783D01*
Y646017D01*
X859767D01*
Y647033D01*
X857735D01*
Y646017D01*
X856719D01*
Y643985D01*
X857735D01*
X853985Y636485D02*
Y635469D01*
X856017D01*
Y636485D01*
X857033D01*
Y638517D01*
X856017D01*
Y639533D01*
X853985D01*
Y638517D01*
X852969D01*
Y636485D01*
X853985D01*
X857735Y628985D02*
Y627969D01*
X859767D01*
Y628985D01*
X860783D01*
Y631017D01*
X859767D01*
Y632033D01*
X857735D01*
Y631017D01*
X856719D01*
Y628985D01*
X857735D01*
X853985Y621485D02*
Y620469D01*
X856017D01*
Y621485D01*
X857033D01*
Y623517D01*
X856017D01*
Y624533D01*
X853985D01*
Y623517D01*
X852969D01*
Y621485D01*
X853985D01*
X857735Y613985D02*
Y612969D01*
X859767D01*
Y613985D01*
X860783D01*
Y616017D01*
X859767D01*
Y617033D01*
X857735D01*
Y616017D01*
X856719D01*
Y613985D01*
X857735D01*
X853985Y576485D02*
Y575469D01*
X856017D01*
Y576485D01*
X857033D01*
Y578517D01*
X856017D01*
Y579533D01*
X853985D01*
Y578517D01*
X852969D01*
Y576485D01*
X853985D01*
X857735Y568985D02*
Y567969D01*
X859767D01*
Y568985D01*
X860783D01*
Y571017D01*
X859767D01*
Y572033D01*
X857735D01*
Y571017D01*
X856719D01*
Y568985D01*
X857735D01*
X853985Y561485D02*
Y560469D01*
X856017D01*
Y561485D01*
X857033D01*
Y563517D01*
X856017D01*
Y564533D01*
X853985D01*
Y563517D01*
X852969D01*
Y561485D01*
X853985D01*
X857735Y553985D02*
Y552969D01*
X859767D01*
Y553985D01*
X860783D01*
Y556017D01*
X859767D01*
Y557033D01*
X857735D01*
Y556017D01*
X856719D01*
Y553985D01*
X857735D01*
X853985Y546485D02*
Y545469D01*
X856017D01*
Y546485D01*
X857033D01*
Y548517D01*
X856017D01*
Y549533D01*
X853985D01*
Y548517D01*
X852969D01*
Y546485D01*
X853985D01*
X857735Y538985D02*
Y537969D01*
X859767D01*
Y538985D01*
X860783D01*
Y541017D01*
X859767D01*
Y542033D01*
X857735D01*
Y541017D01*
X856719D01*
Y538985D01*
X857735D01*
X853985Y531485D02*
Y530469D01*
X856017D01*
Y531485D01*
X857033D01*
Y533517D01*
X856017D01*
Y534533D01*
X853985D01*
Y533517D01*
X852969D01*
Y531485D01*
X853985D01*
X857735Y523985D02*
Y522969D01*
X859767D01*
Y523985D01*
X860783D01*
Y526017D01*
X859767D01*
Y527033D01*
X857735D01*
Y526017D01*
X856719D01*
Y523985D01*
X857735D01*
X853985Y516485D02*
Y515469D01*
X856017D01*
Y516485D01*
X857033D01*
Y518517D01*
X856017D01*
Y519533D01*
X853985D01*
Y518517D01*
X852969D01*
Y516485D01*
X853985D01*
X857735Y508985D02*
Y507969D01*
X859767D01*
Y508985D01*
X860783D01*
Y511017D01*
X859767D01*
Y512033D01*
X857735D01*
Y511017D01*
X856719D01*
Y508985D01*
X857735D01*
X846485Y741485D02*
Y740469D01*
X848517D01*
Y741485D01*
X849533D01*
Y743517D01*
X848517D01*
Y744533D01*
X846485D01*
Y743517D01*
X845469D01*
Y741485D01*
X846485D01*
X850235Y733985D02*
Y732969D01*
X852267D01*
Y733985D01*
X853283D01*
Y736017D01*
X852267D01*
Y737033D01*
X850235D01*
Y736017D01*
X849219D01*
Y733985D01*
X850235D01*
X846485Y726485D02*
Y725469D01*
X848517D01*
Y726485D01*
X849533D01*
Y728517D01*
X848517D01*
Y729533D01*
X846485D01*
Y728517D01*
X845469D01*
Y726485D01*
X846485D01*
X850235Y718985D02*
Y717969D01*
X852267D01*
Y718985D01*
X853283D01*
Y721017D01*
X852267D01*
Y722033D01*
X850235D01*
Y721017D01*
X849219D01*
Y718985D01*
X850235D01*
X846485Y711485D02*
Y710469D01*
X848517D01*
Y711485D01*
X849533D01*
Y713517D01*
X848517D01*
Y714533D01*
X846485D01*
Y713517D01*
X845469D01*
Y711485D01*
X846485D01*
Y681485D02*
Y680469D01*
X848517D01*
Y681485D01*
X849533D01*
Y683517D01*
X848517D01*
Y684533D01*
X846485D01*
Y683517D01*
X845469D01*
Y681485D01*
X846485D01*
Y666485D02*
Y665469D01*
X848517D01*
Y666485D01*
X849533D01*
Y668517D01*
X848517D01*
Y669533D01*
X846485D01*
Y668517D01*
X845469D01*
Y666485D01*
X846485D01*
X850235Y658985D02*
Y657969D01*
X852267D01*
Y658985D01*
X853283D01*
Y661017D01*
X852267D01*
Y662033D01*
X850235D01*
Y661017D01*
X849219D01*
Y658985D01*
X850235D01*
X846485Y651485D02*
Y650469D01*
X848517D01*
Y651485D01*
X849533D01*
Y653517D01*
X848517D01*
Y654533D01*
X846485D01*
Y653517D01*
X845469D01*
Y651485D01*
X846485D01*
X850235Y643985D02*
Y642969D01*
X852267D01*
Y643985D01*
X853283D01*
Y646017D01*
X852267D01*
Y647033D01*
X850235D01*
Y646017D01*
X849219D01*
Y643985D01*
X850235D01*
X846485Y636485D02*
Y635469D01*
X848517D01*
Y636485D01*
X849533D01*
Y638517D01*
X848517D01*
Y639533D01*
X846485D01*
Y638517D01*
X845469D01*
Y636485D01*
X846485D01*
X850235Y628985D02*
Y627969D01*
X852267D01*
Y628985D01*
X853283D01*
Y631017D01*
X852267D01*
Y632033D01*
X850235D01*
Y631017D01*
X849219D01*
Y628985D01*
X850235D01*
X846485Y621485D02*
Y620469D01*
X848517D01*
Y621485D01*
X849533D01*
Y623517D01*
X848517D01*
Y624533D01*
X846485D01*
Y623517D01*
X845469D01*
Y621485D01*
X846485D01*
X850235Y613985D02*
Y612969D01*
X852267D01*
Y613985D01*
X853283D01*
Y616017D01*
X852267D01*
Y617033D01*
X850235D01*
Y616017D01*
X849219D01*
Y613985D01*
X850235D01*
X846485Y576485D02*
Y575469D01*
X848517D01*
Y576485D01*
X849533D01*
Y578517D01*
X848517D01*
Y579533D01*
X846485D01*
Y578517D01*
X845469D01*
Y576485D01*
X846485D01*
X850235Y568985D02*
Y567969D01*
X852267D01*
Y568985D01*
X853283D01*
Y571017D01*
X852267D01*
Y572033D01*
X850235D01*
Y571017D01*
X849219D01*
Y568985D01*
X850235D01*
X846485Y561485D02*
Y560469D01*
X848517D01*
Y561485D01*
X849533D01*
Y563517D01*
X848517D01*
Y564533D01*
X846485D01*
Y563517D01*
X845469D01*
Y561485D01*
X846485D01*
X850235Y553985D02*
Y552969D01*
X852267D01*
Y553985D01*
X853283D01*
Y556017D01*
X852267D01*
Y557033D01*
X850235D01*
Y556017D01*
X849219D01*
Y553985D01*
X850235D01*
X846485Y546485D02*
Y545469D01*
X848517D01*
Y546485D01*
X849533D01*
Y548517D01*
X848517D01*
Y549533D01*
X846485D01*
Y548517D01*
X845469D01*
Y546485D01*
X846485D01*
X850235Y538985D02*
Y537969D01*
X852267D01*
Y538985D01*
X853283D01*
Y541017D01*
X852267D01*
Y542033D01*
X850235D01*
Y541017D01*
X849219D01*
Y538985D01*
X850235D01*
X846485Y531485D02*
Y530469D01*
X848517D01*
Y531485D01*
X849533D01*
Y533517D01*
X848517D01*
Y534533D01*
X846485D01*
Y533517D01*
X845469D01*
Y531485D01*
X846485D01*
X850235Y523985D02*
Y522969D01*
X852267D01*
Y523985D01*
X853283D01*
Y526017D01*
X852267D01*
Y527033D01*
X850235D01*
Y526017D01*
X849219D01*
Y523985D01*
X850235D01*
X846485Y516485D02*
Y515469D01*
X848517D01*
Y516485D01*
X849533D01*
Y518517D01*
X848517D01*
Y519533D01*
X846485D01*
Y518517D01*
X845469D01*
Y516485D01*
X846485D01*
X850235Y508985D02*
Y507969D01*
X852267D01*
Y508985D01*
X853283D01*
Y511017D01*
X852267D01*
Y512033D01*
X850235D01*
Y511017D01*
X849219D01*
Y508985D01*
X850235D01*
X838985Y726485D02*
Y725469D01*
X841017D01*
Y726485D01*
X842033D01*
Y728517D01*
X841017D01*
Y729533D01*
X838985D01*
Y728517D01*
X837969D01*
Y726485D01*
X838985D01*
X842735Y718985D02*
Y717969D01*
X844767D01*
Y718985D01*
X845783D01*
Y721017D01*
X844767D01*
Y722033D01*
X842735D01*
Y721017D01*
X841719D01*
Y718985D01*
X842735D01*
X838985Y711485D02*
Y710469D01*
X841017D01*
Y711485D01*
X842033D01*
Y713517D01*
X841017D01*
Y714533D01*
X838985D01*
Y713517D01*
X837969D01*
Y711485D01*
X838985D01*
X842735Y703985D02*
Y702969D01*
X844767D01*
Y703985D01*
X845783D01*
Y706017D01*
X844767D01*
Y707033D01*
X842735D01*
Y706017D01*
X841719D01*
Y703985D01*
X842735D01*
X838985Y681485D02*
Y680469D01*
X841017D01*
Y681485D01*
X842033D01*
Y683517D01*
X841017D01*
Y684533D01*
X838985D01*
Y683517D01*
X837969D01*
Y681485D01*
X838985D01*
X842735Y673985D02*
Y672969D01*
X844767D01*
Y673985D01*
X845783D01*
Y676017D01*
X844767D01*
Y677033D01*
X842735D01*
Y676017D01*
X841719D01*
Y673985D01*
X842735D01*
X838985Y666485D02*
Y665469D01*
X841017D01*
Y666485D01*
X842033D01*
Y668517D01*
X841017D01*
Y669533D01*
X838985D01*
Y668517D01*
X837969D01*
Y666485D01*
X838985D01*
X842735Y658985D02*
Y657969D01*
X844767D01*
Y658985D01*
X845783D01*
Y661017D01*
X844767D01*
Y662033D01*
X842735D01*
Y661017D01*
X841719D01*
Y658985D01*
X842735D01*
X838985Y651485D02*
Y650469D01*
X841017D01*
Y651485D01*
X842033D01*
Y653517D01*
X841017D01*
Y654533D01*
X838985D01*
Y653517D01*
X837969D01*
Y651485D01*
X838985D01*
X842735Y643985D02*
Y642969D01*
X844767D01*
Y643985D01*
X845783D01*
Y646017D01*
X844767D01*
Y647033D01*
X842735D01*
Y646017D01*
X841719D01*
Y643985D01*
X842735D01*
X838985Y636485D02*
Y635469D01*
X841017D01*
Y636485D01*
X842033D01*
Y638517D01*
X841017D01*
Y639533D01*
X838985D01*
Y638517D01*
X837969D01*
Y636485D01*
X838985D01*
X842735Y628985D02*
Y627969D01*
X844767D01*
Y628985D01*
X845783D01*
Y631017D01*
X844767D01*
Y632033D01*
X842735D01*
Y631017D01*
X841719D01*
Y628985D01*
X842735D01*
X838985Y621485D02*
Y620469D01*
X841017D01*
Y621485D01*
X842033D01*
Y623517D01*
X841017D01*
Y624533D01*
X838985D01*
Y623517D01*
X837969D01*
Y621485D01*
X838985D01*
X842735Y613985D02*
Y612969D01*
X844767D01*
Y613985D01*
X845783D01*
Y616017D01*
X844767D01*
Y617033D01*
X842735D01*
Y616017D01*
X841719D01*
Y613985D01*
X842735D01*
X838985Y606485D02*
Y605469D01*
X841017D01*
Y606485D01*
X842033D01*
Y608517D01*
X841017D01*
Y609533D01*
X838985D01*
Y608517D01*
X837969D01*
Y606485D01*
X838985D01*
Y576485D02*
Y575469D01*
X841017D01*
Y576485D01*
X842033D01*
Y578517D01*
X841017D01*
Y579533D01*
X838985D01*
Y578517D01*
X837969D01*
Y576485D01*
X838985D01*
X842735Y568985D02*
Y567969D01*
X844767D01*
Y568985D01*
X845783D01*
Y571017D01*
X844767D01*
Y572033D01*
X842735D01*
Y571017D01*
X841719D01*
Y568985D01*
X842735D01*
X838985Y561485D02*
Y560469D01*
X841017D01*
Y561485D01*
X842033D01*
Y563517D01*
X841017D01*
Y564533D01*
X838985D01*
Y563517D01*
X837969D01*
Y561485D01*
X838985D01*
X842735Y553985D02*
Y552969D01*
X844767D01*
Y553985D01*
X845783D01*
Y556017D01*
X844767D01*
Y557033D01*
X842735D01*
Y556017D01*
X841719D01*
Y553985D01*
X842735D01*
X838985Y546485D02*
Y545469D01*
X841017D01*
Y546485D01*
X842033D01*
Y548517D01*
X841017D01*
Y549533D01*
X838985D01*
Y548517D01*
X837969D01*
Y546485D01*
X838985D01*
X842735Y538985D02*
Y537969D01*
X844767D01*
Y538985D01*
X845783D01*
Y541017D01*
X844767D01*
Y542033D01*
X842735D01*
Y541017D01*
X841719D01*
Y538985D01*
X842735D01*
X838985Y531485D02*
Y530469D01*
X841017D01*
Y531485D01*
X842033D01*
Y533517D01*
X841017D01*
Y534533D01*
X838985D01*
Y533517D01*
X837969D01*
Y531485D01*
X838985D01*
X842735Y523985D02*
Y522969D01*
X844767D01*
Y523985D01*
X845783D01*
Y526017D01*
X844767D01*
Y527033D01*
X842735D01*
Y526017D01*
X841719D01*
Y523985D01*
X842735D01*
X838985Y516485D02*
Y515469D01*
X841017D01*
Y516485D01*
X842033D01*
Y518517D01*
X841017D01*
Y519533D01*
X838985D01*
Y518517D01*
X837969D01*
Y516485D01*
X838985D01*
X842735Y508985D02*
Y507969D01*
X844767D01*
Y508985D01*
X845783D01*
Y511017D01*
X844767D01*
Y512033D01*
X842735D01*
Y511017D01*
X841719D01*
Y508985D01*
X842735D01*
X835235Y718985D02*
Y717969D01*
X837267D01*
Y718985D01*
X838283D01*
Y721017D01*
X837267D01*
Y722033D01*
X835235D01*
Y721017D01*
X834219D01*
Y718985D01*
X835235D01*
X831485Y711485D02*
Y710469D01*
X833517D01*
Y711485D01*
X834533D01*
Y713517D01*
X833517D01*
Y714533D01*
X831485D01*
Y713517D01*
X830469D01*
Y711485D01*
X831485D01*
X835235Y703985D02*
Y702969D01*
X837267D01*
Y703985D01*
X838283D01*
Y706017D01*
X837267D01*
Y707033D01*
X835235D01*
Y706017D01*
X834219D01*
Y703985D01*
X835235D01*
Y673985D02*
Y672969D01*
X837267D01*
Y673985D01*
X838283D01*
Y676017D01*
X837267D01*
Y677033D01*
X835235D01*
Y676017D01*
X834219D01*
Y673985D01*
X835235D01*
X831485Y666485D02*
Y665469D01*
X833517D01*
Y666485D01*
X834533D01*
Y668517D01*
X833517D01*
Y669533D01*
X831485D01*
Y668517D01*
X830469D01*
Y666485D01*
X831485D01*
X835235Y658985D02*
Y657969D01*
X837267D01*
Y658985D01*
X838283D01*
Y661017D01*
X837267D01*
Y662033D01*
X835235D01*
Y661017D01*
X834219D01*
Y658985D01*
X835235D01*
X831485Y651485D02*
Y650469D01*
X833517D01*
Y651485D01*
X834533D01*
Y653517D01*
X833517D01*
Y654533D01*
X831485D01*
Y653517D01*
X830469D01*
Y651485D01*
X831485D01*
X835235Y643985D02*
Y642969D01*
X837267D01*
Y643985D01*
X838283D01*
Y646017D01*
X837267D01*
Y647033D01*
X835235D01*
Y646017D01*
X834219D01*
Y643985D01*
X835235D01*
X831485Y636485D02*
Y635469D01*
X833517D01*
Y636485D01*
X834533D01*
Y638517D01*
X833517D01*
Y639533D01*
X831485D01*
Y638517D01*
X830469D01*
Y636485D01*
X831485D01*
X835235Y628985D02*
Y627969D01*
X837267D01*
Y628985D01*
X838283D01*
Y631017D01*
X837267D01*
Y632033D01*
X835235D01*
Y631017D01*
X834219D01*
Y628985D01*
X835235D01*
X831485Y621485D02*
Y620469D01*
X833517D01*
Y621485D01*
X834533D01*
Y623517D01*
X833517D01*
Y624533D01*
X831485D01*
Y623517D01*
X830469D01*
Y621485D01*
X831485D01*
X835235Y613985D02*
Y612969D01*
X837267D01*
Y613985D01*
X838283D01*
Y616017D01*
X837267D01*
Y617033D01*
X835235D01*
Y616017D01*
X834219D01*
Y613985D01*
X835235D01*
X831485Y606485D02*
Y605469D01*
X833517D01*
Y606485D01*
X834533D01*
Y608517D01*
X833517D01*
Y609533D01*
X831485D01*
Y608517D01*
X830469D01*
Y606485D01*
X831485D01*
X835235Y568985D02*
Y567969D01*
X837267D01*
Y568985D01*
X838283D01*
Y571017D01*
X837267D01*
Y572033D01*
X835235D01*
Y571017D01*
X834219D01*
Y568985D01*
X835235D01*
X831485Y561485D02*
Y560469D01*
X833517D01*
Y561485D01*
X834533D01*
Y563517D01*
X833517D01*
Y564533D01*
X831485D01*
Y563517D01*
X830469D01*
Y561485D01*
X831485D01*
X835235Y553985D02*
Y552969D01*
X837267D01*
Y553985D01*
X838283D01*
Y556017D01*
X837267D01*
Y557033D01*
X835235D01*
Y556017D01*
X834219D01*
Y553985D01*
X835235D01*
X831485Y546485D02*
Y545469D01*
X833517D01*
Y546485D01*
X834533D01*
Y548517D01*
X833517D01*
Y549533D01*
X831485D01*
Y548517D01*
X830469D01*
Y546485D01*
X831485D01*
X835235Y538985D02*
Y537969D01*
X837267D01*
Y538985D01*
X838283D01*
Y541017D01*
X837267D01*
Y542033D01*
X835235D01*
Y541017D01*
X834219D01*
Y538985D01*
X835235D01*
X831485Y531485D02*
Y530469D01*
X833517D01*
Y531485D01*
X834533D01*
Y533517D01*
X833517D01*
Y534533D01*
X831485D01*
Y533517D01*
X830469D01*
Y531485D01*
X831485D01*
X835235Y523985D02*
Y522969D01*
X837267D01*
Y523985D01*
X838283D01*
Y526017D01*
X837267D01*
Y527033D01*
X835235D01*
Y526017D01*
X834219D01*
Y523985D01*
X835235D01*
Y508985D02*
Y507969D01*
X837267D01*
Y508985D01*
X838283D01*
Y511017D01*
X837267D01*
Y512033D01*
X835235D01*
Y511017D01*
X834219D01*
Y508985D01*
X835235D01*
X827735Y718985D02*
Y717969D01*
X829767D01*
Y718985D01*
X830783D01*
Y721017D01*
X829767D01*
Y722033D01*
X827735D01*
Y721017D01*
X826719D01*
Y718985D01*
X827735D01*
X823985Y711485D02*
Y710469D01*
X826017D01*
Y711485D01*
X827033D01*
Y713517D01*
X826017D01*
Y714533D01*
X823985D01*
Y713517D01*
X822969D01*
Y711485D01*
X823985D01*
X827735Y703985D02*
Y702969D01*
X829767D01*
Y703985D01*
X830783D01*
Y706017D01*
X829767D01*
Y707033D01*
X827735D01*
Y706017D01*
X826719D01*
Y703985D01*
X827735D01*
Y673985D02*
Y672969D01*
X829767D01*
Y673985D01*
X830783D01*
Y676017D01*
X829767D01*
Y677033D01*
X827735D01*
Y676017D01*
X826719D01*
Y673985D01*
X827735D01*
X823985Y666485D02*
Y665469D01*
X826017D01*
Y666485D01*
X827033D01*
Y668517D01*
X826017D01*
Y669533D01*
X823985D01*
Y668517D01*
X822969D01*
Y666485D01*
X823985D01*
X827735Y658985D02*
Y657969D01*
X829767D01*
Y658985D01*
X830783D01*
Y661017D01*
X829767D01*
Y662033D01*
X827735D01*
Y661017D01*
X826719D01*
Y658985D01*
X827735D01*
X823985Y651485D02*
Y650469D01*
X826017D01*
Y651485D01*
X827033D01*
Y653517D01*
X826017D01*
Y654533D01*
X823985D01*
Y653517D01*
X822969D01*
Y651485D01*
X823985D01*
X827735Y643985D02*
Y642969D01*
X829767D01*
Y643985D01*
X830783D01*
Y646017D01*
X829767D01*
Y647033D01*
X827735D01*
Y646017D01*
X826719D01*
Y643985D01*
X827735D01*
X823985Y636485D02*
Y635469D01*
X826017D01*
Y636485D01*
X827033D01*
Y638517D01*
X826017D01*
Y639533D01*
X823985D01*
Y638517D01*
X822969D01*
Y636485D01*
X823985D01*
X827735Y628985D02*
Y627969D01*
X829767D01*
Y628985D01*
X830783D01*
Y631017D01*
X829767D01*
Y632033D01*
X827735D01*
Y631017D01*
X826719D01*
Y628985D01*
X827735D01*
X823985Y621485D02*
Y620469D01*
X826017D01*
Y621485D01*
X827033D01*
Y623517D01*
X826017D01*
Y624533D01*
X823985D01*
Y623517D01*
X822969D01*
Y621485D01*
X823985D01*
X827735Y613985D02*
Y612969D01*
X829767D01*
Y613985D01*
X830783D01*
Y616017D01*
X829767D01*
Y617033D01*
X827735D01*
Y616017D01*
X826719D01*
Y613985D01*
X827735D01*
X823985Y606485D02*
Y605469D01*
X826017D01*
Y606485D01*
X827033D01*
Y608517D01*
X826017D01*
Y609533D01*
X823985D01*
Y608517D01*
X822969D01*
Y606485D01*
X823985D01*
X827735Y523985D02*
Y522969D01*
X829767D01*
Y523985D01*
X830783D01*
Y526017D01*
X829767D01*
Y527033D01*
X827735D01*
Y526017D01*
X826719D01*
Y523985D01*
X827735D01*
X820235Y718985D02*
Y717969D01*
X822267D01*
Y718985D01*
X823283D01*
Y721017D01*
X822267D01*
Y722033D01*
X820235D01*
Y721017D01*
X819219D01*
Y718985D01*
X820235D01*
X816485Y711485D02*
Y710469D01*
X818517D01*
Y711485D01*
X819533D01*
Y713517D01*
X818517D01*
Y714533D01*
X816485D01*
Y713517D01*
X815469D01*
Y711485D01*
X816485D01*
X820235Y703985D02*
Y702969D01*
X822267D01*
Y703985D01*
X823283D01*
Y706017D01*
X822267D01*
Y707033D01*
X820235D01*
Y706017D01*
X819219D01*
Y703985D01*
X820235D01*
Y673985D02*
Y672969D01*
X822267D01*
Y673985D01*
X823283D01*
Y676017D01*
X822267D01*
Y677033D01*
X820235D01*
Y676017D01*
X819219D01*
Y673985D01*
X820235D01*
X816485Y666485D02*
Y665469D01*
X818517D01*
Y666485D01*
X819533D01*
Y668517D01*
X818517D01*
Y669533D01*
X816485D01*
Y668517D01*
X815469D01*
Y666485D01*
X816485D01*
X820235Y658985D02*
Y657969D01*
X822267D01*
Y658985D01*
X823283D01*
Y661017D01*
X822267D01*
Y662033D01*
X820235D01*
Y661017D01*
X819219D01*
Y658985D01*
X820235D01*
X816485Y651485D02*
Y650469D01*
X818517D01*
Y651485D01*
X819533D01*
Y653517D01*
X818517D01*
Y654533D01*
X816485D01*
Y653517D01*
X815469D01*
Y651485D01*
X816485D01*
X820235Y643985D02*
Y642969D01*
X822267D01*
Y643985D01*
X823283D01*
Y646017D01*
X822267D01*
Y647033D01*
X820235D01*
Y646017D01*
X819219D01*
Y643985D01*
X820235D01*
X816485Y636485D02*
Y635469D01*
X818517D01*
Y636485D01*
X819533D01*
Y638517D01*
X818517D01*
Y639533D01*
X816485D01*
Y638517D01*
X815469D01*
Y636485D01*
X816485D01*
X820235Y628985D02*
Y627969D01*
X822267D01*
Y628985D01*
X823283D01*
Y631017D01*
X822267D01*
Y632033D01*
X820235D01*
Y631017D01*
X819219D01*
Y628985D01*
X820235D01*
X816485Y621485D02*
Y620469D01*
X818517D01*
Y621485D01*
X819533D01*
Y623517D01*
X818517D01*
Y624533D01*
X816485D01*
Y623517D01*
X815469D01*
Y621485D01*
X816485D01*
X820235Y613985D02*
Y612969D01*
X822267D01*
Y613985D01*
X823283D01*
Y616017D01*
X822267D01*
Y617033D01*
X820235D01*
Y616017D01*
X819219D01*
Y613985D01*
X820235D01*
X816485Y606485D02*
Y605469D01*
X818517D01*
Y606485D01*
X819533D01*
Y608517D01*
X818517D01*
Y609533D01*
X816485D01*
Y608517D01*
X815469D01*
Y606485D01*
X816485D01*
X820235Y583985D02*
Y582969D01*
X822267D01*
Y583985D01*
X823283D01*
Y586017D01*
X822267D01*
Y587033D01*
X820235D01*
Y586017D01*
X819219D01*
Y583985D01*
X820235D01*
X816485Y576485D02*
Y575469D01*
X818517D01*
Y576485D01*
X819533D01*
Y578517D01*
X818517D01*
Y579533D01*
X816485D01*
Y578517D01*
X815469D01*
Y576485D01*
X816485D01*
X820235Y523985D02*
Y522969D01*
X822267D01*
Y523985D01*
X823283D01*
Y526017D01*
X822267D01*
Y527033D01*
X820235D01*
Y526017D01*
X819219D01*
Y523985D01*
X820235D01*
X812735Y718985D02*
Y717969D01*
X814767D01*
Y718985D01*
X815783D01*
Y721017D01*
X814767D01*
Y722033D01*
X812735D01*
Y721017D01*
X811719D01*
Y718985D01*
X812735D01*
X808985Y711485D02*
Y710469D01*
X811017D01*
Y711485D01*
X812033D01*
Y713517D01*
X811017D01*
Y714533D01*
X808985D01*
Y713517D01*
X807969D01*
Y711485D01*
X808985D01*
X812735Y703985D02*
Y702969D01*
X814767D01*
Y703985D01*
X815783D01*
Y706017D01*
X814767D01*
Y707033D01*
X812735D01*
Y706017D01*
X811719D01*
Y703985D01*
X812735D01*
X808985Y696485D02*
Y695469D01*
X811017D01*
Y696485D01*
X812033D01*
Y698517D01*
X811017D01*
Y699533D01*
X808985D01*
Y698517D01*
X807969D01*
Y696485D01*
X808985D01*
X812735Y673985D02*
Y672969D01*
X814767D01*
Y673985D01*
X815783D01*
Y676017D01*
X814767D01*
Y677033D01*
X812735D01*
Y676017D01*
X811719D01*
Y673985D01*
X812735D01*
X808985Y666485D02*
Y665469D01*
X811017D01*
Y666485D01*
X812033D01*
Y668517D01*
X811017D01*
Y669533D01*
X808985D01*
Y668517D01*
X807969D01*
Y666485D01*
X808985D01*
X812735Y658985D02*
Y657969D01*
X814767D01*
Y658985D01*
X815783D01*
Y661017D01*
X814767D01*
Y662033D01*
X812735D01*
Y661017D01*
X811719D01*
Y658985D01*
X812735D01*
X808985Y651485D02*
Y650469D01*
X811017D01*
Y651485D01*
X812033D01*
Y653517D01*
X811017D01*
Y654533D01*
X808985D01*
Y653517D01*
X807969D01*
Y651485D01*
X808985D01*
X812735Y643985D02*
Y642969D01*
X814767D01*
Y643985D01*
X815783D01*
Y646017D01*
X814767D01*
Y647033D01*
X812735D01*
Y646017D01*
X811719D01*
Y643985D01*
X812735D01*
X808985Y636485D02*
Y635469D01*
X811017D01*
Y636485D01*
X812033D01*
Y638517D01*
X811017D01*
Y639533D01*
X808985D01*
Y638517D01*
X807969D01*
Y636485D01*
X808985D01*
X812735Y628985D02*
Y627969D01*
X814767D01*
Y628985D01*
X815783D01*
Y631017D01*
X814767D01*
Y632033D01*
X812735D01*
Y631017D01*
X811719D01*
Y628985D01*
X812735D01*
X808985Y621485D02*
Y620469D01*
X811017D01*
Y621485D01*
X812033D01*
Y623517D01*
X811017D01*
Y624533D01*
X808985D01*
Y623517D01*
X807969D01*
Y621485D01*
X808985D01*
X812735Y613985D02*
Y612969D01*
X814767D01*
Y613985D01*
X815783D01*
Y616017D01*
X814767D01*
Y617033D01*
X812735D01*
Y616017D01*
X811719D01*
Y613985D01*
X812735D01*
X808985Y606485D02*
Y605469D01*
X811017D01*
Y606485D01*
X812033D01*
Y608517D01*
X811017D01*
Y609533D01*
X808985D01*
Y608517D01*
X807969D01*
Y606485D01*
X808985D01*
X812735Y583985D02*
Y582969D01*
X814767D01*
Y583985D01*
X815783D01*
Y586017D01*
X814767D01*
Y587033D01*
X812735D01*
Y586017D01*
X811719D01*
Y583985D01*
X812735D01*
Y568985D02*
Y567969D01*
X814767D01*
Y568985D01*
X815783D01*
Y571017D01*
X814767D01*
Y572033D01*
X812735D01*
Y571017D01*
X811719D01*
Y568985D01*
X812735D01*
Y553985D02*
Y552969D01*
X814767D01*
Y553985D01*
X815783D01*
Y556017D01*
X814767D01*
Y557033D01*
X812735D01*
Y556017D01*
X811719D01*
Y553985D01*
X812735D01*
X808985Y546485D02*
Y545469D01*
X811017D01*
Y546485D01*
X812033D01*
Y548517D01*
X811017D01*
Y549533D01*
X808985D01*
Y548517D01*
X807969D01*
Y546485D01*
X808985D01*
X812735Y538985D02*
Y537969D01*
X814767D01*
Y538985D01*
X815783D01*
Y541017D01*
X814767D01*
Y542033D01*
X812735D01*
Y541017D01*
X811719D01*
Y538985D01*
X812735D01*
X805235Y718985D02*
Y717969D01*
X807267D01*
Y718985D01*
X808283D01*
Y721017D01*
X807267D01*
Y722033D01*
X805235D01*
Y721017D01*
X804219D01*
Y718985D01*
X805235D01*
X801485Y711485D02*
Y710469D01*
X803517D01*
Y711485D01*
X804533D01*
Y713517D01*
X803517D01*
Y714533D01*
X801485D01*
Y713517D01*
X800469D01*
Y711485D01*
X801485D01*
X805235Y703985D02*
Y702969D01*
X807267D01*
Y703985D01*
X808283D01*
Y706017D01*
X807267D01*
Y707033D01*
X805235D01*
Y706017D01*
X804219D01*
Y703985D01*
X805235D01*
X801485Y666485D02*
Y665469D01*
X803517D01*
Y666485D01*
X804533D01*
Y668517D01*
X803517D01*
Y669533D01*
X801485D01*
Y668517D01*
X800469D01*
Y666485D01*
X801485D01*
X805235Y658985D02*
Y657969D01*
X807267D01*
Y658985D01*
X808283D01*
Y661017D01*
X807267D01*
Y662033D01*
X805235D01*
Y661017D01*
X804219D01*
Y658985D01*
X805235D01*
X801485Y651485D02*
Y650469D01*
X803517D01*
Y651485D01*
X804533D01*
Y653517D01*
X803517D01*
Y654533D01*
X801485D01*
Y653517D01*
X800469D01*
Y651485D01*
X801485D01*
X805235Y643985D02*
Y642969D01*
X807267D01*
Y643985D01*
X808283D01*
Y646017D01*
X807267D01*
Y647033D01*
X805235D01*
Y646017D01*
X804219D01*
Y643985D01*
X805235D01*
X801485Y636485D02*
Y635469D01*
X803517D01*
Y636485D01*
X804533D01*
Y638517D01*
X803517D01*
Y639533D01*
X801485D01*
Y638517D01*
X800469D01*
Y636485D01*
X801485D01*
X805235Y628985D02*
Y627969D01*
X807267D01*
Y628985D01*
X808283D01*
Y631017D01*
X807267D01*
Y632033D01*
X805235D01*
Y631017D01*
X804219D01*
Y628985D01*
X805235D01*
X801485Y621485D02*
Y620469D01*
X803517D01*
Y621485D01*
X804533D01*
Y623517D01*
X803517D01*
Y624533D01*
X801485D01*
Y623517D01*
X800469D01*
Y621485D01*
X801485D01*
X805235Y613985D02*
Y612969D01*
X807267D01*
Y613985D01*
X808283D01*
Y616017D01*
X807267D01*
Y617033D01*
X805235D01*
Y616017D01*
X804219D01*
Y613985D01*
X805235D01*
X801485Y606485D02*
Y605469D01*
X803517D01*
Y606485D01*
X804533D01*
Y608517D01*
X803517D01*
Y609533D01*
X801485D01*
Y608517D01*
X800469D01*
Y606485D01*
X801485D01*
X805235Y583985D02*
Y582969D01*
X807267D01*
Y583985D01*
X808283D01*
Y586017D01*
X807267D01*
Y587033D01*
X805235D01*
Y586017D01*
X804219D01*
Y583985D01*
X805235D01*
Y553985D02*
Y552969D01*
X807267D01*
Y553985D01*
X808283D01*
Y556017D01*
X807267D01*
Y557033D01*
X805235D01*
Y556017D01*
X804219D01*
Y553985D01*
X805235D01*
X801485Y546485D02*
Y545469D01*
X803517D01*
Y546485D01*
X804533D01*
Y548517D01*
X803517D01*
Y549533D01*
X801485D01*
Y548517D01*
X800469D01*
Y546485D01*
X801485D01*
X797735Y718985D02*
Y717969D01*
X799767D01*
Y718985D01*
X800783D01*
Y721017D01*
X799767D01*
Y722033D01*
X797735D01*
Y721017D01*
X796719D01*
Y718985D01*
X797735D01*
X793985Y666485D02*
Y665469D01*
X796017D01*
Y666485D01*
X797033D01*
Y668517D01*
X796017D01*
Y669533D01*
X793985D01*
Y668517D01*
X792969D01*
Y666485D01*
X793985D01*
X797735Y658985D02*
Y657969D01*
X799767D01*
Y658985D01*
X800783D01*
Y661017D01*
X799767D01*
Y662033D01*
X797735D01*
Y661017D01*
X796719D01*
Y658985D01*
X797735D01*
X793985Y651485D02*
Y650469D01*
X796017D01*
Y651485D01*
X797033D01*
Y653517D01*
X796017D01*
Y654533D01*
X793985D01*
Y653517D01*
X792969D01*
Y651485D01*
X793985D01*
X797735Y643985D02*
Y642969D01*
X799767D01*
Y643985D01*
X800783D01*
Y646017D01*
X799767D01*
Y647033D01*
X797735D01*
Y646017D01*
X796719D01*
Y643985D01*
X797735D01*
X793985Y636485D02*
Y635469D01*
X796017D01*
Y636485D01*
X797033D01*
Y638517D01*
X796017D01*
Y639533D01*
X793985D01*
Y638517D01*
X792969D01*
Y636485D01*
X793985D01*
X797735Y628985D02*
Y627969D01*
X799767D01*
Y628985D01*
X800783D01*
Y631017D01*
X799767D01*
Y632033D01*
X797735D01*
Y631017D01*
X796719D01*
Y628985D01*
X797735D01*
X793985Y621485D02*
Y620469D01*
X796017D01*
Y621485D01*
X797033D01*
Y623517D01*
X796017D01*
Y624533D01*
X793985D01*
Y623517D01*
X792969D01*
Y621485D01*
X793985D01*
X797735Y613985D02*
Y612969D01*
X799767D01*
Y613985D01*
X800783D01*
Y616017D01*
X799767D01*
Y617033D01*
X797735D01*
Y616017D01*
X796719D01*
Y613985D01*
X797735D01*
X793985Y606485D02*
Y605469D01*
X796017D01*
Y606485D01*
X797033D01*
Y608517D01*
X796017D01*
Y609533D01*
X793985D01*
Y608517D01*
X792969D01*
Y606485D01*
X793985D01*
X797735Y583985D02*
Y582969D01*
X799767D01*
Y583985D01*
X800783D01*
Y586017D01*
X799767D01*
Y587033D01*
X797735D01*
Y586017D01*
X796719D01*
Y583985D01*
X797735D01*
X793985Y576485D02*
Y575469D01*
X796017D01*
Y576485D01*
X797033D01*
Y578517D01*
X796017D01*
Y579533D01*
X793985D01*
Y578517D01*
X792969D01*
Y576485D01*
X793985D01*
Y561485D02*
Y560469D01*
X796017D01*
Y561485D01*
X797033D01*
Y563517D01*
X796017D01*
Y564533D01*
X793985D01*
Y563517D01*
X792969D01*
Y561485D01*
X793985D01*
X797735Y553985D02*
Y552969D01*
X799767D01*
Y553985D01*
X800783D01*
Y556017D01*
X799767D01*
Y557033D01*
X797735D01*
Y556017D01*
X796719D01*
Y553985D01*
X797735D01*
X793985Y546485D02*
Y545469D01*
X796017D01*
Y546485D01*
X797033D01*
Y548517D01*
X796017D01*
Y549533D01*
X793985D01*
Y548517D01*
X792969D01*
Y546485D01*
X793985D01*
Y516485D02*
Y515469D01*
X796017D01*
Y516485D01*
X797033D01*
Y518517D01*
X796017D01*
Y519533D01*
X793985D01*
Y518517D01*
X792969D01*
Y516485D01*
X793985D01*
X797735Y508985D02*
Y507969D01*
X799767D01*
Y508985D01*
X800783D01*
Y511017D01*
X799767D01*
Y512033D01*
X797735D01*
Y511017D01*
X796719D01*
Y508985D01*
X797735D01*
X790235Y718985D02*
Y717969D01*
X792267D01*
Y718985D01*
X793283D01*
Y721017D01*
X792267D01*
Y722033D01*
X790235D01*
Y721017D01*
X789219D01*
Y718985D01*
X790235D01*
X786485Y696485D02*
Y695469D01*
X788517D01*
Y696485D01*
X789533D01*
Y698517D01*
X788517D01*
Y699533D01*
X786485D01*
Y698517D01*
X785469D01*
Y696485D01*
X786485D01*
Y681485D02*
Y680469D01*
X788517D01*
Y681485D01*
X789533D01*
Y683517D01*
X788517D01*
Y684533D01*
X786485D01*
Y683517D01*
X785469D01*
Y681485D01*
X786485D01*
X790235Y673985D02*
Y672969D01*
X792267D01*
Y673985D01*
X793283D01*
Y676017D01*
X792267D01*
Y677033D01*
X790235D01*
Y676017D01*
X789219D01*
Y673985D01*
X790235D01*
X786485Y666485D02*
Y665469D01*
X788517D01*
Y666485D01*
X789533D01*
Y668517D01*
X788517D01*
Y669533D01*
X786485D01*
Y668517D01*
X785469D01*
Y666485D01*
X786485D01*
X790235Y658985D02*
Y657969D01*
X792267D01*
Y658985D01*
X793283D01*
Y661017D01*
X792267D01*
Y662033D01*
X790235D01*
Y661017D01*
X789219D01*
Y658985D01*
X790235D01*
X786485Y651485D02*
Y650469D01*
X788517D01*
Y651485D01*
X789533D01*
Y653517D01*
X788517D01*
Y654533D01*
X786485D01*
Y653517D01*
X785469D01*
Y651485D01*
X786485D01*
X790235Y643985D02*
Y642969D01*
X792267D01*
Y643985D01*
X793283D01*
Y646017D01*
X792267D01*
Y647033D01*
X790235D01*
Y646017D01*
X789219D01*
Y643985D01*
X790235D01*
X786485Y636485D02*
Y635469D01*
X788517D01*
Y636485D01*
X789533D01*
Y638517D01*
X788517D01*
Y639533D01*
X786485D01*
Y638517D01*
X785469D01*
Y636485D01*
X786485D01*
X790235Y628985D02*
Y627969D01*
X792267D01*
Y628985D01*
X793283D01*
Y631017D01*
X792267D01*
Y632033D01*
X790235D01*
Y631017D01*
X789219D01*
Y628985D01*
X790235D01*
X786485Y621485D02*
Y620469D01*
X788517D01*
Y621485D01*
X789533D01*
Y623517D01*
X788517D01*
Y624533D01*
X786485D01*
Y623517D01*
X785469D01*
Y621485D01*
X786485D01*
X790235Y613985D02*
Y612969D01*
X792267D01*
Y613985D01*
X793283D01*
Y616017D01*
X792267D01*
Y617033D01*
X790235D01*
Y616017D01*
X789219D01*
Y613985D01*
X790235D01*
X786485Y606485D02*
Y605469D01*
X788517D01*
Y606485D01*
X789533D01*
Y608517D01*
X788517D01*
Y609533D01*
X786485D01*
Y608517D01*
X785469D01*
Y606485D01*
X786485D01*
X790235Y583985D02*
Y582969D01*
X792267D01*
Y583985D01*
X793283D01*
Y586017D01*
X792267D01*
Y587033D01*
X790235D01*
Y586017D01*
X789219D01*
Y583985D01*
X790235D01*
Y553985D02*
Y552969D01*
X792267D01*
Y553985D01*
X793283D01*
Y556017D01*
X792267D01*
Y557033D01*
X790235D01*
Y556017D01*
X789219D01*
Y553985D01*
X790235D01*
X786485Y546485D02*
Y545469D01*
X788517D01*
Y546485D01*
X789533D01*
Y548517D01*
X788517D01*
Y549533D01*
X786485D01*
Y548517D01*
X785469D01*
Y546485D01*
X786485D01*
X790235Y538985D02*
Y537969D01*
X792267D01*
Y538985D01*
X793283D01*
Y541017D01*
X792267D01*
Y542033D01*
X790235D01*
Y541017D01*
X789219D01*
Y538985D01*
X790235D01*
X786485Y516485D02*
Y515469D01*
X788517D01*
Y516485D01*
X789533D01*
Y518517D01*
X788517D01*
Y519533D01*
X786485D01*
Y518517D01*
X785469D01*
Y516485D01*
X786485D01*
X790235Y508985D02*
Y507969D01*
X792267D01*
Y508985D01*
X793283D01*
Y511017D01*
X792267D01*
Y512033D01*
X790235D01*
Y511017D01*
X789219D01*
Y508985D01*
X790235D01*
X782735Y718985D02*
Y717969D01*
X784767D01*
Y718985D01*
X785783D01*
Y721017D01*
X784767D01*
Y722033D01*
X782735D01*
Y721017D01*
X781719D01*
Y718985D01*
X782735D01*
X778985Y696485D02*
Y695469D01*
X781017D01*
Y696485D01*
X782033D01*
Y698517D01*
X781017D01*
Y699533D01*
X778985D01*
Y698517D01*
X777969D01*
Y696485D01*
X778985D01*
X782735Y688985D02*
Y687969D01*
X784767D01*
Y688985D01*
X785783D01*
Y691017D01*
X784767D01*
Y692033D01*
X782735D01*
Y691017D01*
X781719D01*
Y688985D01*
X782735D01*
X778985Y681485D02*
Y680469D01*
X781017D01*
Y681485D01*
X782033D01*
Y683517D01*
X781017D01*
Y684533D01*
X778985D01*
Y683517D01*
X777969D01*
Y681485D01*
X778985D01*
X782735Y673985D02*
Y672969D01*
X784767D01*
Y673985D01*
X785783D01*
Y676017D01*
X784767D01*
Y677033D01*
X782735D01*
Y676017D01*
X781719D01*
Y673985D01*
X782735D01*
X778985Y666485D02*
Y665469D01*
X781017D01*
Y666485D01*
X782033D01*
Y668517D01*
X781017D01*
Y669533D01*
X778985D01*
Y668517D01*
X777969D01*
Y666485D01*
X778985D01*
X782735Y658985D02*
Y657969D01*
X784767D01*
Y658985D01*
X785783D01*
Y661017D01*
X784767D01*
Y662033D01*
X782735D01*
Y661017D01*
X781719D01*
Y658985D01*
X782735D01*
X778985Y651485D02*
Y650469D01*
X781017D01*
Y651485D01*
X782033D01*
Y653517D01*
X781017D01*
Y654533D01*
X778985D01*
Y653517D01*
X777969D01*
Y651485D01*
X778985D01*
X782735Y643985D02*
Y642969D01*
X784767D01*
Y643985D01*
X785783D01*
Y646017D01*
X784767D01*
Y647033D01*
X782735D01*
Y646017D01*
X781719D01*
Y643985D01*
X782735D01*
X778985Y636485D02*
Y635469D01*
X781017D01*
Y636485D01*
X782033D01*
Y638517D01*
X781017D01*
Y639533D01*
X778985D01*
Y638517D01*
X777969D01*
Y636485D01*
X778985D01*
X782735Y628985D02*
Y627969D01*
X784767D01*
Y628985D01*
X785783D01*
Y631017D01*
X784767D01*
Y632033D01*
X782735D01*
Y631017D01*
X781719D01*
Y628985D01*
X782735D01*
X778985Y621485D02*
Y620469D01*
X781017D01*
Y621485D01*
X782033D01*
Y623517D01*
X781017D01*
Y624533D01*
X778985D01*
Y623517D01*
X777969D01*
Y621485D01*
X778985D01*
X782735Y613985D02*
Y612969D01*
X784767D01*
Y613985D01*
X785783D01*
Y616017D01*
X784767D01*
Y617033D01*
X782735D01*
Y616017D01*
X781719D01*
Y613985D01*
X782735D01*
X778985Y606485D02*
Y605469D01*
X781017D01*
Y606485D01*
X782033D01*
Y608517D01*
X781017D01*
Y609533D01*
X778985D01*
Y608517D01*
X777969D01*
Y606485D01*
X778985D01*
X782735Y583985D02*
Y582969D01*
X784767D01*
Y583985D01*
X785783D01*
Y586017D01*
X784767D01*
Y587033D01*
X782735D01*
Y586017D01*
X781719D01*
Y583985D01*
X782735D01*
X778985Y576485D02*
Y575469D01*
X781017D01*
Y576485D01*
X782033D01*
Y578517D01*
X781017D01*
Y579533D01*
X778985D01*
Y578517D01*
X777969D01*
Y576485D01*
X778985D01*
Y561485D02*
Y560469D01*
X781017D01*
Y561485D01*
X782033D01*
Y563517D01*
X781017D01*
Y564533D01*
X778985D01*
Y563517D01*
X777969D01*
Y561485D01*
X778985D01*
X782735Y553985D02*
Y552969D01*
X784767D01*
Y553985D01*
X785783D01*
Y556017D01*
X784767D01*
Y557033D01*
X782735D01*
Y556017D01*
X781719D01*
Y553985D01*
X782735D01*
X778985Y546485D02*
Y545469D01*
X781017D01*
Y546485D01*
X782033D01*
Y548517D01*
X781017D01*
Y549533D01*
X778985D01*
Y548517D01*
X777969D01*
Y546485D01*
X778985D01*
X782735Y538985D02*
Y537969D01*
X784767D01*
Y538985D01*
X785783D01*
Y541017D01*
X784767D01*
Y542033D01*
X782735D01*
Y541017D01*
X781719D01*
Y538985D01*
X782735D01*
X778985Y516485D02*
Y515469D01*
X781017D01*
Y516485D01*
X782033D01*
Y518517D01*
X781017D01*
Y519533D01*
X778985D01*
Y518517D01*
X777969D01*
Y516485D01*
X778985D01*
X782735Y508985D02*
Y507969D01*
X784767D01*
Y508985D01*
X785783D01*
Y511017D01*
X784767D01*
Y512033D01*
X782735D01*
Y511017D01*
X781719D01*
Y508985D01*
X782735D01*
X775235Y718985D02*
Y717969D01*
X777267D01*
Y718985D01*
X778283D01*
Y721017D01*
X777267D01*
Y722033D01*
X775235D01*
Y721017D01*
X774219D01*
Y718985D01*
X775235D01*
Y688985D02*
Y687969D01*
X777267D01*
Y688985D01*
X778283D01*
Y691017D01*
X777267D01*
Y692033D01*
X775235D01*
Y691017D01*
X774219D01*
Y688985D01*
X775235D01*
X771485Y681485D02*
Y680469D01*
X773517D01*
Y681485D01*
X774533D01*
Y683517D01*
X773517D01*
Y684533D01*
X771485D01*
Y683517D01*
X770469D01*
Y681485D01*
X771485D01*
X775235Y673985D02*
Y672969D01*
X777267D01*
Y673985D01*
X778283D01*
Y676017D01*
X777267D01*
Y677033D01*
X775235D01*
Y676017D01*
X774219D01*
Y673985D01*
X775235D01*
X771485Y666485D02*
Y665469D01*
X773517D01*
Y666485D01*
X774533D01*
Y668517D01*
X773517D01*
Y669533D01*
X771485D01*
Y668517D01*
X770469D01*
Y666485D01*
X771485D01*
X775235Y658985D02*
Y657969D01*
X777267D01*
Y658985D01*
X778283D01*
Y661017D01*
X777267D01*
Y662033D01*
X775235D01*
Y661017D01*
X774219D01*
Y658985D01*
X775235D01*
X771485Y651485D02*
Y650469D01*
X773517D01*
Y651485D01*
X774533D01*
Y653517D01*
X773517D01*
Y654533D01*
X771485D01*
Y653517D01*
X770469D01*
Y651485D01*
X771485D01*
X775235Y643985D02*
Y642969D01*
X777267D01*
Y643985D01*
X778283D01*
Y646017D01*
X777267D01*
Y647033D01*
X775235D01*
Y646017D01*
X774219D01*
Y643985D01*
X775235D01*
X771485Y636485D02*
Y635469D01*
X773517D01*
Y636485D01*
X774533D01*
Y638517D01*
X773517D01*
Y639533D01*
X771485D01*
Y638517D01*
X770469D01*
Y636485D01*
X771485D01*
X775235Y628985D02*
Y627969D01*
X777267D01*
Y628985D01*
X778283D01*
Y631017D01*
X777267D01*
Y632033D01*
X775235D01*
Y631017D01*
X774219D01*
Y628985D01*
X775235D01*
X771485Y621485D02*
Y620469D01*
X773517D01*
Y621485D01*
X774533D01*
Y623517D01*
X773517D01*
Y624533D01*
X771485D01*
Y623517D01*
X770469D01*
Y621485D01*
X771485D01*
X775235Y613985D02*
Y612969D01*
X777267D01*
Y613985D01*
X778283D01*
Y616017D01*
X777267D01*
Y617033D01*
X775235D01*
Y616017D01*
X774219D01*
Y613985D01*
X775235D01*
X771485Y606485D02*
Y605469D01*
X773517D01*
Y606485D01*
X774533D01*
Y608517D01*
X773517D01*
Y609533D01*
X771485D01*
Y608517D01*
X770469D01*
Y606485D01*
X771485D01*
X775235Y583985D02*
Y582969D01*
X777267D01*
Y583985D01*
X778283D01*
Y586017D01*
X777267D01*
Y587033D01*
X775235D01*
Y586017D01*
X774219D01*
Y583985D01*
X775235D01*
Y553985D02*
Y552969D01*
X777267D01*
Y553985D01*
X778283D01*
Y556017D01*
X777267D01*
Y557033D01*
X775235D01*
Y556017D01*
X774219D01*
Y553985D01*
X775235D01*
X771485Y546485D02*
Y545469D01*
X773517D01*
Y546485D01*
X774533D01*
Y548517D01*
X773517D01*
Y549533D01*
X771485D01*
Y548517D01*
X770469D01*
Y546485D01*
X771485D01*
X775235Y508985D02*
Y507969D01*
X777267D01*
Y508985D01*
X778283D01*
Y511017D01*
X777267D01*
Y512033D01*
X775235D01*
Y511017D01*
X774219D01*
Y508985D01*
X775235D01*
X763985Y741485D02*
Y740469D01*
X766017D01*
Y741485D01*
X767033D01*
Y743517D01*
X766017D01*
Y744533D01*
X763985D01*
Y743517D01*
X762969D01*
Y741485D01*
X763985D01*
X767735Y718985D02*
Y717969D01*
X769767D01*
Y718985D01*
X770783D01*
Y721017D01*
X769767D01*
Y722033D01*
X767735D01*
Y721017D01*
X766719D01*
Y718985D01*
X767735D01*
X763985Y711485D02*
Y710469D01*
X766017D01*
Y711485D01*
X767033D01*
Y713517D01*
X766017D01*
Y714533D01*
X763985D01*
Y713517D01*
X762969D01*
Y711485D01*
X763985D01*
Y666485D02*
Y665469D01*
X766017D01*
Y666485D01*
X767033D01*
Y668517D01*
X766017D01*
Y669533D01*
X763985D01*
Y668517D01*
X762969D01*
Y666485D01*
X763985D01*
X767735Y658985D02*
Y657969D01*
X769767D01*
Y658985D01*
X770783D01*
Y661017D01*
X769767D01*
Y662033D01*
X767735D01*
Y661017D01*
X766719D01*
Y658985D01*
X767735D01*
X763985Y651485D02*
Y650469D01*
X766017D01*
Y651485D01*
X767033D01*
Y653517D01*
X766017D01*
Y654533D01*
X763985D01*
Y653517D01*
X762969D01*
Y651485D01*
X763985D01*
X767735Y643985D02*
Y642969D01*
X769767D01*
Y643985D01*
X770783D01*
Y646017D01*
X769767D01*
Y647033D01*
X767735D01*
Y646017D01*
X766719D01*
Y643985D01*
X767735D01*
Y628985D02*
Y627969D01*
X769767D01*
Y628985D01*
X770783D01*
Y631017D01*
X769767D01*
Y632033D01*
X767735D01*
Y631017D01*
X766719D01*
Y628985D01*
X767735D01*
X763985Y621485D02*
Y620469D01*
X766017D01*
Y621485D01*
X767033D01*
Y623517D01*
X766017D01*
Y624533D01*
X763985D01*
Y623517D01*
X762969D01*
Y621485D01*
X763985D01*
X767735Y613985D02*
Y612969D01*
X769767D01*
Y613985D01*
X770783D01*
Y616017D01*
X769767D01*
Y617033D01*
X767735D01*
Y616017D01*
X766719D01*
Y613985D01*
X767735D01*
X763985Y606485D02*
Y605469D01*
X766017D01*
Y606485D01*
X767033D01*
Y608517D01*
X766017D01*
Y609533D01*
X763985D01*
Y608517D01*
X762969D01*
Y606485D01*
X763985D01*
X767735Y583985D02*
Y582969D01*
X769767D01*
Y583985D01*
X770783D01*
Y586017D01*
X769767D01*
Y587033D01*
X767735D01*
Y586017D01*
X766719D01*
Y583985D01*
X767735D01*
Y553985D02*
Y552969D01*
X769767D01*
Y553985D01*
X770783D01*
Y556017D01*
X769767D01*
Y557033D01*
X767735D01*
Y556017D01*
X766719D01*
Y553985D01*
X767735D01*
X763985Y546485D02*
Y545469D01*
X766017D01*
Y546485D01*
X767033D01*
Y548517D01*
X766017D01*
Y549533D01*
X763985D01*
Y548517D01*
X762969D01*
Y546485D01*
X763985D01*
X767735Y508985D02*
Y507969D01*
X769767D01*
Y508985D01*
X770783D01*
Y511017D01*
X769767D01*
Y512033D01*
X767735D01*
Y511017D01*
X766719D01*
Y508985D01*
X767735D01*
X756485Y741485D02*
Y740469D01*
X758517D01*
Y741485D01*
X759533D01*
Y743517D01*
X758517D01*
Y744533D01*
X756485D01*
Y743517D01*
X755469D01*
Y741485D01*
X756485D01*
Y681485D02*
Y680469D01*
X758517D01*
Y681485D01*
X759533D01*
Y683517D01*
X758517D01*
Y684533D01*
X756485D01*
Y683517D01*
X755469D01*
Y681485D01*
X756485D01*
Y666485D02*
Y665469D01*
X758517D01*
Y666485D01*
X759533D01*
Y668517D01*
X758517D01*
Y669533D01*
X756485D01*
Y668517D01*
X755469D01*
Y666485D01*
X756485D01*
X760235Y658985D02*
Y657969D01*
X762267D01*
Y658985D01*
X763283D01*
Y661017D01*
X762267D01*
Y662033D01*
X760235D01*
Y661017D01*
X759219D01*
Y658985D01*
X760235D01*
Y628985D02*
Y627969D01*
X762267D01*
Y628985D01*
X763283D01*
Y631017D01*
X762267D01*
Y632033D01*
X760235D01*
Y631017D01*
X759219D01*
Y628985D01*
X760235D01*
X756485Y621485D02*
Y620469D01*
X758517D01*
Y621485D01*
X759533D01*
Y623517D01*
X758517D01*
Y624533D01*
X756485D01*
Y623517D01*
X755469D01*
Y621485D01*
X756485D01*
X760235Y613985D02*
Y612969D01*
X762267D01*
Y613985D01*
X763283D01*
Y616017D01*
X762267D01*
Y617033D01*
X760235D01*
Y616017D01*
X759219D01*
Y613985D01*
X760235D01*
X756485Y606485D02*
Y605469D01*
X758517D01*
Y606485D01*
X759533D01*
Y608517D01*
X758517D01*
Y609533D01*
X756485D01*
Y608517D01*
X755469D01*
Y606485D01*
X756485D01*
X760235Y583985D02*
Y582969D01*
X762267D01*
Y583985D01*
X763283D01*
Y586017D01*
X762267D01*
Y587033D01*
X760235D01*
Y586017D01*
X759219D01*
Y583985D01*
X760235D01*
X756485Y576485D02*
Y575469D01*
X758517D01*
Y576485D01*
X759533D01*
Y578517D01*
X758517D01*
Y579533D01*
X756485D01*
Y578517D01*
X755469D01*
Y576485D01*
X756485D01*
Y561485D02*
Y560469D01*
X758517D01*
Y561485D01*
X759533D01*
Y563517D01*
X758517D01*
Y564533D01*
X756485D01*
Y563517D01*
X755469D01*
Y561485D01*
X756485D01*
X760235Y553985D02*
Y552969D01*
X762267D01*
Y553985D01*
X763283D01*
Y556017D01*
X762267D01*
Y557033D01*
X760235D01*
Y556017D01*
X759219D01*
Y553985D01*
X760235D01*
X756485Y546485D02*
Y545469D01*
X758517D01*
Y546485D01*
X759533D01*
Y548517D01*
X758517D01*
Y549533D01*
X756485D01*
Y548517D01*
X755469D01*
Y546485D01*
X756485D01*
X760235Y538985D02*
Y537969D01*
X762267D01*
Y538985D01*
X763283D01*
Y541017D01*
X762267D01*
Y542033D01*
X760235D01*
Y541017D01*
X759219D01*
Y538985D01*
X760235D01*
X756485Y516485D02*
Y515469D01*
X758517D01*
Y516485D01*
X759533D01*
Y518517D01*
X758517D01*
Y519533D01*
X756485D01*
Y518517D01*
X755469D01*
Y516485D01*
X756485D01*
X760235Y508985D02*
Y507969D01*
X762267D01*
Y508985D01*
X763283D01*
Y511017D01*
X762267D01*
Y512033D01*
X760235D01*
Y511017D01*
X759219D01*
Y508985D01*
X760235D01*
X748985Y741485D02*
Y740469D01*
X751017D01*
Y741485D01*
X752033D01*
Y743517D01*
X751017D01*
Y744533D01*
X748985D01*
Y743517D01*
X747969D01*
Y741485D01*
X748985D01*
X752735Y703985D02*
Y702969D01*
X754767D01*
Y703985D01*
X755783D01*
Y706017D01*
X754767D01*
Y707033D01*
X752735D01*
Y706017D01*
X751719D01*
Y703985D01*
X752735D01*
X748985Y681485D02*
Y680469D01*
X751017D01*
Y681485D01*
X752033D01*
Y683517D01*
X751017D01*
Y684533D01*
X748985D01*
Y683517D01*
X747969D01*
Y681485D01*
X748985D01*
X752735Y673985D02*
Y672969D01*
X754767D01*
Y673985D01*
X755783D01*
Y676017D01*
X754767D01*
Y677033D01*
X752735D01*
Y676017D01*
X751719D01*
Y673985D01*
X752735D01*
Y628985D02*
Y627969D01*
X754767D01*
Y628985D01*
X755783D01*
Y631017D01*
X754767D01*
Y632033D01*
X752735D01*
Y631017D01*
X751719D01*
Y628985D01*
X752735D01*
X748985Y621485D02*
Y620469D01*
X751017D01*
Y621485D01*
X752033D01*
Y623517D01*
X751017D01*
Y624533D01*
X748985D01*
Y623517D01*
X747969D01*
Y621485D01*
X748985D01*
X752735Y613985D02*
Y612969D01*
X754767D01*
Y613985D01*
X755783D01*
Y616017D01*
X754767D01*
Y617033D01*
X752735D01*
Y616017D01*
X751719D01*
Y613985D01*
X752735D01*
X748985Y606485D02*
Y605469D01*
X751017D01*
Y606485D01*
X752033D01*
Y608517D01*
X751017D01*
Y609533D01*
X748985D01*
Y608517D01*
X747969D01*
Y606485D01*
X748985D01*
X752735Y583985D02*
Y582969D01*
X754767D01*
Y583985D01*
X755783D01*
Y586017D01*
X754767D01*
Y587033D01*
X752735D01*
Y586017D01*
X751719D01*
Y583985D01*
X752735D01*
Y553985D02*
Y552969D01*
X754767D01*
Y553985D01*
X755783D01*
Y556017D01*
X754767D01*
Y557033D01*
X752735D01*
Y556017D01*
X751719D01*
Y553985D01*
X752735D01*
Y538985D02*
Y537969D01*
X754767D01*
Y538985D01*
X755783D01*
Y541017D01*
X754767D01*
Y542033D01*
X752735D01*
Y541017D01*
X751719D01*
Y538985D01*
X752735D01*
X748985Y516485D02*
Y515469D01*
X751017D01*
Y516485D01*
X752033D01*
Y518517D01*
X751017D01*
Y519533D01*
X748985D01*
Y518517D01*
X747969D01*
Y516485D01*
X748985D01*
X752735Y508985D02*
Y507969D01*
X754767D01*
Y508985D01*
X755783D01*
Y511017D01*
X754767D01*
Y512033D01*
X752735D01*
Y511017D01*
X751719D01*
Y508985D01*
X752735D01*
X741485Y741485D02*
Y740469D01*
X743517D01*
Y741485D01*
X744533D01*
Y743517D01*
X743517D01*
Y744533D01*
X741485D01*
Y743517D01*
X740469D01*
Y741485D01*
X741485D01*
X745235Y733985D02*
Y732969D01*
X747267D01*
Y733985D01*
X748283D01*
Y736017D01*
X747267D01*
Y737033D01*
X745235D01*
Y736017D01*
X744219D01*
Y733985D01*
X745235D01*
X741485Y696485D02*
Y695469D01*
X743517D01*
Y696485D01*
X744533D01*
Y698517D01*
X743517D01*
Y699533D01*
X741485D01*
Y698517D01*
X740469D01*
Y696485D01*
X741485D01*
X745235Y628985D02*
Y627969D01*
X747267D01*
Y628985D01*
X748283D01*
Y631017D01*
X747267D01*
Y632033D01*
X745235D01*
Y631017D01*
X744219D01*
Y628985D01*
X745235D01*
X741485Y621485D02*
Y620469D01*
X743517D01*
Y621485D01*
X744533D01*
Y623517D01*
X743517D01*
Y624533D01*
X741485D01*
Y623517D01*
X740469D01*
Y621485D01*
X741485D01*
X745235Y613985D02*
Y612969D01*
X747267D01*
Y613985D01*
X748283D01*
Y616017D01*
X747267D01*
Y617033D01*
X745235D01*
Y616017D01*
X744219D01*
Y613985D01*
X745235D01*
X741485Y606485D02*
Y605469D01*
X743517D01*
Y606485D01*
X744533D01*
Y608517D01*
X743517D01*
Y609533D01*
X741485D01*
Y608517D01*
X740469D01*
Y606485D01*
X741485D01*
X745235Y523985D02*
Y522969D01*
X747267D01*
Y523985D01*
X748283D01*
Y526017D01*
X747267D01*
Y527033D01*
X745235D01*
Y526017D01*
X744219D01*
Y523985D01*
X745235D01*
X741485Y516485D02*
Y515469D01*
X743517D01*
Y516485D01*
X744533D01*
Y518517D01*
X743517D01*
Y519533D01*
X741485D01*
Y518517D01*
X740469D01*
Y516485D01*
X741485D01*
X745235Y508985D02*
Y507969D01*
X747267D01*
Y508985D01*
X748283D01*
Y511017D01*
X747267D01*
Y512033D01*
X745235D01*
Y511017D01*
X744219D01*
Y508985D01*
X745235D01*
X733985Y741485D02*
Y740469D01*
X736017D01*
Y741485D01*
X737033D01*
Y743517D01*
X736017D01*
Y744533D01*
X733985D01*
Y743517D01*
X732969D01*
Y741485D01*
X733985D01*
X737735Y733985D02*
Y732969D01*
X739767D01*
Y733985D01*
X740783D01*
Y736017D01*
X739767D01*
Y737033D01*
X737735D01*
Y736017D01*
X736719D01*
Y733985D01*
X737735D01*
X733985Y726485D02*
Y725469D01*
X736017D01*
Y726485D01*
X737033D01*
Y728517D01*
X736017D01*
Y729533D01*
X733985D01*
Y728517D01*
X732969D01*
Y726485D01*
X733985D01*
Y696485D02*
Y695469D01*
X736017D01*
Y696485D01*
X737033D01*
Y698517D01*
X736017D01*
Y699533D01*
X733985D01*
Y698517D01*
X732969D01*
Y696485D01*
X733985D01*
X737735Y658985D02*
Y657969D01*
X739767D01*
Y658985D01*
X740783D01*
Y661017D01*
X739767D01*
Y662033D01*
X737735D01*
Y661017D01*
X736719D01*
Y658985D01*
X737735D01*
Y628985D02*
Y627969D01*
X739767D01*
Y628985D01*
X740783D01*
Y631017D01*
X739767D01*
Y632033D01*
X737735D01*
Y631017D01*
X736719D01*
Y628985D01*
X737735D01*
X733985Y561485D02*
Y560469D01*
X736017D01*
Y561485D01*
X737033D01*
Y563517D01*
X736017D01*
Y564533D01*
X733985D01*
Y563517D01*
X732969D01*
Y561485D01*
X733985D01*
X737735Y553985D02*
Y552969D01*
X739767D01*
Y553985D01*
X740783D01*
Y556017D01*
X739767D01*
Y557033D01*
X737735D01*
Y556017D01*
X736719D01*
Y553985D01*
X737735D01*
X733985Y546485D02*
Y545469D01*
X736017D01*
Y546485D01*
X737033D01*
Y548517D01*
X736017D01*
Y549533D01*
X733985D01*
Y548517D01*
X732969D01*
Y546485D01*
X733985D01*
X737735Y538985D02*
Y537969D01*
X739767D01*
Y538985D01*
X740783D01*
Y541017D01*
X739767D01*
Y542033D01*
X737735D01*
Y541017D01*
X736719D01*
Y538985D01*
X737735D01*
X733985Y531485D02*
Y530469D01*
X736017D01*
Y531485D01*
X737033D01*
Y533517D01*
X736017D01*
Y534533D01*
X733985D01*
Y533517D01*
X732969D01*
Y531485D01*
X733985D01*
X737735Y523985D02*
Y522969D01*
X739767D01*
Y523985D01*
X740783D01*
Y526017D01*
X739767D01*
Y527033D01*
X737735D01*
Y526017D01*
X736719D01*
Y523985D01*
X737735D01*
X733985Y516485D02*
Y515469D01*
X736017D01*
Y516485D01*
X737033D01*
Y518517D01*
X736017D01*
Y519533D01*
X733985D01*
Y518517D01*
X732969D01*
Y516485D01*
X733985D01*
X737735Y508985D02*
Y507969D01*
X739767D01*
Y508985D01*
X740783D01*
Y511017D01*
X739767D01*
Y512033D01*
X737735D01*
Y511017D01*
X736719D01*
Y508985D01*
X737735D01*
X726485Y741485D02*
Y740469D01*
X728517D01*
Y741485D01*
X729533D01*
Y743517D01*
X728517D01*
Y744533D01*
X726485D01*
Y743517D01*
X725469D01*
Y741485D01*
X726485D01*
X730235Y733985D02*
Y732969D01*
X732267D01*
Y733985D01*
X733283D01*
Y736017D01*
X732267D01*
Y737033D01*
X730235D01*
Y736017D01*
X729219D01*
Y733985D01*
X730235D01*
X726485Y726485D02*
Y725469D01*
X728517D01*
Y726485D01*
X729533D01*
Y728517D01*
X728517D01*
Y729533D01*
X726485D01*
Y728517D01*
X725469D01*
Y726485D01*
X726485D01*
Y696485D02*
Y695469D01*
X728517D01*
Y696485D01*
X729533D01*
Y698517D01*
X728517D01*
Y699533D01*
X726485D01*
Y698517D01*
X725469D01*
Y696485D01*
X726485D01*
X730235Y688985D02*
Y687969D01*
X732267D01*
Y688985D01*
X733283D01*
Y691017D01*
X732267D01*
Y692033D01*
X730235D01*
Y691017D01*
X729219D01*
Y688985D01*
X730235D01*
Y628985D02*
Y627969D01*
X732267D01*
Y628985D01*
X733283D01*
Y631017D01*
X732267D01*
Y632033D01*
X730235D01*
Y631017D01*
X729219D01*
Y628985D01*
X730235D01*
X726485Y621485D02*
Y620469D01*
X728517D01*
Y621485D01*
X729533D01*
Y623517D01*
X728517D01*
Y624533D01*
X726485D01*
Y623517D01*
X725469D01*
Y621485D01*
X726485D01*
X730235Y568985D02*
Y567969D01*
X732267D01*
Y568985D01*
X733283D01*
Y571017D01*
X732267D01*
Y572033D01*
X730235D01*
Y571017D01*
X729219D01*
Y568985D01*
X730235D01*
Y553985D02*
Y552969D01*
X732267D01*
Y553985D01*
X733283D01*
Y556017D01*
X732267D01*
Y557033D01*
X730235D01*
Y556017D01*
X729219D01*
Y553985D01*
X730235D01*
X726485Y546485D02*
Y545469D01*
X728517D01*
Y546485D01*
X729533D01*
Y548517D01*
X728517D01*
Y549533D01*
X726485D01*
Y548517D01*
X725469D01*
Y546485D01*
X726485D01*
X730235Y538985D02*
Y537969D01*
X732267D01*
Y538985D01*
X733283D01*
Y541017D01*
X732267D01*
Y542033D01*
X730235D01*
Y541017D01*
X729219D01*
Y538985D01*
X730235D01*
X726485Y531485D02*
Y530469D01*
X728517D01*
Y531485D01*
X729533D01*
Y533517D01*
X728517D01*
Y534533D01*
X726485D01*
Y533517D01*
X725469D01*
Y531485D01*
X726485D01*
X730235Y523985D02*
Y522969D01*
X732267D01*
Y523985D01*
X733283D01*
Y526017D01*
X732267D01*
Y527033D01*
X730235D01*
Y526017D01*
X729219D01*
Y523985D01*
X730235D01*
X726485Y516485D02*
Y515469D01*
X728517D01*
Y516485D01*
X729533D01*
Y518517D01*
X728517D01*
Y519533D01*
X726485D01*
Y518517D01*
X725469D01*
Y516485D01*
X726485D01*
X730235Y508985D02*
Y507969D01*
X732267D01*
Y508985D01*
X733283D01*
Y511017D01*
X732267D01*
Y512033D01*
X730235D01*
Y511017D01*
X729219D01*
Y508985D01*
X730235D01*
X718985Y741485D02*
Y740469D01*
X721017D01*
Y741485D01*
X722033D01*
Y743517D01*
X721017D01*
Y744533D01*
X718985D01*
Y743517D01*
X717969D01*
Y741485D01*
X718985D01*
X722735Y733985D02*
Y732969D01*
X724767D01*
Y733985D01*
X725783D01*
Y736017D01*
X724767D01*
Y737033D01*
X722735D01*
Y736017D01*
X721719D01*
Y733985D01*
X722735D01*
X718985Y726485D02*
Y725469D01*
X721017D01*
Y726485D01*
X722033D01*
Y728517D01*
X721017D01*
Y729533D01*
X718985D01*
Y728517D01*
X717969D01*
Y726485D01*
X718985D01*
Y696485D02*
Y695469D01*
X721017D01*
Y696485D01*
X722033D01*
Y698517D01*
X721017D01*
Y699533D01*
X718985D01*
Y698517D01*
X717969D01*
Y696485D01*
X718985D01*
X722735Y688985D02*
Y687969D01*
X724767D01*
Y688985D01*
X725783D01*
Y691017D01*
X724767D01*
Y692033D01*
X722735D01*
Y691017D01*
X721719D01*
Y688985D01*
X722735D01*
Y628985D02*
Y627969D01*
X724767D01*
Y628985D01*
X725783D01*
Y631017D01*
X724767D01*
Y632033D01*
X722735D01*
Y631017D01*
X721719D01*
Y628985D01*
X722735D01*
X718985Y621485D02*
Y620469D01*
X721017D01*
Y621485D01*
X722033D01*
Y623517D01*
X721017D01*
Y624533D01*
X718985D01*
Y623517D01*
X717969D01*
Y621485D01*
X718985D01*
X722735Y553985D02*
Y552969D01*
X724767D01*
Y553985D01*
X725783D01*
Y556017D01*
X724767D01*
Y557033D01*
X722735D01*
Y556017D01*
X721719D01*
Y553985D01*
X722735D01*
X718985Y546485D02*
Y545469D01*
X721017D01*
Y546485D01*
X722033D01*
Y548517D01*
X721017D01*
Y549533D01*
X718985D01*
Y548517D01*
X717969D01*
Y546485D01*
X718985D01*
X722735Y538985D02*
Y537969D01*
X724767D01*
Y538985D01*
X725783D01*
Y541017D01*
X724767D01*
Y542033D01*
X722735D01*
Y541017D01*
X721719D01*
Y538985D01*
X722735D01*
X718985Y531485D02*
Y530469D01*
X721017D01*
Y531485D01*
X722033D01*
Y533517D01*
X721017D01*
Y534533D01*
X718985D01*
Y533517D01*
X717969D01*
Y531485D01*
X718985D01*
X722735Y523985D02*
Y522969D01*
X724767D01*
Y523985D01*
X725783D01*
Y526017D01*
X724767D01*
Y527033D01*
X722735D01*
Y526017D01*
X721719D01*
Y523985D01*
X722735D01*
X718985Y516485D02*
Y515469D01*
X721017D01*
Y516485D01*
X722033D01*
Y518517D01*
X721017D01*
Y519533D01*
X718985D01*
Y518517D01*
X717969D01*
Y516485D01*
X718985D01*
X722735Y508985D02*
Y507969D01*
X724767D01*
Y508985D01*
X725783D01*
Y511017D01*
X724767D01*
Y512033D01*
X722735D01*
Y511017D01*
X721719D01*
Y508985D01*
X722735D01*
X711485Y741485D02*
Y740469D01*
X713517D01*
Y741485D01*
X714533D01*
Y743517D01*
X713517D01*
Y744533D01*
X711485D01*
Y743517D01*
X710469D01*
Y741485D01*
X711485D01*
X715235Y733985D02*
Y732969D01*
X717267D01*
Y733985D01*
X718283D01*
Y736017D01*
X717267D01*
Y737033D01*
X715235D01*
Y736017D01*
X714219D01*
Y733985D01*
X715235D01*
X711485Y726485D02*
Y725469D01*
X713517D01*
Y726485D01*
X714533D01*
Y728517D01*
X713517D01*
Y729533D01*
X711485D01*
Y728517D01*
X710469D01*
Y726485D01*
X711485D01*
Y696485D02*
Y695469D01*
X713517D01*
Y696485D01*
X714533D01*
Y698517D01*
X713517D01*
Y699533D01*
X711485D01*
Y698517D01*
X710469D01*
Y696485D01*
X711485D01*
X715235Y688985D02*
Y687969D01*
X717267D01*
Y688985D01*
X718283D01*
Y691017D01*
X717267D01*
Y692033D01*
X715235D01*
Y691017D01*
X714219D01*
Y688985D01*
X715235D01*
X711485Y621485D02*
Y620469D01*
X713517D01*
Y621485D01*
X714533D01*
Y623517D01*
X713517D01*
Y624533D01*
X711485D01*
Y623517D01*
X710469D01*
Y621485D01*
X711485D01*
X715235Y598985D02*
Y597969D01*
X717267D01*
Y598985D01*
X718283D01*
Y601017D01*
X717267D01*
Y602033D01*
X715235D01*
Y601017D01*
X714219D01*
Y598985D01*
X715235D01*
Y538985D02*
Y537969D01*
X717267D01*
Y538985D01*
X718283D01*
Y541017D01*
X717267D01*
Y542033D01*
X715235D01*
Y541017D01*
X714219D01*
Y538985D01*
X715235D01*
X711485Y531485D02*
Y530469D01*
X713517D01*
Y531485D01*
X714533D01*
Y533517D01*
X713517D01*
Y534533D01*
X711485D01*
Y533517D01*
X710469D01*
Y531485D01*
X711485D01*
X715235Y523985D02*
Y522969D01*
X717267D01*
Y523985D01*
X718283D01*
Y526017D01*
X717267D01*
Y527033D01*
X715235D01*
Y526017D01*
X714219D01*
Y523985D01*
X715235D01*
X711485Y516485D02*
Y515469D01*
X713517D01*
Y516485D01*
X714533D01*
Y518517D01*
X713517D01*
Y519533D01*
X711485D01*
Y518517D01*
X710469D01*
Y516485D01*
X711485D01*
X715235Y508985D02*
Y507969D01*
X717267D01*
Y508985D01*
X718283D01*
Y511017D01*
X717267D01*
Y512033D01*
X715235D01*
Y511017D01*
X714219D01*
Y508985D01*
X715235D01*
X703985Y741485D02*
Y740469D01*
X706017D01*
Y741485D01*
X707033D01*
Y743517D01*
X706017D01*
Y744533D01*
X703985D01*
Y743517D01*
X702969D01*
Y741485D01*
X703985D01*
X707735Y733985D02*
Y732969D01*
X709767D01*
Y733985D01*
X710783D01*
Y736017D01*
X709767D01*
Y737033D01*
X707735D01*
Y736017D01*
X706719D01*
Y733985D01*
X707735D01*
X703985Y726485D02*
Y725469D01*
X706017D01*
Y726485D01*
X707033D01*
Y728517D01*
X706017D01*
Y729533D01*
X703985D01*
Y728517D01*
X702969D01*
Y726485D01*
X703985D01*
Y696485D02*
Y695469D01*
X706017D01*
Y696485D01*
X707033D01*
Y698517D01*
X706017D01*
Y699533D01*
X703985D01*
Y698517D01*
X702969D01*
Y696485D01*
X703985D01*
X707735Y688985D02*
Y687969D01*
X709767D01*
Y688985D01*
X710783D01*
Y691017D01*
X709767D01*
Y692033D01*
X707735D01*
Y691017D01*
X706719D01*
Y688985D01*
X707735D01*
Y598985D02*
Y597969D01*
X709767D01*
Y598985D01*
X710783D01*
Y601017D01*
X709767D01*
Y602033D01*
X707735D01*
Y601017D01*
X706719D01*
Y598985D01*
X707735D01*
Y538985D02*
Y537969D01*
X709767D01*
Y538985D01*
X710783D01*
Y541017D01*
X709767D01*
Y542033D01*
X707735D01*
Y541017D01*
X706719D01*
Y538985D01*
X707735D01*
Y523985D02*
Y522969D01*
X709767D01*
Y523985D01*
X710783D01*
Y526017D01*
X709767D01*
Y527033D01*
X707735D01*
Y526017D01*
X706719D01*
Y523985D01*
X707735D01*
Y508985D02*
Y507969D01*
X709767D01*
Y508985D01*
X710783D01*
Y511017D01*
X709767D01*
Y512033D01*
X707735D01*
Y511017D01*
X706719D01*
Y508985D01*
X707735D01*
X696485Y741485D02*
Y740469D01*
X698517D01*
Y741485D01*
X699533D01*
Y743517D01*
X698517D01*
Y744533D01*
X696485D01*
Y743517D01*
X695469D01*
Y741485D01*
X696485D01*
X700235Y733985D02*
Y732969D01*
X702267D01*
Y733985D01*
X703283D01*
Y736017D01*
X702267D01*
Y737033D01*
X700235D01*
Y736017D01*
X699219D01*
Y733985D01*
X700235D01*
X696485Y726485D02*
Y725469D01*
X698517D01*
Y726485D01*
X699533D01*
Y728517D01*
X698517D01*
Y729533D01*
X696485D01*
Y728517D01*
X695469D01*
Y726485D01*
X696485D01*
Y696485D02*
Y695469D01*
X698517D01*
Y696485D01*
X699533D01*
Y698517D01*
X698517D01*
Y699533D01*
X696485D01*
Y698517D01*
X695469D01*
Y696485D01*
X696485D01*
X700235Y688985D02*
Y687969D01*
X702267D01*
Y688985D01*
X703283D01*
Y691017D01*
X702267D01*
Y692033D01*
X700235D01*
Y691017D01*
X699219D01*
Y688985D01*
X700235D01*
X688985Y741485D02*
Y740469D01*
X691017D01*
Y741485D01*
X692033D01*
Y743517D01*
X691017D01*
Y744533D01*
X688985D01*
Y743517D01*
X687969D01*
Y741485D01*
X688985D01*
X692735Y733985D02*
Y732969D01*
X694767D01*
Y733985D01*
X695783D01*
Y736017D01*
X694767D01*
Y737033D01*
X692735D01*
Y736017D01*
X691719D01*
Y733985D01*
X692735D01*
X688985Y726485D02*
Y725469D01*
X691017D01*
Y726485D01*
X692033D01*
Y728517D01*
X691017D01*
Y729533D01*
X688985D01*
Y728517D01*
X687969D01*
Y726485D01*
X688985D01*
Y696485D02*
Y695469D01*
X691017D01*
Y696485D01*
X692033D01*
Y698517D01*
X691017D01*
Y699533D01*
X688985D01*
Y698517D01*
X687969D01*
Y696485D01*
X688985D01*
X692735Y688985D02*
Y687969D01*
X694767D01*
Y688985D01*
X695783D01*
Y691017D01*
X694767D01*
Y692033D01*
X692735D01*
Y691017D01*
X691719D01*
Y688985D01*
X692735D01*
X681485Y741485D02*
Y740469D01*
X683517D01*
Y741485D01*
X684533D01*
Y743517D01*
X683517D01*
Y744533D01*
X681485D01*
Y743517D01*
X680469D01*
Y741485D01*
X681485D01*
X685235Y733985D02*
Y732969D01*
X687267D01*
Y733985D01*
X688283D01*
Y736017D01*
X687267D01*
Y737033D01*
X685235D01*
Y736017D01*
X684219D01*
Y733985D01*
X685235D01*
X681485Y726485D02*
Y725469D01*
X683517D01*
Y726485D01*
X684533D01*
Y728517D01*
X683517D01*
Y729533D01*
X681485D01*
Y728517D01*
X680469D01*
Y726485D01*
X681485D01*
Y696485D02*
Y695469D01*
X683517D01*
Y696485D01*
X684533D01*
Y698517D01*
X683517D01*
Y699533D01*
X681485D01*
Y698517D01*
X680469D01*
Y696485D01*
X681485D01*
X685235Y688985D02*
Y687969D01*
X687267D01*
Y688985D01*
X688283D01*
Y691017D01*
X687267D01*
Y692033D01*
X685235D01*
Y691017D01*
X684219D01*
Y688985D01*
X685235D01*
X673985Y741485D02*
Y740469D01*
X676017D01*
Y741485D01*
X677033D01*
Y743517D01*
X676017D01*
Y744533D01*
X673985D01*
Y743517D01*
X672969D01*
Y741485D01*
X673985D01*
X677735Y733985D02*
Y732969D01*
X679767D01*
Y733985D01*
X680783D01*
Y736017D01*
X679767D01*
Y737033D01*
X677735D01*
Y736017D01*
X676719D01*
Y733985D01*
X677735D01*
X673985Y726485D02*
Y725469D01*
X676017D01*
Y726485D01*
X677033D01*
Y728517D01*
X676017D01*
Y729533D01*
X673985D01*
Y728517D01*
X672969D01*
Y726485D01*
X673985D01*
Y696485D02*
Y695469D01*
X676017D01*
Y696485D01*
X677033D01*
Y698517D01*
X676017D01*
Y699533D01*
X673985D01*
Y698517D01*
X672969D01*
Y696485D01*
X673985D01*
X677735Y688985D02*
Y687969D01*
X679767D01*
Y688985D01*
X680783D01*
Y691017D01*
X679767D01*
Y692033D01*
X677735D01*
Y691017D01*
X676719D01*
Y688985D01*
X677735D01*
X673985Y681485D02*
Y680469D01*
X676017D01*
Y681485D01*
X677033D01*
Y683517D01*
X676017D01*
Y684533D01*
X673985D01*
Y683517D01*
X672969D01*
Y681485D01*
X673985D01*
X666485Y741485D02*
Y740469D01*
X668517D01*
Y741485D01*
X669533D01*
Y743517D01*
X668517D01*
Y744533D01*
X666485D01*
Y743517D01*
X665469D01*
Y741485D01*
X666485D01*
X670235Y733985D02*
Y732969D01*
X672267D01*
Y733985D01*
X673283D01*
Y736017D01*
X672267D01*
Y737033D01*
X670235D01*
Y736017D01*
X669219D01*
Y733985D01*
X670235D01*
X666485Y726485D02*
Y725469D01*
X668517D01*
Y726485D01*
X669533D01*
Y728517D01*
X668517D01*
Y729533D01*
X666485D01*
Y728517D01*
X665469D01*
Y726485D01*
X666485D01*
Y696485D02*
Y695469D01*
X668517D01*
Y696485D01*
X669533D01*
Y698517D01*
X668517D01*
Y699533D01*
X666485D01*
Y698517D01*
X665469D01*
Y696485D01*
X666485D01*
X670235Y688985D02*
Y687969D01*
X672267D01*
Y688985D01*
X673283D01*
Y691017D01*
X672267D01*
Y692033D01*
X670235D01*
Y691017D01*
X669219D01*
Y688985D01*
X670235D01*
X658985Y741485D02*
Y740469D01*
X661017D01*
Y741485D01*
X662033D01*
Y743517D01*
X661017D01*
Y744533D01*
X658985D01*
Y743517D01*
X657969D01*
Y741485D01*
X658985D01*
Y696485D02*
Y695469D01*
X661017D01*
Y696485D01*
X662033D01*
Y698517D01*
X661017D01*
Y699533D01*
X658985D01*
Y698517D01*
X657969D01*
Y696485D01*
X658985D01*
X662735Y688985D02*
Y687969D01*
X664767D01*
Y688985D01*
X665783D01*
Y691017D01*
X664767D01*
Y692033D01*
X662735D01*
Y691017D01*
X661719D01*
Y688985D01*
X662735D01*
X651485Y741485D02*
Y740469D01*
X653517D01*
Y741485D01*
X654533D01*
Y743517D01*
X653517D01*
Y744533D01*
X651485D01*
Y743517D01*
X650469D01*
Y741485D01*
X651485D01*
Y726485D02*
Y725469D01*
X653517D01*
Y726485D01*
X654533D01*
Y728517D01*
X653517D01*
Y729533D01*
X651485D01*
Y728517D01*
X650469D01*
Y726485D01*
X651485D01*
X643985Y741485D02*
Y740469D01*
X646017D01*
Y741485D01*
X647033D01*
Y743517D01*
X646017D01*
Y744533D01*
X643985D01*
Y743517D01*
X642969D01*
Y741485D01*
X643985D01*
Y546485D02*
Y545469D01*
X646017D01*
Y546485D01*
X647033D01*
Y548517D01*
X646017D01*
Y549533D01*
X643985D01*
Y548517D01*
X642969D01*
Y546485D01*
X643985D01*
X636485Y741485D02*
Y740469D01*
X638517D01*
Y741485D01*
X639533D01*
Y743517D01*
X638517D01*
Y744533D01*
X636485D01*
Y743517D01*
X635469D01*
Y741485D01*
X636485D01*
X628985D02*
Y740469D01*
X631017D01*
Y741485D01*
X632033D01*
Y743517D01*
X631017D01*
Y744533D01*
X628985D01*
Y743517D01*
X627969D01*
Y741485D01*
X628985D01*
X632735Y733985D02*
Y732969D01*
X634767D01*
Y733985D01*
X635783D01*
Y736017D01*
X634767D01*
Y737033D01*
X632735D01*
Y736017D01*
X631719D01*
Y733985D01*
X632735D01*
X621485Y741485D02*
Y740469D01*
X623517D01*
Y741485D01*
X624533D01*
Y743517D01*
X623517D01*
Y744533D01*
X621485D01*
Y743517D01*
X620469D01*
Y741485D01*
X621485D01*
X625235Y733985D02*
Y732969D01*
X627267D01*
Y733985D01*
X628283D01*
Y736017D01*
X627267D01*
Y737033D01*
X625235D01*
Y736017D01*
X624219D01*
Y733985D01*
X625235D01*
X613985Y741485D02*
Y740469D01*
X616017D01*
Y741485D01*
X617033D01*
Y743517D01*
X616017D01*
Y744533D01*
X613985D01*
Y743517D01*
X612969D01*
Y741485D01*
X613985D01*
X606485D02*
Y740469D01*
X608517D01*
Y741485D01*
X609533D01*
Y743517D01*
X608517D01*
Y744533D01*
X606485D01*
Y743517D01*
X605469D01*
Y741485D01*
X606485D01*
Y726485D02*
Y725469D01*
X608517D01*
Y726485D01*
X609533D01*
Y728517D01*
X608517D01*
Y729533D01*
X606485D01*
Y728517D01*
X605469D01*
Y726485D01*
X606485D01*
X598985Y741485D02*
Y740469D01*
X601017D01*
Y741485D01*
X602033D01*
Y743517D01*
X601017D01*
Y744533D01*
X598985D01*
Y743517D01*
X597969D01*
Y741485D01*
X598985D01*
Y726485D02*
Y725469D01*
X601017D01*
Y726485D01*
X602033D01*
Y728517D01*
X601017D01*
Y729533D01*
X598985D01*
Y728517D01*
X597969D01*
Y726485D01*
X598985D01*
X602735Y718985D02*
Y717969D01*
X604767D01*
Y718985D01*
X605783D01*
Y721017D01*
X604767D01*
Y722033D01*
X602735D01*
Y721017D01*
X601719D01*
Y718985D01*
X602735D01*
X598985Y681485D02*
Y680469D01*
X601017D01*
Y681485D01*
X602033D01*
Y683517D01*
X601017D01*
Y684533D01*
X598985D01*
Y683517D01*
X597969D01*
Y681485D01*
X598985D01*
X602735Y658985D02*
Y657969D01*
X604767D01*
Y658985D01*
X605783D01*
Y661017D01*
X604767D01*
Y662033D01*
X602735D01*
Y661017D01*
X601719D01*
Y658985D01*
X602735D01*
X591485Y741485D02*
Y740469D01*
X593517D01*
Y741485D01*
X594533D01*
Y743517D01*
X593517D01*
Y744533D01*
X591485D01*
Y743517D01*
X590469D01*
Y741485D01*
X591485D01*
Y726485D02*
Y725469D01*
X593517D01*
Y726485D01*
X594533D01*
Y728517D01*
X593517D01*
Y729533D01*
X591485D01*
Y728517D01*
X590469D01*
Y726485D01*
X591485D01*
X595235Y718985D02*
Y717969D01*
X597267D01*
Y718985D01*
X598283D01*
Y721017D01*
X597267D01*
Y722033D01*
X595235D01*
Y721017D01*
X594219D01*
Y718985D01*
X595235D01*
X591485Y711485D02*
Y710469D01*
X593517D01*
Y711485D01*
X594533D01*
Y713517D01*
X593517D01*
Y714533D01*
X591485D01*
Y713517D01*
X590469D01*
Y711485D01*
X591485D01*
Y561485D02*
Y560469D01*
X593517D01*
Y561485D01*
X594533D01*
Y563517D01*
X593517D01*
Y564533D01*
X591485D01*
Y563517D01*
X590469D01*
Y561485D01*
X591485D01*
X595235Y553985D02*
Y552969D01*
X597267D01*
Y553985D01*
X598283D01*
Y556017D01*
X597267D01*
Y557033D01*
X595235D01*
Y556017D01*
X594219D01*
Y553985D01*
X595235D01*
X587735Y718985D02*
Y717969D01*
X589767D01*
Y718985D01*
X590783D01*
Y721017D01*
X589767D01*
Y722033D01*
X587735D01*
Y721017D01*
X586719D01*
Y718985D01*
X587735D01*
X583985Y711485D02*
Y710469D01*
X586017D01*
Y711485D01*
X587033D01*
Y713517D01*
X586017D01*
Y714533D01*
X583985D01*
Y713517D01*
X582969D01*
Y711485D01*
X583985D01*
X587735Y703985D02*
Y702969D01*
X589767D01*
Y703985D01*
X590783D01*
Y706017D01*
X589767D01*
Y707033D01*
X587735D01*
Y706017D01*
X586719D01*
Y703985D01*
X587735D01*
X583985Y606485D02*
Y605469D01*
X586017D01*
Y606485D01*
X587033D01*
Y608517D01*
X586017D01*
Y609533D01*
X583985D01*
Y608517D01*
X582969D01*
Y606485D01*
X583985D01*
Y576485D02*
Y575469D01*
X586017D01*
Y576485D01*
X587033D01*
Y578517D01*
X586017D01*
Y579533D01*
X583985D01*
Y578517D01*
X582969D01*
Y576485D01*
X583985D01*
X587735Y568985D02*
Y567969D01*
X589767D01*
Y568985D01*
X590783D01*
Y571017D01*
X589767D01*
Y572033D01*
X587735D01*
Y571017D01*
X586719D01*
Y568985D01*
X587735D01*
X583985Y531485D02*
Y530469D01*
X586017D01*
Y531485D01*
X587033D01*
Y533517D01*
X586017D01*
Y534533D01*
X583985D01*
Y533517D01*
X582969D01*
Y531485D01*
X583985D01*
Y516485D02*
Y515469D01*
X586017D01*
Y516485D01*
X587033D01*
Y518517D01*
X586017D01*
Y519533D01*
X583985D01*
Y518517D01*
X582969D01*
Y516485D01*
X583985D01*
X580235Y613985D02*
Y612969D01*
X582267D01*
Y613985D01*
X583283D01*
Y616017D01*
X582267D01*
Y617033D01*
X580235D01*
Y616017D01*
X579219D01*
Y613985D01*
X580235D01*
X576485Y606485D02*
Y605469D01*
X578517D01*
Y606485D01*
X579533D01*
Y608517D01*
X578517D01*
Y609533D01*
X576485D01*
Y608517D01*
X575469D01*
Y606485D01*
X576485D01*
X580235Y583985D02*
Y582969D01*
X582267D01*
Y583985D01*
X583283D01*
Y586017D01*
X582267D01*
Y587033D01*
X580235D01*
Y586017D01*
X579219D01*
Y583985D01*
X580235D01*
X576485Y576485D02*
Y575469D01*
X578517D01*
Y576485D01*
X579533D01*
Y578517D01*
X578517D01*
Y579533D01*
X576485D01*
Y578517D01*
X575469D01*
Y576485D01*
X576485D01*
X580235Y568985D02*
Y567969D01*
X582267D01*
Y568985D01*
X583283D01*
Y571017D01*
X582267D01*
Y572033D01*
X580235D01*
Y571017D01*
X579219D01*
Y568985D01*
X580235D01*
X576485Y561485D02*
Y560469D01*
X578517D01*
Y561485D01*
X579533D01*
Y563517D01*
X578517D01*
Y564533D01*
X576485D01*
Y563517D01*
X575469D01*
Y561485D01*
X576485D01*
Y531485D02*
Y530469D01*
X578517D01*
Y531485D01*
X579533D01*
Y533517D01*
X578517D01*
Y534533D01*
X576485D01*
Y533517D01*
X575469D01*
Y531485D01*
X576485D01*
X580235Y523985D02*
Y522969D01*
X582267D01*
Y523985D01*
X583283D01*
Y526017D01*
X582267D01*
Y527033D01*
X580235D01*
Y526017D01*
X579219D01*
Y523985D01*
X580235D01*
X576485Y516485D02*
Y515469D01*
X578517D01*
Y516485D01*
X579533D01*
Y518517D01*
X578517D01*
Y519533D01*
X576485D01*
Y518517D01*
X575469D01*
Y516485D01*
X576485D01*
X580235Y508985D02*
Y507969D01*
X582267D01*
Y508985D01*
X583283D01*
Y511017D01*
X582267D01*
Y512033D01*
X580235D01*
Y511017D01*
X579219D01*
Y508985D01*
X580235D01*
X568985Y621485D02*
Y620469D01*
X571017D01*
Y621485D01*
X572033D01*
Y623517D01*
X571017D01*
Y624533D01*
X568985D01*
Y623517D01*
X567969D01*
Y621485D01*
X568985D01*
X572735Y613985D02*
Y612969D01*
X574767D01*
Y613985D01*
X575783D01*
Y616017D01*
X574767D01*
Y617033D01*
X572735D01*
Y616017D01*
X571719D01*
Y613985D01*
X572735D01*
X568985Y606485D02*
Y605469D01*
X571017D01*
Y606485D01*
X572033D01*
Y608517D01*
X571017D01*
Y609533D01*
X568985D01*
Y608517D01*
X567969D01*
Y606485D01*
X568985D01*
Y591485D02*
Y590469D01*
X571017D01*
Y591485D01*
X572033D01*
Y593517D01*
X571017D01*
Y594533D01*
X568985D01*
Y593517D01*
X567969D01*
Y591485D01*
X568985D01*
X572735Y583985D02*
Y582969D01*
X574767D01*
Y583985D01*
X575783D01*
Y586017D01*
X574767D01*
Y587033D01*
X572735D01*
Y586017D01*
X571719D01*
Y583985D01*
X572735D01*
X568985Y576485D02*
Y575469D01*
X571017D01*
Y576485D01*
X572033D01*
Y578517D01*
X571017D01*
Y579533D01*
X568985D01*
Y578517D01*
X567969D01*
Y576485D01*
X568985D01*
X572735Y568985D02*
Y567969D01*
X574767D01*
Y568985D01*
X575783D01*
Y571017D01*
X574767D01*
Y572033D01*
X572735D01*
Y571017D01*
X571719D01*
Y568985D01*
X572735D01*
X568985Y561485D02*
Y560469D01*
X571017D01*
Y561485D01*
X572033D01*
Y563517D01*
X571017D01*
Y564533D01*
X568985D01*
Y563517D01*
X567969D01*
Y561485D01*
X568985D01*
X572735Y553985D02*
Y552969D01*
X574767D01*
Y553985D01*
X575783D01*
Y556017D01*
X574767D01*
Y557033D01*
X572735D01*
Y556017D01*
X571719D01*
Y553985D01*
X572735D01*
X568985Y546485D02*
Y545469D01*
X571017D01*
Y546485D01*
X572033D01*
Y548517D01*
X571017D01*
Y549533D01*
X568985D01*
Y548517D01*
X567969D01*
Y546485D01*
X568985D01*
X572735Y538985D02*
Y537969D01*
X574767D01*
Y538985D01*
X575783D01*
Y541017D01*
X574767D01*
Y542033D01*
X572735D01*
Y541017D01*
X571719D01*
Y538985D01*
X572735D01*
X568985Y531485D02*
Y530469D01*
X571017D01*
Y531485D01*
X572033D01*
Y533517D01*
X571017D01*
Y534533D01*
X568985D01*
Y533517D01*
X567969D01*
Y531485D01*
X568985D01*
X572735Y523985D02*
Y522969D01*
X574767D01*
Y523985D01*
X575783D01*
Y526017D01*
X574767D01*
Y527033D01*
X572735D01*
Y526017D01*
X571719D01*
Y523985D01*
X572735D01*
X568985Y516485D02*
Y515469D01*
X571017D01*
Y516485D01*
X572033D01*
Y518517D01*
X571017D01*
Y519533D01*
X568985D01*
Y518517D01*
X567969D01*
Y516485D01*
X568985D01*
X572735Y508985D02*
Y507969D01*
X574767D01*
Y508985D01*
X575783D01*
Y511017D01*
X574767D01*
Y512033D01*
X572735D01*
Y511017D01*
X571719D01*
Y508985D01*
X572735D01*
X561485Y741485D02*
Y740469D01*
X563517D01*
Y741485D01*
X564533D01*
Y743517D01*
X563517D01*
Y744533D01*
X561485D01*
Y743517D01*
X560469D01*
Y741485D01*
X561485D01*
X565235Y688985D02*
Y687969D01*
X567267D01*
Y688985D01*
X568283D01*
Y691017D01*
X567267D01*
Y692033D01*
X565235D01*
Y691017D01*
X564219D01*
Y688985D01*
X565235D01*
X561485Y681485D02*
Y680469D01*
X563517D01*
Y681485D01*
X564533D01*
Y683517D01*
X563517D01*
Y684533D01*
X561485D01*
Y683517D01*
X560469D01*
Y681485D01*
X561485D01*
Y666485D02*
Y665469D01*
X563517D01*
Y666485D01*
X564533D01*
Y668517D01*
X563517D01*
Y669533D01*
X561485D01*
Y668517D01*
X560469D01*
Y666485D01*
X561485D01*
Y651485D02*
Y650469D01*
X563517D01*
Y651485D01*
X564533D01*
Y653517D01*
X563517D01*
Y654533D01*
X561485D01*
Y653517D01*
X560469D01*
Y651485D01*
X561485D01*
Y636485D02*
Y635469D01*
X563517D01*
Y636485D01*
X564533D01*
Y638517D01*
X563517D01*
Y639533D01*
X561485D01*
Y638517D01*
X560469D01*
Y636485D01*
X561485D01*
X565235Y628985D02*
Y627969D01*
X567267D01*
Y628985D01*
X568283D01*
Y631017D01*
X567267D01*
Y632033D01*
X565235D01*
Y631017D01*
X564219D01*
Y628985D01*
X565235D01*
X561485Y621485D02*
Y620469D01*
X563517D01*
Y621485D01*
X564533D01*
Y623517D01*
X563517D01*
Y624533D01*
X561485D01*
Y623517D01*
X560469D01*
Y621485D01*
X561485D01*
X565235Y613985D02*
Y612969D01*
X567267D01*
Y613985D01*
X568283D01*
Y616017D01*
X567267D01*
Y617033D01*
X565235D01*
Y616017D01*
X564219D01*
Y613985D01*
X565235D01*
X561485Y606485D02*
Y605469D01*
X563517D01*
Y606485D01*
X564533D01*
Y608517D01*
X563517D01*
Y609533D01*
X561485D01*
Y608517D01*
X560469D01*
Y606485D01*
X561485D01*
X565235Y598985D02*
Y597969D01*
X567267D01*
Y598985D01*
X568283D01*
Y601017D01*
X567267D01*
Y602033D01*
X565235D01*
Y601017D01*
X564219D01*
Y598985D01*
X565235D01*
X561485Y591485D02*
Y590469D01*
X563517D01*
Y591485D01*
X564533D01*
Y593517D01*
X563517D01*
Y594533D01*
X561485D01*
Y593517D01*
X560469D01*
Y591485D01*
X561485D01*
X565235Y583985D02*
Y582969D01*
X567267D01*
Y583985D01*
X568283D01*
Y586017D01*
X567267D01*
Y587033D01*
X565235D01*
Y586017D01*
X564219D01*
Y583985D01*
X565235D01*
X561485Y576485D02*
Y575469D01*
X563517D01*
Y576485D01*
X564533D01*
Y578517D01*
X563517D01*
Y579533D01*
X561485D01*
Y578517D01*
X560469D01*
Y576485D01*
X561485D01*
X565235Y568985D02*
Y567969D01*
X567267D01*
Y568985D01*
X568283D01*
Y571017D01*
X567267D01*
Y572033D01*
X565235D01*
Y571017D01*
X564219D01*
Y568985D01*
X565235D01*
X561485Y561485D02*
Y560469D01*
X563517D01*
Y561485D01*
X564533D01*
Y563517D01*
X563517D01*
Y564533D01*
X561485D01*
Y563517D01*
X560469D01*
Y561485D01*
X561485D01*
X565235Y553985D02*
Y552969D01*
X567267D01*
Y553985D01*
X568283D01*
Y556017D01*
X567267D01*
Y557033D01*
X565235D01*
Y556017D01*
X564219D01*
Y553985D01*
X565235D01*
X561485Y546485D02*
Y545469D01*
X563517D01*
Y546485D01*
X564533D01*
Y548517D01*
X563517D01*
Y549533D01*
X561485D01*
Y548517D01*
X560469D01*
Y546485D01*
X561485D01*
X565235Y538985D02*
Y537969D01*
X567267D01*
Y538985D01*
X568283D01*
Y541017D01*
X567267D01*
Y542033D01*
X565235D01*
Y541017D01*
X564219D01*
Y538985D01*
X565235D01*
X561485Y531485D02*
Y530469D01*
X563517D01*
Y531485D01*
X564533D01*
Y533517D01*
X563517D01*
Y534533D01*
X561485D01*
Y533517D01*
X560469D01*
Y531485D01*
X561485D01*
X565235Y523985D02*
Y522969D01*
X567267D01*
Y523985D01*
X568283D01*
Y526017D01*
X567267D01*
Y527033D01*
X565235D01*
Y526017D01*
X564219D01*
Y523985D01*
X565235D01*
X561485Y516485D02*
Y515469D01*
X563517D01*
Y516485D01*
X564533D01*
Y518517D01*
X563517D01*
Y519533D01*
X561485D01*
Y518517D01*
X560469D01*
Y516485D01*
X561485D01*
X565235Y508985D02*
Y507969D01*
X567267D01*
Y508985D01*
X568283D01*
Y511017D01*
X567267D01*
Y512033D01*
X565235D01*
Y511017D01*
X564219D01*
Y508985D01*
X565235D01*
X553985Y681485D02*
Y680469D01*
X556017D01*
Y681485D01*
X557033D01*
Y683517D01*
X556017D01*
Y684533D01*
X553985D01*
Y683517D01*
X552969D01*
Y681485D01*
X553985D01*
X557735Y673985D02*
Y672969D01*
X559767D01*
Y673985D01*
X560783D01*
Y676017D01*
X559767D01*
Y677033D01*
X557735D01*
Y676017D01*
X556719D01*
Y673985D01*
X557735D01*
X553985Y666485D02*
Y665469D01*
X556017D01*
Y666485D01*
X557033D01*
Y668517D01*
X556017D01*
Y669533D01*
X553985D01*
Y668517D01*
X552969D01*
Y666485D01*
X553985D01*
X557735Y658985D02*
Y657969D01*
X559767D01*
Y658985D01*
X560783D01*
Y661017D01*
X559767D01*
Y662033D01*
X557735D01*
Y661017D01*
X556719D01*
Y658985D01*
X557735D01*
Y628985D02*
Y627969D01*
X559767D01*
Y628985D01*
X560783D01*
Y631017D01*
X559767D01*
Y632033D01*
X557735D01*
Y631017D01*
X556719D01*
Y628985D01*
X557735D01*
Y613985D02*
Y612969D01*
X559767D01*
Y613985D01*
X560783D01*
Y616017D01*
X559767D01*
Y617033D01*
X557735D01*
Y616017D01*
X556719D01*
Y613985D01*
X557735D01*
Y598985D02*
Y597969D01*
X559767D01*
Y598985D01*
X560783D01*
Y601017D01*
X559767D01*
Y602033D01*
X557735D01*
Y601017D01*
X556719D01*
Y598985D01*
X557735D01*
X553985Y591485D02*
Y590469D01*
X556017D01*
Y591485D01*
X557033D01*
Y593517D01*
X556017D01*
Y594533D01*
X553985D01*
Y593517D01*
X552969D01*
Y591485D01*
X553985D01*
X557735Y583985D02*
Y582969D01*
X559767D01*
Y583985D01*
X560783D01*
Y586017D01*
X559767D01*
Y587033D01*
X557735D01*
Y586017D01*
X556719D01*
Y583985D01*
X557735D01*
X553985Y576485D02*
Y575469D01*
X556017D01*
Y576485D01*
X557033D01*
Y578517D01*
X556017D01*
Y579533D01*
X553985D01*
Y578517D01*
X552969D01*
Y576485D01*
X553985D01*
X557735Y568985D02*
Y567969D01*
X559767D01*
Y568985D01*
X560783D01*
Y571017D01*
X559767D01*
Y572033D01*
X557735D01*
Y571017D01*
X556719D01*
Y568985D01*
X557735D01*
X553985Y561485D02*
Y560469D01*
X556017D01*
Y561485D01*
X557033D01*
Y563517D01*
X556017D01*
Y564533D01*
X553985D01*
Y563517D01*
X552969D01*
Y561485D01*
X553985D01*
X557735Y553985D02*
Y552969D01*
X559767D01*
Y553985D01*
X560783D01*
Y556017D01*
X559767D01*
Y557033D01*
X557735D01*
Y556017D01*
X556719D01*
Y553985D01*
X557735D01*
X553985Y546485D02*
Y545469D01*
X556017D01*
Y546485D01*
X557033D01*
Y548517D01*
X556017D01*
Y549533D01*
X553985D01*
Y548517D01*
X552969D01*
Y546485D01*
X553985D01*
X557735Y538985D02*
Y537969D01*
X559767D01*
Y538985D01*
X560783D01*
Y541017D01*
X559767D01*
Y542033D01*
X557735D01*
Y541017D01*
X556719D01*
Y538985D01*
X557735D01*
X553985Y531485D02*
Y530469D01*
X556017D01*
Y531485D01*
X557033D01*
Y533517D01*
X556017D01*
Y534533D01*
X553985D01*
Y533517D01*
X552969D01*
Y531485D01*
X553985D01*
X557735Y523985D02*
Y522969D01*
X559767D01*
Y523985D01*
X560783D01*
Y526017D01*
X559767D01*
Y527033D01*
X557735D01*
Y526017D01*
X556719D01*
Y523985D01*
X557735D01*
X553985Y516485D02*
Y515469D01*
X556017D01*
Y516485D01*
X557033D01*
Y518517D01*
X556017D01*
Y519533D01*
X553985D01*
Y518517D01*
X552969D01*
Y516485D01*
X553985D01*
X557735Y508985D02*
Y507969D01*
X559767D01*
Y508985D01*
X560783D01*
Y511017D01*
X559767D01*
Y512033D01*
X557735D01*
Y511017D01*
X556719D01*
Y508985D01*
X557735D01*
X546485Y741485D02*
Y740469D01*
X548517D01*
Y741485D01*
X549533D01*
Y743517D01*
X548517D01*
Y744533D01*
X546485D01*
Y743517D01*
X545469D01*
Y741485D01*
X546485D01*
Y711485D02*
Y710469D01*
X548517D01*
Y711485D01*
X549533D01*
Y713517D01*
X548517D01*
Y714533D01*
X546485D01*
Y713517D01*
X545469D01*
Y711485D01*
X546485D01*
X550235Y703985D02*
Y702969D01*
X552267D01*
Y703985D01*
X553283D01*
Y706017D01*
X552267D01*
Y707033D01*
X550235D01*
Y706017D01*
X549219D01*
Y703985D01*
X550235D01*
X546485Y696485D02*
Y695469D01*
X548517D01*
Y696485D01*
X549533D01*
Y698517D01*
X548517D01*
Y699533D01*
X546485D01*
Y698517D01*
X545469D01*
Y696485D01*
X546485D01*
X550235Y628985D02*
Y627969D01*
X552267D01*
Y628985D01*
X553283D01*
Y631017D01*
X552267D01*
Y632033D01*
X550235D01*
Y631017D01*
X549219D01*
Y628985D01*
X550235D01*
Y598985D02*
Y597969D01*
X552267D01*
Y598985D01*
X553283D01*
Y601017D01*
X552267D01*
Y602033D01*
X550235D01*
Y601017D01*
X549219D01*
Y598985D01*
X550235D01*
X546485Y591485D02*
Y590469D01*
X548517D01*
Y591485D01*
X549533D01*
Y593517D01*
X548517D01*
Y594533D01*
X546485D01*
Y593517D01*
X545469D01*
Y591485D01*
X546485D01*
X550235Y583985D02*
Y582969D01*
X552267D01*
Y583985D01*
X553283D01*
Y586017D01*
X552267D01*
Y587033D01*
X550235D01*
Y586017D01*
X549219D01*
Y583985D01*
X550235D01*
X546485Y576485D02*
Y575469D01*
X548517D01*
Y576485D01*
X549533D01*
Y578517D01*
X548517D01*
Y579533D01*
X546485D01*
Y578517D01*
X545469D01*
Y576485D01*
X546485D01*
X550235Y568985D02*
Y567969D01*
X552267D01*
Y568985D01*
X553283D01*
Y571017D01*
X552267D01*
Y572033D01*
X550235D01*
Y571017D01*
X549219D01*
Y568985D01*
X550235D01*
X546485Y561485D02*
Y560469D01*
X548517D01*
Y561485D01*
X549533D01*
Y563517D01*
X548517D01*
Y564533D01*
X546485D01*
Y563517D01*
X545469D01*
Y561485D01*
X546485D01*
X550235Y553985D02*
Y552969D01*
X552267D01*
Y553985D01*
X553283D01*
Y556017D01*
X552267D01*
Y557033D01*
X550235D01*
Y556017D01*
X549219D01*
Y553985D01*
X550235D01*
X546485Y546485D02*
Y545469D01*
X548517D01*
Y546485D01*
X549533D01*
Y548517D01*
X548517D01*
Y549533D01*
X546485D01*
Y548517D01*
X545469D01*
Y546485D01*
X546485D01*
X550235Y538985D02*
Y537969D01*
X552267D01*
Y538985D01*
X553283D01*
Y541017D01*
X552267D01*
Y542033D01*
X550235D01*
Y541017D01*
X549219D01*
Y538985D01*
X550235D01*
X546485Y531485D02*
Y530469D01*
X548517D01*
Y531485D01*
X549533D01*
Y533517D01*
X548517D01*
Y534533D01*
X546485D01*
Y533517D01*
X545469D01*
Y531485D01*
X546485D01*
X550235Y523985D02*
Y522969D01*
X552267D01*
Y523985D01*
X553283D01*
Y526017D01*
X552267D01*
Y527033D01*
X550235D01*
Y526017D01*
X549219D01*
Y523985D01*
X550235D01*
X546485Y516485D02*
Y515469D01*
X548517D01*
Y516485D01*
X549533D01*
Y518517D01*
X548517D01*
Y519533D01*
X546485D01*
Y518517D01*
X545469D01*
Y516485D01*
X546485D01*
X550235Y508985D02*
Y507969D01*
X552267D01*
Y508985D01*
X553283D01*
Y511017D01*
X552267D01*
Y512033D01*
X550235D01*
Y511017D01*
X549219D01*
Y508985D01*
X550235D01*
X538985Y741485D02*
Y740469D01*
X541017D01*
Y741485D01*
X542033D01*
Y743517D01*
X541017D01*
Y744533D01*
X538985D01*
Y743517D01*
X537969D01*
Y741485D01*
X538985D01*
X542735Y718985D02*
Y717969D01*
X544767D01*
Y718985D01*
X545783D01*
Y721017D01*
X544767D01*
Y722033D01*
X542735D01*
Y721017D01*
X541719D01*
Y718985D01*
X542735D01*
X538985Y711485D02*
Y710469D01*
X541017D01*
Y711485D01*
X542033D01*
Y713517D01*
X541017D01*
Y714533D01*
X538985D01*
Y713517D01*
X537969D01*
Y711485D01*
X538985D01*
X542735Y703985D02*
Y702969D01*
X544767D01*
Y703985D01*
X545783D01*
Y706017D01*
X544767D01*
Y707033D01*
X542735D01*
Y706017D01*
X541719D01*
Y703985D01*
X542735D01*
X538985Y696485D02*
Y695469D01*
X541017D01*
Y696485D01*
X542033D01*
Y698517D01*
X541017D01*
Y699533D01*
X538985D01*
Y698517D01*
X537969D01*
Y696485D01*
X538985D01*
Y681485D02*
Y680469D01*
X541017D01*
Y681485D01*
X542033D01*
Y683517D01*
X541017D01*
Y684533D01*
X538985D01*
Y683517D01*
X537969D01*
Y681485D01*
X538985D01*
Y666485D02*
Y665469D01*
X541017D01*
Y666485D01*
X542033D01*
Y668517D01*
X541017D01*
Y669533D01*
X538985D01*
Y668517D01*
X537969D01*
Y666485D01*
X538985D01*
X542735Y628985D02*
Y627969D01*
X544767D01*
Y628985D01*
X545783D01*
Y631017D01*
X544767D01*
Y632033D01*
X542735D01*
Y631017D01*
X541719D01*
Y628985D01*
X542735D01*
Y598985D02*
Y597969D01*
X544767D01*
Y598985D01*
X545783D01*
Y601017D01*
X544767D01*
Y602033D01*
X542735D01*
Y601017D01*
X541719D01*
Y598985D01*
X542735D01*
X538985Y591485D02*
Y590469D01*
X541017D01*
Y591485D01*
X542033D01*
Y593517D01*
X541017D01*
Y594533D01*
X538985D01*
Y593517D01*
X537969D01*
Y591485D01*
X538985D01*
X542735Y583985D02*
Y582969D01*
X544767D01*
Y583985D01*
X545783D01*
Y586017D01*
X544767D01*
Y587033D01*
X542735D01*
Y586017D01*
X541719D01*
Y583985D01*
X542735D01*
X538985Y576485D02*
Y575469D01*
X541017D01*
Y576485D01*
X542033D01*
Y578517D01*
X541017D01*
Y579533D01*
X538985D01*
Y578517D01*
X537969D01*
Y576485D01*
X538985D01*
X542735Y568985D02*
Y567969D01*
X544767D01*
Y568985D01*
X545783D01*
Y571017D01*
X544767D01*
Y572033D01*
X542735D01*
Y571017D01*
X541719D01*
Y568985D01*
X542735D01*
X538985Y561485D02*
Y560469D01*
X541017D01*
Y561485D01*
X542033D01*
Y563517D01*
X541017D01*
Y564533D01*
X538985D01*
Y563517D01*
X537969D01*
Y561485D01*
X538985D01*
X542735Y553985D02*
Y552969D01*
X544767D01*
Y553985D01*
X545783D01*
Y556017D01*
X544767D01*
Y557033D01*
X542735D01*
Y556017D01*
X541719D01*
Y553985D01*
X542735D01*
X538985Y546485D02*
Y545469D01*
X541017D01*
Y546485D01*
X542033D01*
Y548517D01*
X541017D01*
Y549533D01*
X538985D01*
Y548517D01*
X537969D01*
Y546485D01*
X538985D01*
X542735Y538985D02*
Y537969D01*
X544767D01*
Y538985D01*
X545783D01*
Y541017D01*
X544767D01*
Y542033D01*
X542735D01*
Y541017D01*
X541719D01*
Y538985D01*
X542735D01*
X538985Y531485D02*
Y530469D01*
X541017D01*
Y531485D01*
X542033D01*
Y533517D01*
X541017D01*
Y534533D01*
X538985D01*
Y533517D01*
X537969D01*
Y531485D01*
X538985D01*
X542735Y523985D02*
Y522969D01*
X544767D01*
Y523985D01*
X545783D01*
Y526017D01*
X544767D01*
Y527033D01*
X542735D01*
Y526017D01*
X541719D01*
Y523985D01*
X542735D01*
X538985Y516485D02*
Y515469D01*
X541017D01*
Y516485D01*
X542033D01*
Y518517D01*
X541017D01*
Y519533D01*
X538985D01*
Y518517D01*
X537969D01*
Y516485D01*
X538985D01*
X542735Y508985D02*
Y507969D01*
X544767D01*
Y508985D01*
X545783D01*
Y511017D01*
X544767D01*
Y512033D01*
X542735D01*
Y511017D01*
X541719D01*
Y508985D01*
X542735D01*
X535235Y718985D02*
Y717969D01*
X537267D01*
Y718985D01*
X538283D01*
Y721017D01*
X537267D01*
Y722033D01*
X535235D01*
Y721017D01*
X534219D01*
Y718985D01*
X535235D01*
X531485Y711485D02*
Y710469D01*
X533517D01*
Y711485D01*
X534533D01*
Y713517D01*
X533517D01*
Y714533D01*
X531485D01*
Y713517D01*
X530469D01*
Y711485D01*
X531485D01*
X535235Y703985D02*
Y702969D01*
X537267D01*
Y703985D01*
X538283D01*
Y706017D01*
X537267D01*
Y707033D01*
X535235D01*
Y706017D01*
X534219D01*
Y703985D01*
X535235D01*
X531485Y696485D02*
Y695469D01*
X533517D01*
Y696485D01*
X534533D01*
Y698517D01*
X533517D01*
Y699533D01*
X531485D01*
Y698517D01*
X530469D01*
Y696485D01*
X531485D01*
X535235Y688985D02*
Y687969D01*
X537267D01*
Y688985D01*
X538283D01*
Y691017D01*
X537267D01*
Y692033D01*
X535235D01*
Y691017D01*
X534219D01*
Y688985D01*
X535235D01*
X531485Y681485D02*
Y680469D01*
X533517D01*
Y681485D01*
X534533D01*
Y683517D01*
X533517D01*
Y684533D01*
X531485D01*
Y683517D01*
X530469D01*
Y681485D01*
X531485D01*
X535235Y673985D02*
Y672969D01*
X537267D01*
Y673985D01*
X538283D01*
Y676017D01*
X537267D01*
Y677033D01*
X535235D01*
Y676017D01*
X534219D01*
Y673985D01*
X535235D01*
X531485Y666485D02*
Y665469D01*
X533517D01*
Y666485D01*
X534533D01*
Y668517D01*
X533517D01*
Y669533D01*
X531485D01*
Y668517D01*
X530469D01*
Y666485D01*
X531485D01*
X535235Y658985D02*
Y657969D01*
X537267D01*
Y658985D01*
X538283D01*
Y661017D01*
X537267D01*
Y662033D01*
X535235D01*
Y661017D01*
X534219D01*
Y658985D01*
X535235D01*
Y628985D02*
Y627969D01*
X537267D01*
Y628985D01*
X538283D01*
Y631017D01*
X537267D01*
Y632033D01*
X535235D01*
Y631017D01*
X534219D01*
Y628985D01*
X535235D01*
X531485Y621485D02*
Y620469D01*
X533517D01*
Y621485D01*
X534533D01*
Y623517D01*
X533517D01*
Y624533D01*
X531485D01*
Y623517D01*
X530469D01*
Y621485D01*
X531485D01*
Y606485D02*
Y605469D01*
X533517D01*
Y606485D01*
X534533D01*
Y608517D01*
X533517D01*
Y609533D01*
X531485D01*
Y608517D01*
X530469D01*
Y606485D01*
X531485D01*
X535235Y598985D02*
Y597969D01*
X537267D01*
Y598985D01*
X538283D01*
Y601017D01*
X537267D01*
Y602033D01*
X535235D01*
Y601017D01*
X534219D01*
Y598985D01*
X535235D01*
X531485Y591485D02*
Y590469D01*
X533517D01*
Y591485D01*
X534533D01*
Y593517D01*
X533517D01*
Y594533D01*
X531485D01*
Y593517D01*
X530469D01*
Y591485D01*
X531485D01*
X535235Y583985D02*
Y582969D01*
X537267D01*
Y583985D01*
X538283D01*
Y586017D01*
X537267D01*
Y587033D01*
X535235D01*
Y586017D01*
X534219D01*
Y583985D01*
X535235D01*
X531485Y576485D02*
Y575469D01*
X533517D01*
Y576485D01*
X534533D01*
Y578517D01*
X533517D01*
Y579533D01*
X531485D01*
Y578517D01*
X530469D01*
Y576485D01*
X531485D01*
X535235Y568985D02*
Y567969D01*
X537267D01*
Y568985D01*
X538283D01*
Y571017D01*
X537267D01*
Y572033D01*
X535235D01*
Y571017D01*
X534219D01*
Y568985D01*
X535235D01*
X531485Y561485D02*
Y560469D01*
X533517D01*
Y561485D01*
X534533D01*
Y563517D01*
X533517D01*
Y564533D01*
X531485D01*
Y563517D01*
X530469D01*
Y561485D01*
X531485D01*
X535235Y553985D02*
Y552969D01*
X537267D01*
Y553985D01*
X538283D01*
Y556017D01*
X537267D01*
Y557033D01*
X535235D01*
Y556017D01*
X534219D01*
Y553985D01*
X535235D01*
X531485Y546485D02*
Y545469D01*
X533517D01*
Y546485D01*
X534533D01*
Y548517D01*
X533517D01*
Y549533D01*
X531485D01*
Y548517D01*
X530469D01*
Y546485D01*
X531485D01*
X535235Y538985D02*
Y537969D01*
X537267D01*
Y538985D01*
X538283D01*
Y541017D01*
X537267D01*
Y542033D01*
X535235D01*
Y541017D01*
X534219D01*
Y538985D01*
X535235D01*
X531485Y531485D02*
Y530469D01*
X533517D01*
Y531485D01*
X534533D01*
Y533517D01*
X533517D01*
Y534533D01*
X531485D01*
Y533517D01*
X530469D01*
Y531485D01*
X531485D01*
X535235Y523985D02*
Y522969D01*
X537267D01*
Y523985D01*
X538283D01*
Y526017D01*
X537267D01*
Y527033D01*
X535235D01*
Y526017D01*
X534219D01*
Y523985D01*
X535235D01*
X531485Y516485D02*
Y515469D01*
X533517D01*
Y516485D01*
X534533D01*
Y518517D01*
X533517D01*
Y519533D01*
X531485D01*
Y518517D01*
X530469D01*
Y516485D01*
X531485D01*
X535235Y508985D02*
Y507969D01*
X537267D01*
Y508985D01*
X538283D01*
Y511017D01*
X537267D01*
Y512033D01*
X535235D01*
Y511017D01*
X534219D01*
Y508985D01*
X535235D01*
X527735Y718985D02*
Y717969D01*
X529767D01*
Y718985D01*
X530783D01*
Y721017D01*
X529767D01*
Y722033D01*
X527735D01*
Y721017D01*
X526719D01*
Y718985D01*
X527735D01*
X523985Y711485D02*
Y710469D01*
X526017D01*
Y711485D01*
X527033D01*
Y713517D01*
X526017D01*
Y714533D01*
X523985D01*
Y713517D01*
X522969D01*
Y711485D01*
X523985D01*
X527735Y703985D02*
Y702969D01*
X529767D01*
Y703985D01*
X530783D01*
Y706017D01*
X529767D01*
Y707033D01*
X527735D01*
Y706017D01*
X526719D01*
Y703985D01*
X527735D01*
X523985Y696485D02*
Y695469D01*
X526017D01*
Y696485D01*
X527033D01*
Y698517D01*
X526017D01*
Y699533D01*
X523985D01*
Y698517D01*
X522969D01*
Y696485D01*
X523985D01*
X527735Y688985D02*
Y687969D01*
X529767D01*
Y688985D01*
X530783D01*
Y691017D01*
X529767D01*
Y692033D01*
X527735D01*
Y691017D01*
X526719D01*
Y688985D01*
X527735D01*
X523985Y681485D02*
Y680469D01*
X526017D01*
Y681485D01*
X527033D01*
Y683517D01*
X526017D01*
Y684533D01*
X523985D01*
Y683517D01*
X522969D01*
Y681485D01*
X523985D01*
X527735Y673985D02*
Y672969D01*
X529767D01*
Y673985D01*
X530783D01*
Y676017D01*
X529767D01*
Y677033D01*
X527735D01*
Y676017D01*
X526719D01*
Y673985D01*
X527735D01*
X523985Y666485D02*
Y665469D01*
X526017D01*
Y666485D01*
X527033D01*
Y668517D01*
X526017D01*
Y669533D01*
X523985D01*
Y668517D01*
X522969D01*
Y666485D01*
X523985D01*
X527735Y658985D02*
Y657969D01*
X529767D01*
Y658985D01*
X530783D01*
Y661017D01*
X529767D01*
Y662033D01*
X527735D01*
Y661017D01*
X526719D01*
Y658985D01*
X527735D01*
X523985Y651485D02*
Y650469D01*
X526017D01*
Y651485D01*
X527033D01*
Y653517D01*
X526017D01*
Y654533D01*
X523985D01*
Y653517D01*
X522969D01*
Y651485D01*
X523985D01*
X527735Y643985D02*
Y642969D01*
X529767D01*
Y643985D01*
X530783D01*
Y646017D01*
X529767D01*
Y647033D01*
X527735D01*
Y646017D01*
X526719D01*
Y643985D01*
X527735D01*
X523985Y636485D02*
Y635469D01*
X526017D01*
Y636485D01*
X527033D01*
Y638517D01*
X526017D01*
Y639533D01*
X523985D01*
Y638517D01*
X522969D01*
Y636485D01*
X523985D01*
X527735Y628985D02*
Y627969D01*
X529767D01*
Y628985D01*
X530783D01*
Y631017D01*
X529767D01*
Y632033D01*
X527735D01*
Y631017D01*
X526719D01*
Y628985D01*
X527735D01*
X523985Y621485D02*
Y620469D01*
X526017D01*
Y621485D01*
X527033D01*
Y623517D01*
X526017D01*
Y624533D01*
X523985D01*
Y623517D01*
X522969D01*
Y621485D01*
X523985D01*
X527735Y613985D02*
Y612969D01*
X529767D01*
Y613985D01*
X530783D01*
Y616017D01*
X529767D01*
Y617033D01*
X527735D01*
Y616017D01*
X526719D01*
Y613985D01*
X527735D01*
X523985Y606485D02*
Y605469D01*
X526017D01*
Y606485D01*
X527033D01*
Y608517D01*
X526017D01*
Y609533D01*
X523985D01*
Y608517D01*
X522969D01*
Y606485D01*
X523985D01*
X527735Y598985D02*
Y597969D01*
X529767D01*
Y598985D01*
X530783D01*
Y601017D01*
X529767D01*
Y602033D01*
X527735D01*
Y601017D01*
X526719D01*
Y598985D01*
X527735D01*
X523985Y591485D02*
Y590469D01*
X526017D01*
Y591485D01*
X527033D01*
Y593517D01*
X526017D01*
Y594533D01*
X523985D01*
Y593517D01*
X522969D01*
Y591485D01*
X523985D01*
X527735Y583985D02*
Y582969D01*
X529767D01*
Y583985D01*
X530783D01*
Y586017D01*
X529767D01*
Y587033D01*
X527735D01*
Y586017D01*
X526719D01*
Y583985D01*
X527735D01*
X523985Y576485D02*
Y575469D01*
X526017D01*
Y576485D01*
X527033D01*
Y578517D01*
X526017D01*
Y579533D01*
X523985D01*
Y578517D01*
X522969D01*
Y576485D01*
X523985D01*
X527735Y568985D02*
Y567969D01*
X529767D01*
Y568985D01*
X530783D01*
Y571017D01*
X529767D01*
Y572033D01*
X527735D01*
Y571017D01*
X526719D01*
Y568985D01*
X527735D01*
X523985Y561485D02*
Y560469D01*
X526017D01*
Y561485D01*
X527033D01*
Y563517D01*
X526017D01*
Y564533D01*
X523985D01*
Y563517D01*
X522969D01*
Y561485D01*
X523985D01*
X527735Y553985D02*
Y552969D01*
X529767D01*
Y553985D01*
X530783D01*
Y556017D01*
X529767D01*
Y557033D01*
X527735D01*
Y556017D01*
X526719D01*
Y553985D01*
X527735D01*
X523985Y546485D02*
Y545469D01*
X526017D01*
Y546485D01*
X527033D01*
Y548517D01*
X526017D01*
Y549533D01*
X523985D01*
Y548517D01*
X522969D01*
Y546485D01*
X523985D01*
X527735Y538985D02*
Y537969D01*
X529767D01*
Y538985D01*
X530783D01*
Y541017D01*
X529767D01*
Y542033D01*
X527735D01*
Y541017D01*
X526719D01*
Y538985D01*
X527735D01*
X523985Y531485D02*
Y530469D01*
X526017D01*
Y531485D01*
X527033D01*
Y533517D01*
X526017D01*
Y534533D01*
X523985D01*
Y533517D01*
X522969D01*
Y531485D01*
X523985D01*
X527735Y523985D02*
Y522969D01*
X529767D01*
Y523985D01*
X530783D01*
Y526017D01*
X529767D01*
Y527033D01*
X527735D01*
Y526017D01*
X526719D01*
Y523985D01*
X527735D01*
X523985Y516485D02*
Y515469D01*
X526017D01*
Y516485D01*
X527033D01*
Y518517D01*
X526017D01*
Y519533D01*
X523985D01*
Y518517D01*
X522969D01*
Y516485D01*
X523985D01*
X527735Y508985D02*
Y507969D01*
X529767D01*
Y508985D01*
X530783D01*
Y511017D01*
X529767D01*
Y512033D01*
X527735D01*
Y511017D01*
X526719D01*
Y508985D01*
X527735D01*
X516485Y741485D02*
Y740469D01*
X518517D01*
Y741485D01*
X519533D01*
Y743517D01*
X518517D01*
Y744533D01*
X516485D01*
Y743517D01*
X515469D01*
Y741485D01*
X516485D01*
Y726485D02*
Y725469D01*
X518517D01*
Y726485D01*
X519533D01*
Y728517D01*
X518517D01*
Y729533D01*
X516485D01*
Y728517D01*
X515469D01*
Y726485D01*
X516485D01*
X520235Y718985D02*
Y717969D01*
X522267D01*
Y718985D01*
X523283D01*
Y721017D01*
X522267D01*
Y722033D01*
X520235D01*
Y721017D01*
X519219D01*
Y718985D01*
X520235D01*
X516485Y711485D02*
Y710469D01*
X518517D01*
Y711485D01*
X519533D01*
Y713517D01*
X518517D01*
Y714533D01*
X516485D01*
Y713517D01*
X515469D01*
Y711485D01*
X516485D01*
X520235Y703985D02*
Y702969D01*
X522267D01*
Y703985D01*
X523283D01*
Y706017D01*
X522267D01*
Y707033D01*
X520235D01*
Y706017D01*
X519219D01*
Y703985D01*
X520235D01*
X516485Y696485D02*
Y695469D01*
X518517D01*
Y696485D01*
X519533D01*
Y698517D01*
X518517D01*
Y699533D01*
X516485D01*
Y698517D01*
X515469D01*
Y696485D01*
X516485D01*
X520235Y688985D02*
Y687969D01*
X522267D01*
Y688985D01*
X523283D01*
Y691017D01*
X522267D01*
Y692033D01*
X520235D01*
Y691017D01*
X519219D01*
Y688985D01*
X520235D01*
X516485Y681485D02*
Y680469D01*
X518517D01*
Y681485D01*
X519533D01*
Y683517D01*
X518517D01*
Y684533D01*
X516485D01*
Y683517D01*
X515469D01*
Y681485D01*
X516485D01*
X520235Y673985D02*
Y672969D01*
X522267D01*
Y673985D01*
X523283D01*
Y676017D01*
X522267D01*
Y677033D01*
X520235D01*
Y676017D01*
X519219D01*
Y673985D01*
X520235D01*
X516485Y666485D02*
Y665469D01*
X518517D01*
Y666485D01*
X519533D01*
Y668517D01*
X518517D01*
Y669533D01*
X516485D01*
Y668517D01*
X515469D01*
Y666485D01*
X516485D01*
X520235Y658985D02*
Y657969D01*
X522267D01*
Y658985D01*
X523283D01*
Y661017D01*
X522267D01*
Y662033D01*
X520235D01*
Y661017D01*
X519219D01*
Y658985D01*
X520235D01*
X516485Y651485D02*
Y650469D01*
X518517D01*
Y651485D01*
X519533D01*
Y653517D01*
X518517D01*
Y654533D01*
X516485D01*
Y653517D01*
X515469D01*
Y651485D01*
X516485D01*
X520235Y643985D02*
Y642969D01*
X522267D01*
Y643985D01*
X523283D01*
Y646017D01*
X522267D01*
Y647033D01*
X520235D01*
Y646017D01*
X519219D01*
Y643985D01*
X520235D01*
X516485Y636485D02*
Y635469D01*
X518517D01*
Y636485D01*
X519533D01*
Y638517D01*
X518517D01*
Y639533D01*
X516485D01*
Y638517D01*
X515469D01*
Y636485D01*
X516485D01*
X520235Y628985D02*
Y627969D01*
X522267D01*
Y628985D01*
X523283D01*
Y631017D01*
X522267D01*
Y632033D01*
X520235D01*
Y631017D01*
X519219D01*
Y628985D01*
X520235D01*
X516485Y621485D02*
Y620469D01*
X518517D01*
Y621485D01*
X519533D01*
Y623517D01*
X518517D01*
Y624533D01*
X516485D01*
Y623517D01*
X515469D01*
Y621485D01*
X516485D01*
X520235Y613985D02*
Y612969D01*
X522267D01*
Y613985D01*
X523283D01*
Y616017D01*
X522267D01*
Y617033D01*
X520235D01*
Y616017D01*
X519219D01*
Y613985D01*
X520235D01*
X516485Y606485D02*
Y605469D01*
X518517D01*
Y606485D01*
X519533D01*
Y608517D01*
X518517D01*
Y609533D01*
X516485D01*
Y608517D01*
X515469D01*
Y606485D01*
X516485D01*
X520235Y598985D02*
Y597969D01*
X522267D01*
Y598985D01*
X523283D01*
Y601017D01*
X522267D01*
Y602033D01*
X520235D01*
Y601017D01*
X519219D01*
Y598985D01*
X520235D01*
X516485Y591485D02*
Y590469D01*
X518517D01*
Y591485D01*
X519533D01*
Y593517D01*
X518517D01*
Y594533D01*
X516485D01*
Y593517D01*
X515469D01*
Y591485D01*
X516485D01*
X520235Y583985D02*
Y582969D01*
X522267D01*
Y583985D01*
X523283D01*
Y586017D01*
X522267D01*
Y587033D01*
X520235D01*
Y586017D01*
X519219D01*
Y583985D01*
X520235D01*
X516485Y576485D02*
Y575469D01*
X518517D01*
Y576485D01*
X519533D01*
Y578517D01*
X518517D01*
Y579533D01*
X516485D01*
Y578517D01*
X515469D01*
Y576485D01*
X516485D01*
X520235Y568985D02*
Y567969D01*
X522267D01*
Y568985D01*
X523283D01*
Y571017D01*
X522267D01*
Y572033D01*
X520235D01*
Y571017D01*
X519219D01*
Y568985D01*
X520235D01*
X516485Y561485D02*
Y560469D01*
X518517D01*
Y561485D01*
X519533D01*
Y563517D01*
X518517D01*
Y564533D01*
X516485D01*
Y563517D01*
X515469D01*
Y561485D01*
X516485D01*
X520235Y553985D02*
Y552969D01*
X522267D01*
Y553985D01*
X523283D01*
Y556017D01*
X522267D01*
Y557033D01*
X520235D01*
Y556017D01*
X519219D01*
Y553985D01*
X520235D01*
X516485Y546485D02*
Y545469D01*
X518517D01*
Y546485D01*
X519533D01*
Y548517D01*
X518517D01*
Y549533D01*
X516485D01*
Y548517D01*
X515469D01*
Y546485D01*
X516485D01*
X520235Y538985D02*
Y537969D01*
X522267D01*
Y538985D01*
X523283D01*
Y541017D01*
X522267D01*
Y542033D01*
X520235D01*
Y541017D01*
X519219D01*
Y538985D01*
X520235D01*
X516485Y531485D02*
Y530469D01*
X518517D01*
Y531485D01*
X519533D01*
Y533517D01*
X518517D01*
Y534533D01*
X516485D01*
Y533517D01*
X515469D01*
Y531485D01*
X516485D01*
X520235Y523985D02*
Y522969D01*
X522267D01*
Y523985D01*
X523283D01*
Y526017D01*
X522267D01*
Y527033D01*
X520235D01*
Y526017D01*
X519219D01*
Y523985D01*
X520235D01*
X516485Y516485D02*
Y515469D01*
X518517D01*
Y516485D01*
X519533D01*
Y518517D01*
X518517D01*
Y519533D01*
X516485D01*
Y518517D01*
X515469D01*
Y516485D01*
X516485D01*
X520235Y508985D02*
Y507969D01*
X522267D01*
Y508985D01*
X523283D01*
Y511017D01*
X522267D01*
Y512033D01*
X520235D01*
Y511017D01*
X519219D01*
Y508985D01*
X520235D01*
X508985Y741485D02*
Y740469D01*
X511017D01*
Y741485D01*
X512033D01*
Y743517D01*
X511017D01*
Y744533D01*
X508985D01*
Y743517D01*
X507969D01*
Y741485D01*
X508985D01*
X512735Y733985D02*
Y732969D01*
X514767D01*
Y733985D01*
X515783D01*
Y736017D01*
X514767D01*
Y737033D01*
X512735D01*
Y736017D01*
X511719D01*
Y733985D01*
X512735D01*
X508985Y726485D02*
Y725469D01*
X511017D01*
Y726485D01*
X512033D01*
Y728517D01*
X511017D01*
Y729533D01*
X508985D01*
Y728517D01*
X507969D01*
Y726485D01*
X508985D01*
X512735Y718985D02*
Y717969D01*
X514767D01*
Y718985D01*
X515783D01*
Y721017D01*
X514767D01*
Y722033D01*
X512735D01*
Y721017D01*
X511719D01*
Y718985D01*
X512735D01*
X508985Y711485D02*
Y710469D01*
X511017D01*
Y711485D01*
X512033D01*
Y713517D01*
X511017D01*
Y714533D01*
X508985D01*
Y713517D01*
X507969D01*
Y711485D01*
X508985D01*
X512735Y703985D02*
Y702969D01*
X514767D01*
Y703985D01*
X515783D01*
Y706017D01*
X514767D01*
Y707033D01*
X512735D01*
Y706017D01*
X511719D01*
Y703985D01*
X512735D01*
X508985Y696485D02*
Y695469D01*
X511017D01*
Y696485D01*
X512033D01*
Y698517D01*
X511017D01*
Y699533D01*
X508985D01*
Y698517D01*
X507969D01*
Y696485D01*
X508985D01*
X512735Y688985D02*
Y687969D01*
X514767D01*
Y688985D01*
X515783D01*
Y691017D01*
X514767D01*
Y692033D01*
X512735D01*
Y691017D01*
X511719D01*
Y688985D01*
X512735D01*
X508985Y681485D02*
Y680469D01*
X511017D01*
Y681485D01*
X512033D01*
Y683517D01*
X511017D01*
Y684533D01*
X508985D01*
Y683517D01*
X507969D01*
Y681485D01*
X508985D01*
X512735Y673985D02*
Y672969D01*
X514767D01*
Y673985D01*
X515783D01*
Y676017D01*
X514767D01*
Y677033D01*
X512735D01*
Y676017D01*
X511719D01*
Y673985D01*
X512735D01*
X508985Y666485D02*
Y665469D01*
X511017D01*
Y666485D01*
X512033D01*
Y668517D01*
X511017D01*
Y669533D01*
X508985D01*
Y668517D01*
X507969D01*
Y666485D01*
X508985D01*
X512735Y658985D02*
Y657969D01*
X514767D01*
Y658985D01*
X515783D01*
Y661017D01*
X514767D01*
Y662033D01*
X512735D01*
Y661017D01*
X511719D01*
Y658985D01*
X512735D01*
X508985Y651485D02*
Y650469D01*
X511017D01*
Y651485D01*
X512033D01*
Y653517D01*
X511017D01*
Y654533D01*
X508985D01*
Y653517D01*
X507969D01*
Y651485D01*
X508985D01*
X512735Y643985D02*
Y642969D01*
X514767D01*
Y643985D01*
X515783D01*
Y646017D01*
X514767D01*
Y647033D01*
X512735D01*
Y646017D01*
X511719D01*
Y643985D01*
X512735D01*
X508985Y636485D02*
Y635469D01*
X511017D01*
Y636485D01*
X512033D01*
Y638517D01*
X511017D01*
Y639533D01*
X508985D01*
Y638517D01*
X507969D01*
Y636485D01*
X508985D01*
X512735Y628985D02*
Y627969D01*
X514767D01*
Y628985D01*
X515783D01*
Y631017D01*
X514767D01*
Y632033D01*
X512735D01*
Y631017D01*
X511719D01*
Y628985D01*
X512735D01*
X508985Y621485D02*
Y620469D01*
X511017D01*
Y621485D01*
X512033D01*
Y623517D01*
X511017D01*
Y624533D01*
X508985D01*
Y623517D01*
X507969D01*
Y621485D01*
X508985D01*
X512735Y613985D02*
Y612969D01*
X514767D01*
Y613985D01*
X515783D01*
Y616017D01*
X514767D01*
Y617033D01*
X512735D01*
Y616017D01*
X511719D01*
Y613985D01*
X512735D01*
X508985Y606485D02*
Y605469D01*
X511017D01*
Y606485D01*
X512033D01*
Y608517D01*
X511017D01*
Y609533D01*
X508985D01*
Y608517D01*
X507969D01*
Y606485D01*
X508985D01*
X512735Y598985D02*
Y597969D01*
X514767D01*
Y598985D01*
X515783D01*
Y601017D01*
X514767D01*
Y602033D01*
X512735D01*
Y601017D01*
X511719D01*
Y598985D01*
X512735D01*
X508985Y591485D02*
Y590469D01*
X511017D01*
Y591485D01*
X512033D01*
Y593517D01*
X511017D01*
Y594533D01*
X508985D01*
Y593517D01*
X507969D01*
Y591485D01*
X508985D01*
X512735Y583985D02*
Y582969D01*
X514767D01*
Y583985D01*
X515783D01*
Y586017D01*
X514767D01*
Y587033D01*
X512735D01*
Y586017D01*
X511719D01*
Y583985D01*
X512735D01*
X508985Y576485D02*
Y575469D01*
X511017D01*
Y576485D01*
X512033D01*
Y578517D01*
X511017D01*
Y579533D01*
X508985D01*
Y578517D01*
X507969D01*
Y576485D01*
X508985D01*
X512735Y568985D02*
Y567969D01*
X514767D01*
Y568985D01*
X515783D01*
Y571017D01*
X514767D01*
Y572033D01*
X512735D01*
Y571017D01*
X511719D01*
Y568985D01*
X512735D01*
X508985Y561485D02*
Y560469D01*
X511017D01*
Y561485D01*
X512033D01*
Y563517D01*
X511017D01*
Y564533D01*
X508985D01*
Y563517D01*
X507969D01*
Y561485D01*
X508985D01*
X512735Y553985D02*
Y552969D01*
X514767D01*
Y553985D01*
X515783D01*
Y556017D01*
X514767D01*
Y557033D01*
X512735D01*
Y556017D01*
X511719D01*
Y553985D01*
X512735D01*
X508985Y546485D02*
Y545469D01*
X511017D01*
Y546485D01*
X512033D01*
Y548517D01*
X511017D01*
Y549533D01*
X508985D01*
Y548517D01*
X507969D01*
Y546485D01*
X508985D01*
X512735Y538985D02*
Y537969D01*
X514767D01*
Y538985D01*
X515783D01*
Y541017D01*
X514767D01*
Y542033D01*
X512735D01*
Y541017D01*
X511719D01*
Y538985D01*
X512735D01*
X508985Y531485D02*
Y530469D01*
X511017D01*
Y531485D01*
X512033D01*
Y533517D01*
X511017D01*
Y534533D01*
X508985D01*
Y533517D01*
X507969D01*
Y531485D01*
X508985D01*
X512735Y523985D02*
Y522969D01*
X514767D01*
Y523985D01*
X515783D01*
Y526017D01*
X514767D01*
Y527033D01*
X512735D01*
Y526017D01*
X511719D01*
Y523985D01*
X512735D01*
X508985Y516485D02*
Y515469D01*
X511017D01*
Y516485D01*
X512033D01*
Y518517D01*
X511017D01*
Y519533D01*
X508985D01*
Y518517D01*
X507969D01*
Y516485D01*
X508985D01*
X512735Y508985D02*
Y507969D01*
X514767D01*
Y508985D01*
X515783D01*
Y511017D01*
X514767D01*
Y512033D01*
X512735D01*
Y511017D01*
X511719D01*
Y508985D01*
X512735D01*
X505235Y733985D02*
Y732969D01*
X507267D01*
Y733985D01*
X508283D01*
Y736017D01*
X507267D01*
Y737033D01*
X505235D01*
Y736017D01*
X504219D01*
Y733985D01*
X505235D01*
Y718985D02*
Y717969D01*
X507267D01*
Y718985D01*
X508283D01*
Y721017D01*
X507267D01*
Y722033D01*
X505235D01*
Y721017D01*
X504219D01*
Y718985D01*
X505235D01*
Y703985D02*
Y702969D01*
X507267D01*
Y703985D01*
X508283D01*
Y706017D01*
X507267D01*
Y707033D01*
X505235D01*
Y706017D01*
X504219D01*
Y703985D01*
X505235D01*
Y688985D02*
Y687969D01*
X507267D01*
Y688985D01*
X508283D01*
Y691017D01*
X507267D01*
Y692033D01*
X505235D01*
Y691017D01*
X504219D01*
Y688985D01*
X505235D01*
Y673985D02*
Y672969D01*
X507267D01*
Y673985D01*
X508283D01*
Y676017D01*
X507267D01*
Y677033D01*
X505235D01*
Y676017D01*
X504219D01*
Y673985D01*
X505235D01*
Y658985D02*
Y657969D01*
X507267D01*
Y658985D01*
X508283D01*
Y661017D01*
X507267D01*
Y662033D01*
X505235D01*
Y661017D01*
X504219D01*
Y658985D01*
X505235D01*
Y643985D02*
Y642969D01*
X507267D01*
Y643985D01*
X508283D01*
Y646017D01*
X507267D01*
Y647033D01*
X505235D01*
Y646017D01*
X504219D01*
Y643985D01*
X505235D01*
Y628985D02*
Y627969D01*
X507267D01*
Y628985D01*
X508283D01*
Y631017D01*
X507267D01*
Y632033D01*
X505235D01*
Y631017D01*
X504219D01*
Y628985D01*
X505235D01*
Y613985D02*
Y612969D01*
X507267D01*
Y613985D01*
X508283D01*
Y616017D01*
X507267D01*
Y617033D01*
X505235D01*
Y616017D01*
X504219D01*
Y613985D01*
X505235D01*
Y598985D02*
Y597969D01*
X507267D01*
Y598985D01*
X508283D01*
Y601017D01*
X507267D01*
Y602033D01*
X505235D01*
Y601017D01*
X504219D01*
Y598985D01*
X505235D01*
Y583985D02*
Y582969D01*
X507267D01*
Y583985D01*
X508283D01*
Y586017D01*
X507267D01*
Y587033D01*
X505235D01*
Y586017D01*
X504219D01*
Y583985D01*
X505235D01*
Y568985D02*
Y567969D01*
X507267D01*
Y568985D01*
X508283D01*
Y571017D01*
X507267D01*
Y572033D01*
X505235D01*
Y571017D01*
X504219D01*
Y568985D01*
X505235D01*
Y553985D02*
Y552969D01*
X507267D01*
Y553985D01*
X508283D01*
Y556017D01*
X507267D01*
Y557033D01*
X505235D01*
Y556017D01*
X504219D01*
Y553985D01*
X505235D01*
Y538985D02*
Y537969D01*
X507267D01*
Y538985D01*
X508283D01*
Y541017D01*
X507267D01*
Y542033D01*
X505235D01*
Y541017D01*
X504219D01*
Y538985D01*
X505235D01*
Y523985D02*
Y522969D01*
X507267D01*
Y523985D01*
X508283D01*
Y526017D01*
X507267D01*
Y527033D01*
X505235D01*
Y526017D01*
X504219D01*
Y523985D01*
X505235D01*
Y508985D02*
Y507969D01*
X507267D01*
Y508985D01*
X508283D01*
Y511017D01*
X507267D01*
Y512033D01*
X505235D01*
Y511017D01*
X504219D01*
Y508985D01*
X505235D01*
X745984Y534984D02*
Y533968D01*
X748016D01*
Y534984D01*
X749032D01*
Y537016D01*
X748016D01*
Y538032D01*
X745984D01*
Y537016D01*
X744968D01*
Y534984D01*
X745984D01*
X1196984Y722984D02*
Y721968D01*
X1199016D01*
Y722984D01*
X1200032D01*
Y725016D01*
X1199016D01*
Y726032D01*
X1196984D01*
Y725016D01*
X1195968D01*
Y722984D01*
X1196984D01*
X1437984Y623984D02*
Y622968D01*
X1440016D01*
Y623984D01*
X1441032D01*
Y626016D01*
X1440016D01*
Y627032D01*
X1437984D01*
Y626016D01*
X1436968D01*
Y623984D01*
X1437984D01*
X1102984Y542984D02*
Y541968D01*
X1105016D01*
Y542984D01*
X1106032D01*
Y545016D01*
X1105016D01*
Y546032D01*
X1102984D01*
Y545016D01*
X1101968D01*
Y542984D01*
X1102984D01*
X1361862Y698774D02*
Y697758D01*
X1363894D01*
Y698774D01*
X1364910D01*
Y700806D01*
X1363894D01*
Y701822D01*
X1361862D01*
Y700806D01*
X1360846D01*
Y698774D01*
X1361862D01*
X1368984Y698984D02*
Y697968D01*
X1371016D01*
Y698984D01*
X1372032D01*
Y701016D01*
X1371016D01*
Y702032D01*
X1368984D01*
Y701016D01*
X1367968D01*
Y698984D01*
X1368984D01*
X733984Y618984D02*
Y617968D01*
X736016D01*
Y618984D01*
X737032D01*
Y621016D01*
X736016D01*
Y622032D01*
X733984D01*
Y621016D01*
X732968D01*
Y618984D01*
X733984D01*
X1263484Y715484D02*
Y714468D01*
X1265516D01*
Y715484D01*
X1266532D01*
Y717516D01*
X1265516D01*
Y718532D01*
X1263484D01*
Y717516D01*
X1262468D01*
Y715484D01*
X1263484D01*
X1292984Y611133D02*
Y610117D01*
X1295016D01*
Y611133D01*
X1296032D01*
Y613164D01*
X1295016D01*
Y614180D01*
X1292984D01*
Y613164D01*
X1291968D01*
Y611133D01*
X1292984D01*
X1376437Y547284D02*
Y546268D01*
X1378469D01*
Y547284D01*
X1379485D01*
Y549316D01*
X1378469D01*
Y550332D01*
X1376437D01*
Y549316D01*
X1375421D01*
Y547284D01*
X1376437D01*
X1349648Y556320D02*
Y555304D01*
X1351680D01*
Y556320D01*
X1352696D01*
Y558352D01*
X1351680D01*
Y559368D01*
X1349648D01*
Y558352D01*
X1348632D01*
Y556320D01*
X1349648D01*
X1356447Y547775D02*
Y546759D01*
X1358479D01*
Y547775D01*
X1359495D01*
Y549807D01*
X1358479D01*
Y550823D01*
X1356447D01*
Y549807D01*
X1355431D01*
Y547775D01*
X1356447D01*
X1385147Y686654D02*
Y685638D01*
X1387179D01*
Y686654D01*
X1388195D01*
Y688686D01*
X1387179D01*
Y689702D01*
X1385147D01*
Y688686D01*
X1384131D01*
Y686654D01*
X1385147D01*
X1371126Y653284D02*
Y652268D01*
X1373158D01*
Y653284D01*
X1374174D01*
Y655316D01*
X1373158D01*
Y656332D01*
X1371126D01*
Y655316D01*
X1370110D01*
Y653284D01*
X1371126D01*
X1328284Y686654D02*
Y685638D01*
X1330316D01*
Y686654D01*
X1331332D01*
Y688686D01*
X1330316D01*
Y689702D01*
X1328284D01*
Y688686D01*
X1327268D01*
Y686654D01*
X1328284D01*
X1370551Y645293D02*
Y644277D01*
X1372583D01*
Y645293D01*
X1373599D01*
Y647325D01*
X1372583D01*
Y648341D01*
X1370551D01*
Y647325D01*
X1369535D01*
Y645293D01*
X1370551D01*
X690984Y527984D02*
Y526968D01*
X693016D01*
Y527984D01*
X694032D01*
Y530016D01*
X693016D01*
Y531032D01*
X690984D01*
Y530016D01*
X689968D01*
Y527984D01*
X690984D01*
X627484Y577484D02*
Y576468D01*
X629516D01*
Y577484D01*
X630532D01*
Y579516D01*
X629516D01*
Y580532D01*
X627484D01*
Y579516D01*
X626468D01*
Y577484D01*
X627484D01*
X1274984Y680984D02*
Y679968D01*
X1277016D01*
Y680984D01*
X1278032D01*
Y683016D01*
X1277016D01*
Y684032D01*
X1274984D01*
Y683016D01*
X1273968D01*
Y680984D01*
X1274984D01*
X1438984Y645984D02*
Y644968D01*
X1441016D01*
Y645984D01*
X1442032D01*
Y648016D01*
X1441016D01*
Y649032D01*
X1438984D01*
Y648016D01*
X1437968D01*
Y645984D01*
X1438984D01*
X1454844Y644267D02*
Y643251D01*
X1456876D01*
Y644267D01*
X1457892D01*
Y646299D01*
X1456876D01*
Y647315D01*
X1454844D01*
Y646299D01*
X1453828D01*
Y644267D01*
X1454844D01*
X752732Y569236D02*
Y568220D01*
X754764D01*
Y569236D01*
X755780D01*
Y571268D01*
X754764D01*
Y572284D01*
X752732D01*
Y571268D01*
X751716D01*
Y569236D01*
X752732D01*
X690984Y565984D02*
Y564968D01*
X693016D01*
Y565984D01*
X694032D01*
Y568016D01*
X693016D01*
Y569032D01*
X690984D01*
Y568016D01*
X689968D01*
Y565984D01*
X690984D01*
X682984Y563984D02*
Y562968D01*
X685016D01*
Y563984D01*
X686032D01*
Y566016D01*
X685016D01*
Y567032D01*
X682984D01*
Y566016D01*
X681968D01*
Y563984D01*
X682984D01*
X683176Y618990D02*
Y617974D01*
X685208D01*
Y618990D01*
X686224D01*
Y621022D01*
X685208D01*
Y622038D01*
X683176D01*
Y621022D01*
X682160D01*
Y618990D01*
X683176D01*
X688257Y630570D02*
Y629554D01*
X690289D01*
Y630570D01*
X691305D01*
Y632602D01*
X690289D01*
Y633618D01*
X688257D01*
Y632602D01*
X687241D01*
Y630570D01*
X688257D01*
X687563Y638182D02*
Y637166D01*
X689595D01*
Y638182D01*
X690611D01*
Y640214D01*
X689595D01*
Y641230D01*
X687563D01*
Y640214D01*
X686547D01*
Y638182D01*
X687563D01*
X702083Y624510D02*
Y623494D01*
X704115D01*
Y624510D01*
X705131D01*
Y626542D01*
X704115D01*
Y627558D01*
X702083D01*
Y626542D01*
X701067D01*
Y624510D01*
X702083D01*
X662984Y680984D02*
Y679968D01*
X665016D01*
Y680984D01*
X666032D01*
Y683016D01*
X665016D01*
Y684032D01*
X662984D01*
Y683016D01*
X661968D01*
Y680984D01*
X662984D01*
X657984Y669984D02*
Y668968D01*
X660016D01*
Y669984D01*
X661032D01*
Y672016D01*
X660016D01*
Y673032D01*
X657984D01*
Y672016D01*
X656968D01*
Y669984D01*
X657984D01*
X573649Y693319D02*
Y692303D01*
X575681D01*
Y693319D01*
X576697D01*
Y695351D01*
X575681D01*
Y696367D01*
X573649D01*
Y695351D01*
X572633D01*
Y693319D01*
X573649D01*
X575984Y701984D02*
Y700968D01*
X578016D01*
Y701984D01*
X579032D01*
Y704016D01*
X578016D01*
Y705032D01*
X575984D01*
Y704016D01*
X574968D01*
Y701984D01*
X575984D01*
X715984Y563984D02*
Y562968D01*
X718016D01*
Y563984D01*
X719032D01*
Y566016D01*
X718016D01*
Y567032D01*
X715984D01*
Y566016D01*
X714968D01*
Y563984D01*
X715984D01*
X708889Y573592D02*
Y572576D01*
X710921D01*
Y573592D01*
X711937D01*
Y575624D01*
X710921D01*
Y576640D01*
X708889D01*
Y575624D01*
X707873D01*
Y573592D01*
X708889D01*
X697944Y567040D02*
Y566024D01*
X699976D01*
Y567040D01*
X700992D01*
Y569072D01*
X699976D01*
Y570088D01*
X697944D01*
Y569072D01*
X696928D01*
Y567040D01*
X697944D01*
X704984Y567734D02*
Y566718D01*
X707016D01*
Y567734D01*
X708032D01*
Y569766D01*
X707016D01*
Y570782D01*
X704984D01*
Y569766D01*
X703968D01*
Y567734D01*
X704984D01*
X653484Y574116D02*
Y573100D01*
X655516D01*
Y574116D01*
X656532D01*
Y576148D01*
X655516D01*
Y577164D01*
X653484D01*
Y576148D01*
X652468D01*
Y574116D01*
X653484D01*
X644521Y574609D02*
Y573593D01*
X646553D01*
Y574609D01*
X647569D01*
Y576641D01*
X646553D01*
Y577657D01*
X644521D01*
Y576641D01*
X643505D01*
Y574609D01*
X644521D01*
X619406Y534575D02*
Y533559D01*
X621438D01*
Y534575D01*
X622454D01*
Y536607D01*
X621438D01*
Y537623D01*
X619406D01*
Y536607D01*
X618390D01*
Y534575D01*
X619406D01*
X751984Y728984D02*
Y727968D01*
X754016D01*
Y728984D01*
X755032D01*
Y731016D01*
X754016D01*
Y732032D01*
X751984D01*
Y731016D01*
X750968D01*
Y728984D01*
X751984D01*
X585424Y620312D02*
Y619296D01*
X587456D01*
Y620312D01*
X588472D01*
Y622344D01*
X587456D01*
Y623360D01*
X585424D01*
Y622344D01*
X584408D01*
Y620312D01*
X585424D01*
X584245Y627253D02*
Y626237D01*
X586277D01*
Y627253D01*
X587293D01*
Y629285D01*
X586277D01*
Y630301D01*
X584245D01*
Y629285D01*
X583229D01*
Y627253D01*
X584245D01*
X584327Y635177D02*
Y634161D01*
X586359D01*
Y635177D01*
X587375D01*
Y637209D01*
X586359D01*
Y638225D01*
X584327D01*
Y637209D01*
X583311D01*
Y635177D01*
X584327D01*
X600269Y672269D02*
Y671253D01*
X602301D01*
Y672269D01*
X603317D01*
Y674301D01*
X602301D01*
Y675317D01*
X600269D01*
Y674301D01*
X599253D01*
Y672269D01*
X600269D01*
X580269Y646319D02*
Y645303D01*
X582301D01*
Y646319D01*
X583317D01*
Y648351D01*
X582301D01*
Y649367D01*
X580269D01*
Y648351D01*
X579253D01*
Y646319D01*
X580269D01*
X585424Y651114D02*
Y650098D01*
X587456D01*
Y651114D01*
X588472D01*
Y653146D01*
X587456D01*
Y654162D01*
X585424D01*
Y653146D01*
X584408D01*
Y651114D01*
X585424D01*
X597544Y651056D02*
Y650040D01*
X599576D01*
Y651056D01*
X600592D01*
Y653088D01*
X599576D01*
Y654104D01*
X597544D01*
Y653088D01*
X596528D01*
Y651056D01*
X597544D01*
X624286Y689268D02*
Y688252D01*
X626319D01*
Y689268D01*
X627335D01*
Y691300D01*
X626319D01*
Y692316D01*
X624286D01*
Y691300D01*
X623270D01*
Y689268D01*
X624286D01*
X638027Y664352D02*
Y663336D01*
X640059D01*
Y664352D01*
X641075D01*
Y666384D01*
X640059D01*
Y667400D01*
X638027D01*
Y666384D01*
X637011D01*
Y664352D01*
X638027D01*
X622075Y680571D02*
X623091D01*
X624107Y681587D01*
X625123Y680571D01*
X626139D01*
Y681587D01*
X625123Y682602D01*
X626139Y683618D01*
Y684634D01*
X625123D01*
X624107Y683618D01*
X623091Y684634D01*
X622075D01*
Y683618D01*
X623091Y682602D01*
X622075Y681587D01*
Y680571D01*
X730984Y668559D02*
Y667543D01*
X733016D01*
Y668559D01*
X734032D01*
Y670591D01*
X733016D01*
Y671607D01*
X730984D01*
Y670591D01*
X729968D01*
Y668559D01*
X730984D01*
X1303404Y695044D02*
Y694028D01*
X1305436D01*
Y695044D01*
X1306452D01*
Y697076D01*
X1305436D01*
Y698092D01*
X1303404D01*
Y697076D01*
X1302388D01*
Y695044D01*
X1303404D01*
X1315524D02*
Y694028D01*
X1317556D01*
Y695044D01*
X1318572D01*
Y697076D01*
X1317556D01*
Y698092D01*
X1315524D01*
Y697076D01*
X1314508D01*
Y695044D01*
X1315524D01*
X1305984Y678984D02*
Y677968D01*
X1308016D01*
Y678984D01*
X1309032D01*
Y681016D01*
X1308016D01*
Y682032D01*
X1305984D01*
Y681016D01*
X1304968D01*
Y678984D01*
X1305984D01*
X1130022Y711946D02*
Y710930D01*
X1132054D01*
Y711946D01*
X1133070D01*
Y713978D01*
X1132054D01*
Y714994D01*
X1130022D01*
Y713978D01*
X1129006D01*
Y711946D01*
X1130022D01*
X1300984Y720984D02*
Y719968D01*
X1303016D01*
Y720984D01*
X1304032D01*
Y723016D01*
X1303016D01*
Y724032D01*
X1300984D01*
Y723016D01*
X1299968D01*
Y720984D01*
X1300984D01*
X1331984Y720651D02*
Y719635D01*
X1334016D01*
Y720651D01*
X1335032D01*
Y722683D01*
X1334016D01*
Y723699D01*
X1331984D01*
Y722683D01*
X1330968D01*
Y720651D01*
X1331984D01*
X1469984Y614276D02*
Y613260D01*
X1472016D01*
Y614276D01*
X1473032D01*
Y616308D01*
X1472016D01*
Y617324D01*
X1469984D01*
Y616308D01*
X1468968D01*
Y614276D01*
X1469984D01*
X1462984Y594984D02*
Y593968D01*
X1465016D01*
Y594984D01*
X1466032D01*
Y597016D01*
X1465016D01*
Y598032D01*
X1462984D01*
Y597016D01*
X1461968D01*
Y594984D01*
X1462984D01*
X1466605Y579783D02*
Y578767D01*
X1468637D01*
Y579783D01*
X1469653D01*
Y581815D01*
X1468637D01*
Y582831D01*
X1466605D01*
Y581815D01*
X1465589D01*
Y579783D01*
X1466605D01*
X1391984Y614984D02*
Y613968D01*
X1394016D01*
Y614984D01*
X1395032D01*
Y617016D01*
X1394016D01*
Y618032D01*
X1391984D01*
Y617016D01*
X1390968D01*
Y614984D01*
X1391984D01*
X1378559Y668883D02*
Y667867D01*
X1380591D01*
Y668883D01*
X1381607D01*
Y670915D01*
X1380591D01*
Y671931D01*
X1378559D01*
Y670915D01*
X1377543D01*
Y668883D01*
X1378559D01*
X1346984Y630984D02*
Y629968D01*
X1349016D01*
Y630984D01*
X1350032D01*
Y633016D01*
X1349016D01*
Y634032D01*
X1346984D01*
Y633016D01*
X1345968D01*
Y630984D01*
X1346984D01*
X1311319Y647984D02*
Y646968D01*
X1313351D01*
Y647984D01*
X1314366D01*
Y650016D01*
X1313351D01*
Y651032D01*
X1311319D01*
Y650016D01*
X1310302D01*
Y647984D01*
X1311319D01*
X1368984Y677870D02*
Y676854D01*
X1371016D01*
Y677870D01*
X1372032D01*
Y679902D01*
X1371016D01*
Y680919D01*
X1368984D01*
Y679902D01*
X1367968D01*
Y677870D01*
X1368984D01*
X1355154Y686156D02*
Y685141D01*
X1357186D01*
Y686156D01*
X1358202D01*
Y688188D01*
X1357186D01*
Y689204D01*
X1355154D01*
Y688188D01*
X1354138D01*
Y686156D01*
X1355154D01*
X1310606Y664556D02*
Y663540D01*
X1312638D01*
Y664556D01*
X1313654D01*
Y666588D01*
X1312638D01*
Y667604D01*
X1310606D01*
Y666588D01*
X1309590D01*
Y664556D01*
X1310606D01*
X1087984Y613984D02*
Y612968D01*
X1090016D01*
Y613984D01*
X1091032D01*
Y616016D01*
X1090016D01*
Y617032D01*
X1087984D01*
Y616016D01*
X1086968D01*
Y613984D01*
X1087984D01*
X1088800Y589476D02*
Y588460D01*
X1090832D01*
Y589476D01*
X1091848D01*
Y591507D01*
X1090832D01*
Y592523D01*
X1088800D01*
Y591507D01*
X1087784D01*
Y589476D01*
X1088800D01*
X1087483Y603485D02*
Y602469D01*
X1089515D01*
Y603485D01*
X1090531D01*
Y605517D01*
X1089515D01*
Y606533D01*
X1087483D01*
Y605517D01*
X1086467D01*
Y603485D01*
X1087483D01*
X1087890Y596456D02*
Y595440D01*
X1089922D01*
Y596456D01*
X1090938D01*
Y598489D01*
X1089922D01*
Y599505D01*
X1087890D01*
Y598489D01*
X1086874D01*
Y596456D01*
X1087890D01*
X1145322Y614337D02*
Y613321D01*
X1147354D01*
Y614337D01*
X1148370D01*
Y616368D01*
X1147354D01*
Y617384D01*
X1145322D01*
Y616368D01*
X1144306D01*
Y614337D01*
X1145322D01*
X1144984Y601984D02*
Y600968D01*
X1147016D01*
Y601984D01*
X1148032D01*
Y604016D01*
X1147016D01*
Y605032D01*
X1144984D01*
Y604016D01*
X1143968D01*
Y601984D01*
X1144984D01*
X1112984Y548044D02*
Y547028D01*
X1115016D01*
Y548044D01*
X1116032D01*
Y550076D01*
X1115016D01*
Y551092D01*
X1112984D01*
Y550076D01*
X1111968D01*
Y548044D01*
X1112984D01*
X1119143Y594471D02*
Y593455D01*
X1121175D01*
Y594471D01*
X1122191D01*
Y596503D01*
X1121175D01*
Y597519D01*
X1119143D01*
Y596503D01*
X1118127D01*
Y594471D01*
X1119143D01*
X1179409Y568393D02*
Y567377D01*
X1181441D01*
Y568393D01*
X1182457D01*
Y570425D01*
X1181441D01*
Y571441D01*
X1179409D01*
Y570425D01*
X1178393D01*
Y568393D01*
X1179409D01*
X1173984Y581984D02*
Y580968D01*
X1176016D01*
Y581984D01*
X1177032D01*
Y584016D01*
X1176016D01*
Y585032D01*
X1173984D01*
Y584016D01*
X1172968D01*
Y581984D01*
X1173984D01*
X1174084Y589023D02*
Y588007D01*
X1176116D01*
Y589023D01*
X1177132D01*
Y591055D01*
X1176116D01*
Y592071D01*
X1174084D01*
Y591055D01*
X1173068D01*
Y589023D01*
X1174084D01*
X1164442Y576205D02*
Y575189D01*
X1166473D01*
Y576205D01*
X1167489D01*
Y578237D01*
X1166473D01*
Y579253D01*
X1164442D01*
Y578237D01*
X1163426D01*
Y576205D01*
X1164442D01*
X1165692Y569277D02*
Y568260D01*
X1167723D01*
Y569277D01*
X1168739D01*
Y571309D01*
X1167723D01*
Y572324D01*
X1165692D01*
Y571309D01*
X1164676D01*
Y569277D01*
X1165692D01*
X1163898Y562469D02*
Y561453D01*
X1165930D01*
Y562469D01*
X1166946D01*
Y564501D01*
X1165930D01*
Y565517D01*
X1163898D01*
Y564501D01*
X1162882D01*
Y562469D01*
X1163898D01*
X1195584Y563384D02*
Y562368D01*
X1197616D01*
Y563384D01*
X1198632D01*
Y565416D01*
X1197616D01*
Y566432D01*
X1195584D01*
Y565416D01*
X1194568D01*
Y563384D01*
X1195584D01*
X1175271Y551484D02*
Y550468D01*
X1177303D01*
Y551484D01*
X1178319D01*
Y553516D01*
X1177303D01*
Y554532D01*
X1175271D01*
Y553516D01*
X1174255D01*
Y551484D01*
X1175271D01*
X1110785Y561924D02*
Y560908D01*
X1112817D01*
Y561924D01*
X1113833D01*
Y563956D01*
X1112817D01*
Y564972D01*
X1110785D01*
Y563956D01*
X1109769D01*
Y561924D01*
X1110785D01*
X1123529Y568814D02*
Y567798D01*
X1125561D01*
Y568814D01*
X1126577D01*
Y570846D01*
X1125561D01*
Y571862D01*
X1123529D01*
Y570846D01*
X1122513D01*
Y568814D01*
X1123529D01*
X1139984Y568984D02*
Y567968D01*
X1142016D01*
Y568984D01*
X1143032D01*
Y571016D01*
X1142016D01*
Y572032D01*
X1139984D01*
Y571016D01*
X1138968D01*
Y568984D01*
X1139984D01*
X1142509Y556509D02*
Y555493D01*
X1144541D01*
Y556509D01*
X1145557D01*
Y558541D01*
X1144541D01*
Y559557D01*
X1142509D01*
Y558541D01*
X1141493D01*
Y556509D01*
X1142509D01*
X1196984Y538924D02*
Y537908D01*
X1199016D01*
Y538924D01*
X1200032D01*
Y540956D01*
X1199016D01*
Y541972D01*
X1196984D01*
Y540956D01*
X1195968D01*
Y538924D01*
X1196984D01*
X1390948Y546044D02*
Y545028D01*
X1392980D01*
Y546044D01*
X1393996D01*
Y548076D01*
X1392980D01*
Y549092D01*
X1390948D01*
Y548076D01*
X1389932D01*
Y546044D01*
X1390948D01*
X1447230Y594660D02*
Y593644D01*
X1449262D01*
Y594660D01*
X1450278D01*
Y596692D01*
X1449262D01*
Y597708D01*
X1447230D01*
Y596692D01*
X1446214D01*
Y594660D01*
X1447230D01*
X1111984Y574044D02*
Y573028D01*
X1114016D01*
Y574044D01*
X1115032D01*
Y576076D01*
X1114016D01*
Y577092D01*
X1111984D01*
Y576076D01*
X1110968D01*
Y574044D01*
X1111984D01*
X1313399Y585569D02*
Y584553D01*
X1315431D01*
Y585569D01*
X1316447D01*
Y587601D01*
X1315431D01*
Y588617D01*
X1313399D01*
Y587601D01*
X1312383D01*
Y585569D01*
X1313399D01*
X1355984Y568825D02*
Y567809D01*
X1358016D01*
Y568825D01*
X1359032D01*
Y570857D01*
X1358016D01*
Y571873D01*
X1355984D01*
Y570857D01*
X1354968D01*
Y568825D01*
X1355984D01*
X1211504Y640504D02*
Y639488D01*
X1213536D01*
Y640504D01*
X1214552D01*
Y642536D01*
X1213536D01*
Y643552D01*
X1211504D01*
Y642536D01*
X1210488D01*
Y640504D01*
X1211504D01*
X1248984Y613984D02*
Y612968D01*
X1251016D01*
Y613984D01*
X1252032D01*
Y616016D01*
X1251016D01*
Y617032D01*
X1248984D01*
Y616016D01*
X1247968D01*
Y613984D01*
X1248984D01*
X1244748Y583978D02*
Y582962D01*
X1246780D01*
Y583978D01*
X1247796D01*
Y586010D01*
X1246780D01*
Y587026D01*
X1244748D01*
Y586010D01*
X1243732D01*
Y583978D01*
X1244748D01*
X1251788Y584065D02*
Y583049D01*
X1253820D01*
Y584065D01*
X1254836D01*
Y586097D01*
X1253820D01*
Y587113D01*
X1251788D01*
Y586097D01*
X1250772D01*
Y584065D01*
X1251788D01*
X1339984Y549984D02*
Y548968D01*
X1342016D01*
Y549984D01*
X1343032D01*
Y552016D01*
X1342016D01*
Y553032D01*
X1339984D01*
Y552016D01*
X1338968D01*
Y549984D01*
X1339984D01*
X1092984Y548984D02*
Y547968D01*
X1095016D01*
Y548984D01*
X1096032D01*
Y551016D01*
X1095016D01*
Y552032D01*
X1092984D01*
Y551016D01*
X1091968D01*
Y548984D01*
X1092984D01*
X1086324Y576614D02*
Y575598D01*
X1088356D01*
Y576614D01*
X1089372D01*
Y578646D01*
X1088356D01*
Y579662D01*
X1086324D01*
Y578646D01*
X1085308D01*
Y576614D01*
X1086324D01*
X1163234Y589029D02*
Y588013D01*
X1165266D01*
Y589029D01*
X1166282D01*
Y591061D01*
X1165266D01*
Y592077D01*
X1163234D01*
Y591061D01*
X1162218D01*
Y589029D01*
X1163234D01*
X1175713Y604158D02*
Y603142D01*
X1177745D01*
Y604158D01*
X1178761D01*
Y606190D01*
X1177745D01*
Y607206D01*
X1175713D01*
Y606190D01*
X1174697D01*
Y604158D01*
X1175713D01*
X744549Y654382D02*
Y653366D01*
X746581D01*
Y654382D01*
X747597D01*
Y656414D01*
X746581D01*
Y657430D01*
X744549D01*
Y656414D01*
X743533D01*
Y654382D01*
X744549D01*
X752984Y653984D02*
Y652968D01*
X755016D01*
Y653984D01*
X756032D01*
Y656016D01*
X755016D01*
Y657032D01*
X752984D01*
Y656016D01*
X751968D01*
Y653984D01*
X752984D01*
X661984Y642984D02*
Y641968D01*
X664016D01*
Y642984D01*
X665032D01*
Y645016D01*
X664016D01*
Y646032D01*
X661984D01*
Y645016D01*
X660968D01*
Y642984D01*
X661984D01*
X661984Y631984D02*
Y630968D01*
X664016D01*
Y631984D01*
X665032D01*
Y634016D01*
X664016D01*
Y635032D01*
X661984D01*
Y634016D01*
X660968D01*
Y631984D01*
X661984D01*
X661984Y620984D02*
Y619968D01*
X664016D01*
Y620984D01*
X665032D01*
Y623016D01*
X664016D01*
Y624032D01*
X661984D01*
Y623016D01*
X660968D01*
Y620984D01*
X661984D01*
X661984Y609984D02*
Y608968D01*
X664016D01*
Y609984D01*
X665032D01*
Y612016D01*
X664016D01*
Y613032D01*
X661984D01*
Y612016D01*
X660968D01*
Y609984D01*
X661984D01*
X661984Y598984D02*
Y597968D01*
X664016D01*
Y598984D01*
X665032D01*
Y601016D01*
X664016D01*
Y602032D01*
X661984D01*
Y601016D01*
X660968D01*
Y598984D01*
X661984D01*
X650984Y642984D02*
Y641968D01*
X653016D01*
Y642984D01*
X654032D01*
Y645016D01*
X653016D01*
Y646032D01*
X650984D01*
Y645016D01*
X649968D01*
Y642984D01*
X650984D01*
Y631984D02*
Y630968D01*
X653016D01*
Y631984D01*
X654032D01*
Y634016D01*
X653016D01*
Y635032D01*
X650984D01*
Y634016D01*
X649968D01*
Y631984D01*
X650984D01*
X650984Y620984D02*
Y619968D01*
X653016D01*
Y620984D01*
X654032D01*
Y623016D01*
X653016D01*
Y624032D01*
X650984D01*
Y623016D01*
X649968D01*
Y620984D01*
X650984D01*
X650984Y609984D02*
Y608968D01*
X653016D01*
Y609984D01*
X654032D01*
Y612016D01*
X653016D01*
Y613032D01*
X650984D01*
Y612016D01*
X649968D01*
Y609984D01*
X650984D01*
Y598984D02*
Y597968D01*
X653016D01*
Y598984D01*
X654032D01*
Y601016D01*
X653016D01*
Y602032D01*
X650984D01*
Y601016D01*
X649968D01*
Y598984D01*
X650984D01*
X639984Y642984D02*
Y641968D01*
X642016D01*
Y642984D01*
X643032D01*
Y645016D01*
X642016D01*
Y646032D01*
X639984D01*
Y645016D01*
X638968D01*
Y642984D01*
X639984D01*
Y631984D02*
Y630968D01*
X642016D01*
Y631984D01*
X643032D01*
Y634016D01*
X642016D01*
Y635032D01*
X639984D01*
Y634016D01*
X638968D01*
Y631984D01*
X639984D01*
Y620984D02*
Y619968D01*
X642016D01*
Y620984D01*
X643032D01*
Y623016D01*
X642016D01*
Y624032D01*
X639984D01*
Y623016D01*
X638968D01*
Y620984D01*
X639984D01*
Y609984D02*
Y608968D01*
X642016D01*
Y609984D01*
X643032D01*
Y612016D01*
X642016D01*
Y613032D01*
X639984D01*
Y612016D01*
X638968D01*
Y609984D01*
X639984D01*
Y598984D02*
Y597968D01*
X642016D01*
Y598984D01*
X643032D01*
Y601016D01*
X642016D01*
Y602032D01*
X639984D01*
Y601016D01*
X638968D01*
Y598984D01*
X639984D01*
X628984Y642984D02*
Y641968D01*
X631016D01*
Y642984D01*
X632032D01*
Y645016D01*
X631016D01*
Y646032D01*
X628984D01*
Y645016D01*
X627968D01*
Y642984D01*
X628984D01*
Y631984D02*
Y630968D01*
X631016D01*
Y631984D01*
X632032D01*
Y634016D01*
X631016D01*
Y635032D01*
X628984D01*
Y634016D01*
X627968D01*
Y631984D01*
X628984D01*
X628984Y620984D02*
Y619968D01*
X631016D01*
Y620984D01*
X632032D01*
Y623016D01*
X631016D01*
Y624032D01*
X628984D01*
Y623016D01*
X627968D01*
Y620984D01*
X628984D01*
X628984Y609984D02*
Y608968D01*
X631016D01*
Y609984D01*
X632032D01*
Y612016D01*
X631016D01*
Y613032D01*
X628984D01*
Y612016D01*
X627968D01*
Y609984D01*
X628984D01*
Y598984D02*
Y597968D01*
X631016D01*
Y598984D01*
X632032D01*
Y601016D01*
X631016D01*
Y602032D01*
X628984D01*
Y601016D01*
X627968D01*
Y598984D01*
X628984D01*
X617984Y642984D02*
Y641968D01*
X620016D01*
Y642984D01*
X621032D01*
Y645016D01*
X620016D01*
Y646032D01*
X617984D01*
Y645016D01*
X616968D01*
Y642984D01*
X617984D01*
X617984Y631984D02*
Y630968D01*
X620016D01*
Y631984D01*
X621032D01*
Y634016D01*
X620016D01*
Y635032D01*
X617984D01*
Y634016D01*
X616968D01*
Y631984D01*
X617984D01*
X617984Y620984D02*
Y619968D01*
X620016D01*
Y620984D01*
X621032D01*
Y623016D01*
X620016D01*
Y624032D01*
X617984D01*
Y623016D01*
X616968D01*
Y620984D01*
X617984D01*
X617984Y609984D02*
Y608968D01*
X620016D01*
Y609984D01*
X621032D01*
Y612016D01*
X620016D01*
Y613032D01*
X617984D01*
Y612016D01*
X616968D01*
Y609984D01*
X617984D01*
X617984Y598984D02*
Y597968D01*
X620016D01*
Y598984D01*
X621032D01*
Y601016D01*
X620016D01*
Y602032D01*
X617984D01*
Y601016D01*
X616968D01*
Y598984D01*
X617984D01*
X591484Y578484D02*
Y577468D01*
X593516D01*
Y578484D01*
X594532D01*
Y580516D01*
X593516D01*
Y581532D01*
X591484D01*
Y580516D01*
X590468D01*
Y578484D01*
X591484D01*
X597984Y571984D02*
Y570968D01*
X600016D01*
Y571984D01*
X601032D01*
Y574016D01*
X600016D01*
Y575032D01*
X597984D01*
Y574016D01*
X596968D01*
Y571984D01*
X597984D01*
X1404984Y618984D02*
Y617968D01*
X1407016D01*
Y618984D01*
X1408032D01*
Y621016D01*
X1407016D01*
Y622032D01*
X1404984D01*
Y621016D01*
X1403968D01*
Y618984D01*
X1404984D01*
X1267484Y702484D02*
Y701468D01*
X1269516D01*
Y702484D01*
X1270532D01*
Y704516D01*
X1269516D01*
Y705532D01*
X1267484D01*
Y704516D01*
X1266468D01*
Y702484D01*
X1267484D01*
X1130692Y608276D02*
Y607261D01*
X1132723D01*
Y608276D01*
X1133739D01*
Y610308D01*
X1132723D01*
Y611325D01*
X1130692D01*
Y610308D01*
X1129676D01*
Y608276D01*
X1130692D01*
X723192Y594192D02*
Y593176D01*
X725223D01*
Y594192D01*
X726239D01*
Y596223D01*
X725223D01*
Y597239D01*
X723192D01*
Y596223D01*
X722176D01*
Y594192D01*
X723192D01*
X1333484Y654484D02*
Y653468D01*
X1335516D01*
Y654484D01*
X1336532D01*
Y656516D01*
X1335516D01*
Y657532D01*
X1333484D01*
Y656516D01*
X1332468D01*
Y654484D01*
X1333484D01*
Y665484D02*
Y664468D01*
X1335516D01*
Y665484D01*
X1336532D01*
Y667516D01*
X1335516D01*
Y668532D01*
X1333484D01*
Y667516D01*
X1332468D01*
Y665484D01*
X1333484D01*
X1344484Y654484D02*
Y653468D01*
X1346516D01*
Y654484D01*
X1347532D01*
Y656516D01*
X1346516D01*
Y657532D01*
X1344484D01*
Y656516D01*
X1343468D01*
Y654484D01*
X1344484D01*
Y665484D02*
Y664468D01*
X1346516D01*
Y665484D01*
X1347532D01*
Y667516D01*
X1346516D01*
Y668532D01*
X1344484D01*
Y667516D01*
X1343468D01*
Y665484D01*
X1344484D01*
D131*
X1043032Y524000D02*
G03*
X1043032Y524000I-2032J0D01*
G01*
X1068432D02*
G03*
X1068432Y524000I-2032J0D01*
G01*
X1434032Y719400D02*
G03*
X1434032Y719400I-2032J0D01*
G01*
Y694000D02*
G03*
X1434032Y694000I-2032J0D01*
G01*
M02*
