G04*
G04 #@! TF.GenerationSoftware,Altium Limited,Altium Designer,21.0.9 (235)*
G04*
G04 Layer_Color=255*
%FSLAX44Y44*%
%MOMM*%
G71*
G04*
G04 #@! TF.SameCoordinates,35DE941F-9A8C-42F3-B98C-DFFE3D48772F*
G04*
G04*
G04 #@! TF.FilePolarity,Positive*
G04*
G01*
G75*
%ADD16R,1.3000X1.5000*%
%ADD17R,0.8000X1.7000*%
%ADD18R,1.4000X1.8000*%
%ADD19R,1.8000X1.4000*%
%ADD20R,0.2000X0.3000*%
G04:AMPARAMS|DCode=21|XSize=0.3mm|YSize=0.2mm|CornerRadius=0.05mm|HoleSize=0mm|Usage=FLASHONLY|Rotation=270.000|XOffset=0mm|YOffset=0mm|HoleType=Round|Shape=RoundedRectangle|*
%AMROUNDEDRECTD21*
21,1,0.3000,0.1000,0,0,270.0*
21,1,0.2000,0.2000,0,0,270.0*
1,1,0.1000,-0.0500,-0.1000*
1,1,0.1000,-0.0500,0.1000*
1,1,0.1000,0.0500,0.1000*
1,1,0.1000,0.0500,-0.1000*
%
%ADD21ROUNDEDRECTD21*%
%ADD22R,0.9000X0.6000*%
G04:AMPARAMS|DCode=23|XSize=0.6mm|YSize=0.9mm|CornerRadius=0.15mm|HoleSize=0mm|Usage=FLASHONLY|Rotation=270.000|XOffset=0mm|YOffset=0mm|HoleType=Round|Shape=RoundedRectangle|*
%AMROUNDEDRECTD23*
21,1,0.6000,0.6000,0,0,270.0*
21,1,0.3000,0.9000,0,0,270.0*
1,1,0.3000,-0.3000,-0.1500*
1,1,0.3000,-0.3000,0.1500*
1,1,0.3000,0.3000,0.1500*
1,1,0.3000,0.3000,-0.1500*
%
%ADD23ROUNDEDRECTD23*%
%ADD24R,0.6000X0.9000*%
G04:AMPARAMS|DCode=25|XSize=0.6mm|YSize=0.9mm|CornerRadius=0.15mm|HoleSize=0mm|Usage=FLASHONLY|Rotation=0.000|XOffset=0mm|YOffset=0mm|HoleType=Round|Shape=RoundedRectangle|*
%AMROUNDEDRECTD25*
21,1,0.6000,0.6000,0,0,0.0*
21,1,0.3000,0.9000,0,0,0.0*
1,1,0.3000,0.1500,-0.3000*
1,1,0.3000,-0.1500,-0.3000*
1,1,0.3000,-0.1500,0.3000*
1,1,0.3000,0.1500,0.3000*
%
%ADD25ROUNDEDRECTD25*%
%ADD26R,5.6000X5.6000*%
%ADD27R,0.8500X0.2500*%
%ADD28R,0.2500X0.8500*%
%ADD29O,0.2500X0.8500*%
G04:AMPARAMS|DCode=30|XSize=0.65mm|YSize=0.95mm|CornerRadius=0.1625mm|HoleSize=0mm|Usage=FLASHONLY|Rotation=180.000|XOffset=0mm|YOffset=0mm|HoleType=Round|Shape=RoundedRectangle|*
%AMROUNDEDRECTD30*
21,1,0.6500,0.6250,0,0,180.0*
21,1,0.3250,0.9500,0,0,180.0*
1,1,0.3250,-0.1625,0.3125*
1,1,0.3250,0.1625,0.3125*
1,1,0.3250,0.1625,-0.3125*
1,1,0.3250,-0.1625,-0.3125*
%
%ADD30ROUNDEDRECTD30*%
%ADD31R,0.6500X0.9500*%
G04:AMPARAMS|DCode=32|XSize=0.2mm|YSize=0.85mm|CornerRadius=0.05mm|HoleSize=0mm|Usage=FLASHONLY|Rotation=180.000|XOffset=0mm|YOffset=0mm|HoleType=Round|Shape=RoundedRectangle|*
%AMROUNDEDRECTD32*
21,1,0.2000,0.7500,0,0,180.0*
21,1,0.1000,0.8500,0,0,180.0*
1,1,0.1000,-0.0500,0.3750*
1,1,0.1000,0.0500,0.3750*
1,1,0.1000,0.0500,-0.3750*
1,1,0.1000,-0.0500,-0.3750*
%
%ADD32ROUNDEDRECTD32*%
%ADD33R,0.2000X0.8500*%
%ADD34R,0.8500X0.2000*%
%ADD35R,2.6000X2.6000*%
%ADD36R,0.2500X0.2200*%
%ADD37R,0.2500X0.2200*%
%ADD38P,0.6788X4X360.0*%
%ADD39R,0.8900X0.9400*%
%ADD40R,0.4000X1.3500*%
%ADD41R,1.5000X1.5500*%
%ADD42R,1.2000X0.3000*%
%ADD43R,3.0000X2.7000*%
%ADD44R,3.4000X1.5000*%
%ADD45R,3.5000X1.0000*%
%ADD46R,0.4800X0.4800*%
G04:AMPARAMS|DCode=47|XSize=1.2mm|YSize=1.4mm|CornerRadius=0.3mm|HoleSize=0mm|Usage=FLASHONLY|Rotation=90.000|XOffset=0mm|YOffset=0mm|HoleType=Round|Shape=RoundedRectangle|*
%AMROUNDEDRECTD47*
21,1,1.2000,0.8000,0,0,90.0*
21,1,0.6000,1.4000,0,0,90.0*
1,1,0.6000,0.4000,0.3000*
1,1,0.6000,0.4000,-0.3000*
1,1,0.6000,-0.4000,-0.3000*
1,1,0.6000,-0.4000,0.3000*
%
%ADD47ROUNDEDRECTD47*%
%ADD48R,1.4000X1.2000*%
G04:AMPARAMS|DCode=49|XSize=1.2mm|YSize=1.4mm|CornerRadius=0.3mm|HoleSize=0mm|Usage=FLASHONLY|Rotation=0.000|XOffset=0mm|YOffset=0mm|HoleType=Round|Shape=RoundedRectangle|*
%AMROUNDEDRECTD49*
21,1,1.2000,0.8000,0,0,0.0*
21,1,0.6000,1.4000,0,0,0.0*
1,1,0.6000,0.3000,-0.4000*
1,1,0.6000,-0.3000,-0.4000*
1,1,0.6000,-0.3000,0.4000*
1,1,0.6000,0.3000,0.4000*
%
%ADD49ROUNDEDRECTD49*%
%ADD50R,1.2000X1.4000*%
%ADD99C,0.7500*%
%ADD100R,1.5000X1.5000*%
%ADD101C,1.5000*%
%ADD102R,1.0000X1.0000*%
%ADD103C,1.0000*%
%ADD104R,1.5000X1.5000*%
%ADD105O,1.2500X0.9500*%
%ADD106O,0.9000X1.5500*%
D16*
X1406500Y601000D02*
D03*
X1425500D02*
D03*
D17*
X805000Y530000D02*
D03*
X771000D02*
D03*
Y570000D02*
D03*
X805000D02*
D03*
D18*
X857793Y595207D02*
D03*
X885792D02*
D03*
X1219000Y706000D02*
D03*
X1191000D02*
D03*
D19*
X546000Y646000D02*
D03*
Y618000D02*
D03*
D20*
X832000Y693000D02*
D03*
X822000D02*
D03*
X832000Y685000D02*
D03*
X827000D02*
D03*
Y693000D02*
D03*
D21*
X822000Y685000D02*
D03*
D22*
X1352000Y605500D02*
D03*
X1378300Y715000D02*
D03*
X1456000Y667043D02*
D03*
X1352617Y715000D02*
D03*
X1326333Y700000D02*
D03*
X1419628Y541915D02*
D03*
X1419585Y572957D02*
D03*
X1394043D02*
D03*
X1365543Y541915D02*
D03*
X1314458Y526915D02*
D03*
X1340000D02*
D03*
X1368500Y557957D02*
D03*
X1300457Y715000D02*
D03*
X800000Y691708D02*
D03*
X765000D02*
D03*
X854000D02*
D03*
X889000D02*
D03*
X1314415Y557957D02*
D03*
X1449000Y572500D02*
D03*
X1474543D02*
D03*
X585000Y543500D02*
D03*
X656793Y558500D02*
D03*
D23*
X1352000Y620500D02*
D03*
X1378300Y700000D02*
D03*
X1456000Y652043D02*
D03*
X1352617Y700000D02*
D03*
X1326333Y715000D02*
D03*
X1419628Y526915D02*
D03*
X1419585Y557957D02*
D03*
X1394043D02*
D03*
X1365542Y526915D02*
D03*
X1314458Y541915D02*
D03*
X1340000D02*
D03*
X1368500Y572957D02*
D03*
X1300457Y700000D02*
D03*
X800000Y676708D02*
D03*
X765000D02*
D03*
X854000Y676708D02*
D03*
X889000Y676708D02*
D03*
X1314415Y572957D02*
D03*
X1449000Y587500D02*
D03*
X1474543D02*
D03*
X585000Y558500D02*
D03*
X656793Y543500D02*
D03*
D24*
X1275500Y581000D02*
D03*
X1461042Y620000D02*
D03*
X1299500Y673000D02*
D03*
X1380499Y679189D02*
D03*
X1380500Y653542D02*
D03*
X1395500Y628000D02*
D03*
X1103500Y615542D02*
D03*
X1198500Y552293D02*
D03*
Y578750D02*
D03*
Y604293D02*
D03*
X659500Y733000D02*
D03*
X1119500Y583000D02*
D03*
X1134500Y557458D02*
D03*
D25*
X1260500Y581000D02*
D03*
X1446042Y620000D02*
D03*
X1284500Y673000D02*
D03*
X1395499Y679189D02*
D03*
X1395500Y653542D02*
D03*
X1380500Y628000D02*
D03*
X1118500Y615542D02*
D03*
X1183500Y552293D02*
D03*
Y578750D02*
D03*
Y604293D02*
D03*
X644500Y733000D02*
D03*
X1134500Y583000D02*
D03*
X1119500Y557458D02*
D03*
D26*
X641000Y622000D02*
D03*
D27*
X606750Y594500D02*
D03*
Y599500D02*
D03*
Y604500D02*
D03*
Y609500D02*
D03*
Y614500D02*
D03*
X606750Y619500D02*
D03*
Y624500D02*
D03*
X606750Y629500D02*
D03*
Y634500D02*
D03*
Y639500D02*
D03*
Y644500D02*
D03*
Y649500D02*
D03*
X675250D02*
D03*
Y644500D02*
D03*
Y639500D02*
D03*
Y634500D02*
D03*
Y629500D02*
D03*
X675250Y624500D02*
D03*
Y619500D02*
D03*
X675250Y614500D02*
D03*
Y609500D02*
D03*
Y604500D02*
D03*
Y599500D02*
D03*
Y594500D02*
D03*
D28*
X613500Y656250D02*
D03*
X618500D02*
D03*
X623500D02*
D03*
X628500D02*
D03*
X633500D02*
D03*
X638500Y656250D02*
D03*
X643500D02*
D03*
X648500Y656250D02*
D03*
X653500D02*
D03*
X658500D02*
D03*
X663500D02*
D03*
X668500D02*
D03*
Y587750D02*
D03*
X663500D02*
D03*
X658500D02*
D03*
X653500D02*
D03*
X648500D02*
D03*
X643500Y587750D02*
D03*
X638500D02*
D03*
X633500Y587750D02*
D03*
X628500D02*
D03*
X623500D02*
D03*
X618500D02*
D03*
D29*
X613500D02*
D03*
D30*
X1304000Y596707D02*
D03*
D31*
X1322000D02*
D03*
X1313000Y620207D02*
D03*
D32*
X1328000Y641750D02*
D03*
D33*
X1332000D02*
D03*
X1336000D02*
D03*
X1340000D02*
D03*
X1344000D02*
D03*
X1348000D02*
D03*
X1352000D02*
D03*
Y680250D02*
D03*
X1348000D02*
D03*
X1344000D02*
D03*
X1340000D02*
D03*
X1336000D02*
D03*
X1332000D02*
D03*
X1328000D02*
D03*
D34*
X1359250Y649000D02*
D03*
Y653000D02*
D03*
Y657000D02*
D03*
Y661000D02*
D03*
Y665000D02*
D03*
Y669000D02*
D03*
Y673000D02*
D03*
X1320750D02*
D03*
Y669000D02*
D03*
Y665000D02*
D03*
Y661000D02*
D03*
Y657000D02*
D03*
Y653000D02*
D03*
Y649000D02*
D03*
D35*
X1340000Y661000D02*
D03*
D36*
X1395833Y537817D02*
D03*
X1338210Y562055D02*
D03*
D37*
X1389335Y537813D02*
D03*
Y527013D02*
D03*
X1395835Y527013D02*
D03*
X1344707Y562060D02*
D03*
Y572860D02*
D03*
X1338208D02*
D03*
D38*
X1392585Y532413D02*
D03*
X1341458Y567460D02*
D03*
D39*
X1284150Y647000D02*
D03*
X1299850D02*
D03*
X775000Y708000D02*
D03*
X790700D02*
D03*
X863150D02*
D03*
X878850D02*
D03*
D40*
X1240000Y541500D02*
D03*
X1246500D02*
D03*
X1253000D02*
D03*
X1259500D02*
D03*
X1266000D02*
D03*
D41*
X1243000Y514500D02*
D03*
X1263000D02*
D03*
D42*
X1076600Y581500D02*
D03*
Y586500D02*
D03*
Y591500D02*
D03*
Y616500D02*
D03*
Y611500D02*
D03*
Y606500D02*
D03*
Y601500D02*
D03*
Y596500D02*
D03*
D43*
X1058000Y635800D02*
D03*
Y562200D02*
D03*
D44*
X1037000Y669500D02*
D03*
Y736500D02*
D03*
D45*
X1094500Y693000D02*
D03*
Y713000D02*
D03*
D46*
X912000Y708000D02*
D03*
D47*
X610000Y543000D02*
D03*
D48*
Y559000D02*
D03*
X632000Y543000D02*
D03*
Y559000D02*
D03*
D49*
X704000Y666000D02*
D03*
D50*
X720000D02*
D03*
X704000Y644000D02*
D03*
X720000D02*
D03*
D99*
X788000Y530000D02*
D03*
Y570000D02*
D03*
D100*
X1041000Y524000D02*
D03*
D101*
X1066400D02*
D03*
X1432000Y694000D02*
D03*
D102*
X950000Y520000D02*
D03*
X811000Y737000D02*
D03*
X744000Y641000D02*
D03*
X595000Y516000D02*
D03*
X1095000D02*
D03*
X1317000Y737000D02*
D03*
X1450000Y520000D02*
D03*
X1244000Y641000D02*
D03*
X580700Y734000D02*
D03*
D103*
X962700Y520000D02*
D03*
X836400Y737000D02*
D03*
X823700D02*
D03*
X756700Y641000D02*
D03*
X607700Y516000D02*
D03*
X620400D02*
D03*
X633100D02*
D03*
X645800D02*
D03*
X658500D02*
D03*
X671200D02*
D03*
X683900D02*
D03*
X696600D02*
D03*
X1107700D02*
D03*
X1120400D02*
D03*
X1133100D02*
D03*
X1145800D02*
D03*
X1158500D02*
D03*
X1171200D02*
D03*
X1183900D02*
D03*
X1196600D02*
D03*
X1342400Y737000D02*
D03*
X1329700D02*
D03*
X1462700Y520000D02*
D03*
X1256700Y641000D02*
D03*
X568000Y734000D02*
D03*
X555300D02*
D03*
X542600D02*
D03*
X529900D02*
D03*
D104*
X1432000Y719400D02*
D03*
D105*
X1278000Y541500D02*
D03*
X1228000Y541500D02*
D03*
D106*
X1288000Y514500D02*
D03*
X1218000D02*
D03*
M02*
