G04*
G04 #@! TF.GenerationSoftware,Altium Limited,Altium Designer,21.0.9 (235)*
G04*
G04 Layer_Color=16711935*
%FSLAX44Y44*%
%MOMM*%
G71*
G04*
G04 #@! TF.SameCoordinates,35DE941F-9A8C-42F3-B98C-DFFE3D48772F*
G04*
G04*
G04 #@! TF.FilePolarity,Positive*
G04*
G01*
G75*
%ADD10C,0.1000*%
%ADD13C,0.2000*%
D10*
X1145500Y610542D02*
G03*
X1145500Y610542I-5000J0D01*
G01*
X619500Y595500D02*
G03*
X619500Y595500I-5000J0D01*
G01*
X1333500Y649500D02*
G03*
X1333500Y649500I-5000J0D01*
G01*
X1241150Y687500D02*
G03*
X1241150Y687500I-5000J0D01*
G01*
X1405000Y608250D02*
X1427000D01*
X1405000Y593750D02*
X1427000D01*
X1405000D02*
Y608250D01*
X1427000Y593750D02*
Y608250D01*
X1329770Y702276D02*
X1351770D01*
X1329770Y716776D02*
X1351770D01*
X1329770Y702276D02*
Y716776D01*
X1351770Y702276D02*
Y716776D01*
X1281000Y659250D02*
X1303000D01*
X1281000Y644750D02*
X1303000D01*
Y659250D01*
X1281000Y644750D02*
Y659250D01*
X854293Y604207D02*
X889293D01*
X854293Y586208D02*
X889293D01*
X854293D02*
Y604207D01*
X889293Y586208D02*
Y604207D01*
X555000Y614500D02*
Y649500D01*
X537000Y614500D02*
Y649500D01*
X555000D01*
X537000Y614500D02*
X555000D01*
X1187500Y697000D02*
X1222500D01*
X1187500Y715000D02*
X1222500D01*
Y697000D02*
Y715000D01*
X1187500Y697000D02*
Y715000D01*
X819000Y685000D02*
X835000D01*
Y693000D01*
X819000D02*
X835000D01*
X819000Y685000D02*
Y693000D01*
X821000Y689000D02*
X824000D01*
X1149500Y553543D02*
Y619543D01*
X1104500Y553543D02*
Y619543D01*
X1149500D01*
X1104500Y553543D02*
X1149500D01*
X1234750Y622750D02*
X1265250D01*
X1234750Y605250D02*
X1265250D01*
X1234750D02*
Y622750D01*
X1265250D02*
X1265250Y605250D01*
X676500Y586500D02*
Y657500D01*
X605500Y586500D02*
Y657500D01*
X676500D01*
X605500Y586500D02*
X676500D01*
X1298000Y601457D02*
X1328000D01*
X1298000Y615457D02*
X1328000D01*
X1298000Y601457D02*
Y615457D01*
X1328000Y601457D02*
Y615457D01*
X1319500Y640500D02*
X1360500D01*
X1319500Y681500D02*
X1360500D01*
X1319500Y640500D02*
Y681500D01*
X1360500Y640500D02*
Y681500D01*
X1227150Y678500D02*
Y709500D01*
X1258150Y678500D02*
Y709500D01*
X1227150Y678500D02*
X1258150D01*
X1227150Y709500D02*
X1258150D01*
X1283500Y642500D02*
Y651500D01*
X1300500Y642500D02*
Y651500D01*
X1283500D02*
X1300500D01*
X1283500Y642500D02*
X1300500D01*
X774350Y703500D02*
Y712500D01*
X791350Y703500D02*
Y712500D01*
X774350D02*
X791350D01*
X774350Y703500D02*
X791350D01*
X862500D02*
Y712500D01*
X879500Y703500D02*
Y712500D01*
X862500D02*
X879500D01*
X862500Y703500D02*
X879500D01*
X1218000Y493000D02*
X1288000D01*
X1288000Y543000D01*
X1218000Y493000D02*
Y543000D01*
X1288000D01*
X1042500Y645000D02*
X1072500D01*
X1029500Y547000D02*
X1042500D01*
Y553000D01*
X1072500Y553000D01*
X1042500Y645000D02*
Y651000D01*
X1029500D02*
X1042500D01*
X1029500Y547000D02*
Y651000D01*
X1072500Y553000D02*
Y645000D01*
X1098000Y663500D02*
Y671500D01*
X1030000Y663500D02*
X1098000D01*
X1082000Y671500D02*
X1098000D01*
X1082000Y671500D02*
Y734500D01*
X1082000Y734500D02*
X1098000D01*
X1022000Y668500D02*
X1030000D01*
Y663500D02*
Y668500D01*
X1022000D02*
Y737500D01*
Y737500D02*
X1030000D01*
Y737500D02*
Y742500D01*
X1098000Y734500D02*
Y742500D01*
X1030000D02*
X1098000D01*
X639292Y674500D02*
Y691500D01*
X630293Y674500D02*
Y691500D01*
Y674500D02*
X639292D01*
X630293Y691500D02*
X639292D01*
X604500Y538000D02*
Y564000D01*
X637500Y538000D02*
Y564000D01*
X604500D02*
X637500D01*
X604500Y538000D02*
X637500D01*
X699000Y671500D02*
X725000D01*
X699000Y638500D02*
X725000D01*
X725000Y671500D02*
X725000Y638500D01*
X699000D02*
X699000Y671500D01*
D13*
X1357000Y604000D02*
Y622000D01*
X1347000Y604000D02*
X1357000D01*
X1347000D02*
Y622000D01*
X1357000D01*
X1373300Y698500D02*
X1373300Y716500D01*
X1383300D01*
X1383300Y698500D02*
X1383300Y716500D01*
X1373300Y698500D02*
X1383300D01*
X1451000Y650543D02*
Y668543D01*
X1461000D01*
Y650543D02*
Y668543D01*
X1451000Y650543D02*
X1461000D01*
X1259000Y586000D02*
X1277000D01*
Y576000D02*
Y586000D01*
X1259000Y576000D02*
X1277000D01*
X1259000D02*
Y586000D01*
X608000Y674793D02*
Y692793D01*
Y674793D02*
X618000D01*
Y692793D01*
X608000D02*
X618000D01*
Y556500D02*
Y574500D01*
X608000D02*
X618000D01*
X608000Y556500D02*
Y574500D01*
Y556500D02*
X618000D01*
X634000Y557000D02*
Y575000D01*
Y557000D02*
X644000D01*
Y575000D01*
X634000D02*
X644000D01*
X669542Y557000D02*
Y575000D01*
X659542D02*
X669542D01*
X659542Y557000D02*
Y575000D01*
Y557000D02*
X669542D01*
X1377000Y674000D02*
X1395000D01*
X1377000Y664000D02*
Y674000D01*
Y664000D02*
X1395000D01*
Y674000D01*
X1353000Y609000D02*
Y627000D01*
X1343000D02*
X1353000D01*
X1343000Y609000D02*
Y627000D01*
Y609000D02*
X1353000D01*
X1377000Y638000D02*
X1395000D01*
Y648000D01*
X1377000D02*
X1395000D01*
X1377000Y638000D02*
Y648000D01*
X1347617Y698500D02*
Y716500D01*
X1357617D01*
X1357617Y698500D02*
X1357617Y716500D01*
X1347617Y698500D02*
X1357617D01*
X1331333Y698500D02*
Y716500D01*
X1321333Y698500D02*
X1331333D01*
X1321333D02*
Y716500D01*
X1331333D01*
X1247543Y656707D02*
X1265543D01*
Y666707D01*
X1247542Y666707D02*
X1265543Y666707D01*
X1247542Y666707D02*
X1247543Y656707D01*
X1218000Y666707D02*
X1236000Y666708D01*
X1218000Y656708D02*
Y666707D01*
Y656708D02*
X1236000D01*
Y666708D01*
X1248000Y721292D02*
X1266000Y721292D01*
Y731292D01*
X1248000Y731292D02*
X1266000Y731292D01*
X1248000Y721292D02*
Y731292D01*
X1218457Y731292D02*
X1236457Y731292D01*
X1218457Y721292D02*
Y731292D01*
Y721292D02*
X1236457Y721292D01*
Y731292D01*
X1414628Y525415D02*
X1414628Y543415D01*
X1424628D01*
Y525415D02*
Y543415D01*
X1414628Y525415D02*
X1424628D01*
X1414585Y556457D02*
Y574458D01*
X1424585D01*
Y556457D02*
Y574458D01*
X1414585Y556457D02*
X1424585D01*
X1389043Y556457D02*
Y574458D01*
X1399043D01*
Y556457D02*
Y574458D01*
X1389043Y556457D02*
X1399043D01*
X1360542Y525415D02*
Y543415D01*
X1370542D01*
Y525415D02*
Y543415D01*
X1360542Y525415D02*
X1370542D01*
X1319458Y525415D02*
Y543415D01*
X1309458Y525415D02*
X1319458D01*
X1309458D02*
Y543415D01*
X1319458D01*
X1345000Y525415D02*
Y543415D01*
X1335000Y525415D02*
X1345000D01*
X1335000D02*
Y543415D01*
X1345000D01*
X1373500Y556457D02*
Y574458D01*
X1363500Y556457D02*
X1373500D01*
X1363500D02*
Y574458D01*
X1373500D01*
X1444543Y625000D02*
X1462543D01*
Y615000D02*
Y625000D01*
X1444543Y615000D02*
X1462543D01*
X1444543D02*
Y625000D01*
X1283000Y678000D02*
X1301000D01*
Y668000D02*
Y678000D01*
X1283000Y668000D02*
X1301000D01*
X1283000D02*
Y678000D01*
X1295457Y698500D02*
Y716500D01*
X1305457D01*
Y698500D02*
Y716500D01*
X1295457Y698500D02*
X1305457D01*
X1378999Y674189D02*
X1396999D01*
X1378999D02*
Y684189D01*
X1396999D01*
Y674189D02*
Y684189D01*
X1379000Y648542D02*
X1397000D01*
X1379000D02*
Y658542D01*
X1397000D01*
Y648542D02*
Y658542D01*
X1379000Y633000D02*
X1397000D01*
Y623000D02*
Y633000D01*
X1379000Y623000D02*
X1397000D01*
X1379000D02*
Y633000D01*
X795000Y675208D02*
Y693207D01*
X805000D01*
Y675208D02*
Y693207D01*
X795000Y675208D02*
X805000D01*
X760000D02*
Y693207D01*
X770000D01*
Y675208D02*
Y693207D01*
X760000Y675208D02*
X770000D01*
X849000Y693207D02*
X849000Y675207D01*
X849000Y693207D02*
X859000D01*
X859000Y675207D02*
X859000Y693207D01*
X849000Y675207D02*
X859000D01*
X884000Y675208D02*
Y693207D01*
X894000D01*
Y675208D02*
Y693207D01*
X884000Y675208D02*
X894000D01*
X1102000Y610542D02*
X1120000D01*
X1102000D02*
Y620542D01*
X1120000D01*
Y610542D02*
Y620542D01*
X1319415Y556457D02*
Y574458D01*
X1309415Y556457D02*
X1319415D01*
X1309415D02*
Y574458D01*
X1319415D01*
X1182000Y547293D02*
Y557293D01*
Y547293D02*
X1200000Y547293D01*
Y557293D01*
X1182000Y557293D02*
X1200000Y557293D01*
X1182000Y573750D02*
Y583750D01*
Y573750D02*
X1200000Y573750D01*
Y583750D01*
X1182000D02*
X1200000D01*
X1182000Y599293D02*
Y609293D01*
Y599293D02*
X1200000D01*
Y609293D01*
X1182000D02*
X1200000D01*
X643000Y738000D02*
X661000D01*
Y728000D02*
Y738000D01*
X643000Y728000D02*
X661000D01*
X643000D02*
Y738000D01*
X1444000Y589000D02*
X1454000D01*
X1444000Y571000D02*
Y589000D01*
Y571000D02*
X1454000D01*
Y589000D01*
X1469543D02*
X1479543D01*
X1469543Y571000D02*
Y589000D01*
Y571000D02*
X1479543D01*
Y589000D01*
X1136000Y578000D02*
Y588000D01*
X1118000D02*
X1136000D01*
X1118000Y578000D02*
Y588000D01*
Y578000D02*
X1136000D01*
X1118000Y552458D02*
Y562458D01*
Y552458D02*
X1136000D01*
Y562458D01*
X1118000D02*
X1136000D01*
X645000Y532957D02*
Y542957D01*
X627000Y532957D02*
X645000D01*
X627000D02*
Y542957D01*
X645000D01*
X580000Y560000D02*
X590000D01*
X580000Y542000D02*
Y560000D01*
Y542000D02*
X590000D01*
Y560000D01*
X651793Y542000D02*
X661793D01*
Y560000D01*
X651793D02*
X661793D01*
X651793Y542000D02*
Y560000D01*
X576000Y630000D02*
Y640000D01*
X594000Y640000D01*
Y630000D02*
Y640000D01*
X576000Y630000D02*
X594000Y630000D01*
X576000Y589000D02*
Y599000D01*
X594000Y599000D01*
Y589000D02*
Y599000D01*
X576000Y589000D02*
X594000Y589000D01*
X735543Y607000D02*
Y617000D01*
X717543Y607000D02*
X735543D01*
X717543D02*
Y617000D01*
X735543D01*
X688000Y607000D02*
Y617000D01*
X706000D01*
Y607000D02*
Y617000D01*
X688000Y607000D02*
X706000D01*
Y581457D02*
Y591457D01*
X688000Y581457D02*
X706000D01*
X688000D02*
Y591457D01*
X706000D01*
X576000Y658000D02*
Y668000D01*
X594000D01*
Y658000D02*
Y668000D01*
X576000Y658000D02*
X594000D01*
M02*
