G04*
G04 #@! TF.GenerationSoftware,Altium Limited,Altium Designer,21.0.9 (235)*
G04*
G04 Layer_Color=32768*
%FSLAX44Y44*%
%MOMM*%
G71*
G04*
G04 #@! TF.SameCoordinates,5DD7C229-C87D-40E0-AB69-EEC5175B06D6*
G04*
G04*
G04 #@! TF.FilePolarity,Positive*
G04*
G01*
G75*
%ADD44C,0.2000*%
%ADD73C,0.1000*%
D44*
X1097000Y363000D02*
X1107000D01*
X1102000D02*
X1107000D01*
X1102000D02*
Y368000D01*
Y358000D02*
Y368000D01*
Y358000D02*
Y363000D01*
X1123300Y457500D02*
X1133300D01*
X1123300D02*
X1128300D01*
Y452500D02*
Y457500D01*
Y452500D02*
Y462500D01*
Y457500D02*
Y462500D01*
X1201000Y409543D02*
X1211000D01*
X1201000D02*
X1206000D01*
Y404543D02*
Y409543D01*
Y404543D02*
Y414543D01*
Y409543D02*
Y414543D01*
X1018000Y326000D02*
Y336000D01*
Y331000D02*
Y336000D01*
X1013000Y331000D02*
X1018000D01*
X1013000D02*
X1023000D01*
X1018000D02*
X1023000D01*
X358000Y433793D02*
X368000D01*
X358000D02*
X363000D01*
Y438793D01*
Y428793D02*
Y438793D01*
Y428793D02*
Y433793D01*
X358000Y315500D02*
X368000D01*
X363000D02*
X368000D01*
X363000Y310500D02*
Y315500D01*
Y310500D02*
Y320500D01*
Y315500D02*
Y320500D01*
X384000Y316000D02*
X394000D01*
X384000D02*
X389000D01*
Y321000D01*
Y311000D02*
Y321000D01*
Y311000D02*
Y316000D01*
X409543D02*
X419543D01*
X414543D02*
X419543D01*
X414543Y311000D02*
Y316000D01*
Y311000D02*
Y321000D01*
Y316000D02*
Y321000D01*
X1042000Y402000D02*
Y412000D01*
Y402000D02*
Y407000D01*
X1037000D02*
X1042000D01*
X1037000D02*
X1047000D01*
X1042000D02*
X1047000D01*
X1077000Y456000D02*
X1087000D01*
X1077000D02*
X1082000D01*
Y461000D01*
Y451000D02*
Y461000D01*
Y451000D02*
Y456000D01*
X1136000Y414000D02*
Y424000D01*
Y419000D02*
Y424000D01*
Y419000D02*
X1141000D01*
X1131000D02*
X1141000D01*
X1131000D02*
X1136000D01*
X1093000Y368000D02*
X1103000D01*
X1098000D02*
X1103000D01*
X1098000Y363000D02*
Y368000D01*
Y363000D02*
Y373000D01*
Y368000D02*
Y373000D01*
X1136000Y388000D02*
Y398000D01*
Y388000D02*
Y393000D01*
X1131000D02*
X1136000D01*
X1131000D02*
X1141000D01*
X1136000D02*
X1141000D01*
X1097617Y457500D02*
X1107617D01*
X1097617D02*
X1102617D01*
Y452500D02*
Y457500D01*
Y452500D02*
Y462500D01*
Y457500D02*
Y462500D01*
X1071333Y457500D02*
X1081333D01*
X1076333D02*
X1081333D01*
X1076333D02*
Y462500D01*
Y452500D02*
Y462500D01*
Y452500D02*
Y457500D01*
X1006543Y406707D02*
Y416707D01*
Y406707D02*
Y411707D01*
X1001543D02*
X1006543D01*
X1001543D02*
X1011543D01*
X1006543D02*
X1011543D01*
X977000Y406707D02*
Y416707D01*
Y411707D02*
Y416707D01*
Y411707D02*
X982000D01*
X972000D02*
X982000D01*
X972000D02*
X977000D01*
X1007000Y481293D02*
X1007000Y471293D01*
X1007000Y476293D02*
X1007000Y471293D01*
X1002000Y476293D02*
X1007000Y476293D01*
X1002000Y476293D02*
X1012000Y476293D01*
X1007000D02*
X1012000D01*
X977458Y471293D02*
X977458Y481293D01*
Y476293D02*
Y481293D01*
Y476293D02*
X982457Y476293D01*
X972458Y476293D02*
X982457Y476293D01*
X972458Y476293D02*
X977458D01*
X1164628Y284415D02*
X1174628D01*
X1164628D02*
X1169628D01*
Y279415D02*
Y284415D01*
Y279415D02*
Y289415D01*
Y284415D02*
Y289415D01*
X1150585Y298415D02*
X1154585D01*
Y270415D02*
Y298415D01*
X1130585Y270415D02*
X1154585D01*
X1130585D02*
Y298415D01*
X1150585D01*
X1138585Y282415D02*
X1142585D01*
X1138585D02*
X1146585Y282415D01*
X1142585Y278415D02*
Y282415D01*
Y278415D02*
X1142585Y286415D01*
X1164585Y315457D02*
X1174585D01*
X1164585D02*
X1169585D01*
Y310457D02*
Y315457D01*
Y310457D02*
Y320457D01*
Y315457D02*
Y320457D01*
X1139043Y315457D02*
X1149043D01*
X1139043D02*
X1144043D01*
Y310457D02*
Y315457D01*
Y310457D02*
Y320457D01*
Y315457D02*
Y320457D01*
X1079458Y301458D02*
X1083458D01*
X1079458D02*
Y329458D01*
X1103458D01*
Y301458D02*
Y329458D01*
X1083458Y301458D02*
X1103458D01*
X1091458Y317458D02*
X1095458D01*
X1087458D02*
X1095458D01*
X1091458D02*
Y321457D01*
Y313458D02*
Y321457D01*
X1110543Y284415D02*
X1120543D01*
X1110543D02*
X1115543D01*
Y279415D02*
Y284415D01*
Y279415D02*
Y289415D01*
Y284415D02*
Y289415D01*
X1059458Y284415D02*
X1069458D01*
X1064458D02*
X1069458D01*
X1064458D02*
Y289415D01*
Y279415D02*
Y289415D01*
Y279415D02*
Y284415D01*
X1085000D02*
X1095000D01*
X1090000D02*
X1095000D01*
X1090000D02*
Y289415D01*
Y279415D02*
Y289415D01*
Y279415D02*
Y284415D01*
X1113500Y315457D02*
X1123500D01*
X1118500D02*
X1123500D01*
X1118500D02*
Y320457D01*
Y310457D02*
Y320457D01*
Y310457D02*
Y315457D01*
X1203543Y365000D02*
Y375000D01*
Y370000D02*
Y375000D01*
X1198543Y370000D02*
X1203543D01*
X1198543D02*
X1208543D01*
X1203543D02*
X1208543D01*
X1174000Y365000D02*
Y375000D01*
Y365000D02*
Y370000D01*
X1179000D01*
X1169000D02*
X1179000D01*
X1169000D02*
X1174000D01*
X1042000Y418000D02*
Y428000D01*
Y423000D02*
Y428000D01*
X1037000Y423000D02*
X1042000D01*
X1037000D02*
X1047000D01*
X1042000D02*
X1047000D01*
X1045458Y457500D02*
X1055458D01*
X1045458D02*
X1050458D01*
Y452500D02*
Y457500D01*
Y452500D02*
Y462500D01*
Y457500D02*
Y462500D01*
X1137999Y424189D02*
Y434189D01*
Y424189D02*
Y429189D01*
X1142999D01*
X1132999D02*
X1142999D01*
X1132999D02*
X1137999D01*
X1138000Y398543D02*
Y408543D01*
Y398543D02*
Y403543D01*
X1143000D01*
X1133000D02*
X1143000D01*
X1133000D02*
X1138000D01*
X1138000Y373000D02*
Y383000D01*
Y378000D02*
Y383000D01*
X1133000Y378000D02*
X1138000D01*
X1133000D02*
X1143000D01*
X1138000D02*
X1143000D01*
X545000Y434207D02*
X555000D01*
X545000D02*
X550000D01*
Y429207D02*
Y434207D01*
Y429207D02*
Y439207D01*
Y434207D02*
Y439207D01*
X510000Y434207D02*
X520000D01*
X510000D02*
X515000D01*
Y429207D02*
Y434207D01*
Y429207D02*
Y439207D01*
Y434207D02*
Y439207D01*
X599000Y434207D02*
X609000D01*
X599000D02*
X604000D01*
Y429207D02*
Y434207D01*
Y429207D02*
Y439207D01*
Y434207D02*
Y439207D01*
X634000Y434207D02*
X644000D01*
X634000D02*
X639000D01*
Y429207D02*
Y434207D01*
Y429207D02*
Y439207D01*
Y434207D02*
Y439207D01*
X861000Y360543D02*
Y370543D01*
Y360543D02*
Y365543D01*
X866000D01*
X856000D02*
X866000D01*
X856000D02*
X861000D01*
X1059415Y315457D02*
X1069415D01*
X1064415D02*
X1069415D01*
X1064415D02*
Y320457D01*
Y310457D02*
Y320457D01*
Y310457D02*
Y315457D01*
X941000Y302293D02*
X946000D01*
X936000D02*
X946000D01*
X936000D02*
X941000D01*
Y307293D01*
Y297293D02*
Y307293D01*
Y328750D02*
X946000D01*
X936000D02*
X946000D01*
X936000D02*
X941000D01*
Y333750D01*
Y323750D02*
Y333750D01*
Y354293D02*
X946000D01*
X936000D02*
X946000D01*
X936000D02*
X941000D01*
Y359293D01*
Y349293D02*
Y359293D01*
X400000Y483000D02*
X404000D01*
X402000D02*
X404000D01*
X402000Y481000D02*
Y483000D01*
Y481000D02*
Y485000D01*
Y483000D02*
Y485000D01*
X1199000Y325000D02*
Y330000D01*
Y325000D02*
Y335000D01*
Y330000D02*
Y335000D01*
Y330000D02*
X1204000D01*
X1194000D02*
X1204000D01*
X1224543Y325000D02*
Y330000D01*
Y325000D02*
Y335000D01*
Y330000D02*
Y335000D01*
Y330000D02*
X1229543D01*
X1219543D02*
X1229543D01*
X872000Y333000D02*
X877000D01*
X872000D02*
X882000D01*
X877000D02*
X882000D01*
X877000Y328000D02*
Y333000D01*
Y328000D02*
Y338000D01*
Y307458D02*
X882000D01*
X872000D02*
X882000D01*
X872000D02*
X877000D01*
Y312458D01*
Y302458D02*
Y312458D01*
X1156000Y350000D02*
Y397000D01*
Y350000D02*
X1225000D01*
X1156000Y397000D02*
X1225000D01*
Y350000D02*
Y397000D01*
X1190000Y370000D02*
Y375000D01*
Y370000D02*
Y375000D01*
Y380000D01*
Y375000D02*
Y380000D01*
Y375000D02*
X1195000D01*
X1185000D02*
X1195000D01*
X381000Y287957D02*
X386000D01*
X381000D02*
X391000D01*
X386000D02*
X391000D01*
X386000D02*
Y292957D01*
Y282957D02*
Y292957D01*
X335000Y296000D02*
Y301000D01*
Y296000D02*
Y306000D01*
Y301000D02*
Y306000D01*
Y301000D02*
X340000D01*
X330000D02*
X340000D01*
X406793Y301000D02*
Y306000D01*
Y296000D02*
Y306000D01*
Y296000D02*
Y301000D01*
X401793D02*
X406793D01*
X401793D02*
X411793D01*
X335000Y385000D02*
X340000D01*
X330000D02*
X340000D01*
X330000D02*
X335000D01*
Y380000D02*
Y385000D01*
Y380000D02*
Y390000D01*
X335000Y344000D02*
X340000D01*
X330000Y344000D02*
X340000Y344000D01*
X330000Y344000D02*
X335000Y344000D01*
Y339000D02*
Y344000D01*
Y339000D02*
X335000Y349000D01*
X471543Y362000D02*
X476543D01*
X471543D02*
X481543D01*
X476543D02*
X481543D01*
X476543D02*
Y367000D01*
Y357000D02*
Y367000D01*
X447000Y362000D02*
X452000D01*
X442000D02*
X452000D01*
X442000D02*
X447000D01*
Y357000D02*
Y362000D01*
Y357000D02*
Y367000D01*
X442000Y336458D02*
X447000D01*
X442000D02*
X452000D01*
X447000D02*
X452000D01*
X447000D02*
Y341458D01*
Y331458D02*
Y341458D01*
X335000Y413000D02*
X340000D01*
X330000D02*
X340000D01*
X330000D02*
X335000D01*
Y408000D02*
Y413000D01*
Y408000D02*
Y418000D01*
X538000Y310000D02*
Y330000D01*
Y320000D02*
Y330000D01*
X528000Y320000D02*
X538000D01*
X528000D02*
X548000D01*
X538000D02*
X548000D01*
X514500Y336250D02*
X514500Y303500D01*
X514500Y336250D02*
X561500D01*
X561500Y336250D01*
Y303500D02*
Y336250D01*
X514500Y303500D02*
X561500D01*
X1097000Y613000D02*
X1107000D01*
X1102000D02*
X1107000D01*
X1102000D02*
Y618000D01*
Y608000D02*
Y618000D01*
Y608000D02*
Y613000D01*
X1123300Y707500D02*
X1133300D01*
X1123300D02*
X1128300D01*
Y702500D02*
Y707500D01*
Y702500D02*
Y712500D01*
Y707500D02*
Y712500D01*
X1201000Y659543D02*
X1211000D01*
X1201000D02*
X1206000D01*
Y654543D02*
Y659543D01*
Y654543D02*
Y664543D01*
Y659543D02*
Y664543D01*
X1018000Y576000D02*
Y586000D01*
Y581000D02*
Y586000D01*
X1013000Y581000D02*
X1018000D01*
X1013000D02*
X1023000D01*
X1018000D02*
X1023000D01*
X358000Y683793D02*
X368000D01*
X358000D02*
X363000D01*
Y688793D01*
Y678793D02*
Y688793D01*
Y678793D02*
Y683793D01*
X358000Y565500D02*
X368000D01*
X363000D02*
X368000D01*
X363000Y560500D02*
Y565500D01*
Y560500D02*
Y570500D01*
Y565500D02*
Y570500D01*
X384000Y566000D02*
X394000D01*
X384000D02*
X389000D01*
Y571000D01*
Y561000D02*
Y571000D01*
Y561000D02*
Y566000D01*
X409543D02*
X419543D01*
X414543D02*
X419543D01*
X414543Y561000D02*
Y566000D01*
Y561000D02*
Y571000D01*
Y566000D02*
Y571000D01*
X1042000Y652000D02*
Y662000D01*
Y652000D02*
Y657000D01*
X1037000D02*
X1042000D01*
X1037000D02*
X1047000D01*
X1042000D02*
X1047000D01*
X1077000Y706000D02*
X1087000D01*
X1077000D02*
X1082000D01*
Y711000D01*
Y701000D02*
Y711000D01*
Y701000D02*
Y706000D01*
X1136000Y664000D02*
Y674000D01*
Y669000D02*
Y674000D01*
Y669000D02*
X1141000D01*
X1131000D02*
X1141000D01*
X1131000D02*
X1136000D01*
X1093000Y618000D02*
X1103000D01*
X1098000D02*
X1103000D01*
X1098000Y613000D02*
Y618000D01*
Y613000D02*
Y623000D01*
Y618000D02*
Y623000D01*
X1136000Y638000D02*
Y648000D01*
Y638000D02*
Y643000D01*
X1131000D02*
X1136000D01*
X1131000D02*
X1141000D01*
X1136000D02*
X1141000D01*
X1097617Y707500D02*
X1107617D01*
X1097617D02*
X1102617D01*
Y702500D02*
Y707500D01*
Y702500D02*
Y712500D01*
Y707500D02*
Y712500D01*
X1071333Y707500D02*
X1081333D01*
X1076333D02*
X1081333D01*
X1076333D02*
Y712500D01*
Y702500D02*
Y712500D01*
Y702500D02*
Y707500D01*
X1006543Y656708D02*
Y666708D01*
Y656708D02*
Y661708D01*
X1001543D02*
X1006543D01*
X1001543D02*
X1011543D01*
X1006543D02*
X1011543D01*
X977000Y656708D02*
Y666708D01*
Y661708D02*
Y666708D01*
Y661708D02*
X982000D01*
X972000D02*
X982000D01*
X972000D02*
X977000D01*
X1007000Y731293D02*
X1007000Y721293D01*
X1007000Y726293D02*
X1007000Y721293D01*
X1002000Y726293D02*
X1007000Y726293D01*
X1002000Y726293D02*
X1012000Y726293D01*
X1007000D02*
X1012000D01*
X977458Y721293D02*
X977458Y731293D01*
Y726293D02*
Y731293D01*
Y726293D02*
X982457Y726293D01*
X972458Y726293D02*
X982457Y726293D01*
X972458Y726293D02*
X977458D01*
X1164628Y534415D02*
X1174628D01*
X1164628D02*
X1169628D01*
Y529415D02*
Y534415D01*
Y529415D02*
Y539415D01*
Y534415D02*
Y539415D01*
X1150585Y548415D02*
X1154585D01*
Y520415D02*
Y548415D01*
X1130585Y520415D02*
X1154585D01*
X1130585D02*
Y548415D01*
X1150585D01*
X1138585Y532415D02*
X1142585D01*
X1138585D02*
X1146585Y532415D01*
X1142585Y528415D02*
Y532415D01*
Y528415D02*
X1142585Y536415D01*
X1164585Y565458D02*
X1174585D01*
X1164585D02*
X1169585D01*
Y560458D02*
Y565458D01*
Y560458D02*
Y570458D01*
Y565458D02*
Y570458D01*
X1139043Y565458D02*
X1149043D01*
X1139043D02*
X1144043D01*
Y560458D02*
Y565458D01*
Y560458D02*
Y570458D01*
Y565458D02*
Y570458D01*
X1079458Y551458D02*
X1083458D01*
X1079458D02*
Y579458D01*
X1103458D01*
Y551458D02*
Y579458D01*
X1083458Y551458D02*
X1103458D01*
X1091458Y567458D02*
X1095458D01*
X1087458D02*
X1095458D01*
X1091458D02*
Y571458D01*
Y563458D02*
Y571458D01*
X1110543Y534415D02*
X1120543D01*
X1110543D02*
X1115543D01*
Y529415D02*
Y534415D01*
Y529415D02*
Y539415D01*
Y534415D02*
Y539415D01*
X1059458Y534415D02*
X1069458D01*
X1064458D02*
X1069458D01*
X1064458D02*
Y539415D01*
Y529415D02*
Y539415D01*
Y529415D02*
Y534415D01*
X1085000D02*
X1095000D01*
X1090000D02*
X1095000D01*
X1090000D02*
Y539415D01*
Y529415D02*
Y539415D01*
Y529415D02*
Y534415D01*
X1113500Y565458D02*
X1123500D01*
X1118500D02*
X1123500D01*
X1118500D02*
Y570458D01*
Y560458D02*
Y570458D01*
Y560458D02*
Y565458D01*
X1203543Y615000D02*
Y625000D01*
Y620000D02*
Y625000D01*
X1198543Y620000D02*
X1203543D01*
X1198543D02*
X1208543D01*
X1203543D02*
X1208543D01*
X1174000Y615000D02*
Y625000D01*
Y615000D02*
Y620000D01*
X1179000D01*
X1169000D02*
X1179000D01*
X1169000D02*
X1174000D01*
X1042000Y668000D02*
Y678000D01*
Y673000D02*
Y678000D01*
X1037000Y673000D02*
X1042000D01*
X1037000D02*
X1047000D01*
X1042000D02*
X1047000D01*
X1045458Y707500D02*
X1055458D01*
X1045458D02*
X1050458D01*
Y702500D02*
Y707500D01*
Y702500D02*
Y712500D01*
Y707500D02*
Y712500D01*
X1137999Y674189D02*
Y684189D01*
Y674189D02*
Y679189D01*
X1142999D01*
X1132999D02*
X1142999D01*
X1132999D02*
X1137999D01*
X1138000Y648543D02*
Y658543D01*
Y648543D02*
Y653543D01*
X1143000D01*
X1133000D02*
X1143000D01*
X1133000D02*
X1138000D01*
X1138000Y623000D02*
Y633000D01*
Y628000D02*
Y633000D01*
X1133000Y628000D02*
X1138000D01*
X1133000D02*
X1143000D01*
X1138000D02*
X1143000D01*
X545000Y684208D02*
X555000D01*
X545000D02*
X550000D01*
Y679208D02*
Y684208D01*
Y679208D02*
Y689208D01*
Y684208D02*
Y689208D01*
X510000Y684208D02*
X520000D01*
X510000D02*
X515000D01*
Y679208D02*
Y684208D01*
Y679208D02*
Y689208D01*
Y684208D02*
Y689208D01*
X599000Y684208D02*
X609000D01*
X599000D02*
X604000D01*
Y679208D02*
Y684208D01*
Y679208D02*
Y689208D01*
Y684208D02*
Y689208D01*
X634000Y684208D02*
X644000D01*
X634000D02*
X639000D01*
Y679208D02*
Y684208D01*
Y679208D02*
Y689208D01*
Y684208D02*
Y689208D01*
X861000Y610543D02*
Y620543D01*
Y610543D02*
Y615543D01*
X866000D01*
X856000D02*
X866000D01*
X856000D02*
X861000D01*
X1059415Y565458D02*
X1069415D01*
X1064415D02*
X1069415D01*
X1064415D02*
Y570458D01*
Y560458D02*
Y570458D01*
Y560458D02*
Y565458D01*
X941000Y552293D02*
X946000D01*
X936000D02*
X946000D01*
X936000D02*
X941000D01*
Y557293D01*
Y547293D02*
Y557293D01*
Y578750D02*
X946000D01*
X936000D02*
X946000D01*
X936000D02*
X941000D01*
Y583750D01*
Y573750D02*
Y583750D01*
Y604293D02*
X946000D01*
X936000D02*
X946000D01*
X936000D02*
X941000D01*
Y609293D01*
Y599293D02*
Y609293D01*
X400000Y733000D02*
X404000D01*
X402000D02*
X404000D01*
X402000Y731000D02*
Y733000D01*
Y731000D02*
Y735000D01*
Y733000D02*
Y735000D01*
X1199000Y575000D02*
Y580000D01*
Y575000D02*
Y585000D01*
Y580000D02*
Y585000D01*
Y580000D02*
X1204000D01*
X1194000D02*
X1204000D01*
X1224543Y575000D02*
Y580000D01*
Y575000D02*
Y585000D01*
Y580000D02*
Y585000D01*
Y580000D02*
X1229543D01*
X1219543D02*
X1229543D01*
X872000Y583000D02*
X877000D01*
X872000D02*
X882000D01*
X877000D02*
X882000D01*
X877000Y578000D02*
Y583000D01*
Y578000D02*
Y588000D01*
Y557458D02*
X882000D01*
X872000D02*
X882000D01*
X872000D02*
X877000D01*
Y562458D01*
Y552458D02*
Y562458D01*
X1156000Y600000D02*
Y647000D01*
Y600000D02*
X1225000D01*
X1156000Y647000D02*
X1225000D01*
Y600000D02*
Y647000D01*
X1190000Y620000D02*
Y625000D01*
Y620000D02*
Y625000D01*
Y630000D01*
Y625000D02*
Y630000D01*
Y625000D02*
X1195000D01*
X1185000D02*
X1195000D01*
X381000Y537958D02*
X386000D01*
X381000D02*
X391000D01*
X386000D02*
X391000D01*
X386000D02*
Y542958D01*
Y532958D02*
Y542958D01*
X335000Y546000D02*
Y551000D01*
Y546000D02*
Y556000D01*
Y551000D02*
Y556000D01*
Y551000D02*
X340000D01*
X330000D02*
X340000D01*
X406793Y551000D02*
Y556000D01*
Y546000D02*
Y556000D01*
Y546000D02*
Y551000D01*
X401793D02*
X406793D01*
X401793D02*
X411793D01*
X335000Y635000D02*
X340000D01*
X330000D02*
X340000D01*
X330000D02*
X335000D01*
Y630000D02*
Y635000D01*
Y630000D02*
Y640000D01*
X335000Y594000D02*
X340000D01*
X330000Y594000D02*
X340000Y594000D01*
X330000Y594000D02*
X335000Y594000D01*
Y589000D02*
Y594000D01*
Y589000D02*
X335000Y599000D01*
X471543Y612000D02*
X476543D01*
X471543D02*
X481543D01*
X476543D02*
X481543D01*
X476543D02*
Y617000D01*
Y607000D02*
Y617000D01*
X447000Y612000D02*
X452000D01*
X442000D02*
X452000D01*
X442000D02*
X447000D01*
Y607000D02*
Y612000D01*
Y607000D02*
Y617000D01*
X442000Y586458D02*
X447000D01*
X442000D02*
X452000D01*
X447000D02*
X452000D01*
X447000D02*
Y591458D01*
Y581458D02*
Y591458D01*
X335000Y663000D02*
X340000D01*
X330000D02*
X340000D01*
X330000D02*
X335000D01*
Y658000D02*
Y663000D01*
Y658000D02*
Y668000D01*
X538000Y560000D02*
Y580000D01*
Y570000D02*
Y580000D01*
X528000Y570000D02*
X538000D01*
X528000D02*
X548000D01*
X538000D02*
X548000D01*
X514500Y586250D02*
X514500Y553500D01*
X514500Y586250D02*
X561500D01*
X561500Y586250D01*
Y553500D02*
Y586250D01*
X514500Y553500D02*
X561500D01*
X1097000Y863000D02*
X1107000D01*
X1102000D02*
X1107000D01*
X1102000D02*
Y868000D01*
Y858000D02*
Y868000D01*
Y858000D02*
Y863000D01*
X1123300Y957500D02*
X1133300D01*
X1123300D02*
X1128300D01*
Y952500D02*
Y957500D01*
Y952500D02*
Y962500D01*
Y957500D02*
Y962500D01*
X1201000Y909543D02*
X1211000D01*
X1201000D02*
X1206000D01*
Y904543D02*
Y909543D01*
Y904543D02*
Y914543D01*
Y909543D02*
Y914543D01*
X1018000Y826000D02*
Y836000D01*
Y831000D02*
Y836000D01*
X1013000Y831000D02*
X1018000D01*
X1013000D02*
X1023000D01*
X1018000D02*
X1023000D01*
X358000Y933793D02*
X368000D01*
X358000D02*
X363000D01*
Y938793D01*
Y928793D02*
Y938793D01*
Y928793D02*
Y933793D01*
X358000Y815500D02*
X368000D01*
X363000D02*
X368000D01*
X363000Y810500D02*
Y815500D01*
Y810500D02*
Y820500D01*
Y815500D02*
Y820500D01*
X384000Y816000D02*
X394000D01*
X384000D02*
X389000D01*
Y821000D01*
Y811000D02*
Y821000D01*
Y811000D02*
Y816000D01*
X409543D02*
X419543D01*
X414543D02*
X419543D01*
X414543Y811000D02*
Y816000D01*
Y811000D02*
Y821000D01*
Y816000D02*
Y821000D01*
X1042000Y902000D02*
Y912000D01*
Y902000D02*
Y907000D01*
X1037000D02*
X1042000D01*
X1037000D02*
X1047000D01*
X1042000D02*
X1047000D01*
X1077000Y956000D02*
X1087000D01*
X1077000D02*
X1082000D01*
Y961000D01*
Y951000D02*
Y961000D01*
Y951000D02*
Y956000D01*
X1136000Y914000D02*
Y924000D01*
Y919000D02*
Y924000D01*
Y919000D02*
X1141000D01*
X1131000D02*
X1141000D01*
X1131000D02*
X1136000D01*
X1093000Y868000D02*
X1103000D01*
X1098000D02*
X1103000D01*
X1098000Y863000D02*
Y868000D01*
Y863000D02*
Y873000D01*
Y868000D02*
Y873000D01*
X1136000Y888000D02*
Y898000D01*
Y888000D02*
Y893000D01*
X1131000D02*
X1136000D01*
X1131000D02*
X1141000D01*
X1136000D02*
X1141000D01*
X1097617Y957500D02*
X1107617D01*
X1097617D02*
X1102617D01*
Y952500D02*
Y957500D01*
Y952500D02*
Y962500D01*
Y957500D02*
Y962500D01*
X1071333Y957500D02*
X1081333D01*
X1076333D02*
X1081333D01*
X1076333D02*
Y962500D01*
Y952500D02*
Y962500D01*
Y952500D02*
Y957500D01*
X1006543Y906708D02*
Y916708D01*
Y906708D02*
Y911708D01*
X1001543D02*
X1006543D01*
X1001543D02*
X1011543D01*
X1006543D02*
X1011543D01*
X977000Y906708D02*
Y916708D01*
Y911708D02*
Y916708D01*
Y911708D02*
X982000D01*
X972000D02*
X982000D01*
X972000D02*
X977000D01*
X1007000Y981293D02*
X1007000Y971293D01*
X1007000Y976293D02*
X1007000Y971293D01*
X1002000Y976293D02*
X1007000Y976293D01*
X1002000Y976293D02*
X1012000Y976293D01*
X1007000D02*
X1012000D01*
X977458Y971293D02*
X977458Y981293D01*
Y976293D02*
Y981293D01*
Y976293D02*
X982457Y976293D01*
X972458Y976293D02*
X982457Y976293D01*
X972458Y976293D02*
X977458D01*
X1164628Y784415D02*
X1174628D01*
X1164628D02*
X1169628D01*
Y779415D02*
Y784415D01*
Y779415D02*
Y789415D01*
Y784415D02*
Y789415D01*
X1150585Y798415D02*
X1154585D01*
Y770415D02*
Y798415D01*
X1130585Y770415D02*
X1154585D01*
X1130585D02*
Y798415D01*
X1150585D01*
X1138585Y782415D02*
X1142585D01*
X1138585D02*
X1146585Y782415D01*
X1142585Y778415D02*
Y782415D01*
Y778415D02*
X1142585Y786415D01*
X1164585Y815458D02*
X1174585D01*
X1164585D02*
X1169585D01*
Y810458D02*
Y815458D01*
Y810458D02*
Y820458D01*
Y815458D02*
Y820458D01*
X1139043Y815458D02*
X1149043D01*
X1139043D02*
X1144043D01*
Y810458D02*
Y815458D01*
Y810458D02*
Y820458D01*
Y815458D02*
Y820458D01*
X1079458Y801458D02*
X1083458D01*
X1079458D02*
Y829458D01*
X1103458D01*
Y801458D02*
Y829458D01*
X1083458Y801458D02*
X1103458D01*
X1091458Y817458D02*
X1095458D01*
X1087458D02*
X1095458D01*
X1091458D02*
Y821458D01*
Y813458D02*
Y821458D01*
X1110543Y784415D02*
X1120543D01*
X1110543D02*
X1115543D01*
Y779415D02*
Y784415D01*
Y779415D02*
Y789415D01*
Y784415D02*
Y789415D01*
X1059458Y784415D02*
X1069458D01*
X1064458D02*
X1069458D01*
X1064458D02*
Y789415D01*
Y779415D02*
Y789415D01*
Y779415D02*
Y784415D01*
X1085000D02*
X1095000D01*
X1090000D02*
X1095000D01*
X1090000D02*
Y789415D01*
Y779415D02*
Y789415D01*
Y779415D02*
Y784415D01*
X1113500Y815458D02*
X1123500D01*
X1118500D02*
X1123500D01*
X1118500D02*
Y820458D01*
Y810458D02*
Y820458D01*
Y810458D02*
Y815458D01*
X1203543Y865000D02*
Y875000D01*
Y870000D02*
Y875000D01*
X1198543Y870000D02*
X1203543D01*
X1198543D02*
X1208543D01*
X1203543D02*
X1208543D01*
X1174000Y865000D02*
Y875000D01*
Y865000D02*
Y870000D01*
X1179000D01*
X1169000D02*
X1179000D01*
X1169000D02*
X1174000D01*
X1042000Y918000D02*
Y928000D01*
Y923000D02*
Y928000D01*
X1037000Y923000D02*
X1042000D01*
X1037000D02*
X1047000D01*
X1042000D02*
X1047000D01*
X1045458Y957500D02*
X1055458D01*
X1045458D02*
X1050458D01*
Y952500D02*
Y957500D01*
Y952500D02*
Y962500D01*
Y957500D02*
Y962500D01*
X1137999Y924189D02*
Y934189D01*
Y924189D02*
Y929189D01*
X1142999D01*
X1132999D02*
X1142999D01*
X1132999D02*
X1137999D01*
X1138000Y898543D02*
Y908543D01*
Y898543D02*
Y903543D01*
X1143000D01*
X1133000D02*
X1143000D01*
X1133000D02*
X1138000D01*
X1138000Y873000D02*
Y883000D01*
Y878000D02*
Y883000D01*
X1133000Y878000D02*
X1138000D01*
X1133000D02*
X1143000D01*
X1138000D02*
X1143000D01*
X545000Y934208D02*
X555000D01*
X545000D02*
X550000D01*
Y929208D02*
Y934208D01*
Y929208D02*
Y939208D01*
Y934208D02*
Y939208D01*
X510000Y934208D02*
X520000D01*
X510000D02*
X515000D01*
Y929208D02*
Y934208D01*
Y929208D02*
Y939208D01*
Y934208D02*
Y939208D01*
X599000Y934208D02*
X609000D01*
X599000D02*
X604000D01*
Y929208D02*
Y934208D01*
Y929208D02*
Y939208D01*
Y934208D02*
Y939208D01*
X634000Y934208D02*
X644000D01*
X634000D02*
X639000D01*
Y929208D02*
Y934208D01*
Y929208D02*
Y939208D01*
Y934208D02*
Y939208D01*
X861000Y860543D02*
Y870543D01*
Y860543D02*
Y865543D01*
X866000D01*
X856000D02*
X866000D01*
X856000D02*
X861000D01*
X1059415Y815458D02*
X1069415D01*
X1064415D02*
X1069415D01*
X1064415D02*
Y820458D01*
Y810458D02*
Y820458D01*
Y810458D02*
Y815458D01*
X941000Y802293D02*
X946000D01*
X936000D02*
X946000D01*
X936000D02*
X941000D01*
Y807293D01*
Y797293D02*
Y807293D01*
Y828750D02*
X946000D01*
X936000D02*
X946000D01*
X936000D02*
X941000D01*
Y833750D01*
Y823750D02*
Y833750D01*
Y854293D02*
X946000D01*
X936000D02*
X946000D01*
X936000D02*
X941000D01*
Y859293D01*
Y849293D02*
Y859293D01*
X400000Y983000D02*
X404000D01*
X402000D02*
X404000D01*
X402000Y981000D02*
Y983000D01*
Y981000D02*
Y985000D01*
Y983000D02*
Y985000D01*
X1199000Y825000D02*
Y830000D01*
Y825000D02*
Y835000D01*
Y830000D02*
Y835000D01*
Y830000D02*
X1204000D01*
X1194000D02*
X1204000D01*
X1224543Y825000D02*
Y830000D01*
Y825000D02*
Y835000D01*
Y830000D02*
Y835000D01*
Y830000D02*
X1229543D01*
X1219543D02*
X1229543D01*
X872000Y833000D02*
X877000D01*
X872000D02*
X882000D01*
X877000D02*
X882000D01*
X877000Y828000D02*
Y833000D01*
Y828000D02*
Y838000D01*
Y807458D02*
X882000D01*
X872000D02*
X882000D01*
X872000D02*
X877000D01*
Y812458D01*
Y802458D02*
Y812458D01*
X1156000Y850000D02*
Y897000D01*
Y850000D02*
X1225000D01*
X1156000Y897000D02*
X1225000D01*
Y850000D02*
Y897000D01*
X1190000Y870000D02*
Y875000D01*
Y870000D02*
Y875000D01*
Y880000D01*
Y875000D02*
Y880000D01*
Y875000D02*
X1195000D01*
X1185000D02*
X1195000D01*
X381000Y787958D02*
X386000D01*
X381000D02*
X391000D01*
X386000D02*
X391000D01*
X386000D02*
Y792958D01*
Y782958D02*
Y792958D01*
X335000Y796000D02*
Y801000D01*
Y796000D02*
Y806000D01*
Y801000D02*
Y806000D01*
Y801000D02*
X340000D01*
X330000D02*
X340000D01*
X406793Y801000D02*
Y806000D01*
Y796000D02*
Y806000D01*
Y796000D02*
Y801000D01*
X401793D02*
X406793D01*
X401793D02*
X411793D01*
X335000Y885000D02*
X340000D01*
X330000D02*
X340000D01*
X330000D02*
X335000D01*
Y880000D02*
Y885000D01*
Y880000D02*
Y890000D01*
X335000Y844000D02*
X340000D01*
X330000Y844000D02*
X340000Y844000D01*
X330000Y844000D02*
X335000Y844000D01*
Y839000D02*
Y844000D01*
Y839000D02*
X335000Y849000D01*
X471543Y862000D02*
X476543D01*
X471543D02*
X481543D01*
X476543D02*
X481543D01*
X476543D02*
Y867000D01*
Y857000D02*
Y867000D01*
X447000Y862000D02*
X452000D01*
X442000D02*
X452000D01*
X442000D02*
X447000D01*
Y857000D02*
Y862000D01*
Y857000D02*
Y867000D01*
X442000Y836458D02*
X447000D01*
X442000D02*
X452000D01*
X447000D02*
X452000D01*
X447000D02*
Y841458D01*
Y831458D02*
Y841458D01*
X335000Y913000D02*
X340000D01*
X330000D02*
X340000D01*
X330000D02*
X335000D01*
Y908000D02*
Y913000D01*
Y908000D02*
Y918000D01*
X538000Y810000D02*
Y830000D01*
Y820000D02*
Y830000D01*
X528000Y820000D02*
X538000D01*
X528000D02*
X548000D01*
X538000D02*
X548000D01*
X514500Y836250D02*
X514500Y803500D01*
X514500Y836250D02*
X561500D01*
X561500Y836250D01*
Y803500D02*
Y836250D01*
X514500Y803500D02*
X561500D01*
X1097000Y1113000D02*
X1107000D01*
X1102000D02*
X1107000D01*
X1102000D02*
Y1118000D01*
Y1108000D02*
Y1118000D01*
Y1108000D02*
Y1113000D01*
X1123300Y1207500D02*
X1133300D01*
X1123300D02*
X1128300D01*
Y1202500D02*
Y1207500D01*
Y1202500D02*
Y1212500D01*
Y1207500D02*
Y1212500D01*
X1201000Y1159543D02*
X1211000D01*
X1201000D02*
X1206000D01*
Y1154543D02*
Y1159543D01*
Y1154543D02*
Y1164543D01*
Y1159543D02*
Y1164543D01*
X1018000Y1076000D02*
Y1086000D01*
Y1081000D02*
Y1086000D01*
X1013000Y1081000D02*
X1018000D01*
X1013000D02*
X1023000D01*
X1018000D02*
X1023000D01*
X358000Y1183793D02*
X368000D01*
X358000D02*
X363000D01*
Y1188793D01*
Y1178793D02*
Y1188793D01*
Y1178793D02*
Y1183793D01*
X358000Y1065500D02*
X368000D01*
X363000D02*
X368000D01*
X363000Y1060500D02*
Y1065500D01*
Y1060500D02*
Y1070500D01*
Y1065500D02*
Y1070500D01*
X384000Y1066000D02*
X394000D01*
X384000D02*
X389000D01*
Y1071000D01*
Y1061000D02*
Y1071000D01*
Y1061000D02*
Y1066000D01*
X409543D02*
X419543D01*
X414543D02*
X419543D01*
X414543Y1061000D02*
Y1066000D01*
Y1061000D02*
Y1071000D01*
Y1066000D02*
Y1071000D01*
X1042000Y1152000D02*
Y1162000D01*
Y1152000D02*
Y1157000D01*
X1037000D02*
X1042000D01*
X1037000D02*
X1047000D01*
X1042000D02*
X1047000D01*
X1077000Y1206000D02*
X1087000D01*
X1077000D02*
X1082000D01*
Y1211000D01*
Y1201000D02*
Y1211000D01*
Y1201000D02*
Y1206000D01*
X1136000Y1164000D02*
Y1174000D01*
Y1169000D02*
Y1174000D01*
Y1169000D02*
X1141000D01*
X1131000D02*
X1141000D01*
X1131000D02*
X1136000D01*
X1093000Y1118000D02*
X1103000D01*
X1098000D02*
X1103000D01*
X1098000Y1113000D02*
Y1118000D01*
Y1113000D02*
Y1123000D01*
Y1118000D02*
Y1123000D01*
X1136000Y1138000D02*
Y1148000D01*
Y1138000D02*
Y1143000D01*
X1131000D02*
X1136000D01*
X1131000D02*
X1141000D01*
X1136000D02*
X1141000D01*
X1097617Y1207500D02*
X1107617D01*
X1097617D02*
X1102617D01*
Y1202500D02*
Y1207500D01*
Y1202500D02*
Y1212500D01*
Y1207500D02*
Y1212500D01*
X1071333Y1207500D02*
X1081333D01*
X1076333D02*
X1081333D01*
X1076333D02*
Y1212500D01*
Y1202500D02*
Y1212500D01*
Y1202500D02*
Y1207500D01*
X1006543Y1156708D02*
Y1166708D01*
Y1156708D02*
Y1161708D01*
X1001543D02*
X1006543D01*
X1001543D02*
X1011543D01*
X1006543D02*
X1011543D01*
X977000Y1156708D02*
Y1166708D01*
Y1161708D02*
Y1166708D01*
Y1161708D02*
X982000D01*
X972000D02*
X982000D01*
X972000D02*
X977000D01*
X1007000Y1231293D02*
X1007000Y1221293D01*
X1007000Y1226293D02*
X1007000Y1221293D01*
X1002000Y1226293D02*
X1007000Y1226293D01*
X1002000Y1226293D02*
X1012000Y1226293D01*
X1007000D02*
X1012000D01*
X977458Y1221293D02*
X977458Y1231293D01*
Y1226293D02*
Y1231293D01*
Y1226293D02*
X982457Y1226293D01*
X972458Y1226293D02*
X982457Y1226293D01*
X972458Y1226293D02*
X977458D01*
X1164628Y1034415D02*
X1174628D01*
X1164628D02*
X1169628D01*
Y1029415D02*
Y1034415D01*
Y1029415D02*
Y1039415D01*
Y1034415D02*
Y1039415D01*
X1150585Y1048415D02*
X1154585D01*
Y1020415D02*
Y1048415D01*
X1130585Y1020415D02*
X1154585D01*
X1130585D02*
Y1048415D01*
X1150585D01*
X1138585Y1032415D02*
X1142585D01*
X1138585D02*
X1146585Y1032415D01*
X1142585Y1028415D02*
Y1032415D01*
Y1028415D02*
X1142585Y1036415D01*
X1164585Y1065458D02*
X1174585D01*
X1164585D02*
X1169585D01*
Y1060458D02*
Y1065458D01*
Y1060458D02*
Y1070458D01*
Y1065458D02*
Y1070458D01*
X1139043Y1065458D02*
X1149043D01*
X1139043D02*
X1144043D01*
Y1060458D02*
Y1065458D01*
Y1060458D02*
Y1070458D01*
Y1065458D02*
Y1070458D01*
X1079458Y1051458D02*
X1083458D01*
X1079458D02*
Y1079458D01*
X1103458D01*
Y1051458D02*
Y1079458D01*
X1083458Y1051458D02*
X1103458D01*
X1091458Y1067458D02*
X1095458D01*
X1087458D02*
X1095458D01*
X1091458D02*
Y1071458D01*
Y1063458D02*
Y1071458D01*
X1110543Y1034415D02*
X1120543D01*
X1110543D02*
X1115543D01*
Y1029415D02*
Y1034415D01*
Y1029415D02*
Y1039415D01*
Y1034415D02*
Y1039415D01*
X1059458Y1034415D02*
X1069458D01*
X1064458D02*
X1069458D01*
X1064458D02*
Y1039415D01*
Y1029415D02*
Y1039415D01*
Y1029415D02*
Y1034415D01*
X1085000D02*
X1095000D01*
X1090000D02*
X1095000D01*
X1090000D02*
Y1039415D01*
Y1029415D02*
Y1039415D01*
Y1029415D02*
Y1034415D01*
X1113500Y1065458D02*
X1123500D01*
X1118500D02*
X1123500D01*
X1118500D02*
Y1070458D01*
Y1060458D02*
Y1070458D01*
Y1060458D02*
Y1065458D01*
X1203543Y1115000D02*
Y1125000D01*
Y1120000D02*
Y1125000D01*
X1198543Y1120000D02*
X1203543D01*
X1198543D02*
X1208543D01*
X1203543D02*
X1208543D01*
X1174000Y1115000D02*
Y1125000D01*
Y1115000D02*
Y1120000D01*
X1179000D01*
X1169000D02*
X1179000D01*
X1169000D02*
X1174000D01*
X1042000Y1168000D02*
Y1178000D01*
Y1173000D02*
Y1178000D01*
X1037000Y1173000D02*
X1042000D01*
X1037000D02*
X1047000D01*
X1042000D02*
X1047000D01*
X1045458Y1207500D02*
X1055458D01*
X1045458D02*
X1050458D01*
Y1202500D02*
Y1207500D01*
Y1202500D02*
Y1212500D01*
Y1207500D02*
Y1212500D01*
X1137999Y1174189D02*
Y1184189D01*
Y1174189D02*
Y1179189D01*
X1142999D01*
X1132999D02*
X1142999D01*
X1132999D02*
X1137999D01*
X1138000Y1148543D02*
Y1158543D01*
Y1148543D02*
Y1153543D01*
X1143000D01*
X1133000D02*
X1143000D01*
X1133000D02*
X1138000D01*
X1138000Y1123000D02*
Y1133000D01*
Y1128000D02*
Y1133000D01*
X1133000Y1128000D02*
X1138000D01*
X1133000D02*
X1143000D01*
X1138000D02*
X1143000D01*
X545000Y1184208D02*
X555000D01*
X545000D02*
X550000D01*
Y1179208D02*
Y1184208D01*
Y1179208D02*
Y1189208D01*
Y1184208D02*
Y1189208D01*
X510000Y1184208D02*
X520000D01*
X510000D02*
X515000D01*
Y1179208D02*
Y1184208D01*
Y1179208D02*
Y1189208D01*
Y1184208D02*
Y1189208D01*
X599000Y1184208D02*
X609000D01*
X599000D02*
X604000D01*
Y1179208D02*
Y1184208D01*
Y1179208D02*
Y1189208D01*
Y1184208D02*
Y1189208D01*
X634000Y1184208D02*
X644000D01*
X634000D02*
X639000D01*
Y1179208D02*
Y1184208D01*
Y1179208D02*
Y1189208D01*
Y1184208D02*
Y1189208D01*
X861000Y1110543D02*
Y1120543D01*
Y1110543D02*
Y1115543D01*
X866000D01*
X856000D02*
X866000D01*
X856000D02*
X861000D01*
X1059415Y1065458D02*
X1069415D01*
X1064415D02*
X1069415D01*
X1064415D02*
Y1070458D01*
Y1060458D02*
Y1070458D01*
Y1060458D02*
Y1065458D01*
X941000Y1052293D02*
X946000D01*
X936000D02*
X946000D01*
X936000D02*
X941000D01*
Y1057293D01*
Y1047293D02*
Y1057293D01*
Y1078750D02*
X946000D01*
X936000D02*
X946000D01*
X936000D02*
X941000D01*
Y1083750D01*
Y1073750D02*
Y1083750D01*
Y1104293D02*
X946000D01*
X936000D02*
X946000D01*
X936000D02*
X941000D01*
Y1109293D01*
Y1099293D02*
Y1109293D01*
X400000Y1233000D02*
X404000D01*
X402000D02*
X404000D01*
X402000Y1231000D02*
Y1233000D01*
Y1231000D02*
Y1235000D01*
Y1233000D02*
Y1235000D01*
X1199000Y1075000D02*
Y1080000D01*
Y1075000D02*
Y1085000D01*
Y1080000D02*
Y1085000D01*
Y1080000D02*
X1204000D01*
X1194000D02*
X1204000D01*
X1224543Y1075000D02*
Y1080000D01*
Y1075000D02*
Y1085000D01*
Y1080000D02*
Y1085000D01*
Y1080000D02*
X1229543D01*
X1219543D02*
X1229543D01*
X872000Y1083000D02*
X877000D01*
X872000D02*
X882000D01*
X877000D02*
X882000D01*
X877000Y1078000D02*
Y1083000D01*
Y1078000D02*
Y1088000D01*
Y1057458D02*
X882000D01*
X872000D02*
X882000D01*
X872000D02*
X877000D01*
Y1062458D01*
Y1052458D02*
Y1062458D01*
X1156000Y1100000D02*
Y1147000D01*
Y1100000D02*
X1225000D01*
X1156000Y1147000D02*
X1225000D01*
Y1100000D02*
Y1147000D01*
X1190000Y1120000D02*
Y1125000D01*
Y1120000D02*
Y1125000D01*
Y1130000D01*
Y1125000D02*
Y1130000D01*
Y1125000D02*
X1195000D01*
X1185000D02*
X1195000D01*
X381000Y1037958D02*
X386000D01*
X381000D02*
X391000D01*
X386000D02*
X391000D01*
X386000D02*
Y1042958D01*
Y1032958D02*
Y1042958D01*
X335000Y1046000D02*
Y1051000D01*
Y1046000D02*
Y1056000D01*
Y1051000D02*
Y1056000D01*
Y1051000D02*
X340000D01*
X330000D02*
X340000D01*
X406793Y1051000D02*
Y1056000D01*
Y1046000D02*
Y1056000D01*
Y1046000D02*
Y1051000D01*
X401793D02*
X406793D01*
X401793D02*
X411793D01*
X335000Y1135000D02*
X340000D01*
X330000D02*
X340000D01*
X330000D02*
X335000D01*
Y1130000D02*
Y1135000D01*
Y1130000D02*
Y1140000D01*
X335000Y1094000D02*
X340000D01*
X330000Y1094000D02*
X340000Y1094000D01*
X330000Y1094000D02*
X335000Y1094000D01*
Y1089000D02*
Y1094000D01*
Y1089000D02*
X335000Y1099000D01*
X471543Y1112000D02*
X476543D01*
X471543D02*
X481543D01*
X476543D02*
X481543D01*
X476543D02*
Y1117000D01*
Y1107000D02*
Y1117000D01*
X447000Y1112000D02*
X452000D01*
X442000D02*
X452000D01*
X442000D02*
X447000D01*
Y1107000D02*
Y1112000D01*
Y1107000D02*
Y1117000D01*
X442000Y1086458D02*
X447000D01*
X442000D02*
X452000D01*
X447000D02*
X452000D01*
X447000D02*
Y1091458D01*
Y1081458D02*
Y1091458D01*
X335000Y1163000D02*
X340000D01*
X330000D02*
X340000D01*
X330000D02*
X335000D01*
Y1158000D02*
Y1163000D01*
Y1158000D02*
Y1168000D01*
X538000Y1060000D02*
Y1080000D01*
Y1070000D02*
Y1080000D01*
X528000Y1070000D02*
X538000D01*
X528000D02*
X548000D01*
X538000D02*
X548000D01*
X514500Y1086250D02*
X514500Y1053500D01*
X514500Y1086250D02*
X561500D01*
X561500Y1086250D01*
Y1053500D02*
Y1086250D01*
X514500Y1053500D02*
X561500D01*
D73*
X1113000Y350000D02*
Y376000D01*
X1101500D02*
X1102500D01*
X1091000Y350000D02*
Y376000D01*
Y350000D02*
X1113000D01*
X1091000Y376000D02*
X1101500D01*
X1102500D02*
X1113000D01*
X1117300Y444500D02*
Y470500D01*
X1127800Y444500D02*
X1128800D01*
X1139300D02*
Y470500D01*
X1117300D02*
X1139300D01*
X1128800Y444500D02*
X1139300D01*
X1117300D02*
X1127800D01*
X1195000Y396543D02*
Y422543D01*
X1205500Y396543D02*
X1206500D01*
X1217000D02*
Y422543D01*
X1195000D02*
X1217000D01*
X1206500Y396543D02*
X1217000D01*
X1195000D02*
X1205500D01*
X1005000Y342000D02*
X1031000D01*
X1005000Y330500D02*
Y331500D01*
Y320000D02*
X1031000D01*
Y342000D01*
X1005000Y320000D02*
Y330500D01*
Y331500D02*
Y342000D01*
X352000Y420793D02*
Y446793D01*
X362500D02*
X363500D01*
X374000Y420793D02*
Y446793D01*
X352000Y420793D02*
X374000D01*
X363500Y446793D02*
X374000D01*
X352000D02*
X362500D01*
X374000Y302500D02*
Y328500D01*
X362500Y302500D02*
X363500D01*
X352000D02*
Y328500D01*
X374000D01*
X352000Y302500D02*
X362500D01*
X363500D02*
X374000D01*
X378000Y303000D02*
Y329000D01*
X388500D02*
X389500D01*
X400000Y303000D02*
Y329000D01*
X378000Y303000D02*
X400000D01*
X389500Y329000D02*
X400000D01*
X378000D02*
X388500D01*
X425543Y303000D02*
Y329000D01*
X414043Y303000D02*
X415043D01*
X403543D02*
Y329000D01*
X425543D01*
X403543Y303000D02*
X414043D01*
X415043D02*
X425543D01*
X1029000Y396000D02*
X1055000D01*
X1029000Y406500D02*
Y407500D01*
Y418000D02*
X1055000D01*
Y396000D02*
Y418000D01*
X1029000Y407500D02*
Y418000D01*
Y396000D02*
Y406500D01*
X1071000Y443000D02*
Y469000D01*
X1081500D02*
X1082500D01*
X1093000Y443000D02*
Y469000D01*
X1071000Y443000D02*
X1093000D01*
X1082500Y469000D02*
X1093000D01*
X1071000D02*
X1081500D01*
X1123000Y430000D02*
X1149000D01*
Y418500D02*
Y419500D01*
X1123000Y408000D02*
X1149000D01*
X1123000D02*
Y430000D01*
X1149000Y408000D02*
Y418500D01*
Y419500D02*
Y430000D01*
X1109000Y355000D02*
Y381000D01*
X1097500Y355000D02*
X1098500D01*
X1087000D02*
Y381000D01*
X1109000D01*
X1087000Y355000D02*
X1097500D01*
X1098500D02*
X1109000D01*
X1123000Y382000D02*
X1149000D01*
X1123000Y392500D02*
Y393500D01*
Y404000D02*
X1149000D01*
Y382000D02*
Y404000D01*
X1123000Y393500D02*
Y404000D01*
Y382000D02*
Y392500D01*
X1091617Y444500D02*
Y470500D01*
X1102117Y444500D02*
X1103117D01*
X1113617D02*
Y470500D01*
X1091617D02*
X1113617D01*
X1103117Y444500D02*
X1113617D01*
X1091617D02*
X1102117D01*
X1087333D02*
Y470500D01*
X1075833D02*
X1076833D01*
X1065333Y444500D02*
Y470500D01*
Y444500D02*
X1087333D01*
X1065333Y470500D02*
X1075833D01*
X1076833D02*
X1087333D01*
X993543Y400708D02*
X1019543D01*
X993543Y411208D02*
Y412207D01*
Y422707D02*
X1019543D01*
Y400708D02*
Y422707D01*
X993543Y412207D02*
Y422707D01*
Y400708D02*
Y411208D01*
X964000Y422707D02*
X990000D01*
Y412207D02*
X990000Y411208D01*
X964000Y400708D02*
X990000D01*
X964000D02*
X964000Y422707D01*
X990000Y400708D02*
X990000Y411208D01*
X990000Y412207D02*
Y422707D01*
X994000Y465293D02*
X1020000D01*
X994000Y475793D02*
Y476793D01*
Y487293D02*
X1020000D01*
Y465293D02*
Y487293D01*
X994000Y476793D02*
Y487293D01*
Y465293D02*
Y475793D01*
X964457Y487293D02*
X990458D01*
Y475793D02*
Y476792D01*
X964457Y465293D02*
X990458D01*
X964457D02*
Y487293D01*
X990458Y465293D02*
Y475793D01*
Y476792D02*
Y487293D01*
X1158628Y271415D02*
Y297415D01*
X1169128Y271415D02*
X1170128Y271415D01*
X1180628Y271415D02*
Y297415D01*
X1158628D02*
X1180628D01*
X1170128Y271415D02*
X1180628Y271415D01*
X1158628D02*
X1169128D01*
X1158585Y302458D02*
Y328457D01*
X1169085Y302458D02*
X1170085D01*
X1180585D02*
Y328457D01*
X1158585D02*
X1180585D01*
X1170085Y302458D02*
X1180585D01*
X1158585D02*
X1169085D01*
X1133043D02*
Y328457D01*
X1143543Y302458D02*
X1144543D01*
X1155043D02*
Y328457D01*
X1133043D02*
X1155043D01*
X1144543Y302458D02*
X1155043D01*
X1133043D02*
X1143543D01*
X1104543Y271415D02*
Y297415D01*
X1115043Y271415D02*
X1116043D01*
X1126543D02*
Y297415D01*
X1104543D02*
X1126543D01*
X1116043Y271415D02*
X1126543D01*
X1104543D02*
X1115043D01*
X1075458Y271415D02*
Y297415D01*
X1063958D02*
X1064958D01*
X1053458Y271415D02*
Y297415D01*
Y271415D02*
X1075458D01*
X1053458Y297415D02*
X1063958D01*
X1064958D02*
X1075458D01*
X1101000Y271415D02*
Y297415D01*
X1089500D02*
X1090500D01*
X1079000Y271415D02*
Y297415D01*
Y271415D02*
X1101000D01*
X1079000Y297415D02*
X1089500D01*
X1090500D02*
X1101000D01*
X1129500Y302458D02*
Y328457D01*
X1118000D02*
X1119000D01*
X1107500Y302458D02*
Y328457D01*
Y302458D02*
X1129500D01*
X1107500Y328457D02*
X1118000D01*
X1119000D02*
X1129500D01*
X1190543Y381000D02*
X1216543D01*
X1190543Y369500D02*
Y370500D01*
Y359000D02*
X1216543D01*
Y381000D01*
X1190543Y359000D02*
Y369500D01*
Y370500D02*
Y381000D01*
X1161000Y359000D02*
X1187000D01*
Y369500D02*
Y370500D01*
X1161000Y381000D02*
X1187000D01*
X1161000Y359000D02*
Y381000D01*
X1187000Y370500D02*
Y381000D01*
Y359000D02*
Y369500D01*
X1029000Y434000D02*
X1055000D01*
X1029000Y422500D02*
Y423500D01*
Y412000D02*
X1055000D01*
Y434000D01*
X1029000Y412000D02*
Y422500D01*
Y423500D02*
Y434000D01*
X1039458Y444500D02*
Y470500D01*
X1049958Y444500D02*
X1050958D01*
X1061458D02*
Y470500D01*
X1039458D02*
X1061458D01*
X1050958Y444500D02*
X1061458D01*
X1039458D02*
X1049958D01*
X1124999Y418189D02*
X1150999D01*
Y428689D02*
Y429689D01*
X1124999Y440189D02*
X1150999D01*
X1124999Y418189D02*
Y440189D01*
X1150999Y429689D02*
Y440189D01*
Y418189D02*
Y428689D01*
X1125000Y392543D02*
X1151000D01*
Y403043D02*
Y404043D01*
X1125000Y414543D02*
X1151000D01*
X1125000Y392543D02*
Y414543D01*
X1151000Y404043D02*
Y414543D01*
Y392543D02*
Y403043D01*
X1125000Y389000D02*
X1151000D01*
X1125000Y377500D02*
Y378500D01*
Y367000D02*
X1151000D01*
Y389000D01*
X1125000Y367000D02*
Y377500D01*
Y378500D02*
Y389000D01*
X539000Y421208D02*
Y447207D01*
X549500Y421208D02*
X550500D01*
X561000D02*
Y447207D01*
X539000D02*
X561000D01*
X550500Y421208D02*
X561000D01*
X539000D02*
X549500D01*
X504000D02*
Y447207D01*
X514500Y421208D02*
X515500D01*
X526000D02*
Y447207D01*
X504000D02*
X526000D01*
X515500Y421208D02*
X526000D01*
X504000D02*
X514500D01*
X593000D02*
Y447207D01*
X603500Y421208D02*
X604500D01*
X615000D02*
Y447207D01*
X593000D02*
X615000D01*
X604500Y421208D02*
X615000D01*
X593000D02*
X603500D01*
X628000D02*
Y447207D01*
X638500Y421208D02*
X639500D01*
X650000D02*
Y447207D01*
X628000D02*
X650000D01*
X639500Y421208D02*
X650000D01*
X628000D02*
X638500D01*
X848000Y354543D02*
X874000D01*
Y365043D02*
Y366043D01*
X848000Y376543D02*
X874000D01*
X848000Y354543D02*
Y376543D01*
X874000Y366043D02*
Y376543D01*
Y354543D02*
Y365043D01*
X1075415Y302458D02*
Y328457D01*
X1063915D02*
X1064915D01*
X1053415Y302458D02*
Y328457D01*
Y302458D02*
X1075415D01*
X1053415Y328457D02*
X1063915D01*
X1064915D02*
X1075415D01*
X928000Y302793D02*
Y313293D01*
Y291293D02*
Y301793D01*
X954000Y291293D02*
Y313293D01*
X928000Y291293D02*
X954000D01*
X928000Y301793D02*
Y302793D01*
Y313293D02*
X954000D01*
X928000Y329250D02*
Y339750D01*
Y317750D02*
Y328250D01*
X954000Y317750D02*
Y339750D01*
X928000Y317750D02*
X954000D01*
X928000Y328250D02*
Y329250D01*
Y339750D02*
X954000D01*
X928000Y354793D02*
Y365293D01*
Y343293D02*
Y353793D01*
X954000Y343293D02*
Y365293D01*
X928000Y343293D02*
X954000D01*
X928000Y353793D02*
Y354793D01*
Y365293D02*
X954000D01*
X384000Y494000D02*
X418000Y494000D01*
X384000Y472000D02*
Y494000D01*
Y472000D02*
X418000Y472000D01*
Y494000D01*
X1199500Y343000D02*
X1210000D01*
X1188000D02*
X1198500D01*
X1188000Y317000D02*
X1210000D01*
X1188000D02*
Y343000D01*
X1198500D02*
X1199500D01*
X1210000Y317000D02*
Y343000D01*
X1225043D02*
X1235543D01*
X1213543D02*
X1224043D01*
X1213543Y317000D02*
X1235543D01*
X1213543D02*
Y343000D01*
X1224043D02*
X1225043D01*
X1235543Y317000D02*
Y343000D01*
X890000Y322000D02*
Y332500D01*
Y333500D02*
Y344000D01*
X864000Y322000D02*
Y344000D01*
X890000D01*
Y332500D02*
Y333500D01*
X864000Y322000D02*
X890000D01*
X864000Y307958D02*
Y318458D01*
Y296458D02*
Y306958D01*
X890000Y296458D02*
Y318458D01*
X864000Y296458D02*
X890000D01*
X864000Y306958D02*
Y307958D01*
Y318458D02*
X890000D01*
X399000Y288458D02*
Y298958D01*
Y276958D02*
Y287458D01*
X373000Y276958D02*
Y298958D01*
Y276958D02*
X399000D01*
Y287458D02*
Y288458D01*
X373000Y298958D02*
X399000D01*
X335500Y314000D02*
X346000D01*
X324000D02*
X334500D01*
X324000Y288000D02*
X346000D01*
X324000D02*
Y314000D01*
X334500D02*
X335500D01*
X346000Y288000D02*
Y314000D01*
X395793Y288000D02*
X406293D01*
X407293D02*
X417793D01*
X395793Y314000D02*
X417793D01*
Y288000D02*
Y314000D01*
X406293Y288000D02*
X407293D01*
X395793D02*
Y314000D01*
X322000Y374000D02*
X322000Y384500D01*
X322000Y396000D02*
X322000Y385500D01*
X348000Y396000D02*
X348000Y374000D01*
X322000Y396000D02*
X348000Y396000D01*
X322000Y384500D02*
Y385500D01*
X322000Y374000D02*
X348000D01*
X322000Y333000D02*
Y343500D01*
Y344500D02*
Y355000D01*
X348000Y333000D02*
Y355000D01*
X322000D02*
X348000D01*
X322000Y343500D02*
Y344500D01*
Y333000D02*
X348000D01*
X489543Y362500D02*
Y373000D01*
Y351000D02*
Y361500D01*
X463543Y351000D02*
Y373000D01*
Y351000D02*
X489543D01*
Y361500D02*
Y362500D01*
X463543Y373000D02*
X489543D01*
X434000Y351000D02*
Y361500D01*
Y362500D02*
Y373000D01*
X460000Y351000D02*
Y373000D01*
X434000D02*
X460000D01*
X434000Y361500D02*
Y362500D01*
Y351000D02*
X460000D01*
Y336958D02*
Y347458D01*
Y325458D02*
Y335957D01*
X434000Y325458D02*
Y347458D01*
Y325458D02*
X460000D01*
Y335957D02*
Y336958D01*
X434000Y347458D02*
X460000D01*
X322000Y402000D02*
Y412500D01*
Y413500D02*
Y424000D01*
X348000Y402000D02*
Y424000D01*
X322000D02*
X348000D01*
X322000Y412500D02*
Y413500D01*
Y402000D02*
X348000D01*
X1113000Y600000D02*
Y626000D01*
X1101500D02*
X1102500D01*
X1091000Y600000D02*
Y626000D01*
Y600000D02*
X1113000D01*
X1091000Y626000D02*
X1101500D01*
X1102500D02*
X1113000D01*
X1117300Y694500D02*
Y720500D01*
X1127800Y694500D02*
X1128800D01*
X1139300D02*
Y720500D01*
X1117300D02*
X1139300D01*
X1128800Y694500D02*
X1139300D01*
X1117300D02*
X1127800D01*
X1195000Y646543D02*
Y672543D01*
X1205500Y646543D02*
X1206500D01*
X1217000D02*
Y672543D01*
X1195000D02*
X1217000D01*
X1206500Y646543D02*
X1217000D01*
X1195000D02*
X1205500D01*
X1005000Y592000D02*
X1031000D01*
X1005000Y580500D02*
Y581500D01*
Y570000D02*
X1031000D01*
Y592000D01*
X1005000Y570000D02*
Y580500D01*
Y581500D02*
Y592000D01*
X352000Y670793D02*
Y696793D01*
X362500D02*
X363500D01*
X374000Y670793D02*
Y696793D01*
X352000Y670793D02*
X374000D01*
X363500Y696793D02*
X374000D01*
X352000D02*
X362500D01*
X374000Y552500D02*
Y578500D01*
X362500Y552500D02*
X363500D01*
X352000D02*
Y578500D01*
X374000D01*
X352000Y552500D02*
X362500D01*
X363500D02*
X374000D01*
X378000Y553000D02*
Y579000D01*
X388500D02*
X389500D01*
X400000Y553000D02*
Y579000D01*
X378000Y553000D02*
X400000D01*
X389500Y579000D02*
X400000D01*
X378000D02*
X388500D01*
X425543Y553000D02*
Y579000D01*
X414043Y553000D02*
X415043D01*
X403543D02*
Y579000D01*
X425543D01*
X403543Y553000D02*
X414043D01*
X415043D02*
X425543D01*
X1029000Y646000D02*
X1055000D01*
X1029000Y656500D02*
Y657500D01*
Y668000D02*
X1055000D01*
Y646000D02*
Y668000D01*
X1029000Y657500D02*
Y668000D01*
Y646000D02*
Y656500D01*
X1071000Y693000D02*
Y719000D01*
X1081500D02*
X1082500D01*
X1093000Y693000D02*
Y719000D01*
X1071000Y693000D02*
X1093000D01*
X1082500Y719000D02*
X1093000D01*
X1071000D02*
X1081500D01*
X1123000Y680000D02*
X1149000D01*
Y668500D02*
Y669500D01*
X1123000Y658000D02*
X1149000D01*
X1123000D02*
Y680000D01*
X1149000Y658000D02*
Y668500D01*
Y669500D02*
Y680000D01*
X1109000Y605000D02*
Y631000D01*
X1097500Y605000D02*
X1098500D01*
X1087000D02*
Y631000D01*
X1109000D01*
X1087000Y605000D02*
X1097500D01*
X1098500D02*
X1109000D01*
X1123000Y632000D02*
X1149000D01*
X1123000Y642500D02*
Y643500D01*
Y654000D02*
X1149000D01*
Y632000D02*
Y654000D01*
X1123000Y643500D02*
Y654000D01*
Y632000D02*
Y642500D01*
X1091617Y694500D02*
Y720500D01*
X1102117Y694500D02*
X1103117D01*
X1113617D02*
Y720500D01*
X1091617D02*
X1113617D01*
X1103117Y694500D02*
X1113617D01*
X1091617D02*
X1102117D01*
X1087333D02*
Y720500D01*
X1075833D02*
X1076833D01*
X1065333Y694500D02*
Y720500D01*
Y694500D02*
X1087333D01*
X1065333Y720500D02*
X1075833D01*
X1076833D02*
X1087333D01*
X993543Y650708D02*
X1019543D01*
X993543Y661208D02*
Y662208D01*
Y672708D02*
X1019543D01*
Y650708D02*
Y672708D01*
X993543Y662208D02*
Y672708D01*
Y650708D02*
Y661208D01*
X964000Y672708D02*
X990000D01*
Y662208D02*
X990000Y661208D01*
X964000Y650708D02*
X990000D01*
X964000D02*
X964000Y672708D01*
X990000Y650708D02*
X990000Y661208D01*
X990000Y662208D02*
Y672708D01*
X994000Y715293D02*
X1020000D01*
X994000Y725793D02*
Y726793D01*
Y737293D02*
X1020000D01*
Y715293D02*
Y737293D01*
X994000Y726793D02*
Y737293D01*
Y715293D02*
Y725793D01*
X964457Y737293D02*
X990458D01*
Y725793D02*
Y726793D01*
X964457Y715293D02*
X990458D01*
X964457D02*
Y737293D01*
X990458Y715293D02*
Y725793D01*
Y726793D02*
Y737293D01*
X1158628Y521415D02*
Y547415D01*
X1169128Y521415D02*
X1170128Y521415D01*
X1180628Y521415D02*
Y547415D01*
X1158628D02*
X1180628D01*
X1170128Y521415D02*
X1180628Y521415D01*
X1158628D02*
X1169128D01*
X1158585Y552458D02*
Y578458D01*
X1169085Y552458D02*
X1170085D01*
X1180585D02*
Y578458D01*
X1158585D02*
X1180585D01*
X1170085Y552458D02*
X1180585D01*
X1158585D02*
X1169085D01*
X1133043D02*
Y578458D01*
X1143543Y552458D02*
X1144543D01*
X1155043D02*
Y578458D01*
X1133043D02*
X1155043D01*
X1144543Y552458D02*
X1155043D01*
X1133043D02*
X1143543D01*
X1104543Y521415D02*
Y547415D01*
X1115043Y521415D02*
X1116043D01*
X1126543D02*
Y547415D01*
X1104543D02*
X1126543D01*
X1116043Y521415D02*
X1126543D01*
X1104543D02*
X1115043D01*
X1075458Y521415D02*
Y547415D01*
X1063958D02*
X1064958D01*
X1053458Y521415D02*
Y547415D01*
Y521415D02*
X1075458D01*
X1053458Y547415D02*
X1063958D01*
X1064958D02*
X1075458D01*
X1101000Y521415D02*
Y547415D01*
X1089500D02*
X1090500D01*
X1079000Y521415D02*
Y547415D01*
Y521415D02*
X1101000D01*
X1079000Y547415D02*
X1089500D01*
X1090500D02*
X1101000D01*
X1129500Y552458D02*
Y578458D01*
X1118000D02*
X1119000D01*
X1107500Y552458D02*
Y578458D01*
Y552458D02*
X1129500D01*
X1107500Y578458D02*
X1118000D01*
X1119000D02*
X1129500D01*
X1190543Y631000D02*
X1216543D01*
X1190543Y619500D02*
Y620500D01*
Y609000D02*
X1216543D01*
Y631000D01*
X1190543Y609000D02*
Y619500D01*
Y620500D02*
Y631000D01*
X1161000Y609000D02*
X1187000D01*
Y619500D02*
Y620500D01*
X1161000Y631000D02*
X1187000D01*
X1161000Y609000D02*
Y631000D01*
X1187000Y620500D02*
Y631000D01*
Y609000D02*
Y619500D01*
X1029000Y684000D02*
X1055000D01*
X1029000Y672500D02*
Y673500D01*
Y662000D02*
X1055000D01*
Y684000D01*
X1029000Y662000D02*
Y672500D01*
Y673500D02*
Y684000D01*
X1039458Y694500D02*
Y720500D01*
X1049958Y694500D02*
X1050958D01*
X1061458D02*
Y720500D01*
X1039458D02*
X1061458D01*
X1050958Y694500D02*
X1061458D01*
X1039458D02*
X1049958D01*
X1124999Y668189D02*
X1150999D01*
Y678689D02*
Y679689D01*
X1124999Y690189D02*
X1150999D01*
X1124999Y668189D02*
Y690189D01*
X1150999Y679689D02*
Y690189D01*
Y668189D02*
Y678689D01*
X1125000Y642543D02*
X1151000D01*
Y653043D02*
Y654043D01*
X1125000Y664543D02*
X1151000D01*
X1125000Y642543D02*
Y664543D01*
X1151000Y654043D02*
Y664543D01*
Y642543D02*
Y653043D01*
X1125000Y639000D02*
X1151000D01*
X1125000Y627500D02*
Y628500D01*
Y617000D02*
X1151000D01*
Y639000D01*
X1125000Y617000D02*
Y627500D01*
Y628500D02*
Y639000D01*
X539000Y671208D02*
Y697208D01*
X549500Y671208D02*
X550500D01*
X561000D02*
Y697208D01*
X539000D02*
X561000D01*
X550500Y671208D02*
X561000D01*
X539000D02*
X549500D01*
X504000D02*
Y697208D01*
X514500Y671208D02*
X515500D01*
X526000D02*
Y697208D01*
X504000D02*
X526000D01*
X515500Y671208D02*
X526000D01*
X504000D02*
X514500D01*
X593000D02*
Y697208D01*
X603500Y671208D02*
X604500D01*
X615000D02*
Y697208D01*
X593000D02*
X615000D01*
X604500Y671208D02*
X615000D01*
X593000D02*
X603500D01*
X628000D02*
Y697208D01*
X638500Y671208D02*
X639500D01*
X650000D02*
Y697208D01*
X628000D02*
X650000D01*
X639500Y671208D02*
X650000D01*
X628000D02*
X638500D01*
X848000Y604543D02*
X874000D01*
Y615043D02*
Y616043D01*
X848000Y626543D02*
X874000D01*
X848000Y604543D02*
Y626543D01*
X874000Y616043D02*
Y626543D01*
Y604543D02*
Y615043D01*
X1075415Y552458D02*
Y578458D01*
X1063915D02*
X1064915D01*
X1053415Y552458D02*
Y578458D01*
Y552458D02*
X1075415D01*
X1053415Y578458D02*
X1063915D01*
X1064915D02*
X1075415D01*
X928000Y552793D02*
Y563293D01*
Y541293D02*
Y551793D01*
X954000Y541293D02*
Y563293D01*
X928000Y541293D02*
X954000D01*
X928000Y551793D02*
Y552793D01*
Y563293D02*
X954000D01*
X928000Y579250D02*
Y589750D01*
Y567750D02*
Y578250D01*
X954000Y567750D02*
Y589750D01*
X928000Y567750D02*
X954000D01*
X928000Y578250D02*
Y579250D01*
Y589750D02*
X954000D01*
X928000Y604793D02*
Y615293D01*
Y593293D02*
Y603793D01*
X954000Y593293D02*
Y615293D01*
X928000Y593293D02*
X954000D01*
X928000Y603793D02*
Y604793D01*
Y615293D02*
X954000D01*
X384000Y744000D02*
X418000Y744000D01*
X384000Y722000D02*
Y744000D01*
Y722000D02*
X418000Y722000D01*
Y744000D01*
X1199500Y593000D02*
X1210000D01*
X1188000D02*
X1198500D01*
X1188000Y567000D02*
X1210000D01*
X1188000D02*
Y593000D01*
X1198500D02*
X1199500D01*
X1210000Y567000D02*
Y593000D01*
X1225043D02*
X1235543D01*
X1213543D02*
X1224043D01*
X1213543Y567000D02*
X1235543D01*
X1213543D02*
Y593000D01*
X1224043D02*
X1225043D01*
X1235543Y567000D02*
Y593000D01*
X890000Y572000D02*
Y582500D01*
Y583500D02*
Y594000D01*
X864000Y572000D02*
Y594000D01*
X890000D01*
Y582500D02*
Y583500D01*
X864000Y572000D02*
X890000D01*
X864000Y557958D02*
Y568458D01*
Y546458D02*
Y556958D01*
X890000Y546458D02*
Y568458D01*
X864000Y546458D02*
X890000D01*
X864000Y556958D02*
Y557958D01*
Y568458D02*
X890000D01*
X399000Y538458D02*
Y548958D01*
Y526958D02*
Y537458D01*
X373000Y526958D02*
Y548958D01*
Y526958D02*
X399000D01*
Y537458D02*
Y538458D01*
X373000Y548958D02*
X399000D01*
X335500Y564000D02*
X346000D01*
X324000D02*
X334500D01*
X324000Y538000D02*
X346000D01*
X324000D02*
Y564000D01*
X334500D02*
X335500D01*
X346000Y538000D02*
Y564000D01*
X395793Y538000D02*
X406293D01*
X407293D02*
X417793D01*
X395793Y564000D02*
X417793D01*
Y538000D02*
Y564000D01*
X406293Y538000D02*
X407293D01*
X395793D02*
Y564000D01*
X322000Y624000D02*
X322000Y634500D01*
X322000Y646000D02*
X322000Y635500D01*
X348000Y646000D02*
X348000Y624000D01*
X322000Y646000D02*
X348000Y646000D01*
X322000Y634500D02*
Y635500D01*
X322000Y624000D02*
X348000D01*
X322000Y583000D02*
Y593500D01*
Y594500D02*
Y605000D01*
X348000Y583000D02*
Y605000D01*
X322000D02*
X348000D01*
X322000Y593500D02*
Y594500D01*
Y583000D02*
X348000D01*
X489543Y612500D02*
Y623000D01*
Y601000D02*
Y611500D01*
X463543Y601000D02*
Y623000D01*
Y601000D02*
X489543D01*
Y611500D02*
Y612500D01*
X463543Y623000D02*
X489543D01*
X434000Y601000D02*
Y611500D01*
Y612500D02*
Y623000D01*
X460000Y601000D02*
Y623000D01*
X434000D02*
X460000D01*
X434000Y611500D02*
Y612500D01*
Y601000D02*
X460000D01*
Y586958D02*
Y597458D01*
Y575458D02*
Y585958D01*
X434000Y575458D02*
Y597458D01*
Y575458D02*
X460000D01*
Y585958D02*
Y586958D01*
X434000Y597458D02*
X460000D01*
X322000Y652000D02*
Y662500D01*
Y663500D02*
Y674000D01*
X348000Y652000D02*
Y674000D01*
X322000D02*
X348000D01*
X322000Y662500D02*
Y663500D01*
Y652000D02*
X348000D01*
X1113000Y850000D02*
Y876000D01*
X1101500D02*
X1102500D01*
X1091000Y850000D02*
Y876000D01*
Y850000D02*
X1113000D01*
X1091000Y876000D02*
X1101500D01*
X1102500D02*
X1113000D01*
X1117300Y944500D02*
Y970500D01*
X1127800Y944500D02*
X1128800D01*
X1139300D02*
Y970500D01*
X1117300D02*
X1139300D01*
X1128800Y944500D02*
X1139300D01*
X1117300D02*
X1127800D01*
X1195000Y896543D02*
Y922543D01*
X1205500Y896543D02*
X1206500D01*
X1217000D02*
Y922543D01*
X1195000D02*
X1217000D01*
X1206500Y896543D02*
X1217000D01*
X1195000D02*
X1205500D01*
X1005000Y842000D02*
X1031000D01*
X1005000Y830500D02*
Y831500D01*
Y820000D02*
X1031000D01*
Y842000D01*
X1005000Y820000D02*
Y830500D01*
Y831500D02*
Y842000D01*
X352000Y920793D02*
Y946793D01*
X362500D02*
X363500D01*
X374000Y920793D02*
Y946793D01*
X352000Y920793D02*
X374000D01*
X363500Y946793D02*
X374000D01*
X352000D02*
X362500D01*
X374000Y802500D02*
Y828500D01*
X362500Y802500D02*
X363500D01*
X352000D02*
Y828500D01*
X374000D01*
X352000Y802500D02*
X362500D01*
X363500D02*
X374000D01*
X378000Y803000D02*
Y829000D01*
X388500D02*
X389500D01*
X400000Y803000D02*
Y829000D01*
X378000Y803000D02*
X400000D01*
X389500Y829000D02*
X400000D01*
X378000D02*
X388500D01*
X425543Y803000D02*
Y829000D01*
X414043Y803000D02*
X415043D01*
X403543D02*
Y829000D01*
X425543D01*
X403543Y803000D02*
X414043D01*
X415043D02*
X425543D01*
X1029000Y896000D02*
X1055000D01*
X1029000Y906500D02*
Y907500D01*
Y918000D02*
X1055000D01*
Y896000D02*
Y918000D01*
X1029000Y907500D02*
Y918000D01*
Y896000D02*
Y906500D01*
X1071000Y943000D02*
Y969000D01*
X1081500D02*
X1082500D01*
X1093000Y943000D02*
Y969000D01*
X1071000Y943000D02*
X1093000D01*
X1082500Y969000D02*
X1093000D01*
X1071000D02*
X1081500D01*
X1123000Y930000D02*
X1149000D01*
Y918500D02*
Y919500D01*
X1123000Y908000D02*
X1149000D01*
X1123000D02*
Y930000D01*
X1149000Y908000D02*
Y918500D01*
Y919500D02*
Y930000D01*
X1109000Y855000D02*
Y881000D01*
X1097500Y855000D02*
X1098500D01*
X1087000D02*
Y881000D01*
X1109000D01*
X1087000Y855000D02*
X1097500D01*
X1098500D02*
X1109000D01*
X1123000Y882000D02*
X1149000D01*
X1123000Y892500D02*
Y893500D01*
Y904000D02*
X1149000D01*
Y882000D02*
Y904000D01*
X1123000Y893500D02*
Y904000D01*
Y882000D02*
Y892500D01*
X1091617Y944500D02*
Y970500D01*
X1102117Y944500D02*
X1103117D01*
X1113617D02*
Y970500D01*
X1091617D02*
X1113617D01*
X1103117Y944500D02*
X1113617D01*
X1091617D02*
X1102117D01*
X1087333D02*
Y970500D01*
X1075833D02*
X1076833D01*
X1065333Y944500D02*
Y970500D01*
Y944500D02*
X1087333D01*
X1065333Y970500D02*
X1075833D01*
X1076833D02*
X1087333D01*
X993543Y900708D02*
X1019543D01*
X993543Y911208D02*
Y912208D01*
Y922708D02*
X1019543D01*
Y900708D02*
Y922708D01*
X993543Y912208D02*
Y922708D01*
Y900708D02*
Y911208D01*
X964000Y922708D02*
X990000D01*
Y912208D02*
X990000Y911208D01*
X964000Y900708D02*
X990000D01*
X964000D02*
X964000Y922708D01*
X990000Y900708D02*
X990000Y911208D01*
X990000Y912208D02*
Y922708D01*
X994000Y965293D02*
X1020000D01*
X994000Y975793D02*
Y976793D01*
Y987293D02*
X1020000D01*
Y965293D02*
Y987293D01*
X994000Y976793D02*
Y987293D01*
Y965293D02*
Y975793D01*
X964457Y987293D02*
X990458D01*
Y975793D02*
Y976793D01*
X964457Y965293D02*
X990458D01*
X964457D02*
Y987293D01*
X990458Y965293D02*
Y975793D01*
Y976793D02*
Y987293D01*
X1158628Y771415D02*
Y797415D01*
X1169128Y771415D02*
X1170128Y771415D01*
X1180628Y771415D02*
Y797415D01*
X1158628D02*
X1180628D01*
X1170128Y771415D02*
X1180628Y771415D01*
X1158628D02*
X1169128D01*
X1158585Y802458D02*
Y828458D01*
X1169085Y802458D02*
X1170085D01*
X1180585D02*
Y828458D01*
X1158585D02*
X1180585D01*
X1170085Y802458D02*
X1180585D01*
X1158585D02*
X1169085D01*
X1133043D02*
Y828458D01*
X1143543Y802458D02*
X1144543D01*
X1155043D02*
Y828458D01*
X1133043D02*
X1155043D01*
X1144543Y802458D02*
X1155043D01*
X1133043D02*
X1143543D01*
X1104543Y771415D02*
Y797415D01*
X1115043Y771415D02*
X1116043D01*
X1126543D02*
Y797415D01*
X1104543D02*
X1126543D01*
X1116043Y771415D02*
X1126543D01*
X1104543D02*
X1115043D01*
X1075458Y771415D02*
Y797415D01*
X1063958D02*
X1064958D01*
X1053458Y771415D02*
Y797415D01*
Y771415D02*
X1075458D01*
X1053458Y797415D02*
X1063958D01*
X1064958D02*
X1075458D01*
X1101000Y771415D02*
Y797415D01*
X1089500D02*
X1090500D01*
X1079000Y771415D02*
Y797415D01*
Y771415D02*
X1101000D01*
X1079000Y797415D02*
X1089500D01*
X1090500D02*
X1101000D01*
X1129500Y802458D02*
Y828458D01*
X1118000D02*
X1119000D01*
X1107500Y802458D02*
Y828458D01*
Y802458D02*
X1129500D01*
X1107500Y828458D02*
X1118000D01*
X1119000D02*
X1129500D01*
X1190543Y881000D02*
X1216543D01*
X1190543Y869500D02*
Y870500D01*
Y859000D02*
X1216543D01*
Y881000D01*
X1190543Y859000D02*
Y869500D01*
Y870500D02*
Y881000D01*
X1161000Y859000D02*
X1187000D01*
Y869500D02*
Y870500D01*
X1161000Y881000D02*
X1187000D01*
X1161000Y859000D02*
Y881000D01*
X1187000Y870500D02*
Y881000D01*
Y859000D02*
Y869500D01*
X1029000Y934000D02*
X1055000D01*
X1029000Y922500D02*
Y923500D01*
Y912000D02*
X1055000D01*
Y934000D01*
X1029000Y912000D02*
Y922500D01*
Y923500D02*
Y934000D01*
X1039458Y944500D02*
Y970500D01*
X1049958Y944500D02*
X1050958D01*
X1061458D02*
Y970500D01*
X1039458D02*
X1061458D01*
X1050958Y944500D02*
X1061458D01*
X1039458D02*
X1049958D01*
X1124999Y918189D02*
X1150999D01*
Y928689D02*
Y929689D01*
X1124999Y940189D02*
X1150999D01*
X1124999Y918189D02*
Y940189D01*
X1150999Y929689D02*
Y940189D01*
Y918189D02*
Y928689D01*
X1125000Y892543D02*
X1151000D01*
Y903043D02*
Y904043D01*
X1125000Y914543D02*
X1151000D01*
X1125000Y892543D02*
Y914543D01*
X1151000Y904043D02*
Y914543D01*
Y892543D02*
Y903043D01*
X1125000Y889000D02*
X1151000D01*
X1125000Y877500D02*
Y878500D01*
Y867000D02*
X1151000D01*
Y889000D01*
X1125000Y867000D02*
Y877500D01*
Y878500D02*
Y889000D01*
X539000Y921208D02*
Y947208D01*
X549500Y921208D02*
X550500D01*
X561000D02*
Y947208D01*
X539000D02*
X561000D01*
X550500Y921208D02*
X561000D01*
X539000D02*
X549500D01*
X504000D02*
Y947208D01*
X514500Y921208D02*
X515500D01*
X526000D02*
Y947208D01*
X504000D02*
X526000D01*
X515500Y921208D02*
X526000D01*
X504000D02*
X514500D01*
X593000D02*
Y947208D01*
X603500Y921208D02*
X604500D01*
X615000D02*
Y947208D01*
X593000D02*
X615000D01*
X604500Y921208D02*
X615000D01*
X593000D02*
X603500D01*
X628000D02*
Y947208D01*
X638500Y921208D02*
X639500D01*
X650000D02*
Y947208D01*
X628000D02*
X650000D01*
X639500Y921208D02*
X650000D01*
X628000D02*
X638500D01*
X848000Y854543D02*
X874000D01*
Y865043D02*
Y866043D01*
X848000Y876543D02*
X874000D01*
X848000Y854543D02*
Y876543D01*
X874000Y866043D02*
Y876543D01*
Y854543D02*
Y865043D01*
X1075415Y802458D02*
Y828458D01*
X1063915D02*
X1064915D01*
X1053415Y802458D02*
Y828458D01*
Y802458D02*
X1075415D01*
X1053415Y828458D02*
X1063915D01*
X1064915D02*
X1075415D01*
X928000Y802793D02*
Y813293D01*
Y791293D02*
Y801793D01*
X954000Y791293D02*
Y813293D01*
X928000Y791293D02*
X954000D01*
X928000Y801793D02*
Y802793D01*
Y813293D02*
X954000D01*
X928000Y829250D02*
Y839750D01*
Y817750D02*
Y828250D01*
X954000Y817750D02*
Y839750D01*
X928000Y817750D02*
X954000D01*
X928000Y828250D02*
Y829250D01*
Y839750D02*
X954000D01*
X928000Y854793D02*
Y865293D01*
Y843293D02*
Y853793D01*
X954000Y843293D02*
Y865293D01*
X928000Y843293D02*
X954000D01*
X928000Y853793D02*
Y854793D01*
Y865293D02*
X954000D01*
X384000Y994000D02*
X418000Y994000D01*
X384000Y972000D02*
Y994000D01*
Y972000D02*
X418000Y972000D01*
Y994000D01*
X1199500Y843000D02*
X1210000D01*
X1188000D02*
X1198500D01*
X1188000Y817000D02*
X1210000D01*
X1188000D02*
Y843000D01*
X1198500D02*
X1199500D01*
X1210000Y817000D02*
Y843000D01*
X1225043D02*
X1235543D01*
X1213543D02*
X1224043D01*
X1213543Y817000D02*
X1235543D01*
X1213543D02*
Y843000D01*
X1224043D02*
X1225043D01*
X1235543Y817000D02*
Y843000D01*
X890000Y822000D02*
Y832500D01*
Y833500D02*
Y844000D01*
X864000Y822000D02*
Y844000D01*
X890000D01*
Y832500D02*
Y833500D01*
X864000Y822000D02*
X890000D01*
X864000Y807958D02*
Y818458D01*
Y796458D02*
Y806958D01*
X890000Y796458D02*
Y818458D01*
X864000Y796458D02*
X890000D01*
X864000Y806958D02*
Y807958D01*
Y818458D02*
X890000D01*
X399000Y788458D02*
Y798958D01*
Y776958D02*
Y787458D01*
X373000Y776958D02*
Y798958D01*
Y776958D02*
X399000D01*
Y787458D02*
Y788458D01*
X373000Y798958D02*
X399000D01*
X335500Y814000D02*
X346000D01*
X324000D02*
X334500D01*
X324000Y788000D02*
X346000D01*
X324000D02*
Y814000D01*
X334500D02*
X335500D01*
X346000Y788000D02*
Y814000D01*
X395793Y788000D02*
X406293D01*
X407293D02*
X417793D01*
X395793Y814000D02*
X417793D01*
Y788000D02*
Y814000D01*
X406293Y788000D02*
X407293D01*
X395793D02*
Y814000D01*
X322000Y874000D02*
X322000Y884500D01*
X322000Y896000D02*
X322000Y885500D01*
X348000Y896000D02*
X348000Y874000D01*
X322000Y896000D02*
X348000Y896000D01*
X322000Y884500D02*
Y885500D01*
X322000Y874000D02*
X348000D01*
X322000Y833000D02*
Y843500D01*
Y844500D02*
Y855000D01*
X348000Y833000D02*
Y855000D01*
X322000D02*
X348000D01*
X322000Y843500D02*
Y844500D01*
Y833000D02*
X348000D01*
X489543Y862500D02*
Y873000D01*
Y851000D02*
Y861500D01*
X463543Y851000D02*
Y873000D01*
Y851000D02*
X489543D01*
Y861500D02*
Y862500D01*
X463543Y873000D02*
X489543D01*
X434000Y851000D02*
Y861500D01*
Y862500D02*
Y873000D01*
X460000Y851000D02*
Y873000D01*
X434000D02*
X460000D01*
X434000Y861500D02*
Y862500D01*
Y851000D02*
X460000D01*
Y836958D02*
Y847458D01*
Y825458D02*
Y835958D01*
X434000Y825458D02*
Y847458D01*
Y825458D02*
X460000D01*
Y835958D02*
Y836958D01*
X434000Y847458D02*
X460000D01*
X322000Y902000D02*
Y912500D01*
Y913500D02*
Y924000D01*
X348000Y902000D02*
Y924000D01*
X322000D02*
X348000D01*
X322000Y912500D02*
Y913500D01*
Y902000D02*
X348000D01*
X1113000Y1100000D02*
Y1126000D01*
X1101500D02*
X1102500D01*
X1091000Y1100000D02*
Y1126000D01*
Y1100000D02*
X1113000D01*
X1091000Y1126000D02*
X1101500D01*
X1102500D02*
X1113000D01*
X1117300Y1194500D02*
Y1220500D01*
X1127800Y1194500D02*
X1128800D01*
X1139300D02*
Y1220500D01*
X1117300D02*
X1139300D01*
X1128800Y1194500D02*
X1139300D01*
X1117300D02*
X1127800D01*
X1195000Y1146543D02*
Y1172543D01*
X1205500Y1146543D02*
X1206500D01*
X1217000D02*
Y1172543D01*
X1195000D02*
X1217000D01*
X1206500Y1146543D02*
X1217000D01*
X1195000D02*
X1205500D01*
X1005000Y1092000D02*
X1031000D01*
X1005000Y1080500D02*
Y1081500D01*
Y1070000D02*
X1031000D01*
Y1092000D01*
X1005000Y1070000D02*
Y1080500D01*
Y1081500D02*
Y1092000D01*
X352000Y1170793D02*
Y1196793D01*
X362500D02*
X363500D01*
X374000Y1170793D02*
Y1196793D01*
X352000Y1170793D02*
X374000D01*
X363500Y1196793D02*
X374000D01*
X352000D02*
X362500D01*
X374000Y1052500D02*
Y1078500D01*
X362500Y1052500D02*
X363500D01*
X352000D02*
Y1078500D01*
X374000D01*
X352000Y1052500D02*
X362500D01*
X363500D02*
X374000D01*
X378000Y1053000D02*
Y1079000D01*
X388500D02*
X389500D01*
X400000Y1053000D02*
Y1079000D01*
X378000Y1053000D02*
X400000D01*
X389500Y1079000D02*
X400000D01*
X378000D02*
X388500D01*
X425543Y1053000D02*
Y1079000D01*
X414043Y1053000D02*
X415043D01*
X403543D02*
Y1079000D01*
X425543D01*
X403543Y1053000D02*
X414043D01*
X415043D02*
X425543D01*
X1029000Y1146000D02*
X1055000D01*
X1029000Y1156500D02*
Y1157500D01*
Y1168000D02*
X1055000D01*
Y1146000D02*
Y1168000D01*
X1029000Y1157500D02*
Y1168000D01*
Y1146000D02*
Y1156500D01*
X1071000Y1193000D02*
Y1219000D01*
X1081500D02*
X1082500D01*
X1093000Y1193000D02*
Y1219000D01*
X1071000Y1193000D02*
X1093000D01*
X1082500Y1219000D02*
X1093000D01*
X1071000D02*
X1081500D01*
X1123000Y1180000D02*
X1149000D01*
Y1168500D02*
Y1169500D01*
X1123000Y1158000D02*
X1149000D01*
X1123000D02*
Y1180000D01*
X1149000Y1158000D02*
Y1168500D01*
Y1169500D02*
Y1180000D01*
X1109000Y1105000D02*
Y1131000D01*
X1097500Y1105000D02*
X1098500D01*
X1087000D02*
Y1131000D01*
X1109000D01*
X1087000Y1105000D02*
X1097500D01*
X1098500D02*
X1109000D01*
X1123000Y1132000D02*
X1149000D01*
X1123000Y1142500D02*
Y1143500D01*
Y1154000D02*
X1149000D01*
Y1132000D02*
Y1154000D01*
X1123000Y1143500D02*
Y1154000D01*
Y1132000D02*
Y1142500D01*
X1091617Y1194500D02*
Y1220500D01*
X1102117Y1194500D02*
X1103117D01*
X1113617D02*
Y1220500D01*
X1091617D02*
X1113617D01*
X1103117Y1194500D02*
X1113617D01*
X1091617D02*
X1102117D01*
X1087333D02*
Y1220500D01*
X1075833D02*
X1076833D01*
X1065333Y1194500D02*
Y1220500D01*
Y1194500D02*
X1087333D01*
X1065333Y1220500D02*
X1075833D01*
X1076833D02*
X1087333D01*
X993543Y1150708D02*
X1019543D01*
X993543Y1161208D02*
Y1162208D01*
Y1172708D02*
X1019543D01*
Y1150708D02*
Y1172708D01*
X993543Y1162208D02*
Y1172708D01*
Y1150708D02*
Y1161208D01*
X964000Y1172708D02*
X990000D01*
Y1162208D02*
X990000Y1161208D01*
X964000Y1150708D02*
X990000D01*
X964000D02*
X964000Y1172708D01*
X990000Y1150708D02*
X990000Y1161208D01*
X990000Y1162208D02*
Y1172708D01*
X994000Y1215293D02*
X1020000D01*
X994000Y1225793D02*
Y1226793D01*
Y1237293D02*
X1020000D01*
Y1215293D02*
Y1237293D01*
X994000Y1226793D02*
Y1237293D01*
Y1215293D02*
Y1225793D01*
X964457Y1237293D02*
X990458D01*
Y1225793D02*
Y1226793D01*
X964457Y1215293D02*
X990458D01*
X964457D02*
Y1237293D01*
X990458Y1215293D02*
Y1225793D01*
Y1226793D02*
Y1237293D01*
X1158628Y1021415D02*
Y1047415D01*
X1169128Y1021415D02*
X1170128Y1021415D01*
X1180628Y1021415D02*
Y1047415D01*
X1158628D02*
X1180628D01*
X1170128Y1021415D02*
X1180628Y1021415D01*
X1158628D02*
X1169128D01*
X1158585Y1052458D02*
Y1078458D01*
X1169085Y1052458D02*
X1170085D01*
X1180585D02*
Y1078458D01*
X1158585D02*
X1180585D01*
X1170085Y1052458D02*
X1180585D01*
X1158585D02*
X1169085D01*
X1133043D02*
Y1078458D01*
X1143543Y1052458D02*
X1144543D01*
X1155043D02*
Y1078458D01*
X1133043D02*
X1155043D01*
X1144543Y1052458D02*
X1155043D01*
X1133043D02*
X1143543D01*
X1104543Y1021415D02*
Y1047415D01*
X1115043Y1021415D02*
X1116043D01*
X1126543D02*
Y1047415D01*
X1104543D02*
X1126543D01*
X1116043Y1021415D02*
X1126543D01*
X1104543D02*
X1115043D01*
X1075458Y1021415D02*
Y1047415D01*
X1063958D02*
X1064958D01*
X1053458Y1021415D02*
Y1047415D01*
Y1021415D02*
X1075458D01*
X1053458Y1047415D02*
X1063958D01*
X1064958D02*
X1075458D01*
X1101000Y1021415D02*
Y1047415D01*
X1089500D02*
X1090500D01*
X1079000Y1021415D02*
Y1047415D01*
Y1021415D02*
X1101000D01*
X1079000Y1047415D02*
X1089500D01*
X1090500D02*
X1101000D01*
X1129500Y1052458D02*
Y1078458D01*
X1118000D02*
X1119000D01*
X1107500Y1052458D02*
Y1078458D01*
Y1052458D02*
X1129500D01*
X1107500Y1078458D02*
X1118000D01*
X1119000D02*
X1129500D01*
X1190543Y1131000D02*
X1216543D01*
X1190543Y1119500D02*
Y1120500D01*
Y1109000D02*
X1216543D01*
Y1131000D01*
X1190543Y1109000D02*
Y1119500D01*
Y1120500D02*
Y1131000D01*
X1161000Y1109000D02*
X1187000D01*
Y1119500D02*
Y1120500D01*
X1161000Y1131000D02*
X1187000D01*
X1161000Y1109000D02*
Y1131000D01*
X1187000Y1120500D02*
Y1131000D01*
Y1109000D02*
Y1119500D01*
X1029000Y1184000D02*
X1055000D01*
X1029000Y1172500D02*
Y1173500D01*
Y1162000D02*
X1055000D01*
Y1184000D01*
X1029000Y1162000D02*
Y1172500D01*
Y1173500D02*
Y1184000D01*
X1039458Y1194500D02*
Y1220500D01*
X1049958Y1194500D02*
X1050958D01*
X1061458D02*
Y1220500D01*
X1039458D02*
X1061458D01*
X1050958Y1194500D02*
X1061458D01*
X1039458D02*
X1049958D01*
X1124999Y1168189D02*
X1150999D01*
Y1178689D02*
Y1179689D01*
X1124999Y1190189D02*
X1150999D01*
X1124999Y1168189D02*
Y1190189D01*
X1150999Y1179689D02*
Y1190189D01*
Y1168189D02*
Y1178689D01*
X1125000Y1142543D02*
X1151000D01*
Y1153043D02*
Y1154043D01*
X1125000Y1164543D02*
X1151000D01*
X1125000Y1142543D02*
Y1164543D01*
X1151000Y1154043D02*
Y1164543D01*
Y1142543D02*
Y1153043D01*
X1125000Y1139000D02*
X1151000D01*
X1125000Y1127500D02*
Y1128500D01*
Y1117000D02*
X1151000D01*
Y1139000D01*
X1125000Y1117000D02*
Y1127500D01*
Y1128500D02*
Y1139000D01*
X539000Y1171208D02*
Y1197208D01*
X549500Y1171208D02*
X550500D01*
X561000D02*
Y1197208D01*
X539000D02*
X561000D01*
X550500Y1171208D02*
X561000D01*
X539000D02*
X549500D01*
X504000D02*
Y1197208D01*
X514500Y1171208D02*
X515500D01*
X526000D02*
Y1197208D01*
X504000D02*
X526000D01*
X515500Y1171208D02*
X526000D01*
X504000D02*
X514500D01*
X593000D02*
Y1197208D01*
X603500Y1171208D02*
X604500D01*
X615000D02*
Y1197208D01*
X593000D02*
X615000D01*
X604500Y1171208D02*
X615000D01*
X593000D02*
X603500D01*
X628000D02*
Y1197208D01*
X638500Y1171208D02*
X639500D01*
X650000D02*
Y1197208D01*
X628000D02*
X650000D01*
X639500Y1171208D02*
X650000D01*
X628000D02*
X638500D01*
X848000Y1104543D02*
X874000D01*
Y1115043D02*
Y1116043D01*
X848000Y1126543D02*
X874000D01*
X848000Y1104543D02*
Y1126543D01*
X874000Y1116043D02*
Y1126543D01*
Y1104543D02*
Y1115043D01*
X1075415Y1052458D02*
Y1078458D01*
X1063915D02*
X1064915D01*
X1053415Y1052458D02*
Y1078458D01*
Y1052458D02*
X1075415D01*
X1053415Y1078458D02*
X1063915D01*
X1064915D02*
X1075415D01*
X928000Y1052793D02*
Y1063293D01*
Y1041293D02*
Y1051793D01*
X954000Y1041293D02*
Y1063293D01*
X928000Y1041293D02*
X954000D01*
X928000Y1051793D02*
Y1052793D01*
Y1063293D02*
X954000D01*
X928000Y1079250D02*
Y1089750D01*
Y1067750D02*
Y1078250D01*
X954000Y1067750D02*
Y1089750D01*
X928000Y1067750D02*
X954000D01*
X928000Y1078250D02*
Y1079250D01*
Y1089750D02*
X954000D01*
X928000Y1104793D02*
Y1115293D01*
Y1093293D02*
Y1103793D01*
X954000Y1093293D02*
Y1115293D01*
X928000Y1093293D02*
X954000D01*
X928000Y1103793D02*
Y1104793D01*
Y1115293D02*
X954000D01*
X384000Y1244000D02*
X418000Y1244000D01*
X384000Y1222000D02*
Y1244000D01*
Y1222000D02*
X418000Y1222000D01*
Y1244000D01*
X1199500Y1093000D02*
X1210000D01*
X1188000D02*
X1198500D01*
X1188000Y1067000D02*
X1210000D01*
X1188000D02*
Y1093000D01*
X1198500D02*
X1199500D01*
X1210000Y1067000D02*
Y1093000D01*
X1225043D02*
X1235543D01*
X1213543D02*
X1224043D01*
X1213543Y1067000D02*
X1235543D01*
X1213543D02*
Y1093000D01*
X1224043D02*
X1225043D01*
X1235543Y1067000D02*
Y1093000D01*
X890000Y1072000D02*
Y1082500D01*
Y1083500D02*
Y1094000D01*
X864000Y1072000D02*
Y1094000D01*
X890000D01*
Y1082500D02*
Y1083500D01*
X864000Y1072000D02*
X890000D01*
X864000Y1057958D02*
Y1068458D01*
Y1046458D02*
Y1056958D01*
X890000Y1046458D02*
Y1068458D01*
X864000Y1046458D02*
X890000D01*
X864000Y1056958D02*
Y1057958D01*
Y1068458D02*
X890000D01*
X399000Y1038458D02*
Y1048958D01*
Y1026958D02*
Y1037458D01*
X373000Y1026958D02*
Y1048958D01*
Y1026958D02*
X399000D01*
Y1037458D02*
Y1038458D01*
X373000Y1048958D02*
X399000D01*
X335500Y1064000D02*
X346000D01*
X324000D02*
X334500D01*
X324000Y1038000D02*
X346000D01*
X324000D02*
Y1064000D01*
X334500D02*
X335500D01*
X346000Y1038000D02*
Y1064000D01*
X395793Y1038000D02*
X406293D01*
X407293D02*
X417793D01*
X395793Y1064000D02*
X417793D01*
Y1038000D02*
Y1064000D01*
X406293Y1038000D02*
X407293D01*
X395793D02*
Y1064000D01*
X322000Y1124000D02*
X322000Y1134500D01*
X322000Y1146000D02*
X322000Y1135500D01*
X348000Y1146000D02*
X348000Y1124000D01*
X322000Y1146000D02*
X348000Y1146000D01*
X322000Y1134500D02*
Y1135500D01*
X322000Y1124000D02*
X348000D01*
X322000Y1083000D02*
Y1093500D01*
Y1094500D02*
Y1105000D01*
X348000Y1083000D02*
Y1105000D01*
X322000D02*
X348000D01*
X322000Y1093500D02*
Y1094500D01*
Y1083000D02*
X348000D01*
X489543Y1112500D02*
Y1123000D01*
Y1101000D02*
Y1111500D01*
X463543Y1101000D02*
Y1123000D01*
Y1101000D02*
X489543D01*
Y1111500D02*
Y1112500D01*
X463543Y1123000D02*
X489543D01*
X434000Y1101000D02*
Y1111500D01*
Y1112500D02*
Y1123000D01*
X460000Y1101000D02*
Y1123000D01*
X434000D02*
X460000D01*
X434000Y1111500D02*
Y1112500D01*
Y1101000D02*
X460000D01*
Y1086958D02*
Y1097458D01*
Y1075458D02*
Y1085958D01*
X434000Y1075458D02*
Y1097458D01*
Y1075458D02*
X460000D01*
Y1085958D02*
Y1086958D01*
X434000Y1097458D02*
X460000D01*
X322000Y1152000D02*
Y1162500D01*
Y1163500D02*
Y1174000D01*
X348000Y1152000D02*
Y1174000D01*
X322000D02*
X348000D01*
X322000Y1162500D02*
Y1163500D01*
Y1152000D02*
X348000D01*
M02*
