G04*
G04 #@! TF.GenerationSoftware,Altium Limited,Altium Designer,21.0.9 (235)*
G04*
G04 Layer_Color=65535*
%FSLAX44Y44*%
%MOMM*%
G71*
G04*
G04 #@! TF.SameCoordinates,5DD7C229-C87D-40E0-AB69-EEC5175B06D6*
G04*
G04*
G04 #@! TF.FilePolarity,Positive*
G04*
G01*
G75*
%ADD10C,0.2540*%
%ADD43C,0.1270*%
%ADD44C,0.2000*%
%ADD68C,0.2500*%
%ADD69C,0.1524*%
G36*
X537776Y1051391D02*
X537858D01*
X538081Y1051367D01*
X538327Y1051332D01*
X538586Y1051273D01*
X538867Y1051203D01*
X539125Y1051109D01*
X539137D01*
X539160Y1051097D01*
X539196Y1051074D01*
X539243Y1051050D01*
X539360Y1050992D01*
X539512Y1050886D01*
X539688Y1050769D01*
X539865Y1050616D01*
X540029Y1050440D01*
X540181Y1050241D01*
Y1050229D01*
X540193Y1050217D01*
X540217Y1050182D01*
X540240Y1050147D01*
X540299Y1050029D01*
X540369Y1049877D01*
X540451Y1049689D01*
X540510Y1049466D01*
X540569Y1049231D01*
X540592Y1048973D01*
X539559Y1048891D01*
Y1048903D01*
Y1048926D01*
X539548Y1048961D01*
X539536Y1049020D01*
X539501Y1049149D01*
X539454Y1049325D01*
X539383Y1049513D01*
X539278Y1049701D01*
X539149Y1049877D01*
X538984Y1050041D01*
X538961Y1050053D01*
X538902Y1050100D01*
X538785Y1050170D01*
X538632Y1050241D01*
X538433Y1050311D01*
X538198Y1050381D01*
X537905Y1050428D01*
X537576Y1050440D01*
X537412D01*
X537342Y1050428D01*
X537248Y1050417D01*
X537037Y1050393D01*
X536802Y1050346D01*
X536567Y1050287D01*
X536344Y1050194D01*
X536250Y1050135D01*
X536156Y1050076D01*
X536133Y1050065D01*
X536086Y1050018D01*
X536016Y1049936D01*
X535945Y1049842D01*
X535863Y1049713D01*
X535793Y1049572D01*
X535746Y1049407D01*
X535722Y1049220D01*
Y1049196D01*
Y1049149D01*
X535734Y1049067D01*
X535757Y1048973D01*
X535793Y1048856D01*
X535851Y1048738D01*
X535922Y1048621D01*
X536027Y1048504D01*
X536039Y1048492D01*
X536098Y1048457D01*
X536145Y1048422D01*
X536192Y1048398D01*
X536262Y1048363D01*
X536344Y1048316D01*
X536450Y1048281D01*
X536567Y1048234D01*
X536696Y1048187D01*
X536849Y1048128D01*
X537013Y1048081D01*
X537201Y1048023D01*
X537412Y1047976D01*
X537647Y1047917D01*
X537658D01*
X537705Y1047905D01*
X537776Y1047894D01*
X537858Y1047870D01*
X537963Y1047847D01*
X538093Y1047812D01*
X538222Y1047776D01*
X538363Y1047741D01*
X538668Y1047659D01*
X538961Y1047577D01*
X539102Y1047530D01*
X539231Y1047483D01*
X539348Y1047448D01*
X539442Y1047401D01*
X539454D01*
X539477Y1047389D01*
X539512Y1047366D01*
X539559Y1047342D01*
X539688Y1047272D01*
X539841Y1047178D01*
X540017Y1047049D01*
X540193Y1046908D01*
X540357Y1046744D01*
X540498Y1046568D01*
X540510Y1046544D01*
X540557Y1046486D01*
X540604Y1046380D01*
X540674Y1046239D01*
X540733Y1046075D01*
X540792Y1045875D01*
X540827Y1045652D01*
X540839Y1045418D01*
Y1045406D01*
Y1045394D01*
Y1045359D01*
Y1045312D01*
X540815Y1045183D01*
X540792Y1045019D01*
X540745Y1044831D01*
X540686Y1044631D01*
X540592Y1044420D01*
X540463Y1044197D01*
Y1044185D01*
X540451Y1044174D01*
X540393Y1044103D01*
X540311Y1043998D01*
X540193Y1043880D01*
X540041Y1043739D01*
X539853Y1043587D01*
X539642Y1043446D01*
X539395Y1043317D01*
X539383D01*
X539360Y1043305D01*
X539325Y1043294D01*
X539278Y1043270D01*
X539207Y1043247D01*
X539125Y1043212D01*
X538937Y1043165D01*
X538714Y1043106D01*
X538445Y1043047D01*
X538151Y1043012D01*
X537834Y1043000D01*
X537647D01*
X537553Y1043012D01*
X537447D01*
X537330Y1043024D01*
X537189Y1043035D01*
X536896Y1043082D01*
X536590Y1043129D01*
X536285Y1043212D01*
X535992Y1043317D01*
X535980D01*
X535957Y1043329D01*
X535922Y1043352D01*
X535875Y1043376D01*
X535734Y1043446D01*
X535570Y1043552D01*
X535382Y1043693D01*
X535182Y1043857D01*
X534995Y1044056D01*
X534819Y1044279D01*
Y1044291D01*
X534795Y1044314D01*
X534783Y1044350D01*
X534748Y1044397D01*
X534725Y1044455D01*
X534689Y1044526D01*
X534607Y1044702D01*
X534525Y1044925D01*
X534455Y1045171D01*
X534408Y1045453D01*
X534384Y1045746D01*
X535394Y1045840D01*
Y1045828D01*
Y1045817D01*
X535405Y1045781D01*
Y1045734D01*
X535429Y1045629D01*
X535464Y1045476D01*
X535511Y1045324D01*
X535558Y1045148D01*
X535640Y1044983D01*
X535722Y1044831D01*
X535734Y1044819D01*
X535769Y1044772D01*
X535828Y1044690D01*
X535922Y1044608D01*
X536039Y1044502D01*
X536168Y1044397D01*
X536344Y1044291D01*
X536532Y1044197D01*
X536544D01*
X536555Y1044185D01*
X536590Y1044174D01*
X536626Y1044162D01*
X536743Y1044127D01*
X536896Y1044080D01*
X537083Y1044033D01*
X537295Y1043998D01*
X537529Y1043974D01*
X537788Y1043962D01*
X537893D01*
X538010Y1043974D01*
X538151Y1043986D01*
X538316Y1044009D01*
X538503Y1044033D01*
X538691Y1044080D01*
X538867Y1044138D01*
X538891Y1044150D01*
X538949Y1044174D01*
X539031Y1044221D01*
X539137Y1044268D01*
X539243Y1044350D01*
X539360Y1044432D01*
X539477Y1044526D01*
X539571Y1044643D01*
X539583Y1044655D01*
X539606Y1044702D01*
X539642Y1044760D01*
X539688Y1044854D01*
X539735Y1044948D01*
X539771Y1045066D01*
X539794Y1045195D01*
X539806Y1045335D01*
Y1045347D01*
Y1045406D01*
X539794Y1045476D01*
X539782Y1045570D01*
X539747Y1045664D01*
X539712Y1045781D01*
X539653Y1045899D01*
X539571Y1046004D01*
X539559Y1046016D01*
X539524Y1046051D01*
X539477Y1046098D01*
X539395Y1046169D01*
X539301Y1046239D01*
X539172Y1046321D01*
X539020Y1046403D01*
X538844Y1046474D01*
X538832Y1046486D01*
X538773Y1046497D01*
X538679Y1046532D01*
X538621Y1046544D01*
X538539Y1046568D01*
X538456Y1046603D01*
X538351Y1046626D01*
X538233Y1046662D01*
X538093Y1046697D01*
X537952Y1046732D01*
X537788Y1046779D01*
X537600Y1046826D01*
X537400Y1046873D01*
X537388D01*
X537353Y1046884D01*
X537295Y1046896D01*
X537224Y1046920D01*
X537130Y1046943D01*
X537025Y1046967D01*
X536790Y1047037D01*
X536532Y1047119D01*
X536262Y1047201D01*
X536027Y1047283D01*
X535922Y1047330D01*
X535828Y1047377D01*
X535816D01*
X535804Y1047389D01*
X535734Y1047436D01*
X535628Y1047495D01*
X535511Y1047589D01*
X535370Y1047694D01*
X535229Y1047823D01*
X535089Y1047976D01*
X534971Y1048140D01*
X534959Y1048164D01*
X534924Y1048222D01*
X534877Y1048316D01*
X534830Y1048433D01*
X534783Y1048586D01*
X534736Y1048762D01*
X534701Y1048950D01*
X534689Y1049149D01*
Y1049161D01*
Y1049173D01*
Y1049208D01*
Y1049255D01*
X534713Y1049372D01*
X534736Y1049525D01*
X534772Y1049701D01*
X534830Y1049900D01*
X534912Y1050100D01*
X535030Y1050299D01*
Y1050311D01*
X535042Y1050323D01*
X535100Y1050393D01*
X535182Y1050487D01*
X535288Y1050604D01*
X535429Y1050733D01*
X535605Y1050874D01*
X535816Y1051003D01*
X536051Y1051121D01*
X536063D01*
X536086Y1051132D01*
X536121Y1051144D01*
X536168Y1051168D01*
X536227Y1051191D01*
X536309Y1051215D01*
X536485Y1051262D01*
X536708Y1051309D01*
X536966Y1051355D01*
X537236Y1051391D01*
X537541Y1051402D01*
X537694D01*
X537776Y1051391D01*
D02*
G37*
G36*
X555706Y1050299D02*
X553031D01*
Y1043141D01*
X551951D01*
Y1050299D01*
X549276D01*
Y1051262D01*
X555706D01*
Y1050299D01*
D02*
G37*
G36*
X548208D02*
X543409D01*
Y1047823D01*
X547903D01*
Y1046861D01*
X543409D01*
Y1044103D01*
X548396D01*
Y1043141D01*
X542329D01*
Y1051262D01*
X548208D01*
Y1050299D01*
D02*
G37*
G36*
X533070D02*
X528271D01*
Y1047823D01*
X532765D01*
Y1046861D01*
X528271D01*
Y1044103D01*
X533258D01*
Y1043141D01*
X527191D01*
Y1051262D01*
X533070D01*
Y1050299D01*
D02*
G37*
G36*
X522861Y1051250D02*
X522966D01*
X523213Y1051238D01*
X523471Y1051203D01*
X523753Y1051168D01*
X524011Y1051109D01*
X524140Y1051074D01*
X524245Y1051039D01*
X524257D01*
X524269Y1051027D01*
X524339Y1050992D01*
X524445Y1050945D01*
X524574Y1050863D01*
X524715Y1050757D01*
X524868Y1050616D01*
X525008Y1050452D01*
X525149Y1050264D01*
Y1050252D01*
X525161Y1050241D01*
X525208Y1050170D01*
X525255Y1050053D01*
X525325Y1049900D01*
X525384Y1049724D01*
X525443Y1049513D01*
X525478Y1049290D01*
X525489Y1049044D01*
Y1049032D01*
Y1049008D01*
Y1048961D01*
X525478Y1048903D01*
Y1048821D01*
X525466Y1048738D01*
X525419Y1048539D01*
X525349Y1048304D01*
X525255Y1048058D01*
X525114Y1047812D01*
X525020Y1047694D01*
X524926Y1047577D01*
X524914Y1047565D01*
X524903Y1047553D01*
X524868Y1047518D01*
X524821Y1047483D01*
X524762Y1047436D01*
X524692Y1047389D01*
X524598Y1047330D01*
X524504Y1047260D01*
X524386Y1047201D01*
X524257Y1047143D01*
X524117Y1047072D01*
X523964Y1047013D01*
X523788Y1046967D01*
X523612Y1046908D01*
X523412Y1046873D01*
X523201Y1046837D01*
X523225Y1046826D01*
X523271Y1046802D01*
X523342Y1046755D01*
X523436Y1046708D01*
X523647Y1046579D01*
X523753Y1046497D01*
X523847Y1046427D01*
X523870Y1046403D01*
X523929Y1046345D01*
X524023Y1046251D01*
X524140Y1046133D01*
X524269Y1045969D01*
X524422Y1045793D01*
X524574Y1045582D01*
X524738Y1045347D01*
X526135Y1043141D01*
X524797D01*
X523729Y1044831D01*
Y1044843D01*
X523706Y1044866D01*
X523682Y1044901D01*
X523647Y1044948D01*
X523565Y1045077D01*
X523459Y1045242D01*
X523330Y1045418D01*
X523201Y1045605D01*
X523072Y1045781D01*
X522955Y1045946D01*
X522943Y1045957D01*
X522908Y1046004D01*
X522849Y1046075D01*
X522767Y1046157D01*
X522591Y1046333D01*
X522497Y1046415D01*
X522403Y1046486D01*
X522391Y1046497D01*
X522368Y1046509D01*
X522321Y1046532D01*
X522251Y1046568D01*
X522180Y1046603D01*
X522098Y1046638D01*
X521910Y1046697D01*
X521899D01*
X521875Y1046708D01*
X521828D01*
X521769Y1046720D01*
X521687Y1046732D01*
X521594D01*
X521464Y1046744D01*
X520080D01*
Y1043141D01*
X519000D01*
Y1051262D01*
X522767D01*
X522861Y1051250D01*
D02*
G37*
G36*
X537776Y801391D02*
X537858D01*
X538081Y801367D01*
X538327Y801332D01*
X538586Y801273D01*
X538867Y801203D01*
X539125Y801109D01*
X539137D01*
X539160Y801097D01*
X539196Y801074D01*
X539243Y801050D01*
X539360Y800992D01*
X539512Y800886D01*
X539688Y800769D01*
X539865Y800616D01*
X540029Y800440D01*
X540181Y800240D01*
Y800229D01*
X540193Y800217D01*
X540217Y800182D01*
X540240Y800147D01*
X540299Y800029D01*
X540369Y799877D01*
X540451Y799689D01*
X540510Y799466D01*
X540569Y799231D01*
X540592Y798973D01*
X539559Y798891D01*
Y798903D01*
Y798926D01*
X539548Y798961D01*
X539536Y799020D01*
X539501Y799149D01*
X539454Y799325D01*
X539383Y799513D01*
X539278Y799701D01*
X539149Y799877D01*
X538984Y800041D01*
X538961Y800053D01*
X538902Y800100D01*
X538785Y800170D01*
X538632Y800240D01*
X538433Y800311D01*
X538198Y800381D01*
X537905Y800428D01*
X537576Y800440D01*
X537412D01*
X537342Y800428D01*
X537248Y800417D01*
X537037Y800393D01*
X536802Y800346D01*
X536567Y800287D01*
X536344Y800194D01*
X536250Y800135D01*
X536156Y800076D01*
X536133Y800064D01*
X536086Y800018D01*
X536016Y799935D01*
X535945Y799842D01*
X535863Y799713D01*
X535793Y799572D01*
X535746Y799407D01*
X535722Y799220D01*
Y799196D01*
Y799149D01*
X535734Y799067D01*
X535757Y798973D01*
X535793Y798856D01*
X535851Y798738D01*
X535922Y798621D01*
X536027Y798504D01*
X536039Y798492D01*
X536098Y798457D01*
X536145Y798422D01*
X536192Y798398D01*
X536262Y798363D01*
X536344Y798316D01*
X536450Y798281D01*
X536567Y798234D01*
X536696Y798187D01*
X536849Y798128D01*
X537013Y798081D01*
X537201Y798023D01*
X537412Y797976D01*
X537647Y797917D01*
X537658D01*
X537705Y797905D01*
X537776Y797894D01*
X537858Y797870D01*
X537963Y797847D01*
X538093Y797811D01*
X538222Y797776D01*
X538363Y797741D01*
X538668Y797659D01*
X538961Y797577D01*
X539102Y797530D01*
X539231Y797483D01*
X539348Y797448D01*
X539442Y797401D01*
X539454D01*
X539477Y797389D01*
X539512Y797365D01*
X539559Y797342D01*
X539688Y797272D01*
X539841Y797178D01*
X540017Y797049D01*
X540193Y796908D01*
X540357Y796744D01*
X540498Y796568D01*
X540510Y796544D01*
X540557Y796485D01*
X540604Y796380D01*
X540674Y796239D01*
X540733Y796075D01*
X540792Y795875D01*
X540827Y795652D01*
X540839Y795417D01*
Y795406D01*
Y795394D01*
Y795359D01*
Y795312D01*
X540815Y795183D01*
X540792Y795019D01*
X540745Y794831D01*
X540686Y794631D01*
X540592Y794420D01*
X540463Y794197D01*
Y794185D01*
X540451Y794174D01*
X540393Y794103D01*
X540311Y793998D01*
X540193Y793880D01*
X540041Y793739D01*
X539853Y793587D01*
X539642Y793446D01*
X539395Y793317D01*
X539383D01*
X539360Y793305D01*
X539325Y793294D01*
X539278Y793270D01*
X539207Y793247D01*
X539125Y793211D01*
X538937Y793165D01*
X538714Y793106D01*
X538445Y793047D01*
X538151Y793012D01*
X537834Y793000D01*
X537647D01*
X537553Y793012D01*
X537447D01*
X537330Y793024D01*
X537189Y793035D01*
X536896Y793082D01*
X536590Y793129D01*
X536285Y793211D01*
X535992Y793317D01*
X535980D01*
X535957Y793329D01*
X535922Y793352D01*
X535875Y793376D01*
X535734Y793446D01*
X535570Y793552D01*
X535382Y793692D01*
X535182Y793857D01*
X534995Y794056D01*
X534819Y794279D01*
Y794291D01*
X534795Y794314D01*
X534783Y794350D01*
X534748Y794397D01*
X534725Y794455D01*
X534689Y794526D01*
X534607Y794702D01*
X534525Y794925D01*
X534455Y795171D01*
X534408Y795453D01*
X534384Y795746D01*
X535394Y795840D01*
Y795828D01*
Y795816D01*
X535405Y795781D01*
Y795734D01*
X535429Y795629D01*
X535464Y795476D01*
X535511Y795324D01*
X535558Y795148D01*
X535640Y794983D01*
X535722Y794831D01*
X535734Y794819D01*
X535769Y794772D01*
X535828Y794690D01*
X535922Y794608D01*
X536039Y794502D01*
X536168Y794397D01*
X536344Y794291D01*
X536532Y794197D01*
X536544D01*
X536555Y794185D01*
X536590Y794174D01*
X536626Y794162D01*
X536743Y794127D01*
X536896Y794080D01*
X537083Y794033D01*
X537295Y793998D01*
X537529Y793974D01*
X537788Y793962D01*
X537893D01*
X538010Y793974D01*
X538151Y793986D01*
X538316Y794009D01*
X538503Y794033D01*
X538691Y794080D01*
X538867Y794138D01*
X538891Y794150D01*
X538949Y794174D01*
X539031Y794221D01*
X539137Y794268D01*
X539243Y794350D01*
X539360Y794432D01*
X539477Y794526D01*
X539571Y794643D01*
X539583Y794655D01*
X539606Y794702D01*
X539642Y794760D01*
X539688Y794854D01*
X539735Y794948D01*
X539771Y795066D01*
X539794Y795195D01*
X539806Y795335D01*
Y795347D01*
Y795406D01*
X539794Y795476D01*
X539782Y795570D01*
X539747Y795664D01*
X539712Y795781D01*
X539653Y795899D01*
X539571Y796004D01*
X539559Y796016D01*
X539524Y796051D01*
X539477Y796098D01*
X539395Y796169D01*
X539301Y796239D01*
X539172Y796321D01*
X539020Y796403D01*
X538844Y796474D01*
X538832Y796485D01*
X538773Y796497D01*
X538679Y796532D01*
X538621Y796544D01*
X538539Y796568D01*
X538456Y796603D01*
X538351Y796626D01*
X538233Y796661D01*
X538093Y796697D01*
X537952Y796732D01*
X537788Y796779D01*
X537600Y796826D01*
X537400Y796873D01*
X537388D01*
X537353Y796884D01*
X537295Y796896D01*
X537224Y796920D01*
X537130Y796943D01*
X537025Y796966D01*
X536790Y797037D01*
X536532Y797119D01*
X536262Y797201D01*
X536027Y797283D01*
X535922Y797330D01*
X535828Y797377D01*
X535816D01*
X535804Y797389D01*
X535734Y797436D01*
X535628Y797495D01*
X535511Y797589D01*
X535370Y797694D01*
X535229Y797823D01*
X535089Y797976D01*
X534971Y798140D01*
X534959Y798164D01*
X534924Y798222D01*
X534877Y798316D01*
X534830Y798433D01*
X534783Y798586D01*
X534736Y798762D01*
X534701Y798950D01*
X534689Y799149D01*
Y799161D01*
Y799173D01*
Y799208D01*
Y799255D01*
X534713Y799372D01*
X534736Y799525D01*
X534772Y799701D01*
X534830Y799900D01*
X534912Y800100D01*
X535030Y800299D01*
Y800311D01*
X535042Y800323D01*
X535100Y800393D01*
X535182Y800487D01*
X535288Y800604D01*
X535429Y800733D01*
X535605Y800874D01*
X535816Y801003D01*
X536051Y801121D01*
X536063D01*
X536086Y801132D01*
X536121Y801144D01*
X536168Y801168D01*
X536227Y801191D01*
X536309Y801215D01*
X536485Y801262D01*
X536708Y801308D01*
X536966Y801355D01*
X537236Y801391D01*
X537541Y801402D01*
X537694D01*
X537776Y801391D01*
D02*
G37*
G36*
X555706Y800299D02*
X553031D01*
Y793141D01*
X551951D01*
Y800299D01*
X549276D01*
Y801262D01*
X555706D01*
Y800299D01*
D02*
G37*
G36*
X548208D02*
X543409D01*
Y797823D01*
X547903D01*
Y796861D01*
X543409D01*
Y794103D01*
X548396D01*
Y793141D01*
X542329D01*
Y801262D01*
X548208D01*
Y800299D01*
D02*
G37*
G36*
X533070D02*
X528271D01*
Y797823D01*
X532765D01*
Y796861D01*
X528271D01*
Y794103D01*
X533258D01*
Y793141D01*
X527191D01*
Y801262D01*
X533070D01*
Y800299D01*
D02*
G37*
G36*
X522861Y801250D02*
X522966D01*
X523213Y801238D01*
X523471Y801203D01*
X523753Y801168D01*
X524011Y801109D01*
X524140Y801074D01*
X524245Y801039D01*
X524257D01*
X524269Y801027D01*
X524339Y800992D01*
X524445Y800945D01*
X524574Y800863D01*
X524715Y800757D01*
X524868Y800616D01*
X525008Y800452D01*
X525149Y800264D01*
Y800252D01*
X525161Y800240D01*
X525208Y800170D01*
X525255Y800053D01*
X525325Y799900D01*
X525384Y799724D01*
X525443Y799513D01*
X525478Y799290D01*
X525489Y799044D01*
Y799032D01*
Y799008D01*
Y798961D01*
X525478Y798903D01*
Y798821D01*
X525466Y798738D01*
X525419Y798539D01*
X525349Y798304D01*
X525255Y798058D01*
X525114Y797811D01*
X525020Y797694D01*
X524926Y797577D01*
X524914Y797565D01*
X524903Y797553D01*
X524868Y797518D01*
X524821Y797483D01*
X524762Y797436D01*
X524692Y797389D01*
X524598Y797330D01*
X524504Y797260D01*
X524386Y797201D01*
X524257Y797143D01*
X524117Y797072D01*
X523964Y797013D01*
X523788Y796966D01*
X523612Y796908D01*
X523412Y796873D01*
X523201Y796837D01*
X523225Y796826D01*
X523271Y796802D01*
X523342Y796755D01*
X523436Y796708D01*
X523647Y796579D01*
X523753Y796497D01*
X523847Y796427D01*
X523870Y796403D01*
X523929Y796345D01*
X524023Y796251D01*
X524140Y796133D01*
X524269Y795969D01*
X524422Y795793D01*
X524574Y795582D01*
X524738Y795347D01*
X526135Y793141D01*
X524797D01*
X523729Y794831D01*
Y794843D01*
X523706Y794866D01*
X523682Y794901D01*
X523647Y794948D01*
X523565Y795077D01*
X523459Y795241D01*
X523330Y795417D01*
X523201Y795605D01*
X523072Y795781D01*
X522955Y795946D01*
X522943Y795957D01*
X522908Y796004D01*
X522849Y796075D01*
X522767Y796157D01*
X522591Y796333D01*
X522497Y796415D01*
X522403Y796485D01*
X522391Y796497D01*
X522368Y796509D01*
X522321Y796532D01*
X522251Y796568D01*
X522180Y796603D01*
X522098Y796638D01*
X521910Y796697D01*
X521899D01*
X521875Y796708D01*
X521828D01*
X521769Y796720D01*
X521687Y796732D01*
X521594D01*
X521464Y796744D01*
X520080D01*
Y793141D01*
X519000D01*
Y801262D01*
X522767D01*
X522861Y801250D01*
D02*
G37*
G36*
X537776Y551390D02*
X537858D01*
X538081Y551367D01*
X538327Y551332D01*
X538586Y551273D01*
X538867Y551203D01*
X539125Y551109D01*
X539137D01*
X539160Y551097D01*
X539196Y551074D01*
X539243Y551050D01*
X539360Y550992D01*
X539512Y550886D01*
X539688Y550769D01*
X539865Y550616D01*
X540029Y550440D01*
X540181Y550241D01*
Y550229D01*
X540193Y550217D01*
X540217Y550182D01*
X540240Y550147D01*
X540299Y550029D01*
X540369Y549877D01*
X540451Y549689D01*
X540510Y549466D01*
X540569Y549231D01*
X540592Y548973D01*
X539559Y548891D01*
Y548903D01*
Y548926D01*
X539548Y548961D01*
X539536Y549020D01*
X539501Y549149D01*
X539454Y549325D01*
X539383Y549513D01*
X539278Y549701D01*
X539149Y549877D01*
X538984Y550041D01*
X538961Y550053D01*
X538902Y550100D01*
X538785Y550170D01*
X538632Y550241D01*
X538433Y550311D01*
X538198Y550381D01*
X537905Y550428D01*
X537576Y550440D01*
X537412D01*
X537342Y550428D01*
X537248Y550416D01*
X537037Y550393D01*
X536802Y550346D01*
X536567Y550287D01*
X536344Y550193D01*
X536250Y550135D01*
X536156Y550076D01*
X536133Y550065D01*
X536086Y550018D01*
X536016Y549935D01*
X535945Y549841D01*
X535863Y549712D01*
X535793Y549572D01*
X535746Y549407D01*
X535722Y549220D01*
Y549196D01*
Y549149D01*
X535734Y549067D01*
X535757Y548973D01*
X535793Y548856D01*
X535851Y548738D01*
X535922Y548621D01*
X536027Y548504D01*
X536039Y548492D01*
X536098Y548457D01*
X536145Y548422D01*
X536192Y548398D01*
X536262Y548363D01*
X536344Y548316D01*
X536450Y548281D01*
X536567Y548234D01*
X536696Y548187D01*
X536849Y548128D01*
X537013Y548081D01*
X537201Y548023D01*
X537412Y547976D01*
X537647Y547917D01*
X537658D01*
X537705Y547905D01*
X537776Y547893D01*
X537858Y547870D01*
X537963Y547847D01*
X538093Y547811D01*
X538222Y547776D01*
X538363Y547741D01*
X538668Y547659D01*
X538961Y547577D01*
X539102Y547530D01*
X539231Y547483D01*
X539348Y547448D01*
X539442Y547401D01*
X539454D01*
X539477Y547389D01*
X539512Y547365D01*
X539559Y547342D01*
X539688Y547272D01*
X539841Y547178D01*
X540017Y547049D01*
X540193Y546908D01*
X540357Y546744D01*
X540498Y546567D01*
X540510Y546544D01*
X540557Y546485D01*
X540604Y546380D01*
X540674Y546239D01*
X540733Y546075D01*
X540792Y545875D01*
X540827Y545652D01*
X540839Y545418D01*
Y545406D01*
Y545394D01*
Y545359D01*
Y545312D01*
X540815Y545183D01*
X540792Y545019D01*
X540745Y544831D01*
X540686Y544631D01*
X540592Y544420D01*
X540463Y544197D01*
Y544185D01*
X540451Y544174D01*
X540393Y544103D01*
X540311Y543998D01*
X540193Y543880D01*
X540041Y543739D01*
X539853Y543587D01*
X539642Y543446D01*
X539395Y543317D01*
X539383D01*
X539360Y543305D01*
X539325Y543293D01*
X539278Y543270D01*
X539207Y543246D01*
X539125Y543211D01*
X538937Y543164D01*
X538714Y543106D01*
X538445Y543047D01*
X538151Y543012D01*
X537834Y543000D01*
X537647D01*
X537553Y543012D01*
X537447D01*
X537330Y543024D01*
X537189Y543035D01*
X536896Y543082D01*
X536590Y543129D01*
X536285Y543211D01*
X535992Y543317D01*
X535980D01*
X535957Y543329D01*
X535922Y543352D01*
X535875Y543376D01*
X535734Y543446D01*
X535570Y543552D01*
X535382Y543693D01*
X535182Y543857D01*
X534995Y544056D01*
X534819Y544279D01*
Y544291D01*
X534795Y544314D01*
X534783Y544350D01*
X534748Y544397D01*
X534725Y544455D01*
X534689Y544526D01*
X534607Y544702D01*
X534525Y544925D01*
X534455Y545171D01*
X534408Y545453D01*
X534384Y545746D01*
X535394Y545840D01*
Y545828D01*
Y545816D01*
X535405Y545781D01*
Y545734D01*
X535429Y545629D01*
X535464Y545476D01*
X535511Y545324D01*
X535558Y545148D01*
X535640Y544983D01*
X535722Y544831D01*
X535734Y544819D01*
X535769Y544772D01*
X535828Y544690D01*
X535922Y544608D01*
X536039Y544502D01*
X536168Y544397D01*
X536344Y544291D01*
X536532Y544197D01*
X536544D01*
X536555Y544185D01*
X536590Y544174D01*
X536626Y544162D01*
X536743Y544127D01*
X536896Y544080D01*
X537083Y544033D01*
X537295Y543998D01*
X537529Y543974D01*
X537788Y543962D01*
X537893D01*
X538010Y543974D01*
X538151Y543986D01*
X538316Y544009D01*
X538503Y544033D01*
X538691Y544080D01*
X538867Y544138D01*
X538891Y544150D01*
X538949Y544174D01*
X539031Y544221D01*
X539137Y544268D01*
X539243Y544350D01*
X539360Y544432D01*
X539477Y544526D01*
X539571Y544643D01*
X539583Y544655D01*
X539606Y544702D01*
X539642Y544760D01*
X539688Y544854D01*
X539735Y544948D01*
X539771Y545065D01*
X539794Y545195D01*
X539806Y545335D01*
Y545347D01*
Y545406D01*
X539794Y545476D01*
X539782Y545570D01*
X539747Y545664D01*
X539712Y545781D01*
X539653Y545899D01*
X539571Y546004D01*
X539559Y546016D01*
X539524Y546051D01*
X539477Y546098D01*
X539395Y546169D01*
X539301Y546239D01*
X539172Y546321D01*
X539020Y546403D01*
X538844Y546474D01*
X538832Y546485D01*
X538773Y546497D01*
X538679Y546532D01*
X538621Y546544D01*
X538539Y546567D01*
X538456Y546603D01*
X538351Y546626D01*
X538233Y546661D01*
X538093Y546697D01*
X537952Y546732D01*
X537788Y546779D01*
X537600Y546826D01*
X537400Y546873D01*
X537388D01*
X537353Y546884D01*
X537295Y546896D01*
X537224Y546920D01*
X537130Y546943D01*
X537025Y546967D01*
X536790Y547037D01*
X536532Y547119D01*
X536262Y547201D01*
X536027Y547283D01*
X535922Y547330D01*
X535828Y547377D01*
X535816D01*
X535804Y547389D01*
X535734Y547436D01*
X535628Y547495D01*
X535511Y547588D01*
X535370Y547694D01*
X535229Y547823D01*
X535089Y547976D01*
X534971Y548140D01*
X534959Y548163D01*
X534924Y548222D01*
X534877Y548316D01*
X534830Y548433D01*
X534783Y548586D01*
X534736Y548762D01*
X534701Y548950D01*
X534689Y549149D01*
Y549161D01*
Y549173D01*
Y549208D01*
Y549255D01*
X534713Y549372D01*
X534736Y549525D01*
X534772Y549701D01*
X534830Y549900D01*
X534912Y550100D01*
X535030Y550299D01*
Y550311D01*
X535042Y550323D01*
X535100Y550393D01*
X535182Y550487D01*
X535288Y550604D01*
X535429Y550733D01*
X535605Y550874D01*
X535816Y551003D01*
X536051Y551121D01*
X536063D01*
X536086Y551132D01*
X536121Y551144D01*
X536168Y551167D01*
X536227Y551191D01*
X536309Y551214D01*
X536485Y551261D01*
X536708Y551308D01*
X536966Y551355D01*
X537236Y551390D01*
X537541Y551402D01*
X537694D01*
X537776Y551390D01*
D02*
G37*
G36*
X555706Y550299D02*
X553031D01*
Y543141D01*
X551951D01*
Y550299D01*
X549276D01*
Y551261D01*
X555706D01*
Y550299D01*
D02*
G37*
G36*
X548208D02*
X543409D01*
Y547823D01*
X547903D01*
Y546861D01*
X543409D01*
Y544103D01*
X548396D01*
Y543141D01*
X542329D01*
Y551261D01*
X548208D01*
Y550299D01*
D02*
G37*
G36*
X533070D02*
X528271D01*
Y547823D01*
X532765D01*
Y546861D01*
X528271D01*
Y544103D01*
X533258D01*
Y543141D01*
X527191D01*
Y551261D01*
X533070D01*
Y550299D01*
D02*
G37*
G36*
X522861Y551250D02*
X522966D01*
X523213Y551238D01*
X523471Y551203D01*
X523753Y551167D01*
X524011Y551109D01*
X524140Y551074D01*
X524245Y551038D01*
X524257D01*
X524269Y551027D01*
X524339Y550992D01*
X524445Y550945D01*
X524574Y550862D01*
X524715Y550757D01*
X524868Y550616D01*
X525008Y550452D01*
X525149Y550264D01*
Y550252D01*
X525161Y550241D01*
X525208Y550170D01*
X525255Y550053D01*
X525325Y549900D01*
X525384Y549724D01*
X525443Y549513D01*
X525478Y549290D01*
X525489Y549044D01*
Y549032D01*
Y549008D01*
Y548961D01*
X525478Y548903D01*
Y548821D01*
X525466Y548738D01*
X525419Y548539D01*
X525349Y548304D01*
X525255Y548058D01*
X525114Y547811D01*
X525020Y547694D01*
X524926Y547577D01*
X524914Y547565D01*
X524903Y547553D01*
X524868Y547518D01*
X524821Y547483D01*
X524762Y547436D01*
X524692Y547389D01*
X524598Y547330D01*
X524504Y547260D01*
X524386Y547201D01*
X524257Y547142D01*
X524117Y547072D01*
X523964Y547013D01*
X523788Y546967D01*
X523612Y546908D01*
X523412Y546873D01*
X523201Y546837D01*
X523225Y546826D01*
X523271Y546802D01*
X523342Y546755D01*
X523436Y546708D01*
X523647Y546579D01*
X523753Y546497D01*
X523847Y546427D01*
X523870Y546403D01*
X523929Y546344D01*
X524023Y546251D01*
X524140Y546133D01*
X524269Y545969D01*
X524422Y545793D01*
X524574Y545582D01*
X524738Y545347D01*
X526135Y543141D01*
X524797D01*
X523729Y544831D01*
Y544842D01*
X523706Y544866D01*
X523682Y544901D01*
X523647Y544948D01*
X523565Y545077D01*
X523459Y545242D01*
X523330Y545418D01*
X523201Y545605D01*
X523072Y545781D01*
X522955Y545946D01*
X522943Y545957D01*
X522908Y546004D01*
X522849Y546075D01*
X522767Y546157D01*
X522591Y546333D01*
X522497Y546415D01*
X522403Y546485D01*
X522391Y546497D01*
X522368Y546509D01*
X522321Y546532D01*
X522251Y546567D01*
X522180Y546603D01*
X522098Y546638D01*
X521910Y546697D01*
X521899D01*
X521875Y546708D01*
X521828D01*
X521769Y546720D01*
X521687Y546732D01*
X521594D01*
X521464Y546744D01*
X520080D01*
Y543141D01*
X519000D01*
Y551261D01*
X522767D01*
X522861Y551250D01*
D02*
G37*
G36*
X537776Y301390D02*
X537858D01*
X538081Y301367D01*
X538327Y301332D01*
X538586Y301273D01*
X538867Y301203D01*
X539125Y301109D01*
X539137D01*
X539160Y301097D01*
X539196Y301074D01*
X539243Y301050D01*
X539360Y300991D01*
X539512Y300886D01*
X539688Y300769D01*
X539865Y300616D01*
X540029Y300440D01*
X540181Y300240D01*
Y300229D01*
X540193Y300217D01*
X540217Y300182D01*
X540240Y300147D01*
X540299Y300029D01*
X540369Y299877D01*
X540451Y299689D01*
X540510Y299466D01*
X540569Y299231D01*
X540592Y298973D01*
X539559Y298891D01*
Y298903D01*
Y298926D01*
X539548Y298961D01*
X539536Y299020D01*
X539501Y299149D01*
X539454Y299325D01*
X539383Y299513D01*
X539278Y299701D01*
X539149Y299877D01*
X538984Y300041D01*
X538961Y300053D01*
X538902Y300100D01*
X538785Y300170D01*
X538632Y300240D01*
X538433Y300311D01*
X538198Y300381D01*
X537905Y300428D01*
X537576Y300440D01*
X537412D01*
X537342Y300428D01*
X537248Y300416D01*
X537037Y300393D01*
X536802Y300346D01*
X536567Y300287D01*
X536344Y300194D01*
X536250Y300135D01*
X536156Y300076D01*
X536133Y300064D01*
X536086Y300018D01*
X536016Y299935D01*
X535945Y299841D01*
X535863Y299712D01*
X535793Y299571D01*
X535746Y299407D01*
X535722Y299219D01*
Y299196D01*
Y299149D01*
X535734Y299067D01*
X535757Y298973D01*
X535793Y298856D01*
X535851Y298738D01*
X535922Y298621D01*
X536027Y298504D01*
X536039Y298492D01*
X536098Y298457D01*
X536145Y298421D01*
X536192Y298398D01*
X536262Y298363D01*
X536344Y298316D01*
X536450Y298281D01*
X536567Y298234D01*
X536696Y298187D01*
X536849Y298128D01*
X537013Y298081D01*
X537201Y298022D01*
X537412Y297976D01*
X537647Y297917D01*
X537658D01*
X537705Y297905D01*
X537776Y297894D01*
X537858Y297870D01*
X537963Y297847D01*
X538093Y297811D01*
X538222Y297776D01*
X538363Y297741D01*
X538668Y297659D01*
X538961Y297577D01*
X539102Y297530D01*
X539231Y297483D01*
X539348Y297447D01*
X539442Y297401D01*
X539454D01*
X539477Y297389D01*
X539512Y297365D01*
X539559Y297342D01*
X539688Y297271D01*
X539841Y297178D01*
X540017Y297049D01*
X540193Y296908D01*
X540357Y296744D01*
X540498Y296567D01*
X540510Y296544D01*
X540557Y296485D01*
X540604Y296380D01*
X540674Y296239D01*
X540733Y296075D01*
X540792Y295875D01*
X540827Y295652D01*
X540839Y295417D01*
Y295406D01*
Y295394D01*
Y295359D01*
Y295312D01*
X540815Y295183D01*
X540792Y295018D01*
X540745Y294831D01*
X540686Y294631D01*
X540592Y294420D01*
X540463Y294197D01*
Y294185D01*
X540451Y294174D01*
X540393Y294103D01*
X540311Y293997D01*
X540193Y293880D01*
X540041Y293739D01*
X539853Y293587D01*
X539642Y293446D01*
X539395Y293317D01*
X539383D01*
X539360Y293305D01*
X539325Y293293D01*
X539278Y293270D01*
X539207Y293246D01*
X539125Y293211D01*
X538937Y293164D01*
X538714Y293106D01*
X538445Y293047D01*
X538151Y293012D01*
X537834Y293000D01*
X537647D01*
X537553Y293012D01*
X537447D01*
X537330Y293023D01*
X537189Y293035D01*
X536896Y293082D01*
X536590Y293129D01*
X536285Y293211D01*
X535992Y293317D01*
X535980D01*
X535957Y293329D01*
X535922Y293352D01*
X535875Y293376D01*
X535734Y293446D01*
X535570Y293552D01*
X535382Y293692D01*
X535182Y293857D01*
X534995Y294056D01*
X534819Y294279D01*
Y294291D01*
X534795Y294314D01*
X534783Y294350D01*
X534748Y294396D01*
X534725Y294455D01*
X534689Y294526D01*
X534607Y294702D01*
X534525Y294925D01*
X534455Y295171D01*
X534408Y295453D01*
X534384Y295746D01*
X535394Y295840D01*
Y295828D01*
Y295816D01*
X535405Y295781D01*
Y295734D01*
X535429Y295629D01*
X535464Y295476D01*
X535511Y295324D01*
X535558Y295147D01*
X535640Y294983D01*
X535722Y294831D01*
X535734Y294819D01*
X535769Y294772D01*
X535828Y294690D01*
X535922Y294608D01*
X536039Y294502D01*
X536168Y294396D01*
X536344Y294291D01*
X536532Y294197D01*
X536544D01*
X536555Y294185D01*
X536590Y294174D01*
X536626Y294162D01*
X536743Y294127D01*
X536896Y294080D01*
X537083Y294033D01*
X537295Y293997D01*
X537529Y293974D01*
X537788Y293962D01*
X537893D01*
X538010Y293974D01*
X538151Y293986D01*
X538316Y294009D01*
X538503Y294033D01*
X538691Y294080D01*
X538867Y294138D01*
X538891Y294150D01*
X538949Y294174D01*
X539031Y294221D01*
X539137Y294267D01*
X539243Y294350D01*
X539360Y294432D01*
X539477Y294526D01*
X539571Y294643D01*
X539583Y294655D01*
X539606Y294702D01*
X539642Y294760D01*
X539688Y294854D01*
X539735Y294948D01*
X539771Y295065D01*
X539794Y295194D01*
X539806Y295335D01*
Y295347D01*
Y295406D01*
X539794Y295476D01*
X539782Y295570D01*
X539747Y295664D01*
X539712Y295781D01*
X539653Y295898D01*
X539571Y296004D01*
X539559Y296016D01*
X539524Y296051D01*
X539477Y296098D01*
X539395Y296168D01*
X539301Y296239D01*
X539172Y296321D01*
X539020Y296403D01*
X538844Y296474D01*
X538832Y296485D01*
X538773Y296497D01*
X538679Y296532D01*
X538621Y296544D01*
X538539Y296567D01*
X538456Y296603D01*
X538351Y296626D01*
X538233Y296661D01*
X538093Y296696D01*
X537952Y296732D01*
X537788Y296779D01*
X537600Y296826D01*
X537400Y296873D01*
X537388D01*
X537353Y296884D01*
X537295Y296896D01*
X537224Y296919D01*
X537130Y296943D01*
X537025Y296966D01*
X536790Y297037D01*
X536532Y297119D01*
X536262Y297201D01*
X536027Y297283D01*
X535922Y297330D01*
X535828Y297377D01*
X535816D01*
X535804Y297389D01*
X535734Y297436D01*
X535628Y297495D01*
X535511Y297588D01*
X535370Y297694D01*
X535229Y297823D01*
X535089Y297976D01*
X534971Y298140D01*
X534959Y298163D01*
X534924Y298222D01*
X534877Y298316D01*
X534830Y298433D01*
X534783Y298586D01*
X534736Y298762D01*
X534701Y298950D01*
X534689Y299149D01*
Y299161D01*
Y299173D01*
Y299208D01*
Y299255D01*
X534713Y299372D01*
X534736Y299525D01*
X534772Y299701D01*
X534830Y299900D01*
X534912Y300100D01*
X535030Y300299D01*
Y300311D01*
X535042Y300323D01*
X535100Y300393D01*
X535182Y300487D01*
X535288Y300604D01*
X535429Y300733D01*
X535605Y300874D01*
X535816Y301003D01*
X536051Y301120D01*
X536063D01*
X536086Y301132D01*
X536121Y301144D01*
X536168Y301168D01*
X536227Y301191D01*
X536309Y301214D01*
X536485Y301261D01*
X536708Y301308D01*
X536966Y301355D01*
X537236Y301390D01*
X537541Y301402D01*
X537694D01*
X537776Y301390D01*
D02*
G37*
G36*
X555706Y300299D02*
X553031D01*
Y293141D01*
X551951D01*
Y300299D01*
X549276D01*
Y301261D01*
X555706D01*
Y300299D01*
D02*
G37*
G36*
X548208D02*
X543409D01*
Y297823D01*
X547903D01*
Y296861D01*
X543409D01*
Y294103D01*
X548396D01*
Y293141D01*
X542329D01*
Y301261D01*
X548208D01*
Y300299D01*
D02*
G37*
G36*
X533070D02*
X528271D01*
Y297823D01*
X532765D01*
Y296861D01*
X528271D01*
Y294103D01*
X533258D01*
Y293141D01*
X527191D01*
Y301261D01*
X533070D01*
Y300299D01*
D02*
G37*
G36*
X522861Y301250D02*
X522966D01*
X523213Y301238D01*
X523471Y301203D01*
X523753Y301168D01*
X524011Y301109D01*
X524140Y301074D01*
X524245Y301038D01*
X524257D01*
X524269Y301027D01*
X524339Y300991D01*
X524445Y300944D01*
X524574Y300862D01*
X524715Y300757D01*
X524868Y300616D01*
X525008Y300452D01*
X525149Y300264D01*
Y300252D01*
X525161Y300240D01*
X525208Y300170D01*
X525255Y300053D01*
X525325Y299900D01*
X525384Y299724D01*
X525443Y299513D01*
X525478Y299290D01*
X525489Y299044D01*
Y299032D01*
Y299008D01*
Y298961D01*
X525478Y298903D01*
Y298820D01*
X525466Y298738D01*
X525419Y298539D01*
X525349Y298304D01*
X525255Y298058D01*
X525114Y297811D01*
X525020Y297694D01*
X524926Y297577D01*
X524914Y297565D01*
X524903Y297553D01*
X524868Y297518D01*
X524821Y297483D01*
X524762Y297436D01*
X524692Y297389D01*
X524598Y297330D01*
X524504Y297260D01*
X524386Y297201D01*
X524257Y297142D01*
X524117Y297072D01*
X523964Y297013D01*
X523788Y296966D01*
X523612Y296908D01*
X523412Y296873D01*
X523201Y296837D01*
X523225Y296826D01*
X523271Y296802D01*
X523342Y296755D01*
X523436Y296708D01*
X523647Y296579D01*
X523753Y296497D01*
X523847Y296427D01*
X523870Y296403D01*
X523929Y296345D01*
X524023Y296251D01*
X524140Y296133D01*
X524269Y295969D01*
X524422Y295793D01*
X524574Y295582D01*
X524738Y295347D01*
X526135Y293141D01*
X524797D01*
X523729Y294831D01*
Y294842D01*
X523706Y294866D01*
X523682Y294901D01*
X523647Y294948D01*
X523565Y295077D01*
X523459Y295241D01*
X523330Y295417D01*
X523201Y295605D01*
X523072Y295781D01*
X522955Y295945D01*
X522943Y295957D01*
X522908Y296004D01*
X522849Y296075D01*
X522767Y296157D01*
X522591Y296333D01*
X522497Y296415D01*
X522403Y296485D01*
X522391Y296497D01*
X522368Y296509D01*
X522321Y296532D01*
X522251Y296567D01*
X522180Y296603D01*
X522098Y296638D01*
X521910Y296696D01*
X521899D01*
X521875Y296708D01*
X521828D01*
X521769Y296720D01*
X521687Y296732D01*
X521594D01*
X521464Y296744D01*
X520080D01*
Y293141D01*
X519000D01*
Y301261D01*
X522767D01*
X522861Y301250D01*
D02*
G37*
%LPC*%
G36*
X522638Y1050358D02*
X520080D01*
Y1047671D01*
X522497D01*
X522638Y1047682D01*
X522802Y1047694D01*
X522990Y1047706D01*
X523178Y1047729D01*
X523365Y1047765D01*
X523530Y1047812D01*
X523553Y1047823D01*
X523600Y1047847D01*
X523671Y1047882D01*
X523764Y1047929D01*
X523870Y1047999D01*
X523976Y1048081D01*
X524081Y1048187D01*
X524163Y1048304D01*
X524175Y1048316D01*
X524199Y1048363D01*
X524234Y1048433D01*
X524281Y1048527D01*
X524316Y1048633D01*
X524351Y1048750D01*
X524375Y1048891D01*
X524386Y1049032D01*
Y1049044D01*
Y1049055D01*
X524375Y1049126D01*
X524363Y1049231D01*
X524339Y1049372D01*
X524281Y1049513D01*
X524210Y1049677D01*
X524105Y1049830D01*
X523964Y1049982D01*
X523940Y1049994D01*
X523882Y1050041D01*
X523788Y1050100D01*
X523635Y1050170D01*
X523459Y1050241D01*
X523225Y1050299D01*
X522955Y1050346D01*
X522638Y1050358D01*
D02*
G37*
G36*
Y800358D02*
X520080D01*
Y797671D01*
X522497D01*
X522638Y797682D01*
X522802Y797694D01*
X522990Y797706D01*
X523178Y797729D01*
X523365Y797765D01*
X523530Y797811D01*
X523553Y797823D01*
X523600Y797847D01*
X523671Y797882D01*
X523764Y797929D01*
X523870Y797999D01*
X523976Y798081D01*
X524081Y798187D01*
X524163Y798304D01*
X524175Y798316D01*
X524199Y798363D01*
X524234Y798433D01*
X524281Y798527D01*
X524316Y798633D01*
X524351Y798750D01*
X524375Y798891D01*
X524386Y799032D01*
Y799044D01*
Y799055D01*
X524375Y799126D01*
X524363Y799231D01*
X524339Y799372D01*
X524281Y799513D01*
X524210Y799677D01*
X524105Y799830D01*
X523964Y799982D01*
X523940Y799994D01*
X523882Y800041D01*
X523788Y800100D01*
X523635Y800170D01*
X523459Y800240D01*
X523225Y800299D01*
X522955Y800346D01*
X522638Y800358D01*
D02*
G37*
G36*
Y550358D02*
X520080D01*
Y547671D01*
X522497D01*
X522638Y547682D01*
X522802Y547694D01*
X522990Y547706D01*
X523178Y547729D01*
X523365Y547764D01*
X523530Y547811D01*
X523553Y547823D01*
X523600Y547847D01*
X523671Y547882D01*
X523764Y547929D01*
X523870Y547999D01*
X523976Y548081D01*
X524081Y548187D01*
X524163Y548304D01*
X524175Y548316D01*
X524199Y548363D01*
X524234Y548433D01*
X524281Y548527D01*
X524316Y548633D01*
X524351Y548750D01*
X524375Y548891D01*
X524386Y549032D01*
Y549044D01*
Y549055D01*
X524375Y549126D01*
X524363Y549231D01*
X524339Y549372D01*
X524281Y549513D01*
X524210Y549677D01*
X524105Y549830D01*
X523964Y549982D01*
X523940Y549994D01*
X523882Y550041D01*
X523788Y550100D01*
X523635Y550170D01*
X523459Y550241D01*
X523225Y550299D01*
X522955Y550346D01*
X522638Y550358D01*
D02*
G37*
G36*
Y300358D02*
X520080D01*
Y297670D01*
X522497D01*
X522638Y297682D01*
X522802Y297694D01*
X522990Y297706D01*
X523178Y297729D01*
X523365Y297764D01*
X523530Y297811D01*
X523553Y297823D01*
X523600Y297847D01*
X523671Y297882D01*
X523764Y297929D01*
X523870Y297999D01*
X523976Y298081D01*
X524081Y298187D01*
X524163Y298304D01*
X524175Y298316D01*
X524199Y298363D01*
X524234Y298433D01*
X524281Y298527D01*
X524316Y298633D01*
X524351Y298750D01*
X524375Y298891D01*
X524386Y299032D01*
Y299044D01*
Y299055D01*
X524375Y299126D01*
X524363Y299231D01*
X524339Y299372D01*
X524281Y299513D01*
X524210Y299677D01*
X524105Y299830D01*
X523964Y299982D01*
X523940Y299994D01*
X523882Y300041D01*
X523788Y300100D01*
X523635Y300170D01*
X523459Y300240D01*
X523225Y300299D01*
X522955Y300346D01*
X522638Y300358D01*
D02*
G37*
%LPD*%
D10*
X1149840Y293797D02*
G03*
X1149840Y293797I-500J0D01*
G01*
X1085202Y306076D02*
G03*
X1085202Y306076I-500J0D01*
G01*
X1094000Y359000D02*
Y367000D01*
X1110000Y359000D02*
Y367000D01*
X1136300Y461500D02*
X1136300Y453500D01*
X1120300Y461500D02*
X1120300Y453500D01*
X1214000Y405543D02*
Y413543D01*
X1198000Y405543D02*
Y413543D01*
X1014000Y323000D02*
X1022000D01*
X1014000Y339000D02*
X1022000D01*
X1110617Y453500D02*
Y461500D01*
X1094617D02*
X1094617Y453500D01*
X1068333D02*
Y461500D01*
X1084333Y453500D02*
Y461500D01*
X1177628Y288415D02*
X1177628Y280415D01*
X1161628D02*
Y288415D01*
X1177585Y311458D02*
Y319457D01*
X1161585Y311458D02*
Y319457D01*
X1152043Y311458D02*
X1152043Y319457D01*
X1136043D02*
X1136043Y311458D01*
X1123543Y288415D02*
X1123543Y280415D01*
X1107543D02*
Y288415D01*
X1056458Y280415D02*
Y288415D01*
X1072458Y280415D02*
Y288415D01*
X1082000Y280415D02*
Y288415D01*
X1098000Y280415D02*
Y288415D01*
X1110500Y311458D02*
Y319457D01*
X1126500Y311458D02*
Y319457D01*
X1199543Y362000D02*
X1207543D01*
X1199543Y378000D02*
X1207543D01*
X1170000D02*
X1178000D01*
X1170000Y362000D02*
X1178000D01*
X1038000Y415000D02*
X1046000D01*
X1038000Y431000D02*
X1046000D01*
X1058458Y453500D02*
Y461500D01*
X1042458Y453500D02*
Y461500D01*
X1133999Y437189D02*
X1141999D01*
X1133999Y421189D02*
X1141999D01*
X1134000Y411543D02*
X1142000D01*
X1134000Y395543D02*
X1142000D01*
X1134000Y370000D02*
X1142000D01*
X1134000Y386000D02*
X1142000D01*
X558000Y430207D02*
Y438208D01*
X542000Y430207D02*
Y438208D01*
X523000Y430207D02*
Y438208D01*
X507000Y430207D02*
Y438208D01*
X612000Y430207D02*
X612000Y438208D01*
X596000D02*
X596000Y430207D01*
X647000D02*
Y438208D01*
X631000Y430207D02*
Y438208D01*
X857000Y373543D02*
X865000D01*
X857000Y357543D02*
X865000D01*
X1056415Y311458D02*
Y319457D01*
X1072415Y311458D02*
Y319457D01*
X937000Y310293D02*
X945000Y310293D01*
X937000Y294293D02*
X945000Y294293D01*
X937000Y336750D02*
X945000Y336750D01*
X937000Y320750D02*
X945000D01*
X937000Y362293D02*
X945000Y362293D01*
X937000Y346293D02*
X945000Y346293D01*
X416250Y477600D02*
Y488400D01*
X1207000Y326000D02*
Y334000D01*
X1191000Y326000D02*
Y334000D01*
X1232543Y326000D02*
Y334000D01*
X1216543Y326000D02*
Y334000D01*
X873000Y325000D02*
X881000D01*
X873000Y341000D02*
X881000D01*
X873000Y315458D02*
X881000D01*
X873000Y299458D02*
X881000D01*
X343000Y297000D02*
Y305000D01*
X327000Y297000D02*
Y305000D01*
X398793Y297000D02*
Y305000D01*
X414793Y297000D02*
Y305000D01*
X1149840Y543797D02*
G03*
X1149840Y543797I-500J0D01*
G01*
X1085202Y556076D02*
G03*
X1085202Y556076I-500J0D01*
G01*
X1094000Y609000D02*
Y617000D01*
X1110000Y609000D02*
Y617000D01*
X1136300Y711500D02*
X1136300Y703500D01*
X1120300Y711500D02*
X1120300Y703500D01*
X1214000Y655543D02*
Y663543D01*
X1198000Y655543D02*
Y663543D01*
X1014000Y573000D02*
X1022000D01*
X1014000Y589000D02*
X1022000D01*
X1110617Y703500D02*
Y711500D01*
X1094617D02*
X1094617Y703500D01*
X1068333D02*
Y711500D01*
X1084333Y703500D02*
Y711500D01*
X1177628Y538415D02*
X1177628Y530415D01*
X1161628D02*
Y538415D01*
X1177585Y561458D02*
Y569458D01*
X1161585Y561458D02*
Y569458D01*
X1152043Y561458D02*
X1152043Y569458D01*
X1136043D02*
X1136043Y561458D01*
X1123543Y538415D02*
X1123543Y530415D01*
X1107543D02*
Y538415D01*
X1056458Y530415D02*
Y538415D01*
X1072458Y530415D02*
Y538415D01*
X1082000Y530415D02*
Y538415D01*
X1098000Y530415D02*
Y538415D01*
X1110500Y561458D02*
Y569458D01*
X1126500Y561458D02*
Y569458D01*
X1199543Y612000D02*
X1207543D01*
X1199543Y628000D02*
X1207543D01*
X1170000D02*
X1178000D01*
X1170000Y612000D02*
X1178000D01*
X1038000Y665000D02*
X1046000D01*
X1038000Y681000D02*
X1046000D01*
X1058458Y703500D02*
Y711500D01*
X1042458Y703500D02*
Y711500D01*
X1133999Y687189D02*
X1141999D01*
X1133999Y671189D02*
X1141999D01*
X1134000Y661543D02*
X1142000D01*
X1134000Y645543D02*
X1142000D01*
X1134000Y620000D02*
X1142000D01*
X1134000Y636000D02*
X1142000D01*
X558000Y680208D02*
Y688208D01*
X542000Y680208D02*
Y688208D01*
X523000Y680208D02*
Y688208D01*
X507000Y680208D02*
Y688208D01*
X612000Y680208D02*
X612000Y688208D01*
X596000D02*
X596000Y680208D01*
X647000D02*
Y688208D01*
X631000Y680208D02*
Y688208D01*
X857000Y623543D02*
X865000D01*
X857000Y607543D02*
X865000D01*
X1056415Y561458D02*
Y569458D01*
X1072415Y561458D02*
Y569458D01*
X937000Y560293D02*
X945000Y560293D01*
X937000Y544293D02*
X945000Y544293D01*
X937000Y586750D02*
X945000Y586750D01*
X937000Y570750D02*
X945000D01*
X937000Y612293D02*
X945000Y612293D01*
X937000Y596293D02*
X945000Y596293D01*
X416250Y727600D02*
Y738400D01*
X1207000Y576000D02*
Y584000D01*
X1191000Y576000D02*
Y584000D01*
X1232543Y576000D02*
Y584000D01*
X1216543Y576000D02*
Y584000D01*
X873000Y575000D02*
X881000D01*
X873000Y591000D02*
X881000D01*
X873000Y565458D02*
X881000D01*
X873000Y549458D02*
X881000D01*
X343000Y547000D02*
Y555000D01*
X327000Y547000D02*
Y555000D01*
X398793Y547000D02*
Y555000D01*
X414793Y547000D02*
Y555000D01*
X1149840Y793797D02*
G03*
X1149840Y793797I-500J0D01*
G01*
X1085202Y806076D02*
G03*
X1085202Y806076I-500J0D01*
G01*
X1094000Y859000D02*
Y867000D01*
X1110000Y859000D02*
Y867000D01*
X1136300Y961500D02*
X1136300Y953500D01*
X1120300Y961500D02*
X1120300Y953500D01*
X1214000Y905543D02*
Y913543D01*
X1198000Y905543D02*
Y913543D01*
X1014000Y823000D02*
X1022000D01*
X1014000Y839000D02*
X1022000D01*
X1110617Y953500D02*
Y961500D01*
X1094617D02*
X1094617Y953500D01*
X1068333D02*
Y961500D01*
X1084333Y953500D02*
Y961500D01*
X1177628Y788415D02*
X1177628Y780415D01*
X1161628D02*
Y788415D01*
X1177585Y811458D02*
Y819458D01*
X1161585Y811458D02*
Y819458D01*
X1152043Y811458D02*
X1152043Y819458D01*
X1136043D02*
X1136043Y811458D01*
X1123543Y788415D02*
X1123543Y780415D01*
X1107543D02*
Y788415D01*
X1056458Y780415D02*
Y788415D01*
X1072458Y780415D02*
Y788415D01*
X1082000Y780415D02*
Y788415D01*
X1098000Y780415D02*
Y788415D01*
X1110500Y811458D02*
Y819458D01*
X1126500Y811458D02*
Y819458D01*
X1199543Y862000D02*
X1207543D01*
X1199543Y878000D02*
X1207543D01*
X1170000D02*
X1178000D01*
X1170000Y862000D02*
X1178000D01*
X1038000Y915000D02*
X1046000D01*
X1038000Y931000D02*
X1046000D01*
X1058458Y953500D02*
Y961500D01*
X1042458Y953500D02*
Y961500D01*
X1133999Y937189D02*
X1141999D01*
X1133999Y921189D02*
X1141999D01*
X1134000Y911543D02*
X1142000D01*
X1134000Y895543D02*
X1142000D01*
X1134000Y870000D02*
X1142000D01*
X1134000Y886000D02*
X1142000D01*
X558000Y930208D02*
Y938208D01*
X542000Y930208D02*
Y938208D01*
X523000Y930208D02*
Y938208D01*
X507000Y930208D02*
Y938208D01*
X612000Y930208D02*
X612000Y938208D01*
X596000D02*
X596000Y930208D01*
X647000D02*
Y938208D01*
X631000Y930208D02*
Y938208D01*
X857000Y873543D02*
X865000D01*
X857000Y857543D02*
X865000D01*
X1056415Y811458D02*
Y819458D01*
X1072415Y811458D02*
Y819458D01*
X937000Y810293D02*
X945000Y810293D01*
X937000Y794293D02*
X945000Y794293D01*
X937000Y836750D02*
X945000Y836750D01*
X937000Y820750D02*
X945000D01*
X937000Y862293D02*
X945000Y862293D01*
X937000Y846293D02*
X945000Y846293D01*
X416250Y977600D02*
Y988400D01*
X1207000Y826000D02*
Y834000D01*
X1191000Y826000D02*
Y834000D01*
X1232543Y826000D02*
Y834000D01*
X1216543Y826000D02*
Y834000D01*
X873000Y825000D02*
X881000D01*
X873000Y841000D02*
X881000D01*
X873000Y815458D02*
X881000D01*
X873000Y799458D02*
X881000D01*
X343000Y797000D02*
Y805000D01*
X327000Y797000D02*
Y805000D01*
X398793Y797000D02*
Y805000D01*
X414793Y797000D02*
Y805000D01*
X1149840Y1043797D02*
G03*
X1149840Y1043797I-500J0D01*
G01*
X1085202Y1056076D02*
G03*
X1085202Y1056076I-500J0D01*
G01*
X1094000Y1109000D02*
Y1117000D01*
X1110000Y1109000D02*
Y1117000D01*
X1136300Y1211500D02*
X1136300Y1203500D01*
X1120300Y1211500D02*
X1120300Y1203500D01*
X1214000Y1155543D02*
Y1163543D01*
X1198000Y1155543D02*
Y1163543D01*
X1014000Y1073000D02*
X1022000D01*
X1014000Y1089000D02*
X1022000D01*
X1110617Y1203500D02*
Y1211500D01*
X1094617D02*
X1094617Y1203500D01*
X1068333D02*
Y1211500D01*
X1084333Y1203500D02*
Y1211500D01*
X1177628Y1038415D02*
X1177628Y1030415D01*
X1161628D02*
Y1038415D01*
X1177585Y1061458D02*
Y1069458D01*
X1161585Y1061458D02*
Y1069458D01*
X1152043Y1061458D02*
X1152043Y1069458D01*
X1136043D02*
X1136043Y1061458D01*
X1123543Y1038415D02*
X1123543Y1030415D01*
X1107543D02*
Y1038415D01*
X1056458Y1030415D02*
Y1038415D01*
X1072458Y1030415D02*
Y1038415D01*
X1082000Y1030415D02*
Y1038415D01*
X1098000Y1030415D02*
Y1038415D01*
X1110500Y1061458D02*
Y1069458D01*
X1126500Y1061458D02*
Y1069458D01*
X1199543Y1112000D02*
X1207543D01*
X1199543Y1128000D02*
X1207543D01*
X1170000D02*
X1178000D01*
X1170000Y1112000D02*
X1178000D01*
X1038000Y1165000D02*
X1046000D01*
X1038000Y1181000D02*
X1046000D01*
X1058458Y1203500D02*
Y1211500D01*
X1042458Y1203500D02*
Y1211500D01*
X1133999Y1187189D02*
X1141999D01*
X1133999Y1171189D02*
X1141999D01*
X1134000Y1161543D02*
X1142000D01*
X1134000Y1145543D02*
X1142000D01*
X1134000Y1120000D02*
X1142000D01*
X1134000Y1136000D02*
X1142000D01*
X558000Y1180208D02*
Y1188208D01*
X542000Y1180208D02*
Y1188208D01*
X523000Y1180208D02*
Y1188208D01*
X507000Y1180208D02*
Y1188208D01*
X612000Y1180208D02*
X612000Y1188208D01*
X596000D02*
X596000Y1180208D01*
X647000D02*
Y1188208D01*
X631000Y1180208D02*
Y1188208D01*
X857000Y1123543D02*
X865000D01*
X857000Y1107543D02*
X865000D01*
X1056415Y1061458D02*
Y1069458D01*
X1072415Y1061458D02*
Y1069458D01*
X937000Y1060293D02*
X945000Y1060293D01*
X937000Y1044293D02*
X945000Y1044293D01*
X937000Y1086750D02*
X945000Y1086750D01*
X937000Y1070750D02*
X945000D01*
X937000Y1112293D02*
X945000Y1112293D01*
X937000Y1096293D02*
X945000Y1096293D01*
X416250Y1227600D02*
Y1238400D01*
X1207000Y1076000D02*
Y1084000D01*
X1191000Y1076000D02*
Y1084000D01*
X1232543Y1076000D02*
Y1084000D01*
X1216543Y1076000D02*
Y1084000D01*
X873000Y1075000D02*
X881000D01*
X873000Y1091000D02*
X881000D01*
X873000Y1065458D02*
X881000D01*
X873000Y1049458D02*
X881000D01*
X343000Y1047000D02*
Y1055000D01*
X327000Y1047000D02*
Y1055000D01*
X398793Y1047000D02*
Y1055000D01*
X414793Y1047000D02*
Y1055000D01*
D43*
X263768Y429116D02*
X262710Y430174D01*
X260594D01*
X259536Y429116D01*
Y424884D01*
X260594Y423826D01*
X262710D01*
X263768Y424884D01*
X265884Y429116D02*
X266942Y430174D01*
X269058D01*
X270116Y429116D01*
Y428058D01*
X269058Y427000D01*
X268000D01*
X269058D01*
X270116Y425942D01*
Y424884D01*
X269058Y423826D01*
X266942D01*
X265884Y424884D01*
X276464Y430174D02*
X274348Y429116D01*
X272232Y427000D01*
Y424884D01*
X273290Y423826D01*
X275406D01*
X276464Y424884D01*
Y425942D01*
X275406Y427000D01*
X272232D01*
X1114710Y358826D02*
Y365174D01*
X1117884D01*
X1118942Y364116D01*
Y362000D01*
X1117884Y360942D01*
X1114710D01*
X1116826D02*
X1118942Y358826D01*
X1121058Y359884D02*
X1122116Y358826D01*
X1124232D01*
X1125290Y359884D01*
Y364116D01*
X1124232Y365174D01*
X1122116D01*
X1121058Y364116D01*
Y363058D01*
X1122116Y362000D01*
X1125290D01*
X1142710Y454826D02*
Y461174D01*
X1145884D01*
X1146942Y460116D01*
Y458000D01*
X1145884Y456942D01*
X1142710D01*
X1144826D02*
X1146942Y454826D01*
X1149058Y461174D02*
X1153290D01*
Y460116D01*
X1149058Y455884D01*
Y454826D01*
X1220065Y405826D02*
Y412174D01*
X1223239D01*
X1224297Y411116D01*
Y409000D01*
X1223239Y407942D01*
X1220065D01*
X1222181D02*
X1224297Y405826D01*
X1226413D02*
X1228529D01*
X1227471D01*
Y412174D01*
X1226413Y411116D01*
X1231703D02*
X1232761Y412174D01*
X1234877D01*
X1235935Y411116D01*
Y410058D01*
X1234877Y409000D01*
X1235935Y407942D01*
Y406884D01*
X1234877Y405826D01*
X1232761D01*
X1231703Y406884D01*
Y407942D01*
X1232761Y409000D01*
X1231703Y410058D01*
Y411116D01*
X1232761Y409000D02*
X1234877D01*
X1012710Y343826D02*
Y350174D01*
X1015884D01*
X1016942Y349116D01*
Y347000D01*
X1015884Y345942D01*
X1012710D01*
X1014826D02*
X1016942Y343826D01*
X1023290Y350174D02*
X1021174Y349116D01*
X1019058Y347000D01*
Y344884D01*
X1020116Y343826D01*
X1022232D01*
X1023290Y344884D01*
Y345942D01*
X1022232Y347000D01*
X1019058D01*
X351132Y426052D02*
Y420762D01*
X352190Y419704D01*
X354306D01*
X355364Y420762D01*
Y426052D01*
X361712D02*
X359596Y424994D01*
X357480Y422878D01*
Y420762D01*
X358538Y419704D01*
X360654D01*
X361712Y420762D01*
Y421820D01*
X360654Y422878D01*
X357480D01*
X691324Y286448D02*
Y292796D01*
X694498D01*
X695556Y291738D01*
Y289622D01*
X694498Y288564D01*
X691324D01*
X697672Y287506D02*
X698730Y286448D01*
X700846D01*
X701904Y287506D01*
Y291738D01*
X700846Y292796D01*
X698730D01*
X697672Y291738D01*
Y290680D01*
X698730Y289622D01*
X701904D01*
X599710Y489826D02*
Y496174D01*
X602884D01*
X603942Y495116D01*
Y493000D01*
X602884Y491942D01*
X599710D01*
X606058Y496174D02*
X610290D01*
Y495116D01*
X606058Y490884D01*
Y489826D01*
X485330Y407352D02*
Y413700D01*
X488504D01*
X489562Y412642D01*
Y410526D01*
X488504Y409468D01*
X485330D01*
X495910Y413700D02*
X493794Y412642D01*
X491678Y410526D01*
Y408410D01*
X492736Y407352D01*
X494852D01*
X495910Y408410D01*
Y409468D01*
X494852Y410526D01*
X491678D01*
X317710Y269826D02*
Y276174D01*
X320884D01*
X321942Y275116D01*
Y273000D01*
X320884Y271942D01*
X317710D01*
X324058Y275116D02*
X325116Y276174D01*
X327232D01*
X328290Y275116D01*
Y274058D01*
X327232Y273000D01*
X328290Y271942D01*
Y270884D01*
X327232Y269826D01*
X325116D01*
X324058Y270884D01*
Y271942D01*
X325116Y273000D01*
X324058Y274058D01*
Y275116D01*
X325116Y273000D02*
X327232D01*
X1051000Y372884D02*
Y377116D01*
X1049942Y378174D01*
X1047826D01*
X1046768Y377116D01*
Y372884D01*
X1047826Y371826D01*
X1049942D01*
X1048884Y373942D02*
X1051000Y371826D01*
X1049942D02*
X1051000Y372884D01*
X1053116Y371826D02*
X1055232D01*
X1054174D01*
Y378174D01*
X1053116Y377116D01*
X845465Y279826D02*
Y286174D01*
X848639D01*
X849697Y285116D01*
Y283000D01*
X848639Y281942D01*
X845465D01*
X851813Y279826D02*
X853929D01*
X852871D01*
Y286174D01*
X851813Y285116D01*
X857103D02*
X858161Y286174D01*
X860277D01*
X861335Y285116D01*
Y280884D01*
X860277Y279826D01*
X858161D01*
X857103Y280884D01*
Y285116D01*
X1106065Y472826D02*
Y479174D01*
X1109239D01*
X1110297Y478116D01*
Y476000D01*
X1109239Y474942D01*
X1106065D01*
X1108181D02*
X1110297Y472826D01*
X1112413D02*
X1114529D01*
X1113471D01*
Y479174D01*
X1112413Y478116D01*
X1117703D02*
X1118761Y479174D01*
X1120877D01*
X1121935Y478116D01*
Y473884D01*
X1120877Y472826D01*
X1118761D01*
X1117703Y473884D01*
Y478116D01*
X1055768Y443174D02*
Y437884D01*
X1056826Y436826D01*
X1058942D01*
X1060000Y437884D01*
Y443174D01*
X1062116Y436826D02*
X1064232D01*
X1063174D01*
Y443174D01*
X1062116Y442116D01*
X1059710Y466826D02*
Y473174D01*
X1062884D01*
X1063942Y472116D01*
Y470000D01*
X1062884Y468942D01*
X1059710D01*
X1061826D02*
X1063942Y466826D01*
X1066058Y472116D02*
X1067116Y473174D01*
X1069232D01*
X1070290Y472116D01*
Y471058D01*
X1069232Y470000D01*
X1070290Y468942D01*
Y467884D01*
X1069232Y466826D01*
X1067116D01*
X1066058Y467884D01*
Y468942D01*
X1067116Y470000D01*
X1066058Y471058D01*
Y472116D01*
X1067116Y470000D02*
X1069232D01*
X1105710Y489826D02*
Y496174D01*
X1108884D01*
X1109942Y495116D01*
Y493000D01*
X1108884Y491942D01*
X1105710D01*
X1115232Y489826D02*
Y496174D01*
X1112058Y493000D01*
X1116290D01*
X1191196Y286448D02*
Y292796D01*
X1194370D01*
X1195428Y291738D01*
Y289622D01*
X1194370Y288564D01*
X1191196D01*
X1201776Y286448D02*
X1197544D01*
X1201776Y290680D01*
Y291738D01*
X1200718Y292796D01*
X1198602D01*
X1197544Y291738D01*
X985202Y407352D02*
Y413700D01*
X988376D01*
X989434Y412642D01*
Y410526D01*
X988376Y409468D01*
X985202D01*
X991550Y412642D02*
X992608Y413700D01*
X994724D01*
X995782Y412642D01*
Y411584D01*
X994724Y410526D01*
X993666D01*
X994724D01*
X995782Y409468D01*
Y408410D01*
X994724Y407352D01*
X992608D01*
X991550Y408410D01*
X996000Y490116D02*
X994942Y491174D01*
X992826D01*
X991768Y490116D01*
Y485884D01*
X992826Y484826D01*
X994942D01*
X996000Y485884D01*
X998116Y484826D02*
X1000232D01*
X999174D01*
Y491174D01*
X998116Y490116D01*
X1169606Y489394D02*
Y495742D01*
X1172780D01*
X1173838Y494684D01*
Y492568D01*
X1172780Y491510D01*
X1169606D01*
X1171722D02*
X1173838Y489394D01*
X1175954Y495742D02*
X1180186D01*
X1178070D01*
Y489394D01*
X1182302D02*
X1184418D01*
X1183360D01*
Y495742D01*
X1182302Y494684D01*
X1166297Y268531D02*
X1165239Y269589D01*
X1163123D01*
X1162065Y268531D01*
Y264299D01*
X1163123Y263241D01*
X1165239D01*
X1166297Y264299D01*
X1168413Y263241D02*
X1170529D01*
X1169471D01*
Y269589D01*
X1168413Y268531D01*
X1177935Y269589D02*
X1173703D01*
Y266415D01*
X1175819Y267473D01*
X1176877D01*
X1177935Y266415D01*
Y264299D01*
X1176877Y263241D01*
X1174761D01*
X1173703Y264299D01*
X1136710Y269632D02*
Y264342D01*
X1137768Y263284D01*
X1139884D01*
X1140942Y264342D01*
Y269632D01*
X1147290D02*
X1143058D01*
Y266458D01*
X1145174Y267516D01*
X1146232D01*
X1147290Y266458D01*
Y264342D01*
X1146232Y263284D01*
X1144116D01*
X1143058Y264342D01*
X1165755Y336074D02*
X1164697Y337132D01*
X1162581D01*
X1161523Y336074D01*
Y331842D01*
X1162581Y330784D01*
X1164697D01*
X1165755Y331842D01*
X1167871Y330784D02*
X1169987D01*
X1168929D01*
Y337132D01*
X1167871Y336074D01*
X1173160D02*
X1174219Y337132D01*
X1176335D01*
X1177393Y336074D01*
Y335016D01*
X1176335Y333958D01*
X1177393Y332900D01*
Y331842D01*
X1176335Y330784D01*
X1174219D01*
X1173160Y331842D01*
Y332900D01*
X1174219Y333958D01*
X1173160Y335016D01*
Y336074D01*
X1174219Y333958D02*
X1176335D01*
X1140755Y336074D02*
X1139697Y337132D01*
X1137581D01*
X1136523Y336074D01*
Y331842D01*
X1137581Y330784D01*
X1139697D01*
X1140755Y331842D01*
X1142871Y330784D02*
X1144987D01*
X1143929D01*
Y337132D01*
X1142871Y336074D01*
X1148160Y337132D02*
X1152393D01*
Y336074D01*
X1148160Y331842D01*
Y330784D01*
X1086710Y336174D02*
Y330884D01*
X1087768Y329826D01*
X1089884D01*
X1090942Y330884D01*
Y336174D01*
X1096232Y329826D02*
Y336174D01*
X1093058Y333000D01*
X1097290D01*
X1112297Y268531D02*
X1111239Y269589D01*
X1109123D01*
X1108065Y268531D01*
Y264299D01*
X1109123Y263241D01*
X1111239D01*
X1112297Y264299D01*
X1114413Y263241D02*
X1116529D01*
X1115471D01*
Y269589D01*
X1114413Y268531D01*
X1123935Y269589D02*
X1121819Y268531D01*
X1119703Y266415D01*
Y264299D01*
X1120761Y263241D01*
X1122877D01*
X1123935Y264299D01*
Y265357D01*
X1122877Y266415D01*
X1119703D01*
X1086297Y268531D02*
X1085239Y269589D01*
X1083123D01*
X1082065Y268531D01*
Y264299D01*
X1083123Y263241D01*
X1085239D01*
X1086297Y264299D01*
X1088413Y263241D02*
X1090529D01*
X1089471D01*
Y269589D01*
X1088413Y268531D01*
X1093703D02*
X1094761Y269589D01*
X1096877D01*
X1097935Y268531D01*
Y267473D01*
X1096877Y266415D01*
X1095819D01*
X1096877D01*
X1097935Y265357D01*
Y264299D01*
X1096877Y263241D01*
X1094761D01*
X1093703Y264299D01*
X1062297Y268531D02*
X1061239Y269589D01*
X1059123D01*
X1058065Y268531D01*
Y264299D01*
X1059123Y263241D01*
X1061239D01*
X1062297Y264299D01*
X1064413Y263241D02*
X1066529D01*
X1065471D01*
Y269589D01*
X1064413Y268531D01*
X1072877Y263241D02*
Y269589D01*
X1069703Y266415D01*
X1073935D01*
X1115813Y335574D02*
X1114755Y336632D01*
X1112639D01*
X1111581Y335574D01*
Y331342D01*
X1112639Y330284D01*
X1114755D01*
X1115813Y331342D01*
X1117929Y330284D02*
X1120045D01*
X1118987D01*
Y336632D01*
X1117929Y335574D01*
X1123219Y330284D02*
X1125335D01*
X1124277D01*
Y336632D01*
X1123219Y335574D01*
X1037768Y410174D02*
Y403826D01*
X1042000D01*
X1044116D02*
X1046232D01*
X1045174D01*
Y410174D01*
X1044116Y409116D01*
X1198768Y388116D02*
X1197710Y389174D01*
X1195594D01*
X1194536Y388116D01*
Y383884D01*
X1195594Y382826D01*
X1197710D01*
X1198768Y383884D01*
X1204058Y382826D02*
Y389174D01*
X1200884Y386000D01*
X1205116D01*
X1207232Y388116D02*
X1208290Y389174D01*
X1210406D01*
X1211464Y388116D01*
Y383884D01*
X1210406Y382826D01*
X1208290D01*
X1207232Y383884D01*
Y388116D01*
X1169768D02*
X1168710Y389174D01*
X1166594D01*
X1165536Y388116D01*
Y383884D01*
X1166594Y382826D01*
X1168710D01*
X1169768Y383884D01*
X1171884Y388116D02*
X1172942Y389174D01*
X1175058D01*
X1176116Y388116D01*
Y387058D01*
X1175058Y386000D01*
X1174000D01*
X1175058D01*
X1176116Y384942D01*
Y383884D01*
X1175058Y382826D01*
X1172942D01*
X1171884Y383884D01*
X1178232D02*
X1179290Y382826D01*
X1181406D01*
X1182464Y383884D01*
Y388116D01*
X1181406Y389174D01*
X1179290D01*
X1178232Y388116D01*
Y387058D01*
X1179290Y386000D01*
X1182464D01*
X1036710Y436826D02*
Y443174D01*
X1039884D01*
X1040942Y442116D01*
Y440000D01*
X1039884Y438942D01*
X1036710D01*
X1038826D02*
X1040942Y436826D01*
X1043058Y442116D02*
X1044116Y443174D01*
X1046232D01*
X1047290Y442116D01*
Y441058D01*
X1046232Y440000D01*
X1045174D01*
X1046232D01*
X1047290Y438942D01*
Y437884D01*
X1046232Y436826D01*
X1044116D01*
X1043058Y437884D01*
X1032710Y466826D02*
Y473174D01*
X1035884D01*
X1036942Y472116D01*
Y470000D01*
X1035884Y468942D01*
X1032710D01*
X1034826D02*
X1036942Y466826D01*
X1043290D02*
X1039058D01*
X1043290Y471058D01*
Y472116D01*
X1042232Y473174D01*
X1040116D01*
X1039058Y472116D01*
X1153709Y427015D02*
Y433363D01*
X1156883D01*
X1157941Y432305D01*
Y430189D01*
X1156883Y429131D01*
X1153709D01*
X1155825D02*
X1157941Y427015D01*
X1163231D02*
Y433363D01*
X1160057Y430189D01*
X1164289D01*
X1153710Y401369D02*
Y407717D01*
X1156884D01*
X1157942Y406659D01*
Y404543D01*
X1156884Y403485D01*
X1153710D01*
X1155826D02*
X1157942Y401369D01*
X1164290Y407717D02*
X1160058D01*
Y404543D01*
X1162174Y405601D01*
X1163232D01*
X1164290Y404543D01*
Y402427D01*
X1163232Y401369D01*
X1161116D01*
X1160058Y402427D01*
X1130768Y358826D02*
Y365174D01*
X1133942D01*
X1135000Y364116D01*
Y362000D01*
X1133942Y360942D01*
X1130768D01*
X1132884D02*
X1135000Y358826D01*
X1137116D02*
X1139232D01*
X1138174D01*
Y365174D01*
X1137116Y364116D01*
X545768Y418324D02*
X544710Y419381D01*
X542594D01*
X541536Y418324D01*
Y414092D01*
X542594Y413034D01*
X544710D01*
X545768Y414092D01*
X552116Y413034D02*
X547884D01*
X552116Y417266D01*
Y418324D01*
X551058Y419381D01*
X548942D01*
X547884Y418324D01*
X554232D02*
X555290Y419381D01*
X557406D01*
X558464Y418324D01*
Y414092D01*
X557406Y413034D01*
X555290D01*
X554232Y414092D01*
Y418324D01*
X511297D02*
X510239Y419381D01*
X508123D01*
X507065Y418324D01*
Y414092D01*
X508123Y413034D01*
X510239D01*
X511297Y414092D01*
X513413Y413034D02*
X515529D01*
X514471D01*
Y419381D01*
X513413Y418324D01*
X518703Y414092D02*
X519761Y413034D01*
X521877D01*
X522935Y414092D01*
Y418324D01*
X521877Y419381D01*
X519761D01*
X518703Y418324D01*
Y417266D01*
X519761Y416208D01*
X522935D01*
X601826Y418116D02*
X600768Y419174D01*
X598652D01*
X597594Y418116D01*
Y413884D01*
X598652Y412826D01*
X600768D01*
X601826Y413884D01*
X608174Y412826D02*
X603942D01*
X608174Y417058D01*
Y418116D01*
X607116Y419174D01*
X605000D01*
X603942Y418116D01*
X610290Y412826D02*
X612406D01*
X611348D01*
Y419174D01*
X610290Y418116D01*
X528560Y471174D02*
Y464826D01*
X532792D01*
X539140D02*
X534908D01*
X539140Y469058D01*
Y470116D01*
X538082Y471174D01*
X535966D01*
X534908Y470116D01*
X634768Y418324D02*
X633710Y419381D01*
X631594D01*
X630536Y418324D01*
Y414092D01*
X631594Y413034D01*
X633710D01*
X634768Y414092D01*
X641116Y413034D02*
X636884D01*
X641116Y417266D01*
Y418324D01*
X640058Y419381D01*
X637942D01*
X636884Y418324D01*
X647464Y413034D02*
X643232D01*
X647464Y417266D01*
Y418324D01*
X646406Y419381D01*
X644290D01*
X643232Y418324D01*
X615710Y472174D02*
Y465826D01*
X619942D01*
X622058Y471116D02*
X623116Y472174D01*
X625232D01*
X626290Y471116D01*
Y470058D01*
X625232Y469000D01*
X624174D01*
X625232D01*
X626290Y467942D01*
Y466884D01*
X625232Y465826D01*
X623116D01*
X622058Y466884D01*
X876065Y362369D02*
Y368717D01*
X879239D01*
X880297Y367659D01*
Y365543D01*
X879239Y364485D01*
X876065D01*
X878181D02*
X880297Y362369D01*
X882413D02*
X884529D01*
X883471D01*
Y368717D01*
X882413Y367659D01*
X891935Y368717D02*
X887703D01*
Y365543D01*
X889819Y366601D01*
X890877D01*
X891935Y365543D01*
Y363427D01*
X890877Y362369D01*
X888761D01*
X887703Y363427D01*
X1039297Y318116D02*
X1038239Y319174D01*
X1036123D01*
X1035065Y318116D01*
Y313884D01*
X1036123Y312826D01*
X1038239D01*
X1039297Y313884D01*
X1041413Y312826D02*
X1043529D01*
X1042471D01*
Y319174D01*
X1041413Y318116D01*
X1050935Y312826D02*
X1046703D01*
X1050935Y317058D01*
Y318116D01*
X1049877Y319174D01*
X1047761D01*
X1046703Y318116D01*
X957065Y299661D02*
Y306009D01*
X960239D01*
X961297Y304951D01*
Y302835D01*
X960239Y301777D01*
X957065D01*
X959181D02*
X961297Y299661D01*
X963413D02*
X965529D01*
X964471D01*
Y306009D01*
X963413Y304951D01*
X971877Y299661D02*
Y306009D01*
X968703Y302835D01*
X972935D01*
X957065Y326034D02*
Y332382D01*
X960239D01*
X961297Y331324D01*
Y329208D01*
X960239Y328150D01*
X957065D01*
X959181D02*
X961297Y326034D01*
X963413D02*
X965529D01*
X964471D01*
Y332382D01*
X963413Y331324D01*
X968703D02*
X969761Y332382D01*
X971877D01*
X972935Y331324D01*
Y330266D01*
X971877Y329208D01*
X970819D01*
X971877D01*
X972935Y328150D01*
Y327092D01*
X971877Y326034D01*
X969761D01*
X968703Y327092D01*
X957065Y351119D02*
Y357467D01*
X960239D01*
X961297Y356409D01*
Y354293D01*
X960239Y353235D01*
X957065D01*
X959181D02*
X961297Y351119D01*
X963413D02*
X965529D01*
X964471D01*
Y357467D01*
X963413Y356409D01*
X972935Y351119D02*
X968703D01*
X972935Y355351D01*
Y356409D01*
X971877Y357467D01*
X969761D01*
X968703Y356409D01*
X429710Y426174D02*
Y425116D01*
X431826Y423000D01*
X433942Y425116D01*
Y426174D01*
X431826Y423000D02*
Y419826D01*
X440290D02*
X436058D01*
X440290Y424058D01*
Y425116D01*
X439232Y426174D01*
X437116D01*
X436058Y425116D01*
X366768Y329174D02*
Y328116D01*
X368884Y326000D01*
X371000Y328116D01*
Y329174D01*
X368884Y326000D02*
Y322826D01*
X373116D02*
X375232D01*
X374174D01*
Y329174D01*
X373116Y328116D01*
X831942Y297116D02*
X830884Y298174D01*
X828768D01*
X827710Y297116D01*
Y296058D01*
X828768Y295000D01*
X830884D01*
X831942Y293942D01*
Y292884D01*
X830884Y291826D01*
X828768D01*
X827710Y292884D01*
X838290Y291826D02*
X834058D01*
X838290Y296058D01*
Y297116D01*
X837232Y298174D01*
X835116D01*
X834058Y297116D01*
X519026Y348888D02*
X517968Y349946D01*
X515852D01*
X514794Y348888D01*
Y347830D01*
X515852Y346772D01*
X517968D01*
X519026Y345714D01*
Y344656D01*
X517968Y343598D01*
X515852D01*
X514794Y344656D01*
X521142Y343598D02*
X523258D01*
X522200D01*
Y349946D01*
X521142Y348888D01*
X1191065Y308369D02*
Y314717D01*
X1194239D01*
X1195297Y313659D01*
Y311543D01*
X1194239Y310485D01*
X1191065D01*
X1193181D02*
X1195297Y308369D01*
X1197413D02*
X1199529D01*
X1198471D01*
Y314717D01*
X1197413Y313659D01*
X1202703Y314717D02*
X1206935D01*
Y313659D01*
X1202703Y309427D01*
Y308369D01*
X1216608Y308369D02*
Y314717D01*
X1219782D01*
X1220840Y313659D01*
Y311543D01*
X1219782Y310485D01*
X1216608D01*
X1218724D02*
X1220840Y308369D01*
X1222956D02*
X1225072D01*
X1224014D01*
Y314717D01*
X1222956Y313659D01*
X1232477Y314717D02*
X1230361Y313659D01*
X1228245Y311543D01*
Y309427D01*
X1229304Y308369D01*
X1231420D01*
X1232477Y309427D01*
Y310485D01*
X1231420Y311543D01*
X1228245D01*
X256010Y486826D02*
Y493174D01*
X259184D01*
X260242Y492116D01*
Y490000D01*
X259184Y488942D01*
X256010D01*
X266590Y493174D02*
X262358D01*
Y490000D01*
X264474Y491058D01*
X265532D01*
X266590Y490000D01*
Y487884D01*
X265532Y486826D01*
X263416D01*
X262358Y487884D01*
X755768Y449826D02*
Y456174D01*
X758942D01*
X760000Y455116D01*
Y453000D01*
X758942Y451942D01*
X755768D01*
X762116Y449826D02*
X764232D01*
X763174D01*
Y456174D01*
X762116Y455116D01*
X835942Y393174D02*
X833826D01*
X834884D01*
Y387884D01*
X833826Y386826D01*
X832768D01*
X831710Y387884D01*
X842290Y386826D02*
X838058D01*
X842290Y391058D01*
Y392116D01*
X841232Y393174D01*
X839116D01*
X838058Y392116D01*
X1045000Y302174D02*
X1042884D01*
X1043942D01*
Y296884D01*
X1042884Y295826D01*
X1041826D01*
X1040768Y296884D01*
X1047116Y295826D02*
X1049232D01*
X1048174D01*
Y302174D01*
X1047116Y301116D01*
X427674Y493232D02*
X421326D01*
Y490058D01*
X422384Y489000D01*
X426616D01*
X427674Y490058D01*
Y493232D01*
X421326Y486884D02*
Y484768D01*
Y485826D01*
X427674D01*
X426616Y486884D01*
X877768Y352116D02*
X876710Y353174D01*
X874594D01*
X873536Y352116D01*
Y347884D01*
X874594Y346826D01*
X876710D01*
X877768Y347884D01*
X879884Y352116D02*
X880942Y353174D01*
X883058D01*
X884116Y352116D01*
Y351058D01*
X883058Y350000D01*
X882000D01*
X883058D01*
X884116Y348942D01*
Y347884D01*
X883058Y346826D01*
X880942D01*
X879884Y347884D01*
X886232Y352116D02*
X887290Y353174D01*
X889406D01*
X890464Y352116D01*
Y351058D01*
X889406Y350000D01*
X890464Y348942D01*
Y347884D01*
X889406Y346826D01*
X887290D01*
X886232Y347884D01*
Y348942D01*
X887290Y350000D01*
X886232Y351058D01*
Y352116D01*
X887290Y350000D02*
X889406D01*
X876768Y293116D02*
X875710Y294174D01*
X873594D01*
X872536Y293116D01*
Y288884D01*
X873594Y287826D01*
X875710D01*
X876768Y288884D01*
X878884Y293116D02*
X879942Y294174D01*
X882058D01*
X883116Y293116D01*
Y292058D01*
X882058Y291000D01*
X881000D01*
X882058D01*
X883116Y289942D01*
Y288884D01*
X882058Y287826D01*
X879942D01*
X878884Y288884D01*
X885232Y294174D02*
X889464D01*
Y293116D01*
X885232Y288884D01*
Y287826D01*
X570588Y401212D02*
X569530Y402270D01*
X567414D01*
X566356Y401212D01*
Y396980D01*
X567414Y395922D01*
X569530D01*
X570588Y396980D01*
X572704Y401212D02*
X573762Y402270D01*
X575878D01*
X576936Y401212D01*
Y400154D01*
X575878Y399096D01*
X574820D01*
X575878D01*
X576936Y398038D01*
Y396980D01*
X575878Y395922D01*
X573762D01*
X572704Y396980D01*
X582226Y395922D02*
Y402270D01*
X579052Y399096D01*
X583284D01*
X402768Y327116D02*
X401710Y328174D01*
X399594D01*
X398536Y327116D01*
Y322884D01*
X399594Y321826D01*
X401710D01*
X402768Y322884D01*
X409116Y321826D02*
X404884D01*
X409116Y326058D01*
Y327116D01*
X408058Y328174D01*
X405942D01*
X404884Y327116D01*
X414406Y321826D02*
Y328174D01*
X411232Y325000D01*
X415464D01*
X328768Y327116D02*
X327710Y328174D01*
X325594D01*
X324536Y327116D01*
Y322884D01*
X325594Y321826D01*
X327710D01*
X328768Y322884D01*
X335116Y321826D02*
X330884D01*
X335116Y326058D01*
Y327116D01*
X334058Y328174D01*
X331942D01*
X330884Y327116D01*
X337232D02*
X338290Y328174D01*
X340406D01*
X341464Y327116D01*
Y326058D01*
X340406Y325000D01*
X339348D01*
X340406D01*
X341464Y323942D01*
Y322884D01*
X340406Y321826D01*
X338290D01*
X337232Y322884D01*
X263768Y679116D02*
X262710Y680174D01*
X260594D01*
X259536Y679116D01*
Y674884D01*
X260594Y673826D01*
X262710D01*
X263768Y674884D01*
X265884Y679116D02*
X266942Y680174D01*
X269058D01*
X270116Y679116D01*
Y678058D01*
X269058Y677000D01*
X268000D01*
X269058D01*
X270116Y675942D01*
Y674884D01*
X269058Y673826D01*
X266942D01*
X265884Y674884D01*
X276464Y680174D02*
X274348Y679116D01*
X272232Y677000D01*
Y674884D01*
X273290Y673826D01*
X275406D01*
X276464Y674884D01*
Y675942D01*
X275406Y677000D01*
X272232D01*
X1114710Y608826D02*
Y615174D01*
X1117884D01*
X1118942Y614116D01*
Y612000D01*
X1117884Y610942D01*
X1114710D01*
X1116826D02*
X1118942Y608826D01*
X1121058Y609884D02*
X1122116Y608826D01*
X1124232D01*
X1125290Y609884D01*
Y614116D01*
X1124232Y615174D01*
X1122116D01*
X1121058Y614116D01*
Y613058D01*
X1122116Y612000D01*
X1125290D01*
X1142710Y704826D02*
Y711174D01*
X1145884D01*
X1146942Y710116D01*
Y708000D01*
X1145884Y706942D01*
X1142710D01*
X1144826D02*
X1146942Y704826D01*
X1149058Y711174D02*
X1153290D01*
Y710116D01*
X1149058Y705884D01*
Y704826D01*
X1220065Y655826D02*
Y662174D01*
X1223239D01*
X1224297Y661116D01*
Y659000D01*
X1223239Y657942D01*
X1220065D01*
X1222181D02*
X1224297Y655826D01*
X1226413D02*
X1228529D01*
X1227471D01*
Y662174D01*
X1226413Y661116D01*
X1231703D02*
X1232761Y662174D01*
X1234877D01*
X1235935Y661116D01*
Y660058D01*
X1234877Y659000D01*
X1235935Y657942D01*
Y656884D01*
X1234877Y655826D01*
X1232761D01*
X1231703Y656884D01*
Y657942D01*
X1232761Y659000D01*
X1231703Y660058D01*
Y661116D01*
X1232761Y659000D02*
X1234877D01*
X1012710Y593826D02*
Y600174D01*
X1015884D01*
X1016942Y599116D01*
Y597000D01*
X1015884Y595942D01*
X1012710D01*
X1014826D02*
X1016942Y593826D01*
X1023290Y600174D02*
X1021174Y599116D01*
X1019058Y597000D01*
Y594884D01*
X1020116Y593826D01*
X1022232D01*
X1023290Y594884D01*
Y595942D01*
X1022232Y597000D01*
X1019058D01*
X351132Y676052D02*
Y670762D01*
X352190Y669704D01*
X354306D01*
X355364Y670762D01*
Y676052D01*
X361712D02*
X359596Y674994D01*
X357480Y672878D01*
Y670762D01*
X358538Y669704D01*
X360654D01*
X361712Y670762D01*
Y671820D01*
X360654Y672878D01*
X357480D01*
X691324Y536448D02*
Y542796D01*
X694498D01*
X695556Y541738D01*
Y539622D01*
X694498Y538564D01*
X691324D01*
X697672Y537506D02*
X698730Y536448D01*
X700846D01*
X701904Y537506D01*
Y541738D01*
X700846Y542796D01*
X698730D01*
X697672Y541738D01*
Y540680D01*
X698730Y539622D01*
X701904D01*
X599710Y739826D02*
Y746174D01*
X602884D01*
X603942Y745116D01*
Y743000D01*
X602884Y741942D01*
X599710D01*
X606058Y746174D02*
X610290D01*
Y745116D01*
X606058Y740884D01*
Y739826D01*
X485330Y657352D02*
Y663700D01*
X488504D01*
X489562Y662642D01*
Y660526D01*
X488504Y659468D01*
X485330D01*
X495910Y663700D02*
X493794Y662642D01*
X491678Y660526D01*
Y658410D01*
X492736Y657352D01*
X494852D01*
X495910Y658410D01*
Y659468D01*
X494852Y660526D01*
X491678D01*
X317710Y519826D02*
Y526174D01*
X320884D01*
X321942Y525116D01*
Y523000D01*
X320884Y521942D01*
X317710D01*
X324058Y525116D02*
X325116Y526174D01*
X327232D01*
X328290Y525116D01*
Y524058D01*
X327232Y523000D01*
X328290Y521942D01*
Y520884D01*
X327232Y519826D01*
X325116D01*
X324058Y520884D01*
Y521942D01*
X325116Y523000D01*
X324058Y524058D01*
Y525116D01*
X325116Y523000D02*
X327232D01*
X1051000Y622884D02*
Y627116D01*
X1049942Y628174D01*
X1047826D01*
X1046768Y627116D01*
Y622884D01*
X1047826Y621826D01*
X1049942D01*
X1048884Y623942D02*
X1051000Y621826D01*
X1049942D02*
X1051000Y622884D01*
X1053116Y621826D02*
X1055232D01*
X1054174D01*
Y628174D01*
X1053116Y627116D01*
X845465Y529826D02*
Y536174D01*
X848639D01*
X849697Y535116D01*
Y533000D01*
X848639Y531942D01*
X845465D01*
X851813Y529826D02*
X853929D01*
X852871D01*
Y536174D01*
X851813Y535116D01*
X857103D02*
X858161Y536174D01*
X860277D01*
X861335Y535116D01*
Y530884D01*
X860277Y529826D01*
X858161D01*
X857103Y530884D01*
Y535116D01*
X1106065Y722826D02*
Y729174D01*
X1109239D01*
X1110297Y728116D01*
Y726000D01*
X1109239Y724942D01*
X1106065D01*
X1108181D02*
X1110297Y722826D01*
X1112413D02*
X1114529D01*
X1113471D01*
Y729174D01*
X1112413Y728116D01*
X1117703D02*
X1118761Y729174D01*
X1120877D01*
X1121935Y728116D01*
Y723884D01*
X1120877Y722826D01*
X1118761D01*
X1117703Y723884D01*
Y728116D01*
X1055768Y693174D02*
Y687884D01*
X1056826Y686826D01*
X1058942D01*
X1060000Y687884D01*
Y693174D01*
X1062116Y686826D02*
X1064232D01*
X1063174D01*
Y693174D01*
X1062116Y692116D01*
X1059710Y716826D02*
Y723174D01*
X1062884D01*
X1063942Y722116D01*
Y720000D01*
X1062884Y718942D01*
X1059710D01*
X1061826D02*
X1063942Y716826D01*
X1066058Y722116D02*
X1067116Y723174D01*
X1069232D01*
X1070290Y722116D01*
Y721058D01*
X1069232Y720000D01*
X1070290Y718942D01*
Y717884D01*
X1069232Y716826D01*
X1067116D01*
X1066058Y717884D01*
Y718942D01*
X1067116Y720000D01*
X1066058Y721058D01*
Y722116D01*
X1067116Y720000D02*
X1069232D01*
X1105710Y739826D02*
Y746174D01*
X1108884D01*
X1109942Y745116D01*
Y743000D01*
X1108884Y741942D01*
X1105710D01*
X1115232Y739826D02*
Y746174D01*
X1112058Y743000D01*
X1116290D01*
X1191196Y536448D02*
Y542796D01*
X1194370D01*
X1195428Y541738D01*
Y539622D01*
X1194370Y538564D01*
X1191196D01*
X1201776Y536448D02*
X1197544D01*
X1201776Y540680D01*
Y541738D01*
X1200718Y542796D01*
X1198602D01*
X1197544Y541738D01*
X985202Y657352D02*
Y663700D01*
X988376D01*
X989434Y662642D01*
Y660526D01*
X988376Y659468D01*
X985202D01*
X991550Y662642D02*
X992608Y663700D01*
X994724D01*
X995782Y662642D01*
Y661584D01*
X994724Y660526D01*
X993666D01*
X994724D01*
X995782Y659468D01*
Y658410D01*
X994724Y657352D01*
X992608D01*
X991550Y658410D01*
X996000Y740116D02*
X994942Y741174D01*
X992826D01*
X991768Y740116D01*
Y735884D01*
X992826Y734826D01*
X994942D01*
X996000Y735884D01*
X998116Y734826D02*
X1000232D01*
X999174D01*
Y741174D01*
X998116Y740116D01*
X1169606Y739394D02*
Y745742D01*
X1172780D01*
X1173838Y744684D01*
Y742568D01*
X1172780Y741510D01*
X1169606D01*
X1171722D02*
X1173838Y739394D01*
X1175954Y745742D02*
X1180186D01*
X1178070D01*
Y739394D01*
X1182302D02*
X1184418D01*
X1183360D01*
Y745742D01*
X1182302Y744684D01*
X1166297Y518531D02*
X1165239Y519589D01*
X1163123D01*
X1162065Y518531D01*
Y514299D01*
X1163123Y513241D01*
X1165239D01*
X1166297Y514299D01*
X1168413Y513241D02*
X1170529D01*
X1169471D01*
Y519589D01*
X1168413Y518531D01*
X1177935Y519589D02*
X1173703D01*
Y516415D01*
X1175819Y517473D01*
X1176877D01*
X1177935Y516415D01*
Y514299D01*
X1176877Y513241D01*
X1174761D01*
X1173703Y514299D01*
X1136710Y519632D02*
Y514342D01*
X1137768Y513284D01*
X1139884D01*
X1140942Y514342D01*
Y519632D01*
X1147290D02*
X1143058D01*
Y516458D01*
X1145174Y517516D01*
X1146232D01*
X1147290Y516458D01*
Y514342D01*
X1146232Y513284D01*
X1144116D01*
X1143058Y514342D01*
X1165755Y586074D02*
X1164697Y587132D01*
X1162581D01*
X1161523Y586074D01*
Y581842D01*
X1162581Y580784D01*
X1164697D01*
X1165755Y581842D01*
X1167871Y580784D02*
X1169987D01*
X1168929D01*
Y587132D01*
X1167871Y586074D01*
X1173160D02*
X1174219Y587132D01*
X1176335D01*
X1177393Y586074D01*
Y585016D01*
X1176335Y583958D01*
X1177393Y582900D01*
Y581842D01*
X1176335Y580784D01*
X1174219D01*
X1173160Y581842D01*
Y582900D01*
X1174219Y583958D01*
X1173160Y585016D01*
Y586074D01*
X1174219Y583958D02*
X1176335D01*
X1140755Y586074D02*
X1139697Y587132D01*
X1137581D01*
X1136523Y586074D01*
Y581842D01*
X1137581Y580784D01*
X1139697D01*
X1140755Y581842D01*
X1142871Y580784D02*
X1144987D01*
X1143929D01*
Y587132D01*
X1142871Y586074D01*
X1148160Y587132D02*
X1152393D01*
Y586074D01*
X1148160Y581842D01*
Y580784D01*
X1086710Y586174D02*
Y580884D01*
X1087768Y579826D01*
X1089884D01*
X1090942Y580884D01*
Y586174D01*
X1096232Y579826D02*
Y586174D01*
X1093058Y583000D01*
X1097290D01*
X1112297Y518531D02*
X1111239Y519589D01*
X1109123D01*
X1108065Y518531D01*
Y514299D01*
X1109123Y513241D01*
X1111239D01*
X1112297Y514299D01*
X1114413Y513241D02*
X1116529D01*
X1115471D01*
Y519589D01*
X1114413Y518531D01*
X1123935Y519589D02*
X1121819Y518531D01*
X1119703Y516415D01*
Y514299D01*
X1120761Y513241D01*
X1122877D01*
X1123935Y514299D01*
Y515357D01*
X1122877Y516415D01*
X1119703D01*
X1086297Y518531D02*
X1085239Y519589D01*
X1083123D01*
X1082065Y518531D01*
Y514299D01*
X1083123Y513241D01*
X1085239D01*
X1086297Y514299D01*
X1088413Y513241D02*
X1090529D01*
X1089471D01*
Y519589D01*
X1088413Y518531D01*
X1093703D02*
X1094761Y519589D01*
X1096877D01*
X1097935Y518531D01*
Y517473D01*
X1096877Y516415D01*
X1095819D01*
X1096877D01*
X1097935Y515357D01*
Y514299D01*
X1096877Y513241D01*
X1094761D01*
X1093703Y514299D01*
X1062297Y518531D02*
X1061239Y519589D01*
X1059123D01*
X1058065Y518531D01*
Y514299D01*
X1059123Y513241D01*
X1061239D01*
X1062297Y514299D01*
X1064413Y513241D02*
X1066529D01*
X1065471D01*
Y519589D01*
X1064413Y518531D01*
X1072877Y513241D02*
Y519589D01*
X1069703Y516415D01*
X1073935D01*
X1115813Y585574D02*
X1114755Y586632D01*
X1112639D01*
X1111581Y585574D01*
Y581342D01*
X1112639Y580284D01*
X1114755D01*
X1115813Y581342D01*
X1117929Y580284D02*
X1120045D01*
X1118987D01*
Y586632D01*
X1117929Y585574D01*
X1123219Y580284D02*
X1125335D01*
X1124277D01*
Y586632D01*
X1123219Y585574D01*
X1037768Y660174D02*
Y653826D01*
X1042000D01*
X1044116D02*
X1046232D01*
X1045174D01*
Y660174D01*
X1044116Y659116D01*
X1198768Y638116D02*
X1197710Y639174D01*
X1195594D01*
X1194536Y638116D01*
Y633884D01*
X1195594Y632826D01*
X1197710D01*
X1198768Y633884D01*
X1204058Y632826D02*
Y639174D01*
X1200884Y636000D01*
X1205116D01*
X1207232Y638116D02*
X1208290Y639174D01*
X1210406D01*
X1211464Y638116D01*
Y633884D01*
X1210406Y632826D01*
X1208290D01*
X1207232Y633884D01*
Y638116D01*
X1169768D02*
X1168710Y639174D01*
X1166594D01*
X1165536Y638116D01*
Y633884D01*
X1166594Y632826D01*
X1168710D01*
X1169768Y633884D01*
X1171884Y638116D02*
X1172942Y639174D01*
X1175058D01*
X1176116Y638116D01*
Y637058D01*
X1175058Y636000D01*
X1174000D01*
X1175058D01*
X1176116Y634942D01*
Y633884D01*
X1175058Y632826D01*
X1172942D01*
X1171884Y633884D01*
X1178232D02*
X1179290Y632826D01*
X1181406D01*
X1182464Y633884D01*
Y638116D01*
X1181406Y639174D01*
X1179290D01*
X1178232Y638116D01*
Y637058D01*
X1179290Y636000D01*
X1182464D01*
X1036710Y686826D02*
Y693174D01*
X1039884D01*
X1040942Y692116D01*
Y690000D01*
X1039884Y688942D01*
X1036710D01*
X1038826D02*
X1040942Y686826D01*
X1043058Y692116D02*
X1044116Y693174D01*
X1046232D01*
X1047290Y692116D01*
Y691058D01*
X1046232Y690000D01*
X1045174D01*
X1046232D01*
X1047290Y688942D01*
Y687884D01*
X1046232Y686826D01*
X1044116D01*
X1043058Y687884D01*
X1032710Y716826D02*
Y723174D01*
X1035884D01*
X1036942Y722116D01*
Y720000D01*
X1035884Y718942D01*
X1032710D01*
X1034826D02*
X1036942Y716826D01*
X1043290D02*
X1039058D01*
X1043290Y721058D01*
Y722116D01*
X1042232Y723174D01*
X1040116D01*
X1039058Y722116D01*
X1153709Y677015D02*
Y683363D01*
X1156883D01*
X1157941Y682305D01*
Y680189D01*
X1156883Y679131D01*
X1153709D01*
X1155825D02*
X1157941Y677015D01*
X1163231D02*
Y683363D01*
X1160057Y680189D01*
X1164289D01*
X1153710Y651369D02*
Y657717D01*
X1156884D01*
X1157942Y656659D01*
Y654543D01*
X1156884Y653485D01*
X1153710D01*
X1155826D02*
X1157942Y651369D01*
X1164290Y657717D02*
X1160058D01*
Y654543D01*
X1162174Y655601D01*
X1163232D01*
X1164290Y654543D01*
Y652427D01*
X1163232Y651369D01*
X1161116D01*
X1160058Y652427D01*
X1130768Y608826D02*
Y615174D01*
X1133942D01*
X1135000Y614116D01*
Y612000D01*
X1133942Y610942D01*
X1130768D01*
X1132884D02*
X1135000Y608826D01*
X1137116D02*
X1139232D01*
X1138174D01*
Y615174D01*
X1137116Y614116D01*
X545768Y668324D02*
X544710Y669382D01*
X542594D01*
X541536Y668324D01*
Y664092D01*
X542594Y663034D01*
X544710D01*
X545768Y664092D01*
X552116Y663034D02*
X547884D01*
X552116Y667266D01*
Y668324D01*
X551058Y669382D01*
X548942D01*
X547884Y668324D01*
X554232D02*
X555290Y669382D01*
X557406D01*
X558464Y668324D01*
Y664092D01*
X557406Y663034D01*
X555290D01*
X554232Y664092D01*
Y668324D01*
X511297D02*
X510239Y669382D01*
X508123D01*
X507065Y668324D01*
Y664092D01*
X508123Y663034D01*
X510239D01*
X511297Y664092D01*
X513413Y663034D02*
X515529D01*
X514471D01*
Y669382D01*
X513413Y668324D01*
X518703Y664092D02*
X519761Y663034D01*
X521877D01*
X522935Y664092D01*
Y668324D01*
X521877Y669382D01*
X519761D01*
X518703Y668324D01*
Y667266D01*
X519761Y666208D01*
X522935D01*
X601826Y668116D02*
X600768Y669174D01*
X598652D01*
X597594Y668116D01*
Y663884D01*
X598652Y662826D01*
X600768D01*
X601826Y663884D01*
X608174Y662826D02*
X603942D01*
X608174Y667058D01*
Y668116D01*
X607116Y669174D01*
X605000D01*
X603942Y668116D01*
X610290Y662826D02*
X612406D01*
X611348D01*
Y669174D01*
X610290Y668116D01*
X528560Y721174D02*
Y714826D01*
X532792D01*
X539140D02*
X534908D01*
X539140Y719058D01*
Y720116D01*
X538082Y721174D01*
X535966D01*
X534908Y720116D01*
X634768Y668324D02*
X633710Y669382D01*
X631594D01*
X630536Y668324D01*
Y664092D01*
X631594Y663034D01*
X633710D01*
X634768Y664092D01*
X641116Y663034D02*
X636884D01*
X641116Y667266D01*
Y668324D01*
X640058Y669382D01*
X637942D01*
X636884Y668324D01*
X647464Y663034D02*
X643232D01*
X647464Y667266D01*
Y668324D01*
X646406Y669382D01*
X644290D01*
X643232Y668324D01*
X615710Y722174D02*
Y715826D01*
X619942D01*
X622058Y721116D02*
X623116Y722174D01*
X625232D01*
X626290Y721116D01*
Y720058D01*
X625232Y719000D01*
X624174D01*
X625232D01*
X626290Y717942D01*
Y716884D01*
X625232Y715826D01*
X623116D01*
X622058Y716884D01*
X876065Y612369D02*
Y618717D01*
X879239D01*
X880297Y617659D01*
Y615543D01*
X879239Y614485D01*
X876065D01*
X878181D02*
X880297Y612369D01*
X882413D02*
X884529D01*
X883471D01*
Y618717D01*
X882413Y617659D01*
X891935Y618717D02*
X887703D01*
Y615543D01*
X889819Y616601D01*
X890877D01*
X891935Y615543D01*
Y613427D01*
X890877Y612369D01*
X888761D01*
X887703Y613427D01*
X1039297Y568116D02*
X1038239Y569174D01*
X1036123D01*
X1035065Y568116D01*
Y563884D01*
X1036123Y562826D01*
X1038239D01*
X1039297Y563884D01*
X1041413Y562826D02*
X1043529D01*
X1042471D01*
Y569174D01*
X1041413Y568116D01*
X1050935Y562826D02*
X1046703D01*
X1050935Y567058D01*
Y568116D01*
X1049877Y569174D01*
X1047761D01*
X1046703Y568116D01*
X957065Y549661D02*
Y556009D01*
X960239D01*
X961297Y554951D01*
Y552835D01*
X960239Y551777D01*
X957065D01*
X959181D02*
X961297Y549661D01*
X963413D02*
X965529D01*
X964471D01*
Y556009D01*
X963413Y554951D01*
X971877Y549661D02*
Y556009D01*
X968703Y552835D01*
X972935D01*
X957065Y576034D02*
Y582382D01*
X960239D01*
X961297Y581324D01*
Y579208D01*
X960239Y578150D01*
X957065D01*
X959181D02*
X961297Y576034D01*
X963413D02*
X965529D01*
X964471D01*
Y582382D01*
X963413Y581324D01*
X968703D02*
X969761Y582382D01*
X971877D01*
X972935Y581324D01*
Y580266D01*
X971877Y579208D01*
X970819D01*
X971877D01*
X972935Y578150D01*
Y577092D01*
X971877Y576034D01*
X969761D01*
X968703Y577092D01*
X957065Y601119D02*
Y607467D01*
X960239D01*
X961297Y606409D01*
Y604293D01*
X960239Y603235D01*
X957065D01*
X959181D02*
X961297Y601119D01*
X963413D02*
X965529D01*
X964471D01*
Y607467D01*
X963413Y606409D01*
X972935Y601119D02*
X968703D01*
X972935Y605351D01*
Y606409D01*
X971877Y607467D01*
X969761D01*
X968703Y606409D01*
X429710Y676174D02*
Y675116D01*
X431826Y673000D01*
X433942Y675116D01*
Y676174D01*
X431826Y673000D02*
Y669826D01*
X440290D02*
X436058D01*
X440290Y674058D01*
Y675116D01*
X439232Y676174D01*
X437116D01*
X436058Y675116D01*
X366768Y579174D02*
Y578116D01*
X368884Y576000D01*
X371000Y578116D01*
Y579174D01*
X368884Y576000D02*
Y572826D01*
X373116D02*
X375232D01*
X374174D01*
Y579174D01*
X373116Y578116D01*
X831942Y547116D02*
X830884Y548174D01*
X828768D01*
X827710Y547116D01*
Y546058D01*
X828768Y545000D01*
X830884D01*
X831942Y543942D01*
Y542884D01*
X830884Y541826D01*
X828768D01*
X827710Y542884D01*
X838290Y541826D02*
X834058D01*
X838290Y546058D01*
Y547116D01*
X837232Y548174D01*
X835116D01*
X834058Y547116D01*
X519026Y598888D02*
X517968Y599946D01*
X515852D01*
X514794Y598888D01*
Y597830D01*
X515852Y596772D01*
X517968D01*
X519026Y595714D01*
Y594656D01*
X517968Y593598D01*
X515852D01*
X514794Y594656D01*
X521142Y593598D02*
X523258D01*
X522200D01*
Y599946D01*
X521142Y598888D01*
X1191065Y558369D02*
Y564717D01*
X1194239D01*
X1195297Y563659D01*
Y561543D01*
X1194239Y560485D01*
X1191065D01*
X1193181D02*
X1195297Y558369D01*
X1197413D02*
X1199529D01*
X1198471D01*
Y564717D01*
X1197413Y563659D01*
X1202703Y564717D02*
X1206935D01*
Y563659D01*
X1202703Y559427D01*
Y558369D01*
X1216608Y558369D02*
Y564717D01*
X1219782D01*
X1220840Y563659D01*
Y561543D01*
X1219782Y560485D01*
X1216608D01*
X1218724D02*
X1220840Y558369D01*
X1222956D02*
X1225072D01*
X1224014D01*
Y564717D01*
X1222956Y563659D01*
X1232477Y564717D02*
X1230361Y563659D01*
X1228245Y561543D01*
Y559427D01*
X1229304Y558369D01*
X1231420D01*
X1232477Y559427D01*
Y560485D01*
X1231420Y561543D01*
X1228245D01*
X256010Y736826D02*
Y743174D01*
X259184D01*
X260242Y742116D01*
Y740000D01*
X259184Y738942D01*
X256010D01*
X266590Y743174D02*
X262358D01*
Y740000D01*
X264474Y741058D01*
X265532D01*
X266590Y740000D01*
Y737884D01*
X265532Y736826D01*
X263416D01*
X262358Y737884D01*
X755768Y699826D02*
Y706174D01*
X758942D01*
X760000Y705116D01*
Y703000D01*
X758942Y701942D01*
X755768D01*
X762116Y699826D02*
X764232D01*
X763174D01*
Y706174D01*
X762116Y705116D01*
X835942Y643174D02*
X833826D01*
X834884D01*
Y637884D01*
X833826Y636826D01*
X832768D01*
X831710Y637884D01*
X842290Y636826D02*
X838058D01*
X842290Y641058D01*
Y642116D01*
X841232Y643174D01*
X839116D01*
X838058Y642116D01*
X1045000Y552174D02*
X1042884D01*
X1043942D01*
Y546884D01*
X1042884Y545826D01*
X1041826D01*
X1040768Y546884D01*
X1047116Y545826D02*
X1049232D01*
X1048174D01*
Y552174D01*
X1047116Y551116D01*
X427674Y743232D02*
X421326D01*
Y740058D01*
X422384Y739000D01*
X426616D01*
X427674Y740058D01*
Y743232D01*
X421326Y736884D02*
Y734768D01*
Y735826D01*
X427674D01*
X426616Y736884D01*
X877768Y602116D02*
X876710Y603174D01*
X874594D01*
X873536Y602116D01*
Y597884D01*
X874594Y596826D01*
X876710D01*
X877768Y597884D01*
X879884Y602116D02*
X880942Y603174D01*
X883058D01*
X884116Y602116D01*
Y601058D01*
X883058Y600000D01*
X882000D01*
X883058D01*
X884116Y598942D01*
Y597884D01*
X883058Y596826D01*
X880942D01*
X879884Y597884D01*
X886232Y602116D02*
X887290Y603174D01*
X889406D01*
X890464Y602116D01*
Y601058D01*
X889406Y600000D01*
X890464Y598942D01*
Y597884D01*
X889406Y596826D01*
X887290D01*
X886232Y597884D01*
Y598942D01*
X887290Y600000D01*
X886232Y601058D01*
Y602116D01*
X887290Y600000D02*
X889406D01*
X876768Y543116D02*
X875710Y544174D01*
X873594D01*
X872536Y543116D01*
Y538884D01*
X873594Y537826D01*
X875710D01*
X876768Y538884D01*
X878884Y543116D02*
X879942Y544174D01*
X882058D01*
X883116Y543116D01*
Y542058D01*
X882058Y541000D01*
X881000D01*
X882058D01*
X883116Y539942D01*
Y538884D01*
X882058Y537826D01*
X879942D01*
X878884Y538884D01*
X885232Y544174D02*
X889464D01*
Y543116D01*
X885232Y538884D01*
Y537826D01*
X570588Y651212D02*
X569530Y652270D01*
X567414D01*
X566356Y651212D01*
Y646980D01*
X567414Y645922D01*
X569530D01*
X570588Y646980D01*
X572704Y651212D02*
X573762Y652270D01*
X575878D01*
X576936Y651212D01*
Y650154D01*
X575878Y649096D01*
X574820D01*
X575878D01*
X576936Y648038D01*
Y646980D01*
X575878Y645922D01*
X573762D01*
X572704Y646980D01*
X582226Y645922D02*
Y652270D01*
X579052Y649096D01*
X583284D01*
X402768Y577116D02*
X401710Y578174D01*
X399594D01*
X398536Y577116D01*
Y572884D01*
X399594Y571826D01*
X401710D01*
X402768Y572884D01*
X409116Y571826D02*
X404884D01*
X409116Y576058D01*
Y577116D01*
X408058Y578174D01*
X405942D01*
X404884Y577116D01*
X414406Y571826D02*
Y578174D01*
X411232Y575000D01*
X415464D01*
X328768Y577116D02*
X327710Y578174D01*
X325594D01*
X324536Y577116D01*
Y572884D01*
X325594Y571826D01*
X327710D01*
X328768Y572884D01*
X335116Y571826D02*
X330884D01*
X335116Y576058D01*
Y577116D01*
X334058Y578174D01*
X331942D01*
X330884Y577116D01*
X337232D02*
X338290Y578174D01*
X340406D01*
X341464Y577116D01*
Y576058D01*
X340406Y575000D01*
X339348D01*
X340406D01*
X341464Y573942D01*
Y572884D01*
X340406Y571826D01*
X338290D01*
X337232Y572884D01*
X263768Y929116D02*
X262710Y930174D01*
X260594D01*
X259536Y929116D01*
Y924884D01*
X260594Y923826D01*
X262710D01*
X263768Y924884D01*
X265884Y929116D02*
X266942Y930174D01*
X269058D01*
X270116Y929116D01*
Y928058D01*
X269058Y927000D01*
X268000D01*
X269058D01*
X270116Y925942D01*
Y924884D01*
X269058Y923826D01*
X266942D01*
X265884Y924884D01*
X276464Y930174D02*
X274348Y929116D01*
X272232Y927000D01*
Y924884D01*
X273290Y923826D01*
X275406D01*
X276464Y924884D01*
Y925942D01*
X275406Y927000D01*
X272232D01*
X1114710Y858826D02*
Y865174D01*
X1117884D01*
X1118942Y864116D01*
Y862000D01*
X1117884Y860942D01*
X1114710D01*
X1116826D02*
X1118942Y858826D01*
X1121058Y859884D02*
X1122116Y858826D01*
X1124232D01*
X1125290Y859884D01*
Y864116D01*
X1124232Y865174D01*
X1122116D01*
X1121058Y864116D01*
Y863058D01*
X1122116Y862000D01*
X1125290D01*
X1142710Y954826D02*
Y961174D01*
X1145884D01*
X1146942Y960116D01*
Y958000D01*
X1145884Y956942D01*
X1142710D01*
X1144826D02*
X1146942Y954826D01*
X1149058Y961174D02*
X1153290D01*
Y960116D01*
X1149058Y955884D01*
Y954826D01*
X1220065Y905826D02*
Y912174D01*
X1223239D01*
X1224297Y911116D01*
Y909000D01*
X1223239Y907942D01*
X1220065D01*
X1222181D02*
X1224297Y905826D01*
X1226413D02*
X1228529D01*
X1227471D01*
Y912174D01*
X1226413Y911116D01*
X1231703D02*
X1232761Y912174D01*
X1234877D01*
X1235935Y911116D01*
Y910058D01*
X1234877Y909000D01*
X1235935Y907942D01*
Y906884D01*
X1234877Y905826D01*
X1232761D01*
X1231703Y906884D01*
Y907942D01*
X1232761Y909000D01*
X1231703Y910058D01*
Y911116D01*
X1232761Y909000D02*
X1234877D01*
X1012710Y843826D02*
Y850174D01*
X1015884D01*
X1016942Y849116D01*
Y847000D01*
X1015884Y845942D01*
X1012710D01*
X1014826D02*
X1016942Y843826D01*
X1023290Y850174D02*
X1021174Y849116D01*
X1019058Y847000D01*
Y844884D01*
X1020116Y843826D01*
X1022232D01*
X1023290Y844884D01*
Y845942D01*
X1022232Y847000D01*
X1019058D01*
X351132Y926052D02*
Y920762D01*
X352190Y919704D01*
X354306D01*
X355364Y920762D01*
Y926052D01*
X361712D02*
X359596Y924994D01*
X357480Y922878D01*
Y920762D01*
X358538Y919704D01*
X360654D01*
X361712Y920762D01*
Y921820D01*
X360654Y922878D01*
X357480D01*
X691324Y786448D02*
Y792796D01*
X694498D01*
X695556Y791738D01*
Y789622D01*
X694498Y788564D01*
X691324D01*
X697672Y787506D02*
X698730Y786448D01*
X700846D01*
X701904Y787506D01*
Y791738D01*
X700846Y792796D01*
X698730D01*
X697672Y791738D01*
Y790680D01*
X698730Y789622D01*
X701904D01*
X599710Y989826D02*
Y996174D01*
X602884D01*
X603942Y995116D01*
Y993000D01*
X602884Y991942D01*
X599710D01*
X606058Y996174D02*
X610290D01*
Y995116D01*
X606058Y990884D01*
Y989826D01*
X485330Y907352D02*
Y913700D01*
X488504D01*
X489562Y912642D01*
Y910526D01*
X488504Y909468D01*
X485330D01*
X495910Y913700D02*
X493794Y912642D01*
X491678Y910526D01*
Y908410D01*
X492736Y907352D01*
X494852D01*
X495910Y908410D01*
Y909468D01*
X494852Y910526D01*
X491678D01*
X317710Y769826D02*
Y776174D01*
X320884D01*
X321942Y775116D01*
Y773000D01*
X320884Y771942D01*
X317710D01*
X324058Y775116D02*
X325116Y776174D01*
X327232D01*
X328290Y775116D01*
Y774058D01*
X327232Y773000D01*
X328290Y771942D01*
Y770884D01*
X327232Y769826D01*
X325116D01*
X324058Y770884D01*
Y771942D01*
X325116Y773000D01*
X324058Y774058D01*
Y775116D01*
X325116Y773000D02*
X327232D01*
X1051000Y872884D02*
Y877116D01*
X1049942Y878174D01*
X1047826D01*
X1046768Y877116D01*
Y872884D01*
X1047826Y871826D01*
X1049942D01*
X1048884Y873942D02*
X1051000Y871826D01*
X1049942D02*
X1051000Y872884D01*
X1053116Y871826D02*
X1055232D01*
X1054174D01*
Y878174D01*
X1053116Y877116D01*
X845465Y779826D02*
Y786174D01*
X848639D01*
X849697Y785116D01*
Y783000D01*
X848639Y781942D01*
X845465D01*
X851813Y779826D02*
X853929D01*
X852871D01*
Y786174D01*
X851813Y785116D01*
X857103D02*
X858161Y786174D01*
X860277D01*
X861335Y785116D01*
Y780884D01*
X860277Y779826D01*
X858161D01*
X857103Y780884D01*
Y785116D01*
X1106065Y972826D02*
Y979174D01*
X1109239D01*
X1110297Y978116D01*
Y976000D01*
X1109239Y974942D01*
X1106065D01*
X1108181D02*
X1110297Y972826D01*
X1112413D02*
X1114529D01*
X1113471D01*
Y979174D01*
X1112413Y978116D01*
X1117703D02*
X1118761Y979174D01*
X1120877D01*
X1121935Y978116D01*
Y973884D01*
X1120877Y972826D01*
X1118761D01*
X1117703Y973884D01*
Y978116D01*
X1055768Y943174D02*
Y937884D01*
X1056826Y936826D01*
X1058942D01*
X1060000Y937884D01*
Y943174D01*
X1062116Y936826D02*
X1064232D01*
X1063174D01*
Y943174D01*
X1062116Y942116D01*
X1059710Y966826D02*
Y973174D01*
X1062884D01*
X1063942Y972116D01*
Y970000D01*
X1062884Y968942D01*
X1059710D01*
X1061826D02*
X1063942Y966826D01*
X1066058Y972116D02*
X1067116Y973174D01*
X1069232D01*
X1070290Y972116D01*
Y971058D01*
X1069232Y970000D01*
X1070290Y968942D01*
Y967884D01*
X1069232Y966826D01*
X1067116D01*
X1066058Y967884D01*
Y968942D01*
X1067116Y970000D01*
X1066058Y971058D01*
Y972116D01*
X1067116Y970000D02*
X1069232D01*
X1105710Y989826D02*
Y996174D01*
X1108884D01*
X1109942Y995116D01*
Y993000D01*
X1108884Y991942D01*
X1105710D01*
X1115232Y989826D02*
Y996174D01*
X1112058Y993000D01*
X1116290D01*
X1191196Y786448D02*
Y792796D01*
X1194370D01*
X1195428Y791738D01*
Y789622D01*
X1194370Y788564D01*
X1191196D01*
X1201776Y786448D02*
X1197544D01*
X1201776Y790680D01*
Y791738D01*
X1200718Y792796D01*
X1198602D01*
X1197544Y791738D01*
X985202Y907352D02*
Y913700D01*
X988376D01*
X989434Y912642D01*
Y910526D01*
X988376Y909468D01*
X985202D01*
X991550Y912642D02*
X992608Y913700D01*
X994724D01*
X995782Y912642D01*
Y911584D01*
X994724Y910526D01*
X993666D01*
X994724D01*
X995782Y909468D01*
Y908410D01*
X994724Y907352D01*
X992608D01*
X991550Y908410D01*
X996000Y990116D02*
X994942Y991174D01*
X992826D01*
X991768Y990116D01*
Y985884D01*
X992826Y984826D01*
X994942D01*
X996000Y985884D01*
X998116Y984826D02*
X1000232D01*
X999174D01*
Y991174D01*
X998116Y990116D01*
X1169606Y989394D02*
Y995742D01*
X1172780D01*
X1173838Y994684D01*
Y992568D01*
X1172780Y991510D01*
X1169606D01*
X1171722D02*
X1173838Y989394D01*
X1175954Y995742D02*
X1180186D01*
X1178070D01*
Y989394D01*
X1182302D02*
X1184418D01*
X1183360D01*
Y995742D01*
X1182302Y994684D01*
X1166297Y768531D02*
X1165239Y769589D01*
X1163123D01*
X1162065Y768531D01*
Y764299D01*
X1163123Y763241D01*
X1165239D01*
X1166297Y764299D01*
X1168413Y763241D02*
X1170529D01*
X1169471D01*
Y769589D01*
X1168413Y768531D01*
X1177935Y769589D02*
X1173703D01*
Y766415D01*
X1175819Y767473D01*
X1176877D01*
X1177935Y766415D01*
Y764299D01*
X1176877Y763241D01*
X1174761D01*
X1173703Y764299D01*
X1136710Y769632D02*
Y764342D01*
X1137768Y763284D01*
X1139884D01*
X1140942Y764342D01*
Y769632D01*
X1147290D02*
X1143058D01*
Y766458D01*
X1145174Y767516D01*
X1146232D01*
X1147290Y766458D01*
Y764342D01*
X1146232Y763284D01*
X1144116D01*
X1143058Y764342D01*
X1165755Y836074D02*
X1164697Y837132D01*
X1162581D01*
X1161523Y836074D01*
Y831842D01*
X1162581Y830784D01*
X1164697D01*
X1165755Y831842D01*
X1167871Y830784D02*
X1169987D01*
X1168929D01*
Y837132D01*
X1167871Y836074D01*
X1173160D02*
X1174219Y837132D01*
X1176335D01*
X1177393Y836074D01*
Y835016D01*
X1176335Y833958D01*
X1177393Y832900D01*
Y831842D01*
X1176335Y830784D01*
X1174219D01*
X1173160Y831842D01*
Y832900D01*
X1174219Y833958D01*
X1173160Y835016D01*
Y836074D01*
X1174219Y833958D02*
X1176335D01*
X1140755Y836074D02*
X1139697Y837132D01*
X1137581D01*
X1136523Y836074D01*
Y831842D01*
X1137581Y830784D01*
X1139697D01*
X1140755Y831842D01*
X1142871Y830784D02*
X1144987D01*
X1143929D01*
Y837132D01*
X1142871Y836074D01*
X1148160Y837132D02*
X1152393D01*
Y836074D01*
X1148160Y831842D01*
Y830784D01*
X1086710Y836174D02*
Y830884D01*
X1087768Y829826D01*
X1089884D01*
X1090942Y830884D01*
Y836174D01*
X1096232Y829826D02*
Y836174D01*
X1093058Y833000D01*
X1097290D01*
X1112297Y768531D02*
X1111239Y769589D01*
X1109123D01*
X1108065Y768531D01*
Y764299D01*
X1109123Y763241D01*
X1111239D01*
X1112297Y764299D01*
X1114413Y763241D02*
X1116529D01*
X1115471D01*
Y769589D01*
X1114413Y768531D01*
X1123935Y769589D02*
X1121819Y768531D01*
X1119703Y766415D01*
Y764299D01*
X1120761Y763241D01*
X1122877D01*
X1123935Y764299D01*
Y765357D01*
X1122877Y766415D01*
X1119703D01*
X1086297Y768531D02*
X1085239Y769589D01*
X1083123D01*
X1082065Y768531D01*
Y764299D01*
X1083123Y763241D01*
X1085239D01*
X1086297Y764299D01*
X1088413Y763241D02*
X1090529D01*
X1089471D01*
Y769589D01*
X1088413Y768531D01*
X1093703D02*
X1094761Y769589D01*
X1096877D01*
X1097935Y768531D01*
Y767473D01*
X1096877Y766415D01*
X1095819D01*
X1096877D01*
X1097935Y765357D01*
Y764299D01*
X1096877Y763241D01*
X1094761D01*
X1093703Y764299D01*
X1062297Y768531D02*
X1061239Y769589D01*
X1059123D01*
X1058065Y768531D01*
Y764299D01*
X1059123Y763241D01*
X1061239D01*
X1062297Y764299D01*
X1064413Y763241D02*
X1066529D01*
X1065471D01*
Y769589D01*
X1064413Y768531D01*
X1072877Y763241D02*
Y769589D01*
X1069703Y766415D01*
X1073935D01*
X1115813Y835574D02*
X1114755Y836632D01*
X1112639D01*
X1111581Y835574D01*
Y831342D01*
X1112639Y830284D01*
X1114755D01*
X1115813Y831342D01*
X1117929Y830284D02*
X1120045D01*
X1118987D01*
Y836632D01*
X1117929Y835574D01*
X1123219Y830284D02*
X1125335D01*
X1124277D01*
Y836632D01*
X1123219Y835574D01*
X1037768Y910174D02*
Y903826D01*
X1042000D01*
X1044116D02*
X1046232D01*
X1045174D01*
Y910174D01*
X1044116Y909116D01*
X1198768Y888116D02*
X1197710Y889174D01*
X1195594D01*
X1194536Y888116D01*
Y883884D01*
X1195594Y882826D01*
X1197710D01*
X1198768Y883884D01*
X1204058Y882826D02*
Y889174D01*
X1200884Y886000D01*
X1205116D01*
X1207232Y888116D02*
X1208290Y889174D01*
X1210406D01*
X1211464Y888116D01*
Y883884D01*
X1210406Y882826D01*
X1208290D01*
X1207232Y883884D01*
Y888116D01*
X1169768D02*
X1168710Y889174D01*
X1166594D01*
X1165536Y888116D01*
Y883884D01*
X1166594Y882826D01*
X1168710D01*
X1169768Y883884D01*
X1171884Y888116D02*
X1172942Y889174D01*
X1175058D01*
X1176116Y888116D01*
Y887058D01*
X1175058Y886000D01*
X1174000D01*
X1175058D01*
X1176116Y884942D01*
Y883884D01*
X1175058Y882826D01*
X1172942D01*
X1171884Y883884D01*
X1178232D02*
X1179290Y882826D01*
X1181406D01*
X1182464Y883884D01*
Y888116D01*
X1181406Y889174D01*
X1179290D01*
X1178232Y888116D01*
Y887058D01*
X1179290Y886000D01*
X1182464D01*
X1036710Y936826D02*
Y943174D01*
X1039884D01*
X1040942Y942116D01*
Y940000D01*
X1039884Y938942D01*
X1036710D01*
X1038826D02*
X1040942Y936826D01*
X1043058Y942116D02*
X1044116Y943174D01*
X1046232D01*
X1047290Y942116D01*
Y941058D01*
X1046232Y940000D01*
X1045174D01*
X1046232D01*
X1047290Y938942D01*
Y937884D01*
X1046232Y936826D01*
X1044116D01*
X1043058Y937884D01*
X1032710Y966826D02*
Y973174D01*
X1035884D01*
X1036942Y972116D01*
Y970000D01*
X1035884Y968942D01*
X1032710D01*
X1034826D02*
X1036942Y966826D01*
X1043290D02*
X1039058D01*
X1043290Y971058D01*
Y972116D01*
X1042232Y973174D01*
X1040116D01*
X1039058Y972116D01*
X1153709Y927015D02*
Y933363D01*
X1156883D01*
X1157941Y932305D01*
Y930189D01*
X1156883Y929131D01*
X1153709D01*
X1155825D02*
X1157941Y927015D01*
X1163231D02*
Y933363D01*
X1160057Y930189D01*
X1164289D01*
X1153710Y901369D02*
Y907717D01*
X1156884D01*
X1157942Y906659D01*
Y904543D01*
X1156884Y903485D01*
X1153710D01*
X1155826D02*
X1157942Y901369D01*
X1164290Y907717D02*
X1160058D01*
Y904543D01*
X1162174Y905601D01*
X1163232D01*
X1164290Y904543D01*
Y902427D01*
X1163232Y901369D01*
X1161116D01*
X1160058Y902427D01*
X1130768Y858826D02*
Y865174D01*
X1133942D01*
X1135000Y864116D01*
Y862000D01*
X1133942Y860942D01*
X1130768D01*
X1132884D02*
X1135000Y858826D01*
X1137116D02*
X1139232D01*
X1138174D01*
Y865174D01*
X1137116Y864116D01*
X545768Y918324D02*
X544710Y919382D01*
X542594D01*
X541536Y918324D01*
Y914092D01*
X542594Y913034D01*
X544710D01*
X545768Y914092D01*
X552116Y913034D02*
X547884D01*
X552116Y917266D01*
Y918324D01*
X551058Y919382D01*
X548942D01*
X547884Y918324D01*
X554232D02*
X555290Y919382D01*
X557406D01*
X558464Y918324D01*
Y914092D01*
X557406Y913034D01*
X555290D01*
X554232Y914092D01*
Y918324D01*
X511297D02*
X510239Y919382D01*
X508123D01*
X507065Y918324D01*
Y914092D01*
X508123Y913034D01*
X510239D01*
X511297Y914092D01*
X513413Y913034D02*
X515529D01*
X514471D01*
Y919382D01*
X513413Y918324D01*
X518703Y914092D02*
X519761Y913034D01*
X521877D01*
X522935Y914092D01*
Y918324D01*
X521877Y919382D01*
X519761D01*
X518703Y918324D01*
Y917266D01*
X519761Y916208D01*
X522935D01*
X601826Y918116D02*
X600768Y919174D01*
X598652D01*
X597594Y918116D01*
Y913884D01*
X598652Y912826D01*
X600768D01*
X601826Y913884D01*
X608174Y912826D02*
X603942D01*
X608174Y917058D01*
Y918116D01*
X607116Y919174D01*
X605000D01*
X603942Y918116D01*
X610290Y912826D02*
X612406D01*
X611348D01*
Y919174D01*
X610290Y918116D01*
X528560Y971174D02*
Y964826D01*
X532792D01*
X539140D02*
X534908D01*
X539140Y969058D01*
Y970116D01*
X538082Y971174D01*
X535966D01*
X534908Y970116D01*
X634768Y918324D02*
X633710Y919382D01*
X631594D01*
X630536Y918324D01*
Y914092D01*
X631594Y913034D01*
X633710D01*
X634768Y914092D01*
X641116Y913034D02*
X636884D01*
X641116Y917266D01*
Y918324D01*
X640058Y919382D01*
X637942D01*
X636884Y918324D01*
X647464Y913034D02*
X643232D01*
X647464Y917266D01*
Y918324D01*
X646406Y919382D01*
X644290D01*
X643232Y918324D01*
X615710Y972174D02*
Y965826D01*
X619942D01*
X622058Y971116D02*
X623116Y972174D01*
X625232D01*
X626290Y971116D01*
Y970058D01*
X625232Y969000D01*
X624174D01*
X625232D01*
X626290Y967942D01*
Y966884D01*
X625232Y965826D01*
X623116D01*
X622058Y966884D01*
X876065Y862369D02*
Y868717D01*
X879239D01*
X880297Y867659D01*
Y865543D01*
X879239Y864485D01*
X876065D01*
X878181D02*
X880297Y862369D01*
X882413D02*
X884529D01*
X883471D01*
Y868717D01*
X882413Y867659D01*
X891935Y868717D02*
X887703D01*
Y865543D01*
X889819Y866601D01*
X890877D01*
X891935Y865543D01*
Y863427D01*
X890877Y862369D01*
X888761D01*
X887703Y863427D01*
X1039297Y818116D02*
X1038239Y819174D01*
X1036123D01*
X1035065Y818116D01*
Y813884D01*
X1036123Y812826D01*
X1038239D01*
X1039297Y813884D01*
X1041413Y812826D02*
X1043529D01*
X1042471D01*
Y819174D01*
X1041413Y818116D01*
X1050935Y812826D02*
X1046703D01*
X1050935Y817058D01*
Y818116D01*
X1049877Y819174D01*
X1047761D01*
X1046703Y818116D01*
X957065Y799661D02*
Y806009D01*
X960239D01*
X961297Y804951D01*
Y802835D01*
X960239Y801777D01*
X957065D01*
X959181D02*
X961297Y799661D01*
X963413D02*
X965529D01*
X964471D01*
Y806009D01*
X963413Y804951D01*
X971877Y799661D02*
Y806009D01*
X968703Y802835D01*
X972935D01*
X957065Y826034D02*
Y832382D01*
X960239D01*
X961297Y831324D01*
Y829208D01*
X960239Y828150D01*
X957065D01*
X959181D02*
X961297Y826034D01*
X963413D02*
X965529D01*
X964471D01*
Y832382D01*
X963413Y831324D01*
X968703D02*
X969761Y832382D01*
X971877D01*
X972935Y831324D01*
Y830266D01*
X971877Y829208D01*
X970819D01*
X971877D01*
X972935Y828150D01*
Y827092D01*
X971877Y826034D01*
X969761D01*
X968703Y827092D01*
X957065Y851119D02*
Y857467D01*
X960239D01*
X961297Y856409D01*
Y854293D01*
X960239Y853235D01*
X957065D01*
X959181D02*
X961297Y851119D01*
X963413D02*
X965529D01*
X964471D01*
Y857467D01*
X963413Y856409D01*
X972935Y851119D02*
X968703D01*
X972935Y855351D01*
Y856409D01*
X971877Y857467D01*
X969761D01*
X968703Y856409D01*
X429710Y926174D02*
Y925116D01*
X431826Y923000D01*
X433942Y925116D01*
Y926174D01*
X431826Y923000D02*
Y919826D01*
X440290D02*
X436058D01*
X440290Y924058D01*
Y925116D01*
X439232Y926174D01*
X437116D01*
X436058Y925116D01*
X366768Y829174D02*
Y828116D01*
X368884Y826000D01*
X371000Y828116D01*
Y829174D01*
X368884Y826000D02*
Y822826D01*
X373116D02*
X375232D01*
X374174D01*
Y829174D01*
X373116Y828116D01*
X831942Y797116D02*
X830884Y798174D01*
X828768D01*
X827710Y797116D01*
Y796058D01*
X828768Y795000D01*
X830884D01*
X831942Y793942D01*
Y792884D01*
X830884Y791826D01*
X828768D01*
X827710Y792884D01*
X838290Y791826D02*
X834058D01*
X838290Y796058D01*
Y797116D01*
X837232Y798174D01*
X835116D01*
X834058Y797116D01*
X519026Y848888D02*
X517968Y849946D01*
X515852D01*
X514794Y848888D01*
Y847830D01*
X515852Y846772D01*
X517968D01*
X519026Y845714D01*
Y844656D01*
X517968Y843598D01*
X515852D01*
X514794Y844656D01*
X521142Y843598D02*
X523258D01*
X522200D01*
Y849946D01*
X521142Y848888D01*
X1191065Y808369D02*
Y814717D01*
X1194239D01*
X1195297Y813659D01*
Y811543D01*
X1194239Y810485D01*
X1191065D01*
X1193181D02*
X1195297Y808369D01*
X1197413D02*
X1199529D01*
X1198471D01*
Y814717D01*
X1197413Y813659D01*
X1202703Y814717D02*
X1206935D01*
Y813659D01*
X1202703Y809427D01*
Y808369D01*
X1216608Y808369D02*
Y814717D01*
X1219782D01*
X1220840Y813659D01*
Y811543D01*
X1219782Y810485D01*
X1216608D01*
X1218724D02*
X1220840Y808369D01*
X1222956D02*
X1225072D01*
X1224014D01*
Y814717D01*
X1222956Y813659D01*
X1232477Y814717D02*
X1230361Y813659D01*
X1228245Y811543D01*
Y809427D01*
X1229304Y808369D01*
X1231420D01*
X1232477Y809427D01*
Y810485D01*
X1231420Y811543D01*
X1228245D01*
X256010Y986826D02*
Y993174D01*
X259184D01*
X260242Y992116D01*
Y990000D01*
X259184Y988942D01*
X256010D01*
X266590Y993174D02*
X262358D01*
Y990000D01*
X264474Y991058D01*
X265532D01*
X266590Y990000D01*
Y987884D01*
X265532Y986826D01*
X263416D01*
X262358Y987884D01*
X755768Y949826D02*
Y956174D01*
X758942D01*
X760000Y955116D01*
Y953000D01*
X758942Y951942D01*
X755768D01*
X762116Y949826D02*
X764232D01*
X763174D01*
Y956174D01*
X762116Y955116D01*
X835942Y893174D02*
X833826D01*
X834884D01*
Y887884D01*
X833826Y886826D01*
X832768D01*
X831710Y887884D01*
X842290Y886826D02*
X838058D01*
X842290Y891058D01*
Y892116D01*
X841232Y893174D01*
X839116D01*
X838058Y892116D01*
X1045000Y802174D02*
X1042884D01*
X1043942D01*
Y796884D01*
X1042884Y795826D01*
X1041826D01*
X1040768Y796884D01*
X1047116Y795826D02*
X1049232D01*
X1048174D01*
Y802174D01*
X1047116Y801116D01*
X427674Y993232D02*
X421326D01*
Y990058D01*
X422384Y989000D01*
X426616D01*
X427674Y990058D01*
Y993232D01*
X421326Y986884D02*
Y984768D01*
Y985826D01*
X427674D01*
X426616Y986884D01*
X877768Y852116D02*
X876710Y853174D01*
X874594D01*
X873536Y852116D01*
Y847884D01*
X874594Y846826D01*
X876710D01*
X877768Y847884D01*
X879884Y852116D02*
X880942Y853174D01*
X883058D01*
X884116Y852116D01*
Y851058D01*
X883058Y850000D01*
X882000D01*
X883058D01*
X884116Y848942D01*
Y847884D01*
X883058Y846826D01*
X880942D01*
X879884Y847884D01*
X886232Y852116D02*
X887290Y853174D01*
X889406D01*
X890464Y852116D01*
Y851058D01*
X889406Y850000D01*
X890464Y848942D01*
Y847884D01*
X889406Y846826D01*
X887290D01*
X886232Y847884D01*
Y848942D01*
X887290Y850000D01*
X886232Y851058D01*
Y852116D01*
X887290Y850000D02*
X889406D01*
X876768Y793116D02*
X875710Y794174D01*
X873594D01*
X872536Y793116D01*
Y788884D01*
X873594Y787826D01*
X875710D01*
X876768Y788884D01*
X878884Y793116D02*
X879942Y794174D01*
X882058D01*
X883116Y793116D01*
Y792058D01*
X882058Y791000D01*
X881000D01*
X882058D01*
X883116Y789942D01*
Y788884D01*
X882058Y787826D01*
X879942D01*
X878884Y788884D01*
X885232Y794174D02*
X889464D01*
Y793116D01*
X885232Y788884D01*
Y787826D01*
X570588Y901212D02*
X569530Y902270D01*
X567414D01*
X566356Y901212D01*
Y896980D01*
X567414Y895922D01*
X569530D01*
X570588Y896980D01*
X572704Y901212D02*
X573762Y902270D01*
X575878D01*
X576936Y901212D01*
Y900154D01*
X575878Y899096D01*
X574820D01*
X575878D01*
X576936Y898038D01*
Y896980D01*
X575878Y895922D01*
X573762D01*
X572704Y896980D01*
X582226Y895922D02*
Y902270D01*
X579052Y899096D01*
X583284D01*
X402768Y827116D02*
X401710Y828174D01*
X399594D01*
X398536Y827116D01*
Y822884D01*
X399594Y821826D01*
X401710D01*
X402768Y822884D01*
X409116Y821826D02*
X404884D01*
X409116Y826058D01*
Y827116D01*
X408058Y828174D01*
X405942D01*
X404884Y827116D01*
X414406Y821826D02*
Y828174D01*
X411232Y825000D01*
X415464D01*
X328768Y827116D02*
X327710Y828174D01*
X325594D01*
X324536Y827116D01*
Y822884D01*
X325594Y821826D01*
X327710D01*
X328768Y822884D01*
X335116Y821826D02*
X330884D01*
X335116Y826058D01*
Y827116D01*
X334058Y828174D01*
X331942D01*
X330884Y827116D01*
X337232D02*
X338290Y828174D01*
X340406D01*
X341464Y827116D01*
Y826058D01*
X340406Y825000D01*
X339348D01*
X340406D01*
X341464Y823942D01*
Y822884D01*
X340406Y821826D01*
X338290D01*
X337232Y822884D01*
X263768Y1179116D02*
X262710Y1180174D01*
X260594D01*
X259536Y1179116D01*
Y1174884D01*
X260594Y1173826D01*
X262710D01*
X263768Y1174884D01*
X265884Y1179116D02*
X266942Y1180174D01*
X269058D01*
X270116Y1179116D01*
Y1178058D01*
X269058Y1177000D01*
X268000D01*
X269058D01*
X270116Y1175942D01*
Y1174884D01*
X269058Y1173826D01*
X266942D01*
X265884Y1174884D01*
X276464Y1180174D02*
X274348Y1179116D01*
X272232Y1177000D01*
Y1174884D01*
X273290Y1173826D01*
X275406D01*
X276464Y1174884D01*
Y1175942D01*
X275406Y1177000D01*
X272232D01*
X1114710Y1108826D02*
Y1115174D01*
X1117884D01*
X1118942Y1114116D01*
Y1112000D01*
X1117884Y1110942D01*
X1114710D01*
X1116826D02*
X1118942Y1108826D01*
X1121058Y1109884D02*
X1122116Y1108826D01*
X1124232D01*
X1125290Y1109884D01*
Y1114116D01*
X1124232Y1115174D01*
X1122116D01*
X1121058Y1114116D01*
Y1113058D01*
X1122116Y1112000D01*
X1125290D01*
X1142710Y1204826D02*
Y1211174D01*
X1145884D01*
X1146942Y1210116D01*
Y1208000D01*
X1145884Y1206942D01*
X1142710D01*
X1144826D02*
X1146942Y1204826D01*
X1149058Y1211174D02*
X1153290D01*
Y1210116D01*
X1149058Y1205884D01*
Y1204826D01*
X1220065Y1155826D02*
Y1162174D01*
X1223239D01*
X1224297Y1161116D01*
Y1159000D01*
X1223239Y1157942D01*
X1220065D01*
X1222181D02*
X1224297Y1155826D01*
X1226413D02*
X1228529D01*
X1227471D01*
Y1162174D01*
X1226413Y1161116D01*
X1231703D02*
X1232761Y1162174D01*
X1234877D01*
X1235935Y1161116D01*
Y1160058D01*
X1234877Y1159000D01*
X1235935Y1157942D01*
Y1156884D01*
X1234877Y1155826D01*
X1232761D01*
X1231703Y1156884D01*
Y1157942D01*
X1232761Y1159000D01*
X1231703Y1160058D01*
Y1161116D01*
X1232761Y1159000D02*
X1234877D01*
X1012710Y1093826D02*
Y1100174D01*
X1015884D01*
X1016942Y1099116D01*
Y1097000D01*
X1015884Y1095942D01*
X1012710D01*
X1014826D02*
X1016942Y1093826D01*
X1023290Y1100174D02*
X1021174Y1099116D01*
X1019058Y1097000D01*
Y1094884D01*
X1020116Y1093826D01*
X1022232D01*
X1023290Y1094884D01*
Y1095942D01*
X1022232Y1097000D01*
X1019058D01*
X351132Y1176052D02*
Y1170762D01*
X352190Y1169704D01*
X354306D01*
X355364Y1170762D01*
Y1176052D01*
X361712D02*
X359596Y1174994D01*
X357480Y1172878D01*
Y1170762D01*
X358538Y1169704D01*
X360654D01*
X361712Y1170762D01*
Y1171820D01*
X360654Y1172878D01*
X357480D01*
X691324Y1036448D02*
Y1042796D01*
X694498D01*
X695556Y1041738D01*
Y1039622D01*
X694498Y1038564D01*
X691324D01*
X697672Y1037506D02*
X698730Y1036448D01*
X700846D01*
X701904Y1037506D01*
Y1041738D01*
X700846Y1042796D01*
X698730D01*
X697672Y1041738D01*
Y1040680D01*
X698730Y1039622D01*
X701904D01*
X599710Y1239826D02*
Y1246174D01*
X602884D01*
X603942Y1245116D01*
Y1243000D01*
X602884Y1241942D01*
X599710D01*
X606058Y1246174D02*
X610290D01*
Y1245116D01*
X606058Y1240884D01*
Y1239826D01*
X485330Y1157352D02*
Y1163700D01*
X488504D01*
X489562Y1162642D01*
Y1160526D01*
X488504Y1159468D01*
X485330D01*
X495910Y1163700D02*
X493794Y1162642D01*
X491678Y1160526D01*
Y1158410D01*
X492736Y1157352D01*
X494852D01*
X495910Y1158410D01*
Y1159468D01*
X494852Y1160526D01*
X491678D01*
X317710Y1019826D02*
Y1026174D01*
X320884D01*
X321942Y1025116D01*
Y1023000D01*
X320884Y1021942D01*
X317710D01*
X324058Y1025116D02*
X325116Y1026174D01*
X327232D01*
X328290Y1025116D01*
Y1024058D01*
X327232Y1023000D01*
X328290Y1021942D01*
Y1020884D01*
X327232Y1019826D01*
X325116D01*
X324058Y1020884D01*
Y1021942D01*
X325116Y1023000D01*
X324058Y1024058D01*
Y1025116D01*
X325116Y1023000D02*
X327232D01*
X1051000Y1122884D02*
Y1127116D01*
X1049942Y1128174D01*
X1047826D01*
X1046768Y1127116D01*
Y1122884D01*
X1047826Y1121826D01*
X1049942D01*
X1048884Y1123942D02*
X1051000Y1121826D01*
X1049942D02*
X1051000Y1122884D01*
X1053116Y1121826D02*
X1055232D01*
X1054174D01*
Y1128174D01*
X1053116Y1127116D01*
X845465Y1029826D02*
Y1036174D01*
X848639D01*
X849697Y1035116D01*
Y1033000D01*
X848639Y1031942D01*
X845465D01*
X851813Y1029826D02*
X853929D01*
X852871D01*
Y1036174D01*
X851813Y1035116D01*
X857103D02*
X858161Y1036174D01*
X860277D01*
X861335Y1035116D01*
Y1030884D01*
X860277Y1029826D01*
X858161D01*
X857103Y1030884D01*
Y1035116D01*
X1106065Y1222826D02*
Y1229174D01*
X1109239D01*
X1110297Y1228116D01*
Y1226000D01*
X1109239Y1224942D01*
X1106065D01*
X1108181D02*
X1110297Y1222826D01*
X1112413D02*
X1114529D01*
X1113471D01*
Y1229174D01*
X1112413Y1228116D01*
X1117703D02*
X1118761Y1229174D01*
X1120877D01*
X1121935Y1228116D01*
Y1223884D01*
X1120877Y1222826D01*
X1118761D01*
X1117703Y1223884D01*
Y1228116D01*
X1055768Y1193174D02*
Y1187884D01*
X1056826Y1186826D01*
X1058942D01*
X1060000Y1187884D01*
Y1193174D01*
X1062116Y1186826D02*
X1064232D01*
X1063174D01*
Y1193174D01*
X1062116Y1192116D01*
X1059710Y1216826D02*
Y1223174D01*
X1062884D01*
X1063942Y1222116D01*
Y1220000D01*
X1062884Y1218942D01*
X1059710D01*
X1061826D02*
X1063942Y1216826D01*
X1066058Y1222116D02*
X1067116Y1223174D01*
X1069232D01*
X1070290Y1222116D01*
Y1221058D01*
X1069232Y1220000D01*
X1070290Y1218942D01*
Y1217884D01*
X1069232Y1216826D01*
X1067116D01*
X1066058Y1217884D01*
Y1218942D01*
X1067116Y1220000D01*
X1066058Y1221058D01*
Y1222116D01*
X1067116Y1220000D02*
X1069232D01*
X1105710Y1239826D02*
Y1246174D01*
X1108884D01*
X1109942Y1245116D01*
Y1243000D01*
X1108884Y1241942D01*
X1105710D01*
X1115232Y1239826D02*
Y1246174D01*
X1112058Y1243000D01*
X1116290D01*
X1191196Y1036448D02*
Y1042796D01*
X1194370D01*
X1195428Y1041738D01*
Y1039622D01*
X1194370Y1038564D01*
X1191196D01*
X1201776Y1036448D02*
X1197544D01*
X1201776Y1040680D01*
Y1041738D01*
X1200718Y1042796D01*
X1198602D01*
X1197544Y1041738D01*
X985202Y1157352D02*
Y1163700D01*
X988376D01*
X989434Y1162642D01*
Y1160526D01*
X988376Y1159468D01*
X985202D01*
X991550Y1162642D02*
X992608Y1163700D01*
X994724D01*
X995782Y1162642D01*
Y1161584D01*
X994724Y1160526D01*
X993666D01*
X994724D01*
X995782Y1159468D01*
Y1158410D01*
X994724Y1157352D01*
X992608D01*
X991550Y1158410D01*
X996000Y1240116D02*
X994942Y1241174D01*
X992826D01*
X991768Y1240116D01*
Y1235884D01*
X992826Y1234826D01*
X994942D01*
X996000Y1235884D01*
X998116Y1234826D02*
X1000232D01*
X999174D01*
Y1241174D01*
X998116Y1240116D01*
X1169606Y1239394D02*
Y1245742D01*
X1172780D01*
X1173838Y1244684D01*
Y1242568D01*
X1172780Y1241510D01*
X1169606D01*
X1171722D02*
X1173838Y1239394D01*
X1175954Y1245742D02*
X1180186D01*
X1178070D01*
Y1239394D01*
X1182302D02*
X1184418D01*
X1183360D01*
Y1245742D01*
X1182302Y1244684D01*
X1166297Y1018531D02*
X1165239Y1019589D01*
X1163123D01*
X1162065Y1018531D01*
Y1014299D01*
X1163123Y1013241D01*
X1165239D01*
X1166297Y1014299D01*
X1168413Y1013241D02*
X1170529D01*
X1169471D01*
Y1019589D01*
X1168413Y1018531D01*
X1177935Y1019589D02*
X1173703D01*
Y1016415D01*
X1175819Y1017473D01*
X1176877D01*
X1177935Y1016415D01*
Y1014299D01*
X1176877Y1013241D01*
X1174761D01*
X1173703Y1014299D01*
X1136710Y1019632D02*
Y1014342D01*
X1137768Y1013284D01*
X1139884D01*
X1140942Y1014342D01*
Y1019632D01*
X1147290D02*
X1143058D01*
Y1016458D01*
X1145174Y1017516D01*
X1146232D01*
X1147290Y1016458D01*
Y1014342D01*
X1146232Y1013284D01*
X1144116D01*
X1143058Y1014342D01*
X1165755Y1086074D02*
X1164697Y1087132D01*
X1162581D01*
X1161523Y1086074D01*
Y1081842D01*
X1162581Y1080784D01*
X1164697D01*
X1165755Y1081842D01*
X1167871Y1080784D02*
X1169987D01*
X1168929D01*
Y1087132D01*
X1167871Y1086074D01*
X1173160D02*
X1174219Y1087132D01*
X1176335D01*
X1177393Y1086074D01*
Y1085016D01*
X1176335Y1083958D01*
X1177393Y1082900D01*
Y1081842D01*
X1176335Y1080784D01*
X1174219D01*
X1173160Y1081842D01*
Y1082900D01*
X1174219Y1083958D01*
X1173160Y1085016D01*
Y1086074D01*
X1174219Y1083958D02*
X1176335D01*
X1140755Y1086074D02*
X1139697Y1087132D01*
X1137581D01*
X1136523Y1086074D01*
Y1081842D01*
X1137581Y1080784D01*
X1139697D01*
X1140755Y1081842D01*
X1142871Y1080784D02*
X1144987D01*
X1143929D01*
Y1087132D01*
X1142871Y1086074D01*
X1148160Y1087132D02*
X1152393D01*
Y1086074D01*
X1148160Y1081842D01*
Y1080784D01*
X1086710Y1086174D02*
Y1080884D01*
X1087768Y1079826D01*
X1089884D01*
X1090942Y1080884D01*
Y1086174D01*
X1096232Y1079826D02*
Y1086174D01*
X1093058Y1083000D01*
X1097290D01*
X1112297Y1018531D02*
X1111239Y1019589D01*
X1109123D01*
X1108065Y1018531D01*
Y1014299D01*
X1109123Y1013241D01*
X1111239D01*
X1112297Y1014299D01*
X1114413Y1013241D02*
X1116529D01*
X1115471D01*
Y1019589D01*
X1114413Y1018531D01*
X1123935Y1019589D02*
X1121819Y1018531D01*
X1119703Y1016415D01*
Y1014299D01*
X1120761Y1013241D01*
X1122877D01*
X1123935Y1014299D01*
Y1015357D01*
X1122877Y1016415D01*
X1119703D01*
X1086297Y1018531D02*
X1085239Y1019589D01*
X1083123D01*
X1082065Y1018531D01*
Y1014299D01*
X1083123Y1013241D01*
X1085239D01*
X1086297Y1014299D01*
X1088413Y1013241D02*
X1090529D01*
X1089471D01*
Y1019589D01*
X1088413Y1018531D01*
X1093703D02*
X1094761Y1019589D01*
X1096877D01*
X1097935Y1018531D01*
Y1017473D01*
X1096877Y1016415D01*
X1095819D01*
X1096877D01*
X1097935Y1015357D01*
Y1014299D01*
X1096877Y1013241D01*
X1094761D01*
X1093703Y1014299D01*
X1062297Y1018531D02*
X1061239Y1019589D01*
X1059123D01*
X1058065Y1018531D01*
Y1014299D01*
X1059123Y1013241D01*
X1061239D01*
X1062297Y1014299D01*
X1064413Y1013241D02*
X1066529D01*
X1065471D01*
Y1019589D01*
X1064413Y1018531D01*
X1072877Y1013241D02*
Y1019589D01*
X1069703Y1016415D01*
X1073935D01*
X1115813Y1085574D02*
X1114755Y1086632D01*
X1112639D01*
X1111581Y1085574D01*
Y1081342D01*
X1112639Y1080284D01*
X1114755D01*
X1115813Y1081342D01*
X1117929Y1080284D02*
X1120045D01*
X1118987D01*
Y1086632D01*
X1117929Y1085574D01*
X1123219Y1080284D02*
X1125335D01*
X1124277D01*
Y1086632D01*
X1123219Y1085574D01*
X1037768Y1160174D02*
Y1153826D01*
X1042000D01*
X1044116D02*
X1046232D01*
X1045174D01*
Y1160174D01*
X1044116Y1159116D01*
X1198768Y1138116D02*
X1197710Y1139174D01*
X1195594D01*
X1194536Y1138116D01*
Y1133884D01*
X1195594Y1132826D01*
X1197710D01*
X1198768Y1133884D01*
X1204058Y1132826D02*
Y1139174D01*
X1200884Y1136000D01*
X1205116D01*
X1207232Y1138116D02*
X1208290Y1139174D01*
X1210406D01*
X1211464Y1138116D01*
Y1133884D01*
X1210406Y1132826D01*
X1208290D01*
X1207232Y1133884D01*
Y1138116D01*
X1169768D02*
X1168710Y1139174D01*
X1166594D01*
X1165536Y1138116D01*
Y1133884D01*
X1166594Y1132826D01*
X1168710D01*
X1169768Y1133884D01*
X1171884Y1138116D02*
X1172942Y1139174D01*
X1175058D01*
X1176116Y1138116D01*
Y1137058D01*
X1175058Y1136000D01*
X1174000D01*
X1175058D01*
X1176116Y1134942D01*
Y1133884D01*
X1175058Y1132826D01*
X1172942D01*
X1171884Y1133884D01*
X1178232D02*
X1179290Y1132826D01*
X1181406D01*
X1182464Y1133884D01*
Y1138116D01*
X1181406Y1139174D01*
X1179290D01*
X1178232Y1138116D01*
Y1137058D01*
X1179290Y1136000D01*
X1182464D01*
X1036710Y1186826D02*
Y1193174D01*
X1039884D01*
X1040942Y1192116D01*
Y1190000D01*
X1039884Y1188942D01*
X1036710D01*
X1038826D02*
X1040942Y1186826D01*
X1043058Y1192116D02*
X1044116Y1193174D01*
X1046232D01*
X1047290Y1192116D01*
Y1191058D01*
X1046232Y1190000D01*
X1045174D01*
X1046232D01*
X1047290Y1188942D01*
Y1187884D01*
X1046232Y1186826D01*
X1044116D01*
X1043058Y1187884D01*
X1032710Y1216826D02*
Y1223174D01*
X1035884D01*
X1036942Y1222116D01*
Y1220000D01*
X1035884Y1218942D01*
X1032710D01*
X1034826D02*
X1036942Y1216826D01*
X1043290D02*
X1039058D01*
X1043290Y1221058D01*
Y1222116D01*
X1042232Y1223174D01*
X1040116D01*
X1039058Y1222116D01*
X1153709Y1177015D02*
Y1183363D01*
X1156883D01*
X1157941Y1182305D01*
Y1180189D01*
X1156883Y1179131D01*
X1153709D01*
X1155825D02*
X1157941Y1177015D01*
X1163231D02*
Y1183363D01*
X1160057Y1180189D01*
X1164289D01*
X1153710Y1151369D02*
Y1157717D01*
X1156884D01*
X1157942Y1156659D01*
Y1154543D01*
X1156884Y1153485D01*
X1153710D01*
X1155826D02*
X1157942Y1151369D01*
X1164290Y1157717D02*
X1160058D01*
Y1154543D01*
X1162174Y1155601D01*
X1163232D01*
X1164290Y1154543D01*
Y1152427D01*
X1163232Y1151369D01*
X1161116D01*
X1160058Y1152427D01*
X1130768Y1108826D02*
Y1115174D01*
X1133942D01*
X1135000Y1114116D01*
Y1112000D01*
X1133942Y1110942D01*
X1130768D01*
X1132884D02*
X1135000Y1108826D01*
X1137116D02*
X1139232D01*
X1138174D01*
Y1115174D01*
X1137116Y1114116D01*
X545768Y1168324D02*
X544710Y1169382D01*
X542594D01*
X541536Y1168324D01*
Y1164092D01*
X542594Y1163034D01*
X544710D01*
X545768Y1164092D01*
X552116Y1163034D02*
X547884D01*
X552116Y1167266D01*
Y1168324D01*
X551058Y1169382D01*
X548942D01*
X547884Y1168324D01*
X554232D02*
X555290Y1169382D01*
X557406D01*
X558464Y1168324D01*
Y1164092D01*
X557406Y1163034D01*
X555290D01*
X554232Y1164092D01*
Y1168324D01*
X511297D02*
X510239Y1169382D01*
X508123D01*
X507065Y1168324D01*
Y1164092D01*
X508123Y1163034D01*
X510239D01*
X511297Y1164092D01*
X513413Y1163034D02*
X515529D01*
X514471D01*
Y1169382D01*
X513413Y1168324D01*
X518703Y1164092D02*
X519761Y1163034D01*
X521877D01*
X522935Y1164092D01*
Y1168324D01*
X521877Y1169382D01*
X519761D01*
X518703Y1168324D01*
Y1167266D01*
X519761Y1166208D01*
X522935D01*
X601826Y1168116D02*
X600768Y1169174D01*
X598652D01*
X597594Y1168116D01*
Y1163884D01*
X598652Y1162826D01*
X600768D01*
X601826Y1163884D01*
X608174Y1162826D02*
X603942D01*
X608174Y1167058D01*
Y1168116D01*
X607116Y1169174D01*
X605000D01*
X603942Y1168116D01*
X610290Y1162826D02*
X612406D01*
X611348D01*
Y1169174D01*
X610290Y1168116D01*
X528560Y1221174D02*
Y1214826D01*
X532792D01*
X539140D02*
X534908D01*
X539140Y1219058D01*
Y1220116D01*
X538082Y1221174D01*
X535966D01*
X534908Y1220116D01*
X634768Y1168324D02*
X633710Y1169382D01*
X631594D01*
X630536Y1168324D01*
Y1164092D01*
X631594Y1163034D01*
X633710D01*
X634768Y1164092D01*
X641116Y1163034D02*
X636884D01*
X641116Y1167266D01*
Y1168324D01*
X640058Y1169382D01*
X637942D01*
X636884Y1168324D01*
X647464Y1163034D02*
X643232D01*
X647464Y1167266D01*
Y1168324D01*
X646406Y1169382D01*
X644290D01*
X643232Y1168324D01*
X615710Y1222174D02*
Y1215826D01*
X619942D01*
X622058Y1221116D02*
X623116Y1222174D01*
X625232D01*
X626290Y1221116D01*
Y1220058D01*
X625232Y1219000D01*
X624174D01*
X625232D01*
X626290Y1217942D01*
Y1216884D01*
X625232Y1215826D01*
X623116D01*
X622058Y1216884D01*
X876065Y1112369D02*
Y1118717D01*
X879239D01*
X880297Y1117659D01*
Y1115543D01*
X879239Y1114485D01*
X876065D01*
X878181D02*
X880297Y1112369D01*
X882413D02*
X884529D01*
X883471D01*
Y1118717D01*
X882413Y1117659D01*
X891935Y1118717D02*
X887703D01*
Y1115543D01*
X889819Y1116601D01*
X890877D01*
X891935Y1115543D01*
Y1113427D01*
X890877Y1112369D01*
X888761D01*
X887703Y1113427D01*
X1039297Y1068116D02*
X1038239Y1069174D01*
X1036123D01*
X1035065Y1068116D01*
Y1063884D01*
X1036123Y1062826D01*
X1038239D01*
X1039297Y1063884D01*
X1041413Y1062826D02*
X1043529D01*
X1042471D01*
Y1069174D01*
X1041413Y1068116D01*
X1050935Y1062826D02*
X1046703D01*
X1050935Y1067058D01*
Y1068116D01*
X1049877Y1069174D01*
X1047761D01*
X1046703Y1068116D01*
X957065Y1049661D02*
Y1056009D01*
X960239D01*
X961297Y1054951D01*
Y1052835D01*
X960239Y1051777D01*
X957065D01*
X959181D02*
X961297Y1049661D01*
X963413D02*
X965529D01*
X964471D01*
Y1056009D01*
X963413Y1054951D01*
X971877Y1049661D02*
Y1056009D01*
X968703Y1052835D01*
X972935D01*
X957065Y1076034D02*
Y1082382D01*
X960239D01*
X961297Y1081324D01*
Y1079208D01*
X960239Y1078150D01*
X957065D01*
X959181D02*
X961297Y1076034D01*
X963413D02*
X965529D01*
X964471D01*
Y1082382D01*
X963413Y1081324D01*
X968703D02*
X969761Y1082382D01*
X971877D01*
X972935Y1081324D01*
Y1080266D01*
X971877Y1079208D01*
X970819D01*
X971877D01*
X972935Y1078150D01*
Y1077092D01*
X971877Y1076034D01*
X969761D01*
X968703Y1077092D01*
X957065Y1101119D02*
Y1107467D01*
X960239D01*
X961297Y1106409D01*
Y1104293D01*
X960239Y1103235D01*
X957065D01*
X959181D02*
X961297Y1101119D01*
X963413D02*
X965529D01*
X964471D01*
Y1107467D01*
X963413Y1106409D01*
X972935Y1101119D02*
X968703D01*
X972935Y1105351D01*
Y1106409D01*
X971877Y1107467D01*
X969761D01*
X968703Y1106409D01*
X429710Y1176174D02*
Y1175116D01*
X431826Y1173000D01*
X433942Y1175116D01*
Y1176174D01*
X431826Y1173000D02*
Y1169826D01*
X440290D02*
X436058D01*
X440290Y1174058D01*
Y1175116D01*
X439232Y1176174D01*
X437116D01*
X436058Y1175116D01*
X366768Y1079174D02*
Y1078116D01*
X368884Y1076000D01*
X371000Y1078116D01*
Y1079174D01*
X368884Y1076000D02*
Y1072826D01*
X373116D02*
X375232D01*
X374174D01*
Y1079174D01*
X373116Y1078116D01*
X831942Y1047116D02*
X830884Y1048174D01*
X828768D01*
X827710Y1047116D01*
Y1046058D01*
X828768Y1045000D01*
X830884D01*
X831942Y1043942D01*
Y1042884D01*
X830884Y1041826D01*
X828768D01*
X827710Y1042884D01*
X838290Y1041826D02*
X834058D01*
X838290Y1046058D01*
Y1047116D01*
X837232Y1048174D01*
X835116D01*
X834058Y1047116D01*
X519026Y1098888D02*
X517968Y1099946D01*
X515852D01*
X514794Y1098888D01*
Y1097830D01*
X515852Y1096772D01*
X517968D01*
X519026Y1095714D01*
Y1094656D01*
X517968Y1093598D01*
X515852D01*
X514794Y1094656D01*
X521142Y1093598D02*
X523258D01*
X522200D01*
Y1099946D01*
X521142Y1098888D01*
X1191065Y1058369D02*
Y1064717D01*
X1194239D01*
X1195297Y1063659D01*
Y1061543D01*
X1194239Y1060485D01*
X1191065D01*
X1193181D02*
X1195297Y1058369D01*
X1197413D02*
X1199529D01*
X1198471D01*
Y1064717D01*
X1197413Y1063659D01*
X1202703Y1064717D02*
X1206935D01*
Y1063659D01*
X1202703Y1059427D01*
Y1058369D01*
X1216608Y1058369D02*
Y1064717D01*
X1219782D01*
X1220840Y1063659D01*
Y1061543D01*
X1219782Y1060485D01*
X1216608D01*
X1218724D02*
X1220840Y1058369D01*
X1222956D02*
X1225072D01*
X1224014D01*
Y1064717D01*
X1222956Y1063659D01*
X1232477Y1064717D02*
X1230361Y1063659D01*
X1228245Y1061543D01*
Y1059427D01*
X1229304Y1058369D01*
X1231420D01*
X1232477Y1059427D01*
Y1060485D01*
X1231420Y1061543D01*
X1228245D01*
X256010Y1236826D02*
Y1243174D01*
X259184D01*
X260242Y1242116D01*
Y1240000D01*
X259184Y1238942D01*
X256010D01*
X266590Y1243174D02*
X262358D01*
Y1240000D01*
X264474Y1241058D01*
X265532D01*
X266590Y1240000D01*
Y1237884D01*
X265532Y1236826D01*
X263416D01*
X262358Y1237884D01*
X755768Y1199826D02*
Y1206174D01*
X758942D01*
X760000Y1205116D01*
Y1203000D01*
X758942Y1201942D01*
X755768D01*
X762116Y1199826D02*
X764232D01*
X763174D01*
Y1206174D01*
X762116Y1205116D01*
X835942Y1143174D02*
X833826D01*
X834884D01*
Y1137884D01*
X833826Y1136826D01*
X832768D01*
X831710Y1137884D01*
X842290Y1136826D02*
X838058D01*
X842290Y1141058D01*
Y1142116D01*
X841232Y1143174D01*
X839116D01*
X838058Y1142116D01*
X1045000Y1052174D02*
X1042884D01*
X1043942D01*
Y1046884D01*
X1042884Y1045826D01*
X1041826D01*
X1040768Y1046884D01*
X1047116Y1045826D02*
X1049232D01*
X1048174D01*
Y1052174D01*
X1047116Y1051116D01*
X427674Y1243232D02*
X421326D01*
Y1240058D01*
X422384Y1239000D01*
X426616D01*
X427674Y1240058D01*
Y1243232D01*
X421326Y1236884D02*
Y1234768D01*
Y1235826D01*
X427674D01*
X426616Y1236884D01*
X877768Y1102116D02*
X876710Y1103174D01*
X874594D01*
X873536Y1102116D01*
Y1097884D01*
X874594Y1096826D01*
X876710D01*
X877768Y1097884D01*
X879884Y1102116D02*
X880942Y1103174D01*
X883058D01*
X884116Y1102116D01*
Y1101058D01*
X883058Y1100000D01*
X882000D01*
X883058D01*
X884116Y1098942D01*
Y1097884D01*
X883058Y1096826D01*
X880942D01*
X879884Y1097884D01*
X886232Y1102116D02*
X887290Y1103174D01*
X889406D01*
X890464Y1102116D01*
Y1101058D01*
X889406Y1100000D01*
X890464Y1098942D01*
Y1097884D01*
X889406Y1096826D01*
X887290D01*
X886232Y1097884D01*
Y1098942D01*
X887290Y1100000D01*
X886232Y1101058D01*
Y1102116D01*
X887290Y1100000D02*
X889406D01*
X876768Y1043116D02*
X875710Y1044174D01*
X873594D01*
X872536Y1043116D01*
Y1038884D01*
X873594Y1037826D01*
X875710D01*
X876768Y1038884D01*
X878884Y1043116D02*
X879942Y1044174D01*
X882058D01*
X883116Y1043116D01*
Y1042058D01*
X882058Y1041000D01*
X881000D01*
X882058D01*
X883116Y1039942D01*
Y1038884D01*
X882058Y1037826D01*
X879942D01*
X878884Y1038884D01*
X885232Y1044174D02*
X889464D01*
Y1043116D01*
X885232Y1038884D01*
Y1037826D01*
X570588Y1151212D02*
X569530Y1152270D01*
X567414D01*
X566356Y1151212D01*
Y1146980D01*
X567414Y1145922D01*
X569530D01*
X570588Y1146980D01*
X572704Y1151212D02*
X573762Y1152270D01*
X575878D01*
X576936Y1151212D01*
Y1150154D01*
X575878Y1149096D01*
X574820D01*
X575878D01*
X576936Y1148038D01*
Y1146980D01*
X575878Y1145922D01*
X573762D01*
X572704Y1146980D01*
X582226Y1145922D02*
Y1152270D01*
X579052Y1149096D01*
X583284D01*
X402768Y1077116D02*
X401710Y1078174D01*
X399594D01*
X398536Y1077116D01*
Y1072884D01*
X399594Y1071826D01*
X401710D01*
X402768Y1072884D01*
X409116Y1071826D02*
X404884D01*
X409116Y1076058D01*
Y1077116D01*
X408058Y1078174D01*
X405942D01*
X404884Y1077116D01*
X414406Y1071826D02*
Y1078174D01*
X411232Y1075000D01*
X415464D01*
X328768Y1077116D02*
X327710Y1078174D01*
X325594D01*
X324536Y1077116D01*
Y1072884D01*
X325594Y1071826D01*
X327710D01*
X328768Y1072884D01*
X335116Y1071826D02*
X330884D01*
X335116Y1076058D01*
Y1077116D01*
X334058Y1078174D01*
X331942D01*
X330884Y1077116D01*
X337232D02*
X338290Y1078174D01*
X340406D01*
X341464Y1077116D01*
Y1076058D01*
X340406Y1075000D01*
X339348D01*
X340406D01*
X341464Y1073942D01*
Y1072884D01*
X340406Y1071826D01*
X338290D01*
X337232Y1072884D01*
D44*
X352500Y285000D02*
G03*
X352500Y285000I-500J0D01*
G01*
X446500Y424000D02*
G03*
X446500Y424000I-500J0D01*
G01*
X274500Y348000D02*
X284000Y348000D01*
X262000Y360500D02*
X274500Y348000D01*
X317500Y348000D02*
X330000Y360500D01*
X308000Y348000D02*
X317500D01*
X262000Y360500D02*
Y416000D01*
X284000D01*
X308000D02*
X330000D01*
Y360500D02*
Y416000D01*
X829100Y261300D02*
Y286700D01*
X778300Y261300D02*
X829100D01*
X778300D02*
Y286700D01*
X829100D01*
X428000Y335000D02*
Y339250D01*
X423750Y335000D02*
X428000D01*
Y404750D02*
Y409000D01*
X423750D02*
X428000D01*
X354000D02*
X358250D01*
X354000Y404750D02*
Y409000D01*
Y335000D02*
Y339250D01*
Y335000D02*
X358250D01*
X691000Y261000D02*
X721700D01*
X691000D02*
Y279000D01*
X721700D01*
Y261000D02*
Y279000D01*
X595400Y478000D02*
Y496000D01*
X552000D02*
X595400D01*
X552000Y478000D02*
Y496000D01*
Y478000D02*
X595400D01*
X485000Y382000D02*
X515700D01*
X485000D02*
Y400000D01*
X515700D01*
Y382000D02*
Y400000D01*
X336000Y257000D02*
Y275000D01*
X455600D01*
Y257000D02*
Y275000D01*
X336000Y257000D02*
X455600D01*
X1048000Y355457D02*
Y365457D01*
X1055750D01*
X1078000Y355457D02*
Y365457D01*
X1070250D02*
X1078000D01*
X836000Y257000D02*
Y275000D01*
X955600D01*
Y257000D02*
Y275000D01*
X836000Y257000D02*
X955600D01*
X1068000Y389000D02*
X1073000D01*
X1068000D02*
Y394000D01*
Y428000D02*
Y433000D01*
X1073000D01*
X1107000D02*
X1112000D01*
Y428000D02*
Y433000D01*
X1107000Y389000D02*
X1112000D01*
Y394000D01*
X1101400Y478000D02*
Y496000D01*
X1058000D02*
X1101400D01*
X1058000Y478000D02*
Y496000D01*
Y478000D02*
X1101400D01*
X1191000Y261000D02*
X1221700D01*
X1191000D02*
Y279000D01*
X1221700D01*
Y261000D02*
Y279000D01*
X985000Y382000D02*
X1015700D01*
X985000D02*
Y400000D01*
X1015700D01*
Y382000D02*
Y400000D01*
X989000Y443493D02*
X989000Y433993D01*
X976500Y421493D02*
X989000Y433993D01*
X976500Y489493D02*
X989000Y476993D01*
Y467493D02*
Y476993D01*
X921000Y421493D02*
X976500D01*
X921000D02*
Y443493D01*
Y467493D02*
Y489493D01*
X976500D01*
X655793Y323708D02*
Y333208D01*
X643293Y311208D02*
X655793Y323708D01*
X643293Y379207D02*
X655793Y366707D01*
Y357208D02*
Y366707D01*
X587793Y311208D02*
X643293D01*
X587793D02*
Y333208D01*
Y357208D02*
Y379207D01*
X643293D01*
X1169300Y431300D02*
X1194700D01*
X1169300D02*
Y482100D01*
X1194700D01*
Y431300D02*
Y482100D01*
X1150585Y278915D02*
Y290415D01*
X1150585Y274415D02*
X1150585Y278915D01*
X1134585Y274415D02*
X1150585D01*
X1134585D02*
Y290415D01*
X1150585Y290415D01*
X1083458Y309457D02*
Y320957D01*
Y325458D01*
X1099458D01*
Y309457D02*
Y325458D01*
X1083458Y309457D02*
X1099458D01*
X968000Y252250D02*
X968000Y243000D01*
Y276750D02*
Y289300D01*
Y243000D02*
X1038000D01*
Y252250D01*
Y276750D02*
Y289300D01*
X400500Y482379D02*
Y484500D01*
Y481500D02*
Y483621D01*
Y481500D02*
X402000Y483000D01*
X400500Y484500D02*
X402000Y483000D01*
X778750Y296250D02*
Y401750D01*
X789750D01*
X778750Y296250D02*
X789750D01*
X772000Y431000D02*
Y475000D01*
X808000Y413500D02*
X848000D01*
Y421500D01*
X832000D02*
X848000D01*
X832000D02*
X832000Y434000D01*
X832000Y484500D02*
X832000Y472000D01*
X832000Y484500D02*
X848000D01*
Y492500D01*
X808000D02*
X848000D01*
X270900Y493000D02*
X339700D01*
Y475000D02*
Y493000D01*
X270900Y475000D02*
X339700D01*
X270900D02*
Y493000D01*
X356000Y284000D02*
X386000D01*
X356000Y318000D02*
X386000D01*
X445000Y390000D02*
Y420000D01*
X479000Y390000D02*
Y420000D01*
X555000Y307000D02*
Y309000D01*
X521000Y307000D02*
X555000D01*
X521000D02*
Y309000D01*
Y331000D02*
Y333000D01*
X555000D01*
Y331000D02*
Y333000D01*
X352500Y535000D02*
G03*
X352500Y535000I-500J0D01*
G01*
X446500Y674000D02*
G03*
X446500Y674000I-500J0D01*
G01*
X274500Y598000D02*
X284000Y598000D01*
X262000Y610500D02*
X274500Y598000D01*
X317500Y598000D02*
X330000Y610500D01*
X308000Y598000D02*
X317500D01*
X262000Y610500D02*
Y666000D01*
X284000D01*
X308000D02*
X330000D01*
Y610500D02*
Y666000D01*
X829100Y511300D02*
Y536700D01*
X778300Y511300D02*
X829100D01*
X778300D02*
Y536700D01*
X829100D01*
X428000Y585000D02*
Y589250D01*
X423750Y585000D02*
X428000D01*
Y654750D02*
Y659000D01*
X423750D02*
X428000D01*
X354000D02*
X358250D01*
X354000Y654750D02*
Y659000D01*
Y585000D02*
Y589250D01*
Y585000D02*
X358250D01*
X691000Y511000D02*
X721700D01*
X691000D02*
Y529000D01*
X721700D01*
Y511000D02*
Y529000D01*
X595400Y728000D02*
Y746000D01*
X552000D02*
X595400D01*
X552000Y728000D02*
Y746000D01*
Y728000D02*
X595400D01*
X485000Y632000D02*
X515700D01*
X485000D02*
Y650000D01*
X515700D01*
Y632000D02*
Y650000D01*
X336000Y507000D02*
Y525000D01*
X455600D01*
Y507000D02*
Y525000D01*
X336000Y507000D02*
X455600D01*
X1048000Y605458D02*
Y615458D01*
X1055750D01*
X1078000Y605458D02*
Y615458D01*
X1070250D02*
X1078000D01*
X836000Y507000D02*
Y525000D01*
X955600D01*
Y507000D02*
Y525000D01*
X836000Y507000D02*
X955600D01*
X1068000Y639000D02*
X1073000D01*
X1068000D02*
Y644000D01*
Y678000D02*
Y683000D01*
X1073000D01*
X1107000D02*
X1112000D01*
Y678000D02*
Y683000D01*
X1107000Y639000D02*
X1112000D01*
Y644000D01*
X1101400Y728000D02*
Y746000D01*
X1058000D02*
X1101400D01*
X1058000Y728000D02*
Y746000D01*
Y728000D02*
X1101400D01*
X1191000Y511000D02*
X1221700D01*
X1191000D02*
Y529000D01*
X1221700D01*
Y511000D02*
Y529000D01*
X985000Y632000D02*
X1015700D01*
X985000D02*
Y650000D01*
X1015700D01*
Y632000D02*
Y650000D01*
X989000Y693493D02*
X989000Y683993D01*
X976500Y671493D02*
X989000Y683993D01*
X976500Y739493D02*
X989000Y726993D01*
Y717493D02*
Y726993D01*
X921000Y671493D02*
X976500D01*
X921000D02*
Y693493D01*
Y717493D02*
Y739493D01*
X976500D01*
X655793Y573708D02*
Y583208D01*
X643293Y561208D02*
X655793Y573708D01*
X643293Y629208D02*
X655793Y616708D01*
Y607208D02*
Y616708D01*
X587793Y561208D02*
X643293D01*
X587793D02*
Y583208D01*
Y607208D02*
Y629208D01*
X643293D01*
X1169300Y681300D02*
X1194700D01*
X1169300D02*
Y732100D01*
X1194700D01*
Y681300D02*
Y732100D01*
X1150585Y528915D02*
Y540415D01*
X1150585Y524415D02*
X1150585Y528915D01*
X1134585Y524415D02*
X1150585D01*
X1134585D02*
Y540415D01*
X1150585Y540415D01*
X1083458Y559458D02*
Y570958D01*
Y575458D01*
X1099458D01*
Y559458D02*
Y575458D01*
X1083458Y559458D02*
X1099458D01*
X968000Y502250D02*
X968000Y493000D01*
Y526750D02*
Y539300D01*
Y493000D02*
X1038000D01*
Y502250D01*
Y526750D02*
Y539300D01*
X400500Y732379D02*
Y734500D01*
Y731500D02*
Y733621D01*
Y731500D02*
X402000Y733000D01*
X400500Y734500D02*
X402000Y733000D01*
X778750Y546250D02*
Y651750D01*
X789750D01*
X778750Y546250D02*
X789750D01*
X772000Y681000D02*
Y725000D01*
X808000Y663500D02*
X848000D01*
Y671500D01*
X832000D02*
X848000D01*
X832000D02*
X832000Y684000D01*
X832000Y734500D02*
X832000Y722000D01*
X832000Y734500D02*
X848000D01*
Y742500D01*
X808000D02*
X848000D01*
X270900Y743000D02*
X339700D01*
Y725000D02*
Y743000D01*
X270900Y725000D02*
X339700D01*
X270900D02*
Y743000D01*
X356000Y534000D02*
X386000D01*
X356000Y568000D02*
X386000D01*
X445000Y640000D02*
Y670000D01*
X479000Y640000D02*
Y670000D01*
X555000Y557000D02*
Y559000D01*
X521000Y557000D02*
X555000D01*
X521000D02*
Y559000D01*
Y581000D02*
Y583000D01*
X555000D01*
Y581000D02*
Y583000D01*
X352500Y785000D02*
G03*
X352500Y785000I-500J0D01*
G01*
X446500Y924000D02*
G03*
X446500Y924000I-500J0D01*
G01*
X274500Y848000D02*
X284000Y848000D01*
X262000Y860500D02*
X274500Y848000D01*
X317500Y848000D02*
X330000Y860500D01*
X308000Y848000D02*
X317500D01*
X262000Y860500D02*
Y916000D01*
X284000D01*
X308000D02*
X330000D01*
Y860500D02*
Y916000D01*
X829100Y761300D02*
Y786700D01*
X778300Y761300D02*
X829100D01*
X778300D02*
Y786700D01*
X829100D01*
X428000Y835000D02*
Y839250D01*
X423750Y835000D02*
X428000D01*
Y904750D02*
Y909000D01*
X423750D02*
X428000D01*
X354000D02*
X358250D01*
X354000Y904750D02*
Y909000D01*
Y835000D02*
Y839250D01*
Y835000D02*
X358250D01*
X691000Y761000D02*
X721700D01*
X691000D02*
Y779000D01*
X721700D01*
Y761000D02*
Y779000D01*
X595400Y978000D02*
Y996000D01*
X552000D02*
X595400D01*
X552000Y978000D02*
Y996000D01*
Y978000D02*
X595400D01*
X485000Y882000D02*
X515700D01*
X485000D02*
Y900000D01*
X515700D01*
Y882000D02*
Y900000D01*
X336000Y757000D02*
Y775000D01*
X455600D01*
Y757000D02*
Y775000D01*
X336000Y757000D02*
X455600D01*
X1048000Y855458D02*
Y865458D01*
X1055750D01*
X1078000Y855458D02*
Y865458D01*
X1070250D02*
X1078000D01*
X836000Y757000D02*
Y775000D01*
X955600D01*
Y757000D02*
Y775000D01*
X836000Y757000D02*
X955600D01*
X1068000Y889000D02*
X1073000D01*
X1068000D02*
Y894000D01*
Y928000D02*
Y933000D01*
X1073000D01*
X1107000D02*
X1112000D01*
Y928000D02*
Y933000D01*
X1107000Y889000D02*
X1112000D01*
Y894000D01*
X1101400Y978000D02*
Y996000D01*
X1058000D02*
X1101400D01*
X1058000Y978000D02*
Y996000D01*
Y978000D02*
X1101400D01*
X1191000Y761000D02*
X1221700D01*
X1191000D02*
Y779000D01*
X1221700D01*
Y761000D02*
Y779000D01*
X985000Y882000D02*
X1015700D01*
X985000D02*
Y900000D01*
X1015700D01*
Y882000D02*
Y900000D01*
X989000Y943493D02*
X989000Y933993D01*
X976500Y921493D02*
X989000Y933993D01*
X976500Y989493D02*
X989000Y976993D01*
Y967493D02*
Y976993D01*
X921000Y921493D02*
X976500D01*
X921000D02*
Y943493D01*
Y967493D02*
Y989493D01*
X976500D01*
X655793Y823708D02*
Y833208D01*
X643293Y811208D02*
X655793Y823708D01*
X643293Y879208D02*
X655793Y866708D01*
Y857208D02*
Y866708D01*
X587793Y811208D02*
X643293D01*
X587793D02*
Y833208D01*
Y857208D02*
Y879208D01*
X643293D01*
X1169300Y931300D02*
X1194700D01*
X1169300D02*
Y982100D01*
X1194700D01*
Y931300D02*
Y982100D01*
X1150585Y778915D02*
Y790415D01*
X1150585Y774415D02*
X1150585Y778915D01*
X1134585Y774415D02*
X1150585D01*
X1134585D02*
Y790415D01*
X1150585Y790415D01*
X1083458Y809458D02*
Y820958D01*
Y825458D01*
X1099458D01*
Y809458D02*
Y825458D01*
X1083458Y809458D02*
X1099458D01*
X968000Y752250D02*
X968000Y743000D01*
Y776750D02*
Y789300D01*
Y743000D02*
X1038000D01*
Y752250D01*
Y776750D02*
Y789300D01*
X400500Y982379D02*
Y984500D01*
Y981500D02*
Y983622D01*
Y981500D02*
X402000Y983000D01*
X400500Y984500D02*
X402000Y983000D01*
X778750Y796250D02*
Y901750D01*
X789750D01*
X778750Y796250D02*
X789750D01*
X772000Y931000D02*
Y975000D01*
X808000Y913500D02*
X848000D01*
Y921500D01*
X832000D02*
X848000D01*
X832000D02*
X832000Y934000D01*
X832000Y984500D02*
X832000Y972000D01*
X832000Y984500D02*
X848000D01*
Y992500D01*
X808000D02*
X848000D01*
X270900Y993000D02*
X339700D01*
Y975000D02*
Y993000D01*
X270900Y975000D02*
X339700D01*
X270900D02*
Y993000D01*
X356000Y784000D02*
X386000D01*
X356000Y818000D02*
X386000D01*
X445000Y890000D02*
Y920000D01*
X479000Y890000D02*
Y920000D01*
X555000Y807000D02*
Y809000D01*
X521000Y807000D02*
X555000D01*
X521000D02*
Y809000D01*
Y831000D02*
Y833000D01*
X555000D01*
Y831000D02*
Y833000D01*
X352500Y1035000D02*
G03*
X352500Y1035000I-500J0D01*
G01*
X446500Y1174000D02*
G03*
X446500Y1174000I-500J0D01*
G01*
X274500Y1098000D02*
X284000Y1098000D01*
X262000Y1110500D02*
X274500Y1098000D01*
X317500Y1098000D02*
X330000Y1110500D01*
X308000Y1098000D02*
X317500D01*
X262000Y1110500D02*
Y1166000D01*
X284000D01*
X308000D02*
X330000D01*
Y1110500D02*
Y1166000D01*
X829100Y1011300D02*
Y1036700D01*
X778300Y1011300D02*
X829100D01*
X778300D02*
Y1036700D01*
X829100D01*
X428000Y1085000D02*
Y1089250D01*
X423750Y1085000D02*
X428000D01*
Y1154750D02*
Y1159000D01*
X423750D02*
X428000D01*
X354000D02*
X358250D01*
X354000Y1154750D02*
Y1159000D01*
Y1085000D02*
Y1089250D01*
Y1085000D02*
X358250D01*
X691000Y1011000D02*
X721700D01*
X691000D02*
Y1029000D01*
X721700D01*
Y1011000D02*
Y1029000D01*
X595400Y1228000D02*
Y1246000D01*
X552000D02*
X595400D01*
X552000Y1228000D02*
Y1246000D01*
Y1228000D02*
X595400D01*
X485000Y1132000D02*
X515700D01*
X485000D02*
Y1150000D01*
X515700D01*
Y1132000D02*
Y1150000D01*
X336000Y1007000D02*
Y1025000D01*
X455600D01*
Y1007000D02*
Y1025000D01*
X336000Y1007000D02*
X455600D01*
X1048000Y1105458D02*
Y1115458D01*
X1055750D01*
X1078000Y1105458D02*
Y1115458D01*
X1070250D02*
X1078000D01*
X836000Y1007000D02*
Y1025000D01*
X955600D01*
Y1007000D02*
Y1025000D01*
X836000Y1007000D02*
X955600D01*
X1068000Y1139000D02*
X1073000D01*
X1068000D02*
Y1144000D01*
Y1178000D02*
Y1183000D01*
X1073000D01*
X1107000D02*
X1112000D01*
Y1178000D02*
Y1183000D01*
X1107000Y1139000D02*
X1112000D01*
Y1144000D01*
X1101400Y1228000D02*
Y1246000D01*
X1058000D02*
X1101400D01*
X1058000Y1228000D02*
Y1246000D01*
Y1228000D02*
X1101400D01*
X1191000Y1011000D02*
X1221700D01*
X1191000D02*
Y1029000D01*
X1221700D01*
Y1011000D02*
Y1029000D01*
X985000Y1132000D02*
X1015700D01*
X985000D02*
Y1150000D01*
X1015700D01*
Y1132000D02*
Y1150000D01*
X989000Y1193493D02*
X989000Y1183993D01*
X976500Y1171493D02*
X989000Y1183993D01*
X976500Y1239493D02*
X989000Y1226993D01*
Y1217493D02*
Y1226993D01*
X921000Y1171493D02*
X976500D01*
X921000D02*
Y1193493D01*
Y1217493D02*
Y1239493D01*
X976500D01*
X655793Y1073708D02*
Y1083208D01*
X643293Y1061208D02*
X655793Y1073708D01*
X643293Y1129208D02*
X655793Y1116708D01*
Y1107208D02*
Y1116708D01*
X587793Y1061208D02*
X643293D01*
X587793D02*
Y1083208D01*
Y1107208D02*
Y1129208D01*
X643293D01*
X1169300Y1181300D02*
X1194700D01*
X1169300D02*
Y1232100D01*
X1194700D01*
Y1181300D02*
Y1232100D01*
X1150585Y1028915D02*
Y1040415D01*
X1150585Y1024415D02*
X1150585Y1028915D01*
X1134585Y1024415D02*
X1150585D01*
X1134585D02*
Y1040415D01*
X1150585Y1040415D01*
X1083458Y1059458D02*
Y1070958D01*
Y1075458D01*
X1099458D01*
Y1059458D02*
Y1075458D01*
X1083458Y1059458D02*
X1099458D01*
X968000Y1002250D02*
X968000Y993000D01*
Y1026750D02*
Y1039300D01*
Y993000D02*
X1038000D01*
Y1002250D01*
Y1026750D02*
Y1039300D01*
X400500Y1232379D02*
Y1234500D01*
Y1231500D02*
Y1233622D01*
Y1231500D02*
X402000Y1233000D01*
X400500Y1234500D02*
X402000Y1233000D01*
X778750Y1046250D02*
Y1151750D01*
X789750D01*
X778750Y1046250D02*
X789750D01*
X772000Y1181000D02*
Y1225000D01*
X808000Y1163500D02*
X848000D01*
Y1171500D01*
X832000D02*
X848000D01*
X832000D02*
X832000Y1184000D01*
X832000Y1234500D02*
X832000Y1222000D01*
X832000Y1234500D02*
X848000D01*
Y1242500D01*
X808000D02*
X848000D01*
X270900Y1243000D02*
X339700D01*
Y1225000D02*
Y1243000D01*
X270900Y1225000D02*
X339700D01*
X270900D02*
Y1243000D01*
X356000Y1034000D02*
X386000D01*
X356000Y1068000D02*
X386000D01*
X445000Y1140000D02*
Y1170000D01*
X479000Y1140000D02*
Y1170000D01*
X555000Y1057000D02*
Y1059000D01*
X521000Y1057000D02*
X555000D01*
X521000D02*
Y1059000D01*
Y1081000D02*
Y1083000D01*
X555000D01*
Y1081000D02*
Y1083000D01*
D68*
X356750Y328500D02*
G03*
X356750Y328500I-1250J0D01*
G01*
X1070750Y382500D02*
G03*
X1070750Y382500I-1250J0D01*
G01*
X991250Y303750D02*
G03*
X991250Y303750I-1250J0D01*
G01*
X868750Y463000D02*
G03*
X868750Y463000I-1250J0D01*
G01*
X356750Y578500D02*
G03*
X356750Y578500I-1250J0D01*
G01*
X1070750Y632500D02*
G03*
X1070750Y632500I-1250J0D01*
G01*
X991250Y553750D02*
G03*
X991250Y553750I-1250J0D01*
G01*
X868750Y713000D02*
G03*
X868750Y713000I-1250J0D01*
G01*
X356750Y828500D02*
G03*
X356750Y828500I-1250J0D01*
G01*
X1070750Y882500D02*
G03*
X1070750Y882500I-1250J0D01*
G01*
X991250Y803750D02*
G03*
X991250Y803750I-1250J0D01*
G01*
X868750Y963000D02*
G03*
X868750Y963000I-1250J0D01*
G01*
X356750Y1078500D02*
G03*
X356750Y1078500I-1250J0D01*
G01*
X1070750Y1132500D02*
G03*
X1070750Y1132500I-1250J0D01*
G01*
X991250Y1053750D02*
G03*
X991250Y1053750I-1250J0D01*
G01*
X868750Y1213000D02*
G03*
X868750Y1213000I-1250J0D01*
G01*
D69*
X827100Y375000D02*
Y371614D01*
Y373307D01*
X837257D01*
X835564Y375000D01*
Y326000D02*
X837257Y324307D01*
Y320922D01*
X835564Y319229D01*
X833871D01*
X832178Y320922D01*
X830486Y319229D01*
X828793D01*
X827100Y320922D01*
Y324307D01*
X828793Y326000D01*
X830486D01*
X832178Y324307D01*
X833871Y326000D01*
X835564D01*
X832178Y324307D02*
Y320922D01*
X827100Y625000D02*
Y621615D01*
Y623307D01*
X837257D01*
X835564Y625000D01*
Y576000D02*
X837257Y574307D01*
Y570922D01*
X835564Y569229D01*
X833871D01*
X832178Y570922D01*
X830486Y569229D01*
X828793D01*
X827100Y570922D01*
Y574307D01*
X828793Y576000D01*
X830486D01*
X832178Y574307D01*
X833871Y576000D01*
X835564D01*
X832178Y574307D02*
Y570922D01*
X827100Y875000D02*
Y871615D01*
Y873307D01*
X837257D01*
X835564Y875000D01*
Y826000D02*
X837257Y824307D01*
Y820922D01*
X835564Y819229D01*
X833871D01*
X832178Y820922D01*
X830486Y819229D01*
X828793D01*
X827100Y820922D01*
Y824307D01*
X828793Y826000D01*
X830486D01*
X832178Y824307D01*
X833871Y826000D01*
X835564D01*
X832178Y824307D02*
Y820922D01*
X827100Y1125000D02*
Y1121615D01*
Y1123307D01*
X837257D01*
X835564Y1125000D01*
Y1076000D02*
X837257Y1074307D01*
Y1070922D01*
X835564Y1069229D01*
X833871D01*
X832178Y1070922D01*
X830486Y1069229D01*
X828793D01*
X827100Y1070922D01*
Y1074307D01*
X828793Y1076000D01*
X830486D01*
X832178Y1074307D01*
X833871Y1076000D01*
X835564D01*
X832178Y1074307D02*
Y1070922D01*
M02*
