G04*
G04 #@! TF.GenerationSoftware,Altium Limited,Altium Designer,21.0.9 (235)*
G04*
G04 Layer_Color=8388736*
%FSLAX44Y44*%
%MOMM*%
G71*
G04*
G04 #@! TF.SameCoordinates,5DD7C229-C87D-40E0-AB69-EEC5175B06D6*
G04*
G04*
G04 #@! TF.FilePolarity,Negative*
G04*
G01*
G75*
%ADD10C,0.2540*%
%ADD70R,1.4032X1.7532*%
%ADD71R,1.4032X1.7532*%
G36*
X1096090Y1074967D02*
X1096221Y1074941D01*
X1096347Y1074898D01*
X1096467Y1074839D01*
X1096578Y1074765D01*
X1096678Y1074678D01*
X1096765Y1074578D01*
X1096839Y1074467D01*
X1096898Y1074347D01*
X1096941Y1074221D01*
X1096967Y1074091D01*
X1096976Y1073958D01*
Y1069958D01*
X1096967Y1069825D01*
X1096941Y1069694D01*
X1096898Y1069568D01*
X1096839Y1069449D01*
X1096765Y1069338D01*
X1096678Y1069238D01*
X1096578Y1069150D01*
X1096467Y1069076D01*
X1096347Y1069017D01*
X1096221Y1068974D01*
X1096090Y1068948D01*
X1095958Y1068940D01*
X1095258D01*
X1095125Y1068948D01*
X1094994Y1068974D01*
X1094868Y1069017D01*
X1094749Y1069076D01*
X1094638Y1069150D01*
X1094538Y1069238D01*
X1092738Y1071038D01*
X1092650Y1071138D01*
X1092576Y1071249D01*
X1092517Y1071368D01*
X1092474Y1071494D01*
X1092448Y1071625D01*
X1092439Y1071758D01*
Y1073958D01*
X1092448Y1074091D01*
X1092474Y1074221D01*
X1092517Y1074347D01*
X1092576Y1074467D01*
X1092650Y1074578D01*
X1092738Y1074678D01*
X1092838Y1074765D01*
X1092949Y1074839D01*
X1093068Y1074898D01*
X1093194Y1074941D01*
X1093325Y1074967D01*
X1093458Y1074976D01*
X1095958D01*
X1096090Y1074967D01*
D02*
G37*
G36*
X1089591D02*
X1089721Y1074941D01*
X1089847Y1074898D01*
X1089967Y1074839D01*
X1090077Y1074765D01*
X1090178Y1074678D01*
X1090265Y1074578D01*
X1090339Y1074467D01*
X1090398Y1074347D01*
X1090441Y1074221D01*
X1090467Y1074091D01*
X1090476Y1073958D01*
Y1071758D01*
X1090467Y1071625D01*
X1090441Y1071494D01*
X1090398Y1071368D01*
X1090339Y1071249D01*
X1090265Y1071138D01*
X1090178Y1071038D01*
X1088378Y1069238D01*
X1088278Y1069150D01*
X1088167Y1069076D01*
X1088047Y1069017D01*
X1087921Y1068974D01*
X1087791Y1068948D01*
X1087658Y1068940D01*
X1086958D01*
X1086825Y1068948D01*
X1086694Y1068974D01*
X1086568Y1069017D01*
X1086449Y1069076D01*
X1086338Y1069150D01*
X1086238Y1069238D01*
X1086150Y1069338D01*
X1086076Y1069449D01*
X1086017Y1069568D01*
X1085974Y1069694D01*
X1085948Y1069825D01*
X1085939Y1069958D01*
Y1073958D01*
X1085948Y1074091D01*
X1085974Y1074221D01*
X1086017Y1074347D01*
X1086076Y1074467D01*
X1086150Y1074578D01*
X1086238Y1074678D01*
X1086338Y1074765D01*
X1086449Y1074839D01*
X1086568Y1074898D01*
X1086694Y1074941D01*
X1086825Y1074967D01*
X1086958Y1074976D01*
X1089458D01*
X1089591Y1074967D01*
D02*
G37*
G36*
X1096090Y1065969D02*
X1096221Y1065943D01*
X1096347Y1065900D01*
X1096467Y1065842D01*
X1096578Y1065768D01*
X1096678Y1065680D01*
X1096765Y1065580D01*
X1096839Y1065469D01*
X1096898Y1065349D01*
X1096941Y1065223D01*
X1096967Y1065093D01*
X1096976Y1064960D01*
Y1060960D01*
X1096967Y1060827D01*
X1096941Y1060696D01*
X1096898Y1060570D01*
X1096839Y1060451D01*
X1096765Y1060340D01*
X1096678Y1060240D01*
X1096578Y1060152D01*
X1096467Y1060078D01*
X1096347Y1060019D01*
X1096221Y1059976D01*
X1096090Y1059950D01*
X1095958Y1059942D01*
X1093458D01*
X1093325Y1059950D01*
X1093194Y1059976D01*
X1093068Y1060019D01*
X1092949Y1060078D01*
X1092838Y1060152D01*
X1092738Y1060240D01*
X1092650Y1060340D01*
X1092576Y1060451D01*
X1092517Y1060570D01*
X1092474Y1060696D01*
X1092448Y1060827D01*
X1092439Y1060960D01*
Y1063160D01*
X1092448Y1063293D01*
X1092474Y1063423D01*
X1092517Y1063549D01*
X1092576Y1063669D01*
X1092650Y1063780D01*
X1092738Y1063880D01*
X1094538Y1065680D01*
X1094638Y1065768D01*
X1094749Y1065842D01*
X1094868Y1065900D01*
X1094994Y1065943D01*
X1095125Y1065969D01*
X1095258Y1065978D01*
X1095958D01*
X1096090Y1065969D01*
D02*
G37*
G36*
X1087093Y1066665D02*
X1087224Y1066639D01*
X1087350Y1066596D01*
X1087469Y1066537D01*
X1087580Y1066463D01*
X1087680Y1066376D01*
X1090180Y1063876D01*
X1090268Y1063775D01*
X1090342Y1063665D01*
X1090401Y1063545D01*
X1090443Y1063419D01*
X1090469Y1063289D01*
X1090478Y1063156D01*
Y1060956D01*
X1090469Y1060823D01*
X1090443Y1060692D01*
X1090401Y1060566D01*
X1090342Y1060447D01*
X1090268Y1060336D01*
X1090180Y1060236D01*
X1090080Y1060148D01*
X1089969Y1060074D01*
X1089850Y1060015D01*
X1089724Y1059972D01*
X1089593Y1059946D01*
X1089460Y1059938D01*
X1086960D01*
X1086827Y1059946D01*
X1086696Y1059972D01*
X1086570Y1060015D01*
X1086451Y1060074D01*
X1086340Y1060148D01*
X1086240Y1060236D01*
X1086152Y1060336D01*
X1086078Y1060447D01*
X1086019Y1060566D01*
X1085976Y1060692D01*
X1085950Y1060823D01*
X1085942Y1060956D01*
Y1065656D01*
X1085950Y1065789D01*
X1085976Y1065919D01*
X1086019Y1066045D01*
X1086078Y1066165D01*
X1086152Y1066275D01*
X1086240Y1066376D01*
X1086340Y1066463D01*
X1086451Y1066537D01*
X1086570Y1066596D01*
X1086696Y1066639D01*
X1086827Y1066665D01*
X1086960Y1066674D01*
X1087093Y1066665D01*
D02*
G37*
G36*
X1140718Y1039923D02*
X1140849Y1039897D01*
X1140975Y1039854D01*
X1141094Y1039795D01*
X1141205Y1039721D01*
X1141305Y1039633D01*
X1141393Y1039533D01*
X1141467Y1039422D01*
X1141526Y1039303D01*
X1141569Y1039177D01*
X1141595Y1039046D01*
X1141603Y1038913D01*
Y1036713D01*
X1141595Y1036580D01*
X1141569Y1036450D01*
X1141526Y1036323D01*
X1141467Y1036204D01*
X1141393Y1036093D01*
X1141305Y1035993D01*
X1139505Y1034193D01*
D01*
D01*
X1139505Y1034193D01*
X1139405Y1034105D01*
X1139294Y1034031D01*
X1139175Y1033972D01*
X1139081Y1033941D01*
X1139049Y1033930D01*
X1138918Y1033904D01*
X1138785Y1033895D01*
X1138085Y1033895D01*
D01*
X1138085D01*
X1137952Y1033904D01*
X1137822Y1033930D01*
X1137779Y1033944D01*
X1137695Y1033972D01*
X1137576Y1034031D01*
X1137465Y1034105D01*
X1137365Y1034193D01*
Y1034193D01*
X1137365D01*
X1137277Y1034293D01*
X1137203Y1034404D01*
X1137144Y1034523D01*
X1137116Y1034607D01*
X1137102Y1034650D01*
X1137076Y1034780D01*
X1137067Y1034913D01*
Y1034913D01*
D01*
Y1038913D01*
X1137076Y1039046D01*
X1137102Y1039177D01*
X1137144Y1039303D01*
X1137203Y1039422D01*
X1137277Y1039533D01*
X1137365Y1039633D01*
X1137465Y1039721D01*
X1137576Y1039795D01*
X1137695Y1039854D01*
X1137822Y1039897D01*
X1137952Y1039923D01*
X1138085Y1039931D01*
X1140585D01*
X1140718Y1039923D01*
D02*
G37*
G36*
X1147216Y1039927D02*
X1147346Y1039901D01*
X1147472Y1039858D01*
X1147592Y1039799D01*
X1147703Y1039725D01*
X1147803Y1039637D01*
X1147891Y1039537D01*
X1147965Y1039426D01*
X1148024Y1039307D01*
X1148066Y1039181D01*
X1148092Y1039050D01*
X1148101Y1038917D01*
Y1034217D01*
X1148092Y1034084D01*
X1148066Y1033954D01*
X1148024Y1033828D01*
X1147965Y1033708D01*
X1147891Y1033597D01*
X1147803Y1033497D01*
X1147703Y1033410D01*
X1147592Y1033335D01*
X1147473Y1033277D01*
X1147346Y1033234D01*
X1147216Y1033208D01*
X1147083Y1033199D01*
X1146950Y1033208D01*
X1146819Y1033234D01*
X1146693Y1033277D01*
X1146574Y1033335D01*
X1146463Y1033410D01*
X1146363Y1033497D01*
X1143863Y1035997D01*
X1143775Y1036097D01*
X1143701Y1036208D01*
X1143642Y1036328D01*
X1143599Y1036454D01*
X1143573Y1036584D01*
X1143565Y1036717D01*
Y1038917D01*
X1143573Y1039050D01*
X1143599Y1039181D01*
X1143642Y1039307D01*
X1143701Y1039426D01*
X1143775Y1039537D01*
X1143863Y1039637D01*
X1143963Y1039725D01*
X1144074Y1039799D01*
X1144193Y1039858D01*
X1144319Y1039901D01*
X1144450Y1039927D01*
X1144583Y1039935D01*
X1147083D01*
X1147216Y1039927D01*
D02*
G37*
G36*
X1147218Y1030925D02*
X1147349Y1030899D01*
X1147392Y1030884D01*
X1147475Y1030856D01*
X1147594Y1030797D01*
X1147705Y1030723D01*
X1147805Y1030635D01*
Y1030635D01*
X1147805D01*
X1147893Y1030535D01*
X1147967Y1030424D01*
X1148026Y1030305D01*
X1148054Y1030221D01*
X1148069Y1030179D01*
X1148095Y1030048D01*
X1148103Y1029915D01*
D01*
Y1029915D01*
X1148103Y1025915D01*
X1148095Y1025782D01*
X1148069Y1025652D01*
X1148026Y1025526D01*
X1147967Y1025406D01*
X1147893Y1025295D01*
X1147805Y1025195D01*
X1147705Y1025107D01*
X1147594Y1025033D01*
X1147475Y1024975D01*
X1147349Y1024932D01*
X1147218Y1024906D01*
X1147085Y1024897D01*
X1144585D01*
X1144452Y1024906D01*
X1144322Y1024932D01*
X1144195Y1024975D01*
X1144076Y1025033D01*
X1143965Y1025107D01*
X1143865Y1025195D01*
X1143777Y1025295D01*
X1143703Y1025406D01*
X1143644Y1025526D01*
X1143602Y1025652D01*
X1143576Y1025782D01*
X1143567Y1025915D01*
X1143567Y1028115D01*
X1143576Y1028248D01*
X1143602Y1028379D01*
X1143644Y1028505D01*
X1143703Y1028624D01*
X1143777Y1028735D01*
X1143865Y1028835D01*
X1145665Y1030635D01*
X1145765Y1030723D01*
X1145876Y1030797D01*
X1145995Y1030856D01*
X1146058Y1030877D01*
X1146122Y1030899D01*
X1146252Y1030925D01*
X1146385Y1030933D01*
X1147085Y1030933D01*
D01*
X1147085D01*
X1147218Y1030925D01*
D02*
G37*
G36*
X1138918D02*
X1139049Y1030899D01*
X1139175Y1030856D01*
X1139294Y1030797D01*
X1139405Y1030723D01*
X1139505Y1030635D01*
X1141305Y1028835D01*
X1141393Y1028735D01*
X1141467Y1028624D01*
X1141526Y1028505D01*
X1141569Y1028379D01*
X1141595Y1028248D01*
X1141603Y1028115D01*
Y1025915D01*
X1141595Y1025782D01*
X1141569Y1025652D01*
X1141526Y1025526D01*
X1141467Y1025406D01*
X1141393Y1025295D01*
X1141305Y1025195D01*
X1141205Y1025107D01*
X1141094Y1025033D01*
X1140975Y1024975D01*
X1140849Y1024932D01*
X1140718Y1024906D01*
X1140585Y1024897D01*
X1138085D01*
X1137952Y1024906D01*
X1137822Y1024932D01*
X1137695Y1024975D01*
X1137576Y1025033D01*
X1137465Y1025107D01*
X1137365Y1025195D01*
X1137277Y1025295D01*
X1137203Y1025406D01*
X1137144Y1025526D01*
X1137102Y1025652D01*
X1137076Y1025782D01*
X1137067Y1025915D01*
Y1029915D01*
X1137076Y1030048D01*
X1137102Y1030179D01*
X1137144Y1030305D01*
X1137203Y1030424D01*
X1137277Y1030535D01*
X1137365Y1030635D01*
X1137465Y1030723D01*
X1137576Y1030797D01*
X1137695Y1030856D01*
X1137822Y1030899D01*
X1137952Y1030925D01*
X1138085Y1030933D01*
X1138785D01*
X1138918Y1030925D01*
D02*
G37*
G36*
X1096090Y824967D02*
X1096221Y824941D01*
X1096347Y824898D01*
X1096467Y824839D01*
X1096578Y824765D01*
X1096678Y824678D01*
X1096765Y824577D01*
X1096839Y824467D01*
X1096898Y824347D01*
X1096941Y824221D01*
X1096967Y824091D01*
X1096976Y823958D01*
Y819958D01*
X1096967Y819825D01*
X1096941Y819694D01*
X1096898Y819568D01*
X1096839Y819449D01*
X1096765Y819338D01*
X1096678Y819238D01*
X1096578Y819150D01*
X1096467Y819076D01*
X1096347Y819017D01*
X1096221Y818974D01*
X1096090Y818948D01*
X1095958Y818940D01*
X1095258D01*
X1095125Y818948D01*
X1094994Y818974D01*
X1094868Y819017D01*
X1094749Y819076D01*
X1094638Y819150D01*
X1094538Y819238D01*
X1092738Y821038D01*
X1092650Y821138D01*
X1092576Y821249D01*
X1092517Y821368D01*
X1092474Y821494D01*
X1092448Y821625D01*
X1092439Y821758D01*
Y823958D01*
X1092448Y824091D01*
X1092474Y824221D01*
X1092517Y824347D01*
X1092576Y824467D01*
X1092650Y824577D01*
X1092738Y824678D01*
X1092838Y824765D01*
X1092949Y824839D01*
X1093068Y824898D01*
X1093194Y824941D01*
X1093325Y824967D01*
X1093458Y824976D01*
X1095958D01*
X1096090Y824967D01*
D02*
G37*
G36*
X1089591D02*
X1089721Y824941D01*
X1089847Y824898D01*
X1089967Y824839D01*
X1090077Y824765D01*
X1090178Y824678D01*
X1090265Y824577D01*
X1090339Y824467D01*
X1090398Y824347D01*
X1090441Y824221D01*
X1090467Y824091D01*
X1090476Y823958D01*
Y821758D01*
X1090467Y821625D01*
X1090441Y821494D01*
X1090398Y821368D01*
X1090339Y821249D01*
X1090265Y821138D01*
X1090178Y821038D01*
X1088378Y819238D01*
X1088278Y819150D01*
X1088167Y819076D01*
X1088047Y819017D01*
X1087921Y818974D01*
X1087791Y818948D01*
X1087658Y818940D01*
X1086958D01*
X1086825Y818948D01*
X1086694Y818974D01*
X1086568Y819017D01*
X1086449Y819076D01*
X1086338Y819150D01*
X1086238Y819238D01*
X1086150Y819338D01*
X1086076Y819449D01*
X1086017Y819568D01*
X1085974Y819694D01*
X1085948Y819825D01*
X1085939Y819958D01*
Y823958D01*
X1085948Y824091D01*
X1085974Y824221D01*
X1086017Y824347D01*
X1086076Y824467D01*
X1086150Y824577D01*
X1086238Y824678D01*
X1086338Y824765D01*
X1086449Y824839D01*
X1086568Y824898D01*
X1086694Y824941D01*
X1086825Y824967D01*
X1086958Y824976D01*
X1089458D01*
X1089591Y824967D01*
D02*
G37*
G36*
X1096090Y815969D02*
X1096221Y815943D01*
X1096347Y815900D01*
X1096467Y815842D01*
X1096578Y815768D01*
X1096678Y815680D01*
X1096765Y815580D01*
X1096839Y815469D01*
X1096898Y815349D01*
X1096941Y815223D01*
X1096967Y815093D01*
X1096976Y814960D01*
Y810960D01*
X1096967Y810827D01*
X1096941Y810696D01*
X1096898Y810570D01*
X1096839Y810451D01*
X1096765Y810340D01*
X1096678Y810240D01*
X1096578Y810152D01*
X1096467Y810078D01*
X1096347Y810019D01*
X1096221Y809976D01*
X1096090Y809950D01*
X1095958Y809942D01*
X1093458D01*
X1093325Y809950D01*
X1093194Y809976D01*
X1093068Y810019D01*
X1092949Y810078D01*
X1092838Y810152D01*
X1092738Y810240D01*
X1092650Y810340D01*
X1092576Y810451D01*
X1092517Y810570D01*
X1092474Y810696D01*
X1092448Y810827D01*
X1092439Y810960D01*
Y813160D01*
X1092448Y813293D01*
X1092474Y813423D01*
X1092517Y813549D01*
X1092576Y813669D01*
X1092650Y813780D01*
X1092738Y813880D01*
X1094538Y815680D01*
X1094638Y815768D01*
X1094749Y815842D01*
X1094868Y815900D01*
X1094994Y815943D01*
X1095125Y815969D01*
X1095258Y815978D01*
X1095958D01*
X1096090Y815969D01*
D02*
G37*
G36*
X1087093Y816665D02*
X1087224Y816639D01*
X1087350Y816596D01*
X1087469Y816537D01*
X1087580Y816463D01*
X1087680Y816376D01*
X1090180Y813876D01*
X1090268Y813775D01*
X1090342Y813665D01*
X1090401Y813545D01*
X1090443Y813419D01*
X1090469Y813288D01*
X1090478Y813156D01*
Y810956D01*
X1090469Y810823D01*
X1090443Y810692D01*
X1090401Y810566D01*
X1090342Y810446D01*
X1090268Y810336D01*
X1090180Y810236D01*
X1090080Y810148D01*
X1089969Y810074D01*
X1089850Y810015D01*
X1089724Y809972D01*
X1089593Y809946D01*
X1089460Y809937D01*
X1086960D01*
X1086827Y809946D01*
X1086696Y809972D01*
X1086570Y810015D01*
X1086451Y810074D01*
X1086340Y810148D01*
X1086240Y810236D01*
X1086152Y810336D01*
X1086078Y810446D01*
X1086019Y810566D01*
X1085976Y810692D01*
X1085950Y810823D01*
X1085942Y810956D01*
Y815656D01*
X1085950Y815788D01*
X1085976Y815919D01*
X1086019Y816045D01*
X1086078Y816165D01*
X1086152Y816275D01*
X1086240Y816376D01*
X1086340Y816463D01*
X1086451Y816537D01*
X1086570Y816596D01*
X1086696Y816639D01*
X1086827Y816665D01*
X1086960Y816674D01*
X1087093Y816665D01*
D02*
G37*
G36*
X1140718Y789922D02*
X1140849Y789896D01*
X1140975Y789854D01*
X1141094Y789795D01*
X1141205Y789721D01*
X1141305Y789633D01*
X1141393Y789533D01*
X1141467Y789422D01*
X1141526Y789303D01*
X1141569Y789177D01*
X1141595Y789046D01*
X1141603Y788913D01*
Y786713D01*
X1141595Y786580D01*
X1141569Y786450D01*
X1141526Y786323D01*
X1141467Y786204D01*
X1141393Y786093D01*
X1141305Y785993D01*
X1139505Y784193D01*
D01*
D01*
X1139505Y784193D01*
X1139405Y784105D01*
X1139294Y784031D01*
X1139175Y783972D01*
X1139081Y783940D01*
X1139049Y783930D01*
X1138918Y783904D01*
X1138785Y783895D01*
X1138085Y783895D01*
D01*
X1138085D01*
X1137952Y783904D01*
X1137822Y783930D01*
X1137779Y783944D01*
X1137695Y783972D01*
X1137576Y784031D01*
X1137465Y784105D01*
X1137365Y784193D01*
Y784193D01*
X1137365D01*
X1137277Y784293D01*
X1137203Y784404D01*
X1137144Y784523D01*
X1137116Y784607D01*
X1137102Y784650D01*
X1137076Y784780D01*
X1137067Y784913D01*
Y784913D01*
D01*
Y788913D01*
X1137076Y789046D01*
X1137102Y789177D01*
X1137144Y789303D01*
X1137203Y789422D01*
X1137277Y789533D01*
X1137365Y789633D01*
X1137465Y789721D01*
X1137576Y789795D01*
X1137695Y789854D01*
X1137822Y789896D01*
X1137952Y789922D01*
X1138085Y789931D01*
X1140585D01*
X1140718Y789922D01*
D02*
G37*
G36*
X1147216Y789927D02*
X1147346Y789901D01*
X1147472Y789858D01*
X1147592Y789799D01*
X1147703Y789725D01*
X1147803Y789637D01*
X1147891Y789537D01*
X1147965Y789426D01*
X1148024Y789307D01*
X1148066Y789181D01*
X1148092Y789050D01*
X1148101Y788917D01*
Y784217D01*
X1148092Y784084D01*
X1148066Y783954D01*
X1148024Y783828D01*
X1147965Y783708D01*
X1147891Y783597D01*
X1147803Y783497D01*
X1147703Y783409D01*
X1147592Y783335D01*
X1147473Y783277D01*
X1147346Y783234D01*
X1147216Y783208D01*
X1147083Y783199D01*
X1146950Y783208D01*
X1146819Y783234D01*
X1146693Y783277D01*
X1146574Y783335D01*
X1146463Y783409D01*
X1146363Y783497D01*
X1143863Y785997D01*
X1143775Y786097D01*
X1143701Y786208D01*
X1143642Y786328D01*
X1143599Y786454D01*
X1143573Y786584D01*
X1143565Y786717D01*
Y788917D01*
X1143573Y789050D01*
X1143599Y789181D01*
X1143642Y789307D01*
X1143701Y789426D01*
X1143775Y789537D01*
X1143863Y789637D01*
X1143963Y789725D01*
X1144074Y789799D01*
X1144193Y789858D01*
X1144319Y789901D01*
X1144450Y789927D01*
X1144583Y789935D01*
X1147083D01*
X1147216Y789927D01*
D02*
G37*
G36*
X1147218Y780925D02*
X1147349Y780899D01*
X1147392Y780884D01*
X1147475Y780856D01*
X1147594Y780797D01*
X1147705Y780723D01*
X1147805Y780635D01*
Y780635D01*
X1147805D01*
X1147893Y780535D01*
X1147967Y780424D01*
X1148026Y780305D01*
X1148054Y780221D01*
X1148069Y780179D01*
X1148095Y780048D01*
X1148103Y779915D01*
D01*
Y779915D01*
X1148103Y775915D01*
X1148095Y775782D01*
X1148069Y775652D01*
X1148026Y775526D01*
X1147967Y775406D01*
X1147893Y775295D01*
X1147805Y775195D01*
X1147705Y775107D01*
X1147594Y775033D01*
X1147475Y774974D01*
X1147349Y774932D01*
X1147218Y774906D01*
X1147085Y774897D01*
X1144585D01*
X1144452Y774906D01*
X1144322Y774932D01*
X1144195Y774974D01*
X1144076Y775033D01*
X1143965Y775107D01*
X1143865Y775195D01*
X1143777Y775295D01*
X1143703Y775406D01*
X1143644Y775526D01*
X1143602Y775652D01*
X1143576Y775782D01*
X1143567Y775915D01*
X1143567Y778115D01*
X1143576Y778248D01*
X1143602Y778379D01*
X1143644Y778505D01*
X1143703Y778624D01*
X1143777Y778735D01*
X1143865Y778835D01*
X1145665Y780635D01*
X1145765Y780723D01*
X1145876Y780797D01*
X1145995Y780856D01*
X1146058Y780877D01*
X1146122Y780899D01*
X1146252Y780925D01*
X1146385Y780933D01*
X1147085Y780933D01*
D01*
X1147085D01*
X1147218Y780925D01*
D02*
G37*
G36*
X1138918D02*
X1139049Y780899D01*
X1139175Y780856D01*
X1139294Y780797D01*
X1139405Y780723D01*
X1139505Y780635D01*
X1141305Y778835D01*
X1141393Y778735D01*
X1141467Y778624D01*
X1141526Y778505D01*
X1141569Y778379D01*
X1141595Y778248D01*
X1141603Y778115D01*
Y775915D01*
X1141595Y775782D01*
X1141569Y775652D01*
X1141526Y775526D01*
X1141467Y775406D01*
X1141393Y775295D01*
X1141305Y775195D01*
X1141205Y775107D01*
X1141094Y775033D01*
X1140975Y774974D01*
X1140849Y774932D01*
X1140718Y774906D01*
X1140585Y774897D01*
X1138085D01*
X1137952Y774906D01*
X1137822Y774932D01*
X1137695Y774974D01*
X1137576Y775033D01*
X1137465Y775107D01*
X1137365Y775195D01*
X1137277Y775295D01*
X1137203Y775406D01*
X1137144Y775526D01*
X1137102Y775652D01*
X1137076Y775782D01*
X1137067Y775915D01*
Y779915D01*
X1137076Y780048D01*
X1137102Y780179D01*
X1137144Y780305D01*
X1137203Y780424D01*
X1137277Y780535D01*
X1137365Y780635D01*
X1137465Y780723D01*
X1137576Y780797D01*
X1137695Y780856D01*
X1137822Y780899D01*
X1137952Y780925D01*
X1138085Y780933D01*
X1138785D01*
X1138918Y780925D01*
D02*
G37*
G36*
X1096090Y574967D02*
X1096221Y574941D01*
X1096347Y574898D01*
X1096467Y574839D01*
X1096578Y574765D01*
X1096678Y574678D01*
X1096765Y574577D01*
X1096839Y574467D01*
X1096898Y574347D01*
X1096941Y574221D01*
X1096967Y574090D01*
X1096976Y573958D01*
Y569958D01*
X1096967Y569825D01*
X1096941Y569694D01*
X1096898Y569568D01*
X1096839Y569449D01*
X1096765Y569338D01*
X1096678Y569238D01*
X1096578Y569150D01*
X1096467Y569076D01*
X1096347Y569017D01*
X1096221Y568974D01*
X1096090Y568948D01*
X1095958Y568940D01*
X1095258D01*
X1095125Y568948D01*
X1094994Y568974D01*
X1094868Y569017D01*
X1094749Y569076D01*
X1094638Y569150D01*
X1094538Y569238D01*
X1092738Y571038D01*
X1092650Y571138D01*
X1092576Y571249D01*
X1092517Y571368D01*
X1092474Y571494D01*
X1092448Y571625D01*
X1092439Y571758D01*
Y573958D01*
X1092448Y574090D01*
X1092474Y574221D01*
X1092517Y574347D01*
X1092576Y574467D01*
X1092650Y574577D01*
X1092738Y574678D01*
X1092838Y574765D01*
X1092949Y574839D01*
X1093068Y574898D01*
X1093194Y574941D01*
X1093325Y574967D01*
X1093458Y574976D01*
X1095958D01*
X1096090Y574967D01*
D02*
G37*
G36*
X1089591D02*
X1089721Y574941D01*
X1089847Y574898D01*
X1089967Y574839D01*
X1090077Y574765D01*
X1090178Y574678D01*
X1090265Y574577D01*
X1090339Y574467D01*
X1090398Y574347D01*
X1090441Y574221D01*
X1090467Y574090D01*
X1090476Y573958D01*
Y571758D01*
X1090467Y571625D01*
X1090441Y571494D01*
X1090398Y571368D01*
X1090339Y571249D01*
X1090265Y571138D01*
X1090178Y571038D01*
X1088378Y569238D01*
X1088278Y569150D01*
X1088167Y569076D01*
X1088047Y569017D01*
X1087921Y568974D01*
X1087791Y568948D01*
X1087658Y568940D01*
X1086958D01*
X1086825Y568948D01*
X1086694Y568974D01*
X1086568Y569017D01*
X1086449Y569076D01*
X1086338Y569150D01*
X1086238Y569238D01*
X1086150Y569338D01*
X1086076Y569449D01*
X1086017Y569568D01*
X1085974Y569694D01*
X1085948Y569825D01*
X1085939Y569958D01*
Y573958D01*
X1085948Y574090D01*
X1085974Y574221D01*
X1086017Y574347D01*
X1086076Y574467D01*
X1086150Y574577D01*
X1086238Y574678D01*
X1086338Y574765D01*
X1086449Y574839D01*
X1086568Y574898D01*
X1086694Y574941D01*
X1086825Y574967D01*
X1086958Y574976D01*
X1089458D01*
X1089591Y574967D01*
D02*
G37*
G36*
X1096090Y565969D02*
X1096221Y565943D01*
X1096347Y565900D01*
X1096467Y565841D01*
X1096578Y565767D01*
X1096678Y565680D01*
X1096765Y565579D01*
X1096839Y565469D01*
X1096898Y565349D01*
X1096941Y565223D01*
X1096967Y565093D01*
X1096976Y564960D01*
Y560960D01*
X1096967Y560827D01*
X1096941Y560696D01*
X1096898Y560570D01*
X1096839Y560451D01*
X1096765Y560340D01*
X1096678Y560240D01*
X1096578Y560152D01*
X1096467Y560078D01*
X1096347Y560019D01*
X1096221Y559976D01*
X1096090Y559950D01*
X1095958Y559941D01*
X1093458D01*
X1093325Y559950D01*
X1093194Y559976D01*
X1093068Y560019D01*
X1092949Y560078D01*
X1092838Y560152D01*
X1092738Y560240D01*
X1092650Y560340D01*
X1092576Y560451D01*
X1092517Y560570D01*
X1092474Y560696D01*
X1092448Y560827D01*
X1092439Y560960D01*
Y563160D01*
X1092448Y563293D01*
X1092474Y563423D01*
X1092517Y563549D01*
X1092576Y563669D01*
X1092650Y563779D01*
X1092738Y563880D01*
X1094538Y565680D01*
X1094638Y565767D01*
X1094749Y565841D01*
X1094868Y565900D01*
X1094994Y565943D01*
X1095125Y565969D01*
X1095258Y565978D01*
X1095958D01*
X1096090Y565969D01*
D02*
G37*
G36*
X1087093Y566665D02*
X1087224Y566639D01*
X1087350Y566596D01*
X1087469Y566537D01*
X1087580Y566463D01*
X1087680Y566376D01*
X1090180Y563876D01*
X1090268Y563775D01*
X1090342Y563665D01*
X1090401Y563545D01*
X1090443Y563419D01*
X1090469Y563288D01*
X1090478Y563156D01*
Y560956D01*
X1090469Y560823D01*
X1090443Y560692D01*
X1090401Y560566D01*
X1090342Y560447D01*
X1090268Y560336D01*
X1090180Y560236D01*
X1090080Y560148D01*
X1089969Y560074D01*
X1089850Y560015D01*
X1089724Y559972D01*
X1089593Y559946D01*
X1089460Y559937D01*
X1086960D01*
X1086827Y559946D01*
X1086696Y559972D01*
X1086570Y560015D01*
X1086451Y560074D01*
X1086340Y560148D01*
X1086240Y560236D01*
X1086152Y560336D01*
X1086078Y560447D01*
X1086019Y560566D01*
X1085976Y560692D01*
X1085950Y560823D01*
X1085942Y560956D01*
Y565656D01*
X1085950Y565788D01*
X1085976Y565919D01*
X1086019Y566045D01*
X1086078Y566165D01*
X1086152Y566275D01*
X1086240Y566376D01*
X1086340Y566463D01*
X1086451Y566537D01*
X1086570Y566596D01*
X1086696Y566639D01*
X1086827Y566665D01*
X1086960Y566674D01*
X1087093Y566665D01*
D02*
G37*
G36*
X1140718Y539922D02*
X1140849Y539897D01*
X1140975Y539854D01*
X1141094Y539795D01*
X1141205Y539721D01*
X1141305Y539633D01*
X1141393Y539533D01*
X1141467Y539422D01*
X1141526Y539303D01*
X1141569Y539176D01*
X1141595Y539046D01*
X1141603Y538913D01*
Y536713D01*
X1141595Y536580D01*
X1141569Y536450D01*
X1141526Y536323D01*
X1141467Y536204D01*
X1141393Y536093D01*
X1141305Y535993D01*
X1139505Y534193D01*
D01*
D01*
X1139505Y534193D01*
X1139405Y534105D01*
X1139294Y534031D01*
X1139175Y533972D01*
X1139081Y533940D01*
X1139049Y533929D01*
X1138918Y533904D01*
X1138785Y533895D01*
X1138085Y533895D01*
D01*
X1138085D01*
X1137952Y533904D01*
X1137822Y533929D01*
X1137779Y533944D01*
X1137695Y533972D01*
X1137576Y534031D01*
X1137465Y534105D01*
X1137365Y534193D01*
Y534193D01*
X1137365D01*
X1137277Y534293D01*
X1137203Y534404D01*
X1137144Y534523D01*
X1137116Y534607D01*
X1137102Y534649D01*
X1137076Y534780D01*
X1137067Y534913D01*
Y534913D01*
D01*
Y538913D01*
X1137076Y539046D01*
X1137102Y539176D01*
X1137144Y539303D01*
X1137203Y539422D01*
X1137277Y539533D01*
X1137365Y539633D01*
X1137465Y539721D01*
X1137576Y539795D01*
X1137695Y539854D01*
X1137822Y539897D01*
X1137952Y539922D01*
X1138085Y539931D01*
X1140585D01*
X1140718Y539922D01*
D02*
G37*
G36*
X1147216Y539927D02*
X1147346Y539901D01*
X1147472Y539858D01*
X1147592Y539799D01*
X1147703Y539725D01*
X1147803Y539637D01*
X1147891Y539537D01*
X1147965Y539426D01*
X1148024Y539307D01*
X1148066Y539181D01*
X1148092Y539050D01*
X1148101Y538917D01*
Y534217D01*
X1148092Y534084D01*
X1148066Y533954D01*
X1148024Y533828D01*
X1147965Y533708D01*
X1147891Y533597D01*
X1147803Y533497D01*
X1147703Y533409D01*
X1147592Y533335D01*
X1147473Y533276D01*
X1147346Y533234D01*
X1147216Y533208D01*
X1147083Y533199D01*
X1146950Y533208D01*
X1146819Y533234D01*
X1146693Y533276D01*
X1146574Y533335D01*
X1146463Y533409D01*
X1146363Y533497D01*
X1143863Y535997D01*
X1143775Y536097D01*
X1143701Y536208D01*
X1143642Y536328D01*
X1143599Y536454D01*
X1143573Y536584D01*
X1143565Y536717D01*
Y538917D01*
X1143573Y539050D01*
X1143599Y539181D01*
X1143642Y539307D01*
X1143701Y539426D01*
X1143775Y539537D01*
X1143863Y539637D01*
X1143963Y539725D01*
X1144074Y539799D01*
X1144193Y539858D01*
X1144319Y539901D01*
X1144450Y539927D01*
X1144583Y539935D01*
X1147083D01*
X1147216Y539927D01*
D02*
G37*
G36*
X1147218Y530924D02*
X1147349Y530899D01*
X1147392Y530884D01*
X1147475Y530856D01*
X1147594Y530797D01*
X1147705Y530723D01*
X1147805Y530635D01*
Y530635D01*
X1147805D01*
X1147893Y530535D01*
X1147967Y530424D01*
X1148026Y530305D01*
X1148054Y530221D01*
X1148069Y530179D01*
X1148095Y530048D01*
X1148103Y529915D01*
D01*
Y529915D01*
X1148103Y525915D01*
X1148095Y525782D01*
X1148069Y525652D01*
X1148026Y525525D01*
X1147967Y525406D01*
X1147893Y525295D01*
X1147805Y525195D01*
X1147705Y525107D01*
X1147594Y525033D01*
X1147475Y524974D01*
X1147349Y524932D01*
X1147218Y524906D01*
X1147085Y524897D01*
X1144585D01*
X1144452Y524906D01*
X1144322Y524932D01*
X1144195Y524974D01*
X1144076Y525033D01*
X1143965Y525107D01*
X1143865Y525195D01*
X1143777Y525295D01*
X1143703Y525406D01*
X1143644Y525525D01*
X1143602Y525652D01*
X1143576Y525782D01*
X1143567Y525915D01*
X1143567Y528115D01*
X1143576Y528248D01*
X1143602Y528379D01*
X1143644Y528505D01*
X1143703Y528624D01*
X1143777Y528735D01*
X1143865Y528835D01*
X1145665Y530635D01*
X1145765Y530723D01*
X1145876Y530797D01*
X1145995Y530856D01*
X1146058Y530877D01*
X1146122Y530899D01*
X1146252Y530924D01*
X1146385Y530933D01*
X1147085Y530933D01*
D01*
X1147085D01*
X1147218Y530924D01*
D02*
G37*
G36*
X1138918D02*
X1139049Y530899D01*
X1139175Y530856D01*
X1139294Y530797D01*
X1139405Y530723D01*
X1139505Y530635D01*
X1141305Y528835D01*
X1141393Y528735D01*
X1141467Y528624D01*
X1141526Y528505D01*
X1141569Y528379D01*
X1141595Y528248D01*
X1141603Y528115D01*
Y525915D01*
X1141595Y525782D01*
X1141569Y525652D01*
X1141526Y525525D01*
X1141467Y525406D01*
X1141393Y525295D01*
X1141305Y525195D01*
X1141205Y525107D01*
X1141094Y525033D01*
X1140975Y524974D01*
X1140849Y524932D01*
X1140718Y524906D01*
X1140585Y524897D01*
X1138085D01*
X1137952Y524906D01*
X1137822Y524932D01*
X1137695Y524974D01*
X1137576Y525033D01*
X1137465Y525107D01*
X1137365Y525195D01*
X1137277Y525295D01*
X1137203Y525406D01*
X1137144Y525525D01*
X1137102Y525652D01*
X1137076Y525782D01*
X1137067Y525915D01*
Y529915D01*
X1137076Y530048D01*
X1137102Y530179D01*
X1137144Y530305D01*
X1137203Y530424D01*
X1137277Y530535D01*
X1137365Y530635D01*
X1137465Y530723D01*
X1137576Y530797D01*
X1137695Y530856D01*
X1137822Y530899D01*
X1137952Y530924D01*
X1138085Y530933D01*
X1138785D01*
X1138918Y530924D01*
D02*
G37*
G36*
X1096090Y324967D02*
X1096221Y324941D01*
X1096347Y324898D01*
X1096467Y324839D01*
X1096578Y324765D01*
X1096678Y324678D01*
X1096765Y324577D01*
X1096839Y324467D01*
X1096898Y324347D01*
X1096941Y324221D01*
X1096967Y324090D01*
X1096976Y323958D01*
Y319958D01*
X1096967Y319825D01*
X1096941Y319694D01*
X1096898Y319568D01*
X1096839Y319449D01*
X1096765Y319338D01*
X1096678Y319238D01*
X1096578Y319150D01*
X1096467Y319076D01*
X1096347Y319017D01*
X1096221Y318974D01*
X1096090Y318948D01*
X1095958Y318939D01*
X1095258D01*
X1095125Y318948D01*
X1094994Y318974D01*
X1094868Y319017D01*
X1094749Y319076D01*
X1094638Y319150D01*
X1094538Y319238D01*
X1092738Y321038D01*
X1092650Y321138D01*
X1092576Y321249D01*
X1092517Y321368D01*
X1092474Y321494D01*
X1092448Y321625D01*
X1092439Y321758D01*
Y323958D01*
X1092448Y324090D01*
X1092474Y324221D01*
X1092517Y324347D01*
X1092576Y324467D01*
X1092650Y324577D01*
X1092738Y324678D01*
X1092838Y324765D01*
X1092949Y324839D01*
X1093068Y324898D01*
X1093194Y324941D01*
X1093325Y324967D01*
X1093458Y324976D01*
X1095958D01*
X1096090Y324967D01*
D02*
G37*
G36*
X1089591D02*
X1089721Y324941D01*
X1089847Y324898D01*
X1089967Y324839D01*
X1090077Y324765D01*
X1090178Y324678D01*
X1090265Y324577D01*
X1090339Y324467D01*
X1090398Y324347D01*
X1090441Y324221D01*
X1090467Y324090D01*
X1090476Y323958D01*
Y321758D01*
X1090467Y321625D01*
X1090441Y321494D01*
X1090398Y321368D01*
X1090339Y321249D01*
X1090265Y321138D01*
X1090178Y321038D01*
X1088378Y319238D01*
X1088278Y319150D01*
X1088167Y319076D01*
X1088047Y319017D01*
X1087921Y318974D01*
X1087791Y318948D01*
X1087658Y318939D01*
X1086958D01*
X1086825Y318948D01*
X1086694Y318974D01*
X1086568Y319017D01*
X1086449Y319076D01*
X1086338Y319150D01*
X1086238Y319238D01*
X1086150Y319338D01*
X1086076Y319449D01*
X1086017Y319568D01*
X1085974Y319694D01*
X1085948Y319825D01*
X1085939Y319958D01*
Y323958D01*
X1085948Y324090D01*
X1085974Y324221D01*
X1086017Y324347D01*
X1086076Y324467D01*
X1086150Y324577D01*
X1086238Y324678D01*
X1086338Y324765D01*
X1086449Y324839D01*
X1086568Y324898D01*
X1086694Y324941D01*
X1086825Y324967D01*
X1086958Y324976D01*
X1089458D01*
X1089591Y324967D01*
D02*
G37*
G36*
X1096090Y315969D02*
X1096221Y315943D01*
X1096347Y315900D01*
X1096467Y315841D01*
X1096578Y315767D01*
X1096678Y315680D01*
X1096765Y315579D01*
X1096839Y315469D01*
X1096898Y315349D01*
X1096941Y315223D01*
X1096967Y315093D01*
X1096976Y314960D01*
Y310960D01*
X1096967Y310827D01*
X1096941Y310696D01*
X1096898Y310570D01*
X1096839Y310450D01*
X1096765Y310340D01*
X1096678Y310240D01*
X1096578Y310152D01*
X1096467Y310078D01*
X1096347Y310019D01*
X1096221Y309976D01*
X1096090Y309950D01*
X1095958Y309941D01*
X1093458D01*
X1093325Y309950D01*
X1093194Y309976D01*
X1093068Y310019D01*
X1092949Y310078D01*
X1092838Y310152D01*
X1092738Y310240D01*
X1092650Y310340D01*
X1092576Y310450D01*
X1092517Y310570D01*
X1092474Y310696D01*
X1092448Y310827D01*
X1092439Y310960D01*
Y313160D01*
X1092448Y313293D01*
X1092474Y313423D01*
X1092517Y313549D01*
X1092576Y313669D01*
X1092650Y313780D01*
X1092738Y313880D01*
X1094538Y315680D01*
X1094638Y315767D01*
X1094749Y315841D01*
X1094868Y315900D01*
X1094994Y315943D01*
X1095125Y315969D01*
X1095258Y315978D01*
X1095958D01*
X1096090Y315969D01*
D02*
G37*
G36*
X1087093Y316665D02*
X1087224Y316639D01*
X1087350Y316596D01*
X1087469Y316537D01*
X1087580Y316463D01*
X1087680Y316376D01*
X1090180Y313876D01*
X1090268Y313775D01*
X1090342Y313665D01*
X1090401Y313545D01*
X1090443Y313419D01*
X1090469Y313288D01*
X1090478Y313155D01*
Y310956D01*
X1090469Y310823D01*
X1090443Y310692D01*
X1090401Y310566D01*
X1090342Y310446D01*
X1090268Y310336D01*
X1090180Y310236D01*
X1090080Y310148D01*
X1089969Y310074D01*
X1089850Y310015D01*
X1089724Y309972D01*
X1089593Y309946D01*
X1089460Y309937D01*
X1086960D01*
X1086827Y309946D01*
X1086696Y309972D01*
X1086570Y310015D01*
X1086451Y310074D01*
X1086340Y310148D01*
X1086240Y310236D01*
X1086152Y310336D01*
X1086078Y310446D01*
X1086019Y310566D01*
X1085976Y310692D01*
X1085950Y310823D01*
X1085942Y310956D01*
Y315655D01*
X1085950Y315788D01*
X1085976Y315919D01*
X1086019Y316045D01*
X1086078Y316165D01*
X1086152Y316275D01*
X1086240Y316376D01*
X1086340Y316463D01*
X1086451Y316537D01*
X1086570Y316596D01*
X1086696Y316639D01*
X1086827Y316665D01*
X1086960Y316674D01*
X1087093Y316665D01*
D02*
G37*
G36*
X1140718Y289922D02*
X1140849Y289896D01*
X1140975Y289854D01*
X1141094Y289795D01*
X1141205Y289721D01*
X1141305Y289633D01*
X1141393Y289533D01*
X1141467Y289422D01*
X1141526Y289303D01*
X1141569Y289177D01*
X1141595Y289046D01*
X1141603Y288913D01*
Y286713D01*
X1141595Y286580D01*
X1141569Y286449D01*
X1141526Y286323D01*
X1141467Y286204D01*
X1141393Y286093D01*
X1141305Y285993D01*
X1139505Y284193D01*
D01*
D01*
X1139505Y284193D01*
X1139405Y284105D01*
X1139294Y284031D01*
X1139175Y283972D01*
X1139081Y283940D01*
X1139049Y283930D01*
X1138918Y283904D01*
X1138785Y283895D01*
X1138085Y283895D01*
D01*
X1138085D01*
X1137952Y283903D01*
X1137822Y283929D01*
X1137779Y283944D01*
X1137695Y283972D01*
X1137576Y284031D01*
X1137465Y284105D01*
X1137365Y284193D01*
Y284193D01*
X1137365D01*
X1137277Y284293D01*
X1137203Y284404D01*
X1137144Y284523D01*
X1137116Y284607D01*
X1137102Y284649D01*
X1137076Y284780D01*
X1137067Y284913D01*
Y284913D01*
D01*
Y288913D01*
X1137076Y289046D01*
X1137102Y289177D01*
X1137144Y289303D01*
X1137203Y289422D01*
X1137277Y289533D01*
X1137365Y289633D01*
X1137465Y289721D01*
X1137576Y289795D01*
X1137695Y289854D01*
X1137822Y289896D01*
X1137952Y289922D01*
X1138085Y289931D01*
X1140585D01*
X1140718Y289922D01*
D02*
G37*
G36*
X1147216Y289926D02*
X1147346Y289900D01*
X1147472Y289858D01*
X1147592Y289799D01*
X1147703Y289725D01*
X1147803Y289637D01*
X1147891Y289537D01*
X1147965Y289426D01*
X1148024Y289307D01*
X1148066Y289181D01*
X1148092Y289050D01*
X1148101Y288917D01*
Y284217D01*
X1148092Y284084D01*
X1148066Y283953D01*
X1148024Y283827D01*
X1147965Y283708D01*
X1147891Y283597D01*
X1147803Y283497D01*
X1147703Y283409D01*
X1147592Y283335D01*
X1147473Y283276D01*
X1147346Y283234D01*
X1147216Y283208D01*
X1147083Y283199D01*
X1146950Y283208D01*
X1146819Y283234D01*
X1146693Y283276D01*
X1146574Y283335D01*
X1146463Y283409D01*
X1146363Y283497D01*
X1143863Y285997D01*
X1143775Y286097D01*
X1143701Y286208D01*
X1143642Y286327D01*
X1143599Y286453D01*
X1143573Y286584D01*
X1143565Y286717D01*
Y288917D01*
X1143573Y289050D01*
X1143599Y289181D01*
X1143642Y289307D01*
X1143701Y289426D01*
X1143775Y289537D01*
X1143863Y289637D01*
X1143963Y289725D01*
X1144074Y289799D01*
X1144193Y289858D01*
X1144319Y289900D01*
X1144450Y289926D01*
X1144583Y289935D01*
X1147083D01*
X1147216Y289926D01*
D02*
G37*
G36*
X1147218Y280924D02*
X1147349Y280898D01*
X1147392Y280884D01*
X1147475Y280856D01*
X1147594Y280797D01*
X1147705Y280723D01*
X1147805Y280635D01*
Y280635D01*
X1147805D01*
X1147893Y280535D01*
X1147967Y280424D01*
X1148026Y280305D01*
X1148054Y280221D01*
X1148069Y280179D01*
X1148095Y280048D01*
X1148103Y279915D01*
D01*
Y279915D01*
X1148103Y275915D01*
X1148095Y275782D01*
X1148069Y275651D01*
X1148026Y275525D01*
X1147967Y275406D01*
X1147893Y275295D01*
X1147805Y275195D01*
X1147705Y275107D01*
X1147594Y275033D01*
X1147475Y274974D01*
X1147349Y274932D01*
X1147218Y274905D01*
X1147085Y274897D01*
X1144585D01*
X1144452Y274905D01*
X1144322Y274932D01*
X1144195Y274974D01*
X1144076Y275033D01*
X1143965Y275107D01*
X1143865Y275195D01*
X1143777Y275295D01*
X1143703Y275406D01*
X1143644Y275525D01*
X1143602Y275651D01*
X1143576Y275782D01*
X1143567Y275915D01*
X1143567Y278115D01*
X1143576Y278248D01*
X1143602Y278379D01*
X1143644Y278505D01*
X1143703Y278624D01*
X1143777Y278735D01*
X1143865Y278835D01*
X1145665Y280635D01*
X1145765Y280723D01*
X1145876Y280797D01*
X1145995Y280856D01*
X1146058Y280877D01*
X1146122Y280898D01*
X1146252Y280924D01*
X1146385Y280933D01*
X1147085Y280933D01*
D01*
X1147085D01*
X1147218Y280924D01*
D02*
G37*
G36*
X1138918D02*
X1139049Y280898D01*
X1139175Y280856D01*
X1139294Y280797D01*
X1139405Y280723D01*
X1139505Y280635D01*
X1141305Y278835D01*
X1141393Y278735D01*
X1141467Y278624D01*
X1141526Y278505D01*
X1141569Y278379D01*
X1141595Y278248D01*
X1141603Y278115D01*
Y275915D01*
X1141595Y275782D01*
X1141569Y275651D01*
X1141526Y275525D01*
X1141467Y275406D01*
X1141393Y275295D01*
X1141305Y275195D01*
X1141205Y275107D01*
X1141094Y275033D01*
X1140975Y274974D01*
X1140849Y274932D01*
X1140718Y274905D01*
X1140585Y274897D01*
X1138085D01*
X1137952Y274905D01*
X1137822Y274932D01*
X1137695Y274974D01*
X1137576Y275033D01*
X1137465Y275107D01*
X1137365Y275195D01*
X1137277Y275295D01*
X1137203Y275406D01*
X1137144Y275525D01*
X1137102Y275651D01*
X1137076Y275782D01*
X1137067Y275915D01*
Y279915D01*
X1137076Y280048D01*
X1137102Y280179D01*
X1137144Y280305D01*
X1137203Y280424D01*
X1137277Y280535D01*
X1137365Y280635D01*
X1137465Y280723D01*
X1137576Y280797D01*
X1137695Y280856D01*
X1137822Y280898D01*
X1137952Y280924D01*
X1138085Y280933D01*
X1138785D01*
X1138918Y280924D01*
D02*
G37*
D10*
X681750Y270000D02*
X700000D01*
X681750Y520000D02*
X700000D01*
X681750Y770000D02*
X700000D01*
X681750Y1020000D02*
X700000D01*
D70*
X974005Y264505D02*
D03*
Y514505D02*
D03*
Y764505D02*
D03*
Y1014505D02*
D03*
D71*
X1032005Y264505D02*
D03*
Y514505D02*
D03*
Y764505D02*
D03*
Y1014505D02*
D03*
M02*
