G04*
G04 #@! TF.GenerationSoftware,Altium Limited,Altium Designer,21.0.9 (235)*
G04*
G04 Layer_Color=32896*
%FSLAX44Y44*%
%MOMM*%
G71*
G04*
G04 #@! TF.SameCoordinates,5DD7C229-C87D-40E0-AB69-EEC5175B06D6*
G04*
G04*
G04 #@! TF.FilePolarity,Positive*
G04*
G01*
G75*
%ADD10C,0.2540*%
%ADD43C,0.1270*%
%ADD44C,0.2000*%
%ADD68C,0.2500*%
%ADD72C,0.6000*%
%ADD73C,0.1000*%
D10*
X1218100Y352500D02*
G03*
X1218100Y352500I-100J0D01*
G01*
X1215100Y370000D02*
G03*
X1215100Y370000I-100J0D01*
G01*
X371000Y429793D02*
Y437793D01*
X355000Y429793D02*
Y437793D01*
Y311500D02*
Y319500D01*
X371000Y311500D02*
Y319500D01*
X397000Y312000D02*
Y320000D01*
X381000Y312000D02*
Y320000D01*
X406543Y312000D02*
Y320000D01*
X422543Y312000D02*
Y320000D01*
X1038000Y415000D02*
X1046000D01*
X1038000Y399000D02*
X1046000D01*
X1090000Y452000D02*
Y460000D01*
X1074000Y452000D02*
Y460000D01*
X1132000Y411000D02*
X1140000D01*
X1132000Y427000D02*
X1140000D01*
X1090000Y364000D02*
Y372000D01*
X1106000Y364000D02*
Y372000D01*
X1132000Y401000D02*
X1140000D01*
X1132000Y385000D02*
X1140000D01*
X1002543Y419707D02*
X1010543Y419707D01*
X1002543Y403708D02*
X1010543D01*
X973000Y403708D02*
X981000Y403708D01*
X973000Y419707D02*
X981000D01*
X1003000Y484293D02*
X1011000D01*
X1003000Y468293D02*
X1011000Y468293D01*
X973457D02*
X981457Y468293D01*
X973457Y484293D02*
X981457D01*
X382000Y295958D02*
X390000D01*
X382000Y279958D02*
X390000D01*
X331000Y377000D02*
X339000D01*
X331000Y393000D02*
X339000Y393000D01*
X331000Y336000D02*
X339000D01*
X331000Y352000D02*
X339000D01*
X472543Y370000D02*
X480543D01*
X472543Y354000D02*
X480543D01*
X443000D02*
X451000D01*
X443000Y370000D02*
X451000D01*
X443000Y344458D02*
X451000D01*
X443000Y328458D02*
X451000D01*
X331000Y405000D02*
X339000D01*
X331000Y421000D02*
X339000D01*
X1218100Y602500D02*
G03*
X1218100Y602500I-100J0D01*
G01*
X1215100Y620000D02*
G03*
X1215100Y620000I-100J0D01*
G01*
X371000Y679793D02*
Y687793D01*
X355000Y679793D02*
Y687793D01*
Y561500D02*
Y569500D01*
X371000Y561500D02*
Y569500D01*
X397000Y562000D02*
Y570000D01*
X381000Y562000D02*
Y570000D01*
X406543Y562000D02*
Y570000D01*
X422543Y562000D02*
Y570000D01*
X1038000Y665000D02*
X1046000D01*
X1038000Y649000D02*
X1046000D01*
X1090000Y702000D02*
Y710000D01*
X1074000Y702000D02*
Y710000D01*
X1132000Y661000D02*
X1140000D01*
X1132000Y677000D02*
X1140000D01*
X1090000Y614000D02*
Y622000D01*
X1106000Y614000D02*
Y622000D01*
X1132000Y651000D02*
X1140000D01*
X1132000Y635000D02*
X1140000D01*
X1002543Y669708D02*
X1010543Y669708D01*
X1002543Y653708D02*
X1010543D01*
X973000Y653708D02*
X981000Y653708D01*
X973000Y669708D02*
X981000D01*
X1003000Y734293D02*
X1011000D01*
X1003000Y718293D02*
X1011000Y718293D01*
X973457D02*
X981457Y718293D01*
X973457Y734293D02*
X981457D01*
X382000Y545958D02*
X390000D01*
X382000Y529958D02*
X390000D01*
X331000Y627000D02*
X339000D01*
X331000Y643000D02*
X339000Y643000D01*
X331000Y586000D02*
X339000D01*
X331000Y602000D02*
X339000D01*
X472543Y620000D02*
X480543D01*
X472543Y604000D02*
X480543D01*
X443000D02*
X451000D01*
X443000Y620000D02*
X451000D01*
X443000Y594458D02*
X451000D01*
X443000Y578458D02*
X451000D01*
X331000Y655000D02*
X339000D01*
X331000Y671000D02*
X339000D01*
X1218100Y852500D02*
G03*
X1218100Y852500I-100J0D01*
G01*
X1215100Y870000D02*
G03*
X1215100Y870000I-100J0D01*
G01*
X371000Y929793D02*
Y937793D01*
X355000Y929793D02*
Y937793D01*
Y811500D02*
Y819500D01*
X371000Y811500D02*
Y819500D01*
X397000Y812000D02*
Y820000D01*
X381000Y812000D02*
Y820000D01*
X406543Y812000D02*
Y820000D01*
X422543Y812000D02*
Y820000D01*
X1038000Y915000D02*
X1046000D01*
X1038000Y899000D02*
X1046000D01*
X1090000Y952000D02*
Y960000D01*
X1074000Y952000D02*
Y960000D01*
X1132000Y911000D02*
X1140000D01*
X1132000Y927000D02*
X1140000D01*
X1090000Y864000D02*
Y872000D01*
X1106000Y864000D02*
Y872000D01*
X1132000Y901000D02*
X1140000D01*
X1132000Y885000D02*
X1140000D01*
X1002543Y919708D02*
X1010543Y919708D01*
X1002543Y903708D02*
X1010543D01*
X973000Y903708D02*
X981000Y903708D01*
X973000Y919708D02*
X981000D01*
X1003000Y984293D02*
X1011000D01*
X1003000Y968293D02*
X1011000Y968293D01*
X973457D02*
X981457Y968293D01*
X973457Y984293D02*
X981457D01*
X382000Y795958D02*
X390000D01*
X382000Y779958D02*
X390000D01*
X331000Y877000D02*
X339000D01*
X331000Y893000D02*
X339000Y893000D01*
X331000Y836000D02*
X339000D01*
X331000Y852000D02*
X339000D01*
X472543Y870000D02*
X480543D01*
X472543Y854000D02*
X480543D01*
X443000D02*
X451000D01*
X443000Y870000D02*
X451000D01*
X443000Y844458D02*
X451000D01*
X443000Y828458D02*
X451000D01*
X331000Y905000D02*
X339000D01*
X331000Y921000D02*
X339000D01*
X1218100Y1102500D02*
G03*
X1218100Y1102500I-100J0D01*
G01*
X1215100Y1120000D02*
G03*
X1215100Y1120000I-100J0D01*
G01*
X371000Y1179793D02*
Y1187793D01*
X355000Y1179793D02*
Y1187793D01*
Y1061500D02*
Y1069500D01*
X371000Y1061500D02*
Y1069500D01*
X397000Y1062000D02*
Y1070000D01*
X381000Y1062000D02*
Y1070000D01*
X406543Y1062000D02*
Y1070000D01*
X422543Y1062000D02*
Y1070000D01*
X1038000Y1165000D02*
X1046000D01*
X1038000Y1149000D02*
X1046000D01*
X1090000Y1202000D02*
Y1210000D01*
X1074000Y1202000D02*
Y1210000D01*
X1132000Y1161000D02*
X1140000D01*
X1132000Y1177000D02*
X1140000D01*
X1090000Y1114000D02*
Y1122000D01*
X1106000Y1114000D02*
Y1122000D01*
X1132000Y1151000D02*
X1140000D01*
X1132000Y1135000D02*
X1140000D01*
X1002543Y1169708D02*
X1010543Y1169708D01*
X1002543Y1153708D02*
X1010543D01*
X973000Y1153708D02*
X981000Y1153708D01*
X973000Y1169708D02*
X981000D01*
X1003000Y1234293D02*
X1011000D01*
X1003000Y1218293D02*
X1011000Y1218293D01*
X973457D02*
X981457Y1218293D01*
X973457Y1234293D02*
X981457D01*
X382000Y1045958D02*
X390000D01*
X382000Y1029958D02*
X390000D01*
X331000Y1127000D02*
X339000D01*
X331000Y1143000D02*
X339000Y1143000D01*
X331000Y1086000D02*
X339000D01*
X331000Y1102000D02*
X339000D01*
X472543Y1120000D02*
X480543D01*
X472543Y1104000D02*
X480543D01*
X443000D02*
X451000D01*
X443000Y1120000D02*
X451000D01*
X443000Y1094458D02*
X451000D01*
X443000Y1078458D02*
X451000D01*
X331000Y1155000D02*
X339000D01*
X331000Y1171000D02*
X339000D01*
D43*
X367232Y455116D02*
X368290Y456174D01*
X370406D01*
X371464Y455116D01*
Y450884D01*
X370406Y449826D01*
X368290D01*
X367232Y450884D01*
X365116Y455116D02*
X364058Y456174D01*
X361942D01*
X360884Y455116D01*
Y454058D01*
X361942Y453000D01*
X363000D01*
X361942D01*
X360884Y451942D01*
Y450884D01*
X361942Y449826D01*
X364058D01*
X365116Y450884D01*
X354536Y456174D02*
X358768D01*
Y453000D01*
X356652Y454058D01*
X355594D01*
X354536Y453000D01*
Y450884D01*
X355594Y449826D01*
X357710D01*
X358768Y450884D01*
X367232Y334116D02*
X368290Y335174D01*
X370406D01*
X371464Y334116D01*
Y329884D01*
X370406Y328826D01*
X368290D01*
X367232Y329884D01*
X360884Y328826D02*
X365116D01*
X360884Y333058D01*
Y334116D01*
X361942Y335174D01*
X364058D01*
X365116Y334116D01*
X354536Y335174D02*
X358768D01*
Y332000D01*
X356652Y333058D01*
X355594D01*
X354536Y332000D01*
Y329884D01*
X355594Y328826D01*
X357710D01*
X358768Y329884D01*
X394232Y334116D02*
X395290Y335174D01*
X397406D01*
X398464Y334116D01*
Y329884D01*
X397406Y328826D01*
X395290D01*
X394232Y329884D01*
X392116Y334116D02*
X391058Y335174D01*
X388942D01*
X387884Y334116D01*
Y333058D01*
X388942Y332000D01*
X390000D01*
X388942D01*
X387884Y330942D01*
Y329884D01*
X388942Y328826D01*
X391058D01*
X392116Y329884D01*
X385768Y334116D02*
X384710Y335174D01*
X382594D01*
X381536Y334116D01*
Y333058D01*
X382594Y332000D01*
X383652D01*
X382594D01*
X381536Y330942D01*
Y329884D01*
X382594Y328826D01*
X384710D01*
X385768Y329884D01*
X419232Y334116D02*
X420290Y335174D01*
X422406D01*
X423464Y334116D01*
Y329884D01*
X422406Y328826D01*
X420290D01*
X419232Y329884D01*
X412884Y328826D02*
X417116D01*
X412884Y333058D01*
Y334116D01*
X413942Y335174D01*
X416058D01*
X417116Y334116D01*
X406536Y335174D02*
X408652Y334116D01*
X410768Y332000D01*
Y329884D01*
X409710Y328826D01*
X407594D01*
X406536Y329884D01*
Y330942D01*
X407594Y332000D01*
X410768D01*
X882290Y380174D02*
Y374884D01*
X881232Y373826D01*
X879116D01*
X878058Y374884D01*
Y380174D01*
X875942D02*
X871710D01*
Y379116D01*
X875942Y374884D01*
Y373826D01*
X1031290Y367174D02*
Y361884D01*
X1030232Y360826D01*
X1028116D01*
X1027058Y361884D01*
Y367174D01*
X1020710Y360826D02*
X1024942D01*
X1020710Y365058D01*
Y366116D01*
X1021768Y367174D01*
X1023884D01*
X1024942Y366116D01*
X1043058Y425116D02*
X1044116Y426174D01*
X1046232D01*
X1047290Y425116D01*
Y420884D01*
X1046232Y419826D01*
X1044116D01*
X1043058Y420884D01*
X1040942Y425116D02*
X1039884Y426174D01*
X1037768D01*
X1036710Y425116D01*
Y424058D01*
X1037768Y423000D01*
X1038826D01*
X1037768D01*
X1036710Y421942D01*
Y420884D01*
X1037768Y419826D01*
X1039884D01*
X1040942Y420884D01*
X1102058Y458116D02*
X1103116Y459174D01*
X1105232D01*
X1106290Y458116D01*
Y453884D01*
X1105232Y452826D01*
X1103116D01*
X1102058Y453884D01*
X1096768Y452826D02*
Y459174D01*
X1099942Y456000D01*
X1095710D01*
X1116703Y421116D02*
X1117761Y422174D01*
X1119877D01*
X1120935Y421116D01*
Y416884D01*
X1119877Y415826D01*
X1117761D01*
X1116703Y416884D01*
X1114587Y415826D02*
X1112471D01*
X1113529D01*
Y422174D01*
X1114587Y421116D01*
X1109297D02*
X1108239Y422174D01*
X1106123D01*
X1105065Y421116D01*
Y416884D01*
X1106123Y415826D01*
X1108239D01*
X1109297Y416884D01*
Y421116D01*
X1099058Y355116D02*
X1100116Y356174D01*
X1102232D01*
X1103290Y355116D01*
Y350884D01*
X1102232Y349826D01*
X1100116D01*
X1099058Y350884D01*
X1092710Y349826D02*
X1096942D01*
X1092710Y354058D01*
Y355116D01*
X1093768Y356174D01*
X1095884D01*
X1096942Y355116D01*
X1114058Y395116D02*
X1115116Y396174D01*
X1117232D01*
X1118290Y395116D01*
Y390884D01*
X1117232Y389826D01*
X1115116D01*
X1114058Y390884D01*
X1111942D02*
X1110884Y389826D01*
X1108768D01*
X1107710Y390884D01*
Y395116D01*
X1108768Y396174D01*
X1110884D01*
X1111942Y395116D01*
Y394058D01*
X1110884Y393000D01*
X1107710D01*
X1025058Y414116D02*
X1026116Y415174D01*
X1028232D01*
X1029290Y414116D01*
Y409884D01*
X1028232Y408826D01*
X1026116D01*
X1025058Y409884D01*
X1018710Y415174D02*
X1022942D01*
Y412000D01*
X1020826Y413058D01*
X1019768D01*
X1018710Y412000D01*
Y409884D01*
X1019768Y408826D01*
X1021884D01*
X1022942Y409884D01*
X958058Y413531D02*
X959116Y414589D01*
X961232D01*
X962290Y413531D01*
Y409299D01*
X961232Y408241D01*
X959116D01*
X958058Y409299D01*
X951710Y414589D02*
X953826Y413531D01*
X955942Y411415D01*
Y409299D01*
X954884Y408241D01*
X952768D01*
X951710Y409299D01*
Y410357D01*
X952768Y411415D01*
X955942D01*
X1025290Y447174D02*
Y441884D01*
X1024232Y440826D01*
X1022116D01*
X1021058Y441884D01*
Y447174D01*
X1018942Y446116D02*
X1017884Y447174D01*
X1015768D01*
X1014710Y446116D01*
Y445058D01*
X1015768Y444000D01*
X1016826D01*
X1015768D01*
X1014710Y442942D01*
Y441884D01*
X1015768Y440826D01*
X1017884D01*
X1018942Y441884D01*
X1027058Y478116D02*
X1028116Y479174D01*
X1030232D01*
X1031290Y478116D01*
Y473884D01*
X1030232Y472826D01*
X1028116D01*
X1027058Y473884D01*
X1024942Y478116D02*
X1023884Y479174D01*
X1021768D01*
X1020710Y478116D01*
Y477058D01*
X1021768Y476000D01*
X1020710Y474942D01*
Y473884D01*
X1021768Y472826D01*
X1023884D01*
X1024942Y473884D01*
Y474942D01*
X1023884Y476000D01*
X1024942Y477058D01*
Y478116D01*
X1023884Y476000D02*
X1021768D01*
X958058Y478116D02*
X959116Y479174D01*
X961232D01*
X962290Y478116D01*
Y473884D01*
X961232Y472826D01*
X959116D01*
X958058Y473884D01*
X955942Y479174D02*
X951710D01*
Y478116D01*
X955942Y473884D01*
Y472826D01*
X1224724Y410652D02*
Y405362D01*
X1223666Y404304D01*
X1221550D01*
X1220492Y405362D01*
Y410652D01*
X1218376Y409594D02*
X1217318Y410652D01*
X1215202D01*
X1214144Y409594D01*
Y408536D01*
X1215202Y407478D01*
X1214144Y406420D01*
Y405362D01*
X1215202Y404304D01*
X1217318D01*
X1218376Y405362D01*
Y406420D01*
X1217318Y407478D01*
X1218376Y408536D01*
Y409594D01*
X1217318Y407478D02*
X1215202D01*
X413877Y284826D02*
Y291174D01*
X410703D01*
X409645Y290116D01*
Y288000D01*
X410703Y286942D01*
X413877D01*
X411761D02*
X409645Y284826D01*
X407529D02*
X405413D01*
X406471D01*
Y291174D01*
X407529Y290116D01*
X402239Y284826D02*
X400123D01*
X401181D01*
Y291174D01*
X402239Y290116D01*
X402290Y436174D02*
Y429826D01*
X398058D01*
X392768D02*
Y436174D01*
X395942Y433000D01*
X391710D01*
X430232Y364116D02*
X431290Y365174D01*
X433406D01*
X434464Y364116D01*
Y359884D01*
X433406Y358826D01*
X431290D01*
X430232Y359884D01*
X428116Y364116D02*
X427058Y365174D01*
X424942D01*
X423884Y364116D01*
Y363058D01*
X424942Y362000D01*
X426000D01*
X424942D01*
X423884Y360942D01*
Y359884D01*
X424942Y358826D01*
X427058D01*
X428116Y359884D01*
X417536Y358826D02*
X421768D01*
X417536Y363058D01*
Y364116D01*
X418594Y365174D01*
X420710D01*
X421768Y364116D01*
X479174Y380116D02*
X480232Y381174D01*
X482348D01*
X483406Y380116D01*
Y375884D01*
X482348Y374826D01*
X480232D01*
X479174Y375884D01*
X477058Y380116D02*
X476000Y381174D01*
X473884D01*
X472826Y380116D01*
Y379058D01*
X473884Y378000D01*
X474942D01*
X473884D01*
X472826Y376942D01*
Y375884D01*
X473884Y374826D01*
X476000D01*
X477058Y375884D01*
X470710Y374826D02*
X468594D01*
X469652D01*
Y381174D01*
X470710Y380116D01*
X315232Y346116D02*
X316290Y347174D01*
X318406D01*
X319464Y346116D01*
Y341884D01*
X318406Y340826D01*
X316290D01*
X315232Y341884D01*
X313116Y346116D02*
X312058Y347174D01*
X309942D01*
X308884Y346116D01*
Y345058D01*
X309942Y344000D01*
X311000D01*
X309942D01*
X308884Y342942D01*
Y341884D01*
X309942Y340826D01*
X312058D01*
X313116Y341884D01*
X306768Y346116D02*
X305710Y347174D01*
X303594D01*
X302536Y346116D01*
Y341884D01*
X303594Y340826D01*
X305710D01*
X306768Y341884D01*
Y346116D01*
X315232Y387116D02*
X316290Y388174D01*
X318406D01*
X319464Y387116D01*
Y382884D01*
X318406Y381826D01*
X316290D01*
X315232Y382884D01*
X308884Y381826D02*
X313116D01*
X308884Y386058D01*
Y387116D01*
X309942Y388174D01*
X312058D01*
X313116Y387116D01*
X306768Y382884D02*
X305710Y381826D01*
X303594D01*
X302536Y382884D01*
Y387116D01*
X303594Y388174D01*
X305710D01*
X306768Y387116D01*
Y386058D01*
X305710Y385000D01*
X302536D01*
X315232Y415116D02*
X316290Y416174D01*
X318406D01*
X319464Y415116D01*
Y410884D01*
X318406Y409826D01*
X316290D01*
X315232Y410884D01*
X308884Y409826D02*
X313116D01*
X308884Y414058D01*
Y415116D01*
X309942Y416174D01*
X312058D01*
X313116Y415116D01*
X306768D02*
X305710Y416174D01*
X303594D01*
X302536Y415116D01*
Y414058D01*
X303594Y413000D01*
X302536Y411942D01*
Y410884D01*
X303594Y409826D01*
X305710D01*
X306768Y410884D01*
Y411942D01*
X305710Y413000D01*
X306768Y414058D01*
Y415116D01*
X305710Y413000D02*
X303594D01*
X473232Y339116D02*
X474290Y340174D01*
X476406D01*
X477464Y339116D01*
Y334884D01*
X476406Y333826D01*
X474290D01*
X473232Y334884D01*
X466884Y333826D02*
X471116D01*
X466884Y338058D01*
Y339116D01*
X467942Y340174D01*
X470058D01*
X471116Y339116D01*
X464768Y340174D02*
X460536D01*
Y339116D01*
X464768Y334884D01*
Y333826D01*
X367232Y705116D02*
X368290Y706174D01*
X370406D01*
X371464Y705116D01*
Y700884D01*
X370406Y699826D01*
X368290D01*
X367232Y700884D01*
X365116Y705116D02*
X364058Y706174D01*
X361942D01*
X360884Y705116D01*
Y704058D01*
X361942Y703000D01*
X363000D01*
X361942D01*
X360884Y701942D01*
Y700884D01*
X361942Y699826D01*
X364058D01*
X365116Y700884D01*
X354536Y706174D02*
X358768D01*
Y703000D01*
X356652Y704058D01*
X355594D01*
X354536Y703000D01*
Y700884D01*
X355594Y699826D01*
X357710D01*
X358768Y700884D01*
X367232Y584116D02*
X368290Y585174D01*
X370406D01*
X371464Y584116D01*
Y579884D01*
X370406Y578826D01*
X368290D01*
X367232Y579884D01*
X360884Y578826D02*
X365116D01*
X360884Y583058D01*
Y584116D01*
X361942Y585174D01*
X364058D01*
X365116Y584116D01*
X354536Y585174D02*
X358768D01*
Y582000D01*
X356652Y583058D01*
X355594D01*
X354536Y582000D01*
Y579884D01*
X355594Y578826D01*
X357710D01*
X358768Y579884D01*
X394232Y584116D02*
X395290Y585174D01*
X397406D01*
X398464Y584116D01*
Y579884D01*
X397406Y578826D01*
X395290D01*
X394232Y579884D01*
X392116Y584116D02*
X391058Y585174D01*
X388942D01*
X387884Y584116D01*
Y583058D01*
X388942Y582000D01*
X390000D01*
X388942D01*
X387884Y580942D01*
Y579884D01*
X388942Y578826D01*
X391058D01*
X392116Y579884D01*
X385768Y584116D02*
X384710Y585174D01*
X382594D01*
X381536Y584116D01*
Y583058D01*
X382594Y582000D01*
X383652D01*
X382594D01*
X381536Y580942D01*
Y579884D01*
X382594Y578826D01*
X384710D01*
X385768Y579884D01*
X419232Y584116D02*
X420290Y585174D01*
X422406D01*
X423464Y584116D01*
Y579884D01*
X422406Y578826D01*
X420290D01*
X419232Y579884D01*
X412884Y578826D02*
X417116D01*
X412884Y583058D01*
Y584116D01*
X413942Y585174D01*
X416058D01*
X417116Y584116D01*
X406536Y585174D02*
X408652Y584116D01*
X410768Y582000D01*
Y579884D01*
X409710Y578826D01*
X407594D01*
X406536Y579884D01*
Y580942D01*
X407594Y582000D01*
X410768D01*
X882290Y630174D02*
Y624884D01*
X881232Y623826D01*
X879116D01*
X878058Y624884D01*
Y630174D01*
X875942D02*
X871710D01*
Y629116D01*
X875942Y624884D01*
Y623826D01*
X1031290Y617174D02*
Y611884D01*
X1030232Y610826D01*
X1028116D01*
X1027058Y611884D01*
Y617174D01*
X1020710Y610826D02*
X1024942D01*
X1020710Y615058D01*
Y616116D01*
X1021768Y617174D01*
X1023884D01*
X1024942Y616116D01*
X1043058Y675116D02*
X1044116Y676174D01*
X1046232D01*
X1047290Y675116D01*
Y670884D01*
X1046232Y669826D01*
X1044116D01*
X1043058Y670884D01*
X1040942Y675116D02*
X1039884Y676174D01*
X1037768D01*
X1036710Y675116D01*
Y674058D01*
X1037768Y673000D01*
X1038826D01*
X1037768D01*
X1036710Y671942D01*
Y670884D01*
X1037768Y669826D01*
X1039884D01*
X1040942Y670884D01*
X1102058Y708116D02*
X1103116Y709174D01*
X1105232D01*
X1106290Y708116D01*
Y703884D01*
X1105232Y702826D01*
X1103116D01*
X1102058Y703884D01*
X1096768Y702826D02*
Y709174D01*
X1099942Y706000D01*
X1095710D01*
X1116703Y671116D02*
X1117761Y672174D01*
X1119877D01*
X1120935Y671116D01*
Y666884D01*
X1119877Y665826D01*
X1117761D01*
X1116703Y666884D01*
X1114587Y665826D02*
X1112471D01*
X1113529D01*
Y672174D01*
X1114587Y671116D01*
X1109297D02*
X1108239Y672174D01*
X1106123D01*
X1105065Y671116D01*
Y666884D01*
X1106123Y665826D01*
X1108239D01*
X1109297Y666884D01*
Y671116D01*
X1099058Y605116D02*
X1100116Y606174D01*
X1102232D01*
X1103290Y605116D01*
Y600884D01*
X1102232Y599826D01*
X1100116D01*
X1099058Y600884D01*
X1092710Y599826D02*
X1096942D01*
X1092710Y604058D01*
Y605116D01*
X1093768Y606174D01*
X1095884D01*
X1096942Y605116D01*
X1114058Y645116D02*
X1115116Y646174D01*
X1117232D01*
X1118290Y645116D01*
Y640884D01*
X1117232Y639826D01*
X1115116D01*
X1114058Y640884D01*
X1111942D02*
X1110884Y639826D01*
X1108768D01*
X1107710Y640884D01*
Y645116D01*
X1108768Y646174D01*
X1110884D01*
X1111942Y645116D01*
Y644058D01*
X1110884Y643000D01*
X1107710D01*
X1025058Y664116D02*
X1026116Y665174D01*
X1028232D01*
X1029290Y664116D01*
Y659884D01*
X1028232Y658826D01*
X1026116D01*
X1025058Y659884D01*
X1018710Y665174D02*
X1022942D01*
Y662000D01*
X1020826Y663058D01*
X1019768D01*
X1018710Y662000D01*
Y659884D01*
X1019768Y658826D01*
X1021884D01*
X1022942Y659884D01*
X958058Y663531D02*
X959116Y664589D01*
X961232D01*
X962290Y663531D01*
Y659299D01*
X961232Y658241D01*
X959116D01*
X958058Y659299D01*
X951710Y664589D02*
X953826Y663531D01*
X955942Y661415D01*
Y659299D01*
X954884Y658241D01*
X952768D01*
X951710Y659299D01*
Y660357D01*
X952768Y661415D01*
X955942D01*
X1025290Y697174D02*
Y691884D01*
X1024232Y690826D01*
X1022116D01*
X1021058Y691884D01*
Y697174D01*
X1018942Y696116D02*
X1017884Y697174D01*
X1015768D01*
X1014710Y696116D01*
Y695058D01*
X1015768Y694000D01*
X1016826D01*
X1015768D01*
X1014710Y692942D01*
Y691884D01*
X1015768Y690826D01*
X1017884D01*
X1018942Y691884D01*
X1027058Y728116D02*
X1028116Y729174D01*
X1030232D01*
X1031290Y728116D01*
Y723884D01*
X1030232Y722826D01*
X1028116D01*
X1027058Y723884D01*
X1024942Y728116D02*
X1023884Y729174D01*
X1021768D01*
X1020710Y728116D01*
Y727058D01*
X1021768Y726000D01*
X1020710Y724942D01*
Y723884D01*
X1021768Y722826D01*
X1023884D01*
X1024942Y723884D01*
Y724942D01*
X1023884Y726000D01*
X1024942Y727058D01*
Y728116D01*
X1023884Y726000D02*
X1021768D01*
X958058Y728116D02*
X959116Y729174D01*
X961232D01*
X962290Y728116D01*
Y723884D01*
X961232Y722826D01*
X959116D01*
X958058Y723884D01*
X955942Y729174D02*
X951710D01*
Y728116D01*
X955942Y723884D01*
Y722826D01*
X1224724Y660652D02*
Y655362D01*
X1223666Y654304D01*
X1221550D01*
X1220492Y655362D01*
Y660652D01*
X1218376Y659594D02*
X1217318Y660652D01*
X1215202D01*
X1214144Y659594D01*
Y658536D01*
X1215202Y657478D01*
X1214144Y656420D01*
Y655362D01*
X1215202Y654304D01*
X1217318D01*
X1218376Y655362D01*
Y656420D01*
X1217318Y657478D01*
X1218376Y658536D01*
Y659594D01*
X1217318Y657478D02*
X1215202D01*
X413877Y534826D02*
Y541174D01*
X410703D01*
X409645Y540116D01*
Y538000D01*
X410703Y536942D01*
X413877D01*
X411761D02*
X409645Y534826D01*
X407529D02*
X405413D01*
X406471D01*
Y541174D01*
X407529Y540116D01*
X402239Y534826D02*
X400123D01*
X401181D01*
Y541174D01*
X402239Y540116D01*
X402290Y686174D02*
Y679826D01*
X398058D01*
X392768D02*
Y686174D01*
X395942Y683000D01*
X391710D01*
X430232Y614116D02*
X431290Y615174D01*
X433406D01*
X434464Y614116D01*
Y609884D01*
X433406Y608826D01*
X431290D01*
X430232Y609884D01*
X428116Y614116D02*
X427058Y615174D01*
X424942D01*
X423884Y614116D01*
Y613058D01*
X424942Y612000D01*
X426000D01*
X424942D01*
X423884Y610942D01*
Y609884D01*
X424942Y608826D01*
X427058D01*
X428116Y609884D01*
X417536Y608826D02*
X421768D01*
X417536Y613058D01*
Y614116D01*
X418594Y615174D01*
X420710D01*
X421768Y614116D01*
X479174Y630116D02*
X480232Y631174D01*
X482348D01*
X483406Y630116D01*
Y625884D01*
X482348Y624826D01*
X480232D01*
X479174Y625884D01*
X477058Y630116D02*
X476000Y631174D01*
X473884D01*
X472826Y630116D01*
Y629058D01*
X473884Y628000D01*
X474942D01*
X473884D01*
X472826Y626942D01*
Y625884D01*
X473884Y624826D01*
X476000D01*
X477058Y625884D01*
X470710Y624826D02*
X468594D01*
X469652D01*
Y631174D01*
X470710Y630116D01*
X315232Y596116D02*
X316290Y597174D01*
X318406D01*
X319464Y596116D01*
Y591884D01*
X318406Y590826D01*
X316290D01*
X315232Y591884D01*
X313116Y596116D02*
X312058Y597174D01*
X309942D01*
X308884Y596116D01*
Y595058D01*
X309942Y594000D01*
X311000D01*
X309942D01*
X308884Y592942D01*
Y591884D01*
X309942Y590826D01*
X312058D01*
X313116Y591884D01*
X306768Y596116D02*
X305710Y597174D01*
X303594D01*
X302536Y596116D01*
Y591884D01*
X303594Y590826D01*
X305710D01*
X306768Y591884D01*
Y596116D01*
X315232Y637116D02*
X316290Y638174D01*
X318406D01*
X319464Y637116D01*
Y632884D01*
X318406Y631826D01*
X316290D01*
X315232Y632884D01*
X308884Y631826D02*
X313116D01*
X308884Y636058D01*
Y637116D01*
X309942Y638174D01*
X312058D01*
X313116Y637116D01*
X306768Y632884D02*
X305710Y631826D01*
X303594D01*
X302536Y632884D01*
Y637116D01*
X303594Y638174D01*
X305710D01*
X306768Y637116D01*
Y636058D01*
X305710Y635000D01*
X302536D01*
X315232Y665116D02*
X316290Y666174D01*
X318406D01*
X319464Y665116D01*
Y660884D01*
X318406Y659826D01*
X316290D01*
X315232Y660884D01*
X308884Y659826D02*
X313116D01*
X308884Y664058D01*
Y665116D01*
X309942Y666174D01*
X312058D01*
X313116Y665116D01*
X306768D02*
X305710Y666174D01*
X303594D01*
X302536Y665116D01*
Y664058D01*
X303594Y663000D01*
X302536Y661942D01*
Y660884D01*
X303594Y659826D01*
X305710D01*
X306768Y660884D01*
Y661942D01*
X305710Y663000D01*
X306768Y664058D01*
Y665116D01*
X305710Y663000D02*
X303594D01*
X473232Y589116D02*
X474290Y590174D01*
X476406D01*
X477464Y589116D01*
Y584884D01*
X476406Y583826D01*
X474290D01*
X473232Y584884D01*
X466884Y583826D02*
X471116D01*
X466884Y588058D01*
Y589116D01*
X467942Y590174D01*
X470058D01*
X471116Y589116D01*
X464768Y590174D02*
X460536D01*
Y589116D01*
X464768Y584884D01*
Y583826D01*
X367232Y955116D02*
X368290Y956174D01*
X370406D01*
X371464Y955116D01*
Y950884D01*
X370406Y949826D01*
X368290D01*
X367232Y950884D01*
X365116Y955116D02*
X364058Y956174D01*
X361942D01*
X360884Y955116D01*
Y954058D01*
X361942Y953000D01*
X363000D01*
X361942D01*
X360884Y951942D01*
Y950884D01*
X361942Y949826D01*
X364058D01*
X365116Y950884D01*
X354536Y956174D02*
X358768D01*
Y953000D01*
X356652Y954058D01*
X355594D01*
X354536Y953000D01*
Y950884D01*
X355594Y949826D01*
X357710D01*
X358768Y950884D01*
X367232Y834116D02*
X368290Y835174D01*
X370406D01*
X371464Y834116D01*
Y829884D01*
X370406Y828826D01*
X368290D01*
X367232Y829884D01*
X360884Y828826D02*
X365116D01*
X360884Y833058D01*
Y834116D01*
X361942Y835174D01*
X364058D01*
X365116Y834116D01*
X354536Y835174D02*
X358768D01*
Y832000D01*
X356652Y833058D01*
X355594D01*
X354536Y832000D01*
Y829884D01*
X355594Y828826D01*
X357710D01*
X358768Y829884D01*
X394232Y834116D02*
X395290Y835174D01*
X397406D01*
X398464Y834116D01*
Y829884D01*
X397406Y828826D01*
X395290D01*
X394232Y829884D01*
X392116Y834116D02*
X391058Y835174D01*
X388942D01*
X387884Y834116D01*
Y833058D01*
X388942Y832000D01*
X390000D01*
X388942D01*
X387884Y830942D01*
Y829884D01*
X388942Y828826D01*
X391058D01*
X392116Y829884D01*
X385768Y834116D02*
X384710Y835174D01*
X382594D01*
X381536Y834116D01*
Y833058D01*
X382594Y832000D01*
X383652D01*
X382594D01*
X381536Y830942D01*
Y829884D01*
X382594Y828826D01*
X384710D01*
X385768Y829884D01*
X419232Y834116D02*
X420290Y835174D01*
X422406D01*
X423464Y834116D01*
Y829884D01*
X422406Y828826D01*
X420290D01*
X419232Y829884D01*
X412884Y828826D02*
X417116D01*
X412884Y833058D01*
Y834116D01*
X413942Y835174D01*
X416058D01*
X417116Y834116D01*
X406536Y835174D02*
X408652Y834116D01*
X410768Y832000D01*
Y829884D01*
X409710Y828826D01*
X407594D01*
X406536Y829884D01*
Y830942D01*
X407594Y832000D01*
X410768D01*
X882290Y880174D02*
Y874884D01*
X881232Y873826D01*
X879116D01*
X878058Y874884D01*
Y880174D01*
X875942D02*
X871710D01*
Y879116D01*
X875942Y874884D01*
Y873826D01*
X1031290Y867174D02*
Y861884D01*
X1030232Y860826D01*
X1028116D01*
X1027058Y861884D01*
Y867174D01*
X1020710Y860826D02*
X1024942D01*
X1020710Y865058D01*
Y866116D01*
X1021768Y867174D01*
X1023884D01*
X1024942Y866116D01*
X1043058Y925116D02*
X1044116Y926174D01*
X1046232D01*
X1047290Y925116D01*
Y920884D01*
X1046232Y919826D01*
X1044116D01*
X1043058Y920884D01*
X1040942Y925116D02*
X1039884Y926174D01*
X1037768D01*
X1036710Y925116D01*
Y924058D01*
X1037768Y923000D01*
X1038826D01*
X1037768D01*
X1036710Y921942D01*
Y920884D01*
X1037768Y919826D01*
X1039884D01*
X1040942Y920884D01*
X1102058Y958116D02*
X1103116Y959174D01*
X1105232D01*
X1106290Y958116D01*
Y953884D01*
X1105232Y952826D01*
X1103116D01*
X1102058Y953884D01*
X1096768Y952826D02*
Y959174D01*
X1099942Y956000D01*
X1095710D01*
X1116703Y921116D02*
X1117761Y922174D01*
X1119877D01*
X1120935Y921116D01*
Y916884D01*
X1119877Y915826D01*
X1117761D01*
X1116703Y916884D01*
X1114587Y915826D02*
X1112471D01*
X1113529D01*
Y922174D01*
X1114587Y921116D01*
X1109297D02*
X1108239Y922174D01*
X1106123D01*
X1105065Y921116D01*
Y916884D01*
X1106123Y915826D01*
X1108239D01*
X1109297Y916884D01*
Y921116D01*
X1099058Y855116D02*
X1100116Y856174D01*
X1102232D01*
X1103290Y855116D01*
Y850884D01*
X1102232Y849826D01*
X1100116D01*
X1099058Y850884D01*
X1092710Y849826D02*
X1096942D01*
X1092710Y854058D01*
Y855116D01*
X1093768Y856174D01*
X1095884D01*
X1096942Y855116D01*
X1114058Y895116D02*
X1115116Y896174D01*
X1117232D01*
X1118290Y895116D01*
Y890884D01*
X1117232Y889826D01*
X1115116D01*
X1114058Y890884D01*
X1111942D02*
X1110884Y889826D01*
X1108768D01*
X1107710Y890884D01*
Y895116D01*
X1108768Y896174D01*
X1110884D01*
X1111942Y895116D01*
Y894058D01*
X1110884Y893000D01*
X1107710D01*
X1025058Y914116D02*
X1026116Y915174D01*
X1028232D01*
X1029290Y914116D01*
Y909884D01*
X1028232Y908826D01*
X1026116D01*
X1025058Y909884D01*
X1018710Y915174D02*
X1022942D01*
Y912000D01*
X1020826Y913058D01*
X1019768D01*
X1018710Y912000D01*
Y909884D01*
X1019768Y908826D01*
X1021884D01*
X1022942Y909884D01*
X958058Y913531D02*
X959116Y914589D01*
X961232D01*
X962290Y913531D01*
Y909299D01*
X961232Y908241D01*
X959116D01*
X958058Y909299D01*
X951710Y914589D02*
X953826Y913531D01*
X955942Y911415D01*
Y909299D01*
X954884Y908241D01*
X952768D01*
X951710Y909299D01*
Y910357D01*
X952768Y911415D01*
X955942D01*
X1025290Y947174D02*
Y941884D01*
X1024232Y940826D01*
X1022116D01*
X1021058Y941884D01*
Y947174D01*
X1018942Y946116D02*
X1017884Y947174D01*
X1015768D01*
X1014710Y946116D01*
Y945058D01*
X1015768Y944000D01*
X1016826D01*
X1015768D01*
X1014710Y942942D01*
Y941884D01*
X1015768Y940826D01*
X1017884D01*
X1018942Y941884D01*
X1027058Y978116D02*
X1028116Y979174D01*
X1030232D01*
X1031290Y978116D01*
Y973884D01*
X1030232Y972826D01*
X1028116D01*
X1027058Y973884D01*
X1024942Y978116D02*
X1023884Y979174D01*
X1021768D01*
X1020710Y978116D01*
Y977058D01*
X1021768Y976000D01*
X1020710Y974942D01*
Y973884D01*
X1021768Y972826D01*
X1023884D01*
X1024942Y973884D01*
Y974942D01*
X1023884Y976000D01*
X1024942Y977058D01*
Y978116D01*
X1023884Y976000D02*
X1021768D01*
X958058Y978116D02*
X959116Y979174D01*
X961232D01*
X962290Y978116D01*
Y973884D01*
X961232Y972826D01*
X959116D01*
X958058Y973884D01*
X955942Y979174D02*
X951710D01*
Y978116D01*
X955942Y973884D01*
Y972826D01*
X1224724Y910652D02*
Y905362D01*
X1223666Y904304D01*
X1221550D01*
X1220492Y905362D01*
Y910652D01*
X1218376Y909594D02*
X1217318Y910652D01*
X1215202D01*
X1214144Y909594D01*
Y908536D01*
X1215202Y907478D01*
X1214144Y906420D01*
Y905362D01*
X1215202Y904304D01*
X1217318D01*
X1218376Y905362D01*
Y906420D01*
X1217318Y907478D01*
X1218376Y908536D01*
Y909594D01*
X1217318Y907478D02*
X1215202D01*
X413877Y784826D02*
Y791174D01*
X410703D01*
X409645Y790116D01*
Y788000D01*
X410703Y786942D01*
X413877D01*
X411761D02*
X409645Y784826D01*
X407529D02*
X405413D01*
X406471D01*
Y791174D01*
X407529Y790116D01*
X402239Y784826D02*
X400123D01*
X401181D01*
Y791174D01*
X402239Y790116D01*
X402290Y936174D02*
Y929826D01*
X398058D01*
X392768D02*
Y936174D01*
X395942Y933000D01*
X391710D01*
X430232Y864116D02*
X431290Y865174D01*
X433406D01*
X434464Y864116D01*
Y859884D01*
X433406Y858826D01*
X431290D01*
X430232Y859884D01*
X428116Y864116D02*
X427058Y865174D01*
X424942D01*
X423884Y864116D01*
Y863058D01*
X424942Y862000D01*
X426000D01*
X424942D01*
X423884Y860942D01*
Y859884D01*
X424942Y858826D01*
X427058D01*
X428116Y859884D01*
X417536Y858826D02*
X421768D01*
X417536Y863058D01*
Y864116D01*
X418594Y865174D01*
X420710D01*
X421768Y864116D01*
X479174Y880116D02*
X480232Y881174D01*
X482348D01*
X483406Y880116D01*
Y875884D01*
X482348Y874826D01*
X480232D01*
X479174Y875884D01*
X477058Y880116D02*
X476000Y881174D01*
X473884D01*
X472826Y880116D01*
Y879058D01*
X473884Y878000D01*
X474942D01*
X473884D01*
X472826Y876942D01*
Y875884D01*
X473884Y874826D01*
X476000D01*
X477058Y875884D01*
X470710Y874826D02*
X468594D01*
X469652D01*
Y881174D01*
X470710Y880116D01*
X315232Y846116D02*
X316290Y847174D01*
X318406D01*
X319464Y846116D01*
Y841884D01*
X318406Y840826D01*
X316290D01*
X315232Y841884D01*
X313116Y846116D02*
X312058Y847174D01*
X309942D01*
X308884Y846116D01*
Y845058D01*
X309942Y844000D01*
X311000D01*
X309942D01*
X308884Y842942D01*
Y841884D01*
X309942Y840826D01*
X312058D01*
X313116Y841884D01*
X306768Y846116D02*
X305710Y847174D01*
X303594D01*
X302536Y846116D01*
Y841884D01*
X303594Y840826D01*
X305710D01*
X306768Y841884D01*
Y846116D01*
X315232Y887116D02*
X316290Y888174D01*
X318406D01*
X319464Y887116D01*
Y882884D01*
X318406Y881826D01*
X316290D01*
X315232Y882884D01*
X308884Y881826D02*
X313116D01*
X308884Y886058D01*
Y887116D01*
X309942Y888174D01*
X312058D01*
X313116Y887116D01*
X306768Y882884D02*
X305710Y881826D01*
X303594D01*
X302536Y882884D01*
Y887116D01*
X303594Y888174D01*
X305710D01*
X306768Y887116D01*
Y886058D01*
X305710Y885000D01*
X302536D01*
X315232Y915116D02*
X316290Y916174D01*
X318406D01*
X319464Y915116D01*
Y910884D01*
X318406Y909826D01*
X316290D01*
X315232Y910884D01*
X308884Y909826D02*
X313116D01*
X308884Y914058D01*
Y915116D01*
X309942Y916174D01*
X312058D01*
X313116Y915116D01*
X306768D02*
X305710Y916174D01*
X303594D01*
X302536Y915116D01*
Y914058D01*
X303594Y913000D01*
X302536Y911942D01*
Y910884D01*
X303594Y909826D01*
X305710D01*
X306768Y910884D01*
Y911942D01*
X305710Y913000D01*
X306768Y914058D01*
Y915116D01*
X305710Y913000D02*
X303594D01*
X473232Y839116D02*
X474290Y840174D01*
X476406D01*
X477464Y839116D01*
Y834884D01*
X476406Y833826D01*
X474290D01*
X473232Y834884D01*
X466884Y833826D02*
X471116D01*
X466884Y838058D01*
Y839116D01*
X467942Y840174D01*
X470058D01*
X471116Y839116D01*
X464768Y840174D02*
X460536D01*
Y839116D01*
X464768Y834884D01*
Y833826D01*
X367232Y1205116D02*
X368290Y1206174D01*
X370406D01*
X371464Y1205116D01*
Y1200884D01*
X370406Y1199826D01*
X368290D01*
X367232Y1200884D01*
X365116Y1205116D02*
X364058Y1206174D01*
X361942D01*
X360884Y1205116D01*
Y1204058D01*
X361942Y1203000D01*
X363000D01*
X361942D01*
X360884Y1201942D01*
Y1200884D01*
X361942Y1199826D01*
X364058D01*
X365116Y1200884D01*
X354536Y1206174D02*
X358768D01*
Y1203000D01*
X356652Y1204058D01*
X355594D01*
X354536Y1203000D01*
Y1200884D01*
X355594Y1199826D01*
X357710D01*
X358768Y1200884D01*
X367232Y1084116D02*
X368290Y1085174D01*
X370406D01*
X371464Y1084116D01*
Y1079884D01*
X370406Y1078826D01*
X368290D01*
X367232Y1079884D01*
X360884Y1078826D02*
X365116D01*
X360884Y1083058D01*
Y1084116D01*
X361942Y1085174D01*
X364058D01*
X365116Y1084116D01*
X354536Y1085174D02*
X358768D01*
Y1082000D01*
X356652Y1083058D01*
X355594D01*
X354536Y1082000D01*
Y1079884D01*
X355594Y1078826D01*
X357710D01*
X358768Y1079884D01*
X394232Y1084116D02*
X395290Y1085174D01*
X397406D01*
X398464Y1084116D01*
Y1079884D01*
X397406Y1078826D01*
X395290D01*
X394232Y1079884D01*
X392116Y1084116D02*
X391058Y1085174D01*
X388942D01*
X387884Y1084116D01*
Y1083058D01*
X388942Y1082000D01*
X390000D01*
X388942D01*
X387884Y1080942D01*
Y1079884D01*
X388942Y1078826D01*
X391058D01*
X392116Y1079884D01*
X385768Y1084116D02*
X384710Y1085174D01*
X382594D01*
X381536Y1084116D01*
Y1083058D01*
X382594Y1082000D01*
X383652D01*
X382594D01*
X381536Y1080942D01*
Y1079884D01*
X382594Y1078826D01*
X384710D01*
X385768Y1079884D01*
X419232Y1084116D02*
X420290Y1085174D01*
X422406D01*
X423464Y1084116D01*
Y1079884D01*
X422406Y1078826D01*
X420290D01*
X419232Y1079884D01*
X412884Y1078826D02*
X417116D01*
X412884Y1083058D01*
Y1084116D01*
X413942Y1085174D01*
X416058D01*
X417116Y1084116D01*
X406536Y1085174D02*
X408652Y1084116D01*
X410768Y1082000D01*
Y1079884D01*
X409710Y1078826D01*
X407594D01*
X406536Y1079884D01*
Y1080942D01*
X407594Y1082000D01*
X410768D01*
X882290Y1130174D02*
Y1124884D01*
X881232Y1123826D01*
X879116D01*
X878058Y1124884D01*
Y1130174D01*
X875942D02*
X871710D01*
Y1129116D01*
X875942Y1124884D01*
Y1123826D01*
X1031290Y1117174D02*
Y1111884D01*
X1030232Y1110826D01*
X1028116D01*
X1027058Y1111884D01*
Y1117174D01*
X1020710Y1110826D02*
X1024942D01*
X1020710Y1115058D01*
Y1116116D01*
X1021768Y1117174D01*
X1023884D01*
X1024942Y1116116D01*
X1043058Y1175116D02*
X1044116Y1176174D01*
X1046232D01*
X1047290Y1175116D01*
Y1170884D01*
X1046232Y1169826D01*
X1044116D01*
X1043058Y1170884D01*
X1040942Y1175116D02*
X1039884Y1176174D01*
X1037768D01*
X1036710Y1175116D01*
Y1174058D01*
X1037768Y1173000D01*
X1038826D01*
X1037768D01*
X1036710Y1171942D01*
Y1170884D01*
X1037768Y1169826D01*
X1039884D01*
X1040942Y1170884D01*
X1102058Y1208116D02*
X1103116Y1209174D01*
X1105232D01*
X1106290Y1208116D01*
Y1203884D01*
X1105232Y1202826D01*
X1103116D01*
X1102058Y1203884D01*
X1096768Y1202826D02*
Y1209174D01*
X1099942Y1206000D01*
X1095710D01*
X1116703Y1171116D02*
X1117761Y1172174D01*
X1119877D01*
X1120935Y1171116D01*
Y1166884D01*
X1119877Y1165826D01*
X1117761D01*
X1116703Y1166884D01*
X1114587Y1165826D02*
X1112471D01*
X1113529D01*
Y1172174D01*
X1114587Y1171116D01*
X1109297D02*
X1108239Y1172174D01*
X1106123D01*
X1105065Y1171116D01*
Y1166884D01*
X1106123Y1165826D01*
X1108239D01*
X1109297Y1166884D01*
Y1171116D01*
X1099058Y1105116D02*
X1100116Y1106174D01*
X1102232D01*
X1103290Y1105116D01*
Y1100884D01*
X1102232Y1099826D01*
X1100116D01*
X1099058Y1100884D01*
X1092710Y1099826D02*
X1096942D01*
X1092710Y1104058D01*
Y1105116D01*
X1093768Y1106174D01*
X1095884D01*
X1096942Y1105116D01*
X1114058Y1145116D02*
X1115116Y1146174D01*
X1117232D01*
X1118290Y1145116D01*
Y1140884D01*
X1117232Y1139826D01*
X1115116D01*
X1114058Y1140884D01*
X1111942D02*
X1110884Y1139826D01*
X1108768D01*
X1107710Y1140884D01*
Y1145116D01*
X1108768Y1146174D01*
X1110884D01*
X1111942Y1145116D01*
Y1144058D01*
X1110884Y1143000D01*
X1107710D01*
X1025058Y1164116D02*
X1026116Y1165174D01*
X1028232D01*
X1029290Y1164116D01*
Y1159884D01*
X1028232Y1158826D01*
X1026116D01*
X1025058Y1159884D01*
X1018710Y1165174D02*
X1022942D01*
Y1162000D01*
X1020826Y1163058D01*
X1019768D01*
X1018710Y1162000D01*
Y1159884D01*
X1019768Y1158826D01*
X1021884D01*
X1022942Y1159884D01*
X958058Y1163531D02*
X959116Y1164589D01*
X961232D01*
X962290Y1163531D01*
Y1159299D01*
X961232Y1158241D01*
X959116D01*
X958058Y1159299D01*
X951710Y1164589D02*
X953826Y1163531D01*
X955942Y1161415D01*
Y1159299D01*
X954884Y1158241D01*
X952768D01*
X951710Y1159299D01*
Y1160357D01*
X952768Y1161415D01*
X955942D01*
X1025290Y1197174D02*
Y1191884D01*
X1024232Y1190826D01*
X1022116D01*
X1021058Y1191884D01*
Y1197174D01*
X1018942Y1196116D02*
X1017884Y1197174D01*
X1015768D01*
X1014710Y1196116D01*
Y1195058D01*
X1015768Y1194000D01*
X1016826D01*
X1015768D01*
X1014710Y1192942D01*
Y1191884D01*
X1015768Y1190826D01*
X1017884D01*
X1018942Y1191884D01*
X1027058Y1228116D02*
X1028116Y1229174D01*
X1030232D01*
X1031290Y1228116D01*
Y1223884D01*
X1030232Y1222826D01*
X1028116D01*
X1027058Y1223884D01*
X1024942Y1228116D02*
X1023884Y1229174D01*
X1021768D01*
X1020710Y1228116D01*
Y1227058D01*
X1021768Y1226000D01*
X1020710Y1224942D01*
Y1223884D01*
X1021768Y1222826D01*
X1023884D01*
X1024942Y1223884D01*
Y1224942D01*
X1023884Y1226000D01*
X1024942Y1227058D01*
Y1228116D01*
X1023884Y1226000D02*
X1021768D01*
X958058Y1228116D02*
X959116Y1229174D01*
X961232D01*
X962290Y1228116D01*
Y1223884D01*
X961232Y1222826D01*
X959116D01*
X958058Y1223884D01*
X955942Y1229174D02*
X951710D01*
Y1228116D01*
X955942Y1223884D01*
Y1222826D01*
X1224724Y1160652D02*
Y1155362D01*
X1223666Y1154304D01*
X1221550D01*
X1220492Y1155362D01*
Y1160652D01*
X1218376Y1159594D02*
X1217318Y1160652D01*
X1215202D01*
X1214144Y1159594D01*
Y1158536D01*
X1215202Y1157478D01*
X1214144Y1156420D01*
Y1155362D01*
X1215202Y1154304D01*
X1217318D01*
X1218376Y1155362D01*
Y1156420D01*
X1217318Y1157478D01*
X1218376Y1158536D01*
Y1159594D01*
X1217318Y1157478D02*
X1215202D01*
X413877Y1034826D02*
Y1041174D01*
X410703D01*
X409645Y1040116D01*
Y1038000D01*
X410703Y1036942D01*
X413877D01*
X411761D02*
X409645Y1034826D01*
X407529D02*
X405413D01*
X406471D01*
Y1041174D01*
X407529Y1040116D01*
X402239Y1034826D02*
X400123D01*
X401181D01*
Y1041174D01*
X402239Y1040116D01*
X402290Y1186174D02*
Y1179826D01*
X398058D01*
X392768D02*
Y1186174D01*
X395942Y1183000D01*
X391710D01*
X430232Y1114116D02*
X431290Y1115174D01*
X433406D01*
X434464Y1114116D01*
Y1109884D01*
X433406Y1108826D01*
X431290D01*
X430232Y1109884D01*
X428116Y1114116D02*
X427058Y1115174D01*
X424942D01*
X423884Y1114116D01*
Y1113058D01*
X424942Y1112000D01*
X426000D01*
X424942D01*
X423884Y1110942D01*
Y1109884D01*
X424942Y1108826D01*
X427058D01*
X428116Y1109884D01*
X417536Y1108826D02*
X421768D01*
X417536Y1113058D01*
Y1114116D01*
X418594Y1115174D01*
X420710D01*
X421768Y1114116D01*
X479174Y1130116D02*
X480232Y1131174D01*
X482348D01*
X483406Y1130116D01*
Y1125884D01*
X482348Y1124826D01*
X480232D01*
X479174Y1125884D01*
X477058Y1130116D02*
X476000Y1131174D01*
X473884D01*
X472826Y1130116D01*
Y1129058D01*
X473884Y1128000D01*
X474942D01*
X473884D01*
X472826Y1126942D01*
Y1125884D01*
X473884Y1124826D01*
X476000D01*
X477058Y1125884D01*
X470710Y1124826D02*
X468594D01*
X469652D01*
Y1131174D01*
X470710Y1130116D01*
X315232Y1096116D02*
X316290Y1097174D01*
X318406D01*
X319464Y1096116D01*
Y1091884D01*
X318406Y1090826D01*
X316290D01*
X315232Y1091884D01*
X313116Y1096116D02*
X312058Y1097174D01*
X309942D01*
X308884Y1096116D01*
Y1095058D01*
X309942Y1094000D01*
X311000D01*
X309942D01*
X308884Y1092942D01*
Y1091884D01*
X309942Y1090826D01*
X312058D01*
X313116Y1091884D01*
X306768Y1096116D02*
X305710Y1097174D01*
X303594D01*
X302536Y1096116D01*
Y1091884D01*
X303594Y1090826D01*
X305710D01*
X306768Y1091884D01*
Y1096116D01*
X315232Y1137116D02*
X316290Y1138174D01*
X318406D01*
X319464Y1137116D01*
Y1132884D01*
X318406Y1131826D01*
X316290D01*
X315232Y1132884D01*
X308884Y1131826D02*
X313116D01*
X308884Y1136058D01*
Y1137116D01*
X309942Y1138174D01*
X312058D01*
X313116Y1137116D01*
X306768Y1132884D02*
X305710Y1131826D01*
X303594D01*
X302536Y1132884D01*
Y1137116D01*
X303594Y1138174D01*
X305710D01*
X306768Y1137116D01*
Y1136058D01*
X305710Y1135000D01*
X302536D01*
X315232Y1165116D02*
X316290Y1166174D01*
X318406D01*
X319464Y1165116D01*
Y1160884D01*
X318406Y1159826D01*
X316290D01*
X315232Y1160884D01*
X308884Y1159826D02*
X313116D01*
X308884Y1164058D01*
Y1165116D01*
X309942Y1166174D01*
X312058D01*
X313116Y1165116D01*
X306768D02*
X305710Y1166174D01*
X303594D01*
X302536Y1165116D01*
Y1164058D01*
X303594Y1163000D01*
X302536Y1161942D01*
Y1160884D01*
X303594Y1159826D01*
X305710D01*
X306768Y1160884D01*
Y1161942D01*
X305710Y1163000D01*
X306768Y1164058D01*
Y1165116D01*
X305710Y1163000D02*
X303594D01*
X473232Y1089116D02*
X474290Y1090174D01*
X476406D01*
X477464Y1089116D01*
Y1084884D01*
X476406Y1083826D01*
X474290D01*
X473232Y1084884D01*
X466884Y1083826D02*
X471116D01*
X466884Y1088058D01*
Y1089116D01*
X467942Y1090174D01*
X470058D01*
X471116Y1089116D01*
X464768Y1090174D02*
X460536D01*
Y1089116D01*
X464768Y1084884D01*
Y1083826D01*
D44*
X895500Y303543D02*
Y369543D01*
X858500Y303542D02*
Y369543D01*
X895500D01*
X858500Y303542D02*
X895500Y303543D01*
X984500Y359000D02*
Y369000D01*
X1015500Y359000D02*
Y369000D01*
X984500D02*
X1015500D01*
X984500Y359000D02*
X1015500D01*
X975650Y427000D02*
Y428500D01*
Y459500D02*
X975650Y461000D01*
X1009650Y427000D02*
Y428500D01*
Y459500D02*
Y461000D01*
X975650Y427000D02*
X982200Y427000D01*
X1003100Y427000D02*
X1009650Y427000D01*
X975650Y461000D02*
X982200D01*
X1003100D02*
X1009650D01*
X1207000Y394000D02*
X1221000D01*
X1159100Y386900D02*
Y394000D01*
Y356000D02*
Y386900D01*
X1221000Y356000D02*
Y394000D01*
X1159100D02*
X1207000D01*
X1159100Y356000D02*
X1221000D01*
X895500Y553543D02*
Y619543D01*
X858500Y553543D02*
Y619543D01*
X895500D01*
X858500Y553543D02*
X895500Y553543D01*
X984500Y609000D02*
Y619000D01*
X1015500Y609000D02*
Y619000D01*
X984500D02*
X1015500D01*
X984500Y609000D02*
X1015500D01*
X975650Y677000D02*
Y678500D01*
Y709500D02*
X975650Y711000D01*
X1009650Y677000D02*
Y678500D01*
Y709500D02*
Y711000D01*
X975650Y677000D02*
X982200Y677000D01*
X1003100Y677000D02*
X1009650Y677000D01*
X975650Y711000D02*
X982200D01*
X1003100D02*
X1009650D01*
X1207000Y644000D02*
X1221000D01*
X1159100Y636900D02*
Y644000D01*
Y606000D02*
Y636900D01*
X1221000Y606000D02*
Y644000D01*
X1159100D02*
X1207000D01*
X1159100Y606000D02*
X1221000D01*
X895500Y803543D02*
Y869543D01*
X858500Y803543D02*
Y869543D01*
X895500D01*
X858500Y803543D02*
X895500Y803543D01*
X984500Y859000D02*
Y869000D01*
X1015500Y859000D02*
Y869000D01*
X984500D02*
X1015500D01*
X984500Y859000D02*
X1015500D01*
X975650Y927000D02*
Y928500D01*
Y959500D02*
X975650Y961000D01*
X1009650Y927000D02*
Y928500D01*
Y959500D02*
Y961000D01*
X975650Y927000D02*
X982200Y927000D01*
X1003100Y927000D02*
X1009650Y927000D01*
X975650Y961000D02*
X982200D01*
X1003100D02*
X1009650D01*
X1207000Y894000D02*
X1221000D01*
X1159100Y886900D02*
Y894000D01*
Y856000D02*
Y886900D01*
X1221000Y856000D02*
Y894000D01*
X1159100D02*
X1207000D01*
X1159100Y856000D02*
X1221000D01*
X895500Y1053543D02*
Y1119543D01*
X858500Y1053543D02*
Y1119543D01*
X895500D01*
X858500Y1053543D02*
X895500Y1053543D01*
X984500Y1109000D02*
Y1119000D01*
X1015500Y1109000D02*
Y1119000D01*
X984500D02*
X1015500D01*
X984500Y1109000D02*
X1015500D01*
X975650Y1177000D02*
Y1178500D01*
Y1209500D02*
X975650Y1211000D01*
X1009650Y1177000D02*
Y1178500D01*
Y1209500D02*
Y1211000D01*
X975650Y1177000D02*
X982200Y1177000D01*
X1003100Y1177000D02*
X1009650Y1177000D01*
X975650Y1211000D02*
X982200D01*
X1003100D02*
X1009650D01*
X1207000Y1144000D02*
X1221000D01*
X1159100Y1136900D02*
Y1144000D01*
Y1106000D02*
Y1136900D01*
X1221000Y1106000D02*
Y1144000D01*
X1159100D02*
X1207000D01*
X1159100Y1106000D02*
X1221000D01*
D68*
X906750Y373293D02*
G03*
X906750Y373293I-1250J0D01*
G01*
X983250Y377750D02*
G03*
X983250Y377750I-1250J0D01*
G01*
X906750Y623293D02*
G03*
X906750Y623293I-1250J0D01*
G01*
X983250Y627750D02*
G03*
X983250Y627750I-1250J0D01*
G01*
X906750Y873293D02*
G03*
X906750Y873293I-1250J0D01*
G01*
X983250Y877750D02*
G03*
X983250Y877750I-1250J0D01*
G01*
X906750Y1123293D02*
G03*
X906750Y1123293I-1250J0D01*
G01*
X983250Y1127750D02*
G03*
X983250Y1127750I-1250J0D01*
G01*
D72*
X888500Y359543D02*
G03*
X888500Y359543I-3000J0D01*
G01*
Y609543D02*
G03*
X888500Y609543I-3000J0D01*
G01*
Y859543D02*
G03*
X888500Y859543I-3000J0D01*
G01*
Y1109543D02*
G03*
X888500Y1109543I-3000J0D01*
G01*
D73*
X972150Y427000D02*
G03*
X972150Y427000I-500J0D01*
G01*
Y677000D02*
G03*
X972150Y677000I-500J0D01*
G01*
Y927000D02*
G03*
X972150Y927000I-500J0D01*
G01*
Y1177000D02*
G03*
X972150Y1177000I-500J0D01*
G01*
M02*
