G04*
G04 #@! TF.GenerationSoftware,Altium Limited,Altium Designer,21.0.9 (235)*
G04*
G04 Layer_Color=128*
%FSLAX44Y44*%
%MOMM*%
G71*
G04*
G04 #@! TF.SameCoordinates,5DD7C229-C87D-40E0-AB69-EEC5175B06D6*
G04*
G04*
G04 #@! TF.FilePolarity,Positive*
G04*
G01*
G75*
%ADD12R,0.9000X0.6000*%
G04:AMPARAMS|DCode=13|XSize=0.6mm|YSize=0.9mm|CornerRadius=0.15mm|HoleSize=0mm|Usage=FLASHONLY|Rotation=270.000|XOffset=0mm|YOffset=0mm|HoleType=Round|Shape=RoundedRectangle|*
%AMROUNDEDRECTD13*
21,1,0.6000,0.6000,0,0,270.0*
21,1,0.3000,0.9000,0,0,270.0*
1,1,0.3000,-0.3000,-0.1500*
1,1,0.3000,-0.3000,0.1500*
1,1,0.3000,0.3000,0.1500*
1,1,0.3000,0.3000,-0.1500*
%
%ADD13ROUNDEDRECTD13*%
%ADD14R,0.6000X0.9000*%
G04:AMPARAMS|DCode=15|XSize=0.6mm|YSize=0.9mm|CornerRadius=0.15mm|HoleSize=0mm|Usage=FLASHONLY|Rotation=0.000|XOffset=0mm|YOffset=0mm|HoleType=Round|Shape=RoundedRectangle|*
%AMROUNDEDRECTD15*
21,1,0.6000,0.6000,0,0,0.0*
21,1,0.3000,0.9000,0,0,0.0*
1,1,0.3000,0.1500,-0.3000*
1,1,0.3000,-0.1500,-0.3000*
1,1,0.3000,-0.1500,0.3000*
1,1,0.3000,0.1500,0.3000*
%
%ADD15ROUNDEDRECTD15*%
G04:AMPARAMS|DCode=59|XSize=0.4mm|YSize=1.2mm|CornerRadius=0.05mm|HoleSize=0mm|Usage=FLASHONLY|Rotation=90.000|XOffset=0mm|YOffset=0mm|HoleType=Round|Shape=RoundedRectangle|*
%AMROUNDEDRECTD59*
21,1,0.4000,1.1000,0,0,90.0*
21,1,0.3000,1.2000,0,0,90.0*
1,1,0.1000,0.5500,0.1500*
1,1,0.1000,0.5500,-0.1500*
1,1,0.1000,-0.5500,-0.1500*
1,1,0.1000,-0.5500,0.1500*
%
%ADD59ROUNDEDRECTD59*%
G04:AMPARAMS|DCode=60|XSize=0.6mm|YSize=1mm|CornerRadius=0.15mm|HoleSize=0mm|Usage=FLASHONLY|Rotation=180.000|XOffset=0mm|YOffset=0mm|HoleType=Round|Shape=RoundedRectangle|*
%AMROUNDEDRECTD60*
21,1,0.6000,0.7000,0,0,180.0*
21,1,0.3000,1.0000,0,0,180.0*
1,1,0.3000,-0.1500,0.3500*
1,1,0.3000,0.1500,0.3500*
1,1,0.3000,0.1500,-0.3500*
1,1,0.3000,-0.1500,-0.3500*
%
%ADD60ROUNDEDRECTD60*%
%ADD61R,0.6000X1.0000*%
G04:AMPARAMS|DCode=62|XSize=0.4mm|YSize=0.9mm|CornerRadius=0.1mm|HoleSize=0mm|Usage=FLASHONLY|Rotation=270.000|XOffset=0mm|YOffset=0mm|HoleType=Round|Shape=RoundedRectangle|*
%AMROUNDEDRECTD62*
21,1,0.4000,0.7000,0,0,270.0*
21,1,0.2000,0.9000,0,0,270.0*
1,1,0.2000,-0.3500,-0.1000*
1,1,0.2000,-0.3500,0.1000*
1,1,0.2000,0.3500,0.1000*
1,1,0.2000,0.3500,-0.1000*
%
%ADD62ROUNDEDRECTD62*%
%ADD63R,0.9000X0.4000*%
%ADD64R,1.4900X2.3700*%
%ADD65R,0.3500X0.7500*%
G04:AMPARAMS|DCode=66|XSize=0.75mm|YSize=0.35mm|CornerRadius=0.0875mm|HoleSize=0mm|Usage=FLASHONLY|Rotation=90.000|XOffset=0mm|YOffset=0mm|HoleType=Round|Shape=RoundedRectangle|*
%AMROUNDEDRECTD66*
21,1,0.7500,0.1750,0,0,90.0*
21,1,0.5750,0.3500,0,0,90.0*
1,1,0.1750,0.0875,0.2875*
1,1,0.1750,0.0875,-0.2875*
1,1,0.1750,-0.0875,-0.2875*
1,1,0.1750,-0.0875,0.2875*
%
%ADD66ROUNDEDRECTD66*%
%ADD67R,0.9400X0.8900*%
D12*
X363000Y426293D02*
D03*
Y323000D02*
D03*
X389000Y308500D02*
D03*
X414543Y323500D02*
D03*
X1082000Y448500D02*
D03*
X1098000Y375500D02*
D03*
X363000Y676293D02*
D03*
Y573000D02*
D03*
X389000Y558500D02*
D03*
X414543Y573500D02*
D03*
X1082000Y698500D02*
D03*
X1098000Y625500D02*
D03*
X363000Y926293D02*
D03*
Y823000D02*
D03*
X389000Y808500D02*
D03*
X414543Y823500D02*
D03*
X1082000Y948500D02*
D03*
X1098000Y875500D02*
D03*
X363000Y1176293D02*
D03*
Y1073000D02*
D03*
X389000Y1058500D02*
D03*
X414543Y1073500D02*
D03*
X1082000Y1198500D02*
D03*
X1098000Y1125500D02*
D03*
D13*
X363000Y441293D02*
D03*
Y308000D02*
D03*
X389000Y323500D02*
D03*
X414543Y308500D02*
D03*
X1082000Y463500D02*
D03*
X1098000Y360500D02*
D03*
X363000Y691293D02*
D03*
Y558000D02*
D03*
X389000Y573500D02*
D03*
X414543Y558500D02*
D03*
X1082000Y713500D02*
D03*
X1098000Y610500D02*
D03*
X363000Y941293D02*
D03*
Y808000D02*
D03*
X389000Y823500D02*
D03*
X414543Y808500D02*
D03*
X1082000Y963500D02*
D03*
X1098000Y860500D02*
D03*
X363000Y1191293D02*
D03*
Y1058000D02*
D03*
X389000Y1073500D02*
D03*
X414543Y1058500D02*
D03*
X1082000Y1213500D02*
D03*
X1098000Y1110500D02*
D03*
D14*
X1049500Y407000D02*
D03*
X1128500Y419000D02*
D03*
X1143500Y393000D02*
D03*
X1014043Y411707D02*
D03*
X969500Y411707D02*
D03*
X1014500Y476293D02*
D03*
X969958D02*
D03*
X378500Y287957D02*
D03*
X342500Y385000D02*
D03*
X342500Y344000D02*
D03*
X469043Y362000D02*
D03*
X454500D02*
D03*
X439500Y336458D02*
D03*
X342500Y413000D02*
D03*
X1049500Y657000D02*
D03*
X1128500Y669000D02*
D03*
X1143500Y643000D02*
D03*
X1014043Y661708D02*
D03*
X969500Y661708D02*
D03*
X1014500Y726293D02*
D03*
X969958D02*
D03*
X378500Y537958D02*
D03*
X342500Y635000D02*
D03*
X342500Y594000D02*
D03*
X469043Y612000D02*
D03*
X454500D02*
D03*
X439500Y586458D02*
D03*
X342500Y663000D02*
D03*
X1049500Y907000D02*
D03*
X1128500Y919000D02*
D03*
X1143500Y893000D02*
D03*
X1014043Y911708D02*
D03*
X969500Y911708D02*
D03*
X1014500Y976293D02*
D03*
X969958D02*
D03*
X378500Y787958D02*
D03*
X342500Y885000D02*
D03*
X342500Y844000D02*
D03*
X469043Y862000D02*
D03*
X454500D02*
D03*
X439500Y836458D02*
D03*
X342500Y913000D02*
D03*
X1049500Y1157000D02*
D03*
X1128500Y1169000D02*
D03*
X1143500Y1143000D02*
D03*
X1014043Y1161708D02*
D03*
X969500Y1161708D02*
D03*
X1014500Y1226293D02*
D03*
X969958D02*
D03*
X378500Y1037958D02*
D03*
X342500Y1135000D02*
D03*
X342500Y1094000D02*
D03*
X469043Y1112000D02*
D03*
X454500D02*
D03*
X439500Y1086458D02*
D03*
X342500Y1163000D02*
D03*
D15*
X1034500Y407000D02*
D03*
X1143500Y419000D02*
D03*
X1128500Y393000D02*
D03*
X999043Y411707D02*
D03*
X984500Y411707D02*
D03*
X999500Y476293D02*
D03*
X984957D02*
D03*
X393500Y287957D02*
D03*
X327500Y385000D02*
D03*
X327500Y344000D02*
D03*
X484043Y362000D02*
D03*
X439500D02*
D03*
X454500Y336458D02*
D03*
X327500Y413000D02*
D03*
X1034500Y657000D02*
D03*
X1143500Y669000D02*
D03*
X1128500Y643000D02*
D03*
X999043Y661708D02*
D03*
X984500Y661708D02*
D03*
X999500Y726293D02*
D03*
X984957D02*
D03*
X393500Y537958D02*
D03*
X327500Y635000D02*
D03*
X327500Y594000D02*
D03*
X484043Y612000D02*
D03*
X439500D02*
D03*
X454500Y586458D02*
D03*
X327500Y663000D02*
D03*
X1034500Y907000D02*
D03*
X1143500Y919000D02*
D03*
X1128500Y893000D02*
D03*
X999043Y911708D02*
D03*
X984500Y911708D02*
D03*
X999500Y976293D02*
D03*
X984957D02*
D03*
X393500Y787958D02*
D03*
X327500Y885000D02*
D03*
X327500Y844000D02*
D03*
X484043Y862000D02*
D03*
X439500D02*
D03*
X454500Y836458D02*
D03*
X327500Y913000D02*
D03*
X1034500Y1157000D02*
D03*
X1143500Y1169000D02*
D03*
X1128500Y1143000D02*
D03*
X999043Y1161708D02*
D03*
X984500Y1161708D02*
D03*
X999500Y1226293D02*
D03*
X984957D02*
D03*
X393500Y1037958D02*
D03*
X327500Y1135000D02*
D03*
X327500Y1094000D02*
D03*
X484043Y1112000D02*
D03*
X439500D02*
D03*
X454500Y1086458D02*
D03*
X327500Y1163000D02*
D03*
D59*
X905500Y365793D02*
D03*
X905500Y359293D02*
D03*
X905500Y352793D02*
D03*
X905500Y346293D02*
D03*
Y339793D02*
D03*
Y333293D02*
D03*
Y326792D02*
D03*
X905500Y320293D02*
D03*
X905500Y313792D02*
D03*
X905500Y307293D02*
D03*
X848500Y365793D02*
D03*
X848500Y359293D02*
D03*
X848500Y352793D02*
D03*
X848500Y346293D02*
D03*
Y339793D02*
D03*
Y333293D02*
D03*
Y326792D02*
D03*
X848500Y320293D02*
D03*
X848500Y313792D02*
D03*
X848500Y307293D02*
D03*
X905500Y615793D02*
D03*
X905500Y609293D02*
D03*
X905500Y602793D02*
D03*
X905500Y596293D02*
D03*
Y589793D02*
D03*
Y583293D02*
D03*
Y576793D02*
D03*
X905500Y570293D02*
D03*
X905500Y563793D02*
D03*
X905500Y557293D02*
D03*
X848500Y615793D02*
D03*
X848500Y609293D02*
D03*
X848500Y602793D02*
D03*
X848500Y596293D02*
D03*
Y589793D02*
D03*
Y583293D02*
D03*
Y576793D02*
D03*
X848500Y570293D02*
D03*
X848500Y563793D02*
D03*
X848500Y557293D02*
D03*
X905500Y865793D02*
D03*
X905500Y859293D02*
D03*
X905500Y852793D02*
D03*
X905500Y846293D02*
D03*
Y839793D02*
D03*
Y833293D02*
D03*
Y826793D02*
D03*
X905500Y820293D02*
D03*
X905500Y813793D02*
D03*
X905500Y807293D02*
D03*
X848500Y865793D02*
D03*
X848500Y859293D02*
D03*
X848500Y852793D02*
D03*
X848500Y846293D02*
D03*
Y839793D02*
D03*
Y833293D02*
D03*
Y826793D02*
D03*
X848500Y820293D02*
D03*
X848500Y813793D02*
D03*
X848500Y807293D02*
D03*
X905500Y1115793D02*
D03*
X905500Y1109293D02*
D03*
X905500Y1102793D02*
D03*
X905500Y1096293D02*
D03*
Y1089793D02*
D03*
Y1083293D02*
D03*
Y1076793D02*
D03*
X905500Y1070293D02*
D03*
X905500Y1063793D02*
D03*
X905500Y1057293D02*
D03*
X848500Y1115793D02*
D03*
X848500Y1109293D02*
D03*
X848500Y1102793D02*
D03*
X848500Y1096293D02*
D03*
Y1089793D02*
D03*
Y1083293D02*
D03*
Y1076793D02*
D03*
X848500Y1070293D02*
D03*
X848500Y1063793D02*
D03*
X848500Y1057293D02*
D03*
D60*
X990500Y377750D02*
D03*
Y627750D02*
D03*
Y877750D02*
D03*
Y1127750D02*
D03*
D61*
X1000000Y377750D02*
D03*
X1009500Y377750D02*
D03*
Y350250D02*
D03*
X1000000D02*
D03*
X990500D02*
D03*
X1000000Y627750D02*
D03*
X1009500Y627750D02*
D03*
Y600250D02*
D03*
X1000000D02*
D03*
X990500D02*
D03*
X1000000Y877750D02*
D03*
X1009500Y877750D02*
D03*
Y850250D02*
D03*
X1000000D02*
D03*
X990500D02*
D03*
X1000000Y1127750D02*
D03*
X1009500Y1127750D02*
D03*
Y1100250D02*
D03*
X1000000D02*
D03*
X990500D02*
D03*
D62*
X978700Y434500D02*
D03*
Y684500D02*
D03*
Y934500D02*
D03*
Y1184500D02*
D03*
D63*
Y444000D02*
D03*
Y453500D02*
D03*
X1006600Y434500D02*
D03*
X1006600Y444000D02*
D03*
X1006600Y453500D02*
D03*
X978700Y694000D02*
D03*
Y703500D02*
D03*
X1006600Y684500D02*
D03*
X1006600Y694000D02*
D03*
X1006600Y703500D02*
D03*
X978700Y944000D02*
D03*
Y953500D02*
D03*
X1006600Y934500D02*
D03*
X1006600Y944000D02*
D03*
X1006600Y953500D02*
D03*
X978700Y1194000D02*
D03*
Y1203500D02*
D03*
X1006600Y1184500D02*
D03*
X1006600Y1194000D02*
D03*
X1006600Y1203500D02*
D03*
D64*
X992650Y444000D02*
D03*
Y694000D02*
D03*
Y944000D02*
D03*
Y1194000D02*
D03*
D65*
X1214000Y387000D02*
D03*
X1206000Y387000D02*
D03*
X1198000D02*
D03*
X1190000Y387000D02*
D03*
X1182000D02*
D03*
X1174000D02*
D03*
X1166000D02*
D03*
Y363000D02*
D03*
X1174000Y363000D02*
D03*
X1182000Y363000D02*
D03*
X1190000D02*
D03*
X1198000D02*
D03*
X1206000Y363000D02*
D03*
X1214000Y637000D02*
D03*
X1206000Y637000D02*
D03*
X1198000D02*
D03*
X1190000Y637000D02*
D03*
X1182000D02*
D03*
X1174000D02*
D03*
X1166000D02*
D03*
Y613000D02*
D03*
X1174000Y613000D02*
D03*
X1182000Y613000D02*
D03*
X1190000D02*
D03*
X1198000D02*
D03*
X1206000Y613000D02*
D03*
X1214000Y887000D02*
D03*
X1206000Y887000D02*
D03*
X1198000D02*
D03*
X1190000Y887000D02*
D03*
X1182000D02*
D03*
X1174000D02*
D03*
X1166000D02*
D03*
Y863000D02*
D03*
X1174000Y863000D02*
D03*
X1182000Y863000D02*
D03*
X1190000D02*
D03*
X1198000D02*
D03*
X1206000Y863000D02*
D03*
X1214000Y1137000D02*
D03*
X1206000Y1137000D02*
D03*
X1198000D02*
D03*
X1190000Y1137000D02*
D03*
X1182000D02*
D03*
X1174000D02*
D03*
X1166000D02*
D03*
Y1113000D02*
D03*
X1174000Y1113000D02*
D03*
X1182000Y1113000D02*
D03*
X1190000D02*
D03*
X1198000D02*
D03*
X1206000Y1113000D02*
D03*
D66*
X1214000Y363000D02*
D03*
Y613000D02*
D03*
Y863000D02*
D03*
Y1113000D02*
D03*
D67*
X384793Y425150D02*
D03*
Y440850D02*
D03*
Y675150D02*
D03*
Y690850D02*
D03*
Y925150D02*
D03*
Y940850D02*
D03*
Y1175150D02*
D03*
Y1190850D02*
D03*
M02*
