M48
;Layer_Color=9474304
;FILE_FORMAT=4:4
METRIC,LZ
;TYPE=PLATED
T1F00S00C0.2000
T2F00S00C0.3000
T5F00S00C0.6000
T6F00S00C0.7500
T7F00S00C0.9000
%
T01
X00256251Y00260001
X00263751
X00271251
X00278751
X00286251
X00293751
X00301251
X00308751
X00316251
X00323751
X00331251
X00335001Y00267501
X00327501
X00320001
X00312501
X00305001
X00297501
X00290001
X00282501
X00275001
X00267501
X00260001
X00263751Y00275001
X00271251
X00278751
X00286251
X00293751
X00301251
X00308751
X00316251
X00323751
X00331251
X00335001Y00282501
X00327501
X00320001
X00312501
X00305001
X00297501
X00290001
X00282501
X00275001
X00267501
X00260001
X00263751Y00290001
X00271251
X00278751
X00286251
X00293751
X00301251
X00308751
X00316251
X00323751
X00320001Y00297501
X00312501
X00305001
X00297501
X00290001
X00282501
X00275001
X00267501
X00260001
X00263751Y00305001
X00271251
X00278751
X00286251
X00293751
X00301251
X00308751
X00316251
X00323751
X00327501Y00312501
X00320001
X00312501
X00305001
X00297501
X00290001
X00282501
X00275001
X00267501
X00260001
X00263751Y00320001
X00271251
X00278751
X00286251
X00293751
X00301251
X00308751
X00316251
X00323751
X00331251
X00338751
X00342501Y00312501
X00346251Y00305001
X00349Y00323
X003425Y003295
X00335001Y00327501
X00327501
X00320001
X00312501
X00305001
X00297501
X00290001
X00282501
X00275001
X00267501
X00260001
X00263751Y00335001
X00271251
X00278751
X00282501Y00342501
X00275001
X00267501
X00260001
X00263751Y00350001
X00271251
X00278751
X00282501Y00357501
X00275001
X00267501
X00260001
X00263751Y00365001
X00271251
X00278751
X00282501Y00372501
X00275001
X00267501
X00260001
X00263751Y00380001
X00271251
X00278751
X00286251
X00293751
X00301251
X00308751
X00316251
X00320001Y00372501
X00312501
X00316251Y00365001
X00323751
X00331251
X00335001Y00357501
X00327501
X00320001
X00312501
X00316251Y00350001
X00308751
X00312501Y00342501
X00320001
X00323751Y00335001
X00331251
X00316251
X00308751
Y00365001
X00312501Y00387501
X00335343Y00386193
X00335261Y00378269
X0033644Y00371328
X00369Y00372
X0038
X00391
Y00383
Y00394
X0038Y00394
Y00383
X00369
X00369Y00394
X00369Y00361
X0038
Y0035
X00391Y0035
Y00361
X00369Y0035
X003785Y003285
X00395537Y00325625
X00395001Y00297501
X00370422Y00285591
X00256251Y00290001
Y00305001
Y00320001
Y00335001
Y00350001
Y00365001
Y00380001
X00260001Y00387501
X00267501
X00275001
X00278751Y00395001
X00271251
X00263751
X00256251
Y00275001
X00442Y00279
X00458751Y00275001
X00466251
X00473751
X00481251
X00488751
X00496251
X00503751
X00511251
X00518751
X00526251
X00533751
X00541251
X00548751
X00556251
X00563751
X00571251
X00578751
X00586251
X00593751
X00601251
X00608751
X00616251
X00623751
X00631251
X00638751
X00646251
X00653751
X00661251
X00665001Y00267501
X00672501
X00676251Y00260001
X00683751
X00691251
X00698751
X00706251
X00713751
X00721251
X00728752
X00736252
X00743752
X00740002Y00267501
X00732502
X00725001
X00728752Y00275001
X00736252
X00743752
X00740002Y00282501
X00732502
X00725001
X00717501
X00710001
X00702501
X00695001
X00687501
X00680001
X00683751Y00290001
X00691251
X00698751
X00706251
X00713751
X00721251
X00728752
X00736252
X00743752
X00740002Y00297501
X00732502
X00725001
X00717501
X00710001
X00702501
X00695001
X00687501
X00680001
X00672501
X00665001
X00668751Y00305001
X00676251
X00683751
X00691251
X00698751
X00706251
X00713751
X00721251
X00728752
X00736252
X00743752
X00740002Y00312501
X00732502
X00725001
X00717501
X00710001
X00702501
X00695001
X00687501
X00680001
X00672501
X00665001
X00657501
X00650001
X00653751Y00320001
X00661251
X00668751
X00676251
X00683751
X00691251
X00698751
X00706251
X00713751
X00721251
X00728752
X00736252
X00743752
X00740002Y00327501
X00732502
X00725001
X00717501
X00710001
X00702501
X00695001
X00687501
X00680001
X00672501
X00665001
X00657501
X00650001
X00642501
X00635001
X00646251Y00320001
X00642501Y00297501
X00635001
X00627501
X00620001
X00612501
X00605001
X00597501
X00590001
X00582501
X00575001
X00567501
X00560001
X00552501
X00545001
X00537501
X00530001
X00522501
X00515001
X00507501
X00500001
X00492501
X00485001
X00477501
X00470001
X00473751Y00305001
X00481251
X00488751
X00496251
X00503751
X00511251
X00518751
X00526251
X00533751
X00541251
X00548751
X00556251
X00563751
X00571251
X00578751
X00586251
X00593751
X00601251
X00608751
X00616251
X00623751
X00631251
X00627501Y00312501
X00620001
X00612501
X00605001
X00597501
X00590001
X00582501
X00575001
X00567501
X00571251Y00320001
X00578751
X00586251
X00593751
X00601251
X00608751
X00616251
X00612501Y00327501
X00605001
X00597501
X00590001
X00582501
X00575001
X00567501
X00563751Y00335001
X00556251
X00548751
X00541251
X00533751
X00526251
X00518751
X00511251
X00503751
X00507501Y00327501
X00503748Y00320252
X00500001Y00312501
X00507501
X00492501
X00485001
X00488751Y00320001
X00481251
X00485001Y00327501
X00477501
X00459905Y00324608
X00456Y0031875
X0044896Y00318056
X00442Y00317
X00434Y00315
X00467
X00466251Y00290001
X00473751
X00481251
X00488751
X00496251
X00503751
X00511251
X00518751
X00526251
X00533751
X00541251
X00548751
X00556251
X00563751
X00571251
X00578751
X00586251
X00593751
X00601251
X00608751
X00616251
X00623751
X00631251
X00638751
X00646251
X00650001Y00282501
X00657501
Y00267501
X00650001
X00642501
X00635001
X00627501
X00620001
X00612501
X00605001
X00597501
X00590001
X00593751Y00260001
X00601251
X00608751
X00616251
X00623751
X00631251
X00638751
X00646251
X00653751
X00661251
X00668751
X00676251Y00290001
X00661251Y00305001
X00642501Y00282501
X00635001
X00627501
X00620001
X00612501
X00605001
X00597501
X00590001
X00582501
X00575001
X00567501
X00560001
X00552501
X00545001
X00537501
X00530001
X00522501
X00515001
X00507501
X00500001
X00492501
X00485001
X00477501
X00470001
X00462501
X00458751Y00290001
X00462501Y00267501
X00470001
X00477501
X00485001
X00492501
X00500001
X00507501
X00515001
X00522501
X00530001
X00537501
X00545001
X00552501
X00548751Y00260001
X00541251
X00533751
X00526251
X00518751
X00511251
X00503751
X00496251
X00488751
X00481251
X00473751
X00466251
X00458751
Y00350001
X00466251
X00474208Y00345208
X00492501Y00357501
X00500001
X00507501
X00515001
X00522501
X00530001
X00537501
X00545001
X00552501
X00560001
X00567501
X00571251Y00365001
X00578751
X00586251
X00593751
X00601251
X00608751
X00616251
X00623751
X00631251
X00638751
X00646251
X00653751
X00661251
X00668751
X00676251
X00683751
X00691251
X00698751
X00706251
X00713751
X00721251
X00728752
X00736252
X00743752
X00740002Y00357501
X00732502
X00725001
X00717501
X00710001
X00702501
X00695001
X00687501
X00680001
X00672501
X00676251Y00350001
X00683751
X00691251
X00698751
X00706251
X00713751
X00721251
X00728752
X00736252
X00743752
X00740002Y00342501
X00732502
X00725001
X00717501
X00710001
X00702501
X00695001
X00687501
X00680001
X00672501
X00676251Y00335001
X00683751
X00691251
X00698751
X00706251
X00713751
X00721251
X00728752
X00736252
X00743752
X00721251Y00275001
X00586251Y00260001
X00563751Y00320001
X00545001Y00327501
Y00312501
X00530001
Y00327501
X00533751Y00365001
X00541251
X00548751
X00556251
X00563751
X00567501Y00372501
X00575001
X00582501
X00590001
X00597501
X00605001
X00612501
X00620001
X00627501
X00635001
X00642501
X00650001
X00646251Y00380001
X00638751
X00631251
X00623751
X00616251
X00608751
X00601251
X00593751
X00586251
X00578751
X00571251
X00563751
X00556251
X00548751
X00541251
X00533751
X00526251
X00518751
X00511251
X00503751
X00496251
X00488751
X00481251
X00473751
X00477501Y00372501
X00470001
X00462501
X00453099Y00375527
X00439273Y00381586
X0043858Y00389199
X00434192Y00370006
X00413Y00372
X00413Y00383
X00402
Y00394
X00413Y00394
X00413Y00361
X00402
Y0035
X00413Y0035
X00402Y00372
X004045Y00325132
X00485Y0037
X00492501Y00372501
X00500001
X00507501
X00515001
X00522501
X00530001
X00537501
X00545001
X00552501
X00560001
Y00387501
X00567501
X00575001
X00582501
X00590001
X00597501
X00605001
X00612501
X00620001
X00627501
X00635001
X00642501
X00650001
X00646251Y00395001
X00638751
X00631251
X00623751
X00616251
X00608751
X00601251
X00593751
X00586251
X00578751
X00571251
X00563751
X00556251
X00548751
X00541251
X00533751
X00526251
X00518751
X00522501Y00387501
X00530001
X00537501
X00545001
X00552501
X00526251Y00365001
X00518751
X00511251
X00503751
X00496251
X00620001Y00357501
X00623751Y00350001
X00838906Y00347473
X00838499Y00354501
X00839Y00365
X00839816Y00340492
X0083734Y0032763
X00863Y0032506
X00861801Y0031294
X00864Y0029906
X00854Y00294
X00844Y003
X00874545Y0031983
X00891Y0032
X00893525Y00307525
X00914914Y00313485
X00916708Y00320293
X00915458Y00327221
X0091425Y00340045
X009251Y00340039
X00925Y00333
X00930425Y00319409
X00926287Y003025
X009466Y003144
X00948Y0028994
X00926729Y00355174
X00896Y00353
X00896338Y00365353
X00881708Y00359293
X00870159Y00345487
X00995764Y00334994
X01002804Y00335081
X01Y00365
X01044Y00362149
X01064415Y00336585
X01107Y00319841
X01100664Y00307336
X01107463Y00298791
X01091Y00301
X01127453Y002983
X01141964Y0029706
X01143Y00366
X01156Y0037
X01189Y00375
X01121567Y00396309
X01098Y00382
X0096252Y0039152
X0120586Y00395283
X01221Y00365292
X01214Y00346
X01198246Y00345676
X01217621Y00330799
Y005808
X01214Y00596
X01198246Y00595676
X01221Y00615292
X0120586Y00645283
X0119Y00647
X01189Y00625
X01156Y0062
X01143Y00616
X01121567Y00646309
X01122142Y006543
X01129575Y00669899
X0112Y00678887
Y007
X01112878Y0069979
X0110617Y00687173
X010793Y0068767
X0106654Y0069606
X0105442
X01057Y0068
X01061622Y00665572
X01062335Y00649
X010845Y006555
Y006665
X010955
Y006555
X01098Y00632
X01107Y00569841
X01100664Y00557336
X01107463Y00548791
X01091Y00551
X01127453Y005483
X01141964Y0054706
X01136163Y0043767
X01129575Y00419899
X0112Y00428887
Y0045
X01112878Y0044979
X0110617Y00437173
X010793Y0043767
X0106654Y0044606
X0105442
X01057Y0043
X01061622Y00415572
X01062335Y00399
X010845Y004055
Y004165
X010955
Y004055
X01122142Y004043
X0119Y00397
X01083Y00471668
X01052Y00472
X010145Y004665
X010185Y004535
X01026Y00432
X00948Y00474
Y0053994
X009466Y005644
X00930425Y00569409
X00916708Y00570293
X00915458Y00577221
X0091425Y00590045
X009251Y00590039
X00925Y00583
X00926729Y00605174
X00896Y00603
X00896338Y00615353
X00881708Y00609293
X00870159Y00595487
X00863Y0057506
X00861801Y0056294
X00864Y0054906
X00854Y00544
X00844Y0055
X0083734Y0057763
X00839816Y00590492
X00838906Y00597473
X00838499Y00604501
X00839Y00615
X00874545Y0056983
X00891Y0057
X00893525Y00557525
X00914914Y00563485
X00926287Y00552501
X00995764Y00584994
X01002804Y00585081
X01Y00615
X01044Y00612149
X01064415Y00586585
X01026Y00682
X010185Y007035
X010145Y007165
X01052Y00722
X01083Y00721668
X01136163Y0068767
X0096252Y0064152
X00948Y00724
Y0078994
X00881039Y00712962
Y00462962
X00743752Y00510001
X00736252
X00728752
X00721251
X00713751
X00706251
X00698751
X00691251
X00683751
X00676251
X00668751
X00661251
X00653751
X00646251
X00638751
X00631251
X00623751
X00616251
X00608751
X00601251
X00593751
X00586251
X00590001Y00517501
X00597501
X00605001
X00612501
X00620001
X00627501
X00635001
X00642501
X00650001
X00657501
X00665001
X00672501
X00661251Y00525001
X00653751
X00646251
X00638751
X00631251
X00623751
X00616251
X00608751
X00601251
X00593751
X00586251
X00578751
X00571251
X00563751
X00556251
X00548751
X00541251
X00533751
X00526251
X00518751
X00511251
X00503751
X00496251
X00488751
X00481251
X00473751
X00466251
X00458751
X00462501Y00532501
X00470001
X00477501
X00485001
X00492501
X00500001
X00507501
X00515001
X00522501
X00530001
X00537501
X00545001
X00552501
X00560001
X00567501
X00575001
X00582501
X00590001
X00597501
X00605001
X00612501
X00620001
X00627501
X00635001
X00642501
X00650001
X00657501
X00646251Y00540001
X00638751
X00631251
X00623751
X00616251
X00608751
X00601251
X00593751
X00586251
X00578751
X00571251
X00563751
X00556251
X00548751
X00541251
X00533751
X00526251
X00518751
X00511251
X00503751
X00496251
X00488751
X00481251
X00473751
X00466251
X00458751
X00470001Y00547501
X00477501
X00485001
X00492501
X00500001
X00507501
X00515001
X00522501
X00530001
X00537501
X00545001
X00552501
X00560001
X00567501
X00575001
X00582501
X00590001
X00597501
X00605001
X00612501
X00620001
X00627501
X00635001
X00642501
X00631251Y00555001
X00623751
X00616251
X00608751
X00601251
X00593751
X00586251
X00578751
X00571251
X00563751
X00556251
X00548751
X00541251
X00533751
X00526251
X00518751
X00511251
X00503751
X00496251
X00488751
X00481251
X00473751
X00467Y00565
X00456Y0056875
X0044896Y00568056
X00442Y00567
X00434Y00565
X00459905Y00574608
X00477501Y00577501
X00485001
X00488751Y00570001
X00481251
X00485001Y00562501
X00492501
X00500001
X00507501
X00503748Y00570252
X00507501Y00577501
X00511251Y00585001
X00518751
X00526251
X00533751
X00541251
X00548751
X00556251
X00563751
X00567501Y00577501
X00575001
X00582501
X00590001
X00597501
X00605001
X00612501
X00616251Y00570001
X00608751
X00601251
X00593751
X00586251
X00578751
X00571251
X00563751
X00567501Y00562501
X00575001
X00582501
X00590001
X00597501
X00605001
X00612501
X00620001
X00627501
X00650001
X00657501
X00665001
X00672501
X00680001
X00687501
X00695001
X00702501
X00710001
X00717501
X00725001
X00732502
X00740002
X00743752Y00570001
X00736252
X00728752
X00721251
X00713751
X00706251
X00698751
X00691251
X00683751
X00676251
X00668751
X00661251
X00653751
X00646251
X00650001Y00577501
X00657501
X00665001
X00672501
X00680001
X00687501
X00695001
X00702501
X00710001
X00717501
X00725001
X00732502
X00740002
X00743752Y00585001
X00736252
X00728752
X00721251
X00713751
X00706251
X00698751
X00691251
X00683751
X00676251
X00680001Y00592501
X00687501
X00695001
X00702501
X00710001
X00717501
X00725001
X00732502
X00740002
X00743752Y00600001
X00736252
X00728752
X00721251
X00713751
X00706251
X00698751
X00691251
X00683751
X00676251
X00680001Y00607501
X00687501
X00695001
X00702501
X00710001
X00717501
X00725001
X00732502
X00740002
X00743752Y00615001
X00736252
X00728752
X00721251
X00713751
X00706251
X00698751
X00691251
X00683751
X00676251
X00668751
X00661251
X00653751
X00646251
X00638751
X00631251
X00623751
X00616251
X00608751
X00601251
X00593751
X00586251
X00578751
X00571251
X00563751
X00556251
X00548751
X00541251
X00533751
X00526251
X00518751
X00511251
X00503751
X00496251
X00500001Y00622501
X00507501
X00515001
X00522501
X00530001
X00537501
X00545001
X00552501
X00560001
X00567501
X00575001
X00582501
X00590001
X00597501
X00605001
X00612501
X00620001
X00627501
X00635001
X00642501
X00650001
X00646251Y00630001
X00638751
X00631251
X00623751
X00616251
X00608751
X00601251
X00593751
X00586251
X00578751
X00571251
X00563751
X00556251
X00548751
X00541251
X00533751
X00526251
X00518751
X00511251
X00503751
X00496251
X00488751
X00481251
X00473751
X00477501Y00622501
X00470001
X00462501
X00453099Y00625527
X00439273Y00631586
X0043858Y00639199
X00434192Y00620006
X00413Y00622
X00413Y00633
X00402
Y00644
X00413Y00644
X00409Y00671
X00414Y00682
X00428751Y00690001
X00436251
X00443751
X00451251
X00458751
X00466251
X00473751
X00481251
X00485001Y00697501
X00492501
X00477501
X00470001
X00462501
X00455001
X00447501
X00440001
X00432501
X00425001
Y00727501
X00432501
X00440001
X00447501
X00455001
X00462501
X00470001
X00477501
X00485001
X00488751Y00735001
X00496251
X00500001Y00742501
X00507501
X00515001
X00518751Y00760001
X00526251
X00533751
X00541251
X00548751
X00552501Y00767501
X00545001
X00537501
X00530001
X00522501
X00515001
X00507501
X00500001
X00492501
X00485001
X00477501
X00470001
X00462501
X00466251Y00775001
X00473751
X00481251
X00488751
X00496251
X00503751
X00511251
X00518751
X00526251
X00533751
X00541251
X00548751
X00556251
X00563751
X00571251
X00578751
X00586251
X00593751
X00601251
X00608751
X00616251
X00623751
X00631251
X00638751
X00646251
X00653751
X00661251
X00665001Y00767501
X00672501
X00676251Y00760001
X00683751
X00691251
X00698751
X00706251
X00713751
X00721251
X00728752
X00736252
X00743752
X00740002Y00767501
X00732502
X00725001
X00728752Y00775001
X00736252
X00743752
X00740002Y00782501
X00732502
X00725001
X00717501
X00710001
X00702501
X00695001
X00687501
X00680001
X00683751Y00790001
X00691251
X00698751
X00706251
X00713751
X00721251
X00728752
X00736252
X00743752
X00721251Y00775001
X00676251Y00790001
X00657501Y00782501
X00650001
X00642501
X00635001
X00627501
X00620001
X00612501
X00605001
X00597501
X00590001
X00582501
X00575001
X00567501
X00560001
X00552501
X00545001
X00537501
X00530001
X00522501
X00515001
X00507501
X00500001
X00492501
X00485001
X00477501
X00470001
X00462501
X00466251Y00790001
X00473751
X00481251
X00488751
X00496251
X00503751
X00511251
X00518751
X00526251
X00533751
X00541251
X00548751
X00556251
X00563751
X00571251
X00578751
X00586251
X00593751
X00601251
X00608751
X00616251
X00623751
X00631251
X00638751
X00646251
X00650001Y00767501
X00657501
X00661251Y00760001
X00668751
X00653751
X00646251
X00638751
X00631251
X00623751
X00616251
X00608751
X00601251
X00593751
X00586251
X00590001Y00767501
X00597501
X00605001
X00612501
X00620001
X00627501
X00635001
X00642501
Y00742501
X00650001
X00646251Y00735001
X00638751
X00631251
X00623751
X00616251
X00608751
X00601251
X00605001Y00742501
X00612501
X00620001
X00627501
X00635001
Y00727501
X00642501
X00650001
X00646251Y00720001
X00638751
X00631251
X00623751
X00616251
X00608751
X00601251
X00593751
X00586251
X00578751
X00571251
X00563751
X00556251
X00548751
X00541251
X00533751
X00526251
X00518751
X00515001Y00712501
X00503751Y00705001
X00503Y0073
X00492501Y00742501
X00485001
X00477501
X00470001
X00462501
X00455001
X00447501
X00440001
X00432501
X00425001
X00417501
X00410001
X00402501
Y00727501
X00417501
X00421251Y00735001
X00428751
X00436251
X00443751
X00451251
X00458751
X00466251
X00473751
X00481251
Y00760001
X00488751
X00496251
X00503751
X00511251
X00473751
X00466251
X00458751
Y00775001
Y00790001
X00442Y00779
X00482Y00669575
X00488751Y00660001
X00495565Y00655398
X00504Y00655
X00511251Y00660001
X00518751
X00526251
X00533751
X00541251
X00548751
X00556251
X00563751
X00571251
X00578751
X00586251
X00593751
X00601251
X00608751
X00616251
X00623751
X00631251
X00638751
X00646251
X00650001Y00667501
X00642501
X00635001
X00627501
X00620001
X00612501
X00605001
X00597501
X00590001
X00582501
X00575001
X00567501
X00560001
X00552501
X00545001
X00537501
X00530001
X00522501
X00515001
X00507501
X00503751Y00675001
X00507501Y00682501
X00500001
X00522501
X00530001
X00537501
X00541251Y00675001
X00533751
X00526251
Y00690001
X00533751
X00537501Y00697501
X00530001
X00560001
X00567501
X00575001
X00582501
X00590001
X00593751Y00705001
X00586251
X00578751
X00571251
X00563751
X00556251
X00560001Y00712501
X00567501
X00575001
X00582501
X00590001
X00597501
Y00727501
X00605001
X00612501
X00620001
X00627501
Y00697501
X00620001
X00612501
X00616251Y00690001
X00623751
X00627501Y00682501
X00620001
X00612501
X00616251Y00675001
X00623751
X00627501Y00652501
X00635001
X00642501
X00650001
X00646251Y00645001
X00638751
X00631251
X00623751
X00616251
X00608751
X00601251
X00593751
X00586251
X00578751
X00571251
X00563751
X00556251
X00548751
X00541251
X00533751
X00526251
X00518751
X00522501Y00652501
X00530001
X00537501
X00545001
X00552501
X00560001
X00567501
X00575001
X00582501
X00590001
X00597501
X00605001
X00612501
X00620001
Y00637501
X00627501
X00635001
X00642501
X00650001
X00612501
X00605001
X00597501
X00590001
X00582501
X00575001
X00567501
X00560001
X00552501
X00545001
X00537501
X00530001
X00522501
X00515001Y00652501
Y00607501
X00522501
X00530001
X00537501
X00545001
X00552501
X00560001
X00567501
X00620001
X00623751Y00600001
X00635001Y00577501
X00642501
X00661251Y00555001
X00668751
X00676251
X00683751
X00691251
X00698751
X00706251
X00713751
X00721251
X00728752
X00736252
X00743752
X00740002Y00547501
X00732502
X00725001
X00717501
X00710001
X00702501
X00695001
X00687501
X00680001
X00672501
X00665001
X00676251Y00540001
X00683751
X00691251
X00698751
X00706251
X00713751
X00721251
X00728752
X00736252
X00743752
X00740002Y00532501
X00732502
X00725001
X00717501
X00710001
X00702501
X00695001
X00687501
X00680001
X00721251Y00525001
X00728752
X00736252
X00743752
X00740002Y00517501
X00732502
X00725001
X00650001Y00492501
X00642501
X00635001
X00627501
X00620001
X00612501
X00605001
X00597501
X00601251Y00485001
X00608751
X00616251
X00623751
X00631251
X00638751
X00646251
X00650001Y00477501
X00642501
X00635001
X00627501
X00620001
X00612501
X00605001
X00597501
X00590001
X00593751Y00470001
X00601251
X00608751
X00616251
X00623751
X00631251
X00638751
X00646251
X00650001Y00447501
Y00432501
Y00417501
X00642501
X00635001
X00627501
X00620001
X00612501
X00605001
X00597501
X00590001
X00582501
X00575001
X00567501
X00560001
X00552501
X00545001
X00537501
X00530001
X00522501
X00515001
X00507501
X00511251Y00410001
X00518751
X00526251
X00533751
X00541251
X00548751
X00556251
X00563751
X00571251
X00578751
X00586251
X00593751
X00601251
X00608751
X00616251
X00623751
X00631251
X00638751
X00646251
X00650001Y00402501
X00642501
X00635001
X00627501
X00620001
X00612501
X00605001
X00597501
X00590001
X00582501
X00575001
X00567501
X00560001
X00552501
X00545001
X00537501
X00530001
X00522501
X00515001
X00504Y00405
X00495565Y00405398
X00488751Y00410001
X00482Y00419575
X00481251Y00440001
X00473751
X00466251
X00458751
X00451251
X00443751
X00436251
X00428751
X00432501Y00447501
X00440001
X00447501
X00455001
X00462501
X00470001
X00477501
X00485001
X00492501
X00503751Y00455001
X00515001Y00462501
X00518751Y00470001
X00526251
X00533751
X00541251
X00548751
X00556251
X00563751
X00571251
X00578751
X00586251
X00590001Y00462501
X00597501
X00593751Y00455001
X00586251
X00578751
X00571251
X00563751
X00556251
X00560001Y00462501
X00567501
X00575001
X00582501
Y00447501
X00590001
X00593751Y00440001
X00586251
X00578751
X00571251
X00563751
X00567501Y00447501
X00575001
Y00432501
X00582501
X00590001
X00597501
X00593751Y00425001
X00586251
X00578751
X00571251
X00563751
X00567501Y00432501
X00560001
Y00447501
X00552501Y00462501
X00537501Y00447501
X00530001
X00533751Y00440001
X00526251
X00530001Y00432501
X00537501
X00541251Y00425001
X00533751
X00526251
X00522501Y00432501
X00507501
X00500001
X00503751Y00425001
X00503Y0048
X00496251Y00485001
X00488751
X00481251
X00473751
X00466251
X00458751
X00451251
X00443751
X00436251
X00428751
X00421251
X00425001Y00492501
X00432501
X00440001
X00447501
X00455001
X00462501
X00470001
X00477501
X00485001
X00492501
X00500001
X00507501
X00515001
X00518751Y00510001
X00526251
X00533751
X00541251
X00548751
X00552501Y00517501
X00545001
X00537501
X00530001
X00522501
X00515001
X00507501
X00500001
X00492501
X00485001
X00477501
X00470001
X00462501
X00466251Y00510001
X00473751
X00481251
X00488751
X00496251
X00503751
X00511251
X00458751
X00442Y00529
X00440001Y00477501
X00447501
X00455001
X00462501
X00470001
X00477501
X00485001
X00432501
X00425001
X00417501
Y00492501
X00410001
X00402501
Y00477501
X00425001Y00447501
X00414Y00432
X00409Y00421
X004045Y00575132
X00402Y006
Y00611
X00413
X00413Y006
X00402Y00622
X00458751Y00600001
X00466251
X00474208Y00595208
X00492501Y00607501
X00500001
X00507501
X00503751Y00585001
X00530001Y00577501
X00545001
Y00562501
X00530001
X00492501Y00622501
X00485Y0062
X00563751Y00675001
X00571251
X00578751
X00586251
X00593751
X00597501Y00682501
X00590001
X00582501
X00575001
X00567501
X00560001
X00563751Y00690001
X00571251
X00578751
X00586251
X00593751
X00590001Y00727501
X00597501Y00742501
X00552501Y00712501
X00650001Y00697501
Y00682501
X00672501Y00607501
Y00592501
X00627501Y00447501
X00620001
X00612501
X00616251Y00440001
X00623751
X00627501Y00432501
X00620001
X00612501
X00616251Y00425001
X00623751
X00389043Y00415368
X00375303Y00440284
X00350001Y00432501
X00351285Y00423285
X00353751Y00410001
X0034856Y00402072
X0033644Y0040213
X00331285Y00397335
X00312501Y00402501
Y00417501
Y00432501
X00316251Y00440001
X00324665Y00444335
X00327Y00453
X00338751Y00455001
X00342501Y00462501
X00335001
X00338751Y00470001
X00346251
X00353751
X00357501Y00477501
X00350001
X00342501
Y00492501
X00350001
X00357501
X00365001
X00372501
X00380001
X00387501
X00395001
X00383751Y00485001
X00376251
X00370422Y00535591
X00395001Y00547501
X00395537Y00575625
X003785Y005785
X0038Y006
Y00611
X00369
X00369Y00622
X0038
X00391
Y00633
Y00644
X0038Y00644
Y00633
X00369
X00369Y00644
X0034856Y00652072
X0033644Y0065213
X00331285Y00647335
X00335343Y00636193
X00335261Y00628269
X0033644Y00621328
X00331251Y00615001
X00323751
X00316251
X00308751
X00312501Y00622501
X00320001
X00316251Y00630001
X00308751
X00301251
X00293751
X00286251
X00278751
X00271251
X00263751
X00256251
X00260001Y00637501
X00267501
X00275001
X00278751Y00645001
X00271251
X00263751
X00256251
X00260001Y00652501
X00267501
X00275001
X00278751Y00660001
X00271251
X00263751
X00256251
X00260001Y00667501
X00267501
X00275001
X00278751Y00675001
X00271251
X00263751
X00256251
X00260001Y00682501
X00267501
X00275001
X00282501
X00286251Y00690001
X00278751
X00271251
X00263751
X00256251
X00260001Y00697501
X00267501
X00275001
X00282501
X00290001
X00297501
X00301251Y00705001
X00293751
X00286251
X00278751
X00271251
X00263751
X00256251
X00260001Y00712501
X00267501
X00275001
X00282501
X00290001
X00297501
X00293751Y00720001
X00286251
X00278751
X00271251
X00263751
X00256251
X00260001Y00727501
X00267501
X00263751Y00735001
X00256251
X00260001Y00742501
X00267501
X00271251Y00760001
X00278751
X00286251
X00293751
X00301251
X00308751
X00316251
X00323751
X00331251
X00335001Y00767501
X00327501
X00320001
X00312501
X00305001
X00297501
X00290001
X00282501
X00275001
X00267501
X00260001
X00263751Y00775001
X00271251
X00278751
X00286251
X00293751
X00301251
X00308751
X00316251
X00323751
X00331251
X00335001Y00782501
X00327501
X00320001
X00312501
X00305001
X00297501
X00290001
X00282501
X00275001
X00267501
X00260001
X00263751Y00790001
X00271251
X00278751
X00286251
X00293751
X00301251
X00308751
X00316251
X00323751
X00370422Y00785591
X00372501Y00742501
X00380001
X00387501
X00395001
X00383751Y00735001
X00376251
X00365001Y00742501
X00357501
X00350001
X00342501
Y00727501
X00350001
X00357501
X00353751Y00720001
X00346251
X00338751
X00342501Y00712501
X00335001
X00338751Y00705001
X00327Y00703
X00324665Y00694335
X00316251Y00690001
X00312501Y00682501
Y00667501
Y00652501
Y00637501
Y00607501
X00320001
X00327501
X00335001
X00331251Y00585001
X00323751
X00316251
X00308751
X00312501Y00592501
X00320001
X00316251Y00600001
X00308751
X00312501Y00577501
X00320001
X00327501
X00335001
X003425Y005795
X00349Y00573
X00338751Y00570001
X00331251
X00323751
X00316251
X00308751
X00301251
X00293751
X00286251
X00278751
X00271251
X00263751
X00256251
X00260001Y00577501
X00267501
X00275001
X00282501
X00290001
X00297501
X00305001
Y00562501
X00312501
X00320001
X00327501
X00323751Y00555001
X00316251
X00308751
X00301251
X00293751
X00286251
X00278751
X00271251
X00263751
X00256251
X00260001Y00562501
X00267501
X00275001
X00282501
X00290001
X00297501
Y00547501
X00305001
X00312501
X00320001
X00323751Y00540001
X00316251
X00308751
X00301251
X00293751
X00286251
X00278751
X00271251
X00263751
X00256251
X00260001Y00547501
X00267501
X00275001
X00282501
X00290001
Y00532501
X00297501
X00305001
X00312501
X00320001
X00327501
X00335001
X00331251Y00525001
X00323751
X00316251
X00308751
X00301251
X00293751
X00286251
X00278751
X00271251
X00263751
X00256251
X00260001Y00532501
X00267501
X00275001
X00282501
Y00517501
X00290001
X00297501
X00305001
X00312501
X00320001
X00327501
X00335001
X00331251Y00510001
X00323751
X00316251
X00308751
X00301251
X00293751
X00286251
X00278751
X00271251
X00263751
X00256251
X00260001Y00517501
X00267501
X00275001
X00267501Y00492501
X00260001
X00263751Y00485001
X00256251
X00260001Y00477501
X00267501
X00271251Y00470001
X00278751
X00286251
X00293751
X00297501Y00462501
X00290001
X00282501
X00275001
X00267501
X00260001
X00263751Y00470001
X00256251
Y00455001
X00263751
X00271251
X00278751
X00286251
X00293751
X00301251
X00297501Y00447501
X00290001
X00282501
X00275001
X00267501
X00260001
X00263751Y00440001
X00271251
X00278751
X00286251
X00282501Y00432501
X00275001
X00267501
X00260001
X00263751Y00425001
X00271251
X00278751
X00275001Y00417501
X00267501
X00260001
X00263751Y00410001
X00271251
X00278751
X00275001Y00402501
X00267501
X00260001
X00256251Y00410001
Y00425001
Y00440001
X00290001Y00492501
X00297501
X00312501
X00346251Y00555001
X00342501Y00562501
X00369Y006
X00391
Y00611
X00389043Y00665368
X00375303Y00690284
X00350001Y00682501
X00351285Y00673285
X00353751Y00660001
X00282501Y00622501
X00275001
X00267501
X00260001
X00263751Y00615001
X00271251
X00278751
X00282501Y00607501
X00275001
X00267501
X00260001
X00263751Y00600001
X00271251
X00278751
X00282501Y00592501
X00275001
X00267501
X00260001
X00263751Y00585001
X00271251
X00278751
X00256251
Y00600001
Y00615001
Y00760001
X00263751
X00256251Y00775001
Y00790001
X00290001Y00742501
X00297501
X00312501
Y00797501
X00320001
X00323751Y00805001
X00316251
X00308751
X00301251
X00293751
X00286251
X00278751
X00271251
X00263751
X00256251
X00260001Y00812501
X00267501
X00275001
X00282501
X00290001
X00297501
X00305001
X00312501
X00320001
X00327501
X00331251Y00820001
X00338751
X00342501Y00812501
X00346251Y00805001
X00349Y00823
X003425Y008295
X00335001Y00827501
X00327501
X00320001
X00312501
X00305001
X00297501
X00290001
X00282501
X00275001
X00267501
X00260001
X00263751Y00835001
X00271251
X00278751
X00282501Y00842501
X00275001
X00267501
X00260001
X00263751Y00850001
X00271251
X00278751
X00282501Y00857501
X00275001
X00267501
X00260001
X00263751Y00865001
X00271251
X00278751
X00282501Y00872501
X00275001
X00267501
X00260001
X00263751Y00880001
X00271251
X00278751
X00286251
X00293751
X00301251
X00308751
X00316251
X00320001Y00872501
X00312501
X00316251Y00865001
X00323751
X00331251
X00335001Y00857501
X00327501
X00320001
X00312501
X00316251Y00850001
X00308751
X00312501Y00842501
X00320001
X00323751Y00835001
X00331251
X00316251
X00308751
Y00820001
X00316251
X00323751
X00301251
X00293751
X00286251
X00278751
X00271251
X00263751
X00256251
Y00835001
Y00850001
Y00865001
Y00880001
X00260001Y00887501
X00267501
X00275001
X00278751Y00895001
X00271251
X00263751
X00256251
X00260001Y00902501
X00267501
X00275001
X00278751Y00910001
X00271251
X00263751
X00256251
X00260001Y00917501
X00267501
X00275001
X00278751Y00925001
X00271251
X00263751
X00256251
X00260001Y00932501
X00267501
X00275001
X00282501
X00286251Y00940001
X00278751
X00271251
X00263751
X00256251
X00260001Y00947501
X00267501
X00275001
X00282501
X00290001
X00297501
X00301251Y00955001
X00293751
X00286251
X00278751
X00271251
X00263751
X00256251
X00260001Y00962501
X00267501
X00275001
X00282501
X00290001
X00297501
X00293751Y00970001
X00286251
X00278751
X00271251
X00263751
X00256251
X00260001Y00977501
X00267501
X00263751Y00985001
X00256251
X00260001Y00992501
X00267501
X00271251Y01010001
X00278751
X00286251
X00293751
X00301251
X00308751
X00316251
X00323751
X00331251
X00335001Y01017501
X00327501
X00320001
X00312501
X00305001
X00297501
X00290001
X00282501
X00275001
X00267501
X00260001
X00263751Y01025001
X00271251
X00278751
X00286251
X00293751
X00301251
X00308751
X00316251
X00323751
X00331251
X00335001Y01032501
X00327501
X00320001
X00312501
X00305001
X00297501
X00290001
X00282501
X00275001
X00267501
X00260001
X00263751Y01040001
X00271251
X00278751
X00286251
X00293751
X00301251
X00308751
X00316251
X00323751
X00320001Y01047501
X00312501
X00305001
X00297501
X00290001
X00282501
X00275001
X00267501
X00260001
X00263751Y01055001
X00271251
X00278751
X00286251
X00293751
X00301251
X00308751
X00316251
X00323751
X00327501Y01062501
X00320001
X00312501
X00305001
X00297501
X00290001
X00282501
X00275001
X00267501
X00260001
X00263751Y01070001
X00271251
X00278751
X00286251
X00293751
X00301251
X00308751
X00316251
X00323751
X00331251
X00338751
X00342501Y01062501
X00346251Y01055001
X00349Y01073
X003425Y010795
X00335001Y01077501
X00327501
X00320001
X00312501
X00305001
X00297501
X00290001
X00282501
X00275001
X00267501
X00260001
X00263751Y01085001
X00271251
X00278751
X00282501Y01092501
X00275001
X00267501
X00260001
X00263751Y01100001
X00271251
X00278751
X00282501Y01107501
X00275001
X00267501
X00260001
X00263751Y01115001
X00271251
X00278751
X00282501Y01122501
X00275001
X00267501
X00260001
X00263751Y01130001
X00271251
X00278751
X00286251
X00293751
X00301251
X00308751
X00316251
X00320001Y01122501
X00312501
X00316251Y01115001
X00323751
X00331251
X00335001Y01107501
X00327501
X00320001
X00312501
X00316251Y01100001
X00308751
X00312501Y01092501
X00320001
X00323751Y01085001
X00331251
X00316251
X00308751
Y01115001
X00312501Y01137501
Y01152501
Y01167501
Y01182501
X00316251Y01190001
X00286251
X00278751
X00271251
X00263751
X00256251
X00260001Y01182501
X00267501
X00275001
X00282501
X00278751Y01175001
X00271251
X00263751
X00256251
X00260001Y01167501
X00267501
X00275001
X00278751Y01160001
X00271251
X00263751
X00256251
X00260001Y01152501
X00267501
X00275001
X00278751Y01145001
X00271251
X00263751
X00256251
X00260001Y01137501
X00267501
X00275001
X00256251Y01130001
Y01115001
Y01100001
Y01085001
Y01070001
Y01055001
Y01040001
Y01025001
Y01010001
X00263751
X00290001Y00992501
X00297501
X00312501
X00342501
X00350001
X00357501
X00365001
X00372501
X00380001
X00387501
X00395001
X00383751Y00985001
X00376251
X00357501Y00977501
X00350001
X00342501
X00346251Y00970001
X00353751
X00338751
X00342501Y00962501
X00335001
X00338751Y00955001
X00327Y00953
X00324665Y00944335
X00316251Y00940001
X00312501Y00932501
Y00917501
Y00902501
Y00887501
X00335343Y00886193
X00335261Y00878269
X0033644Y00871328
X0033644Y0090213
X00331285Y00897335
X0034856Y00902072
X00353751Y00910001
X00351285Y00923285
X00350001Y00932501
X00375303Y00940284
X00389043Y00915368
X00391Y00894
Y00883
Y00872
Y00861
Y0085
X0038Y0085
Y00861
X00369
X00369Y00872
X0038
X0038Y00883
Y00894
X00369Y00894
X00369Y00883
X00369Y0085
X003785Y008285
X00395537Y00825625
X00395001Y00797501
X00305001
X00297501
X00290001
X00282501
X00275001
X00267501
X00260001
X00308751Y00865001
X00370422Y01035591
X00395001Y01047501
X00395537Y01075625
X003785Y010785
X0038Y011
Y01111
X00369
X00369Y01122
X0038
X00391
Y01133
Y01144
X0038Y01144
Y01133
X00369
X00369Y01144
X0034856Y01152072
X0033644Y0115213
X00331285Y01147335
X00335343Y01136193
X00335261Y01128269
X0033644Y01121328
X00369Y011
X00391
Y01111
X00389043Y01165368
X00375303Y01190284
X00350001Y01182501
X00351285Y01173285
X00353751Y01160001
X00402Y01144
Y01133
X00413
X00413Y01144
Y01122
X00413Y01111
X00402
Y011
X00413Y011
X00402Y01122
X00434192Y01120006
X00439273Y01131587
X0043858Y01139199
X00453099Y01125527
X00462501Y01122501
X00470001
X00477501
X00485Y0112
X00492501Y01122501
X00500001
X00507501
X00515001
X00522501
X00530001
X00537501
X00545001
X00552501
X00560001
X00567501
X00575001
X00582501
X00590001
X00597501
X00605001
X00612501
X00620001
X00627501
X00635001
X00642501
X00650001
X00653751Y01115001
X00661251
X00668751
X00676251
X00683751
X00691251
X00698751
X00706251
X00713751
X00721251
X00728752
X00736252
X00743752
X00740002Y01107501
X00732502
X00725001
X00717501
X00710001
X00702501
X00695001
X00687501
X00680001
X00672501
X00676251Y01100001
X00683751
X00691251
X00698751
X00706251
X00713751
X00721251
X00728752
X00736252
X00743752
X00740002Y01092501
X00732502
X00725001
X00717501
X00710001
X00702501
X00695001
X00687501
X00680001
X00672501
X00676251Y01085001
X00683751
X00691251
X00698751
X00706251
X00713751
X00721251
X00728752
X00736252
X00743752
X00740002Y01077501
X00732502
X00725001
X00717501
X00710001
X00702501
X00695001
X00687501
X00680001
X00672501
X00665001
X00657501
X00650001
X00642501
X00635001
X00646251Y01070001
X00653751
X00661251
X00668751
X00676251
X00683751
X00691251
X00698751
X00706251
X00713751
X00721251
X00728752
X00736252
X00743752
X00740002Y01062501
X00732502
X00725001
X00717501
X00710001
X00702501
X00695001
X00687501
X00680001
X00672501
X00665001
X00657501
X00650001
X00661251Y01055001
X00668751
X00676251
X00683751
X00691251
X00698751
X00706251
X00713751
X00721251
X00728752
X00736252
X00743752
X00740002Y01047501
X00732502
X00725001
X00717501
X00710001
X00702501
X00695001
X00687501
X00680001
X00672501
X00665001
X00676251Y01040001
X00683751
X00691251
X00698751
X00706251
X00713751
X00721251
X00728752
X00736252
X00743752
X00740002Y01032501
X00732502
X00725001
X00717501
X00710001
X00702501
X00695001
X00687501
X00680001
X00672501Y01017501
X00665001
X00657501
X00650001
X00642501
X00635001
X00627501
X00620001
X00612501
X00605001
X00597501
X00590001
X00593751Y01025001
X00601251
X00608751
X00616251
X00623751
X00631251
X00638751
X00646251
X00653751
X00661251
X00657501Y01032501
X00650001
X00642501
X00635001
X00627501
X00620001
X00612501
X00605001
X00597501
X00590001
X00582501
X00575001
X00567501
X00560001
X00552501
X00545001
X00537501
X00530001
X00522501
X00515001
X00507501
X00500001
X00492501
X00485001
X00477501
X00470001
X00462501
X00466251Y01040001
X00473751
X00481251
X00488751
X00496251
X00503751
X00511251
X00518751
X00526251
X00533751
X00541251
X00548751
X00556251
X00563751
X00571251
X00578751
X00586251
X00593751
X00601251
X00608751
X00616251
X00623751
X00631251
X00638751
X00646251
X00642501Y01047501
X00635001
X00627501
X00620001
X00612501
X00605001
X00597501
X00590001
X00582501
X00575001
X00567501
X00560001
X00552501
X00545001
X00537501
X00530001
X00522501
X00515001
X00507501
X00500001
X00492501
X00485001
X00477501
X00470001
X00473751Y01055001
X00481251
X00488751
X00496251
X00503751
X00511251
X00518751
X00526251
X00533751
X00541251
X00548751
X00556251
X00563751
X00571251
X00578751
X00586251
X00593751
X00601251
X00608751
X00616251
X00623751
X00631251
X00627501Y01062501
X00620001
X00612501
X00605001
X00597501
X00590001
X00582501
X00575001
X00567501
X00571251Y01070001
X00578751
X00586251
X00593751
X00601251
X00608751
X00616251
X00612501Y01077501
X00605001
X00597501
X00590001
X00582501
X00575001
X00567501
X00563751Y01085001
X00556251
X00548751
X00541251
X00533751
X00526251
X00518751
X00511251
X00503751
X00507501Y01077501
X00503748Y01070252
X00500001Y01062501
X00507501
X00492501
X00485001
X00488751Y01070001
X00481251
X00485001Y01077501
X00477501
X00459905Y01074608
X00456Y0106875
X0044896Y01068056
X00442Y01067
X00434Y01065
X00467
X00458751Y01040001
Y01025001
X00466251
X00473751
X00481251
X00488751
X00496251
X00503751
X00511251
X00518751
X00526251
X00533751
X00541251
X00548751
X00556251
X00563751
X00571251
X00578751
X00586251
Y01010001
X00593751
X00601251
X00608751
X00616251
X00623751
X00631251
X00638751
X00646251
X00653751
X00661251
X00668751
X00676251
X00683751
X00691251
X00698751
X00706251
X00713751
X00721251
X00728752
X00736252
X00743752
X00740002Y01017501
X00732502
X00725001
X00728752Y01025001
X00736252
X00743752
X00721251
X00650001Y00992501
X00642501
X00635001
X00627501
X00620001
X00612501
X00605001
X00597501
X00601251Y00985001
X00608751
X00616251
X00623751
X00631251
X00638751
X00646251
X00650001Y00977501
X00642501
X00635001
X00627501
X00620001
X00612501
X00605001
X00597501
X00590001
X00593751Y00970001
X00601251
X00608751
X00616251
X00623751
X00631251
X00638751
X00646251
X00650001Y00947501
Y00932501
Y00917501
X00642501
X00635001
X00627501
X00620001
X00612501
X00605001
X00597501
X00590001
X00582501
X00575001
X00567501
X00560001
X00552501
X00545001
X00537501
X00530001
X00522501
X00515001
X00507501
X00511251Y00910001
X00518751
X00526251
X00533751
X00541251
X00548751
X00556251
X00563751
X00571251
X00578751
X00586251
X00593751
X00601251
X00608751
X00616251
X00623751
X00631251
X00638751
X00646251
X00650001Y00902501
X00642501
X00635001
X00627501
X00620001
X00612501
X00605001
X00597501
X00590001
X00582501
X00575001
X00567501
X00560001
X00552501
X00545001
X00537501
X00530001
X00522501
X00515001
X00518751Y00895001
X00526251
X00533751
X00541251
X00548751
X00556251
X00563751
X00571251
X00578751
X00586251
X00593751
X00601251
X00608751
X00616251
X00623751
X00631251
X00638751
X00646251
X00650001Y00887501
X00642501
X00635001
X00627501
X00620001
X00612501
X00605001
X00597501
X00590001
X00582501
X00575001
X00567501
X00560001
X00552501
X00545001
X00537501
X00530001
X00522501
X00526251Y00880001
X00533751
X00541251
X00548751
X00556251
X00563751
X00571251
X00578751
X00586251
X00593751
X00601251
X00608751
X00616251
X00623751
X00631251
X00638751
X00646251
X00650001Y00872501
X00642501
X00635001
X00627501
X00620001
X00612501
X00605001
X00597501
X00590001
X00582501
X00575001
X00567501
X00560001
X00552501
X00545001
X00537501
X00530001
X00522501
X00515001
X00507501
X00500001
X00492501
X00485Y0087
X00477501Y00872501
X00470001
X00462501
X00453099Y00875527
X00439273Y00881587
X0043858Y00889199
X00434192Y00870006
X00413Y00872
X00413Y00883
X00402
Y00894
X00413Y00894
X00409Y00921
X00414Y00932
X00428751Y00940001
X00436251
X00443751
X00451251
X00458751
X00466251
X00473751
X00481251
X00485001Y00947501
X00492501
X00477501
X00470001
X00462501
X00455001
X00447501
X00440001
X00432501
X00425001
Y00977501
X00432501
X00440001
X00447501
X00455001
X00462501
X00470001
X00477501
X00485001
X00488751Y00985001
X00496251
X00500001Y00992501
X00507501
X00515001
X00518751Y01010001
X00526251
X00533751
X00541251
X00548751
X00552501Y01017501
X00545001
X00537501
X00530001
X00522501
X00515001
X00507501
X00500001
X00492501
X00485001
X00477501
X00470001
X00462501
X00466251Y01010001
X00473751
X00481251
X00488751
X00496251
X00503751
X00511251
X00492501Y00992501
X00485001
X00477501
X00470001
X00462501
X00455001
X00447501
X00440001
X00432501
X00425001
X00417501
X00410001
X00402501
Y00977501
X00417501
X00421251Y00985001
X00428751
X00436251
X00443751
X00451251
X00458751
X00466251
X00473751
X00481251
X00503Y0098
X00518751Y00970001
X00526251
X00533751
X00541251
X00548751
X00556251
X00563751
X00571251
X00578751
X00586251
X00590001Y00962501
X00597501
X00593751Y00955001
X00586251
X00578751
X00571251
X00563751
X00556251
X00560001Y00962501
X00567501
X00575001
X00582501
Y00947501
X00590001
X00593751Y00940001
X00586251
X00578751
X00571251
X00563751
X00567501Y00947501
X00575001
Y00932501
X00582501
X00590001
X00597501
X00593751Y00925001
X00586251
X00578751
X00571251
X00563751
X00567501Y00932501
X00560001
Y00947501
X00552501Y00962501
X00537501Y00947501
X00530001
X00533751Y00940001
X00526251
X00530001Y00932501
X00537501
X00541251Y00925001
X00533751
X00526251
X00522501Y00932501
X00507501
X00500001
X00503751Y00925001
X00504Y00905
X00495565Y00905398
X00488751Y00910001
X00482Y00919575
X00481251Y00880001
X00488751
X00496251
X00503751
X00511251
X00518751
Y00865001
X00526251
X00533751
X00541251
X00548751
X00556251
X00563751
X00571251
X00578751
X00586251
X00593751
X00601251
X00608751
X00616251
X00623751
X00631251
X00638751
X00646251
X00653751
X00661251
X00668751
X00676251
X00683751
X00691251
X00698751
X00706251
X00713751
X00721251
X00728752
X00736252
X00743752
X00740002Y00857501
X00732502
X00725001
X00717501
X00710001
X00702501
X00695001
X00687501
X00680001
X00672501
X00676251Y00850001
X00683751
X00691251
X00698751
X00706251
X00713751
X00721251
X00728752
X00736252
X00743752
X00740002Y00842501
X00732502
X00725001
X00717501
X00710001
X00702501
X00695001
X00687501
X00680001
X00672501
X00676251Y00835001
X00683751
X00691251
X00698751
X00706251
X00713751
X00721251
X00728752
X00736252
X00743752
X00740002Y00827501
X00732502
X00725001
X00717501
X00710001
X00702501
X00695001
X00687501
X00680001
X00672501
X00665001
X00657501
X00650001
X00642501
X00635001
X00646251Y00820001
X00653751
X00661251
X00668751
X00676251
X00683751
X00691251
X00698751
X00706251
X00713751
X00721251
X00728752
X00736252
X00743752
X00740002Y00812501
X00732502
X00725001
X00717501
X00710001
X00702501
X00695001
X00687501
X00680001
X00672501
X00665001
X00657501
X00650001
X00661251Y00805001
X00668751
X00676251
X00683751
X00691251
X00698751
X00706251
X00713751
X00721251
X00728752
X00736252
X00743752
X00740002Y00797501
X00732502
X00725001
X00717501
X00710001
X00702501
X00695001
X00687501
X00680001
X00672501
X00665001
X00642501
X00635001
X00627501
X00620001
X00612501
X00605001
X00597501
X00590001
X00582501
X00575001
X00567501
X00560001
X00552501
X00545001
X00537501
X00530001
X00522501
X00515001
X00507501
X00500001
X00492501
X00485001
X00477501
X00470001
X00473751Y00805001
X00481251
X00488751
X00496251
X00503751
X00511251
X00518751
X00526251
X00533751
X00541251
X00548751
X00556251
X00563751
X00571251
X00578751
X00586251
X00593751
X00601251
X00608751
X00616251
X00623751
X00631251
X00627501Y00812501
X00620001
X00612501
X00605001
X00597501
X00590001
X00582501
X00575001
X00567501
X00571251Y00820001
X00578751
X00586251
X00593751
X00601251
X00608751
X00616251
X00612501Y00827501
X00605001
X00597501
X00590001
X00582501
X00575001
X00567501
X00563751Y00835001
X00556251
X00548751
X00541251
X00533751
X00526251
X00518751
X00511251
X00503751
X00507501Y00827501
X00503748Y00820252
X00500001Y00812501
X00507501
X00492501
X00485001
X00488751Y00820001
X00481251
X00485001Y00827501
X00477501
X00459905Y00824608
X00456Y0081875
X0044896Y00818056
X00442Y00817
X00434Y00815
X00467
X00466251Y00850001
X00458751
X00474208Y00845208
X00492501Y00857501
X00500001
X00507501
X00515001
X00522501
X00530001
X00537501
X00545001
X00552501
X00560001
X00567501
X00563751Y00820001
X00545001Y00827501
Y00812501
X00530001
Y00827501
X00511251Y00865001
X00503751
X00496251
X00473751Y00880001
X00413Y00861
X00402
Y0085
X00413Y0085
X00402Y00872
X004045Y00825132
X00503751Y00955001
X00515001Y00962501
X00458751Y01010001
X00442Y01029
X004045Y01075133
X00458751Y01100001
X00466251
X00474208Y01095208
X00492501Y01107501
X00500001
X00507501
X00515001
X00522501
X00530001
X00537501
X00545001
X00552501
X00560001
X00567501
X00571251Y01115001
X00578751
X00586251
X00593751
X00601251
X00608751
X00616251
X00623751
X00631251
X00638751
X00646251
Y01130001
X00638751
X00631251
X00623751
X00616251
X00608751
X00601251
X00593751
X00586251
X00578751
X00571251
X00563751
X00556251
X00548751
X00541251
X00533751
X00526251
X00518751
X00511251
X00503751
X00496251
X00488751
X00481251
X00473751
X00496251Y01115001
X00503751
X00511251
X00518751
X00526251
X00533751
X00541251
X00548751
X00556251
X00563751
X00567501Y01137501
X00575001
X00582501
X00590001
X00597501
X00605001
X00612501
X00620001
X00627501
X00635001
X00642501
X00650001
X00646251Y01145001
X00638751
X00631251
X00623751
X00616251
X00608751
X00601251
X00593751
X00586251
X00578751
X00571251
X00563751
X00556251
X00548751
X00541251
X00533751
X00526251
X00518751
X00522501Y01152501
X00530001
X00537501
X00545001
X00552501
X00560001
X00567501
X00575001
X00582501
X00590001
X00597501
X00605001
X00612501
X00620001
X00627501
X00635001
X00642501
X00650001
X00646251Y01160001
X00638751
X00631251
X00623751
X00616251
X00608751
X00601251
X00593751
X00586251
X00578751
X00571251
X00563751
X00556251
X00548751
X00541251
X00533751
X00526251
X00518751
X00511251
X00515001Y01167501
X00522501
X00530001
X00537501
X00545001
X00552501
X00560001
X00567501
X00575001
X00582501
X00590001
X00597501
X00605001
X00612501
X00620001
X00627501
X00635001
X00642501
X00650001
Y01182501
X00627501
X00620001
X00612501
X00616251Y01190001
X00623751
Y01175001
X00616251
X00593751
X00586251
X00578751
X00571251
X00563751
X00567501Y01182501
X00575001
X00582501
X00590001
X00597501
X00593751Y01190001
X00586251
X00578751
X00571251
X00563751
X00560001Y01182501
X00537501
X00530001
X00522501
X00526251Y01190001
X00533751
Y01175001
X00541251
X00526251
X00503751
X00507501Y01182501
X00500001
X00507501Y01167501
X00504Y01155
X00495565Y01155398
X00488751Y01160001
X00482Y01169575
X00481251Y01190001
X00473751
X00466251
X00458751
X00451251
X00443751
X00436251
X00428751
X00414Y01182
X00409Y01171
X00515001Y01152501
X00522501Y01137501
X00530001
X00537501
X00545001
X00552501
X00560001
X00563751Y01070001
X00545001Y01077501
Y01062501
X00530001
Y01077501
X00623751Y01100001
X00620001Y01107501
Y00947501
X00627501
X00623751Y00940001
X00616251
X00620001Y00932501
X00627501
X00623751Y00925001
X00616251
X00612501Y00932501
Y00947501
X00620001Y00857501
X00623751Y00850001
X00838906Y00847473
X00838499Y00854501
X00839Y00865
X00839816Y00840492
X0083734Y0082763
X00863Y0082506
X00861801Y0081294
X00864Y0079906
X00854Y00794
X00844Y008
X00874545Y0081983
X00891Y0082
X00893525Y00807525
X00914914Y00813485
X00916708Y00820293
X00915458Y00827221
X0091425Y00840045
X009251Y00840039
X00925Y00833
X00930425Y00819409
X00926287Y00802501
X009466Y008144
X00926729Y00855174
X00896Y00853
X00896338Y00865353
X00881708Y00859293
X00870159Y00845487
X00881039Y00962962
X00948Y00974
Y0103994
X009466Y010644
X00930425Y01069409
X00916708Y01070293
X00915458Y01077221
X0091425Y01090045
X009251Y0109004
X00925Y01083
X00926729Y01105174
X00896Y01103
X00896338Y01115353
X00881708Y01109293
X00870159Y01095487
X00863Y0107506
X00861801Y0106294
X00864Y0104906
X00854Y01044
X00844Y0105
X0083734Y0107763
X00839816Y01090492
X00838906Y01097473
X00838499Y01104501
X00839Y01115
X00874545Y0106983
X00891Y0107
X00893525Y01057525
X00914914Y01063485
X00926287Y01052501
X00995764Y01084995
X01002804Y01085082
X01Y01115
X01044Y01112149
X01064415Y01086585
X01107Y01069841
X01100664Y01057336
X01107463Y01048791
X01091Y01051
X01127453Y010483
X01141964Y0104706
X01143Y01116
X01156Y0112
X01189Y01125
X0119Y01147
X01121567Y01146309
X01122142Y011543
X01129575Y01169899
X0112Y01178887
X0110617Y01187173
X010793Y0118767
X010845Y011665
Y011555
X010955
Y011665
X01061622Y01165572
X01062335Y01149
X01057Y0118
X01026Y01182
X0096252Y0114152
X01098Y01132
X01136163Y0118767
Y0093767
X01129575Y00919899
X0112Y00928887
Y0095
X01112878Y0094979
X0110617Y00937173
X010793Y0093767
X0106654Y0094606
X0105442
X01057Y0093
X01061622Y00915572
X01062335Y00899
X010845Y009055
Y009165
X010955
Y009055
X01098Y00882
X01121567Y00896309
X01122142Y009043
X01143Y00866
X01156Y0087
X01189Y00875
X0119Y00897
X01141964Y0079706
X01127453Y007983
X01107463Y00798791
X01100664Y00807336
X01091Y00801
X01107Y00819841
X01064415Y00836585
X01044Y00862149
X01Y00865
X01002804Y00835082
X00995764Y00834994
X0096252Y0089152
X01026Y00932
X010185Y009535
X010145Y009665
X01052Y00972
X01083Y00971668
X0120586Y00895283
X01221Y00865292
X01214Y00846
X01198246Y00845676
X01217621Y008308
Y010808
X01214Y01096
X01198246Y01095676
X01221Y01115292
X0120586Y01145283
X0112Y012
X01112878Y0119979
X0106654Y0119606
X0105442
X01052Y01222
X01083Y01221668
X010145Y012165
X010185Y012035
X00948Y01224
X00881039Y01212962
X00646251Y01220001
X00638751
X00631251
X00623751
X00616251
X00608751
X00601251
X00593751
X00586251
X00578751
X00571251
X00563751
X00556251
X00548751
X00541251
X00533751
X00526251
X00518751
X00515001Y01212501
X00503751Y01205001
X00492501Y01197501
X00485001
X00477501
X00470001
X00462501
X00455001
X00447501
X00440001
X00432501
X00425001
Y01227501
X00432501
X00440001
X00447501
X00455001
X00462501
X00470001
X00477501
X00485001
X00488751Y01235001
X00496251
X00500001Y01242501
X00507501
X00515001
X00492501
X00485001
X00477501
X00470001
X00462501
X00455001
X00447501
X00440001
X00432501
X00425001
X00417501
X00410001
X00402501
Y01227501
X00417501
X00421251Y01235001
X00428751
X00436251
X00443751
X00451251
X00458751
X00466251
X00473751
X00481251
X00503Y0123
X00530001Y01197501
X00537501
X00560001
X00567501
X00575001
X00582501
X00590001
X00593751Y01205001
X00586251
X00578751
X00571251
X00563751
X00556251
X00560001Y01212501
X00567501
X00575001
X00582501
X00590001
X00597501
Y01227501
X00605001
X00612501
X00620001
X00627501
X00635001
X00642501
X00650001
X00646251Y01235001
X00638751
X00631251
X00623751
X00616251
X00608751
X00601251
X00605001Y01242501
X00612501
X00620001
X00627501
X00635001
X00642501
X00650001
Y01197501
X00627501
X00620001
X00612501
X00590001Y01227501
X00597501Y01242501
X00552501Y01212501
X00395001Y01242501
X00387501
X00380001
X00372501
X00365001
X00357501
X00350001
X00342501
Y01227501
X00350001
X00357501
X00353751Y01220001
X00346251
X00338751
X00342501Y01212501
X00335001
X00338751Y01205001
X00327Y01203
X00324665Y01194335
X00297501Y01197501
X00290001
X00282501
X00275001
X00267501
X00260001
X00263751Y01205001
X00271251
X00278751
X00286251
X00293751
X00301251
X00297501Y01212501
X00290001
X00282501
X00275001
X00267501
X00260001
X00263751Y01220001
X00271251
X00278751
X00286251
X00293751
X00297501Y01242501
X00290001
X00312501
X00267501
X00260001
X00263751Y01235001
X00256251
X00260001Y01227501
X00267501
X00256251Y01220001
Y01205001
X00376251Y01235001
X00383751
T02
X00374108Y00432603
Y00682603
Y00932603
Y01182603
T05
X00345Y00266
X003577
X003704
X003831
X003958
X004085
X004212
X004339
X004466
X00494Y00391
X005067
X007Y0027
X007127
X00845Y00266
X008577
X008704
X008831
X008958
X009085
X009212
X009339
X009466
X00994Y00391
X010067
X012Y0027
X012127
Y0052
X012
Y0077
X012127
X010924Y00737
X010797
X01067
X009466Y00766
X009339
X009212
X009085
X008958
X008831
X008704
X008577
X00845
Y00516
X008577
X008704
X008831
X008958
X009085
X009212
X009339
X009466
X01067Y00487
X010797
X010924
X010067Y00641
X00994
X007127Y0052
X007
X005864Y00487
X005737
X00561
X004466Y00516
X004339
X004212
X004085
X00494Y00641
X005067
X00561Y00737
X005737
X005864
X007Y0077
X007127
X004466Y00766
X004339
X004212
X004085
X003958
X003831
X003704
X003577
X00345
X003307Y00734
X00318
X003053
X002926
X002799
Y00484
X002926
X003053
X00318
X003307
X00345Y00516
X003577
X003704
X003831
X003958
Y01016
X003831
X003704
X003577
X00345
X003307Y00984
X00318
X003053
X002926
X002799
X004085Y01016
X004212
X004339
X004466
X00561Y00987
X005737
X005864
X007Y0102
X007127
X005067Y01141
X00494
Y00891
X005067
X00845Y01016
X008577
X008704
X008831
X008958
X009085
X009212
X009339
X009466
X01067Y00987
X010797
X010924
X010067Y00891
X00994
Y01141
X010067
X012Y0102
X012127
X010924Y01237
X010797
X01067
X005864
X005737
X00561
X003307Y01234
X00318
X003053
X002926
X002799
T06
X00538Y0032
Y0057
Y0082
Y0107
T07
X00791Y00274
X008164
Y00524
Y00774
X01182Y007194
Y00694
Y004694
Y00444
X00791Y00524
Y00774
Y01024
X008164
X01182Y009694
Y00944
Y01194
Y012194
M30
